<!DOCTYPE svg PUBLIC "-//W3C//DTD SVG 1.1//EN" "http://www.w3.org/Graphics/SVG/1.1/DTD/svg11.dtd">
<!-- Uploaded to: SVG Repo, www.svgrepo.com, Transformed by: SVG Repo Mixer Tools -->
<svg fill="#ffffff" width="800px" height="800px" viewBox="-0.72 -0.72 25.44 25.44" xmlns="http://www.w3.org/2000/svg" stroke="#ffffff" transform="matrix(-1, 0, 0, 1, 0, 0)">
<g id="SVGRepo_bgCarrier" stroke-width="0"/>
<g id="SVGRepo_tracerCarrier" stroke-linecap="round" stroke-linejoin="round"/>
<g id="SVGRepo_iconCarrier"> <g data-name="Layer 2"> <g data-name="undo"> <rect width="24" height="24" transform="rotate(-90 12 12)" opacity="0"/> <path d="M20.22 21a1 1 0 0 1-1-.76 8.91 8.91 0 0 0-7.8-6.69v1.12a1.78 1.78 0 0 1-1.09 1.64A2 2 0 0 1 8.18 16l-5.06-4.41a1.76 1.76 0 0 1 0-2.68l5.06-4.42a2 2 0 0 1 2.18-.3 1.78 1.78 0 0 1 1.09 1.64V7A10.89 10.89 0 0 1 21.5 17.75a10.29 10.29 0 0 1-.31 2.49 1 1 0 0 1-1 .76z"/> </g> </g> </g>
</svg>