<svg xmlns="http://www.w3.org/2000/svg" xmlns:xlink="http://www.w3.org/1999/xlink" width="98" zoomAndPan="magnify" viewBox="0 0 73.5 68.249996" height="91" preserveAspectRatio="xMidYMid meet" version="1.0"><defs><clipPath id="09c77aa091"><path d="M 0.152344 1 L 72.851562 1 L 72.851562 66.765625 L 0.152344 66.765625 Z M 0.152344 1 " clip-rule="nonzero"/></clipPath><clipPath id="ec5a6c8d6d"><path d="M 0.152344 2 L 72.851562 2 L 72.851562 64 L 0.152344 64 Z M 0.152344 2 " clip-rule="nonzero"/></clipPath><clipPath id="086b20553d"><path d="M 0.152344 1 L 72.851562 1 L 72.851562 66.765625 L 0.152344 66.765625 Z M 0.152344 1 " clip-rule="nonzero"/></clipPath><clipPath id="86b18ceab9"><path d="M 0.152344 2 L 72.851562 2 L 72.851562 64 L 0.152344 64 Z M 0.152344 2 " clip-rule="nonzero"/></clipPath></defs><g clip-path="url(#09c77aa091)"><path fill="#000000" d="M 63.667969 59.828125 C 62.714844 65.289062 64.617188 66.246094 64.617188 66.246094 C 60.375 66.222656 58.886719 63.523438 58.886719 63.523438 C 57.589844 64.207031 56.613281 66.171875 56.613281 66.171875 C 56.109375 65.375 55.699219 64.398438 55.371094 63.292969 C 54.769531 61.242188 54.445312 58.753906 54.308594 56.148438 C 54.304688 56.148438 54.300781 56.148438 54.296875 56.148438 C 54.179688 56.148438 54.078125 56.054688 54.070312 55.9375 C 53.613281 49.046875 54.332031 43.199219 55.195312 39.003906 C 55.21875 38.820312 55.238281 38.667969 55.253906 38.558594 C 42.480469 36.652344 35.644531 26.578125 35.574219 26.476562 C 35.507812 26.375 35.535156 26.238281 35.636719 26.167969 C 34.757812 24.890625 34.3125 23.933594 34.148438 23.550781 C 33.773438 27.003906 32.84375 36.304688 33.316406 39.398438 C 33.332031 39.519531 33.25 39.636719 33.125 39.652344 C 33.113281 39.65625 33.101562 39.65625 33.09375 39.65625 C 32.984375 39.65625 32.886719 39.578125 32.871094 39.464844 C 32.859375 39.398438 32.851562 39.332031 32.839844 39.257812 C 31.089844 37.808594 30.222656 31.351562 30.058594 30.007812 C 29.796875 31.917969 29.328125 35.882812 29.730469 37.363281 C 29.753906 37.449219 29.726562 37.539062 29.65625 37.59375 C 29.617188 37.628906 29.566406 37.648438 29.511719 37.648438 C 29.480469 37.648438 29.445312 37.640625 29.414062 37.625 C 29.3125 37.574219 26.953125 36.339844 25.816406 29.859375 C 25.792969 29.734375 25.875 29.617188 26 29.597656 C 25.796875 28.347656 25.710938 27.308594 25.675781 26.800781 C 24.78125 28.792969 22.804688 32.109375 18.648438 35.605469 C 18.609375 35.640625 18.554688 35.660156 18.503906 35.660156 C 18.503906 35.660156 18.5 35.660156 18.5 35.660156 C 18.398438 39.4375 16.378906 41.832031 15.984375 42.265625 C 15.980469 42.464844 15.972656 42.667969 15.964844 42.871094 C 15.960938 43.035156 15.960938 43.1875 15.957031 43.347656 C 16.226562 48.382812 16.820312 55.347656 18.128906 58.960938 C 18.171875 59.078125 18.109375 59.207031 17.992188 59.253906 C 18.578125 60.847656 19.214844 62.027344 19.792969 62.882812 C 20.769531 64.324219 21.585938 64.847656 21.707031 64.921875 L 19.0625 63.777344 C 18.070312 66.71875 18.144531 67.121094 18.144531 67.121094 C 14.785156 67.070312 14.285156 63.355469 14.285156 63.355469 C 14.285156 66.007812 11.964844 66.550781 11.964844 66.550781 C 8.460938 66.648438 4.863281 64.5 4.863281 64.5 C 5.375 64.152344 5.765625 63.617188 6.054688 62.898438 C 6.632812 61.472656 6.800781 59.308594 6.6875 56.410156 C 4.527344 54.171875 0.757812 49.023438 0.324219 41.554688 C 0.3125 41.378906 0.304688 41.203125 0.300781 41.027344 C 0.214844 38.195312 0.734375 35.066406 1.578125 31.953125 C 1.460938 31.921875 1.390625 31.800781 1.417969 31.683594 C 3.144531 24.164062 9.625 12.667969 9.6875 12.550781 C 9.75 12.445312 9.886719 12.40625 9.996094 12.46875 C 10.003906 12.46875 10.007812 12.476562 10.011719 12.476562 C 10.757812 11.382812 11.558594 10.367188 12.394531 9.417969 C 13.472656 8.199219 14.617188 7.179688 15.789062 6.328125 C 15.796875 6.324219 15.808594 6.316406 15.816406 6.3125 C 15.746094 6.214844 15.761719 6.078125 15.855469 6.003906 C 22.847656 0.484375 32.894531 2.375 33.710938 2.539062 C 34.558594 2.339844 45.386719 0 54.292969 6.847656 C 54.390625 6.921875 54.410156 7.058594 54.335938 7.15625 C 55.933594 8.277344 57.464844 9.585938 58.921875 11.082031 C 59.875 12.066406 60.800781 13.128906 61.679688 14.273438 L 61.683594 14.277344 C 61.6875 14.277344 61.6875 14.28125 61.6875 14.285156 L 61.6875 14.28125 C 61.6875 14.28125 61.703125 14.300781 61.730469 14.339844 C 62.179688 14.925781 62.625 15.53125 63.054688 16.160156 C 63.675781 17.066406 64.230469 18.011719 64.730469 18.984375 C 64.835938 18.933594 64.960938 18.96875 65.023438 19.070312 C 65.082031 19.164062 70.671875 28.476562 71.878906 37.386719 C 71.894531 37.507812 71.8125 37.617188 71.695312 37.640625 C 71.953125 39.035156 72.152344 40.46875 72.28125 41.925781 C 72.363281 42.808594 72.417969 43.703125 72.441406 44.605469 C 72.617188 51.367188 67.066406 56.371094 63.832031 58.953125 C 63.773438 59.257812 63.714844 59.546875 63.667969 59.828125 Z M 63.667969 59.828125 " fill-opacity="1" fill-rule="nonzero"/></g><g clip-path="url(#ec5a6c8d6d)"><path fill="#000000" d="M 58.382812 60.324219 C 58.382812 60.324219 60.910156 60.777344 63.667969 59.828125 C 63.714844 59.546875 63.773438 59.257812 63.835938 58.957031 C 64.050781 57.953125 64.351562 56.8125 64.765625 55.523438 C 64.648438 55.488281 64.582031 55.363281 64.617188 55.242188 C 64.984375 54.0625 68.058594 44.492188 68.089844 44.398438 C 68.128906 44.277344 68.257812 44.214844 68.375 44.25 C 68.492188 44.289062 68.558594 44.414062 68.523438 44.535156 C 68.5 44.605469 66.769531 49.992188 65.746094 53.1875 C 69.355469 50.011719 71.355469 44.945312 72.285156 41.925781 C 72.15625 40.46875 71.957031 39.035156 71.699219 37.640625 C 71.695312 37.640625 71.691406 37.640625 71.6875 37.644531 C 71.675781 37.644531 71.667969 37.644531 71.65625 37.644531 C 71.542969 37.644531 71.445312 37.5625 71.429688 37.449219 C 70.234375 28.625 64.695312 19.398438 64.640625 19.304688 C 64.574219 19.199219 64.609375 19.058594 64.714844 18.992188 C 64.722656 18.992188 64.726562 18.988281 64.730469 18.984375 C 64.234375 18.011719 63.675781 17.066406 63.058594 16.160156 C 62.628906 15.53125 62.183594 14.925781 61.734375 14.339844 C 61.707031 14.300781 61.691406 14.28125 61.691406 14.28125 L 61.691406 14.285156 C 61.6875 14.28125 61.6875 14.277344 61.6875 14.277344 C 60.46875 15.210938 58.867188 16.25 56.84375 17.214844 C 57.21875 18.523438 57.488281 19.972656 57.621094 21.582031 C 57.632812 21.707031 57.539062 21.816406 57.417969 21.828125 C 57.410156 21.828125 57.402344 21.828125 57.398438 21.828125 C 57.28125 21.828125 57.183594 21.738281 57.171875 21.621094 C 57.046875 20.117188 56.800781 18.710938 56.441406 17.40625 C 50.808594 19.992188 42.046875 21.96875 29.296875 19.820312 C 19.585938 18.183594 13.328125 16.136719 9.296875 14.207031 C 7.515625 17.527344 3.210938 25.898438 1.855469 31.785156 C 1.832031 31.890625 1.738281 31.960938 1.636719 31.960938 C 1.617188 31.960938 1.601562 31.960938 1.585938 31.953125 C 1.582031 31.953125 1.578125 31.953125 1.578125 31.953125 C 0.734375 35.066406 0.214844 38.195312 0.300781 41.027344 C 1.371094 43.78125 3.21875 47.339844 6.128906 49.640625 C 6.417969 52.222656 6.617188 54.476562 6.691406 56.40625 C 6.804688 59.304688 6.632812 61.46875 6.058594 62.898438 C 7.914062 62.773438 11.242188 62.152344 12.75 59.398438 C 12.75 59.398438 15.628906 62.375 19.796875 62.878906 C 19.21875 62.027344 18.582031 60.847656 17.996094 59.25 C 17.972656 59.261719 17.945312 59.265625 17.921875 59.265625 C 17.828125 59.265625 17.742188 59.207031 17.707031 59.113281 C 15.496094 53.015625 15.296875 37.578125 15.292969 37.421875 C 15.292969 37.296875 15.390625 37.195312 15.515625 37.191406 C 15.519531 37.191406 15.519531 37.191406 15.519531 37.191406 C 15.640625 37.191406 15.742188 37.292969 15.746094 37.417969 C 15.746094 37.476562 15.777344 39.980469 15.957031 43.34375 C 15.960938 43.1875 15.960938 43.03125 15.964844 42.871094 C 15.972656 42.664062 15.976562 42.460938 15.984375 42.261719 C 16.378906 41.828125 18.398438 39.4375 18.5 35.65625 C 18.4375 35.65625 18.375 35.628906 18.332031 35.578125 C 18.25 35.484375 18.261719 35.339844 18.359375 35.257812 C 24.75 29.878906 25.910156 24.839844 25.921875 24.789062 C 25.949219 24.664062 26.070312 24.585938 26.191406 24.613281 C 26.3125 24.640625 26.390625 24.761719 26.363281 24.882812 C 26.347656 24.960938 26.183594 25.667969 25.675781 26.800781 C 25.710938 27.308594 25.796875 28.34375 26.003906 29.597656 C 26.128906 29.574219 26.242188 29.65625 26.261719 29.78125 C 27.058594 34.332031 28.476562 36.203125 29.1875 36.878906 C 28.894531 34.410156 29.730469 29.125 29.769531 28.882812 C 29.789062 28.757812 29.90625 28.675781 30.027344 28.695312 C 30.152344 28.714844 30.234375 28.828125 30.214844 28.953125 C 30.210938 28.96875 30.148438 29.375 30.0625 30.007812 C 30.226562 31.351562 31.089844 37.808594 32.84375 39.257812 C 32.332031 35.164062 33.785156 22.730469 33.847656 22.191406 C 33.863281 22.066406 33.976562 21.976562 34.097656 21.992188 C 34.222656 22.007812 34.3125 22.121094 34.296875 22.246094 C 34.292969 22.269531 34.238281 22.753906 34.148438 23.550781 C 34.3125 23.929688 34.761719 24.890625 35.636719 26.167969 C 35.636719 26.167969 35.636719 26.164062 35.640625 26.164062 C 35.746094 26.09375 35.882812 26.121094 35.953125 26.226562 C 36 26.296875 39.335938 31.207031 45.675781 34.773438 C 47.433594 35.707031 49.445312 36.574219 51.734375 37.324219 C 52.871094 37.652344 54.066406 37.921875 55.324219 38.109375 C 55.34375 38.113281 55.363281 38.121094 55.382812 38.128906 C 56.242188 34.246094 57.167969 31.996094 57.1875 31.949219 C 57.234375 31.835938 57.367188 31.78125 57.484375 31.828125 C 57.597656 31.875 57.652344 32.007812 57.605469 32.125 C 57.566406 32.222656 53.59375 41.871094 54.523438 55.90625 C 54.53125 56.03125 54.4375 56.136719 54.3125 56.144531 C 54.3125 56.144531 54.308594 56.144531 54.308594 56.144531 C 54.449219 58.75 54.769531 61.242188 55.375 63.289062 C 56.253906 62.078125 57.46875 60.671875 58.382812 60.324219 Z M 6.097656 49.453125 C 6.09375 49.453125 6.085938 49.453125 6.082031 49.453125 C 5.964844 49.453125 5.863281 49.359375 5.855469 49.242188 L 5.363281 41.941406 C 5.355469 41.816406 5.449219 41.710938 5.574219 41.703125 C 5.707031 41.699219 5.808594 41.789062 5.816406 41.914062 L 6.308594 49.210938 C 6.316406 49.335938 6.21875 49.445312 6.097656 49.453125 Z M 53.574219 31.605469 C 53.015625 31.664062 52.464844 31.691406 51.921875 31.691406 C 46.480469 31.691406 41.839844 28.871094 39.984375 27.566406 C 39.933594 27.53125 39.898438 27.503906 39.875 27.488281 C 39.769531 27.417969 39.742188 27.277344 39.8125 27.175781 C 39.882812 27.070312 40.019531 27.042969 40.125 27.113281 C 40.152344 27.128906 40.191406 27.15625 40.246094 27.195312 C 42.246094 28.601562 47.539062 31.804688 53.523438 31.15625 C 53.648438 31.144531 53.757812 31.230469 53.773438 31.355469 C 53.789062 31.476562 53.699219 31.589844 53.574219 31.605469 Z M 55.289062 38.558594 C 55.257812 38.703125 55.226562 38.851562 55.195312 39.003906 C 55.222656 38.816406 55.242188 38.667969 55.257812 38.558594 C 55.269531 38.558594 55.277344 38.558594 55.289062 38.558594 Z M 15.816406 6.3125 C 15.808594 6.316406 15.796875 6.324219 15.789062 6.328125 C 15.796875 6.324219 15.808594 6.316406 15.816406 6.3125 Z M 54.335938 7.164062 C 54.335938 7.164062 54.335938 7.160156 54.339844 7.15625 C 55.933594 8.28125 57.46875 9.585938 58.921875 11.082031 C 57.351562 11.382812 55.785156 11.613281 54.238281 11.78125 C 52.320312 9.160156 49.898438 7.582031 47.742188 6.628906 C 43.328125 4.683594 39.03125 4.894531 38.988281 4.894531 C 38.863281 4.902344 38.765625 5.007812 38.773438 5.132812 C 38.78125 5.257812 38.886719 5.355469 39.011719 5.347656 C 39.054688 5.34375 43.257812 5.144531 47.574219 7.050781 C 50.136719 8.183594 52.199219 9.78125 53.75 11.828125 C 50.867188 12.117188 48.027344 12.191406 45.273438 12.105469 C 43.695312 7.917969 39.082031 7.296875 39.027344 7.289062 C 38.902344 7.273438 38.792969 7.363281 38.777344 7.488281 C 38.761719 7.609375 38.851562 7.722656 38.972656 7.738281 C 39.175781 7.765625 43.265625 8.324219 44.78125 12.085938 C 36.597656 11.761719 29.175781 10.007812 23.492188 8.140625 C 27.691406 5.09375 32.527344 5.347656 32.59375 5.355469 C 32.714844 5.359375 32.828125 5.269531 32.835938 5.140625 C 32.84375 5.015625 32.75 4.910156 32.625 4.902344 C 32.554688 4.894531 27.363281 4.617188 22.96875 7.96875 C 20.664062 7.191406 18.664062 6.40625 17.035156 5.703125 C 24.058594 0.949219 33.566406 2.96875 33.664062 2.988281 C 33.699219 2.996094 33.734375 2.996094 33.769531 2.988281 C 33.878906 2.960938 44.96875 0.246094 54.015625 7.203125 C 54.058594 7.234375 54.105469 7.25 54.152344 7.25 C 54.222656 7.25 54.289062 7.222656 54.335938 7.164062 Z M 61.683594 14.273438 L 58.921875 11.082031 C 59.878906 12.066406 60.800781 13.128906 61.683594 14.273438 Z M 61.683594 14.273438 " fill-opacity="1" fill-rule="nonzero"/></g><path fill="#000000" d="M 10.011719 12.476562 C 10.757812 11.382812 11.558594 10.367188 12.394531 9.417969 C 13.472656 8.199219 14.617188 7.179688 15.789062 6.328125 C 15.796875 6.324219 15.808594 6.316406 15.816406 6.3125 C 15.816406 6.316406 15.816406 6.316406 15.820312 6.320312 C 15.898438 6.417969 16.039062 6.433594 16.136719 6.355469 C 16.433594 6.125 16.730469 5.910156 17.035156 5.703125 C 18.664062 6.410156 20.664062 7.195312 22.96875 7.96875 C 21.410156 9.15625 19.949219 10.800781 18.859375 13.078125 C 18.804688 13.191406 18.851562 13.328125 18.964844 13.382812 C 18.996094 13.398438 19.03125 13.402344 19.0625 13.402344 C 19.148438 13.402344 19.226562 13.355469 19.265625 13.277344 C 20.382812 10.949219 21.890625 9.308594 23.496094 8.144531 C 29.175781 10.011719 36.597656 11.765625 44.78125 12.089844 C 45.042969 12.730469 45.230469 13.464844 45.304688 14.308594 C 45.316406 14.425781 45.414062 14.511719 45.53125 14.511719 C 45.535156 14.511719 45.542969 14.511719 45.550781 14.511719 C 45.675781 14.5 45.765625 14.390625 45.753906 14.265625 C 45.679688 13.457031 45.511719 12.738281 45.269531 12.105469 C 48.027344 12.191406 50.867188 12.117188 53.75 11.828125 C 54.953125 13.417969 55.851562 15.28125 56.441406 17.40625 C 50.808594 19.992188 42.046875 21.96875 29.296875 19.820312 C 19.585938 18.183594 13.328125 16.136719 9.296875 14.207031 C 9.773438 13.324219 10.070312 12.796875 10.082031 12.773438 C 10.140625 12.671875 10.109375 12.542969 10.011719 12.476562 Z M 10.011719 12.476562 " fill-opacity="1" fill-rule="nonzero"/><path fill="#000000" d="M 56.84375 17.214844 C 58.867188 16.25 60.46875 15.210938 61.6875 14.277344 L 61.683594 14.273438 L 58.921875 11.082031 C 57.351562 11.382812 55.785156 11.613281 54.238281 11.78125 C 55.308594 13.242188 56.21875 15.03125 56.84375 17.214844 Z M 56.84375 17.214844 " fill-opacity="1" fill-rule="nonzero"/><g clip-path="url(#086b20553d)"><path fill="#000000" d="M 63.667969 59.828125 C 62.714844 65.289062 64.617188 66.246094 64.617188 66.246094 C 60.375 66.222656 58.886719 63.523438 58.886719 63.523438 C 57.589844 64.207031 56.613281 66.171875 56.613281 66.171875 C 56.109375 65.375 55.699219 64.398438 55.371094 63.292969 C 54.769531 61.242188 54.445312 58.753906 54.308594 56.148438 C 54.304688 56.148438 54.300781 56.148438 54.296875 56.148438 C 54.179688 56.148438 54.078125 56.054688 54.070312 55.9375 C 53.613281 49.046875 54.332031 43.199219 55.195312 39.003906 C 55.21875 38.820312 55.238281 38.667969 55.253906 38.558594 C 42.480469 36.652344 35.644531 26.578125 35.574219 26.476562 C 35.507812 26.375 35.535156 26.238281 35.636719 26.167969 C 34.757812 24.890625 34.3125 23.933594 34.148438 23.550781 C 33.773438 27.003906 32.84375 36.304688 33.316406 39.398438 C 33.332031 39.519531 33.25 39.636719 33.125 39.652344 C 33.113281 39.65625 33.101562 39.65625 33.09375 39.65625 C 32.984375 39.65625 32.886719 39.578125 32.871094 39.464844 C 32.859375 39.398438 32.851562 39.332031 32.839844 39.257812 C 31.089844 37.808594 30.222656 31.351562 30.058594 30.007812 C 29.796875 31.917969 29.328125 35.882812 29.730469 37.363281 C 29.753906 37.449219 29.726562 37.539062 29.65625 37.59375 C 29.617188 37.628906 29.566406 37.648438 29.511719 37.648438 C 29.480469 37.648438 29.445312 37.640625 29.414062 37.625 C 29.3125 37.574219 26.953125 36.339844 25.816406 29.859375 C 25.792969 29.734375 25.875 29.617188 26 29.597656 C 25.796875 28.347656 25.710938 27.308594 25.675781 26.800781 C 24.78125 28.792969 22.804688 32.109375 18.648438 35.605469 C 18.609375 35.640625 18.554688 35.660156 18.503906 35.660156 C 18.503906 35.660156 18.5 35.660156 18.5 35.660156 C 18.398438 39.4375 16.378906 41.832031 15.984375 42.265625 C 15.980469 42.464844 15.972656 42.667969 15.964844 42.871094 C 15.960938 43.035156 15.960938 43.1875 15.957031 43.347656 C 16.226562 48.382812 16.820312 55.347656 18.128906 58.960938 C 18.171875 59.078125 18.109375 59.207031 17.992188 59.253906 C 18.578125 60.847656 19.214844 62.027344 19.792969 62.882812 C 20.769531 64.324219 21.585938 64.847656 21.707031 64.921875 L 19.0625 63.777344 C 18.070312 66.71875 18.144531 67.121094 18.144531 67.121094 C 14.785156 67.070312 14.285156 63.355469 14.285156 63.355469 C 14.285156 66.007812 11.964844 66.550781 11.964844 66.550781 C 8.460938 66.648438 4.863281 64.5 4.863281 64.5 C 5.375 64.152344 5.765625 63.617188 6.054688 62.898438 C 6.632812 61.472656 6.800781 59.308594 6.6875 56.410156 C 4.527344 54.171875 0.757812 49.023438 0.324219 41.554688 C 0.3125 41.378906 0.304688 41.203125 0.300781 41.027344 C 0.214844 38.195312 0.734375 35.066406 1.578125 31.953125 C 1.460938 31.921875 1.390625 31.800781 1.417969 31.683594 C 3.144531 24.164062 9.625 12.667969 9.6875 12.550781 C 9.75 12.445312 9.886719 12.40625 9.996094 12.46875 C 10.003906 12.46875 10.007812 12.476562 10.011719 12.476562 C 10.757812 11.382812 11.558594 10.367188 12.394531 9.417969 C 13.472656 8.199219 14.617188 7.179688 15.789062 6.328125 C 15.796875 6.324219 15.808594 6.316406 15.816406 6.3125 C 15.746094 6.214844 15.761719 6.078125 15.855469 6.003906 C 22.847656 0.484375 32.894531 2.375 33.710938 2.539062 C 34.558594 2.339844 45.386719 0 54.292969 6.847656 C 54.390625 6.921875 54.410156 7.058594 54.335938 7.15625 C 55.933594 8.277344 57.464844 9.585938 58.921875 11.082031 C 59.875 12.066406 60.800781 13.128906 61.679688 14.273438 L 61.683594 14.277344 C 61.6875 14.277344 61.6875 14.28125 61.6875 14.285156 L 61.6875 14.28125 C 61.6875 14.28125 61.703125 14.300781 61.730469 14.339844 C 62.179688 14.925781 62.625 15.53125 63.054688 16.160156 C 63.675781 17.066406 64.230469 18.011719 64.730469 18.984375 C 64.835938 18.933594 64.960938 18.96875 65.023438 19.070312 C 65.082031 19.164062 70.671875 28.476562 71.878906 37.386719 C 71.894531 37.507812 71.8125 37.617188 71.695312 37.640625 C 71.953125 39.035156 72.152344 40.46875 72.28125 41.925781 C 72.363281 42.808594 72.417969 43.703125 72.441406 44.605469 C 72.617188 51.367188 67.066406 56.371094 63.832031 58.953125 C 63.773438 59.257812 63.714844 59.546875 63.667969 59.828125 Z M 63.667969 59.828125 " fill-opacity="1" fill-rule="nonzero"/></g><g clip-path="url(#86b18ceab9)"><path fill="#000000" d="M 58.382812 60.324219 C 58.382812 60.324219 60.910156 60.777344 63.667969 59.828125 C 63.714844 59.546875 63.773438 59.257812 63.835938 58.957031 C 64.050781 57.953125 64.351562 56.8125 64.765625 55.523438 C 64.648438 55.488281 64.582031 55.363281 64.617188 55.242188 C 64.984375 54.0625 68.058594 44.492188 68.089844 44.398438 C 68.128906 44.277344 68.257812 44.214844 68.375 44.25 C 68.492188 44.289062 68.558594 44.414062 68.523438 44.535156 C 68.5 44.605469 66.769531 49.992188 65.746094 53.1875 C 69.355469 50.011719 71.355469 44.945312 72.285156 41.925781 C 72.15625 40.46875 71.957031 39.035156 71.699219 37.640625 C 71.695312 37.640625 71.691406 37.640625 71.6875 37.644531 C 71.675781 37.644531 71.667969 37.644531 71.65625 37.644531 C 71.542969 37.644531 71.445312 37.5625 71.429688 37.449219 C 70.234375 28.625 64.695312 19.398438 64.640625 19.304688 C 64.574219 19.199219 64.609375 19.058594 64.714844 18.992188 C 64.722656 18.992188 64.726562 18.988281 64.730469 18.984375 C 64.234375 18.011719 63.675781 17.066406 63.058594 16.160156 C 62.628906 15.53125 62.183594 14.925781 61.734375 14.339844 C 61.707031 14.300781 61.691406 14.28125 61.691406 14.28125 L 61.691406 14.285156 C 61.6875 14.28125 61.6875 14.277344 61.6875 14.277344 C 60.46875 15.210938 58.867188 16.25 56.84375 17.214844 C 57.21875 18.523438 57.488281 19.972656 57.621094 21.582031 C 57.632812 21.707031 57.539062 21.816406 57.417969 21.828125 C 57.410156 21.828125 57.402344 21.828125 57.398438 21.828125 C 57.28125 21.828125 57.183594 21.738281 57.171875 21.621094 C 57.046875 20.117188 56.800781 18.710938 56.441406 17.40625 C 50.808594 19.992188 42.046875 21.96875 29.296875 19.820312 C 19.585938 18.183594 13.328125 16.136719 9.296875 14.207031 C 7.515625 17.527344 3.210938 25.898438 1.855469 31.785156 C 1.832031 31.890625 1.738281 31.960938 1.636719 31.960938 C 1.617188 31.960938 1.601562 31.960938 1.585938 31.953125 C 1.582031 31.953125 1.578125 31.953125 1.578125 31.953125 C 0.734375 35.066406 0.214844 38.195312 0.300781 41.027344 C 1.371094 43.78125 3.21875 47.339844 6.128906 49.640625 C 6.417969 52.222656 6.617188 54.476562 6.691406 56.40625 C 6.804688 59.304688 6.632812 61.46875 6.058594 62.898438 C 7.914062 62.773438 11.242188 62.152344 12.75 59.398438 C 12.75 59.398438 15.628906 62.375 19.796875 62.878906 C 19.21875 62.027344 18.582031 60.847656 17.996094 59.25 C 17.972656 59.261719 17.945312 59.265625 17.921875 59.265625 C 17.828125 59.265625 17.742188 59.207031 17.707031 59.113281 C 15.496094 53.015625 15.296875 37.578125 15.292969 37.421875 C 15.292969 37.296875 15.390625 37.195312 15.515625 37.191406 C 15.519531 37.191406 15.519531 37.191406 15.519531 37.191406 C 15.640625 37.191406 15.742188 37.292969 15.746094 37.417969 C 15.746094 37.476562 15.777344 39.980469 15.957031 43.34375 C 15.960938 43.1875 15.960938 43.03125 15.964844 42.871094 C 15.972656 42.664062 15.976562 42.460938 15.984375 42.261719 C 16.378906 41.828125 18.398438 39.4375 18.5 35.65625 C 18.4375 35.65625 18.375 35.628906 18.332031 35.578125 C 18.25 35.484375 18.261719 35.339844 18.359375 35.257812 C 24.75 29.878906 25.910156 24.839844 25.921875 24.789062 C 25.949219 24.664062 26.070312 24.585938 26.191406 24.613281 C 26.3125 24.640625 26.390625 24.761719 26.363281 24.882812 C 26.347656 24.960938 26.183594 25.667969 25.675781 26.800781 C 25.710938 27.308594 25.796875 28.34375 26.003906 29.597656 C 26.128906 29.574219 26.242188 29.65625 26.261719 29.78125 C 27.058594 34.332031 28.476562 36.203125 29.1875 36.878906 C 28.894531 34.410156 29.730469 29.125 29.769531 28.882812 C 29.789062 28.757812 29.90625 28.675781 30.027344 28.695312 C 30.152344 28.714844 30.234375 28.828125 30.214844 28.953125 C 30.210938 28.96875 30.148438 29.375 30.0625 30.007812 C 30.226562 31.351562 31.089844 37.808594 32.84375 39.257812 C 32.332031 35.164062 33.785156 22.730469 33.847656 22.191406 C 33.863281 22.066406 33.976562 21.976562 34.097656 21.992188 C 34.222656 22.007812 34.3125 22.121094 34.296875 22.246094 C 34.292969 22.269531 34.238281 22.753906 34.148438 23.550781 C 34.3125 23.929688 34.761719 24.890625 35.636719 26.167969 C 35.636719 26.167969 35.636719 26.164062 35.640625 26.164062 C 35.746094 26.09375 35.882812 26.121094 35.953125 26.226562 C 36 26.296875 39.335938 31.207031 45.675781 34.773438 C 47.433594 35.707031 49.445312 36.574219 51.734375 37.324219 C 52.871094 37.652344 54.066406 37.921875 55.324219 38.109375 C 55.34375 38.113281 55.363281 38.121094 55.382812 38.128906 C 56.242188 34.246094 57.167969 31.996094 57.1875 31.949219 C 57.234375 31.835938 57.367188 31.78125 57.484375 31.828125 C 57.597656 31.875 57.652344 32.007812 57.605469 32.125 C 57.566406 32.222656 53.59375 41.871094 54.523438 55.90625 C 54.53125 56.03125 54.4375 56.136719 54.3125 56.144531 C 54.3125 56.144531 54.308594 56.144531 54.308594 56.144531 C 54.449219 58.75 54.769531 61.242188 55.375 63.289062 C 56.253906 62.078125 57.46875 60.671875 58.382812 60.324219 Z M 6.097656 49.453125 C 6.09375 49.453125 6.085938 49.453125 6.082031 49.453125 C 5.964844 49.453125 5.863281 49.359375 5.855469 49.242188 L 5.363281 41.941406 C 5.355469 41.816406 5.449219 41.710938 5.574219 41.703125 C 5.707031 41.699219 5.808594 41.789062 5.816406 41.914062 L 6.308594 49.210938 C 6.316406 49.335938 6.21875 49.445312 6.097656 49.453125 Z M 53.574219 31.605469 C 53.015625 31.664062 52.464844 31.691406 51.921875 31.691406 C 46.480469 31.691406 41.839844 28.871094 39.984375 27.566406 C 39.933594 27.53125 39.898438 27.503906 39.875 27.488281 C 39.769531 27.417969 39.742188 27.277344 39.8125 27.175781 C 39.882812 27.070312 40.019531 27.042969 40.125 27.113281 C 40.152344 27.128906 40.191406 27.15625 40.246094 27.195312 C 42.246094 28.601562 47.539062 31.804688 53.523438 31.15625 C 53.648438 31.144531 53.757812 31.230469 53.773438 31.355469 C 53.789062 31.476562 53.699219 31.589844 53.574219 31.605469 Z M 55.289062 38.558594 C 55.257812 38.703125 55.226562 38.851562 55.195312 39.003906 C 55.222656 38.816406 55.242188 38.667969 55.257812 38.558594 C 55.269531 38.558594 55.277344 38.558594 55.289062 38.558594 Z M 15.816406 6.3125 C 15.808594 6.316406 15.796875 6.324219 15.789062 6.328125 C 15.796875 6.324219 15.808594 6.316406 15.816406 6.3125 Z M 54.335938 7.164062 C 54.335938 7.164062 54.335938 7.160156 54.339844 7.15625 C 55.933594 8.28125 57.46875 9.585938 58.921875 11.082031 C 57.351562 11.382812 55.785156 11.613281 54.238281 11.78125 C 52.320312 9.160156 49.898438 7.582031 47.742188 6.628906 C 43.328125 4.683594 39.03125 4.894531 38.988281 4.894531 C 38.863281 4.902344 38.765625 5.007812 38.773438 5.132812 C 38.78125 5.257812 38.886719 5.355469 39.011719 5.347656 C 39.054688 5.34375 43.257812 5.144531 47.574219 7.050781 C 50.136719 8.183594 52.199219 9.78125 53.75 11.828125 C 50.867188 12.117188 48.027344 12.191406 45.273438 12.105469 C 43.695312 7.917969 39.082031 7.296875 39.027344 7.289062 C 38.902344 7.273438 38.792969 7.363281 38.777344 7.488281 C 38.761719 7.609375 38.851562 7.722656 38.972656 7.738281 C 39.175781 7.765625 43.265625 8.324219 44.78125 12.085938 C 36.597656 11.761719 29.175781 10.007812 23.492188 8.140625 C 27.691406 5.09375 32.527344 5.347656 32.59375 5.355469 C 32.714844 5.359375 32.828125 5.269531 32.835938 5.140625 C 32.84375 5.015625 32.75 4.910156 32.625 4.902344 C 32.554688 4.894531 27.363281 4.617188 22.96875 7.96875 C 20.664062 7.191406 18.664062 6.40625 17.035156 5.703125 C 24.058594 0.949219 33.566406 2.96875 33.664062 2.988281 C 33.699219 2.996094 33.734375 2.996094 33.769531 2.988281 C 33.878906 2.960938 44.96875 0.246094 54.015625 7.203125 C 54.058594 7.234375 54.105469 7.25 54.152344 7.25 C 54.222656 7.25 54.289062 7.222656 54.335938 7.164062 Z M 61.683594 14.273438 L 58.921875 11.082031 C 59.878906 12.066406 60.800781 13.128906 61.683594 14.273438 Z M 61.683594 14.273438 " fill-opacity="1" fill-rule="nonzero"/></g><path fill="#000000" d="M 10.011719 12.476562 C 10.757812 11.382812 11.558594 10.367188 12.394531 9.417969 C 13.472656 8.199219 14.617188 7.179688 15.789062 6.328125 C 15.796875 6.324219 15.808594 6.316406 15.816406 6.3125 C 15.816406 6.316406 15.816406 6.316406 15.820312 6.320312 C 15.898438 6.417969 16.039062 6.433594 16.136719 6.355469 C 16.433594 6.125 16.730469 5.910156 17.035156 5.703125 C 18.664062 6.410156 20.664062 7.195312 22.96875 7.96875 C 21.410156 9.15625 19.949219 10.800781 18.859375 13.078125 C 18.804688 13.191406 18.851562 13.328125 18.964844 13.382812 C 18.996094 13.398438 19.03125 13.402344 19.0625 13.402344 C 19.148438 13.402344 19.226562 13.355469 19.265625 13.277344 C 20.382812 10.949219 21.890625 9.308594 23.496094 8.144531 C 29.175781 10.011719 36.597656 11.765625 44.78125 12.089844 C 45.042969 12.730469 45.230469 13.464844 45.304688 14.308594 C 45.316406 14.425781 45.414062 14.511719 45.53125 14.511719 C 45.535156 14.511719 45.542969 14.511719 45.550781 14.511719 C 45.675781 14.5 45.765625 14.390625 45.753906 14.265625 C 45.679688 13.457031 45.511719 12.738281 45.269531 12.105469 C 48.027344 12.191406 50.867188 12.117188 53.75 11.828125 C 54.953125 13.417969 55.851562 15.28125 56.441406 17.40625 C 50.808594 19.992188 42.046875 21.96875 29.296875 19.820312 C 19.585938 18.183594 13.328125 16.136719 9.296875 14.207031 C 9.773438 13.324219 10.070312 12.796875 10.082031 12.773438 C 10.140625 12.671875 10.109375 12.542969 10.011719 12.476562 Z M 10.011719 12.476562 " fill-opacity="1" fill-rule="nonzero"/><path fill="#000000" d="M 56.84375 17.214844 C 58.867188 16.25 60.46875 15.210938 61.6875 14.277344 L 61.683594 14.273438 L 58.921875 11.082031 C 57.351562 11.382812 55.785156 11.613281 54.238281 11.78125 C 55.308594 13.242188 56.21875 15.03125 56.84375 17.214844 Z M 56.84375 17.214844 " fill-opacity="1" fill-rule="nonzero"/></svg>