<svg xmlns="http://www.w3.org/2000/svg" xmlns:xlink="http://www.w3.org/1999/xlink" width="108" zoomAndPan="magnify" viewBox="0 0 81 55.5" height="74" preserveAspectRatio="xMidYMid meet" version="1.0"><defs><clipPath id="8a18b069a9"><path d="M 0.363281 0 L 79.894531 0 L 79.894531 55 L 0.363281 55 Z M 0.363281 0 " clip-rule="nonzero"/></clipPath><clipPath id="e8757eb756"><path d="M 0.363281 0 L 79.894531 0 L 79.894531 55 L 0.363281 55 Z M 0.363281 0 " clip-rule="nonzero"/></clipPath><clipPath id="3e506af573"><path d="M 0.363281 0 L 79.894531 0 L 79.894531 55 L 0.363281 55 Z M 0.363281 0 " clip-rule="nonzero"/></clipPath></defs><g clip-path="url(#8a18b069a9)"><path fill="#000000" d="M 76.09375 30.269531 C 76.042969 30.316406 75.988281 30.367188 75.9375 30.417969 C 76.035156 30.566406 76.136719 30.707031 76.246094 30.84375 C 76.574219 31.25 76.953125 31.617188 77.304688 32.003906 C 77.886719 32.648438 78.449219 33.308594 78.855469 34.082031 C 79.984375 36.210938 79.660156 38.742188 77.78125 40.246094 C 76.199219 41.515625 75.957031 42.957031 76.460938 44.742188 C 76.695312 45.574219 76.871094 46.425781 77.039062 47.273438 C 77.515625 49.722656 76.492188 51.605469 74.75 53.1875 C 73.996094 53.867188 73.179688 54.472656 72.136719 54.671875 C 71.808594 54.734375 71.476562 54.761719 71.320312 54.410156 C 71.136719 54.003906 71.546875 53.9375 71.769531 53.777344 C 72.011719 53.609375 72.261719 53.457031 72.507812 53.292969 C 72.46875 53.175781 72.386719 53.050781 72.402344 52.9375 C 72.742188 50.660156 71.863281 48.683594 70.863281 46.738281 C 70.625 46.273438 70.398438 45.800781 70.15625 45.332031 C 69.46875 43.984375 67.984375 43.5 66.832031 44.214844 C 66.726562 44.28125 66.652344 44.382812 66.578125 44.484375 C 66.453125 44.652344 66.332031 44.816406 66.074219 44.808594 C 66.074219 44.808594 66.078125 44.820312 66.078125 44.820312 C 66.113281 44.917969 66.109375 44.996094 66.042969 45.046875 C 66.019531 45.0625 65.992188 45.078125 65.957031 45.089844 C 65.25 46.714844 64.410156 48.238281 62.800781 49.164062 C 62.0625 49.589844 61.289062 49.820312 60.433594 49.550781 C 60.125 49.453125 59.84375 49.3125 59.652344 49.039062 C 59.5 48.820312 59.3125 48.601562 59.480469 48.292969 C 59.632812 48.015625 59.871094 47.980469 60.128906 48.058594 C 60.476562 48.160156 60.464844 47.871094 60.507812 47.707031 C 61.035156 45.671875 61.410156 43.625 61.128906 41.402344 C 60.878906 41.746094 60.679688 42.042969 60.457031 42.320312 C 59.871094 43.050781 59.234375 43.714844 58.289062 43.988281 C 57.792969 44.132812 57.351562 44.09375 57.011719 43.699219 C 56.703125 43.339844 56.855469 42.988281 57.058594 42.59375 C 57.347656 42.050781 57.375 41.414062 57.429688 40.808594 C 57.808594 36.40625 56.832031 32.40625 53.890625 28.996094 C 53.507812 28.554688 53.160156 28.089844 52.746094 27.574219 C 52.605469 28.070312 52.804688 28.417969 52.902344 28.765625 C 53.296875 30.167969 53.664062 31.578125 54.417969 32.847656 C 54.621094 33.1875 54.847656 33.421875 55.308594 33.425781 C 55.882812 33.429688 56.058594 33.882812 55.730469 34.351562 C 55.507812 34.667969 55.179688 34.792969 54.816406 34.867188 C 53.3125 35.167969 52.074219 34.65625 51 33.632812 C 50.8125 33.675781 50.628906 33.703125 50.441406 33.71875 C 50.347656 33.722656 50.257812 33.726562 50.164062 33.726562 C 49.703125 33.726562 49.246094 33.640625 48.796875 33.492188 C 48.019531 33.652344 47.246094 33.761719 46.46875 33.820312 C 46.171875 33.839844 45.875 33.855469 45.574219 33.859375 C 45.304688 33.863281 45.039062 33.859375 44.769531 33.847656 C 43.960938 33.816406 43.15625 33.714844 42.347656 33.539062 C 41.992188 33.460938 41.667969 33.320312 41.429688 33.027344 C 41.097656 33.148438 40.753906 33.25 40.429688 33.390625 C 39.808594 33.65625 39.179688 33.710938 38.53125 33.53125 C 38.292969 34.242188 37.652344 34.328125 37.0625 34.414062 C 35.898438 34.582031 34.964844 34.082031 34.195312 33.242188 C 33.191406 32.144531 32.601562 30.816406 32.140625 29.425781 C 31.132812 26.394531 30.5625 23.25 29.753906 20.167969 C 29.507812 19.230469 29.199219 18.308594 28.910156 17.382812 C 28.6875 16.675781 28.355469 16.03125 27.710938 15.605469 C 27.644531 15.59375 27.582031 15.589844 27.519531 15.597656 C 27.335938 15.609375 27.160156 15.6875 26.980469 15.734375 C 26.757812 16.617188 26.480469 17.484375 26.25 18.363281 C 26.113281 18.890625 25.992188 19.421875 25.90625 19.964844 C 25.316406 23.675781 24.960938 27.390625 25.589844 31.132812 C 25.777344 32.246094 26.175781 33.285156 26.902344 34.183594 C 27.480469 34.898438 28.214844 35.285156 29.136719 35.320312 C 29.308594 35.324219 29.476562 35.339844 29.644531 35.355469 C 29.957031 35.382812 30.355469 35.335938 30.375 35.773438 C 30.394531 36.191406 29.96875 36.269531 29.6875 36.28125 C 29.144531 36.304688 28.757812 36.601562 28.316406 36.847656 C 26.578125 37.808594 24.90625 37.433594 23.378906 36.382812 C 21.40625 35.023438 20.277344 33.023438 19.46875 30.828125 C 18.988281 29.515625 18.644531 28.167969 18.414062 26.789062 C 18.382812 26.589844 18.3125 26.402344 18.21875 26.066406 C 17.824219 26.933594 17.644531 27.726562 17.488281 28.507812 C 16.914062 31.410156 16.703125 34.328125 17.292969 37.261719 C 17.421875 37.902344 17.539062 38.53125 18.234375 38.875 C 18.589844 39.050781 18.535156 39.355469 18.15625 39.53125 C 17.734375 39.730469 17.375 39.570312 17.042969 39.316406 C 16.476562 38.882812 16.269531 38.226562 16.011719 37.605469 C 15.824219 37.636719 15.679688 37.574219 15.546875 37.480469 C 15.328125 37.328125 15.148438 37.089844 14.871094 37.058594 C 13.820312 36.84375 12.933594 36.398438 12.191406 35.742188 C 11.746094 35.351562 11.351562 34.882812 11.007812 34.347656 C 10.941406 34.242188 10.894531 34.121094 10.832031 34.011719 C 10.800781 33.957031 10.765625 33.90625 10.722656 33.859375 C 10.683594 33.8125 10.632812 33.769531 10.570312 33.738281 C 10.554688 34.160156 10.550781 34.585938 10.558594 35.003906 C 10.574219 35.847656 10.636719 36.683594 10.734375 37.515625 C 10.785156 37.933594 10.84375 38.347656 10.914062 38.761719 C 10.976562 39.15625 11.050781 39.546875 11.132812 39.941406 C 11.273438 40.621094 11.441406 41.296875 11.628906 41.972656 C 12.292969 44.351562 13.421875 46.511719 14.550781 48.679688 C 14.574219 48.726562 14.589844 48.773438 14.605469 48.824219 C 14.617188 48.875 14.628906 48.929688 14.644531 48.980469 C 14.816406 48.929688 14.984375 48.742188 15.15625 48.667969 C 15.289062 48.613281 15.425781 48.621094 15.574219 48.8125 C 15.882812 49.214844 15.476562 49.515625 15.238281 49.789062 C 13.671875 51.566406 11.148438 52.046875 9.058594 50.914062 C 8.011719 50.351562 7.34375 49.398438 6.910156 48.324219 C 6.265625 46.734375 5.914062 45.105469 5.925781 43.335938 C 5.9375 41.492188 6.070312 39.664062 6.136719 37.828125 C 6.195312 36.210938 5.988281 35.894531 4.507812 35.3125 C 4.09375 35.152344 3.675781 35 3.269531 34.824219 C 1.34375 33.988281 0.480469 32.453125 0.984375 30.429688 C 1.753906 27.332031 3.402344 24.730469 5.792969 22.609375 C 6.78125 21.730469 7.664062 20.769531 8.332031 19.625 C 8.414062 19.484375 8.554688 19.363281 8.519531 19.171875 C 8.480469 19.152344 8.445312 19.117188 8.410156 19.117188 C 7.519531 19.105469 6.703125 18.917969 6.28125 18.027344 C 5.78125 16.976562 5.878906 15.890625 6.238281 14.820312 C 6.320312 14.574219 6.492188 14.371094 6.71875 14.246094 C 7.058594 14.050781 7.429688 14.125 7.460938 14.507812 C 7.503906 15.046875 7.832031 14.972656 8.148438 14.96875 C 9.714844 14.941406 11.050781 14.332031 12.28125 13.394531 C 14.082031 12.019531 15.335938 10.199219 16.570312 8.347656 C 17.390625 7.117188 18.324219 5.960938 19.5 5.03125 C 20.660156 4.113281 21.886719 3.917969 23.214844 4.660156 C 23.933594 5.0625 24.671875 5.410156 25.464844 5.660156 C 26.019531 5.832031 26.546875 6.09375 26.496094 6.832031 C 26.542969 6.847656 26.589844 6.859375 26.636719 6.875 C 26.746094 6.902344 26.851562 6.933594 26.960938 6.964844 C 26.957031 6.855469 26.988281 6.761719 27.039062 6.6875 C 27.125 6.558594 27.265625 6.472656 27.378906 6.382812 C 32.324219 2.566406 37.90625 0.390625 44.152344 0.136719 C 47.417969 0.0078125 50.207031 1.496094 52.804688 3.328125 C 53.960938 4.144531 54.925781 5.207031 56.121094 5.984375 C 58.257812 7.371094 61.742188 7.304688 63.820312 5.8125 C 64.542969 5.292969 64.933594 4.554688 65.203125 3.742188 C 65.300781 3.445312 65.394531 3.121094 65.761719 3.164062 C 66.144531 3.210938 66.109375 3.566406 66.140625 3.863281 C 66.191406 4.273438 66.078125 4.660156 66.003906 5.050781 C 66.058594 5.058594 66.105469 5.070312 66.148438 5.089844 C 66.179688 5.101562 66.210938 5.121094 66.234375 5.140625 C 66.316406 5.199219 66.367188 5.285156 66.386719 5.410156 C 66.960938 5.410156 67.433594 5.761719 67.695312 6.285156 C 67.730469 6.359375 67.761719 6.4375 67.792969 6.515625 C 67.925781 6.90625 67.957031 7.363281 67.839844 7.832031 C 67.625 8.722656 66.992188 9.320312 66.363281 9.917969 C 66.199219 10.070312 65.972656 10.167969 65.878906 10.453125 C 66.953125 10.835938 68.046875 11.140625 69.054688 11.660156 C 70.257812 12.28125 71.46875 12.882812 72.644531 13.542969 C 73.949219 14.28125 74.550781 15.464844 74.625 16.941406 C 74.707031 18.558594 74.40625 20.144531 74.320312 21.75 C 74.257812 22.863281 74.082031 23.984375 74.339844 25.09375 C 74.652344 26.421875 76.226562 27.339844 77.542969 26.953125 C 77.90625 26.847656 78.246094 26.667969 78.601562 26.539062 C 79.484375 26.207031 80.125 26.722656 80.019531 27.660156 C 79.953125 28.222656 79.648438 28.644531 79.253906 29.011719 C 79.03125 29.21875 78.800781 29.398438 78.554688 29.550781 C 77.828125 30.015625 77 30.246094 76.09375 30.269531 Z M 76.09375 30.269531 " fill-opacity="1" fill-rule="nonzero"/></g><path fill="#000000" d="M 75.128906 50.589844 C 76 49.230469 75.777344 47.804688 75.429688 46.359375 C 75.117188 45.070312 74.703125 43.800781 74.855469 42.429688 C 74.980469 41.351562 75.417969 40.492188 76.261719 39.832031 C 76.9375 39.304688 77.507812 38.695312 77.851562 37.890625 C 78.449219 36.496094 78.121094 35.222656 77.253906 34.078125 C 76.492188 33.070312 75.617188 32.144531 74.816406 31.160156 C 74.511719 30.785156 74.273438 30.351562 74.253906 29.839844 C 74.238281 29.484375 74.316406 29.152344 74.628906 28.945312 C 74.949219 28.734375 75.230469 28.832031 75.472656 29.105469 C 75.621094 29.277344 75.832031 29.222656 76.011719 29.183594 C 76.695312 29.050781 77.335938 28.804688 77.890625 28.410156 C 77.890625 28.261719 77.804688 28.28125 77.761719 28.289062 C 75.109375 28.667969 73.648438 27.320312 73.085938 24.777344 C 72.765625 23.316406 72.914062 21.835938 73.058594 20.363281 C 73.179688 19.1875 73.324219 18.011719 73.25 16.820312 C 73.191406 15.882812 72.769531 15.160156 71.964844 14.691406 C 69.546875 13.28125 67.042969 12.0625 64.308594 11.375 C 64.054688 11.3125 63.859375 11.421875 63.640625 11.464844 C 63.28125 11.53125 62.925781 11.601562 62.582031 11.449219 C 62.382812 11.363281 62.1875 11.234375 62.199219 10.992188 C 62.210938 10.738281 62.417969 10.644531 62.636719 10.601562 C 63.957031 10.351562 64.878906 9.457031 65.8125 8.605469 C 66.710938 7.78125 66.734375 7.390625 66.144531 6.300781 C 65.933594 5.914062 66.164062 5.667969 66.382812 5.410156 C 66.363281 5.242188 66.277344 5.144531 66.148438 5.089844 C 66.105469 5.070312 66.054688 5.058594 66.003906 5.050781 C 64.917969 7.574219 62.640625 8.085938 60.277344 8.316406 C 57.613281 8.578125 55.421875 7.460938 53.519531 5.6875 C 51.453125 3.761719 49.070312 2.410156 46.324219 1.710938 C 44.710938 1.304688 43.078125 1.417969 41.46875 1.703125 C 36.652344 2.558594 32.199219 4.296875 28.304688 7.332031 C 27.640625 7.847656 27.285156 7.738281 26.960938 6.96875 C 26.851562 6.9375 26.746094 6.90625 26.636719 6.875 C 26.589844 6.859375 26.542969 6.847656 26.496094 6.832031 C 26.371094 7.023438 26.222656 7.132812 26.058594 7.171875 C 25.890625 7.210938 25.707031 7.179688 25.503906 7.097656 C 25.433594 7.066406 25.359375 7.035156 25.289062 7.003906 C 25.070312 6.910156 24.847656 6.824219 24.605469 6.824219 C 23.851562 7.140625 23.136719 7.027344 22.421875 6.832031 C 22.183594 6.765625 21.945312 6.691406 21.707031 6.617188 C 20.894531 6.371094 19.742188 7.265625 19.574219 8.15625 C 19.320312 9.464844 19.050781 10.785156 18.542969 12.023438 C 17.890625 13.617188 16.507812 14.433594 15.074219 15.226562 C 13.59375 16.042969 12.023438 16.042969 10.421875 15.980469 C 9.472656 16.160156 8.539062 16.492188 7.546875 16.25 C 7.390625 16.210938 7.316406 16.304688 7.28125 16.445312 C 7.148438 16.972656 7.5625 17.707031 8.109375 17.855469 C 8.453125 17.949219 8.816406 17.980469 9.167969 18.046875 C 9.976562 18.195312 10.269531 18.714844 9.917969 19.464844 C 9.703125 19.921875 9.414062 20.339844 9.15625 20.773438 C 9.164062 20.878906 9.148438 20.972656 9.121094 21.0625 C 9.105469 21.128906 9.082031 21.191406 9.050781 21.253906 C 9.027344 21.304688 9 21.359375 8.96875 21.414062 C 8.082031 23.050781 6.886719 24.5 6.023438 26.144531 C 5.105469 27.898438 4.25 29.699219 4.316406 31.773438 C 4.34375 32.585938 4.640625 33.195312 5.417969 33.503906 C 5.898438 33.691406 6.230469 33.945312 6.105469 34.527344 C 7.378906 35.371094 7.511719 36.667969 7.4375 38.007812 C 7.382812 39.042969 7.238281 40.070312 7.109375 41.097656 C 6.882812 42.871094 7.21875 44.585938 7.648438 46.289062 C 7.808594 46.925781 8.027344 47.542969 8.3125 48.136719 C 9.3125 50.207031 12.011719 50.710938 14 49.484375 C 14.230469 49.34375 14.488281 49.222656 14.644531 48.980469 C 14.628906 48.929688 14.617188 48.878906 14.605469 48.828125 C 14.589844 48.777344 14.574219 48.726562 14.550781 48.679688 C 13.421875 46.511719 12.292969 44.351562 11.628906 41.972656 C 11.441406 41.296875 11.273438 40.621094 11.132812 39.941406 C 11.050781 39.546875 10.980469 39.15625 10.914062 38.761719 C 10.636719 37.109375 10.511719 35.4375 10.570312 33.738281 C 10.597656 33.660156 10.589844 33.585938 10.570312 33.519531 C 10.550781 33.449219 10.515625 33.382812 10.488281 33.316406 C 9.542969 31.242188 9.710938 29.082031 10.003906 26.917969 C 10.0625 26.480469 10.222656 26.097656 10.457031 25.753906 C 10.597656 25.546875 10.761719 25.355469 10.953125 25.175781 C 10.980469 25.105469 11.015625 25.050781 11.050781 25.003906 C 11.296875 24.683594 11.695312 24.882812 11.976562 24.949219 C 12.515625 25.078125 12.667969 25.613281 12.5625 26.058594 C 12.425781 26.664062 12.402344 27.285156 12.386719 27.871094 C 12.367188 28.964844 12.414062 30.0625 12.652344 31.160156 C 12.851562 32.058594 13.042969 32.925781 13.457031 33.75 C 13.628906 34.097656 13.925781 34.277344 14.15625 34.539062 C 14.628906 35.066406 14.648438 35.484375 14.203125 35.855469 C 14.40625 35.996094 14.597656 36.152344 14.804688 36.28125 C 15.183594 36.519531 15.203125 36.773438 14.871094 37.0625 C 15.148438 37.089844 15.328125 37.328125 15.546875 37.480469 C 15.679688 37.574219 15.824219 37.636719 16.011719 37.605469 C 15.117188 33.097656 15.808594 28.730469 17.214844 24.433594 C 17.558594 23.386719 17.679688 22.28125 18.078125 21.25 C 18.253906 20.800781 18.464844 20.402344 19.03125 20.554688 C 19.597656 20.707031 19.542969 21.117188 19.464844 21.617188 C 19.273438 22.832031 19.378906 24.0625 19.554688 25.277344 C 19.910156 27.738281 20.472656 30.140625 21.691406 32.339844 C 22.390625 33.59375 23.277344 34.6875 24.488281 35.484375 C 25.300781 36.023438 26.195312 36.269531 27.300781 36.171875 C 24.683594 34.671875 24.171875 32.175781 23.992188 29.621094 C 23.675781 25.074219 24.0625 20.574219 25.429688 16.195312 C 25.570312 15.746094 25.753906 15.320312 26.078125 14.976562 C 26.273438 14.769531 26.488281 14.5 26.832031 14.703125 C 27.144531 14.886719 27.101562 15.199219 27.039062 15.496094 C 27.023438 15.578125 27 15.65625 26.980469 15.734375 C 27.160156 15.691406 27.335938 15.613281 27.519531 15.597656 C 27.582031 15.589844 27.644531 15.59375 27.710938 15.605469 C 27.6875 15.214844 27.777344 14.882812 28.195312 14.75 C 28.585938 14.625 28.898438 14.78125 29.15625 15.070312 C 29.699219 15.683594 30 16.425781 30.265625 17.183594 C 31.140625 19.699219 31.65625 22.3125 32.296875 24.890625 C 32.75 26.714844 33.179688 28.542969 33.929688 30.269531 C 34.25 31.011719 34.679688 31.6875 35.179688 32.320312 C 35.769531 33.070312 36.503906 33.457031 37.492188 33.308594 C 37.84375 33.253906 38.261719 33.109375 38.53125 33.53125 C 39.179688 33.710938 39.808594 33.65625 40.429688 33.390625 C 40.757812 33.25 41.097656 33.148438 41.429688 33.027344 C 41.292969 32.414062 41.53125 32.097656 42.167969 32.144531 C 42.648438 32.179688 43.121094 32.300781 43.597656 32.386719 C 45.183594 32.683594 46.792969 32.628906 48.390625 32.726562 C 49 32.765625 49.066406 32.917969 48.796875 33.492188 C 49.246094 33.640625 49.703125 33.726562 50.164062 33.726562 C 50.257812 33.726562 50.351562 33.726562 50.441406 33.71875 C 50.628906 33.703125 50.816406 33.675781 51 33.632812 C 50.867188 33.472656 50.738281 33.308594 50.601562 33.148438 C 50.433594 32.953125 50.230469 32.753906 50.453125 32.484375 C 50.691406 32.195312 50.957031 32.363281 51.183594 32.515625 C 51.675781 32.847656 52.179688 33.152344 52.730469 33.378906 C 52.917969 33.457031 53.113281 33.5625 53.417969 33.507812 C 52.542969 32.300781 52.050781 30.953125 51.65625 29.5625 C 51.222656 28.027344 50.886719 26.480469 51.308594 24.878906 C 51.378906 24.609375 51.414062 24.324219 51.753906 24.257812 C 52.03125 24.203125 52.269531 24.300781 52.394531 24.550781 C 53.480469 26.703125 55.289062 28.347656 56.511719 30.398438 C 58.691406 34.066406 59.40625 37.972656 58.355469 42.152344 C 58.335938 42.230469 58.339844 42.3125 58.335938 42.402344 C 58.632812 42.402344 58.789062 42.199219 58.917969 42.03125 C 59.632812 41.101562 60.535156 40.296875 60.898438 39.125 C 60.988281 38.839844 61.234375 38.753906 61.496094 38.734375 C 61.78125 38.714844 61.980469 38.886719 62.097656 39.125 C 62.300781 39.523438 62.382812 39.964844 62.425781 40.40625 C 62.691406 43.035156 62.71875 45.640625 61.515625 48.214844 C 62.234375 47.992188 62.703125 47.589844 63.121094 47.132812 C 64.191406 45.964844 64.984375 44.628906 65.527344 43.140625 C 65.5625 43.042969 65.597656 42.941406 65.636719 42.847656 C 65.742188 42.605469 65.863281 42.359375 66.183594 42.421875 C 66.558594 42.5 66.535156 42.820312 66.480469 43.085938 C 66.367188 43.664062 66.214844 44.238281 66.078125 44.808594 C 66.332031 44.816406 66.457031 44.652344 66.578125 44.484375 C 66.652344 44.382812 66.726562 44.28125 66.832031 44.214844 C 67.984375 43.5 69.46875 43.984375 70.160156 45.332031 C 70.398438 45.800781 70.625 46.273438 70.863281 46.742188 C 71.867188 48.683594 72.746094 50.660156 72.402344 52.9375 C 72.386719 53.050781 72.472656 53.175781 72.507812 53.292969 C 73.644531 52.648438 74.4375 51.667969 75.128906 50.589844 Z M 33.429688 10.339844 C 33.238281 9.945312 33.535156 9.636719 33.855469 9.371094 C 34.867188 8.535156 36.078125 8.242188 37.519531 8.019531 C 36.988281 7.757812 36.652344 7.589844 36.230469 7.578125 C 35.765625 7.566406 35.46875 7.214844 35.371094 6.792969 C 35.265625 6.347656 35.417969 6.011719 35.90625 5.796875 C 37.007812 5.308594 38.105469 4.921875 39.320312 4.742188 C 39.90625 4.65625 40.523438 4.660156 41.210938 4.476562 C 40.832031 4.285156 40.613281 4.074219 40.675781 3.664062 C 40.734375 3.296875 40.917969 3.058594 41.261719 3.039062 C 42.539062 2.960938 43.824219 2.957031 44.996094 3.554688 C 45.417969 3.769531 45.875 3.984375 46.109375 4.480469 C 46.402344 5.09375 46.097656 5.730469 45.425781 5.816406 C 45.34375 5.828125 45.257812 5.832031 45.171875 5.824219 C 43.378906 5.652344 41.617188 6.160156 39.832031 6.078125 C 39.542969 6.066406 39.359375 6.199219 39.179688 6.535156 C 39.984375 6.5625 40.710938 6.738281 41.394531 7.078125 C 41.800781 7.28125 42.230469 7.511719 42.179688 8.015625 C 42.128906 8.515625 41.738281 8.742188 41.242188 8.886719 C 40.34375 9.152344 39.425781 9.257812 38.511719 9.425781 C 37.125 9.683594 35.710938 9.941406 34.394531 10.480469 C 33.972656 10.65625 33.625 10.734375 33.429688 10.339844 Z M 41.277344 30.945312 C 40.835938 31.226562 40.613281 30.667969 40.34375 30.40625 C 40.207031 30.273438 40.109375 30.109375 39.996094 29.957031 C 39.417969 29.855469 38.9375 29.570312 38.503906 29.1875 C 37.074219 27.925781 36.074219 26.371094 35.355469 24.621094 C 34.742188 23.136719 34.160156 21.632812 34.085938 20.007812 C 34.054688 19.351562 34.152344 18.96875 34.457031 18.757812 C 34.695312 18.59375 35.054688 18.539062 35.578125 18.539062 C 35.589844 18.457031 35.597656 18.375 35.613281 18.289062 C 35.65625 18.035156 35.707031 17.757812 36.011719 17.714844 C 36.363281 17.671875 36.476562 17.957031 36.554688 18.222656 C 36.832031 19.132812 37.082031 20.046875 37.359375 20.953125 C 38.316406 24.066406 39.570312 27.054688 41.121094 29.921875 C 41.292969 30.238281 41.769531 30.636719 41.277344 30.945312 Z M 48.242188 30.796875 C 48 31.164062 47.683594 30.941406 47.398438 30.808594 C 47.355469 30.785156 47.304688 30.769531 47.253906 30.757812 C 47.222656 30.746094 47.195312 30.738281 47.164062 30.730469 C 46.769531 30.84375 46.402344 30.863281 46.054688 30.785156 C 45.925781 30.757812 45.800781 30.71875 45.675781 30.664062 C 45.519531 30.59375 45.367188 30.507812 45.222656 30.398438 C 44.875 30.136719 44.554688 29.765625 44.253906 29.28125 C 43.679688 28.351562 43.136719 27.433594 42.859375 26.355469 C 42.703125 25.734375 42.800781 25.136719 42.726562 24.53125 C 42.386719 23.628906 42.035156 22.726562 41.71875 21.816406 C 41.488281 21.15625 41.34375 20.472656 41.320312 19.769531 C 41.308594 19.453125 41.238281 19.082031 41.671875 19.003906 C 42.0625 18.9375 42.234375 19.25 42.355469 19.546875 C 42.769531 20.5625 43.144531 21.597656 43.578125 22.601562 C 44.472656 24.671875 45.28125 26.789062 46.597656 28.652344 C 46.96875 29.175781 47.441406 29.59375 47.90625 30.027344 C 48.128906 30.234375 48.488281 30.417969 48.242188 30.796875 Z M 70.066406 20.464844 C 69.660156 20.6875 69.140625 20.664062 68.722656 20.457031 C 67.894531 20.042969 66.980469 19.832031 66.160156 19.28125 C 65.988281 20.09375 66.46875 20.734375 66.402344 21.472656 C 66.347656 22.046875 66.1875 22.46875 65.769531 22.832031 C 65.40625 23.144531 65.042969 23.136719 64.601562 23 C 63.296875 22.597656 62.238281 21.726562 61.015625 21.175781 C 60.792969 21.074219 60.574219 20.96875 60.328125 20.859375 C 60.101562 21.671875 60.480469 22.367188 60.625 23.085938 C 60.796875 23.972656 61.105469 24.832031 61.269531 25.71875 C 61.335938 26.089844 61.6875 26.402344 61.464844 26.855469 C 60.960938 27.878906 59.925781 27.960938 59.175781 27.164062 C 58.535156 26.480469 57.921875 25.761719 57.324219 25.039062 C 57 24.652344 56.714844 24.289062 56.273438 24.011719 C 55.785156 23.703125 55.433594 23.199219 54.960938 22.84375 C 54.332031 22.367188 53.730469 22.015625 52.875 22.027344 C 52.429688 22.035156 52.085938 21.527344 52.140625 20.949219 C 52.191406 20.394531 52.695312 19.871094 53.261719 19.808594 C 54.050781 19.726562 54.648438 20.160156 55.269531 20.539062 C 56.304688 21.171875 57.257812 21.90625 58.074219 22.816406 C 58.128906 22.796875 58.183594 22.777344 58.238281 22.753906 C 58.238281 21.894531 58.222656 21.035156 58.238281 20.175781 C 58.261719 19.097656 59.761719 18.191406 60.742188 18.652344 C 61.71875 19.109375 62.660156 19.628906 63.578125 20.195312 C 63.714844 20.28125 63.863281 20.351562 63.980469 20.253906 C 64.136719 20.125 64.035156 19.964844 63.980469 19.796875 C 63.707031 18.972656 63.730469 18.152344 64.144531 17.375 C 64.378906 16.933594 65.386719 16.554688 65.890625 16.800781 C 67.25 17.457031 68.6875 17.988281 69.800781 19.066406 C 69.964844 19.222656 70.175781 19.363281 70.171875 19.628906 C 70.171875 19.917969 70.324219 20.324219 70.066406 20.464844 Z M 66.078125 44.820312 C 66.117188 44.917969 66.109375 44.996094 66.042969 45.046875 C 66.023438 45.0625 65.992188 45.078125 65.957031 45.085938 C 65.996094 45 66.039062 44.910156 66.078125 44.820312 Z M 66.078125 44.820312 " fill-opacity="1" fill-rule="nonzero"/><path fill="#000000" d="M 70.171875 19.628906 C 70.171875 19.917969 70.324219 20.324219 70.066406 20.464844 C 69.660156 20.6875 69.140625 20.664062 68.722656 20.457031 C 67.894531 20.042969 66.980469 19.832031 66.160156 19.28125 C 65.988281 20.09375 66.472656 20.734375 66.402344 21.472656 C 66.347656 22.046875 66.191406 22.46875 65.769531 22.832031 C 65.40625 23.144531 65.042969 23.136719 64.601562 23 C 63.296875 22.597656 62.238281 21.726562 61.015625 21.175781 C 60.792969 21.074219 60.574219 20.96875 60.328125 20.859375 C 60.101562 21.671875 60.480469 22.367188 60.625 23.085938 C 60.800781 23.972656 61.105469 24.832031 61.269531 25.71875 C 61.335938 26.089844 61.6875 26.402344 61.464844 26.855469 C 60.960938 27.878906 59.925781 27.960938 59.175781 27.164062 C 58.535156 26.480469 57.921875 25.761719 57.324219 25.039062 C 57 24.652344 56.714844 24.289062 56.273438 24.011719 C 55.785156 23.703125 55.433594 23.199219 54.960938 22.84375 C 54.332031 22.367188 53.730469 22.015625 52.875 22.027344 C 52.429688 22.035156 52.085938 21.527344 52.140625 20.949219 C 52.191406 20.394531 52.695312 19.871094 53.261719 19.808594 C 54.050781 19.726562 54.648438 20.160156 55.269531 20.539062 C 56.304688 21.171875 57.257812 21.90625 58.074219 22.816406 C 58.128906 22.796875 58.183594 22.777344 58.238281 22.753906 C 58.238281 21.894531 58.222656 21.035156 58.238281 20.175781 C 58.261719 19.097656 59.761719 18.191406 60.742188 18.652344 C 61.71875 19.109375 62.660156 19.628906 63.578125 20.195312 C 63.71875 20.28125 63.863281 20.351562 63.984375 20.253906 C 64.136719 20.125 64.039062 19.964844 63.980469 19.796875 C 63.707031 18.972656 63.730469 18.152344 64.144531 17.375 C 64.382812 16.933594 65.386719 16.554688 65.890625 16.800781 C 67.25 17.457031 68.6875 17.988281 69.804688 19.066406 C 69.964844 19.222656 70.175781 19.363281 70.171875 19.628906 Z M 38.511719 9.425781 C 39.421875 9.257812 40.34375 9.152344 41.242188 8.886719 C 41.738281 8.742188 42.125 8.515625 42.179688 8.019531 C 42.230469 7.511719 41.800781 7.28125 41.394531 7.078125 C 40.710938 6.738281 39.980469 6.5625 39.179688 6.535156 C 39.355469 6.199219 39.542969 6.066406 39.828125 6.078125 C 41.617188 6.160156 43.378906 5.652344 45.171875 5.824219 C 45.253906 5.832031 45.34375 5.828125 45.425781 5.820312 C 46.097656 5.734375 46.402344 5.09375 46.109375 4.480469 C 45.875 3.988281 45.417969 3.773438 44.996094 3.554688 C 43.820312 2.957031 42.539062 2.960938 41.261719 3.039062 C 40.917969 3.058594 40.730469 3.296875 40.675781 3.667969 C 40.609375 4.074219 40.832031 4.285156 41.207031 4.476562 C 40.523438 4.660156 39.90625 4.65625 39.316406 4.742188 C 38.105469 4.921875 37.003906 5.308594 35.90625 5.796875 C 35.417969 6.011719 35.265625 6.347656 35.367188 6.792969 C 35.46875 7.214844 35.765625 7.566406 36.230469 7.578125 C 36.652344 7.589844 36.988281 7.757812 37.519531 8.023438 C 36.078125 8.246094 34.867188 8.535156 33.855469 9.371094 C 33.535156 9.636719 33.234375 9.945312 33.429688 10.339844 C 33.625 10.734375 33.972656 10.65625 34.394531 10.484375 C 35.710938 9.941406 37.125 9.6875 38.511719 9.425781 Z M 38.511719 9.425781 " fill-opacity="1" fill-rule="nonzero"/><path fill="#000000" d="M 24.605469 6.824219 C 23.855469 7.140625 23.136719 7.027344 22.421875 6.832031 C 22.183594 6.765625 21.945312 6.6875 21.707031 6.617188 C 20.894531 6.371094 19.746094 7.265625 19.574219 8.15625 C 19.320312 9.464844 19.050781 10.78125 18.546875 12.023438 C 17.890625 13.617188 16.507812 14.433594 15.078125 15.226562 C 13.59375 16.042969 12.023438 16.039062 10.421875 15.980469 C 12.050781 15.234375 13.503906 14.246094 14.761719 12.953125 C 16.042969 11.640625 16.949219 10.054688 18.003906 8.574219 C 18.714844 7.574219 19.488281 6.621094 20.5 5.894531 C 21.019531 5.519531 21.589844 5.375 22.171875 5.625 C 23 5.980469 23.796875 6.417969 24.605469 6.824219 Z M 6.164062 24.03125 C 4.277344 25.859375 2.96875 28.0625 2.277344 30.597656 C 1.886719 32.042969 2.386719 33.011719 3.75 33.628906 C 4.515625 33.976562 5.320312 34.230469 6.105469 34.527344 C 6.234375 33.945312 5.898438 33.691406 5.421875 33.503906 C 4.640625 33.195312 4.347656 32.585938 4.320312 31.773438 C 4.25 29.699219 5.105469 27.898438 6.027344 26.144531 C 6.886719 24.5 8.082031 23.050781 8.972656 21.414062 C 9 21.359375 9.027344 21.304688 9.050781 21.253906 C 9.082031 21.191406 9.105469 21.128906 9.125 21.0625 C 9.148438 20.972656 9.164062 20.878906 9.15625 20.773438 C 8.3125 22 7.226562 23 6.164062 24.03125 Z M 35.578125 18.539062 C 35.054688 18.539062 34.695312 18.59375 34.457031 18.757812 C 34.152344 18.96875 34.054688 19.351562 34.085938 20.007812 C 34.160156 21.632812 34.742188 23.136719 35.355469 24.621094 C 36.074219 26.371094 37.074219 27.925781 38.503906 29.1875 C 38.9375 29.570312 39.417969 29.855469 39.996094 29.957031 C 38.855469 28.03125 37.816406 26.054688 36.976562 23.976562 C 36.273438 22.226562 35.765625 20.421875 35.578125 18.539062 Z M 11.511719 26.058594 C 11.097656 28.007812 10.792969 29.96875 11.351562 31.941406 C 11.816406 33.59375 12.597656 35.027344 14.207031 35.851562 C 14.648438 35.484375 14.628906 35.066406 14.160156 34.539062 C 13.925781 34.277344 13.628906 34.097656 13.457031 33.75 C 13.042969 32.921875 12.851562 32.058594 12.652344 31.160156 C 12.414062 30.0625 12.367188 28.960938 12.390625 27.871094 C 12.402344 27.285156 12.425781 26.664062 12.5625 26.058594 C 12.667969 25.613281 12.515625 25.078125 11.976562 24.949219 C 11.695312 24.882812 11.300781 24.683594 11.050781 25.003906 C 11.015625 25.050781 10.984375 25.105469 10.953125 25.175781 C 11.660156 25.140625 11.613281 25.582031 11.511719 26.058594 Z M 43.835938 26.652344 C 43.464844 25.949219 43.199219 25.183594 42.726562 24.53125 C 42.800781 25.136719 42.703125 25.734375 42.859375 26.355469 C 43.136719 27.433594 43.679688 28.351562 44.253906 29.28125 C 44.554688 29.765625 44.875 30.136719 45.222656 30.398438 C 45.367188 30.507812 45.519531 30.59375 45.675781 30.664062 C 45.800781 30.71875 45.925781 30.757812 46.054688 30.785156 C 46.402344 30.863281 46.769531 30.84375 47.164062 30.730469 C 45.667969 29.6875 44.671875 28.242188 43.835938 26.652344 Z M 43.835938 26.652344 " fill-opacity="1" fill-rule="nonzero"/><g clip-path="url(#e8757eb756)"><path fill="#000000" d="M 14.644531 48.980469 C 14.816406 48.929688 14.984375 48.742188 15.15625 48.667969 C 15.289062 48.613281 15.425781 48.621094 15.574219 48.8125 C 15.882812 49.214844 15.476562 49.515625 15.238281 49.789062 C 13.671875 51.566406 11.148438 52.046875 9.058594 50.914062 C 8.011719 50.351562 7.34375 49.398438 6.910156 48.324219 C 6.265625 46.734375 5.914062 45.105469 5.925781 43.335938 C 5.9375 41.492188 6.070312 39.664062 6.136719 37.828125 C 6.195312 36.210938 5.992188 35.894531 4.507812 35.3125 C 4.09375 35.152344 3.675781 35 3.269531 34.824219 C 1.34375 33.988281 0.480469 32.453125 0.984375 30.429688 C 1.753906 27.332031 3.40625 24.730469 5.792969 22.609375 C 6.78125 21.730469 7.664062 20.769531 8.332031 19.625 C 8.417969 19.484375 8.554688 19.363281 8.519531 19.171875 C 8.484375 19.152344 8.445312 19.117188 8.410156 19.117188 C 7.519531 19.105469 6.707031 18.917969 6.28125 18.03125 C 5.78125 16.976562 5.878906 15.894531 6.238281 14.820312 C 6.320312 14.574219 6.492188 14.371094 6.71875 14.246094 C 7.058594 14.050781 7.429688 14.125 7.460938 14.507812 C 7.503906 15.046875 7.832031 14.972656 8.152344 14.96875 C 9.714844 14.941406 11.054688 14.332031 12.28125 13.394531 C 14.082031 12.019531 15.335938 10.199219 16.570312 8.347656 C 17.394531 7.113281 18.324219 5.960938 19.5 5.03125 C 20.660156 4.113281 21.886719 3.917969 23.214844 4.660156 C 23.933594 5.0625 24.671875 5.410156 25.464844 5.65625 C 26.019531 5.832031 26.550781 6.09375 26.496094 6.832031 C 26.371094 7.023438 26.226562 7.132812 26.058594 7.167969 C 25.894531 7.207031 25.707031 7.179688 25.507812 7.097656 C 25.433594 7.066406 25.359375 7.035156 25.289062 7.003906 C 25.070312 6.910156 24.851562 6.824219 24.605469 6.824219 C 23.796875 6.417969 23 5.980469 22.171875 5.625 C 21.589844 5.371094 21.019531 5.519531 20.5 5.894531 C 19.488281 6.621094 18.714844 7.570312 18.003906 8.574219 C 16.949219 10.054688 16.042969 11.640625 14.761719 12.953125 C 13.503906 14.242188 12.050781 15.234375 10.421875 15.980469 C 9.472656 16.160156 8.539062 16.492188 7.550781 16.25 C 7.394531 16.210938 7.316406 16.304688 7.28125 16.445312 C 7.152344 16.972656 7.5625 17.703125 8.109375 17.855469 C 8.457031 17.949219 8.816406 17.980469 9.171875 18.046875 C 9.980469 18.195312 10.269531 18.710938 9.917969 19.464844 C 9.703125 19.921875 9.414062 20.339844 9.15625 20.773438 C 8.3125 22 7.226562 23 6.164062 24.03125 C 4.277344 25.859375 2.96875 28.0625 2.277344 30.597656 C 1.886719 32.042969 2.386719 33.011719 3.75 33.628906 C 4.515625 33.972656 5.320312 34.230469 6.105469 34.527344 C 7.378906 35.371094 7.511719 36.667969 7.441406 38.007812 C 7.382812 39.042969 7.238281 40.070312 7.109375 41.097656 C 6.882812 42.871094 7.222656 44.585938 7.648438 46.289062 C 7.808594 46.925781 8.027344 47.542969 8.316406 48.136719 C 9.3125 50.203125 12.011719 50.707031 14.003906 49.484375 C 14.234375 49.34375 14.492188 49.222656 14.644531 48.980469 Z M 78.601562 26.539062 C 78.246094 26.667969 77.90625 26.847656 77.542969 26.953125 C 76.226562 27.339844 74.65625 26.421875 74.34375 25.09375 C 74.082031 23.984375 74.257812 22.863281 74.320312 21.75 C 74.40625 20.144531 74.710938 18.558594 74.625 16.941406 C 74.550781 15.464844 73.953125 14.28125 72.644531 13.542969 C 71.46875 12.882812 70.257812 12.28125 69.058594 11.660156 C 68.046875 11.140625 66.953125 10.835938 65.882812 10.453125 C 65.972656 10.167969 66.199219 10.074219 66.363281 9.917969 C 66.992188 9.320312 67.625 8.722656 67.84375 7.832031 C 67.957031 7.363281 67.929688 6.90625 67.792969 6.519531 C 67.566406 5.871094 67.042969 5.410156 66.386719 5.410156 C 66.164062 5.667969 65.933594 5.917969 66.144531 6.304688 C 66.738281 7.390625 66.710938 7.78125 65.8125 8.605469 C 64.882812 9.457031 63.957031 10.351562 62.636719 10.601562 C 62.417969 10.644531 62.210938 10.738281 62.199219 10.992188 C 62.191406 11.234375 62.382812 11.363281 62.582031 11.449219 C 62.929688 11.601562 63.28125 11.53125 63.640625 11.464844 C 63.859375 11.421875 64.054688 11.3125 64.3125 11.375 C 67.042969 12.066406 69.550781 13.28125 71.964844 14.691406 C 72.769531 15.160156 73.191406 15.882812 73.25 16.820312 C 73.324219 18.011719 73.179688 19.1875 73.0625 20.363281 C 72.914062 21.835938 72.765625 23.316406 73.085938 24.777344 C 73.648438 27.320312 75.109375 28.667969 77.761719 28.289062 C 77.808594 28.285156 77.890625 28.265625 77.890625 28.410156 C 77.335938 28.804688 76.695312 29.050781 76.011719 29.1875 C 75.832031 29.222656 75.625 29.277344 75.472656 29.105469 C 75.230469 28.832031 74.949219 28.738281 74.628906 28.945312 C 74.316406 29.152344 74.242188 29.484375 74.253906 29.839844 C 74.273438 30.351562 74.511719 30.785156 74.820312 31.160156 C 75.617188 32.144531 76.492188 33.070312 77.257812 34.082031 C 78.121094 35.222656 78.449219 36.496094 77.851562 37.890625 C 77.507812 38.695312 76.9375 39.304688 76.261719 39.832031 C 75.417969 40.492188 74.980469 41.355469 74.859375 42.429688 C 74.703125 43.800781 75.117188 45.070312 75.429688 46.359375 C 75.78125 47.804688 76.003906 49.230469 75.128906 50.589844 C 74.4375 51.667969 73.644531 52.648438 72.507812 53.292969 C 72.261719 53.457031 72.011719 53.609375 71.769531 53.777344 C 71.546875 53.9375 71.140625 54.003906 71.320312 54.410156 C 71.476562 54.761719 71.808594 54.734375 72.140625 54.671875 C 73.179688 54.472656 74 53.867188 74.75 53.1875 C 76.496094 51.605469 77.519531 49.71875 77.039062 47.273438 C 76.871094 46.425781 76.695312 45.574219 76.460938 44.742188 C 75.957031 42.957031 76.199219 41.515625 77.78125 40.246094 C 79.660156 38.742188 79.988281 36.210938 78.859375 34.082031 C 78.449219 33.308594 77.890625 32.648438 77.304688 32.003906 C 76.953125 31.617188 76.574219 31.25 76.246094 30.84375 C 76.136719 30.707031 76.035156 30.566406 75.9375 30.417969 C 75.910156 30.359375 75.894531 30.320312 75.894531 30.292969 C 75.894531 30.28125 75.894531 30.269531 75.902344 30.265625 C 75.925781 30.226562 76.015625 30.253906 76.09375 30.269531 C 77 30.246094 77.828125 30.015625 78.558594 29.550781 C 78.800781 29.398438 79.035156 29.21875 79.257812 29.011719 C 79.652344 28.644531 79.957031 28.222656 80.019531 27.660156 C 80.125 26.722656 79.484375 26.207031 78.601562 26.539062 Z M 27.039062 15.496094 C 27.101562 15.195312 27.144531 14.886719 26.832031 14.703125 C 26.492188 14.5 26.273438 14.765625 26.078125 14.976562 C 25.753906 15.320312 25.570312 15.746094 25.429688 16.195312 C 24.0625 20.574219 23.675781 25.074219 23.992188 29.621094 C 24.171875 32.171875 24.683594 34.671875 27.300781 36.171875 C 26.195312 36.269531 25.304688 36.023438 24.488281 35.484375 C 23.28125 34.6875 22.390625 33.59375 21.695312 32.339844 C 20.472656 30.140625 19.910156 27.738281 19.558594 25.277344 C 19.382812 24.0625 19.273438 22.832031 19.464844 21.613281 C 19.542969 21.117188 19.601562 20.707031 19.03125 20.554688 C 18.464844 20.402344 18.253906 20.800781 18.078125 21.25 C 17.679688 22.28125 17.558594 23.386719 17.21875 24.429688 C 15.808594 28.730469 15.117188 33.09375 16.015625 37.605469 C 16.273438 38.226562 16.476562 38.882812 17.042969 39.316406 C 17.375 39.570312 17.734375 39.730469 18.15625 39.53125 C 18.535156 39.355469 18.589844 39.050781 18.238281 38.875 C 17.539062 38.53125 17.421875 37.902344 17.292969 37.261719 C 16.703125 34.328125 16.914062 31.410156 17.488281 28.507812 C 17.644531 27.726562 17.824219 26.933594 18.21875 26.070312 C 18.3125 26.402344 18.382812 26.589844 18.414062 26.789062 C 18.640625 28.167969 18.988281 29.515625 19.46875 30.828125 C 20.277344 33.023438 21.40625 35.023438 23.375 36.382812 C 24.90625 37.4375 26.578125 37.808594 28.316406 36.847656 C 28.757812 36.601562 29.144531 36.304688 29.6875 36.28125 C 29.96875 36.269531 30.394531 36.191406 30.375 35.773438 C 30.355469 35.339844 29.957031 35.382812 29.644531 35.355469 C 29.476562 35.34375 29.308594 35.324219 29.136719 35.320312 C 28.21875 35.285156 27.480469 34.902344 26.902344 34.183594 C 26.175781 33.289062 25.777344 32.246094 25.589844 31.132812 C 24.964844 27.390625 25.320312 23.675781 25.90625 19.964844 C 25.992188 19.421875 26.113281 18.890625 26.253906 18.363281 C 26.484375 17.484375 26.757812 16.617188 26.980469 15.734375 C 27 15.65625 27.023438 15.574219 27.039062 15.496094 Z M 66.480469 43.085938 C 66.535156 42.820312 66.558594 42.5 66.183594 42.421875 C 65.863281 42.355469 65.742188 42.605469 65.636719 42.84375 C 65.597656 42.941406 65.5625 43.042969 65.527344 43.140625 C 64.984375 44.628906 64.1875 45.964844 63.121094 47.132812 C 62.703125 47.589844 62.234375 47.988281 61.515625 48.214844 C 62.71875 45.640625 62.691406 43.035156 62.425781 40.40625 C 62.382812 39.964844 62.300781 39.523438 62.097656 39.125 C 61.980469 38.886719 61.78125 38.714844 61.496094 38.734375 C 61.234375 38.753906 60.988281 38.839844 60.898438 39.125 C 60.535156 40.296875 59.632812 41.101562 58.917969 42.03125 C 58.789062 42.195312 58.632812 42.402344 58.335938 42.402344 C 58.339844 42.3125 58.335938 42.230469 58.355469 42.152344 C 59.40625 37.972656 58.691406 34.0625 56.511719 30.398438 C 55.289062 28.347656 53.480469 26.703125 52.394531 24.550781 C 52.265625 24.300781 52.03125 24.199219 51.753906 24.257812 C 51.414062 24.324219 51.378906 24.609375 51.308594 24.878906 C 50.886719 26.480469 51.222656 28.023438 51.65625 29.5625 C 52.050781 30.953125 52.542969 32.296875 53.417969 33.507812 C 53.113281 33.5625 52.917969 33.457031 52.730469 33.375 C 52.179688 33.152344 51.675781 32.84375 51.183594 32.515625 C 50.957031 32.363281 50.691406 32.195312 50.449219 32.484375 C 50.230469 32.75 50.433594 32.953125 50.601562 33.148438 C 50.738281 33.308594 50.867188 33.472656 51 33.632812 C 52.074219 34.65625 53.316406 35.167969 54.816406 34.867188 C 55.179688 34.792969 55.507812 34.667969 55.730469 34.351562 C 56.058594 33.882812 55.882812 33.429688 55.308594 33.425781 C 54.847656 33.421875 54.621094 33.1875 54.417969 32.847656 C 53.667969 31.578125 53.296875 30.167969 52.902344 28.765625 C 52.804688 28.417969 52.605469 28.066406 52.75 27.574219 C 53.160156 28.089844 53.507812 28.554688 53.890625 28.996094 C 56.835938 32.40625 57.808594 36.40625 57.429688 40.808594 C 57.378906 41.414062 57.347656 42.050781 57.0625 42.59375 C 56.855469 42.984375 56.707031 43.335938 57.011719 43.699219 C 57.351562 44.09375 57.796875 44.128906 58.289062 43.988281 C 59.234375 43.714844 59.871094 43.050781 60.460938 42.320312 C 60.683594 42.042969 60.878906 41.746094 61.128906 41.402344 C 61.410156 43.621094 61.035156 45.671875 60.507812 47.707031 C 60.464844 47.871094 60.476562 48.160156 60.132812 48.058594 C 59.871094 47.980469 59.632812 48.015625 59.480469 48.292969 C 59.3125 48.601562 59.5 48.820312 59.65625 49.039062 C 59.84375 49.3125 60.125 49.453125 60.433594 49.550781 C 61.289062 49.820312 62.0625 49.589844 62.800781 49.164062 C 64.410156 48.238281 65.25 46.714844 65.957031 45.089844 C 65.996094 45 66.035156 44.910156 66.078125 44.820312 C 66.078125 44.820312 66.074219 44.808594 66.074219 44.808594 C 66.214844 44.234375 66.367188 43.664062 66.480469 43.085938 Z M 28.304688 7.332031 C 32.199219 4.292969 36.652344 2.558594 41.472656 1.703125 C 43.078125 1.417969 44.710938 1.300781 46.328125 1.710938 C 49.070312 2.410156 51.453125 3.761719 53.519531 5.683594 C 55.425781 7.460938 57.617188 8.578125 60.277344 8.316406 C 62.640625 8.085938 64.917969 7.574219 66.003906 5.050781 C 66.082031 4.660156 66.191406 4.273438 66.140625 3.863281 C 66.109375 3.566406 66.144531 3.210938 65.761719 3.164062 C 65.394531 3.121094 65.304688 3.445312 65.203125 3.742188 C 64.933594 4.554688 64.542969 5.292969 63.820312 5.8125 C 61.742188 7.304688 58.257812 7.375 56.121094 5.984375 C 54.925781 5.207031 53.960938 4.144531 52.804688 3.328125 C 50.207031 1.496094 47.417969 0.0078125 44.152344 0.136719 C 37.90625 0.390625 32.324219 2.566406 27.378906 6.382812 C 27.265625 6.472656 27.125 6.558594 27.039062 6.6875 C 26.988281 6.765625 26.957031 6.855469 26.960938 6.964844 C 27.285156 7.738281 27.644531 7.847656 28.304688 7.332031 Z M 37.492188 33.304688 C 36.503906 33.457031 35.769531 33.070312 35.179688 32.320312 C 34.679688 31.6875 34.25 31.011719 33.929688 30.269531 C 33.179688 28.539062 32.75 26.710938 32.296875 24.890625 C 31.65625 22.3125 31.140625 19.699219 30.265625 17.183594 C 30.003906 16.421875 29.699219 15.679688 29.15625 15.070312 C 28.902344 14.78125 28.585938 14.625 28.195312 14.75 C 27.777344 14.882812 27.6875 15.214844 27.710938 15.605469 C 28.355469 16.03125 28.6875 16.675781 28.910156 17.382812 C 29.203125 18.308594 29.507812 19.230469 29.753906 20.167969 C 30.566406 23.25 31.132812 26.394531 32.140625 29.425781 C 32.605469 30.816406 33.191406 32.144531 34.199219 33.242188 C 34.964844 34.082031 35.898438 34.582031 37.066406 34.414062 C 37.652344 34.328125 38.292969 34.242188 38.53125 33.53125 C 38.261719 33.109375 37.84375 33.253906 37.492188 33.304688 Z M 14.808594 36.28125 C 14.597656 36.152344 14.40625 35.996094 14.207031 35.851562 C 12.597656 35.027344 11.816406 33.59375 11.351562 31.941406 C 10.792969 29.96875 11.097656 28.007812 11.511719 26.058594 C 11.613281 25.582031 11.660156 25.140625 10.953125 25.175781 C 10.765625 25.355469 10.597656 25.546875 10.457031 25.75 C 10.222656 26.09375 10.066406 26.480469 10.003906 26.914062 C 9.710938 29.082031 9.542969 31.242188 10.488281 33.316406 C 10.519531 33.382812 10.550781 33.449219 10.570312 33.519531 C 10.59375 33.585938 10.597656 33.660156 10.574219 33.738281 C 10.632812 33.769531 10.683594 33.8125 10.722656 33.859375 C 10.765625 33.90625 10.800781 33.957031 10.832031 34.011719 C 10.894531 34.121094 10.941406 34.242188 11.007812 34.347656 C 11.351562 34.882812 11.746094 35.351562 12.191406 35.742188 C 12.933594 36.398438 13.824219 36.84375 14.871094 37.058594 C 15.203125 36.769531 15.183594 36.515625 14.808594 36.28125 Z M 48.390625 32.726562 C 46.792969 32.628906 45.183594 32.679688 43.597656 32.386719 C 43.121094 32.296875 42.648438 32.175781 42.167969 32.144531 C 41.53125 32.097656 41.292969 32.410156 41.429688 33.027344 C 41.667969 33.320312 41.992188 33.460938 42.351562 33.539062 C 43.15625 33.714844 43.964844 33.816406 44.769531 33.847656 C 45.039062 33.859375 45.308594 33.863281 45.574219 33.859375 C 45.875 33.855469 46.171875 33.839844 46.472656 33.820312 C 47.246094 33.761719 48.023438 33.652344 48.796875 33.488281 C 49.066406 32.917969 49 32.761719 48.390625 32.726562 Z M 47.90625 30.027344 C 47.441406 29.59375 46.96875 29.175781 46.597656 28.652344 C 45.28125 26.789062 44.472656 24.671875 43.578125 22.601562 C 43.144531 21.597656 42.769531 20.5625 42.355469 19.546875 C 42.234375 19.25 42.0625 18.9375 41.671875 19.003906 C 41.238281 19.082031 41.308594 19.453125 41.320312 19.769531 C 41.34375 20.472656 41.488281 21.15625 41.71875 21.816406 C 42.035156 22.726562 42.386719 23.628906 42.726562 24.53125 C 43.199219 25.1875 43.464844 25.949219 43.835938 26.652344 C 44.671875 28.242188 45.667969 29.6875 47.164062 30.730469 C 47.195312 30.738281 47.222656 30.746094 47.253906 30.757812 C 47.304688 30.769531 47.355469 30.785156 47.398438 30.808594 C 47.683594 30.941406 48 31.164062 48.242188 30.796875 C 48.488281 30.417969 48.128906 30.234375 47.90625 30.027344 Z M 37.359375 20.953125 C 37.082031 20.046875 36.828125 19.132812 36.554688 18.222656 C 36.476562 17.957031 36.363281 17.671875 36.011719 17.71875 C 35.707031 17.757812 35.65625 18.039062 35.613281 18.292969 C 35.597656 18.375 35.589844 18.457031 35.578125 18.542969 C 35.765625 20.425781 36.273438 22.226562 36.976562 23.976562 C 37.816406 26.054688 38.855469 28.03125 39.996094 29.957031 C 40.109375 30.109375 40.207031 30.277344 40.34375 30.40625 C 40.613281 30.667969 40.835938 31.226562 41.277344 30.949219 C 41.769531 30.636719 41.292969 30.238281 41.121094 29.921875 C 39.570312 27.054688 38.316406 24.066406 37.359375 20.953125 Z M 37.359375 20.953125 " fill-opacity="1" fill-rule="nonzero"/><path fill="#000000" d="M 76.09375 30.269531 C 76.042969 30.316406 75.988281 30.367188 75.9375 30.417969 C 76.035156 30.566406 76.136719 30.707031 76.246094 30.84375 C 76.574219 31.25 76.953125 31.617188 77.304688 32.003906 C 77.886719 32.648438 78.449219 33.308594 78.855469 34.082031 C 79.984375 36.210938 79.660156 38.742188 77.78125 40.246094 C 76.199219 41.515625 75.957031 42.957031 76.460938 44.742188 C 76.695312 45.574219 76.871094 46.425781 77.039062 47.273438 C 77.515625 49.722656 76.492188 51.605469 74.75 53.1875 C 73.996094 53.867188 73.179688 54.472656 72.136719 54.671875 C 71.808594 54.734375 71.476562 54.761719 71.320312 54.410156 C 71.136719 54.003906 71.546875 53.9375 71.769531 53.777344 C 72.011719 53.609375 72.261719 53.457031 72.507812 53.292969 C 72.46875 53.175781 72.386719 53.050781 72.402344 52.9375 C 72.742188 50.660156 71.863281 48.683594 70.863281 46.738281 C 70.625 46.273438 70.398438 45.800781 70.15625 45.332031 C 69.46875 43.984375 67.984375 43.5 66.832031 44.214844 C 66.726562 44.28125 66.652344 44.382812 66.578125 44.484375 C 66.453125 44.652344 66.332031 44.816406 66.074219 44.808594 C 66.074219 44.808594 66.078125 44.820312 66.078125 44.820312 C 66.113281 44.917969 66.109375 44.996094 66.042969 45.046875 C 66.019531 45.0625 65.992188 45.078125 65.957031 45.089844 C 65.25 46.714844 64.410156 48.238281 62.800781 49.164062 C 62.0625 49.589844 61.289062 49.820312 60.433594 49.550781 C 60.125 49.453125 59.84375 49.3125 59.652344 49.039062 C 59.5 48.820312 59.3125 48.601562 59.480469 48.292969 C 59.632812 48.015625 59.871094 47.980469 60.128906 48.058594 C 60.476562 48.160156 60.464844 47.871094 60.507812 47.707031 C 61.035156 45.671875 61.410156 43.625 61.128906 41.402344 C 60.878906 41.746094 60.679688 42.042969 60.457031 42.320312 C 59.871094 43.050781 59.234375 43.714844 58.289062 43.988281 C 57.792969 44.132812 57.351562 44.09375 57.011719 43.699219 C 56.703125 43.339844 56.855469 42.988281 57.058594 42.59375 C 57.347656 42.050781 57.375 41.414062 57.429688 40.808594 C 57.808594 36.40625 56.832031 32.40625 53.890625 28.996094 C 53.507812 28.554688 53.160156 28.089844 52.746094 27.574219 C 52.605469 28.070312 52.804688 28.417969 52.902344 28.765625 C 53.296875 30.167969 53.664062 31.578125 54.417969 32.847656 C 54.621094 33.1875 54.847656 33.421875 55.308594 33.425781 C 55.882812 33.429688 56.058594 33.882812 55.730469 34.351562 C 55.507812 34.667969 55.179688 34.792969 54.816406 34.867188 C 53.3125 35.167969 52.074219 34.65625 51 33.632812 C 50.8125 33.675781 50.628906 33.703125 50.441406 33.71875 C 50.347656 33.722656 50.257812 33.726562 50.164062 33.726562 C 49.703125 33.726562 49.246094 33.640625 48.796875 33.492188 C 48.019531 33.652344 47.246094 33.761719 46.46875 33.820312 C 46.171875 33.839844 45.875 33.855469 45.574219 33.859375 C 45.304688 33.863281 45.039062 33.859375 44.769531 33.847656 C 43.960938 33.816406 43.15625 33.714844 42.347656 33.539062 C 41.992188 33.460938 41.667969 33.320312 41.429688 33.027344 C 41.097656 33.148438 40.753906 33.25 40.429688 33.390625 C 39.808594 33.65625 39.179688 33.710938 38.53125 33.53125 C 38.292969 34.242188 37.652344 34.328125 37.0625 34.414062 C 35.898438 34.582031 34.964844 34.082031 34.195312 33.242188 C 33.191406 32.144531 32.601562 30.816406 32.140625 29.425781 C 31.132812 26.394531 30.5625 23.25 29.753906 20.167969 C 29.507812 19.230469 29.199219 18.308594 28.910156 17.382812 C 28.6875 16.675781 28.355469 16.03125 27.710938 15.605469 C 27.644531 15.59375 27.582031 15.589844 27.519531 15.597656 C 27.335938 15.609375 27.160156 15.6875 26.980469 15.734375 C 26.757812 16.617188 26.480469 17.484375 26.25 18.363281 C 26.113281 18.890625 25.992188 19.421875 25.90625 19.964844 C 25.316406 23.675781 24.960938 27.390625 25.589844 31.132812 C 25.777344 32.246094 26.175781 33.285156 26.902344 34.183594 C 27.480469 34.898438 28.214844 35.285156 29.136719 35.320312 C 29.308594 35.324219 29.476562 35.339844 29.644531 35.355469 C 29.957031 35.382812 30.355469 35.335938 30.375 35.773438 C 30.394531 36.191406 29.96875 36.269531 29.6875 36.28125 C 29.144531 36.304688 28.757812 36.601562 28.316406 36.847656 C 26.578125 37.808594 24.90625 37.433594 23.378906 36.382812 C 21.40625 35.023438 20.277344 33.023438 19.46875 30.828125 C 18.988281 29.515625 18.644531 28.167969 18.414062 26.789062 C 18.382812 26.589844 18.3125 26.402344 18.21875 26.066406 C 17.824219 26.933594 17.644531 27.726562 17.488281 28.507812 C 16.914062 31.410156 16.703125 34.328125 17.292969 37.261719 C 17.421875 37.902344 17.539062 38.53125 18.234375 38.875 C 18.589844 39.050781 18.535156 39.355469 18.15625 39.53125 C 17.734375 39.730469 17.375 39.570312 17.042969 39.316406 C 16.476562 38.882812 16.269531 38.226562 16.011719 37.605469 C 15.824219 37.636719 15.679688 37.574219 15.546875 37.480469 C 15.328125 37.328125 15.148438 37.089844 14.871094 37.058594 C 13.820312 36.84375 12.933594 36.398438 12.191406 35.742188 C 11.746094 35.351562 11.351562 34.882812 11.007812 34.347656 C 10.941406 34.242188 10.894531 34.121094 10.832031 34.011719 C 10.800781 33.957031 10.765625 33.90625 10.722656 33.859375 C 10.683594 33.8125 10.632812 33.769531 10.570312 33.738281 C 10.554688 34.160156 10.550781 34.585938 10.558594 35.003906 C 10.574219 35.847656 10.636719 36.683594 10.734375 37.515625 C 10.785156 37.933594 10.84375 38.347656 10.914062 38.761719 C 10.976562 39.15625 11.050781 39.546875 11.132812 39.941406 C 11.273438 40.621094 11.441406 41.296875 11.628906 41.972656 C 12.292969 44.351562 13.421875 46.511719 14.550781 48.679688 C 14.574219 48.726562 14.589844 48.773438 14.605469 48.824219 C 14.617188 48.875 14.628906 48.929688 14.644531 48.980469 C 14.816406 48.929688 14.984375 48.742188 15.15625 48.667969 C 15.289062 48.613281 15.425781 48.621094 15.574219 48.8125 C 15.882812 49.214844 15.476562 49.515625 15.238281 49.789062 C 13.671875 51.566406 11.148438 52.046875 9.058594 50.914062 C 8.011719 50.351562 7.34375 49.398438 6.910156 48.324219 C 6.265625 46.734375 5.914062 45.105469 5.925781 43.335938 C 5.9375 41.492188 6.070312 39.664062 6.136719 37.828125 C 6.195312 36.210938 5.988281 35.894531 4.507812 35.3125 C 4.09375 35.152344 3.675781 35 3.269531 34.824219 C 1.34375 33.988281 0.480469 32.453125 0.984375 30.429688 C 1.753906 27.332031 3.402344 24.730469 5.792969 22.609375 C 6.78125 21.730469 7.664062 20.769531 8.332031 19.625 C 8.414062 19.484375 8.554688 19.363281 8.519531 19.171875 C 8.480469 19.152344 8.445312 19.117188 8.410156 19.117188 C 7.519531 19.105469 6.703125 18.917969 6.28125 18.027344 C 5.78125 16.976562 5.878906 15.890625 6.238281 14.820312 C 6.320312 14.574219 6.492188 14.371094 6.71875 14.246094 C 7.058594 14.050781 7.429688 14.125 7.460938 14.507812 C 7.503906 15.046875 7.832031 14.972656 8.148438 14.96875 C 9.714844 14.941406 11.050781 14.332031 12.28125 13.394531 C 14.082031 12.019531 15.335938 10.199219 16.570312 8.347656 C 17.390625 7.117188 18.324219 5.960938 19.5 5.03125 C 20.660156 4.113281 21.886719 3.917969 23.214844 4.660156 C 23.933594 5.0625 24.671875 5.410156 25.464844 5.660156 C 26.019531 5.832031 26.546875 6.09375 26.496094 6.832031 C 26.542969 6.847656 26.589844 6.859375 26.636719 6.875 C 26.746094 6.902344 26.851562 6.933594 26.960938 6.964844 C 26.957031 6.855469 26.988281 6.761719 27.039062 6.6875 C 27.125 6.558594 27.265625 6.472656 27.378906 6.382812 C 32.324219 2.566406 37.90625 0.390625 44.152344 0.136719 C 47.417969 0.0078125 50.207031 1.496094 52.804688 3.328125 C 53.960938 4.144531 54.925781 5.207031 56.121094 5.984375 C 58.257812 7.371094 61.742188 7.304688 63.820312 5.8125 C 64.542969 5.292969 64.933594 4.554688 65.203125 3.742188 C 65.300781 3.445312 65.394531 3.121094 65.761719 3.164062 C 66.144531 3.210938 66.109375 3.566406 66.140625 3.863281 C 66.191406 4.273438 66.078125 4.660156 66.003906 5.050781 C 66.058594 5.058594 66.105469 5.070312 66.148438 5.089844 C 66.179688 5.101562 66.210938 5.121094 66.234375 5.140625 C 66.316406 5.199219 66.367188 5.285156 66.386719 5.410156 C 66.960938 5.410156 67.433594 5.761719 67.695312 6.285156 C 67.730469 6.359375 67.761719 6.4375 67.792969 6.515625 C 67.925781 6.90625 67.957031 7.363281 67.839844 7.832031 C 67.625 8.722656 66.992188 9.320312 66.363281 9.917969 C 66.199219 10.070312 65.972656 10.167969 65.878906 10.453125 C 66.953125 10.835938 68.046875 11.140625 69.054688 11.660156 C 70.257812 12.28125 71.46875 12.882812 72.644531 13.542969 C 73.949219 14.28125 74.550781 15.464844 74.625 16.941406 C 74.707031 18.558594 74.40625 20.144531 74.320312 21.75 C 74.257812 22.863281 74.082031 23.984375 74.339844 25.09375 C 74.652344 26.421875 76.226562 27.339844 77.542969 26.953125 C 77.90625 26.847656 78.246094 26.667969 78.601562 26.539062 C 79.484375 26.207031 80.125 26.722656 80.019531 27.660156 C 79.953125 28.222656 79.648438 28.644531 79.253906 29.011719 C 79.03125 29.21875 78.800781 29.398438 78.554688 29.550781 C 77.828125 30.015625 77 30.246094 76.09375 30.269531 Z M 76.09375 30.269531 " fill-opacity="1" fill-rule="nonzero"/></g><path fill="#000000" d="M 75.128906 50.589844 C 76 49.230469 75.777344 47.804688 75.429688 46.359375 C 75.117188 45.070312 74.703125 43.800781 74.855469 42.429688 C 74.980469 41.351562 75.417969 40.492188 76.261719 39.832031 C 76.9375 39.304688 77.507812 38.695312 77.851562 37.890625 C 78.449219 36.496094 78.121094 35.222656 77.253906 34.078125 C 76.492188 33.070312 75.617188 32.144531 74.816406 31.160156 C 74.511719 30.785156 74.273438 30.351562 74.253906 29.839844 C 74.238281 29.484375 74.316406 29.152344 74.628906 28.945312 C 74.949219 28.734375 75.230469 28.832031 75.472656 29.105469 C 75.621094 29.277344 75.832031 29.222656 76.011719 29.183594 C 76.695312 29.050781 77.335938 28.804688 77.890625 28.410156 C 77.890625 28.261719 77.804688 28.28125 77.761719 28.289062 C 75.109375 28.667969 73.648438 27.320312 73.085938 24.777344 C 72.765625 23.316406 72.914062 21.835938 73.058594 20.363281 C 73.179688 19.1875 73.324219 18.011719 73.25 16.820312 C 73.191406 15.882812 72.769531 15.160156 71.964844 14.691406 C 69.546875 13.28125 67.042969 12.0625 64.308594 11.375 C 64.054688 11.3125 63.859375 11.421875 63.640625 11.464844 C 63.28125 11.53125 62.925781 11.601562 62.582031 11.449219 C 62.382812 11.363281 62.1875 11.234375 62.199219 10.992188 C 62.210938 10.738281 62.417969 10.644531 62.636719 10.601562 C 63.957031 10.351562 64.878906 9.457031 65.8125 8.605469 C 66.710938 7.78125 66.734375 7.390625 66.144531 6.300781 C 65.933594 5.914062 66.164062 5.667969 66.382812 5.410156 C 66.363281 5.242188 66.277344 5.144531 66.148438 5.089844 C 66.105469 5.070312 66.054688 5.058594 66.003906 5.050781 C 64.917969 7.574219 62.640625 8.085938 60.277344 8.316406 C 57.613281 8.578125 55.421875 7.460938 53.519531 5.6875 C 51.453125 3.761719 49.070312 2.410156 46.324219 1.710938 C 44.710938 1.304688 43.078125 1.417969 41.46875 1.703125 C 36.652344 2.558594 32.199219 4.296875 28.304688 7.332031 C 27.640625 7.847656 27.285156 7.738281 26.960938 6.96875 C 26.851562 6.9375 26.746094 6.90625 26.636719 6.875 C 26.589844 6.859375 26.542969 6.847656 26.496094 6.832031 C 26.371094 7.023438 26.222656 7.132812 26.058594 7.171875 C 25.890625 7.210938 25.707031 7.179688 25.503906 7.097656 C 25.433594 7.066406 25.359375 7.035156 25.289062 7.003906 C 25.070312 6.910156 24.847656 6.824219 24.605469 6.824219 C 23.851562 7.140625 23.136719 7.027344 22.421875 6.832031 C 22.183594 6.765625 21.945312 6.691406 21.707031 6.617188 C 20.894531 6.371094 19.742188 7.265625 19.574219 8.15625 C 19.320312 9.464844 19.050781 10.785156 18.542969 12.023438 C 17.890625 13.617188 16.507812 14.433594 15.074219 15.226562 C 13.59375 16.042969 12.023438 16.042969 10.421875 15.980469 C 9.472656 16.160156 8.539062 16.492188 7.546875 16.25 C 7.390625 16.210938 7.316406 16.304688 7.28125 16.445312 C 7.148438 16.972656 7.5625 17.707031 8.109375 17.855469 C 8.453125 17.949219 8.816406 17.980469 9.167969 18.046875 C 9.976562 18.195312 10.269531 18.714844 9.917969 19.464844 C 9.703125 19.921875 9.414062 20.339844 9.15625 20.773438 C 9.164062 20.878906 9.148438 20.972656 9.121094 21.0625 C 9.105469 21.128906 9.082031 21.191406 9.050781 21.253906 C 9.027344 21.304688 9 21.359375 8.96875 21.414062 C 8.082031 23.050781 6.886719 24.5 6.023438 26.144531 C 5.105469 27.898438 4.25 29.699219 4.316406 31.773438 C 4.34375 32.585938 4.640625 33.195312 5.417969 33.503906 C 5.898438 33.691406 6.230469 33.945312 6.105469 34.527344 C 7.378906 35.371094 7.511719 36.667969 7.4375 38.007812 C 7.382812 39.042969 7.238281 40.070312 7.109375 41.097656 C 6.882812 42.871094 7.21875 44.585938 7.648438 46.289062 C 7.808594 46.925781 8.027344 47.542969 8.3125 48.136719 C 9.3125 50.207031 12.011719 50.710938 14 49.484375 C 14.230469 49.34375 14.488281 49.222656 14.644531 48.980469 C 14.628906 48.929688 14.617188 48.878906 14.605469 48.828125 C 14.589844 48.777344 14.574219 48.726562 14.550781 48.679688 C 13.421875 46.511719 12.292969 44.351562 11.628906 41.972656 C 11.441406 41.296875 11.273438 40.621094 11.132812 39.941406 C 11.050781 39.546875 10.980469 39.15625 10.914062 38.761719 C 10.636719 37.109375 10.511719 35.4375 10.570312 33.738281 C 10.597656 33.660156 10.589844 33.585938 10.570312 33.519531 C 10.550781 33.449219 10.515625 33.382812 10.488281 33.316406 C 9.542969 31.242188 9.710938 29.082031 10.003906 26.917969 C 10.0625 26.480469 10.222656 26.097656 10.457031 25.753906 C 10.597656 25.546875 10.761719 25.355469 10.953125 25.175781 C 10.980469 25.105469 11.015625 25.050781 11.050781 25.003906 C 11.296875 24.683594 11.695312 24.882812 11.976562 24.949219 C 12.515625 25.078125 12.667969 25.613281 12.5625 26.058594 C 12.425781 26.664062 12.402344 27.285156 12.386719 27.871094 C 12.367188 28.964844 12.414062 30.0625 12.652344 31.160156 C 12.851562 32.058594 13.042969 32.925781 13.457031 33.75 C 13.628906 34.097656 13.925781 34.277344 14.15625 34.539062 C 14.628906 35.066406 14.648438 35.484375 14.203125 35.855469 C 14.40625 35.996094 14.597656 36.152344 14.804688 36.28125 C 15.183594 36.519531 15.203125 36.773438 14.871094 37.0625 C 15.148438 37.089844 15.328125 37.328125 15.546875 37.480469 C 15.679688 37.574219 15.824219 37.636719 16.011719 37.605469 C 15.117188 33.097656 15.808594 28.730469 17.214844 24.433594 C 17.558594 23.386719 17.679688 22.28125 18.078125 21.25 C 18.253906 20.800781 18.464844 20.402344 19.03125 20.554688 C 19.597656 20.707031 19.542969 21.117188 19.464844 21.617188 C 19.273438 22.832031 19.378906 24.0625 19.554688 25.277344 C 19.910156 27.738281 20.472656 30.140625 21.691406 32.339844 C 22.390625 33.59375 23.277344 34.6875 24.488281 35.484375 C 25.300781 36.023438 26.195312 36.269531 27.300781 36.171875 C 24.683594 34.671875 24.171875 32.175781 23.992188 29.621094 C 23.675781 25.074219 24.0625 20.574219 25.429688 16.195312 C 25.570312 15.746094 25.753906 15.320312 26.078125 14.976562 C 26.273438 14.769531 26.488281 14.5 26.832031 14.703125 C 27.144531 14.886719 27.101562 15.199219 27.039062 15.496094 C 27.023438 15.578125 27 15.65625 26.980469 15.734375 C 27.160156 15.691406 27.335938 15.613281 27.519531 15.597656 C 27.582031 15.589844 27.644531 15.59375 27.710938 15.605469 C 27.6875 15.214844 27.777344 14.882812 28.195312 14.75 C 28.585938 14.625 28.898438 14.78125 29.15625 15.070312 C 29.699219 15.683594 30 16.425781 30.265625 17.183594 C 31.140625 19.699219 31.65625 22.3125 32.296875 24.890625 C 32.75 26.714844 33.179688 28.542969 33.929688 30.269531 C 34.25 31.011719 34.679688 31.6875 35.179688 32.320312 C 35.769531 33.070312 36.503906 33.457031 37.492188 33.308594 C 37.84375 33.253906 38.261719 33.109375 38.53125 33.53125 C 39.179688 33.710938 39.808594 33.65625 40.429688 33.390625 C 40.757812 33.25 41.097656 33.148438 41.429688 33.027344 C 41.292969 32.414062 41.53125 32.097656 42.167969 32.144531 C 42.648438 32.179688 43.121094 32.300781 43.597656 32.386719 C 45.183594 32.683594 46.792969 32.628906 48.390625 32.726562 C 49 32.765625 49.066406 32.917969 48.796875 33.492188 C 49.246094 33.640625 49.703125 33.726562 50.164062 33.726562 C 50.257812 33.726562 50.351562 33.726562 50.441406 33.71875 C 50.628906 33.703125 50.816406 33.675781 51 33.632812 C 50.867188 33.472656 50.738281 33.308594 50.601562 33.148438 C 50.433594 32.953125 50.230469 32.753906 50.453125 32.484375 C 50.691406 32.195312 50.957031 32.363281 51.183594 32.515625 C 51.675781 32.847656 52.179688 33.152344 52.730469 33.378906 C 52.917969 33.457031 53.113281 33.5625 53.417969 33.507812 C 52.542969 32.300781 52.050781 30.953125 51.65625 29.5625 C 51.222656 28.027344 50.886719 26.480469 51.308594 24.878906 C 51.378906 24.609375 51.414062 24.324219 51.753906 24.257812 C 52.03125 24.203125 52.269531 24.300781 52.394531 24.550781 C 53.480469 26.703125 55.289062 28.347656 56.511719 30.398438 C 58.691406 34.066406 59.40625 37.972656 58.355469 42.152344 C 58.335938 42.230469 58.339844 42.3125 58.335938 42.402344 C 58.632812 42.402344 58.789062 42.199219 58.917969 42.03125 C 59.632812 41.101562 60.535156 40.296875 60.898438 39.125 C 60.988281 38.839844 61.234375 38.753906 61.496094 38.734375 C 61.78125 38.714844 61.980469 38.886719 62.097656 39.125 C 62.300781 39.523438 62.382812 39.964844 62.425781 40.40625 C 62.691406 43.035156 62.71875 45.640625 61.515625 48.214844 C 62.234375 47.992188 62.703125 47.589844 63.121094 47.132812 C 64.191406 45.964844 64.984375 44.628906 65.527344 43.140625 C 65.5625 43.042969 65.597656 42.941406 65.636719 42.847656 C 65.742188 42.605469 65.863281 42.359375 66.183594 42.421875 C 66.558594 42.5 66.535156 42.820312 66.480469 43.085938 C 66.367188 43.664062 66.214844 44.238281 66.078125 44.808594 C 66.332031 44.816406 66.457031 44.652344 66.578125 44.484375 C 66.652344 44.382812 66.726562 44.28125 66.832031 44.214844 C 67.984375 43.5 69.46875 43.984375 70.160156 45.332031 C 70.398438 45.800781 70.625 46.273438 70.863281 46.742188 C 71.867188 48.683594 72.746094 50.660156 72.402344 52.9375 C 72.386719 53.050781 72.472656 53.175781 72.507812 53.292969 C 73.644531 52.648438 74.4375 51.667969 75.128906 50.589844 Z M 33.429688 10.339844 C 33.238281 9.945312 33.535156 9.636719 33.855469 9.371094 C 34.867188 8.535156 36.078125 8.242188 37.519531 8.019531 C 36.988281 7.757812 36.652344 7.589844 36.230469 7.578125 C 35.765625 7.566406 35.46875 7.214844 35.371094 6.792969 C 35.265625 6.347656 35.417969 6.011719 35.90625 5.796875 C 37.007812 5.308594 38.105469 4.921875 39.320312 4.742188 C 39.90625 4.65625 40.523438 4.660156 41.210938 4.476562 C 40.832031 4.285156 40.613281 4.074219 40.675781 3.664062 C 40.734375 3.296875 40.917969 3.058594 41.261719 3.039062 C 42.539062 2.960938 43.824219 2.957031 44.996094 3.554688 C 45.417969 3.769531 45.875 3.984375 46.109375 4.480469 C 46.402344 5.09375 46.097656 5.730469 45.425781 5.816406 C 45.34375 5.828125 45.257812 5.832031 45.171875 5.824219 C 43.378906 5.652344 41.617188 6.160156 39.832031 6.078125 C 39.542969 6.066406 39.359375 6.199219 39.179688 6.535156 C 39.984375 6.5625 40.710938 6.738281 41.394531 7.078125 C 41.800781 7.28125 42.230469 7.511719 42.179688 8.015625 C 42.128906 8.515625 41.738281 8.742188 41.242188 8.886719 C 40.34375 9.152344 39.425781 9.257812 38.511719 9.425781 C 37.125 9.683594 35.710938 9.941406 34.394531 10.480469 C 33.972656 10.65625 33.625 10.734375 33.429688 10.339844 Z M 41.277344 30.945312 C 40.835938 31.226562 40.613281 30.667969 40.34375 30.40625 C 40.207031 30.273438 40.109375 30.109375 39.996094 29.957031 C 39.417969 29.855469 38.9375 29.570312 38.503906 29.1875 C 37.074219 27.925781 36.074219 26.371094 35.355469 24.621094 C 34.742188 23.136719 34.160156 21.632812 34.085938 20.007812 C 34.054688 19.351562 34.152344 18.96875 34.457031 18.757812 C 34.695312 18.59375 35.054688 18.539062 35.578125 18.539062 C 35.589844 18.457031 35.597656 18.375 35.613281 18.289062 C 35.65625 18.035156 35.707031 17.757812 36.011719 17.714844 C 36.363281 17.671875 36.476562 17.957031 36.554688 18.222656 C 36.832031 19.132812 37.082031 20.046875 37.359375 20.953125 C 38.316406 24.066406 39.570312 27.054688 41.121094 29.921875 C 41.292969 30.238281 41.769531 30.636719 41.277344 30.945312 Z M 48.242188 30.796875 C 48 31.164062 47.683594 30.941406 47.398438 30.808594 C 47.355469 30.785156 47.304688 30.769531 47.253906 30.757812 C 47.222656 30.746094 47.195312 30.738281 47.164062 30.730469 C 46.769531 30.84375 46.402344 30.863281 46.054688 30.785156 C 45.925781 30.757812 45.800781 30.71875 45.675781 30.664062 C 45.519531 30.59375 45.367188 30.507812 45.222656 30.398438 C 44.875 30.136719 44.554688 29.765625 44.253906 29.28125 C 43.679688 28.351562 43.136719 27.433594 42.859375 26.355469 C 42.703125 25.734375 42.800781 25.136719 42.726562 24.53125 C 42.386719 23.628906 42.035156 22.726562 41.71875 21.816406 C 41.488281 21.15625 41.34375 20.472656 41.320312 19.769531 C 41.308594 19.453125 41.238281 19.082031 41.671875 19.003906 C 42.0625 18.9375 42.234375 19.25 42.355469 19.546875 C 42.769531 20.5625 43.144531 21.597656 43.578125 22.601562 C 44.472656 24.671875 45.28125 26.789062 46.597656 28.652344 C 46.96875 29.175781 47.441406 29.59375 47.90625 30.027344 C 48.128906 30.234375 48.488281 30.417969 48.242188 30.796875 Z M 70.066406 20.464844 C 69.660156 20.6875 69.140625 20.664062 68.722656 20.457031 C 67.894531 20.042969 66.980469 19.832031 66.160156 19.28125 C 65.988281 20.09375 66.46875 20.734375 66.402344 21.472656 C 66.347656 22.046875 66.1875 22.46875 65.769531 22.832031 C 65.40625 23.144531 65.042969 23.136719 64.601562 23 C 63.296875 22.597656 62.238281 21.726562 61.015625 21.175781 C 60.792969 21.074219 60.574219 20.96875 60.328125 20.859375 C 60.101562 21.671875 60.480469 22.367188 60.625 23.085938 C 60.796875 23.972656 61.105469 24.832031 61.269531 25.71875 C 61.335938 26.089844 61.6875 26.402344 61.464844 26.855469 C 60.960938 27.878906 59.925781 27.960938 59.175781 27.164062 C 58.535156 26.480469 57.921875 25.761719 57.324219 25.039062 C 57 24.652344 56.714844 24.289062 56.273438 24.011719 C 55.785156 23.703125 55.433594 23.199219 54.960938 22.84375 C 54.332031 22.367188 53.730469 22.015625 52.875 22.027344 C 52.429688 22.035156 52.085938 21.527344 52.140625 20.949219 C 52.191406 20.394531 52.695312 19.871094 53.261719 19.808594 C 54.050781 19.726562 54.648438 20.160156 55.269531 20.539062 C 56.304688 21.171875 57.257812 21.90625 58.074219 22.816406 C 58.128906 22.796875 58.183594 22.777344 58.238281 22.753906 C 58.238281 21.894531 58.222656 21.035156 58.238281 20.175781 C 58.261719 19.097656 59.761719 18.191406 60.742188 18.652344 C 61.71875 19.109375 62.660156 19.628906 63.578125 20.195312 C 63.714844 20.28125 63.863281 20.351562 63.980469 20.253906 C 64.136719 20.125 64.035156 19.964844 63.980469 19.796875 C 63.707031 18.972656 63.730469 18.152344 64.144531 17.375 C 64.378906 16.933594 65.386719 16.554688 65.890625 16.800781 C 67.25 17.457031 68.6875 17.988281 69.800781 19.066406 C 69.964844 19.222656 70.175781 19.363281 70.171875 19.628906 C 70.171875 19.917969 70.324219 20.324219 70.066406 20.464844 Z M 66.078125 44.820312 C 66.117188 44.917969 66.109375 44.996094 66.042969 45.046875 C 66.023438 45.0625 65.992188 45.078125 65.957031 45.085938 C 65.996094 45 66.039062 44.910156 66.078125 44.820312 Z M 66.078125 44.820312 " fill-opacity="1" fill-rule="nonzero"/><path fill="#000000" d="M 70.171875 19.628906 C 70.171875 19.917969 70.324219 20.324219 70.066406 20.464844 C 69.660156 20.6875 69.140625 20.664062 68.722656 20.457031 C 67.894531 20.042969 66.980469 19.832031 66.160156 19.28125 C 65.988281 20.09375 66.472656 20.734375 66.402344 21.472656 C 66.347656 22.046875 66.191406 22.46875 65.769531 22.832031 C 65.40625 23.144531 65.042969 23.136719 64.601562 23 C 63.296875 22.597656 62.238281 21.726562 61.015625 21.175781 C 60.792969 21.074219 60.574219 20.96875 60.328125 20.859375 C 60.101562 21.671875 60.480469 22.367188 60.625 23.085938 C 60.800781 23.972656 61.105469 24.832031 61.269531 25.71875 C 61.335938 26.089844 61.6875 26.402344 61.464844 26.855469 C 60.960938 27.878906 59.925781 27.960938 59.175781 27.164062 C 58.535156 26.480469 57.921875 25.761719 57.324219 25.039062 C 57 24.652344 56.714844 24.289062 56.273438 24.011719 C 55.785156 23.703125 55.433594 23.199219 54.960938 22.84375 C 54.332031 22.367188 53.730469 22.015625 52.875 22.027344 C 52.429688 22.035156 52.085938 21.527344 52.140625 20.949219 C 52.191406 20.394531 52.695312 19.871094 53.261719 19.808594 C 54.050781 19.726562 54.648438 20.160156 55.269531 20.539062 C 56.304688 21.171875 57.257812 21.90625 58.074219 22.816406 C 58.128906 22.796875 58.183594 22.777344 58.238281 22.753906 C 58.238281 21.894531 58.222656 21.035156 58.238281 20.175781 C 58.261719 19.097656 59.761719 18.191406 60.742188 18.652344 C 61.71875 19.109375 62.660156 19.628906 63.578125 20.195312 C 63.71875 20.28125 63.863281 20.351562 63.984375 20.253906 C 64.136719 20.125 64.039062 19.964844 63.980469 19.796875 C 63.707031 18.972656 63.730469 18.152344 64.144531 17.375 C 64.382812 16.933594 65.386719 16.554688 65.890625 16.800781 C 67.25 17.457031 68.6875 17.988281 69.804688 19.066406 C 69.964844 19.222656 70.175781 19.363281 70.171875 19.628906 Z M 38.511719 9.425781 C 39.421875 9.257812 40.34375 9.152344 41.242188 8.886719 C 41.738281 8.742188 42.125 8.515625 42.179688 8.019531 C 42.230469 7.511719 41.800781 7.28125 41.394531 7.078125 C 40.710938 6.738281 39.980469 6.5625 39.179688 6.535156 C 39.355469 6.199219 39.542969 6.066406 39.828125 6.078125 C 41.617188 6.160156 43.378906 5.652344 45.171875 5.824219 C 45.253906 5.832031 45.34375 5.828125 45.425781 5.820312 C 46.097656 5.734375 46.402344 5.09375 46.109375 4.480469 C 45.875 3.988281 45.417969 3.773438 44.996094 3.554688 C 43.820312 2.957031 42.539062 2.960938 41.261719 3.039062 C 40.917969 3.058594 40.730469 3.296875 40.675781 3.667969 C 40.609375 4.074219 40.832031 4.285156 41.207031 4.476562 C 40.523438 4.660156 39.90625 4.65625 39.316406 4.742188 C 38.105469 4.921875 37.003906 5.308594 35.90625 5.796875 C 35.417969 6.011719 35.265625 6.347656 35.367188 6.792969 C 35.46875 7.214844 35.765625 7.566406 36.230469 7.578125 C 36.652344 7.589844 36.988281 7.757812 37.519531 8.023438 C 36.078125 8.246094 34.867188 8.535156 33.855469 9.371094 C 33.535156 9.636719 33.234375 9.945312 33.429688 10.339844 C 33.625 10.734375 33.972656 10.65625 34.394531 10.484375 C 35.710938 9.941406 37.125 9.6875 38.511719 9.425781 Z M 38.511719 9.425781 " fill-opacity="1" fill-rule="nonzero"/><path fill="#000000" d="M 24.605469 6.824219 C 23.855469 7.140625 23.136719 7.027344 22.421875 6.832031 C 22.183594 6.765625 21.945312 6.6875 21.707031 6.617188 C 20.894531 6.371094 19.746094 7.265625 19.574219 8.15625 C 19.320312 9.464844 19.050781 10.78125 18.546875 12.023438 C 17.890625 13.617188 16.507812 14.433594 15.078125 15.226562 C 13.59375 16.042969 12.023438 16.039062 10.421875 15.980469 C 12.050781 15.234375 13.503906 14.246094 14.761719 12.953125 C 16.042969 11.640625 16.949219 10.054688 18.003906 8.574219 C 18.714844 7.574219 19.488281 6.621094 20.5 5.894531 C 21.019531 5.519531 21.589844 5.375 22.171875 5.625 C 23 5.980469 23.796875 6.417969 24.605469 6.824219 Z M 6.164062 24.03125 C 4.277344 25.859375 2.96875 28.0625 2.277344 30.597656 C 1.886719 32.042969 2.386719 33.011719 3.75 33.628906 C 4.515625 33.976562 5.320312 34.230469 6.105469 34.527344 C 6.234375 33.945312 5.898438 33.691406 5.421875 33.503906 C 4.640625 33.195312 4.347656 32.585938 4.320312 31.773438 C 4.25 29.699219 5.105469 27.898438 6.027344 26.144531 C 6.886719 24.5 8.082031 23.050781 8.972656 21.414062 C 9 21.359375 9.027344 21.304688 9.050781 21.253906 C 9.082031 21.191406 9.105469 21.128906 9.125 21.0625 C 9.148438 20.972656 9.164062 20.878906 9.15625 20.773438 C 8.3125 22 7.226562 23 6.164062 24.03125 Z M 35.578125 18.539062 C 35.054688 18.539062 34.695312 18.59375 34.457031 18.757812 C 34.152344 18.96875 34.054688 19.351562 34.085938 20.007812 C 34.160156 21.632812 34.742188 23.136719 35.355469 24.621094 C 36.074219 26.371094 37.074219 27.925781 38.503906 29.1875 C 38.9375 29.570312 39.417969 29.855469 39.996094 29.957031 C 38.855469 28.03125 37.816406 26.054688 36.976562 23.976562 C 36.273438 22.226562 35.765625 20.421875 35.578125 18.539062 Z M 11.511719 26.058594 C 11.097656 28.007812 10.792969 29.96875 11.351562 31.941406 C 11.816406 33.59375 12.597656 35.027344 14.207031 35.851562 C 14.648438 35.484375 14.628906 35.066406 14.160156 34.539062 C 13.925781 34.277344 13.628906 34.097656 13.457031 33.75 C 13.042969 32.921875 12.851562 32.058594 12.652344 31.160156 C 12.414062 30.0625 12.367188 28.960938 12.390625 27.871094 C 12.402344 27.285156 12.425781 26.664062 12.5625 26.058594 C 12.667969 25.613281 12.515625 25.078125 11.976562 24.949219 C 11.695312 24.882812 11.300781 24.683594 11.050781 25.003906 C 11.015625 25.050781 10.984375 25.105469 10.953125 25.175781 C 11.660156 25.140625 11.613281 25.582031 11.511719 26.058594 Z M 43.835938 26.652344 C 43.464844 25.949219 43.199219 25.183594 42.726562 24.53125 C 42.800781 25.136719 42.703125 25.734375 42.859375 26.355469 C 43.136719 27.433594 43.679688 28.351562 44.253906 29.28125 C 44.554688 29.765625 44.875 30.136719 45.222656 30.398438 C 45.367188 30.507812 45.519531 30.59375 45.675781 30.664062 C 45.800781 30.71875 45.925781 30.757812 46.054688 30.785156 C 46.402344 30.863281 46.769531 30.84375 47.164062 30.730469 C 45.667969 29.6875 44.671875 28.242188 43.835938 26.652344 Z M 43.835938 26.652344 " fill-opacity="1" fill-rule="nonzero"/><g clip-path="url(#3e506af573)"><path fill="#000000" d="M 14.644531 48.980469 C 14.816406 48.929688 14.984375 48.742188 15.15625 48.667969 C 15.289062 48.613281 15.425781 48.621094 15.574219 48.8125 C 15.882812 49.214844 15.476562 49.515625 15.238281 49.789062 C 13.671875 51.566406 11.148438 52.046875 9.058594 50.914062 C 8.011719 50.351562 7.34375 49.398438 6.910156 48.324219 C 6.265625 46.734375 5.914062 45.105469 5.925781 43.335938 C 5.9375 41.492188 6.070312 39.664062 6.136719 37.828125 C 6.195312 36.210938 5.992188 35.894531 4.507812 35.3125 C 4.09375 35.152344 3.675781 35 3.269531 34.824219 C 1.34375 33.988281 0.480469 32.453125 0.984375 30.429688 C 1.753906 27.332031 3.40625 24.730469 5.792969 22.609375 C 6.78125 21.730469 7.664062 20.769531 8.332031 19.625 C 8.417969 19.484375 8.554688 19.363281 8.519531 19.171875 C 8.484375 19.152344 8.445312 19.117188 8.410156 19.117188 C 7.519531 19.105469 6.707031 18.917969 6.28125 18.03125 C 5.78125 16.976562 5.878906 15.894531 6.238281 14.820312 C 6.320312 14.574219 6.492188 14.371094 6.71875 14.246094 C 7.058594 14.050781 7.429688 14.125 7.460938 14.507812 C 7.503906 15.046875 7.832031 14.972656 8.152344 14.96875 C 9.714844 14.941406 11.054688 14.332031 12.28125 13.394531 C 14.082031 12.019531 15.335938 10.199219 16.570312 8.347656 C 17.394531 7.113281 18.324219 5.960938 19.5 5.03125 C 20.660156 4.113281 21.886719 3.917969 23.214844 4.660156 C 23.933594 5.0625 24.671875 5.410156 25.464844 5.65625 C 26.019531 5.832031 26.550781 6.09375 26.496094 6.832031 C 26.371094 7.023438 26.226562 7.132812 26.058594 7.167969 C 25.894531 7.207031 25.707031 7.179688 25.507812 7.097656 C 25.433594 7.066406 25.359375 7.035156 25.289062 7.003906 C 25.070312 6.910156 24.851562 6.824219 24.605469 6.824219 C 23.796875 6.417969 23 5.980469 22.171875 5.625 C 21.589844 5.371094 21.019531 5.519531 20.5 5.894531 C 19.488281 6.621094 18.714844 7.570312 18.003906 8.574219 C 16.949219 10.054688 16.042969 11.640625 14.761719 12.953125 C 13.503906 14.242188 12.050781 15.234375 10.421875 15.980469 C 9.472656 16.160156 8.539062 16.492188 7.550781 16.25 C 7.394531 16.210938 7.316406 16.304688 7.28125 16.445312 C 7.152344 16.972656 7.5625 17.703125 8.109375 17.855469 C 8.457031 17.949219 8.816406 17.980469 9.171875 18.046875 C 9.980469 18.195312 10.269531 18.710938 9.917969 19.464844 C 9.703125 19.921875 9.414062 20.339844 9.15625 20.773438 C 8.3125 22 7.226562 23 6.164062 24.03125 C 4.277344 25.859375 2.96875 28.0625 2.277344 30.597656 C 1.886719 32.042969 2.386719 33.011719 3.75 33.628906 C 4.515625 33.972656 5.320312 34.230469 6.105469 34.527344 C 7.378906 35.371094 7.511719 36.667969 7.441406 38.007812 C 7.382812 39.042969 7.238281 40.070312 7.109375 41.097656 C 6.882812 42.871094 7.222656 44.585938 7.648438 46.289062 C 7.808594 46.925781 8.027344 47.542969 8.316406 48.136719 C 9.3125 50.203125 12.011719 50.707031 14.003906 49.484375 C 14.234375 49.34375 14.492188 49.222656 14.644531 48.980469 Z M 78.601562 26.539062 C 78.246094 26.667969 77.90625 26.847656 77.542969 26.953125 C 76.226562 27.339844 74.65625 26.421875 74.34375 25.09375 C 74.082031 23.984375 74.257812 22.863281 74.320312 21.75 C 74.40625 20.144531 74.710938 18.558594 74.625 16.941406 C 74.550781 15.464844 73.953125 14.28125 72.644531 13.542969 C 71.46875 12.882812 70.257812 12.28125 69.058594 11.660156 C 68.046875 11.140625 66.953125 10.835938 65.882812 10.453125 C 65.972656 10.167969 66.199219 10.074219 66.363281 9.917969 C 66.992188 9.320312 67.625 8.722656 67.84375 7.832031 C 67.957031 7.363281 67.929688 6.90625 67.792969 6.519531 C 67.566406 5.871094 67.042969 5.410156 66.386719 5.410156 C 66.164062 5.667969 65.933594 5.917969 66.144531 6.304688 C 66.738281 7.390625 66.710938 7.78125 65.8125 8.605469 C 64.882812 9.457031 63.957031 10.351562 62.636719 10.601562 C 62.417969 10.644531 62.210938 10.738281 62.199219 10.992188 C 62.191406 11.234375 62.382812 11.363281 62.582031 11.449219 C 62.929688 11.601562 63.28125 11.53125 63.640625 11.464844 C 63.859375 11.421875 64.054688 11.3125 64.3125 11.375 C 67.042969 12.066406 69.550781 13.28125 71.964844 14.691406 C 72.769531 15.160156 73.191406 15.882812 73.25 16.820312 C 73.324219 18.011719 73.179688 19.1875 73.0625 20.363281 C 72.914062 21.835938 72.765625 23.316406 73.085938 24.777344 C 73.648438 27.320312 75.109375 28.667969 77.761719 28.289062 C 77.808594 28.285156 77.890625 28.265625 77.890625 28.410156 C 77.335938 28.804688 76.695312 29.050781 76.011719 29.1875 C 75.832031 29.222656 75.625 29.277344 75.472656 29.105469 C 75.230469 28.832031 74.949219 28.738281 74.628906 28.945312 C 74.316406 29.152344 74.242188 29.484375 74.253906 29.839844 C 74.273438 30.351562 74.511719 30.785156 74.820312 31.160156 C 75.617188 32.144531 76.492188 33.070312 77.257812 34.082031 C 78.121094 35.222656 78.449219 36.496094 77.851562 37.890625 C 77.507812 38.695312 76.9375 39.304688 76.261719 39.832031 C 75.417969 40.492188 74.980469 41.355469 74.859375 42.429688 C 74.703125 43.800781 75.117188 45.070312 75.429688 46.359375 C 75.78125 47.804688 76.003906 49.230469 75.128906 50.589844 C 74.4375 51.667969 73.644531 52.648438 72.507812 53.292969 C 72.261719 53.457031 72.011719 53.609375 71.769531 53.777344 C 71.546875 53.9375 71.140625 54.003906 71.320312 54.410156 C 71.476562 54.761719 71.808594 54.734375 72.140625 54.671875 C 73.179688 54.472656 74 53.867188 74.75 53.1875 C 76.496094 51.605469 77.519531 49.71875 77.039062 47.273438 C 76.871094 46.425781 76.695312 45.574219 76.460938 44.742188 C 75.957031 42.957031 76.199219 41.515625 77.78125 40.246094 C 79.660156 38.742188 79.988281 36.210938 78.859375 34.082031 C 78.449219 33.308594 77.890625 32.648438 77.304688 32.003906 C 76.953125 31.617188 76.574219 31.25 76.246094 30.84375 C 76.136719 30.707031 76.035156 30.566406 75.9375 30.417969 C 75.910156 30.359375 75.894531 30.320312 75.894531 30.292969 C 75.894531 30.28125 75.894531 30.269531 75.902344 30.265625 C 75.925781 30.226562 76.015625 30.253906 76.09375 30.269531 C 77 30.246094 77.828125 30.015625 78.558594 29.550781 C 78.800781 29.398438 79.035156 29.21875 79.257812 29.011719 C 79.652344 28.644531 79.957031 28.222656 80.019531 27.660156 C 80.125 26.722656 79.484375 26.207031 78.601562 26.539062 Z M 27.039062 15.496094 C 27.101562 15.195312 27.144531 14.886719 26.832031 14.703125 C 26.492188 14.5 26.273438 14.765625 26.078125 14.976562 C 25.753906 15.320312 25.570312 15.746094 25.429688 16.195312 C 24.0625 20.574219 23.675781 25.074219 23.992188 29.621094 C 24.171875 32.171875 24.683594 34.671875 27.300781 36.171875 C 26.195312 36.269531 25.304688 36.023438 24.488281 35.484375 C 23.28125 34.6875 22.390625 33.59375 21.695312 32.339844 C 20.472656 30.140625 19.910156 27.738281 19.558594 25.277344 C 19.382812 24.0625 19.273438 22.832031 19.464844 21.613281 C 19.542969 21.117188 19.601562 20.707031 19.03125 20.554688 C 18.464844 20.402344 18.253906 20.800781 18.078125 21.25 C 17.679688 22.28125 17.558594 23.386719 17.21875 24.429688 C 15.808594 28.730469 15.117188 33.09375 16.015625 37.605469 C 16.273438 38.226562 16.476562 38.882812 17.042969 39.316406 C 17.375 39.570312 17.734375 39.730469 18.15625 39.53125 C 18.535156 39.355469 18.589844 39.050781 18.238281 38.875 C 17.539062 38.53125 17.421875 37.902344 17.292969 37.261719 C 16.703125 34.328125 16.914062 31.410156 17.488281 28.507812 C 17.644531 27.726562 17.824219 26.933594 18.21875 26.070312 C 18.3125 26.402344 18.382812 26.589844 18.414062 26.789062 C 18.640625 28.167969 18.988281 29.515625 19.46875 30.828125 C 20.277344 33.023438 21.40625 35.023438 23.375 36.382812 C 24.90625 37.4375 26.578125 37.808594 28.316406 36.847656 C 28.757812 36.601562 29.144531 36.304688 29.6875 36.28125 C 29.96875 36.269531 30.394531 36.191406 30.375 35.773438 C 30.355469 35.339844 29.957031 35.382812 29.644531 35.355469 C 29.476562 35.34375 29.308594 35.324219 29.136719 35.320312 C 28.21875 35.285156 27.480469 34.902344 26.902344 34.183594 C 26.175781 33.289062 25.777344 32.246094 25.589844 31.132812 C 24.964844 27.390625 25.320312 23.675781 25.90625 19.964844 C 25.992188 19.421875 26.113281 18.890625 26.253906 18.363281 C 26.484375 17.484375 26.757812 16.617188 26.980469 15.734375 C 27 15.65625 27.023438 15.574219 27.039062 15.496094 Z M 66.480469 43.085938 C 66.535156 42.820312 66.558594 42.5 66.183594 42.421875 C 65.863281 42.355469 65.742188 42.605469 65.636719 42.84375 C 65.597656 42.941406 65.5625 43.042969 65.527344 43.140625 C 64.984375 44.628906 64.1875 45.964844 63.121094 47.132812 C 62.703125 47.589844 62.234375 47.988281 61.515625 48.214844 C 62.71875 45.640625 62.691406 43.035156 62.425781 40.40625 C 62.382812 39.964844 62.300781 39.523438 62.097656 39.125 C 61.980469 38.886719 61.78125 38.714844 61.496094 38.734375 C 61.234375 38.753906 60.988281 38.839844 60.898438 39.125 C 60.535156 40.296875 59.632812 41.101562 58.917969 42.03125 C 58.789062 42.195312 58.632812 42.402344 58.335938 42.402344 C 58.339844 42.3125 58.335938 42.230469 58.355469 42.152344 C 59.40625 37.972656 58.691406 34.0625 56.511719 30.398438 C 55.289062 28.347656 53.480469 26.703125 52.394531 24.550781 C 52.265625 24.300781 52.03125 24.199219 51.753906 24.257812 C 51.414062 24.324219 51.378906 24.609375 51.308594 24.878906 C 50.886719 26.480469 51.222656 28.023438 51.65625 29.5625 C 52.050781 30.953125 52.542969 32.296875 53.417969 33.507812 C 53.113281 33.5625 52.917969 33.457031 52.730469 33.375 C 52.179688 33.152344 51.675781 32.84375 51.183594 32.515625 C 50.957031 32.363281 50.691406 32.195312 50.449219 32.484375 C 50.230469 32.75 50.433594 32.953125 50.601562 33.148438 C 50.738281 33.308594 50.867188 33.472656 51 33.632812 C 52.074219 34.65625 53.316406 35.167969 54.816406 34.867188 C 55.179688 34.792969 55.507812 34.667969 55.730469 34.351562 C 56.058594 33.882812 55.882812 33.429688 55.308594 33.425781 C 54.847656 33.421875 54.621094 33.1875 54.417969 32.847656 C 53.667969 31.578125 53.296875 30.167969 52.902344 28.765625 C 52.804688 28.417969 52.605469 28.066406 52.75 27.574219 C 53.160156 28.089844 53.507812 28.554688 53.890625 28.996094 C 56.835938 32.40625 57.808594 36.40625 57.429688 40.808594 C 57.378906 41.414062 57.347656 42.050781 57.0625 42.59375 C 56.855469 42.984375 56.707031 43.335938 57.011719 43.699219 C 57.351562 44.09375 57.796875 44.128906 58.289062 43.988281 C 59.234375 43.714844 59.871094 43.050781 60.460938 42.320312 C 60.683594 42.042969 60.878906 41.746094 61.128906 41.402344 C 61.410156 43.621094 61.035156 45.671875 60.507812 47.707031 C 60.464844 47.871094 60.476562 48.160156 60.132812 48.058594 C 59.871094 47.980469 59.632812 48.015625 59.480469 48.292969 C 59.3125 48.601562 59.5 48.820312 59.65625 49.039062 C 59.84375 49.3125 60.125 49.453125 60.433594 49.550781 C 61.289062 49.820312 62.0625 49.589844 62.800781 49.164062 C 64.410156 48.238281 65.25 46.714844 65.957031 45.089844 C 65.996094 45 66.035156 44.910156 66.078125 44.820312 C 66.078125 44.820312 66.074219 44.808594 66.074219 44.808594 C 66.214844 44.234375 66.367188 43.664062 66.480469 43.085938 Z M 28.304688 7.332031 C 32.199219 4.292969 36.652344 2.558594 41.472656 1.703125 C 43.078125 1.417969 44.710938 1.300781 46.328125 1.710938 C 49.070312 2.410156 51.453125 3.761719 53.519531 5.683594 C 55.425781 7.460938 57.617188 8.578125 60.277344 8.316406 C 62.640625 8.085938 64.917969 7.574219 66.003906 5.050781 C 66.082031 4.660156 66.191406 4.273438 66.140625 3.863281 C 66.109375 3.566406 66.144531 3.210938 65.761719 3.164062 C 65.394531 3.121094 65.304688 3.445312 65.203125 3.742188 C 64.933594 4.554688 64.542969 5.292969 63.820312 5.8125 C 61.742188 7.304688 58.257812 7.375 56.121094 5.984375 C 54.925781 5.207031 53.960938 4.144531 52.804688 3.328125 C 50.207031 1.496094 47.417969 0.0078125 44.152344 0.136719 C 37.90625 0.390625 32.324219 2.566406 27.378906 6.382812 C 27.265625 6.472656 27.125 6.558594 27.039062 6.6875 C 26.988281 6.765625 26.957031 6.855469 26.960938 6.964844 C 27.285156 7.738281 27.644531 7.847656 28.304688 7.332031 Z M 37.492188 33.304688 C 36.503906 33.457031 35.769531 33.070312 35.179688 32.320312 C 34.679688 31.6875 34.25 31.011719 33.929688 30.269531 C 33.179688 28.539062 32.75 26.710938 32.296875 24.890625 C 31.65625 22.3125 31.140625 19.699219 30.265625 17.183594 C 30.003906 16.421875 29.699219 15.679688 29.15625 15.070312 C 28.902344 14.78125 28.585938 14.625 28.195312 14.75 C 27.777344 14.882812 27.6875 15.214844 27.710938 15.605469 C 28.355469 16.03125 28.6875 16.675781 28.910156 17.382812 C 29.203125 18.308594 29.507812 19.230469 29.753906 20.167969 C 30.566406 23.25 31.132812 26.394531 32.140625 29.425781 C 32.605469 30.816406 33.191406 32.144531 34.199219 33.242188 C 34.964844 34.082031 35.898438 34.582031 37.066406 34.414062 C 37.652344 34.328125 38.292969 34.242188 38.53125 33.53125 C 38.261719 33.109375 37.84375 33.253906 37.492188 33.304688 Z M 14.808594 36.28125 C 14.597656 36.152344 14.40625 35.996094 14.207031 35.851562 C 12.597656 35.027344 11.816406 33.59375 11.351562 31.941406 C 10.792969 29.96875 11.097656 28.007812 11.511719 26.058594 C 11.613281 25.582031 11.660156 25.140625 10.953125 25.175781 C 10.765625 25.355469 10.597656 25.546875 10.457031 25.75 C 10.222656 26.09375 10.066406 26.480469 10.003906 26.914062 C 9.710938 29.082031 9.542969 31.242188 10.488281 33.316406 C 10.519531 33.382812 10.550781 33.449219 10.570312 33.519531 C 10.59375 33.585938 10.597656 33.660156 10.574219 33.738281 C 10.632812 33.769531 10.683594 33.8125 10.722656 33.859375 C 10.765625 33.90625 10.800781 33.957031 10.832031 34.011719 C 10.894531 34.121094 10.941406 34.242188 11.007812 34.347656 C 11.351562 34.882812 11.746094 35.351562 12.191406 35.742188 C 12.933594 36.398438 13.824219 36.84375 14.871094 37.058594 C 15.203125 36.769531 15.183594 36.515625 14.808594 36.28125 Z M 48.390625 32.726562 C 46.792969 32.628906 45.183594 32.679688 43.597656 32.386719 C 43.121094 32.296875 42.648438 32.175781 42.167969 32.144531 C 41.53125 32.097656 41.292969 32.410156 41.429688 33.027344 C 41.667969 33.320312 41.992188 33.460938 42.351562 33.539062 C 43.15625 33.714844 43.964844 33.816406 44.769531 33.847656 C 45.039062 33.859375 45.308594 33.863281 45.574219 33.859375 C 45.875 33.855469 46.171875 33.839844 46.472656 33.820312 C 47.246094 33.761719 48.023438 33.652344 48.796875 33.488281 C 49.066406 32.917969 49 32.761719 48.390625 32.726562 Z M 47.90625 30.027344 C 47.441406 29.59375 46.96875 29.175781 46.597656 28.652344 C 45.28125 26.789062 44.472656 24.671875 43.578125 22.601562 C 43.144531 21.597656 42.769531 20.5625 42.355469 19.546875 C 42.234375 19.25 42.0625 18.9375 41.671875 19.003906 C 41.238281 19.082031 41.308594 19.453125 41.320312 19.769531 C 41.34375 20.472656 41.488281 21.15625 41.71875 21.816406 C 42.035156 22.726562 42.386719 23.628906 42.726562 24.53125 C 43.199219 25.1875 43.464844 25.949219 43.835938 26.652344 C 44.671875 28.242188 45.667969 29.6875 47.164062 30.730469 C 47.195312 30.738281 47.222656 30.746094 47.253906 30.757812 C 47.304688 30.769531 47.355469 30.785156 47.398438 30.808594 C 47.683594 30.941406 48 31.164062 48.242188 30.796875 C 48.488281 30.417969 48.128906 30.234375 47.90625 30.027344 Z M 37.359375 20.953125 C 37.082031 20.046875 36.828125 19.132812 36.554688 18.222656 C 36.476562 17.957031 36.363281 17.671875 36.011719 17.71875 C 35.707031 17.757812 35.65625 18.039062 35.613281 18.292969 C 35.597656 18.375 35.589844 18.457031 35.578125 18.542969 C 35.765625 20.425781 36.273438 22.226562 36.976562 23.976562 C 37.816406 26.054688 38.855469 28.03125 39.996094 29.957031 C 40.109375 30.109375 40.207031 30.277344 40.34375 30.40625 C 40.613281 30.667969 40.835938 31.226562 41.277344 30.949219 C 41.769531 30.636719 41.292969 30.238281 41.121094 29.921875 C 39.570312 27.054688 38.316406 24.066406 37.359375 20.953125 Z M 37.359375 20.953125 " fill-opacity="1" fill-rule="nonzero"/></g></svg>