<svg xmlns="http://www.w3.org/2000/svg" xmlns:xlink="http://www.w3.org/1999/xlink" width="109" zoomAndPan="magnify" viewBox="0 0 81.75 59.249999" height="79" preserveAspectRatio="xMidYMid meet" version="1.0"><defs><clipPath id="5878d83d31"><path d="M 0.386719 0 L 80.375 0 L 80.375 57.769531 L 0.386719 57.769531 Z M 0.386719 0 " clip-rule="nonzero"/></clipPath><clipPath id="b608039791"><path d="M 3 0 L 80.375 0 L 80.375 57.769531 L 3 57.769531 Z M 3 0 " clip-rule="nonzero"/></clipPath><clipPath id="1a720f6757"><path d="M 0.386719 1 L 80.375 1 L 80.375 51 L 0.386719 51 Z M 0.386719 1 " clip-rule="nonzero"/></clipPath><clipPath id="7c94f7153a"><path d="M 0.386719 0 L 80.375 0 L 80.375 57.769531 L 0.386719 57.769531 Z M 0.386719 0 " clip-rule="nonzero"/></clipPath><clipPath id="462c9e3815"><path d="M 3 0 L 80.375 0 L 80.375 57.769531 L 3 57.769531 Z M 3 0 " clip-rule="nonzero"/></clipPath><clipPath id="d5d958b8c9"><path d="M 0.386719 1 L 80.375 1 L 80.375 51 L 0.386719 51 Z M 0.386719 1 " clip-rule="nonzero"/></clipPath></defs><path fill="#000000" d="M 3.789062 47.1875 C 3.664062 47.171875 3.582031 47.164062 3.546875 47.160156 C 3.582031 47.167969 3.664062 47.1875 3.789062 47.1875 Z M 3.789062 47.1875 " fill-opacity="1" fill-rule="nonzero"/><g clip-path="url(#5878d83d31)"><path fill="#000000" d="M 76.882812 34.148438 C 76.90625 34.132812 76.929688 34.109375 76.945312 34.082031 C 77.015625 33.96875 76.980469 33.816406 76.867188 33.746094 C 76.148438 33.304688 75.515625 31.242188 75.007812 29.585938 C 74.824219 28.984375 74.648438 28.417969 74.476562 27.933594 C 74.3125 27.472656 74.089844 26.980469 73.839844 26.496094 C 74.296875 26.46875 75.792969 26.289062 76.484375 25.152344 C 76.503906 25.15625 76.523438 25.164062 76.546875 25.167969 C 76.566406 25.171875 76.582031 25.175781 76.601562 25.175781 C 76.714844 25.175781 76.816406 25.097656 76.839844 24.988281 C 76.871094 24.855469 76.792969 24.722656 76.660156 24.691406 C 74.714844 24.230469 72.902344 21.398438 72.128906 20.1875 L 72.089844 20.128906 C 71.96875 19.945312 71.855469 19.753906 71.738281 19.566406 C 72.414062 19.386719 74.589844 18.664062 75.597656 16.585938 C 75.691406 16.542969 75.777344 16.5 75.871094 16.453125 C 75.988281 16.386719 76.035156 16.242188 75.972656 16.121094 C 75.90625 16 75.761719 15.953125 75.640625 16.019531 C 71.863281 18.023438 68.671875 13.914062 68.535156 13.738281 C 68.527344 13.730469 68.519531 13.71875 68.507812 13.710938 C 68.484375 13.6875 66.058594 11.378906 61.542969 7.441406 C 57.25 3.691406 53.5625 3.953125 52.964844 4.027344 C 52.402344 3.761719 48.695312 2.132812 43.808594 2.679688 C 38.863281 3.234375 37.265625 0.304688 37.199219 0.179688 C 37.136719 0.0585938 36.992188 0.0117188 36.871094 0.0742188 C 36.75 0.136719 36.703125 0.28125 36.765625 0.402344 C 36.785156 0.4375 36.914062 0.679688 37.191406 1.011719 L 37.867188 3.375 C 35.957031 3.300781 33.164062 3.460938 29.945312 4.484375 C 28.742188 4.867188 27.652344 5.234375 26.601562 5.589844 C 22.667969 6.921875 19.820312 7.882812 17.617188 7.1875 C 17.488281 7.144531 17.351562 7.21875 17.3125 7.34375 C 17.269531 7.472656 17.339844 7.613281 17.46875 7.652344 C 17.617188 7.699219 17.765625 7.738281 17.914062 7.769531 L 19.628906 9.394531 C 18.578125 9.546875 17.148438 9.886719 15.703125 10.636719 C 15.585938 10.699219 15.539062 10.839844 15.59375 10.953125 C 15.433594 11.027344 15.28125 11.101562 15.136719 11.179688 C 14.859375 11.324219 14.609375 11.480469 14.398438 11.640625 C 13.371094 12.433594 11.664062 12.1875 10.613281 11.921875 C 10.460938 11.882812 10.324219 11.84375 10.203125 11.808594 C 9.914062 11.722656 9.722656 11.65625 9.695312 11.644531 C 9.703125 11.730469 10.210938 14.410156 12.703125 14.300781 C 11.320312 14.972656 9 16.511719 7.492188 19.742188 C 6.539062 21.792969 6.222656 23.996094 5.914062 26.132812 C 5.527344 28.851562 5.160156 31.417969 3.449219 33.050781 C 3.351562 33.144531 3.347656 33.300781 3.441406 33.398438 C 3.449219 33.40625 3.453125 33.410156 3.460938 33.414062 C 2.378906 34.652344 1.226562 35.183594 0.386719 35.078125 C 0.386719 35.078125 4.328125 36.867188 6.507812 34.035156 C 6.792969 36.46875 7.1875 40.671875 6.785156 42.335938 C 6.753906 42.464844 6.835938 42.597656 6.964844 42.628906 C 6.976562 42.632812 6.988281 42.632812 7 42.632812 C 6.898438 43.519531 6.71875 44.296875 6.425781 44.859375 C 6.304688 45.097656 6.175781 45.3125 6.050781 45.507812 C 5.109375 46.976562 4.222656 47.183594 3.796875 47.183594 C 4.625 47.269531 7.175781 47.429688 8.480469 46.429688 C 8.480469 46.429688 11.742188 55.851562 15.121094 58.023438 C 15.121094 58.023438 15.019531 54.5 15.113281 50.628906 C 15.191406 47.335938 15.414062 43.789062 15.96875 41.957031 L 17.539062 43.53125 C 17.539062 43.53125 15.484375 39.664062 15.847656 36.527344 L 16.917969 37.109375 L 16.929688 37.269531 C 16.941406 37.394531 17.046875 37.492188 17.175781 37.492188 C 17.179688 37.492188 17.1875 37.492188 17.195312 37.492188 C 17.328125 37.480469 17.429688 37.363281 17.417969 37.230469 L 17.003906 32.15625 C 16.992188 32.027344 16.886719 31.933594 16.757812 31.933594 C 16.753906 31.5 16.769531 31.121094 16.8125 30.847656 L 18.699219 32.417969 C 18.710938 32.511719 18.730469 32.605469 18.746094 32.703125 C 18.769531 32.820312 18.871094 32.902344 18.988281 32.902344 C 19.003906 32.902344 19.019531 32.902344 19.035156 32.898438 C 19.167969 32.875 19.253906 32.746094 19.230469 32.613281 C 18.753906 30.09375 19.398438 28.25 19.890625 27.28125 L 21.953125 29.5625 L 21.910156 29.648438 C 21.851562 29.769531 21.898438 29.917969 22.019531 29.976562 C 22.054688 29.996094 22.09375 30.003906 22.128906 30.003906 C 22.222656 30.003906 22.308594 29.957031 22.351562 29.867188 L 24.199219 26.167969 C 24.261719 26.046875 24.210938 25.902344 24.089844 25.839844 L 24.34375 25.332031 L 25.40625 27.917969 C 25.445312 28.015625 25.535156 28.070312 25.632812 28.070312 C 25.664062 28.070312 25.695312 28.066406 25.726562 28.054688 C 25.851562 28.003906 25.914062 27.859375 25.859375 27.734375 L 25.828125 27.65625 C 26.261719 27.253906 27.246094 26.191406 26.964844 25.046875 C 26.964844 25.046875 27.117188 25.09375 27.363281 25.179688 C 27.359375 25.195312 27.355469 25.210938 27.351562 25.230469 C 27.335938 25.363281 27.433594 25.484375 27.566406 25.5 C 29.71875 25.761719 31.097656 27.59375 31.113281 27.609375 C 31.160156 27.675781 31.234375 27.707031 31.308594 27.707031 C 31.359375 27.707031 31.410156 27.695312 31.457031 27.660156 C 31.5625 27.582031 31.585938 27.425781 31.507812 27.320312 C 31.5 27.308594 31.460938 27.257812 31.402344 27.1875 C 31.585938 26.613281 31.953125 25.253906 31.671875 24.320312 C 31.660156 24.28125 31.652344 24.246094 31.640625 24.210938 C 34.8125 26.4375 34.570312 28.25 34.570312 28.269531 C 34.554688 28.355469 34.589844 28.445312 34.65625 28.5 C 34.699219 28.535156 34.753906 28.554688 34.8125 28.554688 C 34.839844 28.554688 34.871094 28.550781 34.898438 28.539062 C 36.28125 28.003906 37.195312 27.210938 37.617188 26.1875 C 37.730469 25.917969 37.800781 25.648438 37.839844 25.394531 C 38.414062 26.511719 39.75 29.4375 39.335938 31.882812 C 39.285156 31.902344 39.238281 31.925781 39.1875 31.949219 C 39.0625 32 39 32.144531 39.054688 32.269531 C 39.09375 32.363281 39.183594 32.417969 39.28125 32.417969 C 39.3125 32.417969 39.34375 32.414062 39.375 32.402344 C 41.523438 31.511719 42.957031 30.214844 43.636719 28.546875 C 43.988281 27.679688 44.09375 26.832031 44.078125 26.09375 C 44.164062 26.242188 44.257812 26.417969 44.359375 26.609375 C 44.34375 26.613281 44.332031 26.625 44.316406 26.632812 C 44.210938 26.714844 44.191406 26.871094 44.277344 26.976562 C 45.378906 28.398438 44.960938 30.410156 44.957031 30.429688 C 44.933594 30.53125 44.976562 30.636719 45.066406 30.691406 C 45.105469 30.714844 45.152344 30.726562 45.195312 30.726562 C 45.25 30.726562 45.304688 30.710938 45.347656 30.675781 C 48.433594 28.203125 49.761719 26.410156 50.253906 25.148438 C 50.832031 25.738281 52.257812 27.378906 51.476562 28.546875 L 54.265625 25.066406 C 54.925781 25.765625 55.871094 27.035156 55.824219 28.539062 C 55.816406 28.675781 55.925781 28.789062 56.058594 28.792969 C 56.0625 28.792969 56.066406 28.792969 56.070312 28.792969 C 56.199219 28.792969 56.308594 28.6875 56.3125 28.554688 C 56.316406 28.480469 56.316406 28.40625 56.3125 28.335938 L 59.386719 25.699219 L 61.148438 30.683594 C 61.183594 30.785156 61.277344 30.847656 61.378906 30.847656 C 61.410156 30.847656 61.433594 30.84375 61.460938 30.832031 C 61.589844 30.789062 61.65625 30.648438 61.613281 30.519531 L 61.527344 30.28125 L 62.832031 27.46875 C 63.535156 28.730469 64.527344 31.261719 63.796875 34.65625 C 63.769531 34.789062 63.855469 34.917969 63.988281 34.949219 C 64.003906 34.949219 64.019531 34.953125 64.039062 34.953125 C 64.152344 34.953125 64.253906 34.875 64.277344 34.757812 C 64.296875 34.667969 64.316406 34.578125 64.332031 34.488281 L 65.738281 33.433594 C 65.652344 34.910156 65.285156 39.28125 63.921875 41.640625 C 63.863281 41.742188 63.886719 41.867188 63.972656 41.945312 C 64.019531 41.988281 64.078125 42.007812 64.136719 42.007812 C 64.1875 42.007812 64.238281 41.992188 64.28125 41.960938 L 66.816406 40.085938 C 66.921875 40.003906 66.945312 39.851562 66.867188 39.742188 L 67.300781 39.421875 C 67.300781 39.421875 67.609375 44.03125 67.347656 48.804688 C 67.179688 51.945312 66.765625 55.15625 65.855469 57.167969 C 66.054688 57.042969 72.394531 52.933594 73.824219 44.734375 L 76.117188 46.90625 C 76.117188 46.90625 77.445312 40.144531 75.636719 37.007812 C 75.757812 37.066406 79.074219 38.71875 80.410156 36.183594 C 80.472656 36.066406 80.53125 35.933594 80.585938 35.792969 C 80.585938 35.804688 78.613281 36.3125 76.882812 34.148438 Z M 76.882812 34.148438 " fill-opacity="1" fill-rule="nonzero"/></g><g clip-path="url(#b608039791)"><path fill="#000000" d="M 24.410156 24.203125 L 25.828125 27.660156 L 25.859375 27.738281 C 25.910156 27.859375 25.851562 28.003906 25.726562 28.054688 C 25.695312 28.070312 25.664062 28.074219 25.632812 28.074219 C 25.535156 28.074219 25.441406 28.015625 25.40625 27.921875 L 24.34375 25.335938 L 23.953125 24.390625 C 23.902344 24.265625 23.960938 24.121094 24.085938 24.070312 C 24.214844 24.019531 24.355469 24.078125 24.410156 24.203125 Z M 23.757812 25.953125 L 21.953125 29.570312 L 21.910156 29.652344 C 21.847656 29.773438 21.898438 29.921875 22.019531 29.984375 C 22.054688 30 22.089844 30.007812 22.128906 30.007812 C 22.21875 30.007812 22.304688 29.960938 22.347656 29.875 L 24.199219 26.171875 C 24.257812 26.050781 24.210938 25.90625 24.089844 25.847656 C 23.96875 25.785156 23.820312 25.832031 23.757812 25.953125 Z M 37.617188 23.449219 C 37.5625 23.324219 37.417969 23.269531 37.292969 23.320312 C 37.167969 23.375 37.113281 23.519531 37.167969 23.644531 C 37.171875 23.65625 37.664062 24.800781 37.164062 26.003906 C 36.828125 26.816406 36.117188 27.46875 35.054688 27.945312 C 34.980469 27.160156 34.425781 25.34375 31.195312 23.339844 C 31.082031 23.265625 30.929688 23.300781 30.859375 23.417969 C 30.785156 23.53125 30.824219 23.683594 30.9375 23.753906 C 31.1875 23.910156 31.421875 24.066406 31.636719 24.214844 C 34.8125 26.4375 34.566406 28.253906 34.566406 28.269531 C 34.550781 28.359375 34.585938 28.445312 34.652344 28.503906 C 34.695312 28.539062 34.753906 28.558594 34.808594 28.558594 C 34.835938 28.558594 34.867188 28.554688 34.894531 28.542969 C 36.277344 28.003906 37.191406 27.214844 37.617188 26.191406 C 37.730469 25.917969 37.796875 25.652344 37.835938 25.394531 C 38 24.339844 37.636719 23.492188 37.617188 23.449219 Z M 20.328125 26.175781 C 20.226562 26.089844 20.070312 26.101562 19.984375 26.207031 C 19.90625 26.304688 18.078125 28.554688 18.699219 32.417969 C 18.710938 32.515625 18.730469 32.609375 18.746094 32.707031 C 18.769531 32.824219 18.871094 32.90625 18.988281 32.90625 C 19.003906 32.90625 19.019531 32.902344 19.035156 32.902344 C 19.167969 32.875 19.253906 32.75 19.230469 32.613281 C 18.753906 30.097656 19.398438 28.25 19.890625 27.285156 C 20.144531 26.792969 20.359375 26.527344 20.363281 26.519531 C 20.449219 26.417969 20.433594 26.261719 20.328125 26.175781 Z M 27.621094 25.015625 C 27.503906 25 27.398438 25.074219 27.363281 25.179688 C 27.355469 25.199219 27.351562 25.214844 27.351562 25.230469 C 27.335938 25.367188 27.429688 25.488281 27.566406 25.503906 C 29.714844 25.765625 31.097656 27.59375 31.109375 27.613281 C 31.160156 27.679688 31.234375 27.710938 31.308594 27.710938 C 31.359375 27.710938 31.410156 27.695312 31.453125 27.664062 C 31.5625 27.585938 31.585938 27.429688 31.503906 27.320312 C 31.496094 27.308594 31.460938 27.261719 31.402344 27.191406 C 31.027344 26.738281 29.664062 25.261719 27.621094 25.015625 Z M 7.261719 42.449219 C 7.863281 39.96875 6.8125 32.464844 6.765625 32.144531 C 6.746094 32.011719 6.621094 31.914062 6.488281 31.9375 C 6.355469 31.957031 6.261719 32.078125 6.28125 32.214844 C 6.285156 32.238281 6.386719 32.964844 6.511719 34.035156 C 6.792969 36.472656 7.1875 40.671875 6.785156 42.335938 C 6.753906 42.46875 6.835938 42.601562 6.96875 42.632812 C 6.980469 42.632812 6.988281 42.632812 7 42.632812 C 7.007812 42.632812 7.015625 42.636719 7.023438 42.636719 C 7.132812 42.636719 7.234375 42.5625 7.261719 42.449219 Z M 8.652344 42.394531 C 8.433594 44.027344 7.117188 44.992188 6.054688 45.507812 C 5.113281 46.976562 4.222656 47.1875 3.796875 47.1875 C 4.628906 47.273438 7.179688 47.433594 8.480469 46.429688 C 8.480469 46.429688 11.742188 55.851562 15.125 58.027344 C 15.125 58.027344 15.019531 54.5 15.113281 50.628906 C 10.632812 48.585938 8.652344 42.394531 8.652344 42.394531 Z M 16.515625 32.199219 L 16.917969 37.109375 L 16.929688 37.273438 C 16.941406 37.398438 17.046875 37.496094 17.175781 37.496094 C 17.179688 37.496094 17.1875 37.496094 17.195312 37.496094 C 17.328125 37.484375 17.429688 37.367188 17.417969 37.230469 L 17.003906 32.160156 C 16.992188 32.03125 16.886719 31.933594 16.757812 31.933594 C 16.75 31.933594 16.746094 31.933594 16.738281 31.933594 C 16.605469 31.945312 16.503906 32.0625 16.515625 32.199219 Z M 62.625 26.265625 C 62.539062 26.164062 62.382812 26.152344 62.28125 26.238281 C 62.175781 26.328125 62.164062 26.480469 62.25 26.585938 C 62.257812 26.59375 62.515625 26.90625 62.832031 27.476562 C 63.535156 28.738281 64.527344 31.269531 63.796875 34.664062 C 63.769531 34.796875 63.855469 34.925781 63.988281 34.957031 C 64.003906 34.960938 64.019531 34.960938 64.039062 34.960938 C 64.152344 34.960938 64.253906 34.882812 64.277344 34.765625 C 64.296875 34.675781 64.316406 34.585938 64.332031 34.496094 C 65.292969 29.488281 62.738281 26.398438 62.625 26.265625 Z M 66.523438 39.699219 L 64.796875 40.976562 C 66.089844 37.886719 66.246094 33.171875 66.253906 32.949219 C 66.257812 32.8125 66.148438 32.699219 66.015625 32.699219 C 65.882812 32.707031 65.765625 32.800781 65.761719 32.933594 C 65.761719 32.945312 65.757812 33.128906 65.738281 33.441406 C 65.652344 34.917969 65.285156 39.289062 63.921875 41.648438 C 63.863281 41.75 63.886719 41.875 63.972656 41.953125 C 64.019531 41.996094 64.078125 42.015625 64.136719 42.015625 C 64.1875 42.015625 64.238281 42 64.28125 41.96875 L 66.816406 40.09375 C 66.921875 40.011719 66.945312 39.859375 66.867188 39.75 C 66.785156 39.640625 66.632812 39.617188 66.523438 39.699219 Z M 3.785156 33.40625 C 5.617188 31.65625 5.996094 29.007812 6.398438 26.203125 C 6.699219 24.105469 7.007812 21.9375 7.933594 19.953125 C 9.484375 16.625 11.992188 15.160156 13.230469 14.609375 C 13.679688 14.410156 13.964844 14.332031 13.976562 14.328125 C 14.105469 14.296875 14.183594 14.160156 14.148438 14.03125 C 14.113281 13.898438 13.980469 13.820312 13.847656 13.855469 C 13.796875 13.867188 13.386719 13.980469 12.78125 14.265625 C 12.753906 14.28125 12.726562 14.292969 12.699219 14.308594 C 11.316406 14.976562 8.996094 16.515625 7.492188 19.746094 C 6.535156 21.796875 6.21875 24.003906 5.914062 26.136719 C 5.523438 28.855469 5.15625 31.421875 3.445312 33.054688 C 3.347656 33.148438 3.34375 33.304688 3.4375 33.402344 C 3.445312 33.410156 3.449219 33.414062 3.460938 33.421875 C 3.503906 33.457031 3.558594 33.480469 3.617188 33.480469 C 3.675781 33.476562 3.738281 33.453125 3.785156 33.40625 Z M 73.269531 34.128906 C 73.269531 34.128906 73.269531 34.128906 74.523438 36.445312 C 75.773438 38.761719 74.523438 42.832031 74.523438 42.832031 C 73.707031 42.019531 71.265625 41.773438 71.265625 41.773438 C 70.839844 44.921875 68.820312 47.390625 67.347656 48.8125 C 67.179688 51.949219 66.761719 55.164062 65.851562 57.175781 C 66.050781 57.050781 72.394531 52.941406 73.824219 44.738281 L 76.117188 46.914062 C 76.117188 46.914062 77.441406 40.148438 75.636719 37.011719 C 75.753906 37.070312 79.074219 38.722656 80.410156 36.191406 C 75.945312 36.320312 73.269531 34.128906 73.269531 34.128906 Z M 53.949219 24.105469 C 53.839844 24.023438 53.6875 24.042969 53.605469 24.148438 C 53.523438 24.253906 53.542969 24.410156 53.648438 24.492188 C 53.65625 24.5 53.921875 24.707031 54.265625 25.070312 C 54.925781 25.769531 55.871094 27.042969 55.824219 28.546875 C 55.816406 28.683594 55.925781 28.796875 56.058594 28.800781 C 56.0625 28.800781 56.066406 28.800781 56.070312 28.800781 C 56.199219 28.800781 56.308594 28.695312 56.3125 28.5625 C 56.316406 28.488281 56.316406 28.414062 56.3125 28.339844 C 56.257812 25.917969 54.042969 24.179688 53.949219 24.105469 Z M 59.289062 24.691406 C 59.160156 24.738281 59.09375 24.878906 59.140625 25.007812 L 59.386719 25.707031 L 61.152344 30.691406 C 61.1875 30.792969 61.28125 30.855469 61.382812 30.855469 C 61.410156 30.855469 61.4375 30.851562 61.464844 30.839844 C 61.59375 30.796875 61.660156 30.65625 61.613281 30.527344 L 61.53125 30.289062 L 59.601562 24.84375 C 59.558594 24.714844 59.417969 24.648438 59.289062 24.691406 Z M 26.757812 6.058594 C 27.804688 5.703125 28.890625 5.335938 30.089844 4.957031 C 35.878906 3.117188 40.386719 4.15625 40.429688 4.167969 C 40.5625 4.199219 40.695312 4.117188 40.726562 3.984375 C 40.757812 3.851562 40.675781 3.71875 40.542969 3.6875 C 40.460938 3.667969 39.472656 3.441406 37.867188 3.378906 C 35.953125 3.304688 33.160156 3.464844 29.941406 4.488281 C 28.738281 4.871094 27.652344 5.238281 26.601562 5.59375 C 22.664062 6.925781 19.820312 7.886719 17.617188 7.1875 C 17.488281 7.148438 17.351562 7.21875 17.308594 7.347656 C 17.269531 7.476562 17.339844 7.617188 17.46875 7.65625 C 17.613281 7.703125 17.761719 7.742188 17.914062 7.773438 C 18.339844 7.871094 18.785156 7.914062 19.25 7.914062 C 21.269531 7.914062 23.691406 7.09375 26.757812 6.058594 Z M 43.308594 23.632812 C 43.183594 23.6875 43.125 23.832031 43.179688 23.953125 C 43.1875 23.976562 44.089844 26.144531 43.183594 28.363281 C 42.570312 29.867188 41.277344 31.050781 39.335938 31.886719 C 39.285156 31.90625 39.238281 31.929688 39.1875 31.953125 C 39.0625 32.003906 39 32.148438 39.054688 32.269531 C 39.09375 32.367188 39.183594 32.421875 39.28125 32.421875 C 39.3125 32.421875 39.34375 32.414062 39.375 32.402344 C 41.523438 31.511719 42.957031 30.214844 43.636719 28.546875 C 43.988281 27.683594 44.09375 26.835938 44.078125 26.097656 C 44.050781 24.78125 43.652344 23.820312 43.628906 23.761719 C 43.578125 23.636719 43.433594 23.582031 43.308594 23.632812 Z M 50.503906 23.855469 C 50.464844 22.929688 49.886719 22.542969 49.863281 22.527344 C 49.75 22.453125 49.601562 22.484375 49.527344 22.59375 C 49.453125 22.707031 49.480469 22.859375 49.59375 22.933594 C 49.609375 22.945312 49.992188 23.21875 50.019531 23.898438 C 50.054688 24.929688 49.289062 26.796875 45.519531 29.910156 C 45.574219 29.128906 45.515625 27.777344 44.664062 26.679688 C 44.59375 26.585938 44.464844 26.558594 44.359375 26.613281 C 44.347656 26.617188 44.335938 26.625 44.320312 26.636719 C 44.214844 26.71875 44.195312 26.875 44.277344 26.980469 C 45.382812 28.402344 44.960938 30.414062 44.960938 30.433594 C 44.9375 30.535156 44.980469 30.640625 45.070312 30.695312 C 45.109375 30.71875 45.15625 30.730469 45.199219 30.730469 C 45.253906 30.730469 45.308594 30.714844 45.351562 30.675781 C 48.4375 28.207031 49.765625 26.410156 50.257812 25.152344 C 50.460938 24.632812 50.523438 24.203125 50.503906 23.855469 Z M 70.167969 17.363281 C 70.050781 17.425781 70.007812 17.578125 70.074219 17.695312 C 70.082031 17.710938 70.894531 19.175781 71.675781 20.394531 L 71.714844 20.453125 C 72.511719 21.703125 74.371094 24.601562 76.480469 25.152344 C 76.503906 25.15625 76.523438 25.164062 76.542969 25.167969 C 76.5625 25.171875 76.582031 25.175781 76.601562 25.175781 C 76.714844 25.175781 76.8125 25.097656 76.839844 24.988281 C 76.871094 24.855469 76.789062 24.722656 76.65625 24.691406 C 74.710938 24.230469 72.898438 21.398438 72.125 20.1875 L 72.085938 20.128906 C 71.96875 19.941406 71.851562 19.753906 71.734375 19.566406 C 71.089844 18.511719 70.507812 17.46875 70.5 17.457031 C 70.433594 17.339844 70.285156 17.296875 70.167969 17.363281 Z M 71.984375 23.640625 C 71.863281 23.578125 71.714844 23.628906 71.652344 23.75 C 71.597656 23.859375 71.632812 23.988281 71.730469 24.058594 C 71.941406 24.269531 73.378906 26.320312 74.011719 28.101562 C 74.179688 28.574219 74.355469 29.136719 74.535156 29.730469 C 75.125 31.644531 75.730469 33.628906 76.609375 34.164062 C 76.648438 34.191406 76.691406 34.203125 76.734375 34.203125 C 76.789062 34.203125 76.839844 34.183594 76.882812 34.152344 C 76.90625 34.132812 76.929688 34.109375 76.945312 34.085938 C 77.015625 33.96875 76.980469 33.816406 76.867188 33.746094 C 76.148438 33.304688 75.515625 31.246094 75.007812 29.589844 C 74.824219 28.984375 74.648438 28.417969 74.476562 27.9375 C 74.3125 27.476562 74.089844 26.980469 73.839844 26.5 C 73.105469 25.066406 72.167969 23.730469 71.984375 23.640625 Z M 15.597656 10.972656 C 15.640625 11.054688 15.726562 11.105469 15.816406 11.105469 C 15.851562 11.105469 15.890625 11.09375 15.929688 11.074219 C 16.019531 11.027344 16.113281 10.980469 16.207031 10.9375 C 18.523438 9.8125 20.796875 9.765625 21.175781 9.765625 C 21.246094 9.765625 21.234375 9.765625 21.238281 9.765625 C 21.371094 9.765625 21.480469 9.660156 21.484375 9.527344 C 21.484375 9.390625 21.378906 9.277344 21.246094 9.273438 C 21.191406 9.273438 20.5625 9.257812 19.625 9.394531 C 18.578125 9.546875 17.148438 9.886719 15.699219 10.640625 C 15.585938 10.699219 15.539062 10.839844 15.589844 10.957031 C 15.59375 10.960938 15.59375 10.96875 15.597656 10.972656 Z M 43.863281 3.167969 C 48.914062 2.601562 52.777344 4.480469 52.816406 4.5 C 52.863281 4.523438 52.914062 4.53125 52.964844 4.523438 C 53 4.515625 56.796875 3.953125 61.21875 7.8125 C 61.664062 8.199219 62.082031 8.566406 62.484375 8.921875 C 64.621094 10.804688 66.183594 12.226562 67.121094 13.09375 C 67.738281 13.660156 68.085938 13.988281 68.15625 14.054688 C 68.347656 14.300781 70.597656 17.050781 73.546875 17.050781 C 74.199219 17.050781 74.890625 16.914062 75.597656 16.589844 C 75.6875 16.546875 75.773438 16.503906 75.867188 16.457031 C 75.988281 16.390625 76.03125 16.242188 75.96875 16.125 C 75.90625 16.003906 75.757812 15.957031 75.636719 16.023438 C 71.863281 18.027344 68.667969 13.917969 68.53125 13.742188 C 68.523438 13.734375 68.515625 13.722656 68.507812 13.714844 C 68.480469 13.691406 66.054688 11.382812 61.542969 7.441406 C 57.246094 3.695312 53.5625 3.957031 52.960938 4.027344 C 52.398438 3.761719 48.691406 2.136719 43.804688 2.683594 C 38.859375 3.238281 37.261719 0.304688 37.195312 0.179688 C 37.136719 0.0625 36.988281 0.015625 36.867188 0.078125 C 36.746094 0.140625 36.699219 0.285156 36.761719 0.40625 C 36.78125 0.441406 36.910156 0.683594 37.1875 1.015625 C 37.972656 1.957031 39.9375 3.609375 43.863281 3.167969 Z M 43.863281 3.167969 " fill-opacity="1" fill-rule="nonzero"/></g><g clip-path="url(#1a720f6757)"><path fill="#000000" d="M 12.785156 14.265625 C 12.757812 14.277344 12.730469 14.292969 12.703125 14.304688 C 10.210938 14.414062 9.703125 11.730469 9.691406 11.648438 C 9.722656 11.65625 9.910156 11.726562 10.203125 11.8125 C 10.324219 11.847656 10.460938 11.886719 10.609375 11.925781 C 10.460938 11.886719 10.324219 11.847656 10.203125 11.8125 C 10.835938 12.550781 11.683594 13.398438 12.785156 14.265625 Z M 15.589844 10.960938 C 15.433594 11.03125 15.28125 11.105469 15.136719 11.183594 C 15.28125 11.105469 15.433594 11.03125 15.589844 10.960938 Z M 3.789062 47.1875 C 3.664062 47.171875 3.582031 47.164062 3.546875 47.160156 C 3.582031 47.167969 3.664062 47.1875 3.789062 47.1875 Z M 21.246094 9.273438 C 21.382812 9.277344 21.488281 9.390625 21.484375 9.527344 C 21.480469 9.660156 21.371094 9.765625 21.238281 9.765625 C 21.234375 9.765625 21.246094 9.765625 21.175781 9.765625 C 20.792969 9.765625 18.523438 9.816406 16.207031 10.9375 C 25.265625 12.75 41.460938 14.699219 62.488281 8.917969 C 62.085938 8.566406 61.664062 8.195312 61.222656 7.8125 C 56.800781 3.949219 53.003906 4.515625 52.96875 4.519531 C 52.917969 4.527344 52.863281 4.519531 52.820312 4.496094 C 52.78125 4.476562 48.917969 2.597656 43.867188 3.167969 C 39.941406 3.605469 37.976562 1.957031 37.191406 1.011719 L 37.871094 3.375 C 39.476562 3.4375 40.460938 3.667969 40.546875 3.6875 C 40.679688 3.71875 40.761719 3.851562 40.726562 3.980469 C 40.695312 4.113281 40.5625 4.195312 40.433594 4.164062 C 40.386719 4.152344 35.878906 3.113281 30.09375 4.953125 C 28.894531 5.332031 27.808594 5.699219 26.761719 6.054688 C 23.695312 7.09375 21.273438 7.910156 19.253906 7.910156 C 18.789062 7.910156 18.34375 7.863281 17.917969 7.769531 L 19.628906 9.390625 C 20.5625 9.261719 21.191406 9.273438 21.246094 9.273438 Z M 76.882812 34.148438 C 76.839844 34.183594 76.789062 34.199219 76.734375 34.199219 C 76.691406 34.199219 76.648438 34.1875 76.609375 34.164062 C 75.730469 33.625 75.125 31.644531 74.535156 29.730469 C 74.355469 29.132812 74.179688 28.570312 74.011719 28.101562 C 73.378906 26.320312 71.941406 24.269531 71.730469 24.054688 C 71.632812 23.988281 71.597656 23.855469 71.652344 23.75 C 71.714844 23.625 71.859375 23.578125 71.984375 23.636719 C 72.167969 23.730469 73.105469 25.066406 73.839844 26.496094 C 74.292969 26.46875 75.792969 26.289062 76.480469 25.152344 C 74.371094 24.601562 72.511719 21.703125 71.714844 20.453125 L 71.675781 20.394531 C 70.894531 19.175781 70.082031 17.710938 70.074219 17.695312 C 70.007812 17.578125 70.050781 17.425781 70.167969 17.363281 C 70.285156 17.296875 70.433594 17.339844 70.5 17.457031 C 70.507812 17.46875 71.085938 18.515625 71.734375 19.566406 C 72.414062 19.390625 74.589844 18.664062 75.597656 16.585938 C 74.890625 16.914062 74.199219 17.050781 73.546875 17.050781 C 70.597656 17.050781 68.351562 14.296875 68.15625 14.054688 C 68.089844 13.988281 67.738281 13.65625 67.125 13.089844 C 62.375 16.28125 53.078125 20.667969 37.695312 20.828125 C 24.800781 20.960938 17.367188 17.695312 13.230469 14.609375 C 11.992188 15.15625 9.484375 16.625 7.933594 19.953125 C 7.007812 21.9375 6.699219 24.105469 6.398438 26.203125 C 5.996094 29.007812 5.617188 31.65625 3.785156 33.40625 C 3.738281 33.453125 3.675781 33.472656 3.617188 33.472656 C 3.5625 33.472656 3.503906 33.453125 3.460938 33.414062 C 2.378906 34.652344 1.226562 35.183594 0.386719 35.078125 C 0.386719 35.078125 4.328125 36.867188 6.507812 34.035156 C 6.386719 32.964844 6.285156 32.238281 6.28125 32.210938 C 6.261719 32.078125 6.355469 31.953125 6.488281 31.933594 C 6.621094 31.914062 6.746094 32.007812 6.765625 32.144531 C 6.808594 32.460938 7.859375 39.964844 7.261719 42.449219 C 7.234375 42.5625 7.132812 42.636719 7.023438 42.636719 C 7.015625 42.636719 7.007812 42.632812 7 42.632812 C 6.898438 43.519531 6.71875 44.296875 6.425781 44.859375 C 6.304688 45.097656 6.175781 45.3125 6.050781 45.507812 C 7.117188 44.988281 8.433594 44.027344 8.652344 42.390625 C 8.652344 42.390625 10.632812 48.585938 15.113281 50.628906 C 15.191406 47.335938 15.414062 43.792969 15.96875 41.960938 L 17.539062 43.53125 C 17.539062 43.53125 15.484375 39.664062 15.847656 36.527344 L 16.917969 37.109375 L 16.515625 32.199219 C 16.503906 32.0625 16.605469 31.945312 16.738281 31.933594 C 16.746094 31.933594 16.75 31.933594 16.757812 31.933594 C 16.753906 31.5 16.769531 31.125 16.8125 30.847656 L 18.699219 32.417969 C 18.078125 28.554688 19.90625 26.304688 19.984375 26.207031 C 20.074219 26.101562 20.226562 26.089844 20.328125 26.175781 C 20.433594 26.261719 20.449219 26.417969 20.363281 26.519531 C 20.355469 26.527344 20.144531 26.792969 19.890625 27.285156 L 21.953125 29.566406 L 23.761719 25.953125 C 23.820312 25.832031 23.96875 25.78125 24.089844 25.84375 L 24.34375 25.335938 L 23.957031 24.386719 C 23.90625 24.261719 23.964844 24.117188 24.089844 24.066406 C 24.214844 24.015625 24.359375 24.074219 24.410156 24.199219 L 25.828125 27.65625 C 26.261719 27.253906 27.246094 26.191406 26.960938 25.046875 C 26.960938 25.046875 27.113281 25.09375 27.363281 25.179688 C 27.398438 25.070312 27.503906 25 27.621094 25.015625 C 29.664062 25.261719 31.027344 26.734375 31.398438 27.1875 C 31.582031 26.613281 31.949219 25.253906 31.667969 24.320312 C 31.65625 24.28125 31.648438 24.246094 31.636719 24.210938 C 31.421875 24.058594 31.1875 23.90625 30.9375 23.75 C 30.824219 23.679688 30.785156 23.527344 30.859375 23.414062 C 30.929688 23.296875 31.082031 23.261719 31.195312 23.335938 C 34.425781 25.339844 34.980469 27.15625 35.054688 27.941406 C 36.117188 27.464844 36.828125 26.8125 37.164062 26 C 37.664062 24.796875 37.171875 23.652344 37.167969 23.640625 C 37.113281 23.515625 37.167969 23.371094 37.292969 23.320312 C 37.417969 23.265625 37.5625 23.320312 37.617188 23.445312 C 37.636719 23.488281 37.996094 24.339844 37.839844 25.394531 C 38.414062 26.511719 39.75 29.4375 39.335938 31.882812 C 41.277344 31.046875 42.570312 29.863281 43.183594 28.363281 C 44.089844 26.140625 43.1875 23.972656 43.179688 23.953125 C 43.125 23.828125 43.183594 23.683594 43.308594 23.628906 C 43.433594 23.578125 43.578125 23.636719 43.628906 23.757812 C 43.65625 23.820312 44.054688 24.78125 44.082031 26.09375 C 44.164062 26.246094 44.257812 26.417969 44.359375 26.609375 C 44.460938 26.558594 44.589844 26.582031 44.664062 26.679688 C 45.515625 27.773438 45.574219 29.128906 45.519531 29.90625 C 49.289062 26.796875 50.054688 24.925781 50.015625 23.898438 C 49.992188 23.21875 49.605469 22.945312 49.589844 22.933594 C 49.480469 22.855469 49.453125 22.707031 49.523438 22.59375 C 49.601562 22.480469 49.75 22.449219 49.859375 22.523438 C 49.886719 22.542969 50.460938 22.929688 50.503906 23.855469 C 50.519531 24.203125 50.457031 24.632812 50.253906 25.152344 C 50.832031 25.742188 52.253906 27.386719 51.476562 28.554688 L 54.265625 25.070312 C 53.921875 24.707031 53.65625 24.496094 53.644531 24.492188 C 53.539062 24.410156 53.519531 24.253906 53.601562 24.148438 C 53.6875 24.039062 53.839844 24.019531 53.945312 24.101562 C 54.042969 24.179688 56.257812 25.917969 56.3125 28.339844 L 59.386719 25.707031 L 59.140625 25.003906 C 59.09375 24.875 59.160156 24.738281 59.289062 24.691406 C 59.414062 24.648438 59.558594 24.710938 59.601562 24.839844 L 61.527344 30.289062 L 62.832031 27.472656 C 62.515625 26.902344 62.257812 26.59375 62.25 26.582031 C 62.164062 26.480469 62.175781 26.328125 62.28125 26.238281 C 62.382812 26.152344 62.535156 26.164062 62.625 26.265625 C 62.738281 26.398438 65.292969 29.488281 64.332031 34.492188 L 65.738281 33.4375 C 65.757812 33.128906 65.761719 32.941406 65.761719 32.933594 C 65.765625 32.796875 65.882812 32.703125 66.015625 32.695312 C 66.152344 32.699219 66.257812 32.8125 66.253906 32.945312 C 66.246094 33.167969 66.089844 37.886719 64.796875 40.972656 L 66.523438 39.695312 C 66.632812 39.613281 66.785156 39.636719 66.867188 39.746094 L 67.300781 39.425781 C 67.300781 39.425781 67.609375 44.035156 67.347656 48.8125 C 68.820312 47.390625 70.839844 44.921875 71.269531 41.769531 C 71.269531 41.769531 73.710938 42.015625 74.523438 42.828125 C 74.523438 42.828125 75.777344 38.757812 74.523438 36.445312 C 73.273438 34.125 73.273438 34.125 73.273438 34.125 C 73.273438 34.125 75.945312 36.320312 80.414062 36.191406 C 80.476562 36.070312 80.535156 35.941406 80.589844 35.800781 C 80.585938 35.804688 78.613281 36.3125 76.882812 34.148438 Z M 76.882812 34.148438 " fill-opacity="1" fill-rule="nonzero"/></g><path fill="#000000" d="M 3.789062 47.1875 C 3.664062 47.171875 3.582031 47.164062 3.546875 47.160156 C 3.582031 47.167969 3.664062 47.1875 3.789062 47.1875 Z M 3.789062 47.1875 " fill-opacity="1" fill-rule="nonzero"/><g clip-path="url(#7c94f7153a)"><path fill="#000000" d="M 76.882812 34.148438 C 76.90625 34.132812 76.929688 34.109375 76.945312 34.082031 C 77.015625 33.96875 76.980469 33.816406 76.867188 33.746094 C 76.148438 33.304688 75.515625 31.242188 75.007812 29.585938 C 74.824219 28.984375 74.648438 28.417969 74.476562 27.933594 C 74.3125 27.472656 74.089844 26.980469 73.839844 26.496094 C 74.296875 26.46875 75.792969 26.289062 76.484375 25.152344 C 76.503906 25.15625 76.523438 25.164062 76.546875 25.167969 C 76.566406 25.171875 76.582031 25.175781 76.601562 25.175781 C 76.714844 25.175781 76.816406 25.097656 76.839844 24.988281 C 76.871094 24.855469 76.792969 24.722656 76.660156 24.691406 C 74.714844 24.230469 72.902344 21.398438 72.128906 20.1875 L 72.089844 20.128906 C 71.96875 19.945312 71.855469 19.753906 71.738281 19.566406 C 72.414062 19.386719 74.589844 18.664062 75.597656 16.585938 C 75.691406 16.542969 75.777344 16.5 75.871094 16.453125 C 75.988281 16.386719 76.035156 16.242188 75.972656 16.121094 C 75.90625 16 75.761719 15.953125 75.640625 16.019531 C 71.863281 18.023438 68.671875 13.914062 68.535156 13.738281 C 68.527344 13.730469 68.519531 13.71875 68.507812 13.710938 C 68.484375 13.6875 66.058594 11.378906 61.542969 7.441406 C 57.25 3.691406 53.5625 3.953125 52.964844 4.027344 C 52.402344 3.761719 48.695312 2.132812 43.808594 2.679688 C 38.863281 3.234375 37.265625 0.304688 37.199219 0.179688 C 37.136719 0.0585938 36.992188 0.0117188 36.871094 0.0742188 C 36.75 0.136719 36.703125 0.28125 36.765625 0.402344 C 36.785156 0.4375 36.914062 0.679688 37.191406 1.011719 L 37.867188 3.375 C 35.957031 3.300781 33.164062 3.460938 29.945312 4.484375 C 28.742188 4.867188 27.652344 5.234375 26.601562 5.589844 C 22.667969 6.921875 19.820312 7.882812 17.617188 7.1875 C 17.488281 7.144531 17.351562 7.21875 17.3125 7.34375 C 17.269531 7.472656 17.339844 7.613281 17.46875 7.652344 C 17.617188 7.699219 17.765625 7.738281 17.914062 7.769531 L 19.628906 9.394531 C 18.578125 9.546875 17.148438 9.886719 15.703125 10.636719 C 15.585938 10.699219 15.539062 10.839844 15.59375 10.953125 C 15.433594 11.027344 15.28125 11.101562 15.136719 11.179688 C 14.859375 11.324219 14.609375 11.480469 14.398438 11.640625 C 13.371094 12.433594 11.664062 12.1875 10.613281 11.921875 C 10.460938 11.882812 10.324219 11.84375 10.203125 11.808594 C 9.914062 11.722656 9.722656 11.65625 9.695312 11.644531 C 9.703125 11.730469 10.210938 14.410156 12.703125 14.300781 C 11.320312 14.972656 9 16.511719 7.492188 19.742188 C 6.539062 21.792969 6.222656 23.996094 5.914062 26.132812 C 5.527344 28.851562 5.160156 31.417969 3.449219 33.050781 C 3.351562 33.144531 3.347656 33.300781 3.441406 33.398438 C 3.449219 33.40625 3.453125 33.410156 3.460938 33.414062 C 2.378906 34.652344 1.226562 35.183594 0.386719 35.078125 C 0.386719 35.078125 4.328125 36.867188 6.507812 34.035156 C 6.792969 36.46875 7.1875 40.671875 6.785156 42.335938 C 6.753906 42.464844 6.835938 42.597656 6.964844 42.628906 C 6.976562 42.632812 6.988281 42.632812 7 42.632812 C 6.898438 43.519531 6.71875 44.296875 6.425781 44.859375 C 6.304688 45.097656 6.175781 45.3125 6.050781 45.507812 C 5.109375 46.976562 4.222656 47.183594 3.796875 47.183594 C 4.625 47.269531 7.175781 47.429688 8.480469 46.429688 C 8.480469 46.429688 11.742188 55.851562 15.121094 58.023438 C 15.121094 58.023438 15.019531 54.5 15.113281 50.628906 C 15.191406 47.335938 15.414062 43.789062 15.96875 41.957031 L 17.539062 43.53125 C 17.539062 43.53125 15.484375 39.664062 15.847656 36.527344 L 16.917969 37.109375 L 16.929688 37.269531 C 16.941406 37.394531 17.046875 37.492188 17.175781 37.492188 C 17.179688 37.492188 17.1875 37.492188 17.195312 37.492188 C 17.328125 37.480469 17.429688 37.363281 17.417969 37.230469 L 17.003906 32.15625 C 16.992188 32.027344 16.886719 31.933594 16.757812 31.933594 C 16.753906 31.5 16.769531 31.121094 16.8125 30.847656 L 18.699219 32.417969 C 18.710938 32.511719 18.730469 32.605469 18.746094 32.703125 C 18.769531 32.820312 18.871094 32.902344 18.988281 32.902344 C 19.003906 32.902344 19.019531 32.902344 19.035156 32.898438 C 19.167969 32.875 19.253906 32.746094 19.230469 32.613281 C 18.753906 30.09375 19.398438 28.25 19.890625 27.28125 L 21.953125 29.5625 L 21.910156 29.648438 C 21.851562 29.769531 21.898438 29.917969 22.019531 29.976562 C 22.054688 29.996094 22.09375 30.003906 22.128906 30.003906 C 22.222656 30.003906 22.308594 29.957031 22.351562 29.867188 L 24.199219 26.167969 C 24.261719 26.046875 24.210938 25.902344 24.089844 25.839844 L 24.34375 25.332031 L 25.40625 27.917969 C 25.445312 28.015625 25.535156 28.070312 25.632812 28.070312 C 25.664062 28.070312 25.695312 28.066406 25.726562 28.054688 C 25.851562 28.003906 25.914062 27.859375 25.859375 27.734375 L 25.828125 27.65625 C 26.261719 27.253906 27.246094 26.191406 26.964844 25.046875 C 26.964844 25.046875 27.117188 25.09375 27.363281 25.179688 C 27.359375 25.195312 27.355469 25.210938 27.351562 25.230469 C 27.335938 25.363281 27.433594 25.484375 27.566406 25.5 C 29.71875 25.761719 31.097656 27.59375 31.113281 27.609375 C 31.160156 27.675781 31.234375 27.707031 31.308594 27.707031 C 31.359375 27.707031 31.410156 27.695312 31.457031 27.660156 C 31.5625 27.582031 31.585938 27.425781 31.507812 27.320312 C 31.5 27.308594 31.460938 27.257812 31.402344 27.1875 C 31.585938 26.613281 31.953125 25.253906 31.671875 24.320312 C 31.660156 24.28125 31.652344 24.246094 31.640625 24.210938 C 34.8125 26.4375 34.570312 28.25 34.570312 28.269531 C 34.554688 28.355469 34.589844 28.445312 34.65625 28.5 C 34.699219 28.535156 34.753906 28.554688 34.8125 28.554688 C 34.839844 28.554688 34.871094 28.550781 34.898438 28.539062 C 36.28125 28.003906 37.195312 27.210938 37.617188 26.1875 C 37.730469 25.917969 37.800781 25.648438 37.839844 25.394531 C 38.414062 26.511719 39.75 29.4375 39.335938 31.882812 C 39.285156 31.902344 39.238281 31.925781 39.1875 31.949219 C 39.0625 32 39 32.144531 39.054688 32.269531 C 39.09375 32.363281 39.183594 32.417969 39.28125 32.417969 C 39.3125 32.417969 39.34375 32.414062 39.375 32.402344 C 41.523438 31.511719 42.957031 30.214844 43.636719 28.546875 C 43.988281 27.679688 44.09375 26.832031 44.078125 26.09375 C 44.164062 26.242188 44.257812 26.417969 44.359375 26.609375 C 44.34375 26.613281 44.332031 26.625 44.316406 26.632812 C 44.210938 26.714844 44.191406 26.871094 44.277344 26.976562 C 45.378906 28.398438 44.960938 30.410156 44.957031 30.429688 C 44.933594 30.53125 44.976562 30.636719 45.066406 30.691406 C 45.105469 30.714844 45.152344 30.726562 45.195312 30.726562 C 45.25 30.726562 45.304688 30.710938 45.347656 30.675781 C 48.433594 28.203125 49.761719 26.410156 50.253906 25.148438 C 50.832031 25.738281 52.257812 27.378906 51.476562 28.546875 L 54.265625 25.066406 C 54.925781 25.765625 55.871094 27.035156 55.824219 28.539062 C 55.816406 28.675781 55.925781 28.789062 56.058594 28.792969 C 56.0625 28.792969 56.066406 28.792969 56.070312 28.792969 C 56.199219 28.792969 56.308594 28.6875 56.3125 28.554688 C 56.316406 28.480469 56.316406 28.40625 56.3125 28.335938 L 59.386719 25.699219 L 61.148438 30.683594 C 61.183594 30.785156 61.277344 30.847656 61.378906 30.847656 C 61.410156 30.847656 61.433594 30.84375 61.460938 30.832031 C 61.589844 30.789062 61.65625 30.648438 61.613281 30.519531 L 61.527344 30.28125 L 62.832031 27.46875 C 63.535156 28.730469 64.527344 31.261719 63.796875 34.65625 C 63.769531 34.789062 63.855469 34.917969 63.988281 34.949219 C 64.003906 34.949219 64.019531 34.953125 64.039062 34.953125 C 64.152344 34.953125 64.253906 34.875 64.277344 34.757812 C 64.296875 34.667969 64.316406 34.578125 64.332031 34.488281 L 65.738281 33.433594 C 65.652344 34.910156 65.285156 39.28125 63.921875 41.640625 C 63.863281 41.742188 63.886719 41.867188 63.972656 41.945312 C 64.019531 41.988281 64.078125 42.007812 64.136719 42.007812 C 64.1875 42.007812 64.238281 41.992188 64.28125 41.960938 L 66.816406 40.085938 C 66.921875 40.003906 66.945312 39.851562 66.867188 39.742188 L 67.300781 39.421875 C 67.300781 39.421875 67.609375 44.03125 67.347656 48.804688 C 67.179688 51.945312 66.765625 55.15625 65.855469 57.167969 C 66.054688 57.042969 72.394531 52.933594 73.824219 44.734375 L 76.117188 46.90625 C 76.117188 46.90625 77.445312 40.144531 75.636719 37.007812 C 75.757812 37.066406 79.074219 38.71875 80.410156 36.183594 C 80.472656 36.066406 80.53125 35.933594 80.585938 35.792969 C 80.585938 35.804688 78.613281 36.3125 76.882812 34.148438 Z M 76.882812 34.148438 " fill-opacity="1" fill-rule="nonzero"/></g><g clip-path="url(#462c9e3815)"><path fill="#000000" d="M 24.410156 24.203125 L 25.828125 27.660156 L 25.859375 27.738281 C 25.910156 27.859375 25.851562 28.003906 25.726562 28.054688 C 25.695312 28.070312 25.664062 28.074219 25.632812 28.074219 C 25.535156 28.074219 25.441406 28.015625 25.40625 27.921875 L 24.34375 25.335938 L 23.953125 24.390625 C 23.902344 24.265625 23.960938 24.121094 24.085938 24.070312 C 24.214844 24.019531 24.355469 24.078125 24.410156 24.203125 Z M 23.757812 25.953125 L 21.953125 29.570312 L 21.910156 29.652344 C 21.847656 29.773438 21.898438 29.921875 22.019531 29.984375 C 22.054688 30 22.089844 30.007812 22.128906 30.007812 C 22.21875 30.007812 22.304688 29.960938 22.347656 29.875 L 24.199219 26.171875 C 24.257812 26.050781 24.210938 25.90625 24.089844 25.847656 C 23.96875 25.785156 23.820312 25.832031 23.757812 25.953125 Z M 37.617188 23.449219 C 37.5625 23.324219 37.417969 23.269531 37.292969 23.320312 C 37.167969 23.375 37.113281 23.519531 37.167969 23.644531 C 37.171875 23.65625 37.664062 24.800781 37.164062 26.003906 C 36.828125 26.816406 36.117188 27.46875 35.054688 27.945312 C 34.980469 27.160156 34.425781 25.34375 31.195312 23.339844 C 31.082031 23.265625 30.929688 23.300781 30.859375 23.417969 C 30.785156 23.53125 30.824219 23.683594 30.9375 23.753906 C 31.1875 23.910156 31.421875 24.066406 31.636719 24.214844 C 34.8125 26.4375 34.566406 28.253906 34.566406 28.269531 C 34.550781 28.359375 34.585938 28.445312 34.652344 28.503906 C 34.695312 28.539062 34.753906 28.558594 34.808594 28.558594 C 34.835938 28.558594 34.867188 28.554688 34.894531 28.542969 C 36.277344 28.003906 37.191406 27.214844 37.617188 26.191406 C 37.730469 25.917969 37.796875 25.652344 37.835938 25.394531 C 38 24.339844 37.636719 23.492188 37.617188 23.449219 Z M 20.328125 26.175781 C 20.226562 26.089844 20.070312 26.101562 19.984375 26.207031 C 19.90625 26.304688 18.078125 28.554688 18.699219 32.417969 C 18.710938 32.515625 18.730469 32.609375 18.746094 32.707031 C 18.769531 32.824219 18.871094 32.90625 18.988281 32.90625 C 19.003906 32.90625 19.019531 32.902344 19.035156 32.902344 C 19.167969 32.875 19.253906 32.75 19.230469 32.613281 C 18.753906 30.097656 19.398438 28.25 19.890625 27.285156 C 20.144531 26.792969 20.359375 26.527344 20.363281 26.519531 C 20.449219 26.417969 20.433594 26.261719 20.328125 26.175781 Z M 27.621094 25.015625 C 27.503906 25 27.398438 25.074219 27.363281 25.179688 C 27.355469 25.199219 27.351562 25.214844 27.351562 25.230469 C 27.335938 25.367188 27.429688 25.488281 27.566406 25.503906 C 29.714844 25.765625 31.097656 27.59375 31.109375 27.613281 C 31.160156 27.679688 31.234375 27.710938 31.308594 27.710938 C 31.359375 27.710938 31.410156 27.695312 31.453125 27.664062 C 31.5625 27.585938 31.585938 27.429688 31.503906 27.320312 C 31.496094 27.308594 31.460938 27.261719 31.402344 27.191406 C 31.027344 26.738281 29.664062 25.261719 27.621094 25.015625 Z M 7.261719 42.449219 C 7.863281 39.96875 6.8125 32.464844 6.765625 32.144531 C 6.746094 32.011719 6.621094 31.914062 6.488281 31.9375 C 6.355469 31.957031 6.261719 32.078125 6.28125 32.214844 C 6.285156 32.238281 6.386719 32.964844 6.511719 34.035156 C 6.792969 36.472656 7.1875 40.671875 6.785156 42.335938 C 6.753906 42.46875 6.835938 42.601562 6.96875 42.632812 C 6.980469 42.632812 6.988281 42.632812 7 42.632812 C 7.007812 42.632812 7.015625 42.636719 7.023438 42.636719 C 7.132812 42.636719 7.234375 42.5625 7.261719 42.449219 Z M 8.652344 42.394531 C 8.433594 44.027344 7.117188 44.992188 6.054688 45.507812 C 5.113281 46.976562 4.222656 47.1875 3.796875 47.1875 C 4.628906 47.273438 7.179688 47.433594 8.480469 46.429688 C 8.480469 46.429688 11.742188 55.851562 15.125 58.027344 C 15.125 58.027344 15.019531 54.5 15.113281 50.628906 C 10.632812 48.585938 8.652344 42.394531 8.652344 42.394531 Z M 16.515625 32.199219 L 16.917969 37.109375 L 16.929688 37.273438 C 16.941406 37.398438 17.046875 37.496094 17.175781 37.496094 C 17.179688 37.496094 17.1875 37.496094 17.195312 37.496094 C 17.328125 37.484375 17.429688 37.367188 17.417969 37.230469 L 17.003906 32.160156 C 16.992188 32.03125 16.886719 31.933594 16.757812 31.933594 C 16.75 31.933594 16.746094 31.933594 16.738281 31.933594 C 16.605469 31.945312 16.503906 32.0625 16.515625 32.199219 Z M 62.625 26.265625 C 62.539062 26.164062 62.382812 26.152344 62.28125 26.238281 C 62.175781 26.328125 62.164062 26.480469 62.25 26.585938 C 62.257812 26.59375 62.515625 26.90625 62.832031 27.476562 C 63.535156 28.738281 64.527344 31.269531 63.796875 34.664062 C 63.769531 34.796875 63.855469 34.925781 63.988281 34.957031 C 64.003906 34.960938 64.019531 34.960938 64.039062 34.960938 C 64.152344 34.960938 64.253906 34.882812 64.277344 34.765625 C 64.296875 34.675781 64.316406 34.585938 64.332031 34.496094 C 65.292969 29.488281 62.738281 26.398438 62.625 26.265625 Z M 66.523438 39.699219 L 64.796875 40.976562 C 66.089844 37.886719 66.246094 33.171875 66.253906 32.949219 C 66.257812 32.8125 66.148438 32.699219 66.015625 32.699219 C 65.882812 32.707031 65.765625 32.800781 65.761719 32.933594 C 65.761719 32.945312 65.757812 33.128906 65.738281 33.441406 C 65.652344 34.917969 65.285156 39.289062 63.921875 41.648438 C 63.863281 41.75 63.886719 41.875 63.972656 41.953125 C 64.019531 41.996094 64.078125 42.015625 64.136719 42.015625 C 64.1875 42.015625 64.238281 42 64.28125 41.96875 L 66.816406 40.09375 C 66.921875 40.011719 66.945312 39.859375 66.867188 39.75 C 66.785156 39.640625 66.632812 39.617188 66.523438 39.699219 Z M 3.785156 33.40625 C 5.617188 31.65625 5.996094 29.007812 6.398438 26.203125 C 6.699219 24.105469 7.007812 21.9375 7.933594 19.953125 C 9.484375 16.625 11.992188 15.160156 13.230469 14.609375 C 13.679688 14.410156 13.964844 14.332031 13.976562 14.328125 C 14.105469 14.296875 14.183594 14.160156 14.148438 14.03125 C 14.113281 13.898438 13.980469 13.820312 13.847656 13.855469 C 13.796875 13.867188 13.386719 13.980469 12.78125 14.265625 C 12.753906 14.28125 12.726562 14.292969 12.699219 14.308594 C 11.316406 14.976562 8.996094 16.515625 7.492188 19.746094 C 6.535156 21.796875 6.21875 24.003906 5.914062 26.136719 C 5.523438 28.855469 5.15625 31.421875 3.445312 33.054688 C 3.347656 33.148438 3.34375 33.304688 3.4375 33.402344 C 3.445312 33.410156 3.449219 33.414062 3.460938 33.421875 C 3.503906 33.457031 3.558594 33.480469 3.617188 33.480469 C 3.675781 33.476562 3.738281 33.453125 3.785156 33.40625 Z M 73.269531 34.128906 C 73.269531 34.128906 73.269531 34.128906 74.523438 36.445312 C 75.773438 38.761719 74.523438 42.832031 74.523438 42.832031 C 73.707031 42.019531 71.265625 41.773438 71.265625 41.773438 C 70.839844 44.921875 68.820312 47.390625 67.347656 48.8125 C 67.179688 51.949219 66.761719 55.164062 65.851562 57.175781 C 66.050781 57.050781 72.394531 52.941406 73.824219 44.738281 L 76.117188 46.914062 C 76.117188 46.914062 77.441406 40.148438 75.636719 37.011719 C 75.753906 37.070312 79.074219 38.722656 80.410156 36.191406 C 75.945312 36.320312 73.269531 34.128906 73.269531 34.128906 Z M 53.949219 24.105469 C 53.839844 24.023438 53.6875 24.042969 53.605469 24.148438 C 53.523438 24.253906 53.542969 24.410156 53.648438 24.492188 C 53.65625 24.5 53.921875 24.707031 54.265625 25.070312 C 54.925781 25.769531 55.871094 27.042969 55.824219 28.546875 C 55.816406 28.683594 55.925781 28.796875 56.058594 28.800781 C 56.0625 28.800781 56.066406 28.800781 56.070312 28.800781 C 56.199219 28.800781 56.308594 28.695312 56.3125 28.5625 C 56.316406 28.488281 56.316406 28.414062 56.3125 28.339844 C 56.257812 25.917969 54.042969 24.179688 53.949219 24.105469 Z M 59.289062 24.691406 C 59.160156 24.738281 59.09375 24.878906 59.140625 25.007812 L 59.386719 25.707031 L 61.152344 30.691406 C 61.1875 30.792969 61.28125 30.855469 61.382812 30.855469 C 61.410156 30.855469 61.4375 30.851562 61.464844 30.839844 C 61.59375 30.796875 61.660156 30.65625 61.613281 30.527344 L 61.53125 30.289062 L 59.601562 24.84375 C 59.558594 24.714844 59.417969 24.648438 59.289062 24.691406 Z M 26.757812 6.058594 C 27.804688 5.703125 28.890625 5.335938 30.089844 4.957031 C 35.878906 3.117188 40.386719 4.15625 40.429688 4.167969 C 40.5625 4.199219 40.695312 4.117188 40.726562 3.984375 C 40.757812 3.851562 40.675781 3.71875 40.542969 3.6875 C 40.460938 3.667969 39.472656 3.441406 37.867188 3.378906 C 35.953125 3.304688 33.160156 3.464844 29.941406 4.488281 C 28.738281 4.871094 27.652344 5.238281 26.601562 5.59375 C 22.664062 6.925781 19.820312 7.886719 17.617188 7.1875 C 17.488281 7.148438 17.351562 7.21875 17.308594 7.347656 C 17.269531 7.476562 17.339844 7.617188 17.46875 7.65625 C 17.613281 7.703125 17.761719 7.742188 17.914062 7.773438 C 18.339844 7.871094 18.785156 7.914062 19.25 7.914062 C 21.269531 7.914062 23.691406 7.09375 26.757812 6.058594 Z M 43.308594 23.632812 C 43.183594 23.6875 43.125 23.832031 43.179688 23.953125 C 43.1875 23.976562 44.089844 26.144531 43.183594 28.363281 C 42.570312 29.867188 41.277344 31.050781 39.335938 31.886719 C 39.285156 31.90625 39.238281 31.929688 39.1875 31.953125 C 39.0625 32.003906 39 32.148438 39.054688 32.269531 C 39.09375 32.367188 39.183594 32.421875 39.28125 32.421875 C 39.3125 32.421875 39.34375 32.414062 39.375 32.402344 C 41.523438 31.511719 42.957031 30.214844 43.636719 28.546875 C 43.988281 27.683594 44.09375 26.835938 44.078125 26.097656 C 44.050781 24.78125 43.652344 23.820312 43.628906 23.761719 C 43.578125 23.636719 43.433594 23.582031 43.308594 23.632812 Z M 50.503906 23.855469 C 50.464844 22.929688 49.886719 22.542969 49.863281 22.527344 C 49.75 22.453125 49.601562 22.484375 49.527344 22.59375 C 49.453125 22.707031 49.480469 22.859375 49.59375 22.933594 C 49.609375 22.945312 49.992188 23.21875 50.019531 23.898438 C 50.054688 24.929688 49.289062 26.796875 45.519531 29.910156 C 45.574219 29.128906 45.515625 27.777344 44.664062 26.679688 C 44.59375 26.585938 44.464844 26.558594 44.359375 26.613281 C 44.347656 26.617188 44.335938 26.625 44.320312 26.636719 C 44.214844 26.71875 44.195312 26.875 44.277344 26.980469 C 45.382812 28.402344 44.960938 30.414062 44.960938 30.433594 C 44.9375 30.535156 44.980469 30.640625 45.070312 30.695312 C 45.109375 30.71875 45.15625 30.730469 45.199219 30.730469 C 45.253906 30.730469 45.308594 30.714844 45.351562 30.675781 C 48.4375 28.207031 49.765625 26.410156 50.257812 25.152344 C 50.460938 24.632812 50.523438 24.203125 50.503906 23.855469 Z M 70.167969 17.363281 C 70.050781 17.425781 70.007812 17.578125 70.074219 17.695312 C 70.082031 17.710938 70.894531 19.175781 71.675781 20.394531 L 71.714844 20.453125 C 72.511719 21.703125 74.371094 24.601562 76.480469 25.152344 C 76.503906 25.15625 76.523438 25.164062 76.542969 25.167969 C 76.5625 25.171875 76.582031 25.175781 76.601562 25.175781 C 76.714844 25.175781 76.8125 25.097656 76.839844 24.988281 C 76.871094 24.855469 76.789062 24.722656 76.65625 24.691406 C 74.710938 24.230469 72.898438 21.398438 72.125 20.1875 L 72.085938 20.128906 C 71.96875 19.941406 71.851562 19.753906 71.734375 19.566406 C 71.089844 18.511719 70.507812 17.46875 70.5 17.457031 C 70.433594 17.339844 70.285156 17.296875 70.167969 17.363281 Z M 71.984375 23.640625 C 71.863281 23.578125 71.714844 23.628906 71.652344 23.75 C 71.597656 23.859375 71.632812 23.988281 71.730469 24.058594 C 71.941406 24.269531 73.378906 26.320312 74.011719 28.101562 C 74.179688 28.574219 74.355469 29.136719 74.535156 29.730469 C 75.125 31.644531 75.730469 33.628906 76.609375 34.164062 C 76.648438 34.191406 76.691406 34.203125 76.734375 34.203125 C 76.789062 34.203125 76.839844 34.183594 76.882812 34.152344 C 76.90625 34.132812 76.929688 34.109375 76.945312 34.085938 C 77.015625 33.96875 76.980469 33.816406 76.867188 33.746094 C 76.148438 33.304688 75.515625 31.246094 75.007812 29.589844 C 74.824219 28.984375 74.648438 28.417969 74.476562 27.9375 C 74.3125 27.476562 74.089844 26.980469 73.839844 26.5 C 73.105469 25.066406 72.167969 23.730469 71.984375 23.640625 Z M 15.597656 10.972656 C 15.640625 11.054688 15.726562 11.105469 15.816406 11.105469 C 15.851562 11.105469 15.890625 11.09375 15.929688 11.074219 C 16.019531 11.027344 16.113281 10.980469 16.207031 10.9375 C 18.523438 9.8125 20.796875 9.765625 21.175781 9.765625 C 21.246094 9.765625 21.234375 9.765625 21.238281 9.765625 C 21.371094 9.765625 21.480469 9.660156 21.484375 9.527344 C 21.484375 9.390625 21.378906 9.277344 21.246094 9.273438 C 21.191406 9.273438 20.5625 9.257812 19.625 9.394531 C 18.578125 9.546875 17.148438 9.886719 15.699219 10.640625 C 15.585938 10.699219 15.539062 10.839844 15.589844 10.957031 C 15.59375 10.960938 15.59375 10.96875 15.597656 10.972656 Z M 43.863281 3.167969 C 48.914062 2.601562 52.777344 4.480469 52.816406 4.5 C 52.863281 4.523438 52.914062 4.53125 52.964844 4.523438 C 53 4.515625 56.796875 3.953125 61.21875 7.8125 C 61.664062 8.199219 62.082031 8.566406 62.484375 8.921875 C 64.621094 10.804688 66.183594 12.226562 67.121094 13.09375 C 67.738281 13.660156 68.085938 13.988281 68.15625 14.054688 C 68.347656 14.300781 70.597656 17.050781 73.546875 17.050781 C 74.199219 17.050781 74.890625 16.914062 75.597656 16.589844 C 75.6875 16.546875 75.773438 16.503906 75.867188 16.457031 C 75.988281 16.390625 76.03125 16.242188 75.96875 16.125 C 75.90625 16.003906 75.757812 15.957031 75.636719 16.023438 C 71.863281 18.027344 68.667969 13.917969 68.53125 13.742188 C 68.523438 13.734375 68.515625 13.722656 68.507812 13.714844 C 68.480469 13.691406 66.054688 11.382812 61.542969 7.441406 C 57.246094 3.695312 53.5625 3.957031 52.960938 4.027344 C 52.398438 3.761719 48.691406 2.136719 43.804688 2.683594 C 38.859375 3.238281 37.261719 0.304688 37.195312 0.179688 C 37.136719 0.0625 36.988281 0.015625 36.867188 0.078125 C 36.746094 0.140625 36.699219 0.285156 36.761719 0.40625 C 36.78125 0.441406 36.910156 0.683594 37.1875 1.015625 C 37.972656 1.957031 39.9375 3.609375 43.863281 3.167969 Z M 43.863281 3.167969 " fill-opacity="1" fill-rule="nonzero"/></g><g clip-path="url(#d5d958b8c9)"><path fill="#000000" d="M 12.785156 14.265625 C 12.757812 14.277344 12.730469 14.292969 12.703125 14.304688 C 10.210938 14.414062 9.703125 11.730469 9.691406 11.648438 C 9.722656 11.65625 9.910156 11.726562 10.203125 11.8125 C 10.324219 11.847656 10.460938 11.886719 10.609375 11.925781 C 10.460938 11.886719 10.324219 11.847656 10.203125 11.8125 C 10.835938 12.550781 11.683594 13.398438 12.785156 14.265625 Z M 15.589844 10.960938 C 15.433594 11.03125 15.28125 11.105469 15.136719 11.183594 C 15.28125 11.105469 15.433594 11.03125 15.589844 10.960938 Z M 3.789062 47.1875 C 3.664062 47.171875 3.582031 47.164062 3.546875 47.160156 C 3.582031 47.167969 3.664062 47.1875 3.789062 47.1875 Z M 21.246094 9.273438 C 21.382812 9.277344 21.488281 9.390625 21.484375 9.527344 C 21.480469 9.660156 21.371094 9.765625 21.238281 9.765625 C 21.234375 9.765625 21.246094 9.765625 21.175781 9.765625 C 20.792969 9.765625 18.523438 9.816406 16.207031 10.9375 C 25.265625 12.75 41.460938 14.699219 62.488281 8.917969 C 62.085938 8.566406 61.664062 8.195312 61.222656 7.8125 C 56.800781 3.949219 53.003906 4.515625 52.96875 4.519531 C 52.917969 4.527344 52.863281 4.519531 52.820312 4.496094 C 52.78125 4.476562 48.917969 2.597656 43.867188 3.167969 C 39.941406 3.605469 37.976562 1.957031 37.191406 1.011719 L 37.871094 3.375 C 39.476562 3.4375 40.460938 3.667969 40.546875 3.6875 C 40.679688 3.71875 40.761719 3.851562 40.726562 3.980469 C 40.695312 4.113281 40.5625 4.195312 40.433594 4.164062 C 40.386719 4.152344 35.878906 3.113281 30.09375 4.953125 C 28.894531 5.332031 27.808594 5.699219 26.761719 6.054688 C 23.695312 7.09375 21.273438 7.910156 19.253906 7.910156 C 18.789062 7.910156 18.34375 7.863281 17.917969 7.769531 L 19.628906 9.390625 C 20.5625 9.261719 21.191406 9.273438 21.246094 9.273438 Z M 76.882812 34.148438 C 76.839844 34.183594 76.789062 34.199219 76.734375 34.199219 C 76.691406 34.199219 76.648438 34.1875 76.609375 34.164062 C 75.730469 33.625 75.125 31.644531 74.535156 29.730469 C 74.355469 29.132812 74.179688 28.570312 74.011719 28.101562 C 73.378906 26.320312 71.941406 24.269531 71.730469 24.054688 C 71.632812 23.988281 71.597656 23.855469 71.652344 23.75 C 71.714844 23.625 71.859375 23.578125 71.984375 23.636719 C 72.167969 23.730469 73.105469 25.066406 73.839844 26.496094 C 74.292969 26.46875 75.792969 26.289062 76.480469 25.152344 C 74.371094 24.601562 72.511719 21.703125 71.714844 20.453125 L 71.675781 20.394531 C 70.894531 19.175781 70.082031 17.710938 70.074219 17.695312 C 70.007812 17.578125 70.050781 17.425781 70.167969 17.363281 C 70.285156 17.296875 70.433594 17.339844 70.5 17.457031 C 70.507812 17.46875 71.085938 18.515625 71.734375 19.566406 C 72.414062 19.390625 74.589844 18.664062 75.597656 16.585938 C 74.890625 16.914062 74.199219 17.050781 73.546875 17.050781 C 70.597656 17.050781 68.351562 14.296875 68.15625 14.054688 C 68.089844 13.988281 67.738281 13.65625 67.125 13.089844 C 62.375 16.28125 53.078125 20.667969 37.695312 20.828125 C 24.800781 20.960938 17.367188 17.695312 13.230469 14.609375 C 11.992188 15.15625 9.484375 16.625 7.933594 19.953125 C 7.007812 21.9375 6.699219 24.105469 6.398438 26.203125 C 5.996094 29.007812 5.617188 31.65625 3.785156 33.40625 C 3.738281 33.453125 3.675781 33.472656 3.617188 33.472656 C 3.5625 33.472656 3.503906 33.453125 3.460938 33.414062 C 2.378906 34.652344 1.226562 35.183594 0.386719 35.078125 C 0.386719 35.078125 4.328125 36.867188 6.507812 34.035156 C 6.386719 32.964844 6.285156 32.238281 6.28125 32.210938 C 6.261719 32.078125 6.355469 31.953125 6.488281 31.933594 C 6.621094 31.914062 6.746094 32.007812 6.765625 32.144531 C 6.808594 32.460938 7.859375 39.964844 7.261719 42.449219 C 7.234375 42.5625 7.132812 42.636719 7.023438 42.636719 C 7.015625 42.636719 7.007812 42.632812 7 42.632812 C 6.898438 43.519531 6.71875 44.296875 6.425781 44.859375 C 6.304688 45.097656 6.175781 45.3125 6.050781 45.507812 C 7.117188 44.988281 8.433594 44.027344 8.652344 42.390625 C 8.652344 42.390625 10.632812 48.585938 15.113281 50.628906 C 15.191406 47.335938 15.414062 43.792969 15.96875 41.960938 L 17.539062 43.53125 C 17.539062 43.53125 15.484375 39.664062 15.847656 36.527344 L 16.917969 37.109375 L 16.515625 32.199219 C 16.503906 32.0625 16.605469 31.945312 16.738281 31.933594 C 16.746094 31.933594 16.75 31.933594 16.757812 31.933594 C 16.753906 31.5 16.769531 31.125 16.8125 30.847656 L 18.699219 32.417969 C 18.078125 28.554688 19.90625 26.304688 19.984375 26.207031 C 20.074219 26.101562 20.226562 26.089844 20.328125 26.175781 C 20.433594 26.261719 20.449219 26.417969 20.363281 26.519531 C 20.355469 26.527344 20.144531 26.792969 19.890625 27.285156 L 21.953125 29.566406 L 23.761719 25.953125 C 23.820312 25.832031 23.96875 25.78125 24.089844 25.84375 L 24.34375 25.335938 L 23.957031 24.386719 C 23.90625 24.261719 23.964844 24.117188 24.089844 24.066406 C 24.214844 24.015625 24.359375 24.074219 24.410156 24.199219 L 25.828125 27.65625 C 26.261719 27.253906 27.246094 26.191406 26.960938 25.046875 C 26.960938 25.046875 27.113281 25.09375 27.363281 25.179688 C 27.398438 25.070312 27.503906 25 27.621094 25.015625 C 29.664062 25.261719 31.027344 26.734375 31.398438 27.1875 C 31.582031 26.613281 31.949219 25.253906 31.667969 24.320312 C 31.65625 24.28125 31.648438 24.246094 31.636719 24.210938 C 31.421875 24.058594 31.1875 23.90625 30.9375 23.75 C 30.824219 23.679688 30.785156 23.527344 30.859375 23.414062 C 30.929688 23.296875 31.082031 23.261719 31.195312 23.335938 C 34.425781 25.339844 34.980469 27.15625 35.054688 27.941406 C 36.117188 27.464844 36.828125 26.8125 37.164062 26 C 37.664062 24.796875 37.171875 23.652344 37.167969 23.640625 C 37.113281 23.515625 37.167969 23.371094 37.292969 23.320312 C 37.417969 23.265625 37.5625 23.320312 37.617188 23.445312 C 37.636719 23.488281 37.996094 24.339844 37.839844 25.394531 C 38.414062 26.511719 39.75 29.4375 39.335938 31.882812 C 41.277344 31.046875 42.570312 29.863281 43.183594 28.363281 C 44.089844 26.140625 43.1875 23.972656 43.179688 23.953125 C 43.125 23.828125 43.183594 23.683594 43.308594 23.628906 C 43.433594 23.578125 43.578125 23.636719 43.628906 23.757812 C 43.65625 23.820312 44.054688 24.78125 44.082031 26.09375 C 44.164062 26.246094 44.257812 26.417969 44.359375 26.609375 C 44.460938 26.558594 44.589844 26.582031 44.664062 26.679688 C 45.515625 27.773438 45.574219 29.128906 45.519531 29.90625 C 49.289062 26.796875 50.054688 24.925781 50.015625 23.898438 C 49.992188 23.21875 49.605469 22.945312 49.589844 22.933594 C 49.480469 22.855469 49.453125 22.707031 49.523438 22.59375 C 49.601562 22.480469 49.75 22.449219 49.859375 22.523438 C 49.886719 22.542969 50.460938 22.929688 50.503906 23.855469 C 50.519531 24.203125 50.457031 24.632812 50.253906 25.152344 C 50.832031 25.742188 52.253906 27.386719 51.476562 28.554688 L 54.265625 25.070312 C 53.921875 24.707031 53.65625 24.496094 53.644531 24.492188 C 53.539062 24.410156 53.519531 24.253906 53.601562 24.148438 C 53.6875 24.039062 53.839844 24.019531 53.945312 24.101562 C 54.042969 24.179688 56.257812 25.917969 56.3125 28.339844 L 59.386719 25.707031 L 59.140625 25.003906 C 59.09375 24.875 59.160156 24.738281 59.289062 24.691406 C 59.414062 24.648438 59.558594 24.710938 59.601562 24.839844 L 61.527344 30.289062 L 62.832031 27.472656 C 62.515625 26.902344 62.257812 26.59375 62.25 26.582031 C 62.164062 26.480469 62.175781 26.328125 62.28125 26.238281 C 62.382812 26.152344 62.535156 26.164062 62.625 26.265625 C 62.738281 26.398438 65.292969 29.488281 64.332031 34.492188 L 65.738281 33.4375 C 65.757812 33.128906 65.761719 32.941406 65.761719 32.933594 C 65.765625 32.796875 65.882812 32.703125 66.015625 32.695312 C 66.152344 32.699219 66.257812 32.8125 66.253906 32.945312 C 66.246094 33.167969 66.089844 37.886719 64.796875 40.972656 L 66.523438 39.695312 C 66.632812 39.613281 66.785156 39.636719 66.867188 39.746094 L 67.300781 39.425781 C 67.300781 39.425781 67.609375 44.035156 67.347656 48.8125 C 68.820312 47.390625 70.839844 44.921875 71.269531 41.769531 C 71.269531 41.769531 73.710938 42.015625 74.523438 42.828125 C 74.523438 42.828125 75.777344 38.757812 74.523438 36.445312 C 73.273438 34.125 73.273438 34.125 73.273438 34.125 C 73.273438 34.125 75.945312 36.320312 80.414062 36.191406 C 80.476562 36.070312 80.535156 35.941406 80.589844 35.800781 C 80.585938 35.804688 78.613281 36.3125 76.882812 34.148438 Z M 76.882812 34.148438 " fill-opacity="1" fill-rule="nonzero"/></g></svg>