<svg xmlns="http://www.w3.org/2000/svg" xmlns:xlink="http://www.w3.org/1999/xlink" width="104" zoomAndPan="magnify" viewBox="0 0 78 80.999996" height="108" preserveAspectRatio="xMidYMid meet" version="1.0"><defs><clipPath id="652fb20aef"><path d="M 0 1 L 77.25 1 L 77.25 81 L 0 81 Z M 0 1 " clip-rule="nonzero"/></clipPath><clipPath id="f18a3362d0"><path d="M 0 2 L 77.25 2 L 77.25 80 L 0 80 Z M 0 2 " clip-rule="nonzero"/></clipPath><clipPath id="234c922e17"><path d="M 0 1 L 77.25 1 L 77.25 81 L 0 81 Z M 0 1 " clip-rule="nonzero"/></clipPath><clipPath id="8101bf676f"><path d="M 0 2 L 77.25 2 L 77.25 80 L 0 80 Z M 0 2 " clip-rule="nonzero"/></clipPath></defs><g clip-path="url(#652fb20aef)"><path fill="#000000" d="M 71.667969 41.027344 C 71.671875 41.039062 71.671875 41.046875 71.671875 41.058594 C 72.003906 42.785156 72.324219 44.75 72.441406 46.355469 C 72.453125 46.488281 72.351562 46.605469 72.21875 46.617188 C 72.238281 46.855469 72.257812 47.097656 72.277344 47.339844 C 73.074219 57.410156 72.933594 65.683594 72.933594 65.683594 C 72.933594 64.117188 71.449219 62.46875 71.449219 62.46875 C 72.027344 68.570312 68.234375 72.527344 68.234375 72.527344 C 68.976562 71.042969 68.230469 66.839844 68.230469 66.839844 C 68.3125 74.308594 62.640625 77.859375 62.460938 77.96875 C 63.398438 76.671875 63.535156 74.488281 63.46875 72.75 C 63.410156 71.277344 63.199219 70.136719 63.199219 70.136719 C 61.941406 77.929688 54.292969 79.183594 53.597656 79.28125 L 53.597656 79.285156 C 53.566406 79.289062 53.550781 79.292969 53.550781 79.292969 C 53.628906 79.21875 53.707031 79.140625 53.777344 79.058594 C 53.78125 79.054688 53.785156 79.050781 53.789062 79.046875 C 53.957031 78.835938 54.125 78.617188 54.304688 78.382812 C 56.128906 75.605469 56.21875 70.632812 56.21875 70.632812 C 55.527344 72.710938 54.601562 73.78125 54.542969 73.84375 C 55.320312 72.105469 55.75 68.90625 55.980469 65.382812 C 55.976562 65.382812 55.976562 65.382812 55.972656 65.382812 C 55.839844 65.367188 55.742188 65.25 55.753906 65.113281 C 56.132812 61.574219 55.945312 53.511719 55.777344 48.457031 C 54.59375 46.804688 53.242188 44.609375 52.058594 41.929688 C 48.792969 35.335938 48.765625 27.808594 48.964844 24.390625 C 48.777344 24.933594 48.464844 25.765625 48 26.820312 C 48.003906 26.820312 48.007812 26.820312 48.011719 26.824219 C 48.132812 26.882812 48.179688 27.03125 48.117188 27.152344 C 48.042969 27.296875 40.5625 41.808594 31.410156 47.019531 C 31.371094 47.039062 31.332031 47.050781 31.289062 47.050781 C 31.203125 47.050781 31.121094 47.007812 31.078125 46.925781 C 31.011719 46.808594 31.050781 46.664062 31.167969 46.59375 C 31.421875 46.449219 31.671875 46.300781 31.921875 46.140625 C 32.277344 45.722656 32.738281 45.109375 33.21875 44.277344 C 33.214844 44.273438 33.210938 44.273438 33.210938 44.273438 C 33.09375 44.203125 33.058594 44.054688 33.128906 43.941406 C 34.253906 42.082031 34.90625 39.304688 35.285156 36.714844 C 34.832031 37.355469 33.84375 38.714844 32.507812 40.378906 C 32.613281 40.460938 32.632812 40.609375 32.550781 40.714844 C 32.300781 41.042969 26.464844 48.671875 21.03125 51.386719 C 20.882812 57.949219 21.789062 66.671875 25.980469 75.386719 C 26.035156 75.507812 25.988281 75.65625 25.863281 75.710938 C 25.832031 75.726562 25.796875 75.734375 25.757812 75.734375 C 25.667969 75.734375 25.582031 75.683594 25.539062 75.597656 C 25.511719 75.535156 25.484375 75.476562 25.453125 75.414062 C 24.085938 74.929688 23.65625 72.773438 23.65625 72.773438 C 23.828125 75.140625 25.808594 77.882812 26.949219 79.277344 C 27.414062 79.847656 27.738281 80.195312 27.738281 80.195312 C 27.738281 80.195312 26.007812 80.9375 21.800781 80.195312 C 17.59375 79.457031 15.121094 72.527344 15.121094 72.527344 C 15.105469 72.65625 15.097656 72.789062 15.097656 72.921875 C 15.03125 75.222656 16.355469 78.09375 16.355469 78.09375 C 16.355469 78.09375 14.511719 78.179688 11.859375 76.578125 C 11.363281 76.28125 10.84375 75.925781 10.296875 75.492188 C 6.832031 72.773438 7.449219 62.875 7.449219 62.875 C 6.214844 63.867188 5.789062 68.441406 5.789062 68.441406 C 3.507812 65.226562 5.789062 55.332031 5.789062 55.332031 C 3.878906 58.300781 3 62.628906 3 62.628906 C 2.246094 56.609375 4.527344 44.742188 6.429688 36.367188 C 2.527344 40.816406 0.304688 49.792969 0.304688 49.792969 C 0.238281 48.785156 0.320312 47.648438 0.511719 46.429688 C 0.484375 46.535156 0.394531 46.617188 0.28125 46.617188 C 0.273438 46.617188 0.265625 46.617188 0.257812 46.613281 C 0.125 46.601562 0.0273438 46.484375 0.0390625 46.351562 C 0.726562 38.789062 7.546875 27.214844 7.613281 27.097656 C 7.679688 26.988281 7.820312 26.949219 7.933594 27.007812 C 8.671875 25.570312 9.238281 24.539062 9.46875 24.117188 C 9.371094 24.0625 9.320312 23.945312 9.355469 23.832031 C 10.765625 19.371094 12.808594 15.796875 14.886719 13.027344 C 15.695312 11.910156 16.589844 10.832031 17.582031 9.816406 C 17.847656 9.542969 18.125 9.277344 18.40625 9.015625 C 21.023438 6.464844 23.089844 5.289062 23.136719 5.265625 C 23.253906 5.199219 23.402344 5.242188 23.464844 5.359375 C 23.464844 5.359375 23.464844 5.359375 23.46875 5.363281 C 23.871094 5.144531 24.28125 4.933594 24.699219 4.738281 C 24.652344 4.632812 24.683594 4.503906 24.785156 4.433594 C 31.320312 0 42.179688 2.25 43.085938 2.445312 C 43.523438 2.382812 46.675781 1.980469 50.785156 3.007812 C 51.859375 3.277344 53.054688 3.664062 54.3125 4.214844 C 56.730469 5.207031 59.222656 6.761719 61.441406 9.175781 C 62.601562 10.359375 63.722656 11.75 64.761719 13.382812 C 64.835938 13.5 64.800781 13.648438 64.6875 13.71875 C 64.683594 13.722656 64.679688 13.722656 64.675781 13.726562 C 65.097656 14.507812 65.496094 15.347656 65.871094 16.238281 C 65.871094 16.238281 65.875 16.238281 65.875 16.234375 C 66 16.1875 66.140625 16.25 66.191406 16.371094 C 66.222656 16.460938 69.585938 25.058594 70.207031 30.21875 C 70.820312 35.34375 72.25 38.378906 74.84375 40.070312 C 74.953125 40.144531 74.988281 40.292969 74.914062 40.40625 C 74.90625 40.417969 74.898438 40.421875 74.890625 40.429688 C 75.632812 41.054688 76.453125 41.59375 77.359375 42 C 77.359375 42.003906 74.953125 42.59375 71.667969 41.027344 Z M 71.667969 41.027344 " fill-opacity="1" fill-rule="nonzero"/></g><path fill="#000000" d="M 22.335938 6.363281 C 23.65625 9.410156 25.882812 13.355469 29.515625 17.0625 C 29.324219 17.398438 29.140625 17.746094 28.960938 18.109375 C 28.902344 18.230469 28.953125 18.375 29.074219 18.433594 C 29.109375 18.449219 29.144531 18.457031 29.179688 18.457031 C 29.269531 18.457031 29.355469 18.40625 29.398438 18.320312 C 29.550781 18.011719 29.707031 17.710938 29.871094 17.417969 C 33.910156 21.417969 39.625 25.089844 47.660156 26.980469 C 47.5 27.28125 46.667969 28.855469 45.332031 31.023438 C 43.367188 31.660156 40.300781 32.316406 36.222656 32.195312 C 36.296875 30.867188 36.300781 29.992188 36.300781 29.964844 C 36.300781 29.828125 36.191406 29.722656 36.058594 29.722656 C 35.925781 29.722656 35.816406 29.832031 35.816406 29.964844 C 35.816406 29.992188 35.8125 30.859375 35.738281 32.179688 C 29.429688 31.90625 20.804688 29.769531 10.15625 22.984375 C 13.523438 13.289062 19.851562 8.101562 22.335938 6.363281 Z M 18.410156 9.015625 C 18.128906 9.277344 17.851562 9.546875 17.585938 9.816406 C 16.589844 10.832031 15.695312 11.910156 14.890625 13.027344 C 16.085938 11.429688 17.296875 10.097656 18.410156 9.015625 Z M 52.769531 26.617188 C 52.769531 26.617188 53.242188 29.980469 59.035156 29.28125 C 60.140625 29.144531 61.3125 28.828125 62.480469 28.414062 C 62.042969 26.320312 61.355469 24.515625 60.546875 22.976562 C 58.355469 24.5625 55.730469 25.964844 52.769531 26.617188 Z M 66.171875 17.695312 C 65.011719 19.078125 63.226562 20.96875 60.941406 22.683594 C 61.773438 24.257812 62.488281 26.105469 62.941406 28.242188 C 63.785156 27.921875 64.621094 27.554688 65.425781 27.164062 C 65.476562 27.140625 65.527344 27.113281 65.578125 27.089844 C 65.382812 25.128906 65.03125 23.917969 65.019531 23.886719 C 64.980469 23.757812 65.054688 23.621094 65.183594 23.582031 C 65.3125 23.542969 65.449219 23.617188 65.488281 23.742188 C 65.496094 23.777344 65.839844 24.949219 66.042969 26.855469 C 66.839844 26.453125 67.601562 26.03125 68.300781 25.621094 C 68.429688 25.546875 68.558594 25.472656 68.6875 25.394531 C 67.851562 22.355469 66.765625 19.296875 66.171875 17.695312 Z M 66.171875 17.695312 " fill-opacity="1" fill-rule="nonzero"/><g clip-path="url(#f18a3362d0)"><path fill="#000000" d="M 54.3125 4.214844 C 56.730469 5.207031 59.222656 6.761719 61.441406 9.175781 C 59.101562 6.773438 56.605469 5.21875 54.3125 4.214844 Z M 35.734375 32.179688 C 35.664062 33.40625 35.535156 35.019531 35.285156 36.71875 C 34.832031 37.359375 33.84375 38.71875 32.511719 40.378906 C 32.507812 40.378906 32.507812 40.375 32.507812 40.375 C 32.398438 40.292969 32.246094 40.3125 32.164062 40.421875 C 32.105469 40.5 26.320312 48.0625 21.046875 50.835938 C 21.246094 44.585938 22.378906 40.425781 22.402344 40.339844 C 22.441406 40.210938 22.363281 40.078125 22.234375 40.039062 C 22.105469 40.003906 21.972656 40.078125 21.933594 40.210938 C 21.910156 40.296875 20.730469 44.632812 20.554688 51.113281 C 20.503906 51.183594 20.492188 51.277344 20.535156 51.359375 C 20.535156 51.367188 20.542969 51.375 20.546875 51.382812 C 20.398438 57.960938 21.304688 66.6875 25.457031 75.417969 C 24.089844 74.929688 23.65625 72.777344 23.65625 72.777344 C 23.832031 75.144531 25.8125 77.886719 26.953125 79.28125 C 20.335938 76.460938 14.265625 64.503906 14.265625 64.503906 C 14.261719 64.597656 14.257812 64.6875 14.253906 64.777344 C 13.78125 59.421875 14.472656 53.492188 14.480469 53.425781 C 14.496094 53.292969 14.398438 53.171875 14.265625 53.15625 C 14.132812 53.140625 14.011719 53.234375 13.996094 53.367188 C 13.984375 53.441406 13.113281 60.921875 13.996094 66.726562 C 14.015625 66.847656 14.121094 66.933594 14.238281 66.933594 C 14.246094 66.933594 14.25 66.933594 14.257812 66.933594 C 14.332031 69.179688 14.644531 71.167969 15.101562 72.921875 C 15.035156 75.222656 16.363281 78.09375 16.363281 78.09375 C 16.363281 78.09375 14.519531 78.179688 11.867188 76.578125 C 7.367188 64.480469 6.792969 44.644531 6.769531 36 C 6.65625 36.121094 6.542969 36.242188 6.429688 36.371094 C 2.527344 40.816406 0.304688 49.792969 0.304688 49.792969 C 0.238281 48.785156 0.320312 47.648438 0.511719 46.429688 C 0.515625 46.417969 0.523438 46.40625 0.523438 46.394531 C 0.527344 46.367188 0.527344 46.335938 0.53125 46.308594 C 1.203125 42.226562 3.132812 37.234375 5.035156 33.003906 C 6.613281 29.75 8 27.398438 8.03125 27.347656 C 8.101562 27.230469 8.0625 27.082031 7.945312 27.011719 C 7.941406 27.007812 7.9375 27.007812 7.933594 27.007812 C 8.671875 25.570312 9.238281 24.539062 9.46875 24.117188 C 9.484375 24.125 9.5 24.132812 9.515625 24.136719 C 9.539062 24.144531 9.566406 24.148438 9.589844 24.148438 C 9.691406 24.148438 9.789062 24.082031 9.820312 23.976562 C 9.925781 23.640625 10.039062 23.3125 10.152344 22.984375 C 20.800781 29.769531 29.429688 31.90625 35.734375 32.179688 Z M 12.210938 61 C 8.996094 52.886719 10.164062 39.441406 10.179688 39.308594 C 10.191406 39.175781 10.09375 39.054688 9.957031 39.042969 C 9.824219 39.03125 9.707031 39.132812 9.695312 39.265625 C 9.679688 39.402344 8.5 52.960938 11.757812 61.179688 C 11.796875 61.273438 11.886719 61.332031 11.984375 61.332031 C 12.015625 61.332031 12.042969 61.328125 12.074219 61.316406 C 12.199219 61.265625 12.261719 61.121094 12.210938 61 Z M 29.238281 36.34375 C 29.105469 36.3125 28.976562 36.394531 28.941406 36.523438 C 28.925781 36.589844 27.339844 43.03125 23.78125 45.71875 C 23.675781 45.796875 23.652344 45.949219 23.734375 46.058594 C 23.785156 46.121094 23.855469 46.15625 23.929688 46.15625 C 23.980469 46.15625 24.03125 46.136719 24.074219 46.105469 C 27.769531 43.3125 29.351562 36.910156 29.414062 36.636719 C 29.449219 36.507812 29.367188 36.375 29.238281 36.34375 Z M 45.328125 31.023438 C 43.363281 31.660156 40.296875 32.316406 36.21875 32.199219 C 36.042969 35.339844 35.457031 41.03125 33.546875 44.191406 C 33.5 44.269531 33.421875 44.308594 33.339844 44.308594 C 33.296875 44.308594 33.257812 44.300781 33.21875 44.277344 C 32.738281 45.109375 32.277344 45.726562 31.925781 46.140625 C 37.597656 42.558594 42.554688 35.515625 45.328125 31.023438 Z M 53.554688 79.289062 C 53.554688 79.289062 53.570312 79.285156 53.597656 79.28125 L 53.601562 79.28125 C 53.660156 79.207031 53.71875 79.132812 53.78125 79.054688 C 53.707031 79.136719 53.628906 79.214844 53.554688 79.289062 Z M 71.667969 41.027344 C 71.671875 41.039062 71.671875 41.046875 71.671875 41.058594 C 71.226562 38.730469 70.769531 36.828125 70.761719 36.792969 C 70.726562 36.664062 70.597656 36.582031 70.464844 36.617188 C 70.335938 36.648438 70.257812 36.78125 70.289062 36.910156 C 70.300781 36.96875 71.683594 42.664062 71.957031 46.390625 C 71.96875 46.519531 72.074219 46.617188 72.203125 46.617188 C 72.207031 46.617188 72.214844 46.617188 72.21875 46.617188 C 72.238281 46.859375 72.261719 47.101562 72.28125 47.339844 C 72.28125 47.339844 70.199219 64.242188 63.472656 72.753906 C 63.414062 71.28125 63.203125 70.136719 63.203125 70.136719 C 63.289062 63.710938 61.789062 59.285156 61.789062 59.285156 C 61.234375 67.710938 57.171875 74.585938 54.304688 78.378906 C 56.132812 75.601562 56.222656 70.632812 56.222656 70.632812 C 55.53125 72.710938 54.605469 73.78125 54.546875 73.84375 C 55.324219 72.105469 55.753906 68.90625 55.984375 65.382812 C 55.988281 65.382812 55.996094 65.382812 56 65.382812 C 56.121094 65.382812 56.230469 65.289062 56.242188 65.164062 C 56.808594 59.804688 56.105469 44.210938 56.097656 44.058594 C 56.089844 43.921875 55.976562 43.816406 55.84375 43.824219 C 55.710938 43.832031 55.605469 43.945312 55.613281 44.078125 C 55.617188 44.132812 55.695312 45.914062 55.777344 48.457031 C 54.597656 46.804688 53.246094 44.609375 52.0625 41.929688 C 52.445312 42.699219 52.871094 43.460938 53.351562 44.203125 C 53.398438 44.273438 53.476562 44.3125 53.554688 44.3125 C 53.597656 44.3125 53.644531 44.300781 53.6875 44.273438 C 53.796875 44.203125 53.832031 44.050781 53.757812 43.9375 C 47.945312 34.9375 49.597656 22.71875 49.617188 22.597656 C 49.636719 22.464844 49.542969 22.339844 49.410156 22.324219 C 49.273438 22.304688 49.152344 22.394531 49.132812 22.53125 C 49.128906 22.558594 49.039062 23.246094 48.96875 24.394531 C 48.78125 24.9375 48.46875 25.769531 48.003906 26.820312 C 47.882812 26.769531 47.746094 26.816406 47.6875 26.933594 C 47.6875 26.9375 47.675781 26.957031 47.660156 26.984375 C 39.628906 25.097656 33.910156 21.425781 29.875 17.425781 C 32.175781 13.300781 35.699219 10.886719 40.359375 10.25 C 44.101562 9.734375 47.210938 10.621094 47.242188 10.628906 C 47.371094 10.667969 47.507812 10.589844 47.542969 10.460938 C 47.582031 10.332031 47.507812 10.199219 47.378906 10.160156 C 47.25 10.121094 44.152344 9.238281 40.3125 9.761719 C 36.972656 10.21875 32.484375 11.871094 29.519531 17.066406 C 25.886719 13.359375 23.660156 9.414062 22.339844 6.367188 C 22.972656 5.925781 23.359375 5.703125 23.378906 5.695312 C 23.492188 5.628906 23.539062 5.484375 23.476562 5.367188 C 23.875 5.148438 24.285156 4.941406 24.707031 4.742188 C 24.714844 4.753906 24.71875 4.765625 24.726562 4.777344 C 24.800781 4.886719 24.953125 4.917969 25.0625 4.839844 C 25.601562 4.476562 26.171875 4.160156 26.765625 3.882812 C 29.464844 2.898438 32.539062 2.300781 36.042969 2.21875 C 39.898438 2.25 42.972656 2.921875 43.03125 2.933594 C 43.0625 2.941406 43.09375 2.941406 43.121094 2.9375 C 43.253906 2.917969 56.289062 0.96875 64.355469 13.648438 C 64.402344 13.722656 64.484375 13.761719 64.5625 13.761719 C 64.601562 13.761719 64.644531 13.75 64.679688 13.730469 C 65.105469 14.511719 65.503906 15.351562 65.875 16.242188 C 65.753906 16.292969 65.695312 16.433594 65.742188 16.554688 C 65.75 16.574219 65.917969 16.996094 66.175781 17.699219 C 65.015625 19.082031 63.230469 20.972656 60.945312 22.6875 C 58.074219 17.269531 53.78125 15.042969 53.714844 15.011719 C 53.597656 14.949219 53.449219 15 53.390625 15.121094 C 53.328125 15.238281 53.378906 15.386719 53.5 15.445312 C 53.558594 15.476562 57.761719 17.652344 60.550781 22.976562 C 58.359375 24.566406 55.734375 25.964844 52.773438 26.621094 C 52.773438 26.621094 53.246094 29.984375 59.039062 29.28125 C 60.148438 29.148438 61.316406 28.832031 62.484375 28.417969 C 62.742188 29.648438 62.914062 30.980469 62.96875 32.417969 C 62.972656 32.546875 63.082031 32.652344 63.210938 32.652344 C 63.214844 32.652344 63.21875 32.652344 63.222656 32.652344 C 63.355469 32.648438 63.460938 32.535156 63.457031 32.398438 C 63.398438 30.90625 63.21875 29.523438 62.945312 28.25 C 63.789062 27.929688 64.625 27.5625 65.429688 27.171875 C 65.480469 27.144531 65.53125 27.117188 65.585938 27.09375 C 65.9375 30.609375 65.785156 36.546875 62.257812 42.453125 C 62.191406 42.570312 62.226562 42.71875 62.34375 42.789062 C 62.382812 42.808594 62.425781 42.820312 62.46875 42.820312 C 62.550781 42.820312 62.632812 42.78125 62.675781 42.703125 C 66.328125 36.585938 66.429688 30.433594 66.046875 26.863281 C 66.84375 26.457031 67.605469 26.039062 68.308594 25.628906 C 68.4375 25.554688 68.5625 25.476562 68.691406 25.402344 C 69.164062 27.125 69.554688 28.84375 69.730469 30.285156 C 70.363281 35.566406 71.859375 38.710938 74.582031 40.484375 C 74.625 40.511719 74.667969 40.527344 74.714844 40.527344 C 74.785156 40.527344 74.851562 40.492188 74.898438 40.4375 C 75.640625 41.0625 76.457031 41.601562 77.367188 42.007812 C 77.359375 42.003906 74.953125 42.59375 71.667969 41.027344 Z M 66.183594 52.914062 C 66.128906 52.792969 65.980469 52.742188 65.859375 52.796875 C 65.738281 52.851562 65.6875 53 65.742188 53.121094 C 65.769531 53.175781 68.324219 58.714844 67.464844 63.898438 C 67.441406 64.03125 67.53125 64.15625 67.664062 64.175781 C 67.675781 64.179688 67.691406 64.179688 67.703125 64.179688 C 67.824219 64.179688 67.925781 64.09375 67.945312 63.976562 C 68.828125 58.644531 66.210938 52.96875 66.183594 52.914062 Z M 66.183594 52.914062 " fill-opacity="1" fill-rule="nonzero"/></g><g clip-path="url(#234c922e17)"><path fill="#000000" d="M 71.667969 41.027344 C 71.671875 41.039062 71.671875 41.046875 71.671875 41.058594 C 72.003906 42.785156 72.324219 44.75 72.441406 46.355469 C 72.453125 46.488281 72.351562 46.605469 72.21875 46.617188 C 72.238281 46.855469 72.257812 47.097656 72.277344 47.339844 C 73.074219 57.410156 72.933594 65.683594 72.933594 65.683594 C 72.933594 64.117188 71.449219 62.46875 71.449219 62.46875 C 72.027344 68.570312 68.234375 72.527344 68.234375 72.527344 C 68.976562 71.042969 68.230469 66.839844 68.230469 66.839844 C 68.3125 74.308594 62.640625 77.859375 62.460938 77.96875 C 63.398438 76.671875 63.535156 74.488281 63.46875 72.75 C 63.410156 71.277344 63.199219 70.136719 63.199219 70.136719 C 61.941406 77.929688 54.292969 79.183594 53.597656 79.28125 L 53.597656 79.285156 C 53.566406 79.289062 53.550781 79.292969 53.550781 79.292969 C 53.628906 79.21875 53.707031 79.140625 53.777344 79.058594 C 53.78125 79.054688 53.785156 79.050781 53.789062 79.046875 C 53.957031 78.835938 54.125 78.617188 54.304688 78.382812 C 56.128906 75.605469 56.21875 70.632812 56.21875 70.632812 C 55.527344 72.710938 54.601562 73.78125 54.542969 73.84375 C 55.320312 72.105469 55.75 68.90625 55.980469 65.382812 C 55.976562 65.382812 55.976562 65.382812 55.972656 65.382812 C 55.839844 65.367188 55.742188 65.25 55.753906 65.113281 C 56.132812 61.574219 55.945312 53.511719 55.777344 48.457031 C 54.59375 46.804688 53.242188 44.609375 52.058594 41.929688 C 48.792969 35.335938 48.765625 27.808594 48.964844 24.390625 C 48.777344 24.933594 48.464844 25.765625 48 26.820312 C 48.003906 26.820312 48.007812 26.820312 48.011719 26.824219 C 48.132812 26.882812 48.179688 27.03125 48.117188 27.152344 C 48.042969 27.296875 40.5625 41.808594 31.410156 47.019531 C 31.371094 47.039062 31.332031 47.050781 31.289062 47.050781 C 31.203125 47.050781 31.121094 47.007812 31.078125 46.925781 C 31.011719 46.808594 31.050781 46.664062 31.167969 46.59375 C 31.421875 46.449219 31.671875 46.300781 31.921875 46.140625 C 32.277344 45.722656 32.738281 45.109375 33.21875 44.277344 C 33.214844 44.273438 33.210938 44.273438 33.210938 44.273438 C 33.09375 44.203125 33.058594 44.054688 33.128906 43.941406 C 34.253906 42.082031 34.90625 39.304688 35.285156 36.714844 C 34.832031 37.355469 33.84375 38.714844 32.507812 40.378906 C 32.613281 40.460938 32.632812 40.609375 32.550781 40.714844 C 32.300781 41.042969 26.464844 48.671875 21.03125 51.386719 C 20.882812 57.949219 21.789062 66.671875 25.980469 75.386719 C 26.035156 75.507812 25.988281 75.65625 25.863281 75.710938 C 25.832031 75.726562 25.796875 75.734375 25.757812 75.734375 C 25.667969 75.734375 25.582031 75.683594 25.539062 75.597656 C 25.511719 75.535156 25.484375 75.476562 25.453125 75.414062 C 24.085938 74.929688 23.65625 72.773438 23.65625 72.773438 C 23.828125 75.140625 25.808594 77.882812 26.949219 79.277344 C 27.414062 79.847656 27.738281 80.195312 27.738281 80.195312 C 27.738281 80.195312 26.007812 80.9375 21.800781 80.195312 C 17.59375 79.457031 15.121094 72.527344 15.121094 72.527344 C 15.105469 72.65625 15.097656 72.789062 15.097656 72.921875 C 15.03125 75.222656 16.355469 78.09375 16.355469 78.09375 C 16.355469 78.09375 14.511719 78.179688 11.859375 76.578125 C 11.363281 76.28125 10.84375 75.925781 10.296875 75.492188 C 6.832031 72.773438 7.449219 62.875 7.449219 62.875 C 6.214844 63.867188 5.789062 68.441406 5.789062 68.441406 C 3.507812 65.226562 5.789062 55.332031 5.789062 55.332031 C 3.878906 58.300781 3 62.628906 3 62.628906 C 2.246094 56.609375 4.527344 44.742188 6.429688 36.367188 C 2.527344 40.816406 0.304688 49.792969 0.304688 49.792969 C 0.238281 48.785156 0.320312 47.648438 0.511719 46.429688 C 0.484375 46.535156 0.394531 46.617188 0.28125 46.617188 C 0.273438 46.617188 0.265625 46.617188 0.257812 46.613281 C 0.125 46.601562 0.0273438 46.484375 0.0390625 46.351562 C 0.726562 38.789062 7.546875 27.214844 7.613281 27.097656 C 7.679688 26.988281 7.820312 26.949219 7.933594 27.007812 C 8.671875 25.570312 9.238281 24.539062 9.46875 24.117188 C 9.371094 24.0625 9.320312 23.945312 9.355469 23.832031 C 10.765625 19.371094 12.808594 15.796875 14.886719 13.027344 C 15.695312 11.910156 16.589844 10.832031 17.582031 9.816406 C 17.847656 9.542969 18.125 9.277344 18.40625 9.015625 C 21.023438 6.464844 23.089844 5.289062 23.136719 5.265625 C 23.253906 5.199219 23.402344 5.242188 23.464844 5.359375 C 23.464844 5.359375 23.464844 5.359375 23.46875 5.363281 C 23.871094 5.144531 24.28125 4.933594 24.699219 4.738281 C 24.652344 4.632812 24.683594 4.503906 24.785156 4.433594 C 31.320312 0 42.179688 2.25 43.085938 2.445312 C 43.523438 2.382812 46.675781 1.980469 50.785156 3.007812 C 51.859375 3.277344 53.054688 3.664062 54.3125 4.214844 C 56.730469 5.207031 59.222656 6.761719 61.441406 9.175781 C 62.601562 10.359375 63.722656 11.75 64.761719 13.382812 C 64.835938 13.5 64.800781 13.648438 64.6875 13.71875 C 64.683594 13.722656 64.679688 13.722656 64.675781 13.726562 C 65.097656 14.507812 65.496094 15.347656 65.871094 16.238281 C 65.871094 16.238281 65.875 16.238281 65.875 16.234375 C 66 16.1875 66.140625 16.25 66.191406 16.371094 C 66.222656 16.460938 69.585938 25.058594 70.207031 30.21875 C 70.820312 35.34375 72.25 38.378906 74.84375 40.070312 C 74.953125 40.144531 74.988281 40.292969 74.914062 40.40625 C 74.90625 40.417969 74.898438 40.421875 74.890625 40.429688 C 75.632812 41.054688 76.453125 41.59375 77.359375 42 C 77.359375 42.003906 74.953125 42.59375 71.667969 41.027344 Z M 71.667969 41.027344 " fill-opacity="1" fill-rule="nonzero"/></g><path fill="#000000" d="M 22.335938 6.363281 C 23.65625 9.410156 25.882812 13.355469 29.515625 17.0625 C 29.324219 17.398438 29.140625 17.746094 28.960938 18.109375 C 28.902344 18.230469 28.953125 18.375 29.074219 18.433594 C 29.109375 18.449219 29.144531 18.457031 29.179688 18.457031 C 29.269531 18.457031 29.355469 18.40625 29.398438 18.320312 C 29.550781 18.011719 29.707031 17.710938 29.871094 17.417969 C 33.910156 21.417969 39.625 25.089844 47.660156 26.980469 C 47.5 27.28125 46.667969 28.855469 45.332031 31.023438 C 43.367188 31.660156 40.300781 32.316406 36.222656 32.195312 C 36.296875 30.867188 36.300781 29.992188 36.300781 29.964844 C 36.300781 29.828125 36.191406 29.722656 36.058594 29.722656 C 35.925781 29.722656 35.816406 29.832031 35.816406 29.964844 C 35.816406 29.992188 35.8125 30.859375 35.738281 32.179688 C 29.429688 31.90625 20.804688 29.769531 10.15625 22.984375 C 13.523438 13.289062 19.851562 8.101562 22.335938 6.363281 Z M 18.410156 9.015625 C 18.128906 9.277344 17.851562 9.546875 17.585938 9.816406 C 16.589844 10.832031 15.695312 11.910156 14.890625 13.027344 C 16.085938 11.429688 17.296875 10.097656 18.410156 9.015625 Z M 52.769531 26.617188 C 52.769531 26.617188 53.242188 29.980469 59.035156 29.28125 C 60.140625 29.144531 61.3125 28.828125 62.480469 28.414062 C 62.042969 26.320312 61.355469 24.515625 60.546875 22.976562 C 58.355469 24.5625 55.730469 25.964844 52.769531 26.617188 Z M 66.171875 17.695312 C 65.011719 19.078125 63.226562 20.96875 60.941406 22.683594 C 61.773438 24.257812 62.488281 26.105469 62.941406 28.242188 C 63.785156 27.921875 64.621094 27.554688 65.425781 27.164062 C 65.476562 27.140625 65.527344 27.113281 65.578125 27.089844 C 65.382812 25.128906 65.03125 23.917969 65.019531 23.886719 C 64.980469 23.757812 65.054688 23.621094 65.183594 23.582031 C 65.3125 23.542969 65.449219 23.617188 65.488281 23.742188 C 65.496094 23.777344 65.839844 24.949219 66.042969 26.855469 C 66.839844 26.453125 67.601562 26.03125 68.300781 25.621094 C 68.429688 25.546875 68.558594 25.472656 68.6875 25.394531 C 67.851562 22.355469 66.765625 19.296875 66.171875 17.695312 Z M 66.171875 17.695312 " fill-opacity="1" fill-rule="nonzero"/><g clip-path="url(#8101bf676f)"><path fill="#000000" d="M 54.3125 4.214844 C 56.730469 5.207031 59.222656 6.761719 61.441406 9.175781 C 59.101562 6.773438 56.605469 5.21875 54.3125 4.214844 Z M 35.734375 32.179688 C 35.664062 33.40625 35.535156 35.019531 35.285156 36.71875 C 34.832031 37.359375 33.84375 38.71875 32.511719 40.378906 C 32.507812 40.378906 32.507812 40.375 32.507812 40.375 C 32.398438 40.292969 32.246094 40.3125 32.164062 40.421875 C 32.105469 40.5 26.320312 48.0625 21.046875 50.835938 C 21.246094 44.585938 22.378906 40.425781 22.402344 40.339844 C 22.441406 40.210938 22.363281 40.078125 22.234375 40.039062 C 22.105469 40.003906 21.972656 40.078125 21.933594 40.210938 C 21.910156 40.296875 20.730469 44.632812 20.554688 51.113281 C 20.503906 51.183594 20.492188 51.277344 20.535156 51.359375 C 20.535156 51.367188 20.542969 51.375 20.546875 51.382812 C 20.398438 57.960938 21.304688 66.6875 25.457031 75.417969 C 24.089844 74.929688 23.65625 72.777344 23.65625 72.777344 C 23.832031 75.144531 25.8125 77.886719 26.953125 79.28125 C 20.335938 76.460938 14.265625 64.503906 14.265625 64.503906 C 14.261719 64.597656 14.257812 64.6875 14.253906 64.777344 C 13.78125 59.421875 14.472656 53.492188 14.480469 53.425781 C 14.496094 53.292969 14.398438 53.171875 14.265625 53.15625 C 14.132812 53.140625 14.011719 53.234375 13.996094 53.367188 C 13.984375 53.441406 13.113281 60.921875 13.996094 66.726562 C 14.015625 66.847656 14.121094 66.933594 14.238281 66.933594 C 14.246094 66.933594 14.25 66.933594 14.257812 66.933594 C 14.332031 69.179688 14.644531 71.167969 15.101562 72.921875 C 15.035156 75.222656 16.363281 78.09375 16.363281 78.09375 C 16.363281 78.09375 14.519531 78.179688 11.867188 76.578125 C 7.367188 64.480469 6.792969 44.644531 6.769531 36 C 6.65625 36.121094 6.542969 36.242188 6.429688 36.371094 C 2.527344 40.816406 0.304688 49.792969 0.304688 49.792969 C 0.238281 48.785156 0.320312 47.648438 0.511719 46.429688 C 0.515625 46.417969 0.523438 46.40625 0.523438 46.394531 C 0.527344 46.367188 0.527344 46.335938 0.53125 46.308594 C 1.203125 42.226562 3.132812 37.234375 5.035156 33.003906 C 6.613281 29.75 8 27.398438 8.03125 27.347656 C 8.101562 27.230469 8.0625 27.082031 7.945312 27.011719 C 7.941406 27.007812 7.9375 27.007812 7.933594 27.007812 C 8.671875 25.570312 9.238281 24.539062 9.46875 24.117188 C 9.484375 24.125 9.5 24.132812 9.515625 24.136719 C 9.539062 24.144531 9.566406 24.148438 9.589844 24.148438 C 9.691406 24.148438 9.789062 24.082031 9.820312 23.976562 C 9.925781 23.640625 10.039062 23.3125 10.152344 22.984375 C 20.800781 29.769531 29.429688 31.90625 35.734375 32.179688 Z M 12.210938 61 C 8.996094 52.886719 10.164062 39.441406 10.179688 39.308594 C 10.191406 39.175781 10.09375 39.054688 9.957031 39.042969 C 9.824219 39.03125 9.707031 39.132812 9.695312 39.265625 C 9.679688 39.402344 8.5 52.960938 11.757812 61.179688 C 11.796875 61.273438 11.886719 61.332031 11.984375 61.332031 C 12.015625 61.332031 12.042969 61.328125 12.074219 61.316406 C 12.199219 61.265625 12.261719 61.121094 12.210938 61 Z M 29.238281 36.34375 C 29.105469 36.3125 28.976562 36.394531 28.941406 36.523438 C 28.925781 36.589844 27.339844 43.03125 23.78125 45.71875 C 23.675781 45.796875 23.652344 45.949219 23.734375 46.058594 C 23.785156 46.121094 23.855469 46.15625 23.929688 46.15625 C 23.980469 46.15625 24.03125 46.136719 24.074219 46.105469 C 27.769531 43.3125 29.351562 36.910156 29.414062 36.636719 C 29.449219 36.507812 29.367188 36.375 29.238281 36.34375 Z M 45.328125 31.023438 C 43.363281 31.660156 40.296875 32.316406 36.21875 32.199219 C 36.042969 35.339844 35.457031 41.03125 33.546875 44.191406 C 33.5 44.269531 33.421875 44.308594 33.339844 44.308594 C 33.296875 44.308594 33.257812 44.300781 33.21875 44.277344 C 32.738281 45.109375 32.277344 45.726562 31.925781 46.140625 C 37.597656 42.558594 42.554688 35.515625 45.328125 31.023438 Z M 53.554688 79.289062 C 53.554688 79.289062 53.570312 79.285156 53.597656 79.28125 L 53.601562 79.28125 C 53.660156 79.207031 53.71875 79.132812 53.78125 79.054688 C 53.707031 79.136719 53.628906 79.214844 53.554688 79.289062 Z M 71.667969 41.027344 C 71.671875 41.039062 71.671875 41.046875 71.671875 41.058594 C 71.226562 38.730469 70.769531 36.828125 70.761719 36.792969 C 70.726562 36.664062 70.597656 36.582031 70.464844 36.617188 C 70.335938 36.648438 70.257812 36.78125 70.289062 36.910156 C 70.300781 36.96875 71.683594 42.664062 71.957031 46.390625 C 71.96875 46.519531 72.074219 46.617188 72.203125 46.617188 C 72.207031 46.617188 72.214844 46.617188 72.21875 46.617188 C 72.238281 46.859375 72.261719 47.101562 72.28125 47.339844 C 72.28125 47.339844 70.199219 64.242188 63.472656 72.753906 C 63.414062 71.28125 63.203125 70.136719 63.203125 70.136719 C 63.289062 63.710938 61.789062 59.285156 61.789062 59.285156 C 61.234375 67.710938 57.171875 74.585938 54.304688 78.378906 C 56.132812 75.601562 56.222656 70.632812 56.222656 70.632812 C 55.53125 72.710938 54.605469 73.78125 54.546875 73.84375 C 55.324219 72.105469 55.753906 68.90625 55.984375 65.382812 C 55.988281 65.382812 55.996094 65.382812 56 65.382812 C 56.121094 65.382812 56.230469 65.289062 56.242188 65.164062 C 56.808594 59.804688 56.105469 44.210938 56.097656 44.058594 C 56.089844 43.921875 55.976562 43.816406 55.84375 43.824219 C 55.710938 43.832031 55.605469 43.945312 55.613281 44.078125 C 55.617188 44.132812 55.695312 45.914062 55.777344 48.457031 C 54.597656 46.804688 53.246094 44.609375 52.0625 41.929688 C 52.445312 42.699219 52.871094 43.460938 53.351562 44.203125 C 53.398438 44.273438 53.476562 44.3125 53.554688 44.3125 C 53.597656 44.3125 53.644531 44.300781 53.6875 44.273438 C 53.796875 44.203125 53.832031 44.050781 53.757812 43.9375 C 47.945312 34.9375 49.597656 22.71875 49.617188 22.597656 C 49.636719 22.464844 49.542969 22.339844 49.410156 22.324219 C 49.273438 22.304688 49.152344 22.394531 49.132812 22.53125 C 49.128906 22.558594 49.039062 23.246094 48.96875 24.394531 C 48.78125 24.9375 48.46875 25.769531 48.003906 26.820312 C 47.882812 26.769531 47.746094 26.816406 47.6875 26.933594 C 47.6875 26.9375 47.675781 26.957031 47.660156 26.984375 C 39.628906 25.097656 33.910156 21.425781 29.875 17.425781 C 32.175781 13.300781 35.699219 10.886719 40.359375 10.25 C 44.101562 9.734375 47.210938 10.621094 47.242188 10.628906 C 47.371094 10.667969 47.507812 10.589844 47.542969 10.460938 C 47.582031 10.332031 47.507812 10.199219 47.378906 10.160156 C 47.25 10.121094 44.152344 9.238281 40.3125 9.761719 C 36.972656 10.21875 32.484375 11.871094 29.519531 17.066406 C 25.886719 13.359375 23.660156 9.414062 22.339844 6.367188 C 22.972656 5.925781 23.359375 5.703125 23.378906 5.695312 C 23.492188 5.628906 23.539062 5.484375 23.476562 5.367188 C 23.875 5.148438 24.285156 4.941406 24.707031 4.742188 C 24.714844 4.753906 24.71875 4.765625 24.726562 4.777344 C 24.800781 4.886719 24.953125 4.917969 25.0625 4.839844 C 25.601562 4.476562 26.171875 4.160156 26.765625 3.882812 C 29.464844 2.898438 32.539062 2.300781 36.042969 2.21875 C 39.898438 2.25 42.972656 2.921875 43.03125 2.933594 C 43.0625 2.941406 43.09375 2.941406 43.121094 2.9375 C 43.253906 2.917969 56.289062 0.96875 64.355469 13.648438 C 64.402344 13.722656 64.484375 13.761719 64.5625 13.761719 C 64.601562 13.761719 64.644531 13.75 64.679688 13.730469 C 65.105469 14.511719 65.503906 15.351562 65.875 16.242188 C 65.753906 16.292969 65.695312 16.433594 65.742188 16.554688 C 65.75 16.574219 65.917969 16.996094 66.175781 17.699219 C 65.015625 19.082031 63.230469 20.972656 60.945312 22.6875 C 58.074219 17.269531 53.78125 15.042969 53.714844 15.011719 C 53.597656 14.949219 53.449219 15 53.390625 15.121094 C 53.328125 15.238281 53.378906 15.386719 53.5 15.445312 C 53.558594 15.476562 57.761719 17.652344 60.550781 22.976562 C 58.359375 24.566406 55.734375 25.964844 52.773438 26.621094 C 52.773438 26.621094 53.246094 29.984375 59.039062 29.28125 C 60.148438 29.148438 61.316406 28.832031 62.484375 28.417969 C 62.742188 29.648438 62.914062 30.980469 62.96875 32.417969 C 62.972656 32.546875 63.082031 32.652344 63.210938 32.652344 C 63.214844 32.652344 63.21875 32.652344 63.222656 32.652344 C 63.355469 32.648438 63.460938 32.535156 63.457031 32.398438 C 63.398438 30.90625 63.21875 29.523438 62.945312 28.25 C 63.789062 27.929688 64.625 27.5625 65.429688 27.171875 C 65.480469 27.144531 65.53125 27.117188 65.585938 27.09375 C 65.9375 30.609375 65.785156 36.546875 62.257812 42.453125 C 62.191406 42.570312 62.226562 42.71875 62.34375 42.789062 C 62.382812 42.808594 62.425781 42.820312 62.46875 42.820312 C 62.550781 42.820312 62.632812 42.78125 62.675781 42.703125 C 66.328125 36.585938 66.429688 30.433594 66.046875 26.863281 C 66.84375 26.457031 67.605469 26.039062 68.308594 25.628906 C 68.4375 25.554688 68.5625 25.476562 68.691406 25.402344 C 69.164062 27.125 69.554688 28.84375 69.730469 30.285156 C 70.363281 35.566406 71.859375 38.710938 74.582031 40.484375 C 74.625 40.511719 74.667969 40.527344 74.714844 40.527344 C 74.785156 40.527344 74.851562 40.492188 74.898438 40.4375 C 75.640625 41.0625 76.457031 41.601562 77.367188 42.007812 C 77.359375 42.003906 74.953125 42.59375 71.667969 41.027344 Z M 66.183594 52.914062 C 66.128906 52.792969 65.980469 52.742188 65.859375 52.796875 C 65.738281 52.851562 65.6875 53 65.742188 53.121094 C 65.769531 53.175781 68.324219 58.714844 67.464844 63.898438 C 67.441406 64.03125 67.53125 64.15625 67.664062 64.175781 C 67.675781 64.179688 67.691406 64.179688 67.703125 64.179688 C 67.824219 64.179688 67.925781 64.09375 67.945312 63.976562 C 68.828125 58.644531 66.210938 52.96875 66.183594 52.914062 Z M 66.183594 52.914062 " fill-opacity="1" fill-rule="nonzero"/></g></svg>