<svg xmlns="http://www.w3.org/2000/svg" xmlns:xlink="http://www.w3.org/1999/xlink" width="111" zoomAndPan="magnify" viewBox="0 0 83.25 83.249999" height="111" preserveAspectRatio="xMidYMid meet" version="1.0"><defs><clipPath id="e4ff1f3e11"><path d="M 47 13 L 75 13 L 75 44 L 47 44 Z M 47 13 " clip-rule="nonzero"/></clipPath><clipPath id="b13d8669cc"><path d="M 20.011719 5.226562 L 80.140625 19.050781 L 66.148438 79.898438 L 6.023438 66.078125 Z M 20.011719 5.226562 " clip-rule="nonzero"/></clipPath><clipPath id="2d372efb6d"><path d="M 20.011719 5.226562 L 80.140625 19.050781 L 66.148438 79.898438 L 6.023438 66.078125 Z M 20.011719 5.226562 " clip-rule="nonzero"/></clipPath><clipPath id="cc1cac6994"><path d="M 20.011719 5.226562 L 80.140625 19.050781 L 66.148438 79.898438 L 6.023438 66.078125 Z M 20.011719 5.226562 " clip-rule="nonzero"/></clipPath><clipPath id="4b13fba7ce"><path d="M 15 10 L 43 10 L 43 36 L 15 36 Z M 15 10 " clip-rule="nonzero"/></clipPath><clipPath id="5c402acd25"><path d="M 20.011719 5.226562 L 80.140625 19.050781 L 66.148438 79.898438 L 6.023438 66.078125 Z M 20.011719 5.226562 " clip-rule="nonzero"/></clipPath><clipPath id="805fbb089f"><path d="M 20.011719 5.226562 L 80.140625 19.050781 L 66.148438 79.898438 L 6.023438 66.078125 Z M 20.011719 5.226562 " clip-rule="nonzero"/></clipPath><clipPath id="6db5f36690"><path d="M 20.011719 5.226562 L 80.140625 19.050781 L 66.148438 79.898438 L 6.023438 66.078125 Z M 20.011719 5.226562 " clip-rule="nonzero"/></clipPath><clipPath id="11439f4dc3"><path d="M 13 39 L 33 39 L 33 71 L 13 71 Z M 13 39 " clip-rule="nonzero"/></clipPath><clipPath id="d505f186ed"><path d="M 20.011719 5.226562 L 80.140625 19.050781 L 66.148438 79.898438 L 6.023438 66.078125 Z M 20.011719 5.226562 " clip-rule="nonzero"/></clipPath><clipPath id="23ef467c64"><path d="M 20.011719 5.226562 L 80.140625 19.050781 L 66.148438 79.898438 L 6.023438 66.078125 Z M 20.011719 5.226562 " clip-rule="nonzero"/></clipPath><clipPath id="f65e20311d"><path d="M 20.011719 5.226562 L 80.140625 19.050781 L 66.148438 79.898438 L 6.023438 66.078125 Z M 20.011719 5.226562 " clip-rule="nonzero"/></clipPath><clipPath id="7ae211c65c"><path d="M 39 46 L 72 46 L 72 73 L 39 73 Z M 39 46 " clip-rule="nonzero"/></clipPath><clipPath id="747f5d43e3"><path d="M 20.011719 5.226562 L 80.140625 19.050781 L 66.148438 79.898438 L 6.023438 66.078125 Z M 20.011719 5.226562 " clip-rule="nonzero"/></clipPath><clipPath id="38f1b042dc"><path d="M 20.011719 5.226562 L 80.140625 19.050781 L 66.148438 79.898438 L 6.023438 66.078125 Z M 20.011719 5.226562 " clip-rule="nonzero"/></clipPath><clipPath id="3998d91514"><path d="M 20.011719 5.226562 L 80.140625 19.050781 L 66.148438 79.898438 L 6.023438 66.078125 Z M 20.011719 5.226562 " clip-rule="nonzero"/></clipPath></defs><g clip-path="url(#e4ff1f3e11)"><g clip-path="url(#b13d8669cc)"><g clip-path="url(#2d372efb6d)"><g clip-path="url(#cc1cac6994)"><path fill="#000000" d="M 55.941406 40.035156 C 57.15625 40.863281 58.511719 41.363281 59.933594 41.691406 C 62.328125 42.242188 64.894531 42.289062 67.28125 42.574219 C 69.003906 42.851562 70.710938 43.144531 72.402344 43.570312 C 72.800781 43.664062 73.203125 43.527344 73.433594 43.21875 C 73.855469 43.039062 74.097656 42.648438 74.0625 42.203125 C 73.929688 41.113281 72.242188 41.007812 70.773438 40.953125 C 70.082031 40.921875 69.433594 40.90625 69.03125 40.808594 C 64.726562 39.675781 60.410156 38.554688 56.109375 37.410156 C 53.398438 31.84375 55.449219 25.296875 55.105469 19.351562 C 54.953125 17.875 55.585938 16.085938 54.632812 14.8125 C 54.648438 14.367188 54.308594 13.921875 53.875 13.796875 C 51.640625 13.347656 49.855469 20.988281 49.113281 22.777344 C 48.21875 25.617188 47.460938 28.550781 47.292969 31.515625 C 46.472656 37.058594 51.527344 38.878906 55.945312 40.046875 Z M 53.195312 19.105469 C 53.398438 24.933594 51.933594 30.9375 53.648438 36.632812 C 50.957031 35.707031 50.53125 35.234375 50.875 32.371094 C 51.234375 27.917969 51.867188 23.429688 53.195312 19.105469 Z M 53.195312 19.105469 " fill-opacity="1" fill-rule="nonzero"/></g></g></g></g><g clip-path="url(#4b13fba7ce)"><g clip-path="url(#5c402acd25)"><g clip-path="url(#805fbb089f)"><g clip-path="url(#6db5f36690)"><path fill="#000000" d="M 41.257812 12.804688 C 41.230469 11.835938 41.515625 10.152344 40.167969 10.039062 C 38.753906 10.167969 38.695312 12.023438 38.324219 13.085938 C 36.835938 19.109375 35.28125 25.132812 33.164062 30.980469 C 31.53125 31.066406 30.210938 29.917969 28.675781 29.480469 C 24.660156 28.003906 20.566406 26.753906 16.511719 25.398438 C 16.019531 25.230469 15.46875 25.574219 15.339844 26.054688 C 15.195312 26.574219 15.507812 27.066406 16 27.226562 C 18.839844 28.175781 21.695312 29.074219 24.539062 30.03125 C 23.140625 29.824219 21.753906 29.480469 20.371094 29.140625 C 19.007812 28.800781 17.644531 28.457031 16.269531 28.261719 C 15.652344 28.335938 15.273438 28.980469 15.488281 29.558594 C 15.699219 30.109375 16.335938 30.289062 16.84375 30.464844 C 19.371094 31.359375 22.066406 31.753906 24.761719 32.152344 C 28.375 32.683594 31.976562 33.214844 35.15625 34.9375 L 35.132812 34.914062 C 35.386719 35.105469 35.617188 35.222656 35.828125 35.269531 C 37.046875 35.550781 37.5625 33.683594 37.796875 32.570312 C 38.738281 32.207031 38.898438 31.070312 38.925781 30.207031 C 39.375 24.933594 41.28125 19.769531 42.417969 14.59375 C 43.800781 13.984375 42.394531 11.917969 41.261719 12.804688 Z M 36.246094 30.996094 C 36.179688 31.003906 36.121094 31.007812 36.054688 31.011719 C 35.761719 31.023438 35.460938 31.035156 35.171875 31.03125 C 35.925781 28.894531 36.617188 26.738281 37.261719 24.566406 C 37.851562 22.558594 38.40625 20.539062 38.933594 18.511719 C 38.949219 18.433594 38.96875 18.351562 38.988281 18.269531 C 38.257812 22.550781 37.4375 26.808594 36.242188 30.992188 Z M 36.246094 30.996094 " fill-opacity="1" fill-rule="nonzero"/></g></g></g></g><g clip-path="url(#11439f4dc3)"><g clip-path="url(#d505f186ed)"><g clip-path="url(#23ef467c64)"><g clip-path="url(#f65e20311d)"><path fill="#000000" d="M 32.785156 44.296875 C 32.65625 42.578125 30.789062 42.183594 29.417969 41.792969 C 27.441406 41.246094 25.429688 40.875 23.402344 40.566406 C 21.007812 40.207031 18.621094 39.992188 16.210938 39.804688 C 15.761719 39.789062 15.269531 39.695312 14.816406 39.730469 C 13.960938 39.8125 13.65625 41.015625 14.394531 41.46875 C 13.382812 41.292969 12.792969 42.730469 13.707031 43.25 C 17.292969 44.386719 21.054688 45.046875 24.617188 46.308594 C 26.410156 46.953125 28.300781 47.789062 29.269531 49.527344 C 28.519531 52.535156 27.8125 55.5625 27.175781 58.597656 C 27.039062 59.230469 26.914062 59.851562 26.773438 60.496094 L 26.800781 60.375 C 26.175781 63.382812 25.605469 66.511719 25.210938 69.574219 C 25.144531 70.0625 25.460938 70.53125 25.9375 70.636719 C 25.960938 70.644531 25.992188 70.652344 26.019531 70.65625 C 27.1875 70.789062 27.148438 69.445312 27.261719 68.640625 C 28.308594 67.886719 28.34375 66.332031 28.804688 65.203125 C 29.726562 62.125 31.019531 59.160156 31.671875 56 C 32.007812 54.433594 32.25 52.789062 31.925781 51.199219 C 32.332031 48.925781 32.941406 46.613281 32.777344 44.296875 Z M 26.464844 44.625 C 22.957031 43.675781 19.425781 42.746094 15.917969 41.789062 C 15.71875 41.742188 15.527344 41.691406 15.324219 41.644531 C 15.601562 41.664062 15.882812 41.6875 16.164062 41.703125 C 16.144531 41.699219 16.125 41.703125 16.105469 41.703125 C 20.980469 42.144531 26.09375 42.527344 30.734375 44.253906 C 31.117188 44.679688 30.832031 45.726562 30.824219 46.296875 C 29.628906 45.257812 27.917969 45.117188 26.460938 44.625 Z M 26.464844 44.625 " fill-opacity="1" fill-rule="nonzero"/></g></g></g></g><g clip-path="url(#7ae211c65c)"><g clip-path="url(#747f5d43e3)"><g clip-path="url(#38f1b042dc)"><g clip-path="url(#3998d91514)"><path fill="#000000" d="M 71.433594 52.039062 C 71.117188 51.863281 70.753906 51.765625 70.414062 51.652344 C 67.285156 50.703125 64.097656 50 60.902344 49.300781 C 57.78125 48.613281 54.664062 47.933594 51.605469 47.011719 C 46.929688 45.550781 46.261719 45.707031 43.359375 49.734375 C 42.527344 49.960938 42.332031 50.949219 42.046875 51.65625 C 40.59375 55.074219 39.835938 58.648438 39.804688 62.390625 C 39.625 63.765625 39.363281 65.140625 39.242188 66.527344 C 39.207031 67.011719 39.292969 67.574219 39.777344 67.808594 C 39.957031 69.253906 39.390625 71.222656 40.296875 72.425781 C 40.449219 72.5 40.578125 72.550781 40.707031 72.578125 C 42.621094 73.019531 42.304688 68.878906 42.789062 67.65625 C 44.308594 61.785156 46.34375 56.054688 48.238281 50.296875 C 55.867188 49.867188 63.367188 51.789062 70.683594 53.769531 C 71.71875 54.074219 72.371094 52.570312 71.4375 52.035156 Z M 42.007812 63.320312 C 42.078125 62.820312 42.140625 62.324219 42.210938 61.828125 C 42.507812 59.65625 42.832031 57.609375 43.308594 55.453125 C 43.824219 53.683594 43.917969 51.089844 46.105469 50.628906 C 44.703125 54.847656 43.304688 59.066406 42.007812 63.320312 Z M 42.007812 63.320312 " fill-opacity="1" fill-rule="nonzero"/></g></g></g></g></svg>