<svg xmlns="http://www.w3.org/2000/svg" xmlns:xlink="http://www.w3.org/1999/xlink" width="493" zoomAndPan="magnify" viewBox="0 0 369.75 369.749991" height="493" preserveAspectRatio="xMidYMid meet" version="1.0"><defs><clipPath id="bb991b360c"><path d="M 88 50.757812 L 281.878906 50.757812 L 281.878906 318.328125 L 88 318.328125 Z M 88 50.757812 " clip-rule="nonzero"/></clipPath></defs><g clip-path="url(#bb991b360c)"><path fill="#000000" d="M 277.09375 261.273438 C 276.773438 259.347656 276.507812 257.421875 276.238281 255.5 C 275.433594 235.769531 274.738281 216.035156 274.414062 196.253906 C 273.933594 166.523438 274.308594 136.792969 276.398438 107.117188 C 276.558594 105.246094 276.773438 103.320312 276.933594 101.449219 C 278.382812 86.476562 280.042969 71.558594 281.707031 56.640625 C 281.867188 55.355469 280.902344 54.554688 279.777344 54.339844 C 279.9375 54.019531 280.042969 53.644531 280.042969 53.21875 C 280.042969 51.878906 278.917969 50.757812 277.578125 50.757812 C 267.394531 50.8125 257.261719 51.132812 247.132812 51.667969 C 236.304688 51.292969 225.476562 51.1875 214.597656 51.453125 C 194.015625 51.933594 173.484375 53.644531 153.0625 56.53125 C 141.589844 58.136719 130.226562 60.117188 118.863281 62.46875 C 117.738281 62.683594 116.988281 63.910156 117.097656 65.035156 C 115.96875 65.25 114.898438 65.515625 113.773438 65.730469 C 113.878906 64.980469 113.988281 64.234375 114.039062 63.484375 C 114.203125 62.199219 113.71875 60.863281 112.324219 60.488281 C 111.09375 60.167969 109.644531 60.917969 109.324219 62.199219 C 108.949219 63.804688 108.519531 65.355469 108.144531 66.960938 C 106.160156 67.441406 104.125 67.867188 102.140625 68.351562 C 100.695312 68.722656 99.246094 69.046875 97.800781 69.417969 C 95.121094 70.113281 95.65625 74.285156 98.441406 74.230469 C 101.121094 74.179688 103.804688 74.070312 106.535156 73.964844 C 104.285156 84.070312 102.460938 94.285156 101.015625 104.496094 C 96.675781 123.851562 93.457031 143.421875 91.421875 163.152344 C 88.3125 192.402344 87.777344 221.972656 89.707031 251.328125 C 90.832031 267.957031 92.761719 284.480469 95.441406 300.949219 C 95.65625 302.230469 97.261719 302.980469 98.441406 302.660156 C 99.835938 302.285156 100.371094 300.949219 100.15625 299.664062 C 95.496094 270.898438 93.296875 241.648438 93.566406 212.453125 C 93.726562 197.160156 94.53125 181.921875 96.03125 166.738281 C 95.761719 176.894531 95.710938 187.054688 95.816406 197.269531 C 95.976562 208.125 96.296875 218.976562 96.78125 229.777344 C 96.835938 235.234375 96.886719 240.742188 97.101562 246.246094 C 97.585938 262.128906 98.710938 278.011719 100.585938 293.785156 C 100.746094 295.066406 101.550781 296.136719 102.890625 296.191406 C 102.890625 296.777344 102.945312 297.367188 102.945312 297.953125 C 103 299.664062 104.5 300.46875 105.839844 300.308594 C 106.054688 300.574219 106.269531 300.84375 106.589844 301.003906 C 106.699219 301.054688 106.804688 301.109375 106.964844 301.164062 C 104.070312 305.492188 101.230469 309.824219 98.441406 314.261719 C 97.800781 315.332031 98.121094 316.828125 99.085938 317.523438 C 99.996094 318.21875 101.605469 318.328125 102.460938 317.3125 C 112.863281 304.371094 123.261719 291.429688 133.605469 278.542969 C 144.003906 265.605469 154.402344 252.664062 164.746094 239.777344 C 167.855469 235.929688 170.910156 232.078125 174.019531 228.226562 C 178.253906 233.039062 183.347656 237.105469 188.277344 241.113281 C 199.910156 250.632812 212.023438 259.5625 224.566406 267.851562 C 231.640625 272.503906 238.824219 276.941406 246.167969 281.21875 C 248.6875 282.660156 251.3125 279.292969 249.277344 277.207031 C 241.71875 269.613281 233.945312 262.234375 226.066406 254.964844 C 233.304688 259.9375 240.59375 264.855469 247.9375 269.722656 C 255.707031 274.855469 263.589844 279.933594 271.46875 284.90625 C 271.734375 285.066406 272.058594 285.175781 272.324219 285.226562 C 272.433594 285.761719 272.59375 286.296875 272.699219 286.832031 C 273.34375 289.507812 277.632812 288.972656 277.523438 286.191406 C 277.203125 278.652344 276.828125 271.058594 276.507812 263.464844 C 277.042969 262.929688 277.203125 262.074219 277.09375 261.273438 Z M 241.664062 248.816406 C 234.804688 245.230469 228.050781 241.488281 221.402344 237.585938 C 215.078125 232.988281 208.699219 228.496094 202.214844 224.164062 C 196.105469 220.046875 189.886719 216.035156 183.613281 212.132812 C 184.203125 211.117188 184.203125 209.886719 183.292969 208.980469 C 182.273438 207.960938 180.71875 208.070312 179.703125 208.980469 C 179.378906 209.246094 179.113281 209.511719 178.789062 209.835938 C 178.039062 209.941406 177.289062 210.367188 176.914062 211.0625 C 176.753906 211.332031 176.648438 211.597656 176.59375 211.867188 C 176.378906 212.078125 176.109375 212.292969 175.898438 212.507812 C 174.394531 211.332031 172.839844 210.207031 171.339844 209.03125 C 171.449219 208.070312 170.589844 207.054688 169.785156 206.679688 C 168.765625 206.25 167.800781 206.519531 167 207.214844 C 166.945312 207.269531 166.945312 207.269531 166.890625 207.320312 C 166.410156 207.535156 165.980469 207.910156 165.765625 208.335938 C 151.828125 220.421875 139.984375 234.964844 131.03125 251.113281 C 128.460938 255.710938 126.15625 260.472656 124.0625 265.285156 C 123.582031 266.460938 123.636719 267.742188 124.707031 268.546875 C 124.867188 268.652344 125.082031 268.757812 125.242188 268.867188 C 123.367188 271.378906 121.492188 273.945312 119.667969 276.511719 C 115.542969 282.339844 111.574219 288.277344 107.714844 294.320312 C 106.964844 264.964844 106.214844 235.605469 106.160156 206.304688 C 106.109375 175.71875 106.804688 145.132812 108.949219 114.65625 C 109.164062 111.929688 109.378906 109.253906 109.589844 106.527344 C 110.71875 96.742188 111.84375 87.011719 113.023438 77.28125 C 113.074219 76.746094 112.914062 76.261719 112.59375 75.890625 C 112.648438 75.246094 112.753906 74.605469 112.808594 73.964844 C 113.398438 73.964844 113.933594 73.910156 114.523438 73.910156 C 114.523438 74.019531 114.523438 74.070312 114.578125 74.179688 C 114.953125 75.570312 116.292969 76.050781 117.578125 75.890625 C 124.976562 74.820312 132.371094 73.804688 139.769531 72.734375 C 149.308594 72.199219 158.90625 71.558594 168.445312 70.863281 C 191.601562 69.097656 214.703125 66.800781 237.804688 63.964844 C 250.722656 62.359375 263.640625 60.597656 276.558594 58.671875 C 274.308594 74.660156 272.699219 90.699219 271.519531 106.847656 C 270.554688 116.957031 269.699219 127.0625 269 137.21875 C 268.035156 151.015625 267.339844 164.863281 267.125 178.714844 C 266.859375 165.027344 267.125 151.335938 267.714844 137.648438 C 268.519531 129.679688 269.539062 121.765625 270.769531 113.855469 C 270.984375 112.625 270.503906 111.339844 269.269531 110.914062 C 269.378906 109.414062 269.484375 107.863281 269.589844 106.367188 C 270.664062 91.714844 272.003906 77.066406 273.34375 62.46875 C 273.449219 61.132812 272.109375 60.007812 270.878906 60.007812 C 269.429688 60.007812 268.519531 61.132812 268.414062 62.46875 C 266.160156 87.117188 263.910156 112.195312 262.835938 137.273438 C 261.390625 151.710938 260.585938 166.203125 260.53125 180.746094 C 260.425781 203.632812 262.140625 226.464844 265.464844 249.082031 C 266.859375 258.546875 268.574219 267.957031 270.609375 277.316406 C 261.285156 268.972656 251.636719 260.84375 241.824219 253.09375 C 242.148438 252.878906 242.363281 252.609375 242.578125 252.289062 C 243.21875 251.113281 242.898438 249.402344 241.664062 248.816406 Z M 166.515625 214.378906 C 166.890625 216.199219 167.480469 218.015625 168.230469 219.726562 C 161.210938 226.570312 154.402344 233.683594 147.863281 241.007812 C 143.683594 245.660156 139.660156 250.472656 135.75 255.339844 C 135 255.980469 134.25 256.621094 133.496094 257.261719 C 140.304688 244.214844 148.933594 232.238281 159.121094 221.652344 C 161.476562 219.085938 163.945312 216.679688 166.515625 214.378906 Z M 179.59375 63.378906 C 200.015625 60.277344 220.546875 58.136719 241.128906 56.90625 C 243.59375 56.800781 246.058594 56.691406 248.527344 56.640625 C 250.132812 56.691406 251.742188 56.746094 253.351562 56.855469 C 237.859375 58.9375 222.367188 60.808594 206.824219 62.359375 C 192.085938 63.859375 177.289062 65.140625 162.496094 66.210938 C 168.230469 65.195312 173.914062 64.285156 179.59375 63.378906 Z M 133.445312 66.90625 C 134.035156 66.800781 134.625 66.691406 135.160156 66.640625 C 132.695312 67.171875 130.175781 67.761719 127.710938 68.296875 C 126.90625 68.351562 126.15625 68.351562 125.351562 68.402344 C 128.085938 67.867188 130.765625 67.386719 133.445312 66.90625 Z M 229.121094 264.800781 C 223.28125 261.007812 217.542969 257.050781 211.863281 252.933594 C 205.96875 248.652344 200.230469 244.324219 194.601562 239.722656 C 189.296875 235.445312 183.777344 231.117188 179.058594 226.144531 C 178.414062 225.5 177.824219 224.859375 177.289062 224.164062 C 177.988281 223.308594 178.683594 222.453125 179.378906 221.542969 C 185.8125 226.675781 192.191406 231.863281 198.460938 237.210938 C 208.914062 246.085938 219.097656 255.230469 229.070312 264.589844 C 229.070312 264.695312 229.070312 264.75 229.121094 264.800781 Z M 197.980469 228.871094 C 204.839844 233.46875 211.808594 237.851562 218.9375 242.023438 C 226.601562 247.636719 234.160156 253.414062 241.558594 259.347656 C 238.503906 257.261719 235.394531 255.230469 232.339844 253.144531 C 220.761719 245.230469 209.289062 237.105469 197.980469 228.871094 Z M 197.980469 228.871094 " fill-opacity="1" fill-rule="nonzero"/></g></svg>