<svg xmlns="http://www.w3.org/2000/svg" xmlns:xlink="http://www.w3.org/1999/xlink" width="145" zoomAndPan="magnify" viewBox="0 0 108.75 121.500001" height="162" preserveAspectRatio="xMidYMid meet" version="1.0"><defs><clipPath id="baa83a339c"><path d="M 0.0976562 89 L 4 89 L 4 101 L 0.0976562 101 Z M 0.0976562 89 " clip-rule="nonzero"/></clipPath><clipPath id="4a077e2d3c"><path d="M 0.0976562 62 L 4 62 L 4 73 L 0.0976562 73 Z M 0.0976562 62 " clip-rule="nonzero"/></clipPath><clipPath id="b347661971"><path d="M 0.0976562 76 L 4 76 L 4 87 L 0.0976562 87 Z M 0.0976562 76 " clip-rule="nonzero"/></clipPath><clipPath id="fff8e7ef00"><path d="M 0.0976562 26 L 4 26 L 4 34 L 0.0976562 34 Z M 0.0976562 26 " clip-rule="nonzero"/></clipPath><clipPath id="810c9ba59c"><path d="M 0.0976562 38 L 4 38 L 4 47 L 0.0976562 47 Z M 0.0976562 38 " clip-rule="nonzero"/></clipPath><clipPath id="66f2c813de"><path d="M 90 82 L 107.65625 82 L 107.65625 118 L 90 118 Z M 90 82 " clip-rule="nonzero"/></clipPath><clipPath id="579d8cdf95"><path d="M 0.0976562 89 L 4 89 L 4 101 L 0.0976562 101 Z M 0.0976562 89 " clip-rule="nonzero"/></clipPath><clipPath id="7b9ac832c7"><path d="M 0.0976562 62 L 4 62 L 4 73 L 0.0976562 73 Z M 0.0976562 62 " clip-rule="nonzero"/></clipPath><clipPath id="5d7af98ba6"><path d="M 0.0976562 76 L 4 76 L 4 87 L 0.0976562 87 Z M 0.0976562 76 " clip-rule="nonzero"/></clipPath><clipPath id="dda7b35434"><path d="M 0.0976562 26 L 4 26 L 4 34 L 0.0976562 34 Z M 0.0976562 26 " clip-rule="nonzero"/></clipPath><clipPath id="f6f285eae6"><path d="M 0.0976562 38 L 4 38 L 4 47 L 0.0976562 47 Z M 0.0976562 38 " clip-rule="nonzero"/></clipPath><clipPath id="ae28838ae5"><path d="M 90 82 L 107.65625 82 L 107.65625 118 L 90 118 Z M 90 82 " clip-rule="nonzero"/></clipPath></defs><path fill="#efe3d4" d="M 87.542969 83.53125 C 87.636719 81.203125 87.351562 78.847656 87.328125 76.472656 C 87.1875 73.320312 87.328125 70.074219 87.070312 66.96875 C 87.328125 66.519531 87.070312 66.003906 87.09375 65.554688 C 87.472656 64.566406 86.882812 63.53125 87.210938 62.519531 C 87.117188 60.449219 86.976562 58.402344 87.257812 56.332031 C 87.210938 54.753906 87.328125 53.15625 87.117188 51.601562 C 87.378906 51.25 86.976562 50.917969 87.070312 50.566406 C 87.257812 49.789062 86.976562 49.011719 87.140625 48.238281 C 86.929688 47.882812 87.046875 47.53125 87.140625 47.203125 C 87.257812 46.707031 86.859375 46.261719 87.140625 45.789062 C 87.613281 44.214844 87.023438 42.613281 87.378906 41.035156 C 87.164062 40.378906 87.496094 39.695312 87.304688 39.011719 C 87.257812 38.847656 87.164062 38.683594 87.257812 38.496094 C 87.257812 36.683594 87.210938 34.800781 87.378906 32.941406 C 87.660156 31.859375 87.09375 30.730469 87.496094 29.671875 C 87.589844 28.425781 87.234375 27.128906 87.304688 25.859375 C 86.8125 23.859375 87.824219 21.648438 86.648438 19.859375 C 86.363281 19.484375 86.554688 18.964844 86.128906 18.683594 C 84.671875 17.554688 83.164062 15.953125 81.117188 16.378906 C 80.152344 16.753906 79.140625 16.09375 78.222656 16.449219 C 78.105469 16.519531 77.988281 16.519531 77.847656 16.472656 C 77.398438 16.304688 77.046875 16.753906 76.601562 16.613281 C 69.375 16 62.128906 16.28125 54.90625 16.210938 C 53.988281 16.613281 53.023438 16.023438 52.152344 16.28125 C 51.707031 16.566406 51.257812 16.472656 50.8125 16.28125 C 47.824219 16.234375 44.789062 16.28125 41.824219 16.472656 C 39.375 16.472656 37 16.613281 34.574219 16.707031 C 32.859375 16.847656 31.046875 16.402344 29.351562 16.660156 C 28.503906 16.964844 27.726562 16.304688 26.882812 16.660156 C 26.574219 16.753906 26.292969 16.917969 25.988281 16.636719 C 25.539062 16.542969 25.023438 16.824219 24.574219 16.589844 C 24.316406 16.425781 24.011719 16.425781 23.75 16.519531 C 21.515625 16.800781 19.234375 16.304688 16.976562 16.707031 C 14.457031 16.566406 11.84375 17.105469 9.796875 18.589844 C 8.199219 19.53125 8.503906 21.601562 7.75 23.035156 C 6.644531 25.648438 7.375 28.589844 7.28125 31.34375 C 7.539062 34.613281 7.234375 37.789062 7.164062 41.058594 C 7.09375 42.730469 6.761719 44.402344 6.972656 46.046875 C 6.761719 46.660156 7.09375 47.273438 6.878906 47.882812 C 6.925781 48.121094 7.023438 48.402344 7.023438 48.636719 C 6.902344 50.964844 7.046875 53.296875 7.234375 55.625 C 6.902344 56.871094 7.257812 58.191406 7.117188 59.484375 C 7.117188 61.203125 6.925781 62.941406 7.1875 64.636719 C 6.902344 65.34375 7.28125 65.980469 7.351562 66.660156 C 7.210938 67.4375 7.328125 68.238281 7.257812 68.992188 C 7.328125 69.484375 7.539062 69.980469 7.28125 70.496094 C 7.234375 70.613281 7.234375 70.753906 7.28125 70.871094 C 7.140625 75.132812 7.65625 79.507812 7.304688 83.765625 C 7.515625 88.378906 7.023438 93.015625 7.09375 97.671875 C 7.117188 100.285156 7.140625 102.921875 7.984375 105.390625 C 8.058594 106.613281 8.785156 106.003906 9.304688 108.097656 C 9.445312 108.613281 10.011719 108.542969 10.339844 108.851562 C 11.070312 109.601562 12.269531 109.414062 13.1875 109.746094 C 13.988281 109.863281 14.832031 109.507812 15.585938 109.980469 C 16.691406 109.933594 17.820312 109.957031 18.953125 110.027344 C 19.988281 110.214844 20.929688 109.746094 21.941406 109.863281 C 22.691406 110.050781 23.46875 110.074219 24.222656 109.863281 C 24.363281 109.816406 24.503906 109.792969 24.644531 109.863281 C 25.609375 110.214844 26.667969 109.652344 27.632812 109.863281 C 28.128906 110.167969 28.667969 110.097656 29.210938 110.027344 C 31.375 109.863281 33.5625 110.050781 35.726562 110.027344 C 45.234375 110.121094 54.695312 109.53125 64.199219 110.378906 C 68.410156 110.238281 72.625 110.378906 76.8125 110.496094 C 78.484375 110.875 80.152344 110.449219 81.847656 110.496094 C 83.425781 110.425781 85.496094 110.640625 86.175781 108.875 C 86.859375 107.792969 87.636719 106.449219 87.210938 105.109375 C 87.117188 104.898438 87.117188 104.710938 87.257812 104.496094 C 87.707031 103.792969 87.496094 103.015625 87.351562 102.308594 C 87.164062 101.746094 87.351562 101.296875 87.449219 100.757812 C 87.449219 99.933594 87.1875 99.132812 87.351562 98.332031 C 87.070312 93.460938 87.683594 88.496094 87.613281 83.601562 Z M 87.542969 83.53125 " fill-opacity="1" fill-rule="nonzero"/><path fill="#d5d5d5" d="M 80.339844 60.824219 C 79.636719 58.425781 80.105469 55.835938 79.542969 53.390625 C 79.351562 51.71875 79.496094 50.046875 79.398438 48.402344 C 79.070312 44.589844 79.234375 40.730469 79.519531 36.964844 C 79.140625 33.175781 79.894531 29.273438 79.707031 25.4375 C 79.660156 23.953125 78.339844 22.777344 77.730469 21.53125 C 77.730469 21.390625 77.707031 21.246094 77.566406 21.222656 C 76.507812 20.753906 75.421875 20.355469 74.222656 20.519531 C 70.554688 20.472656 66.90625 20.234375 63.28125 20.871094 C 56.671875 21.578125 49.941406 21.976562 43.375 23.058594 C 39.894531 22.894531 36.410156 24.777344 32.976562 24.378906 C 32.882812 24.332031 32.785156 24.332031 32.714844 24.378906 C 32.199219 24.660156 31.609375 24.496094 31.046875 24.613281 C 30.714844 24.660156 30.339844 24.519531 29.988281 24.683594 C 29.75 24.683594 29.492188 24.519531 29.257812 24.566406 C 27.164062 24.566406 25.046875 24.753906 22.976562 24.589844 C 21.515625 24.871094 20.011719 24.449219 18.550781 24.683594 C 17.75 24.894531 16.953125 24.871094 16.152344 24.894531 C 15.75 24.894531 15.421875 24.941406 15.1875 25.320312 C 14.621094 26.046875 14.832031 25.976562 14.691406 26.824219 C 14.433594 27.53125 14.316406 28.378906 13.84375 28.941406 C 12.902344 28.542969 13.65625 27.035156 12.925781 26.519531 C 12.738281 26.824219 12.761719 27.199219 12.527344 27.484375 C 11 27.105469 11 30.871094 10.738281 31.859375 C 10.433594 33.105469 10.832031 34.355469 10.738281 35.578125 C 10.621094 35.835938 10.597656 36.09375 10.738281 36.355469 C 10.738281 37.625 10.269531 38.988281 10.574219 40.308594 C 10.363281 41.058594 10.222656 41.765625 10.457031 42.542969 C 10.457031 44.09375 10.105469 45.671875 10.457031 47.226562 C 10.480469 47.320312 10.574219 47.460938 10.550781 47.53125 C 10.386719 48.355469 10.597656 49.34375 10.597656 50.167969 C 10.925781 51.296875 11.304688 52.402344 11.585938 53.554688 C 11.679688 53.953125 11.867188 54.355469 11.46875 54.707031 C 11.445312 55.085938 11.375 55.484375 11.28125 55.882812 C 11.351562 58.285156 10.644531 60.777344 11.140625 63.085938 C 10.761719 63.296875 10.785156 63.625 10.949219 64.003906 C 11.1875 65.085938 10.949219 66.285156 11.164062 67.390625 C 11.28125 67.742188 11.398438 68.074219 11.164062 68.425781 C 11.070312 68.566406 11.164062 68.753906 11.210938 68.894531 C 11.796875 71.085938 11.75 73.296875 11.726562 75.53125 C 12.644531 74.992188 12.808594 77.25 12.878906 77.859375 C 12.902344 79.367188 13.820312 80.636719 13.726562 82.144531 C 13.9375 86.945312 14.246094 92.074219 14.714844 96.992188 C 14.855469 98.050781 14.902344 99.085938 14.832031 100.144531 C 15.023438 101.4375 14.878906 102.710938 15.328125 103.933594 C 15.609375 105.296875 18.953125 105.109375 20.128906 105.296875 C 27.164062 106.402344 34.339844 106.332031 41.46875 106.027344 C 42.175781 106.121094 42.644531 105.746094 43.1875 105.367188 C 44.765625 104.636719 46.644531 105.085938 48.222656 104.472656 C 46.222656 104.003906 44.175781 103.957031 42.128906 103.957031 C 43.445312 103.601562 44.765625 104.003906 46.058594 103.699219 C 45.09375 102.566406 45.492188 102.355469 46.789062 102.519531 C 48.953125 102.519531 51.09375 102.308594 53.257812 102.167969 C 53.683594 102.285156 53.871094 101.769531 54.269531 101.886719 C 55.777344 102.378906 57.164062 101.746094 58.695312 101.601562 C 60.222656 101.460938 61.328125 101.25 62.246094 100.921875 C 63.824219 100.542969 64.695312 100.449219 66.292969 100.472656 C 68.953125 100.589844 71.660156 99.957031 74.316406 100.144531 C 78.484375 100.449219 79.636719 100.898438 79.234375 96.519531 C 79.398438 94.542969 79.234375 92.589844 79.472656 90.589844 C 79.753906 89.839844 79.023438 89.203125 79.28125 88.496094 C 79.707031 87.816406 79.351562 87.109375 79.425781 86.425781 C 79.730469 85.933594 79.613281 85.414062 79.542969 84.898438 C 79.398438 83.15625 79.542969 81.390625 79.777344 79.671875 C 79.777344 77.742188 79.988281 75.765625 79.777344 73.882812 C 80.082031 73.414062 79.824219 72.894531 79.964844 72.402344 C 80.246094 71.957031 79.753906 71.53125 80.011719 71.085938 C 80.339844 70.402344 80.292969 69.554688 80.011719 68.871094 C 79.941406 68.777344 79.988281 68.660156 80.011719 68.566406 C 80.4375 67.71875 80.152344 66.847656 80.011719 66.003906 C 79.894531 64.707031 80.742188 63.34375 80.386719 62.050781 C 80.292969 61.554688 80.789062 61.414062 80.386719 60.871094 Z M 80.339844 60.824219 " fill-opacity="1" fill-rule="nonzero"/><path fill="#d5d5d5" d="M 83.542969 89.839844 C 83.402344 86.261719 83.800781 82.402344 82.71875 78.96875 C 82.601562 78.144531 82.671875 77.296875 82.507812 76.496094 C 82.507812 76.121094 82.648438 75.71875 82.414062 75.34375 C 82.386719 75.320312 82.414062 75.226562 82.414062 75.179688 C 82.71875 74.496094 82.363281 73.8125 82.460938 73.132812 C 82.414062 72.402344 82.4375 71.554688 82.175781 70.871094 C 79.328125 68.613281 81.140625 84.214844 80.765625 85.742188 C 80.765625 90.496094 80.648438 95.273438 80.765625 100.003906 C 81.988281 100.78125 80.507812 102.027344 80.199219 102.96875 C 81.046875 102.945312 82.789062 103.414062 82.625 102.121094 C 82.507812 101.109375 82.90625 100.191406 83.210938 99.273438 C 83.800781 96.167969 83.472656 92.992188 83.566406 89.863281 Z M 83.542969 89.839844 " fill-opacity="1" fill-rule="nonzero"/><path fill="#3c3e5e" d="M 37.632812 43.058594 C 37.46875 41.4375 37.609375 39.789062 37.585938 38.164062 C 37.492188 37.273438 37.492188 37.226562 36.691406 36.917969 C 36.8125 35.058594 32.859375 36.285156 31.65625 35.8125 C 29.609375 35.226562 27.585938 35.90625 25.796875 36.917969 C 23.679688 37.414062 25.28125 44.660156 25.539062 46.308594 C 25.515625 46.472656 25.539062 46.636719 25.679688 46.730469 C 25.988281 46.964844 26.058594 47.273438 26.035156 47.625 C 26.105469 48.144531 26.339844 48.800781 26.808594 49.058594 C 28.199219 49.554688 29.46875 48.636719 30.859375 48.660156 C 32.929688 48.753906 34.929688 48.191406 36.976562 48.09375 C 37.46875 48.121094 37.539062 47.601562 37.492188 47.226562 C 37.164062 45.8125 37.5625 44.449219 37.65625 43.082031 Z M 37.632812 43.058594 " fill-opacity="1" fill-rule="nonzero"/><path fill="#3c3e5e" d="M 36.339844 83.71875 C 36.035156 83.71875 35.726562 83.71875 35.421875 83.578125 C 35.5625 82.003906 32.082031 82.332031 31.09375 82.613281 C 29.847656 83.015625 28.621094 82.167969 27.421875 82.777344 C 26.859375 83.015625 26.410156 83.460938 25.894531 83.765625 C 25.632812 84.121094 25.820312 84.683594 25.632812 85.085938 C 25.28125 86.355469 24.832031 87.839844 25.1875 89.109375 C 25.375 89.320312 25.375 89.578125 25.257812 89.816406 C 25.164062 90.027344 25.117188 90.238281 25.257812 90.425781 C 25.539062 90.875 25.398438 91.414062 25.539062 91.886719 C 25.871094 92.992188 25.539062 94.074219 27.164062 94.050781 C 28.785156 94.050781 30.363281 93.601562 31.941406 93.414062 C 33.492188 93.34375 35.234375 93.578125 36.339844 92.238281 C 35.988281 91.34375 36.882812 89.910156 36.953125 88.898438 C 37.023438 87.695312 37.964844 83.980469 36.363281 83.695312 Z M 36.339844 83.71875 " fill-opacity="1" fill-rule="nonzero"/><path fill="#3c3e5e" d="M 25.796875 62.519531 C 25.703125 63.132812 25.679688 63.742188 25.796875 64.355469 C 25.5625 65.015625 25.871094 65.648438 25.894531 66.285156 C 25.988281 67.695312 25.375 71.015625 26.738281 71.695312 C 27.917969 72.355469 29.164062 71.601562 30.363281 71.882812 C 31.988281 71.933594 33.773438 71.71875 35.304688 71.203125 C 36.386719 70.261719 36.011719 68.847656 35.988281 67.578125 C 35.824219 66.238281 36.105469 64.824219 35.941406 63.53125 C 35.515625 62.167969 35.375 59.671875 33.445312 59.90625 C 31.824219 59.90625 30.269531 60.542969 28.621094 60.402344 C 27.421875 60.332031 25.726562 60.214844 26.292969 61.976562 C 26.152344 62.214844 25.84375 62.285156 25.84375 62.566406 Z M 25.796875 62.519531 " fill-opacity="1" fill-rule="nonzero"/><path fill="#000000" d="M 81.589844 75.789062 C 82.339844 64.355469 81.917969 52.824219 82.625 41.390625 C 82.625 38.285156 83.117188 35.105469 82.507812 32.046875 C 82.484375 29.199219 82.90625 26.332031 82.648438 23.484375 C 82.554688 21.222656 81.472656 21.414062 79.636719 21.53125 C 76.058594 21.507812 72.507812 21.578125 68.953125 21.601562 C 60.742188 21.953125 52.503906 21.484375 44.292969 21.601562 C 38.714844 21.578125 33.1875 21.484375 27.632812 21.484375 C 24.433594 21.246094 21.234375 21.105469 18.035156 21.367188 C 16.433594 21.625 14.667969 21.175781 13.210938 22 C 12.855469 22.210938 12.808594 22.304688 13 22.636719 C 12.832031 24.660156 12.832031 26.847656 12.902344 28.964844 C 12.949219 33.742188 12.152344 38.542969 12.574219 43.273438 C 12.621094 43.742188 12.316406 44.167969 12.480469 44.636719 C 12.550781 44.941406 12.503906 45.25 12.316406 45.554688 C 11.988281 41.671875 12.363281 37.695312 12.199219 33.789062 C 12.011719 32.449219 12.738281 26.472656 11.539062 26.210938 C 10.738281 36.238281 11.351562 46.378906 11.914062 56.402344 C 12.082031 60.121094 11.9375 63.8125 11.726562 67.484375 C 11.867188 70.402344 11.867188 73.34375 11.796875 76.261719 C 11.796875 81.414062 11.960938 86.660156 11.988281 91.769531 C 12.222656 94.097656 12.269531 96.332031 12.222656 98.660156 C 12.292969 99.25 12.316406 99.816406 12.222656 100.402344 C 12.199219 101.015625 12.386719 101.648438 11.867188 102.167969 C 12.503906 102.78125 13.28125 102.898438 14.035156 103.0625 C 14.105469 103.273438 13.75 103.367188 14.222656 103.460938 C 17.398438 103.933594 20.597656 104.144531 23.796875 104.332031 C 30.457031 104.589844 37.164062 104.664062 43.800781 104.378906 C 37.964844 103.578125 31.773438 103.839844 25.820312 103.320312 C 37.234375 103.226562 48.835938 103.414062 60.292969 103.722656 C 60.71875 103.722656 61.09375 103.746094 61.492188 103.648438 C 61.894531 103.957031 62.363281 103.816406 62.789062 103.863281 C 63.515625 104.074219 64.316406 103.910156 65.046875 104.144531 C 65.636719 104.332031 66.222656 104.027344 66.789062 104.144531 C 67.140625 104.355469 67.515625 104.308594 67.894531 104.285156 C 70.363281 104.402344 72.953125 104.589844 75.472656 104.238281 C 76.386719 104.121094 77.328125 104.238281 78.222656 103.933594 C 79.023438 103.933594 79.871094 104.050781 80.625 103.601562 C 81.519531 103.203125 80.71875 102.308594 81.210938 101.671875 C 81.519531 101.203125 81.613281 100.6875 81.589844 100.121094 C 81.496094 91.980469 81.566406 83.839844 81.613281 75.695312 Z M 12.339844 47.953125 L 12.339844 46.191406 C 12.691406 46.542969 12.269531 47.035156 12.597656 47.4375 C 12.738281 47.648438 12.597656 47.8125 12.339844 47.953125 Z M 80.152344 24.519531 C 79.730469 30.613281 79.988281 36.753906 79.542969 42.871094 C 79.964844 43.695312 79.117188 44.472656 79.542969 45.273438 C 79.988281 45.953125 79.304688 46.214844 79.304688 46.824219 C 79.472656 47.34375 79.1875 47.882812 79.398438 48.402344 C 79.257812 50.917969 79.140625 53.484375 79.28125 56 C 79.28125 57.484375 79.046875 59.039062 79.234375 60.519531 C 79.351562 61.039062 78.90625 61.554688 79.304688 62.027344 C 79.140625 63.296875 78.859375 64.683594 79.1875 66.003906 C 79.304688 66.566406 78.765625 67.0625 79.117188 67.601562 C 79.1875 67.765625 79.257812 67.929688 79.210938 68.121094 C 78.53125 69.765625 79.375 71.484375 78.929688 73.132812 C 78.835938 73.980469 78.742188 74.96875 79.09375 75.8125 C 79.304688 76.308594 78.695312 76.636719 78.882812 77.179688 C 78.953125 77.789062 79.1875 78.402344 78.90625 79.015625 C 79.234375 79.554688 78.835938 80.121094 79 80.660156 C 79.117188 81.015625 79 81.4375 79.257812 81.789062 C 78.859375 82.425781 79.140625 83.085938 79.023438 83.765625 C 79.140625 84.945312 78.882812 86.097656 79.070312 87.273438 C 79.117188 87.71875 79.328125 88.144531 79.140625 88.589844 C 78.789062 89.25 79.328125 89.863281 79.023438 90.519531 C 78.859375 90.96875 79.351562 91.390625 79.09375 91.863281 C 79.1875 94.945312 79.421875 98.238281 79.234375 101.414062 C 79.140625 102.027344 78.292969 102.121094 77.753906 102.027344 C 75.117188 101.722656 72.433594 102.074219 69.800781 101.699219 C 64.601562 101.25 59.375 101.34375 54.175781 101.554688 C 48.152344 101.769531 42.105469 101.980469 36.105469 101.296875 C 32.761719 100.96875 29.492188 101.460938 26.152344 101.4375 C 23.234375 101.671875 20.292969 101.554688 17.351562 101.671875 C 16.339844 101.578125 15.164062 101.910156 14.246094 101.367188 C 13.703125 100.074219 14.199219 98.402344 14.035156 96.992188 C 13.988281 91.273438 13.726562 85.554688 13.988281 79.835938 C 14.339844 75.320312 14.621094 70.824219 14.714844 66.308594 C 14.832031 52 14.339844 37.648438 15.046875 23.367188 C 27.941406 22.660156 40.976562 25.105469 53.824219 24.613281 C 59.707031 24.355469 65.566406 24.09375 71.445312 23.859375 C 73.398438 24.449219 80.8125 21.222656 80.128906 24.496094 Z M 80.152344 24.519531 " fill-opacity="1" fill-rule="nonzero"/><path fill="#000000" d="M 82.929688 92.945312 C 82.765625 88.332031 82.929688 83.742188 82.742188 79.132812 C 82.578125 78.636719 82.835938 77.273438 82.316406 77.15625 C 81.988281 77.15625 82.058594 77.460938 82.058594 77.648438 C 81.964844 82.449219 81.871094 87.25 81.871094 92.050781 C 81.871094 95.507812 81.777344 98.945312 81.800781 102.402344 C 81.730469 103.0625 82.695312 103.0625 82.835938 102.496094 C 82.90625 99.320312 82.929688 96.121094 82.929688 92.945312 Z M 82.929688 92.945312 " fill-opacity="1" fill-rule="nonzero"/><path fill="#000000" d="M 36.550781 36 C 36.835938 32.683594 32.953125 33.273438 30.808594 33.648438 C 28.339844 33.882812 25.917969 34.117188 23.515625 34.753906 C 22.882812 37.8125 23.398438 41.179688 23.46875 44.285156 C 23.726562 45.15625 23.164062 46.191406 24.175781 46.777344 C 25.234375 47.976562 26.832031 47.8125 28.316406 47.929688 C 29.234375 48.046875 30.175781 47.835938 31.09375 48 C 32.644531 48.191406 34.058594 47.320312 35.585938 47.601562 C 36.386719 47.742188 35.941406 46.660156 35.964844 46.167969 C 36.644531 45.742188 36.714844 45.71875 36.597656 45.035156 C 36.503906 42 36.667969 39.011719 36.597656 36 Z M 34.339844 41.105469 C 34.082031 42.613281 34.550781 44.191406 34.222656 45.671875 C 33.023438 45.625 31.847656 46.144531 30.667969 45.976562 C 29.117188 45.976562 27.515625 46.046875 25.941406 45.976562 C 25.75 45.035156 25.609375 44.117188 25.585938 43.15625 C 25.304688 42.449219 25.304688 41.671875 25.210938 40.917969 C 25.023438 39.035156 24.457031 37.152344 24.597656 35.25 C 27.75 35.128906 30.90625 35.367188 34.011719 35.128906 C 34.339844 36.140625 33.894531 37.320312 34.246094 38.378906 C 34.058594 39.296875 34.222656 40.164062 34.339844 41.082031 Z M 34.339844 41.105469 " fill-opacity="1" fill-rule="nonzero"/><path fill="#000000" d="M 36.222656 69.179688 C 35.375 68.402344 36.574219 64.121094 36.339844 62.730469 C 35.917969 58.753906 36.738281 56.660156 31.703125 57.578125 C 29.539062 58.378906 25.46875 56.777344 24.082031 59.34375 C 23.539062 62.355469 23.632812 65.625 23.988281 68.683594 C 24.128906 69.695312 24.199219 69.71875 25.023438 70.285156 C 25.679688 70.800781 26.644531 70.660156 27.421875 70.871094 C 29.09375 70.824219 30.785156 70.660156 32.433594 70.917969 C 33.539062 70.800781 37.609375 71.296875 36.222656 69.179688 Z M 34.527344 64.144531 C 34.363281 65.484375 34.246094 66.847656 34.363281 68.191406 C 34.597656 69.34375 32.292969 68.753906 31.679688 68.683594 C 31.1875 68.945312 30.691406 68.683594 30.222656 68.613281 C 28.808594 68.660156 27.492188 68.800781 26.058594 68.777344 C 25.871094 65.695312 25.871094 62.636719 25.515625 59.554688 C 27.632812 59.695312 29.726562 59.789062 31.726562 59.882812 C 32.292969 59.625 32.929688 59.789062 33.515625 59.625 C 34.082031 59.460938 34.105469 59.695312 34.199219 60.144531 C 34.339844 61.484375 34.621094 62.800781 34.480469 64.167969 Z M 34.527344 64.144531 " fill-opacity="1" fill-rule="nonzero"/><path fill="#000000" d="M 70.789062 40.425781 C 64.765625 40.800781 58.574219 41.296875 52.457031 41.296875 C 51.328125 41.035156 50.175781 41.625 49.070312 41.226562 C 48.667969 40.988281 48.246094 41.390625 47.824219 41.34375 C 46.644531 41.058594 45.515625 41.4375 44.363281 41.578125 C 44.175781 41.53125 44.035156 41.53125 43.894531 41.578125 C 43.09375 41.976562 41.988281 41.835938 41.632812 42.824219 C 41.140625 44.542969 43.515625 44.261719 44.550781 44.308594 C 45.515625 44.191406 46.480469 44.589844 47.445312 44.191406 C 48.082031 44.09375 48.742188 44.472656 49.398438 44.191406 C 49.492188 44.167969 49.609375 44.191406 49.707031 44.214844 C 51.375 44.542969 53.070312 43.976562 54.742188 44.214844 C 56.503906 43.789062 58.363281 43.882812 60.175781 43.53125 C 62.035156 43.34375 63.894531 43.390625 65.753906 43.035156 C 66.742188 43.25 67.730469 42.941406 68.71875 42.964844 C 69.941406 43.15625 71.234375 42.472656 71.304688 41.128906 C 71.351562 40.660156 71.234375 40.472656 70.789062 40.355469 Z M 70.789062 40.425781 " fill-opacity="1" fill-rule="nonzero"/><path fill="#000000" d="M 70.648438 34.449219 C 63.234375 34.566406 55.871094 34.613281 48.433594 35.367188 C 47.164062 35.648438 41.964844 34.964844 41.632812 36.023438 C 41.65625 38.425781 44.8125 37.414062 46.386719 37.742188 C 49.5625 37.8125 52.648438 37.695312 55.824219 37.34375 C 58.011719 37.414062 60.175781 37.320312 62.339844 37.082031 C 62.601562 37.34375 62.90625 37.203125 63.1875 37.175781 C 63.730469 37.152344 64.292969 37.226562 64.835938 37.082031 C 65.257812 37.128906 65.660156 37.296875 66.082031 37.082031 C 67.257812 36.660156 68.625 37.320312 69.800781 36.800781 C 71.636719 37.4375 72.929688 34.777344 70.625 34.449219 Z M 70.648438 34.449219 " fill-opacity="1" fill-rule="nonzero"/><path fill="#000000" d="M 35.941406 80.777344 C 35.65625 80.261719 35.585938 80.191406 35 80.238281 C 34.128906 80.332031 33.257812 80.238281 32.386719 80.238281 C 29.941406 80.542969 27.421875 80.332031 25 80.589844 C 24.644531 80.308594 24.339844 80.003906 23.894531 79.886719 C 23.445312 82.96875 23.398438 86.144531 23.375 89.273438 C 23.445312 90.214844 23.023438 91.25 23.65625 92.074219 C 24.152344 92.707031 28.035156 92.707031 29.070312 92.78125 C 31.070312 92.636719 33.070312 93.015625 35.046875 92.566406 C 35.632812 90.050781 36.105469 87.484375 36.105469 84.851562 C 36.105469 83.507812 36.527344 82.074219 35.964844 80.777344 Z M 34.597656 83.933594 C 34.480469 86.238281 34.339844 88.542969 34.457031 90.851562 C 32.128906 90.96875 29.871094 91.132812 27.5625 91.015625 C 26.953125 90.828125 25.492188 91.367188 25.28125 90.707031 C 24.929688 87.792969 25.28125 84.898438 25.28125 82.003906 C 25.773438 81.71875 27.117188 82.285156 27.796875 82.285156 C 29.609375 82.238281 31.492188 82.308594 33.304688 82.097656 C 33.609375 82.050781 33.847656 82.332031 34.175781 82.144531 C 35.023438 81.957031 34.574219 83.414062 34.644531 83.910156 Z M 34.597656 83.933594 " fill-opacity="1" fill-rule="nonzero"/><path fill="#000000" d="M 69.988281 66.167969 C 68.71875 65.648438 67.375 66.214844 66.058594 66.144531 C 63.847656 66.238281 61.636719 66.285156 59.398438 66.238281 C 56.269531 66.238281 53.09375 66.003906 49.988281 66.472656 C 47.683594 66.800781 45.140625 66.519531 42.953125 67.179688 C 43.398438 68.121094 44.480469 68.96875 45.5625 68.945312 C 46.035156 68.847656 46.480469 68.992188 46.929688 69.039062 C 47.707031 69.226562 48.503906 69.039062 49.257812 69.109375 C 49.847656 69.460938 50.410156 68.894531 51.023438 69.0625 C 51.917969 69.179688 52.835938 69.179688 53.730469 68.992188 C 55.117188 68.753906 56.597656 69.320312 57.941406 68.707031 C 58.410156 68.402344 58.742188 68.871094 59.210938 68.800781 C 59.847656 68.613281 60.480469 68.496094 61.140625 68.566406 C 61.46875 68.308594 61.777344 68.636719 62.128906 68.566406 C 62.742188 68.496094 63.351562 68.191406 63.988281 68.496094 C 65.328125 68.308594 66.71875 68.589844 68.058594 68.308594 C 68.859375 68.121094 69.964844 68.566406 70.554688 67.789062 C 70.859375 67.085938 70.71875 66.472656 70.011719 66.191406 Z M 69.988281 66.167969 " fill-opacity="1" fill-rule="nonzero"/><path fill="#000000" d="M 69.117188 83.226562 C 68.554688 82.542969 67.375 82.921875 66.601562 82.589844 C 66.269531 82.589844 65.988281 82.851562 65.683594 82.589844 C 62.765625 82.449219 59.707031 82.542969 56.789062 82.566406 C 56.503906 82.613281 56.222656 82.355469 55.941406 82.496094 C 55.777344 82.566406 55.636719 82.496094 55.46875 82.496094 C 54.363281 82.167969 53.257812 82.589844 52.152344 82.332031 C 50.742188 81.980469 49.257812 82.238281 47.800781 82.285156 C 46.433594 82.238281 45 82.308594 43.632812 82.449219 C 42.976562 85.039062 46.71875 84.378906 48.222656 84.542969 C 52.128906 84.636719 56.035156 84.753906 59.941406 84.613281 C 62.199219 84.589844 64.457031 84.96875 66.742188 84.851562 C 67.964844 85.132812 70.082031 84.96875 69.070312 83.226562 Z M 69.117188 83.226562 " fill-opacity="1" fill-rule="nonzero"/><path fill="#000000" d="M 45.421875 62.214844 C 46.433594 61.929688 47.46875 62.285156 48.503906 62.121094 C 49.070312 62.074219 49.632812 61.8125 50.199219 61.835938 C 53.800781 62.003906 57.492188 61.554688 61.164062 61.507812 C 63.753906 60.988281 68.835938 61.882812 70.671875 60.261719 C 68.859375 59.8125 67.117188 60.167969 65.304688 60.144531 C 58.550781 60.214844 51.847656 59.601562 45.09375 59.53125 C 41.679688 59.460938 41.894531 62.964844 45.421875 62.214844 Z M 45.421875 62.214844 " fill-opacity="1" fill-rule="nonzero"/><path fill="#000000" d="M 69.1875 89.015625 C 68.929688 87.792969 67.445312 88.378906 66.578125 88.308594 C 63.566406 88.238281 60.527344 88.144531 57.515625 88.121094 C 52.765625 88.167969 47.753906 87.179688 43.164062 88.730469 C 44.550781 90.050781 46.882812 89.625 48.667969 89.695312 C 52.765625 89.601562 56.882812 89.578125 60.976562 89.742188 C 63.445312 89.742188 65.917969 89.980469 68.410156 90.050781 C 69.304688 90.167969 69.304688 89.910156 69.1875 88.992188 Z M 69.1875 89.015625 " fill-opacity="1" fill-rule="nonzero"/><path fill="#febf00" d="M 103.894531 13.671875 C 101 13.269531 98.128906 13.8125 95.234375 13.90625 C 94.484375 13.929688 93.332031 14.304688 92.765625 13.765625 C 91.683594 12.09375 96.976562 5.316406 94.929688 5.460938 C 92.695312 6.351562 90.929688 8.375 88.484375 9.011719 C 87.613281 9.105469 86.339844 9.011719 85.988281 8.046875 C 85.328125 7.410156 84.976562 6.613281 84.671875 5.742188 C 84.269531 4.824219 84.671875 3.742188 84.128906 2.894531 C 83.988281 2.28125 83.941406 1.625 83.683594 1.035156 C 83.449219 0 81.613281 0.09375 81.210938 0.964844 C 80.484375 3.90625 79.894531 6.847656 79.046875 9.765625 C 78.789062 10.425781 79.070312 13.460938 80.105469 12.140625 C 80.835938 10.09375 81.28125 7.859375 82.105469 5.882812 C 82.789062 7.859375 83.449219 10.496094 85.660156 11.246094 C 87.660156 12.636719 89.753906 10.566406 91.425781 9.625 C 90.058594 12.046875 88.835938 16.117188 92.625 16.894531 C 93.636719 17.105469 94.601562 16.613281 95.589844 16.683594 C 95.941406 16.800781 96.035156 16.28125 96.390625 16.425781 C 96.320312 16.707031 96.105469 16.800781 95.847656 16.824219 C 95.09375 16.964844 94.507812 17.53125 93.824219 17.859375 C 93.304688 18.472656 92.390625 18.210938 92.082031 19.035156 C 91.613281 19.953125 93.117188 22.09375 94.105469 21.035156 C 94.671875 20.496094 95.355469 20.355469 96.082031 20.234375 C 98.175781 19.082031 100.246094 18 102.414062 16.988281 C 103.332031 16.824219 105.472656 14.210938 103.917969 13.765625 Z M 103.894531 13.671875 " fill-opacity="1" fill-rule="nonzero"/><g clip-path="url(#baa83a339c)"><path fill="#febf00" d="M 3.445312 95.296875 C 3.351562 94.144531 3.75 89.25 1.9375 89.625 C 0.691406 90.449219 0.363281 91.886719 0.457031 93.273438 C 0.457031 94.167969 0.457031 95.085938 0.457031 95.980469 C 0.621094 96.496094 0.714844 97.015625 0.527344 97.554688 C 0.480469 97.746094 0.480469 97.910156 0.621094 98.050781 C 1.257812 98.710938 1.257812 99.769531 2.152344 100.191406 C 3.046875 100.660156 2.785156 98.992188 3.140625 98.519531 C 3.351562 98.003906 3.515625 97.484375 3.304688 96.921875 C 3.140625 96.378906 3.585938 95.839844 3.445312 95.273438 Z M 3.445312 95.296875 " fill-opacity="1" fill-rule="nonzero"/></g><g clip-path="url(#4a077e2d3c)"><path fill="#febf00" d="M 3.375 63.765625 C 3.328125 63.390625 3.234375 63.085938 2.925781 62.847656 C 0.175781 63.507812 1.28125 66.683594 1.1875 68.730469 C 1.09375 69.695312 0.597656 71.460938 1.5625 72.050781 C 2.550781 72.355469 3.46875 72.097656 3.445312 70.847656 C 3.445312 68.496094 3.609375 66.121094 3.375 63.765625 Z M 3.375 63.765625 " fill-opacity="1" fill-rule="nonzero"/></g><path fill="#febf00" d="M 3.867188 54.660156 C 3.984375 54.261719 3.632812 53.835938 3.773438 53.390625 C 3.9375 52.355469 2.972656 50.472656 1.820312 51.507812 C 0.808594 52.472656 1.46875 54.023438 1.304688 55.273438 C 1.09375 56.214844 1.398438 57.109375 1.304688 58.074219 C 1.398438 58.261719 1.328125 58.472656 1.328125 58.683594 C 1.375 59.484375 2.550781 59.4375 3.164062 59.460938 C 4.105469 59.53125 4.082031 56.402344 3.867188 55.71875 C 3.773438 55.390625 3.703125 55.011719 3.867188 54.660156 Z M 3.867188 54.660156 " fill-opacity="1" fill-rule="nonzero"/><path fill="#febf00" d="M 33.09375 60.871094 C 32.175781 60.167969 31.632812 61.484375 31.070312 62.003906 C 30.082031 63.039062 29.257812 64.097656 28.386719 65.273438 C 28.152344 65.085938 28.128906 64.824219 28.011719 64.636719 C 27.726562 63.976562 26.316406 63.742188 26.527344 64.753906 C 26.574219 66.121094 27.117188 67.15625 28.550781 67.4375 C 29.632812 67.296875 30.105469 65.8125 30.761719 65.0625 C 31.515625 64.378906 32.175781 63.578125 32.691406 62.707031 C 33.351562 62.332031 33.773438 61.507812 33.09375 60.917969 Z M 33.09375 60.871094 " fill-opacity="1" fill-rule="nonzero"/><g clip-path="url(#b347661971)"><path fill="#febf00" d="M 0.902344 81.015625 C 1.019531 82.707031 0.269531 85.910156 2.503906 86.378906 C 3.539062 85.484375 3.1875 77.4375 2.007812 76.472656 C 1.304688 77.296875 1.1875 78.074219 1.070312 79.0625 C 1.019531 79.226562 0.949219 79.390625 1.019531 79.53125 C 1.164062 80.027344 0.925781 80.519531 0.902344 81.015625 Z M 0.902344 81.015625 " fill-opacity="1" fill-rule="nonzero"/></g><g clip-path="url(#fff8e7ef00)"><path fill="#febf00" d="M 0.855469 31.152344 C 0.996094 31.859375 1.070312 32.613281 1.445312 33.273438 C 1.914062 34.332031 3.304688 33.789062 3.46875 32.800781 C 3.5625 30.871094 3.703125 28.800781 3.164062 26.941406 C 2.878906 26.425781 2.105469 26.660156 1.632812 26.683594 C 0.386719 26.472656 0.972656 30.261719 0.855469 31.152344 Z M 0.855469 31.152344 " fill-opacity="1" fill-rule="nonzero"/></g><path fill="#febf00" d="M 27.234375 44.847656 C 28.953125 45.765625 30.597656 42.214844 31.351562 40.964844 C 31.824219 39.671875 33.023438 38.542969 33.023438 37.152344 C 31.375 36.308594 29.726562 41.789062 28.433594 42.707031 C 28.199219 42.023438 27.773438 41.105469 26.90625 41.507812 C 25.917969 42.023438 27 44 27.234375 44.847656 Z M 27.234375 44.847656 " fill-opacity="1" fill-rule="nonzero"/><g clip-path="url(#810c9ba59c)"><path fill="#febf00" d="M 3.28125 41.273438 C 3.492188 40.402344 1.773438 38.164062 1.117188 38.917969 C 0.902344 41.058594 0.574219 44.472656 1.890625 46.332031 C 3.046875 47.132812 3.1875 45.390625 3.1875 44.636719 C 3.046875 43.507812 3.328125 42.425781 3.28125 41.296875 Z M 3.28125 41.273438 " fill-opacity="1" fill-rule="nonzero"/></g><g clip-path="url(#66f2c813de)"><path fill="#3c3e5e" d="M 107.425781 109.578125 C 107.140625 106.992188 106.058594 104.167969 103.355469 103.320312 C 103.09375 103.226562 102.976562 103.109375 102.953125 102.851562 C 102.53125 100.472656 101.402344 97.886719 99.234375 96.636719 C 98.625 96.355469 98.601562 95.886719 98.648438 95.320312 C 98.742188 91.886719 97.285156 88.804688 95.519531 85.957031 C 95.730469 85.886719 95.871094 85.957031 96.011719 86.027344 C 96.578125 86.402344 97.234375 86.472656 97.894531 86.613281 C 98.53125 86.730469 99 85.578125 98.742188 85.085938 C 97.753906 83.625 95.730469 83.625 94.320312 82.800781 C 93.378906 82.121094 92.199219 82.308594 91.1875 82.707031 C 90.246094 83.179688 91.046875 84.496094 91.1875 85.25 C 91.800781 86.449219 91.332031 88.898438 92.695312 89.4375 C 93.023438 88.050781 92.695312 86.613281 92.976562 85.25 C 94.269531 85.132812 95.164062 89.695312 95.871094 90.753906 C 96.269531 92.214844 96.625 93.648438 96.742188 95.132812 C 97.09375 96.285156 94.695312 95.863281 94.367188 97.34375 C 92.882812 99.15625 92.882812 101.746094 95.355469 102.660156 C 97.917969 103.0625 98.175781 99.039062 98.578125 97.25 C 100.695312 98.003906 100.90625 100.875 101.285156 102.78125 C 101.332031 103.699219 99.964844 103.554688 99.519531 104.238281 C 98.128906 105.460938 96.835938 106.96875 96.53125 108.851562 C 95.566406 110.710938 96.035156 113.15625 98.011719 114.144531 C 100.273438 114.96875 101.449219 111.15625 102.152344 109.578125 C 102.554688 108.121094 102.976562 106.640625 103.09375 105.132812 C 103.285156 104.636719 104.058594 105.085938 104.273438 105.484375 C 105.589844 107.886719 105.402344 110.6875 105.1875 113.320312 C 104.90625 114.425781 105.214844 116.308594 104.082031 116.921875 C 103.988281 116.921875 103.894531 116.921875 103.847656 117.0625 C 106.648438 120.78125 107.847656 111.273438 107.449219 109.578125 Z M 96.296875 98.683594 C 95.917969 99.648438 95.753906 100.898438 94.765625 101.4375 C 94.035156 100.828125 94.8125 99.367188 95.1875 98.683594 C 95.308594 97.933594 96.011719 97.769531 96.4375 97.320312 C 96.4375 97.320312 96.507812 97.320312 96.53125 97.34375 C 96.53125 97.746094 96.34375 98.238281 96.296875 98.660156 Z M 101.308594 106.003906 C 100.835938 108.542969 99.894531 111.320312 97.660156 112.828125 C 97.378906 112.542969 97.402344 112.285156 97.472656 112.050781 C 97.824219 109.578125 99.140625 107.34375 101.023438 105.722656 C 101.1875 105.554688 101.378906 105.816406 101.308594 105.980469 Z M 101.308594 106.003906 " fill-opacity="1" fill-rule="nonzero"/></g><path fill="#efe3d4" d="M 87.542969 83.53125 C 87.636719 81.203125 87.351562 78.847656 87.328125 76.472656 C 87.1875 73.320312 87.328125 70.074219 87.070312 66.96875 C 87.328125 66.519531 87.070312 66.003906 87.09375 65.554688 C 87.472656 64.566406 86.882812 63.53125 87.210938 62.519531 C 87.117188 60.449219 86.976562 58.402344 87.257812 56.332031 C 87.210938 54.753906 87.328125 53.15625 87.117188 51.601562 C 87.378906 51.25 86.976562 50.917969 87.070312 50.566406 C 87.257812 49.789062 86.976562 49.011719 87.140625 48.238281 C 86.929688 47.882812 87.046875 47.53125 87.140625 47.203125 C 87.257812 46.707031 86.859375 46.261719 87.140625 45.789062 C 87.613281 44.214844 87.023438 42.613281 87.378906 41.035156 C 87.164062 40.378906 87.496094 39.695312 87.304688 39.011719 C 87.257812 38.847656 87.164062 38.683594 87.257812 38.496094 C 87.257812 36.683594 87.210938 34.800781 87.378906 32.941406 C 87.660156 31.859375 87.09375 30.730469 87.496094 29.671875 C 87.589844 28.425781 87.234375 27.128906 87.304688 25.859375 C 86.8125 23.859375 87.824219 21.648438 86.648438 19.859375 C 86.363281 19.484375 86.554688 18.964844 86.128906 18.683594 C 84.671875 17.554688 83.164062 15.953125 81.117188 16.378906 C 80.152344 16.753906 79.140625 16.09375 78.222656 16.449219 C 78.105469 16.519531 77.988281 16.519531 77.847656 16.472656 C 77.398438 16.304688 77.046875 16.753906 76.601562 16.613281 C 69.375 16 62.128906 16.28125 54.90625 16.210938 C 53.988281 16.613281 53.023438 16.023438 52.152344 16.28125 C 51.707031 16.566406 51.257812 16.472656 50.8125 16.28125 C 47.824219 16.234375 44.789062 16.28125 41.824219 16.472656 C 39.375 16.472656 37 16.613281 34.574219 16.707031 C 32.859375 16.847656 31.046875 16.402344 29.351562 16.660156 C 28.503906 16.964844 27.726562 16.304688 26.882812 16.660156 C 26.574219 16.753906 26.292969 16.917969 25.988281 16.636719 C 25.539062 16.542969 25.023438 16.824219 24.574219 16.589844 C 24.316406 16.425781 24.011719 16.425781 23.75 16.519531 C 21.515625 16.800781 19.234375 16.304688 16.976562 16.707031 C 14.457031 16.566406 11.84375 17.105469 9.796875 18.589844 C 8.199219 19.53125 8.503906 21.601562 7.75 23.035156 C 6.644531 25.648438 7.375 28.589844 7.28125 31.34375 C 7.539062 34.613281 7.234375 37.789062 7.164062 41.058594 C 7.09375 42.730469 6.761719 44.402344 6.972656 46.046875 C 6.761719 46.660156 7.09375 47.273438 6.878906 47.882812 C 6.925781 48.121094 7.023438 48.402344 7.023438 48.636719 C 6.902344 50.964844 7.046875 53.296875 7.234375 55.625 C 6.902344 56.871094 7.257812 58.191406 7.117188 59.484375 C 7.117188 61.203125 6.925781 62.941406 7.1875 64.636719 C 6.902344 65.34375 7.28125 65.980469 7.351562 66.660156 C 7.210938 67.4375 7.328125 68.238281 7.257812 68.992188 C 7.328125 69.484375 7.539062 69.980469 7.28125 70.496094 C 7.234375 70.613281 7.234375 70.753906 7.28125 70.871094 C 7.140625 75.132812 7.65625 79.507812 7.304688 83.765625 C 7.515625 88.378906 7.023438 93.015625 7.09375 97.671875 C 7.117188 100.285156 7.140625 102.921875 7.984375 105.390625 C 8.058594 106.613281 8.785156 106.003906 9.304688 108.097656 C 9.445312 108.613281 10.011719 108.542969 10.339844 108.851562 C 11.070312 109.601562 12.269531 109.414062 13.1875 109.746094 C 13.988281 109.863281 14.832031 109.507812 15.585938 109.980469 C 16.691406 109.933594 17.820312 109.957031 18.953125 110.027344 C 19.988281 110.214844 20.929688 109.746094 21.941406 109.863281 C 22.691406 110.050781 23.46875 110.074219 24.222656 109.863281 C 24.363281 109.816406 24.503906 109.792969 24.644531 109.863281 C 25.609375 110.214844 26.667969 109.652344 27.632812 109.863281 C 28.128906 110.167969 28.667969 110.097656 29.210938 110.027344 C 31.375 109.863281 33.5625 110.050781 35.726562 110.027344 C 45.234375 110.121094 54.695312 109.53125 64.199219 110.378906 C 68.410156 110.238281 72.625 110.378906 76.8125 110.496094 C 78.484375 110.875 80.152344 110.449219 81.847656 110.496094 C 83.425781 110.425781 85.496094 110.640625 86.175781 108.875 C 86.859375 107.792969 87.636719 106.449219 87.210938 105.109375 C 87.117188 104.898438 87.117188 104.710938 87.257812 104.496094 C 87.707031 103.792969 87.496094 103.015625 87.351562 102.308594 C 87.164062 101.746094 87.351562 101.296875 87.449219 100.757812 C 87.449219 99.933594 87.1875 99.132812 87.351562 98.332031 C 87.070312 93.460938 87.683594 88.496094 87.613281 83.601562 Z M 87.542969 83.53125 " fill-opacity="1" fill-rule="nonzero"/><path fill="#d5d5d5" d="M 80.339844 60.824219 C 79.636719 58.425781 80.105469 55.835938 79.542969 53.390625 C 79.351562 51.71875 79.496094 50.046875 79.398438 48.402344 C 79.070312 44.589844 79.234375 40.730469 79.519531 36.964844 C 79.140625 33.175781 79.894531 29.273438 79.707031 25.4375 C 79.660156 23.953125 78.339844 22.777344 77.730469 21.53125 C 77.730469 21.390625 77.707031 21.246094 77.566406 21.222656 C 76.507812 20.753906 75.421875 20.355469 74.222656 20.519531 C 70.554688 20.472656 66.90625 20.234375 63.28125 20.871094 C 56.671875 21.578125 49.941406 21.976562 43.375 23.058594 C 39.894531 22.894531 36.410156 24.777344 32.976562 24.378906 C 32.882812 24.332031 32.785156 24.332031 32.714844 24.378906 C 32.199219 24.660156 31.609375 24.496094 31.046875 24.613281 C 30.714844 24.660156 30.339844 24.519531 29.988281 24.683594 C 29.75 24.683594 29.492188 24.519531 29.257812 24.566406 C 27.164062 24.566406 25.046875 24.753906 22.976562 24.589844 C 21.515625 24.871094 20.011719 24.449219 18.550781 24.683594 C 17.75 24.894531 16.953125 24.871094 16.152344 24.894531 C 15.75 24.894531 15.421875 24.941406 15.1875 25.320312 C 14.621094 26.046875 14.832031 25.976562 14.691406 26.824219 C 14.433594 27.53125 14.316406 28.378906 13.84375 28.941406 C 12.902344 28.542969 13.65625 27.035156 12.925781 26.519531 C 12.738281 26.824219 12.761719 27.199219 12.527344 27.484375 C 11 27.105469 11 30.871094 10.738281 31.859375 C 10.433594 33.105469 10.832031 34.355469 10.738281 35.578125 C 10.621094 35.835938 10.597656 36.09375 10.738281 36.355469 C 10.738281 37.625 10.269531 38.988281 10.574219 40.308594 C 10.363281 41.058594 10.222656 41.765625 10.457031 42.542969 C 10.457031 44.09375 10.105469 45.671875 10.457031 47.226562 C 10.480469 47.320312 10.574219 47.460938 10.550781 47.53125 C 10.386719 48.355469 10.597656 49.34375 10.597656 50.167969 C 10.925781 51.296875 11.304688 52.402344 11.585938 53.554688 C 11.679688 53.953125 11.867188 54.355469 11.46875 54.707031 C 11.445312 55.085938 11.375 55.484375 11.28125 55.882812 C 11.351562 58.285156 10.644531 60.777344 11.140625 63.085938 C 10.761719 63.296875 10.785156 63.625 10.949219 64.003906 C 11.1875 65.085938 10.949219 66.285156 11.164062 67.390625 C 11.28125 67.742188 11.398438 68.074219 11.164062 68.425781 C 11.070312 68.566406 11.164062 68.753906 11.210938 68.894531 C 11.796875 71.085938 11.75 73.296875 11.726562 75.53125 C 12.644531 74.992188 12.808594 77.25 12.878906 77.859375 C 12.902344 79.367188 13.820312 80.636719 13.726562 82.144531 C 13.9375 86.945312 14.246094 92.074219 14.714844 96.992188 C 14.855469 98.050781 14.902344 99.085938 14.832031 100.144531 C 15.023438 101.4375 14.878906 102.710938 15.328125 103.933594 C 15.609375 105.296875 18.953125 105.109375 20.128906 105.296875 C 27.164062 106.402344 34.339844 106.332031 41.46875 106.027344 C 42.175781 106.121094 42.644531 105.746094 43.1875 105.367188 C 44.765625 104.636719 46.644531 105.085938 48.222656 104.472656 C 46.222656 104.003906 44.175781 103.957031 42.128906 103.957031 C 43.445312 103.601562 44.765625 104.003906 46.058594 103.699219 C 45.09375 102.566406 45.492188 102.355469 46.789062 102.519531 C 48.953125 102.519531 51.09375 102.308594 53.257812 102.167969 C 53.683594 102.285156 53.871094 101.769531 54.269531 101.886719 C 55.777344 102.378906 57.164062 101.746094 58.695312 101.601562 C 60.222656 101.460938 61.328125 101.25 62.246094 100.921875 C 63.824219 100.542969 64.695312 100.449219 66.292969 100.472656 C 68.953125 100.589844 71.660156 99.957031 74.316406 100.144531 C 78.484375 100.449219 79.636719 100.898438 79.234375 96.519531 C 79.398438 94.542969 79.234375 92.589844 79.472656 90.589844 C 79.753906 89.839844 79.023438 89.203125 79.28125 88.496094 C 79.707031 87.816406 79.351562 87.109375 79.425781 86.425781 C 79.730469 85.933594 79.613281 85.414062 79.542969 84.898438 C 79.398438 83.15625 79.542969 81.390625 79.777344 79.671875 C 79.777344 77.742188 79.988281 75.765625 79.777344 73.882812 C 80.082031 73.414062 79.824219 72.894531 79.964844 72.402344 C 80.246094 71.957031 79.753906 71.53125 80.011719 71.085938 C 80.339844 70.402344 80.292969 69.554688 80.011719 68.871094 C 79.941406 68.777344 79.988281 68.660156 80.011719 68.566406 C 80.4375 67.71875 80.152344 66.847656 80.011719 66.003906 C 79.894531 64.707031 80.742188 63.34375 80.386719 62.050781 C 80.292969 61.554688 80.789062 61.414062 80.386719 60.871094 Z M 80.339844 60.824219 " fill-opacity="1" fill-rule="nonzero"/><path fill="#d5d5d5" d="M 83.542969 89.839844 C 83.402344 86.261719 83.800781 82.402344 82.71875 78.96875 C 82.601562 78.144531 82.671875 77.296875 82.507812 76.496094 C 82.507812 76.121094 82.648438 75.71875 82.414062 75.34375 C 82.386719 75.320312 82.414062 75.226562 82.414062 75.179688 C 82.71875 74.496094 82.363281 73.8125 82.460938 73.132812 C 82.414062 72.402344 82.4375 71.554688 82.175781 70.871094 C 79.328125 68.613281 81.140625 84.214844 80.765625 85.742188 C 80.765625 90.496094 80.648438 95.273438 80.765625 100.003906 C 81.988281 100.78125 80.507812 102.027344 80.199219 102.96875 C 81.046875 102.945312 82.789062 103.414062 82.625 102.121094 C 82.507812 101.109375 82.90625 100.191406 83.210938 99.273438 C 83.800781 96.167969 83.472656 92.992188 83.566406 89.863281 Z M 83.542969 89.839844 " fill-opacity="1" fill-rule="nonzero"/><path fill="#3c3e5e" d="M 37.632812 43.058594 C 37.46875 41.4375 37.609375 39.789062 37.585938 38.164062 C 37.492188 37.273438 37.492188 37.226562 36.691406 36.917969 C 36.8125 35.058594 32.859375 36.285156 31.65625 35.8125 C 29.609375 35.226562 27.585938 35.90625 25.796875 36.917969 C 23.679688 37.414062 25.28125 44.660156 25.539062 46.308594 C 25.515625 46.472656 25.539062 46.636719 25.679688 46.730469 C 25.988281 46.964844 26.058594 47.273438 26.035156 47.625 C 26.105469 48.144531 26.339844 48.800781 26.808594 49.058594 C 28.199219 49.554688 29.46875 48.636719 30.859375 48.660156 C 32.929688 48.753906 34.929688 48.191406 36.976562 48.09375 C 37.46875 48.121094 37.539062 47.601562 37.492188 47.226562 C 37.164062 45.8125 37.5625 44.449219 37.65625 43.082031 Z M 37.632812 43.058594 " fill-opacity="1" fill-rule="nonzero"/><path fill="#3c3e5e" d="M 36.339844 83.71875 C 36.035156 83.71875 35.726562 83.71875 35.421875 83.578125 C 35.5625 82.003906 32.082031 82.332031 31.09375 82.613281 C 29.847656 83.015625 28.621094 82.167969 27.421875 82.777344 C 26.859375 83.015625 26.410156 83.460938 25.894531 83.765625 C 25.632812 84.121094 25.820312 84.683594 25.632812 85.085938 C 25.28125 86.355469 24.832031 87.839844 25.1875 89.109375 C 25.375 89.320312 25.375 89.578125 25.257812 89.816406 C 25.164062 90.027344 25.117188 90.238281 25.257812 90.425781 C 25.539062 90.875 25.398438 91.414062 25.539062 91.886719 C 25.871094 92.992188 25.539062 94.074219 27.164062 94.050781 C 28.785156 94.050781 30.363281 93.601562 31.941406 93.414062 C 33.492188 93.34375 35.234375 93.578125 36.339844 92.238281 C 35.988281 91.34375 36.882812 89.910156 36.953125 88.898438 C 37.023438 87.695312 37.964844 83.980469 36.363281 83.695312 Z M 36.339844 83.71875 " fill-opacity="1" fill-rule="nonzero"/><path fill="#3c3e5e" d="M 25.796875 62.519531 C 25.703125 63.132812 25.679688 63.742188 25.796875 64.355469 C 25.5625 65.015625 25.871094 65.648438 25.894531 66.285156 C 25.988281 67.695312 25.375 71.015625 26.738281 71.695312 C 27.917969 72.355469 29.164062 71.601562 30.363281 71.882812 C 31.988281 71.933594 33.773438 71.71875 35.304688 71.203125 C 36.386719 70.261719 36.011719 68.847656 35.988281 67.578125 C 35.824219 66.238281 36.105469 64.824219 35.941406 63.53125 C 35.515625 62.167969 35.375 59.671875 33.445312 59.90625 C 31.824219 59.90625 30.269531 60.542969 28.621094 60.402344 C 27.421875 60.332031 25.726562 60.214844 26.292969 61.976562 C 26.152344 62.214844 25.84375 62.285156 25.84375 62.566406 Z M 25.796875 62.519531 " fill-opacity="1" fill-rule="nonzero"/><path fill="#000000" d="M 81.589844 75.789062 C 82.339844 64.355469 81.917969 52.824219 82.625 41.390625 C 82.625 38.285156 83.117188 35.105469 82.507812 32.046875 C 82.484375 29.199219 82.90625 26.332031 82.648438 23.484375 C 82.554688 21.222656 81.472656 21.414062 79.636719 21.53125 C 76.058594 21.507812 72.507812 21.578125 68.953125 21.601562 C 60.742188 21.953125 52.503906 21.484375 44.292969 21.601562 C 38.714844 21.578125 33.1875 21.484375 27.632812 21.484375 C 24.433594 21.246094 21.234375 21.105469 18.035156 21.367188 C 16.433594 21.625 14.667969 21.175781 13.210938 22 C 12.855469 22.210938 12.808594 22.304688 13 22.636719 C 12.832031 24.660156 12.832031 26.847656 12.902344 28.964844 C 12.949219 33.742188 12.152344 38.542969 12.574219 43.273438 C 12.621094 43.742188 12.316406 44.167969 12.480469 44.636719 C 12.550781 44.941406 12.503906 45.25 12.316406 45.554688 C 11.988281 41.671875 12.363281 37.695312 12.199219 33.789062 C 12.011719 32.449219 12.738281 26.472656 11.539062 26.210938 C 10.738281 36.238281 11.351562 46.378906 11.914062 56.402344 C 12.082031 60.121094 11.9375 63.8125 11.726562 67.484375 C 11.867188 70.402344 11.867188 73.34375 11.796875 76.261719 C 11.796875 81.414062 11.960938 86.660156 11.988281 91.769531 C 12.222656 94.097656 12.269531 96.332031 12.222656 98.660156 C 12.292969 99.25 12.316406 99.816406 12.222656 100.402344 C 12.199219 101.015625 12.386719 101.648438 11.867188 102.167969 C 12.503906 102.78125 13.28125 102.898438 14.035156 103.0625 C 14.105469 103.273438 13.75 103.367188 14.222656 103.460938 C 17.398438 103.933594 20.597656 104.144531 23.796875 104.332031 C 30.457031 104.589844 37.164062 104.664062 43.800781 104.378906 C 37.964844 103.578125 31.773438 103.839844 25.820312 103.320312 C 37.234375 103.226562 48.835938 103.414062 60.292969 103.722656 C 60.71875 103.722656 61.09375 103.746094 61.492188 103.648438 C 61.894531 103.957031 62.363281 103.816406 62.789062 103.863281 C 63.515625 104.074219 64.316406 103.910156 65.046875 104.144531 C 65.636719 104.332031 66.222656 104.027344 66.789062 104.144531 C 67.140625 104.355469 67.515625 104.308594 67.894531 104.285156 C 70.363281 104.402344 72.953125 104.589844 75.472656 104.238281 C 76.386719 104.121094 77.328125 104.238281 78.222656 103.933594 C 79.023438 103.933594 79.871094 104.050781 80.625 103.601562 C 81.519531 103.203125 80.71875 102.308594 81.210938 101.671875 C 81.519531 101.203125 81.613281 100.6875 81.589844 100.121094 C 81.496094 91.980469 81.566406 83.839844 81.613281 75.695312 Z M 12.339844 47.953125 L 12.339844 46.191406 C 12.691406 46.542969 12.269531 47.035156 12.597656 47.4375 C 12.738281 47.648438 12.597656 47.8125 12.339844 47.953125 Z M 80.152344 24.519531 C 79.730469 30.613281 79.988281 36.753906 79.542969 42.871094 C 79.964844 43.695312 79.117188 44.472656 79.542969 45.273438 C 79.988281 45.953125 79.304688 46.214844 79.304688 46.824219 C 79.472656 47.34375 79.1875 47.882812 79.398438 48.402344 C 79.257812 50.917969 79.140625 53.484375 79.28125 56 C 79.28125 57.484375 79.046875 59.039062 79.234375 60.519531 C 79.351562 61.039062 78.90625 61.554688 79.304688 62.027344 C 79.140625 63.296875 78.859375 64.683594 79.1875 66.003906 C 79.304688 66.566406 78.765625 67.0625 79.117188 67.601562 C 79.1875 67.765625 79.257812 67.929688 79.210938 68.121094 C 78.53125 69.765625 79.375 71.484375 78.929688 73.132812 C 78.835938 73.980469 78.742188 74.96875 79.09375 75.8125 C 79.304688 76.308594 78.695312 76.636719 78.882812 77.179688 C 78.953125 77.789062 79.1875 78.402344 78.90625 79.015625 C 79.234375 79.554688 78.835938 80.121094 79 80.660156 C 79.117188 81.015625 79 81.4375 79.257812 81.789062 C 78.859375 82.425781 79.140625 83.085938 79.023438 83.765625 C 79.140625 84.945312 78.882812 86.097656 79.070312 87.273438 C 79.117188 87.71875 79.328125 88.144531 79.140625 88.589844 C 78.789062 89.25 79.328125 89.863281 79.023438 90.519531 C 78.859375 90.96875 79.351562 91.390625 79.09375 91.863281 C 79.1875 94.945312 79.421875 98.238281 79.234375 101.414062 C 79.140625 102.027344 78.292969 102.121094 77.753906 102.027344 C 75.117188 101.722656 72.433594 102.074219 69.800781 101.699219 C 64.601562 101.25 59.375 101.34375 54.175781 101.554688 C 48.152344 101.769531 42.105469 101.980469 36.105469 101.296875 C 32.761719 100.96875 29.492188 101.460938 26.152344 101.4375 C 23.234375 101.671875 20.292969 101.554688 17.351562 101.671875 C 16.339844 101.578125 15.164062 101.910156 14.246094 101.367188 C 13.703125 100.074219 14.199219 98.402344 14.035156 96.992188 C 13.988281 91.273438 13.726562 85.554688 13.988281 79.835938 C 14.339844 75.320312 14.621094 70.824219 14.714844 66.308594 C 14.832031 52 14.339844 37.648438 15.046875 23.367188 C 27.941406 22.660156 40.976562 25.105469 53.824219 24.613281 C 59.707031 24.355469 65.566406 24.09375 71.445312 23.859375 C 73.398438 24.449219 80.8125 21.222656 80.128906 24.496094 Z M 80.152344 24.519531 " fill-opacity="1" fill-rule="nonzero"/><path fill="#000000" d="M 82.929688 92.945312 C 82.765625 88.332031 82.929688 83.742188 82.742188 79.132812 C 82.578125 78.636719 82.835938 77.273438 82.316406 77.15625 C 81.988281 77.15625 82.058594 77.460938 82.058594 77.648438 C 81.964844 82.449219 81.871094 87.25 81.871094 92.050781 C 81.871094 95.507812 81.777344 98.945312 81.800781 102.402344 C 81.730469 103.0625 82.695312 103.0625 82.835938 102.496094 C 82.90625 99.320312 82.929688 96.121094 82.929688 92.945312 Z M 82.929688 92.945312 " fill-opacity="1" fill-rule="nonzero"/><path fill="#000000" d="M 36.550781 36 C 36.835938 32.683594 32.953125 33.273438 30.808594 33.648438 C 28.339844 33.882812 25.917969 34.117188 23.515625 34.753906 C 22.882812 37.8125 23.398438 41.179688 23.46875 44.285156 C 23.726562 45.15625 23.164062 46.191406 24.175781 46.777344 C 25.234375 47.976562 26.832031 47.8125 28.316406 47.929688 C 29.234375 48.046875 30.175781 47.835938 31.09375 48 C 32.644531 48.191406 34.058594 47.320312 35.585938 47.601562 C 36.386719 47.742188 35.941406 46.660156 35.964844 46.167969 C 36.644531 45.742188 36.714844 45.71875 36.597656 45.035156 C 36.503906 42 36.667969 39.011719 36.597656 36 Z M 34.339844 41.105469 C 34.082031 42.613281 34.550781 44.191406 34.222656 45.671875 C 33.023438 45.625 31.847656 46.144531 30.667969 45.976562 C 29.117188 45.976562 27.515625 46.046875 25.941406 45.976562 C 25.75 45.035156 25.609375 44.117188 25.585938 43.15625 C 25.304688 42.449219 25.304688 41.671875 25.210938 40.917969 C 25.023438 39.035156 24.457031 37.152344 24.597656 35.25 C 27.75 35.128906 30.90625 35.367188 34.011719 35.128906 C 34.339844 36.140625 33.894531 37.320312 34.246094 38.378906 C 34.058594 39.296875 34.222656 40.164062 34.339844 41.082031 Z M 34.339844 41.105469 " fill-opacity="1" fill-rule="nonzero"/><path fill="#000000" d="M 36.222656 69.179688 C 35.375 68.402344 36.574219 64.121094 36.339844 62.730469 C 35.917969 58.753906 36.738281 56.660156 31.703125 57.578125 C 29.539062 58.378906 25.46875 56.777344 24.082031 59.34375 C 23.539062 62.355469 23.632812 65.625 23.988281 68.683594 C 24.128906 69.695312 24.199219 69.71875 25.023438 70.285156 C 25.679688 70.800781 26.644531 70.660156 27.421875 70.871094 C 29.09375 70.824219 30.785156 70.660156 32.433594 70.917969 C 33.539062 70.800781 37.609375 71.296875 36.222656 69.179688 Z M 34.527344 64.144531 C 34.363281 65.484375 34.246094 66.847656 34.363281 68.191406 C 34.597656 69.34375 32.292969 68.753906 31.679688 68.683594 C 31.1875 68.945312 30.691406 68.683594 30.222656 68.613281 C 28.808594 68.660156 27.492188 68.800781 26.058594 68.777344 C 25.871094 65.695312 25.871094 62.636719 25.515625 59.554688 C 27.632812 59.695312 29.726562 59.789062 31.726562 59.882812 C 32.292969 59.625 32.929688 59.789062 33.515625 59.625 C 34.082031 59.460938 34.105469 59.695312 34.199219 60.144531 C 34.339844 61.484375 34.621094 62.800781 34.480469 64.167969 Z M 34.527344 64.144531 " fill-opacity="1" fill-rule="nonzero"/><path fill="#000000" d="M 70.789062 40.425781 C 64.765625 40.800781 58.574219 41.296875 52.457031 41.296875 C 51.328125 41.035156 50.175781 41.625 49.070312 41.226562 C 48.667969 40.988281 48.246094 41.390625 47.824219 41.34375 C 46.644531 41.058594 45.515625 41.4375 44.363281 41.578125 C 44.175781 41.53125 44.035156 41.53125 43.894531 41.578125 C 43.09375 41.976562 41.988281 41.835938 41.632812 42.824219 C 41.140625 44.542969 43.515625 44.261719 44.550781 44.308594 C 45.515625 44.191406 46.480469 44.589844 47.445312 44.191406 C 48.082031 44.09375 48.742188 44.472656 49.398438 44.191406 C 49.492188 44.167969 49.609375 44.191406 49.707031 44.214844 C 51.375 44.542969 53.070312 43.976562 54.742188 44.214844 C 56.503906 43.789062 58.363281 43.882812 60.175781 43.53125 C 62.035156 43.34375 63.894531 43.390625 65.753906 43.035156 C 66.742188 43.25 67.730469 42.941406 68.71875 42.964844 C 69.941406 43.15625 71.234375 42.472656 71.304688 41.128906 C 71.351562 40.660156 71.234375 40.472656 70.789062 40.355469 Z M 70.789062 40.425781 " fill-opacity="1" fill-rule="nonzero"/><path fill="#000000" d="M 70.648438 34.449219 C 63.234375 34.566406 55.871094 34.613281 48.433594 35.367188 C 47.164062 35.648438 41.964844 34.964844 41.632812 36.023438 C 41.65625 38.425781 44.8125 37.414062 46.386719 37.742188 C 49.5625 37.8125 52.648438 37.695312 55.824219 37.34375 C 58.011719 37.414062 60.175781 37.320312 62.339844 37.082031 C 62.601562 37.34375 62.90625 37.203125 63.1875 37.175781 C 63.730469 37.152344 64.292969 37.226562 64.835938 37.082031 C 65.257812 37.128906 65.660156 37.296875 66.082031 37.082031 C 67.257812 36.660156 68.625 37.320312 69.800781 36.800781 C 71.636719 37.4375 72.929688 34.777344 70.625 34.449219 Z M 70.648438 34.449219 " fill-opacity="1" fill-rule="nonzero"/><path fill="#000000" d="M 35.941406 80.777344 C 35.65625 80.261719 35.585938 80.191406 35 80.238281 C 34.128906 80.332031 33.257812 80.238281 32.386719 80.238281 C 29.941406 80.542969 27.421875 80.332031 25 80.589844 C 24.644531 80.308594 24.339844 80.003906 23.894531 79.886719 C 23.445312 82.96875 23.398438 86.144531 23.375 89.273438 C 23.445312 90.214844 23.023438 91.25 23.65625 92.074219 C 24.152344 92.707031 28.035156 92.707031 29.070312 92.78125 C 31.070312 92.636719 33.070312 93.015625 35.046875 92.566406 C 35.632812 90.050781 36.105469 87.484375 36.105469 84.851562 C 36.105469 83.507812 36.527344 82.074219 35.964844 80.777344 Z M 34.597656 83.933594 C 34.480469 86.238281 34.339844 88.542969 34.457031 90.851562 C 32.128906 90.96875 29.871094 91.132812 27.5625 91.015625 C 26.953125 90.828125 25.492188 91.367188 25.28125 90.707031 C 24.929688 87.792969 25.28125 84.898438 25.28125 82.003906 C 25.773438 81.71875 27.117188 82.285156 27.796875 82.285156 C 29.609375 82.238281 31.492188 82.308594 33.304688 82.097656 C 33.609375 82.050781 33.847656 82.332031 34.175781 82.144531 C 35.023438 81.957031 34.574219 83.414062 34.644531 83.910156 Z M 34.597656 83.933594 " fill-opacity="1" fill-rule="nonzero"/><path fill="#000000" d="M 69.988281 66.167969 C 68.71875 65.648438 67.375 66.214844 66.058594 66.144531 C 63.847656 66.238281 61.636719 66.285156 59.398438 66.238281 C 56.269531 66.238281 53.09375 66.003906 49.988281 66.472656 C 47.683594 66.800781 45.140625 66.519531 42.953125 67.179688 C 43.398438 68.121094 44.480469 68.96875 45.5625 68.945312 C 46.035156 68.847656 46.480469 68.992188 46.929688 69.039062 C 47.707031 69.226562 48.503906 69.039062 49.257812 69.109375 C 49.847656 69.460938 50.410156 68.894531 51.023438 69.0625 C 51.917969 69.179688 52.835938 69.179688 53.730469 68.992188 C 55.117188 68.753906 56.597656 69.320312 57.941406 68.707031 C 58.410156 68.402344 58.742188 68.871094 59.210938 68.800781 C 59.847656 68.613281 60.480469 68.496094 61.140625 68.566406 C 61.46875 68.308594 61.777344 68.636719 62.128906 68.566406 C 62.742188 68.496094 63.351562 68.191406 63.988281 68.496094 C 65.328125 68.308594 66.71875 68.589844 68.058594 68.308594 C 68.859375 68.121094 69.964844 68.566406 70.554688 67.789062 C 70.859375 67.085938 70.71875 66.472656 70.011719 66.191406 Z M 69.988281 66.167969 " fill-opacity="1" fill-rule="nonzero"/><path fill="#000000" d="M 69.117188 83.226562 C 68.554688 82.542969 67.375 82.921875 66.601562 82.589844 C 66.269531 82.589844 65.988281 82.851562 65.683594 82.589844 C 62.765625 82.449219 59.707031 82.542969 56.789062 82.566406 C 56.503906 82.613281 56.222656 82.355469 55.941406 82.496094 C 55.777344 82.566406 55.636719 82.496094 55.46875 82.496094 C 54.363281 82.167969 53.257812 82.589844 52.152344 82.332031 C 50.742188 81.980469 49.257812 82.238281 47.800781 82.285156 C 46.433594 82.238281 45 82.308594 43.632812 82.449219 C 42.976562 85.039062 46.71875 84.378906 48.222656 84.542969 C 52.128906 84.636719 56.035156 84.753906 59.941406 84.613281 C 62.199219 84.589844 64.457031 84.96875 66.742188 84.851562 C 67.964844 85.132812 70.082031 84.96875 69.070312 83.226562 Z M 69.117188 83.226562 " fill-opacity="1" fill-rule="nonzero"/><path fill="#000000" d="M 45.421875 62.214844 C 46.433594 61.929688 47.46875 62.285156 48.503906 62.121094 C 49.070312 62.074219 49.632812 61.8125 50.199219 61.835938 C 53.800781 62.003906 57.492188 61.554688 61.164062 61.507812 C 63.753906 60.988281 68.835938 61.882812 70.671875 60.261719 C 68.859375 59.8125 67.117188 60.167969 65.304688 60.144531 C 58.550781 60.214844 51.847656 59.601562 45.09375 59.53125 C 41.679688 59.460938 41.894531 62.964844 45.421875 62.214844 Z M 45.421875 62.214844 " fill-opacity="1" fill-rule="nonzero"/><path fill="#000000" d="M 69.1875 89.015625 C 68.929688 87.792969 67.445312 88.378906 66.578125 88.308594 C 63.566406 88.238281 60.527344 88.144531 57.515625 88.121094 C 52.765625 88.167969 47.753906 87.179688 43.164062 88.730469 C 44.550781 90.050781 46.882812 89.625 48.667969 89.695312 C 52.765625 89.601562 56.882812 89.578125 60.976562 89.742188 C 63.445312 89.742188 65.917969 89.980469 68.410156 90.050781 C 69.304688 90.167969 69.304688 89.910156 69.1875 88.992188 Z M 69.1875 89.015625 " fill-opacity="1" fill-rule="nonzero"/><path fill="#febf00" d="M 103.894531 13.671875 C 101 13.269531 98.128906 13.8125 95.234375 13.90625 C 94.484375 13.929688 93.332031 14.304688 92.765625 13.765625 C 91.683594 12.09375 96.976562 5.316406 94.929688 5.460938 C 92.695312 6.351562 90.929688 8.375 88.484375 9.011719 C 87.613281 9.105469 86.339844 9.011719 85.988281 8.046875 C 85.328125 7.410156 84.976562 6.613281 84.671875 5.742188 C 84.269531 4.824219 84.671875 3.742188 84.128906 2.894531 C 83.988281 2.28125 83.941406 1.625 83.683594 1.035156 C 83.449219 0 81.613281 0.09375 81.210938 0.964844 C 80.484375 3.90625 79.894531 6.847656 79.046875 9.765625 C 78.789062 10.425781 79.070312 13.460938 80.105469 12.140625 C 80.835938 10.09375 81.28125 7.859375 82.105469 5.882812 C 82.789062 7.859375 83.449219 10.496094 85.660156 11.246094 C 87.660156 12.636719 89.753906 10.566406 91.425781 9.625 C 90.058594 12.046875 88.835938 16.117188 92.625 16.894531 C 93.636719 17.105469 94.601562 16.613281 95.589844 16.683594 C 95.941406 16.800781 96.035156 16.28125 96.390625 16.425781 C 96.320312 16.707031 96.105469 16.800781 95.847656 16.824219 C 95.09375 16.964844 94.507812 17.53125 93.824219 17.859375 C 93.304688 18.472656 92.390625 18.210938 92.082031 19.035156 C 91.613281 19.953125 93.117188 22.09375 94.105469 21.035156 C 94.671875 20.496094 95.355469 20.355469 96.082031 20.234375 C 98.175781 19.082031 100.246094 18 102.414062 16.988281 C 103.332031 16.824219 105.472656 14.210938 103.917969 13.765625 Z M 103.894531 13.671875 " fill-opacity="1" fill-rule="nonzero"/><g clip-path="url(#579d8cdf95)"><path fill="#febf00" d="M 3.445312 95.296875 C 3.351562 94.144531 3.75 89.25 1.9375 89.625 C 0.691406 90.449219 0.363281 91.886719 0.457031 93.273438 C 0.457031 94.167969 0.457031 95.085938 0.457031 95.980469 C 0.621094 96.496094 0.714844 97.015625 0.527344 97.554688 C 0.480469 97.746094 0.480469 97.910156 0.621094 98.050781 C 1.257812 98.710938 1.257812 99.769531 2.152344 100.191406 C 3.046875 100.660156 2.785156 98.992188 3.140625 98.519531 C 3.351562 98.003906 3.515625 97.484375 3.304688 96.921875 C 3.140625 96.378906 3.585938 95.839844 3.445312 95.273438 Z M 3.445312 95.296875 " fill-opacity="1" fill-rule="nonzero"/></g><g clip-path="url(#7b9ac832c7)"><path fill="#febf00" d="M 3.375 63.765625 C 3.328125 63.390625 3.234375 63.085938 2.925781 62.847656 C 0.175781 63.507812 1.28125 66.683594 1.1875 68.730469 C 1.09375 69.695312 0.597656 71.460938 1.5625 72.050781 C 2.550781 72.355469 3.46875 72.097656 3.445312 70.847656 C 3.445312 68.496094 3.609375 66.121094 3.375 63.765625 Z M 3.375 63.765625 " fill-opacity="1" fill-rule="nonzero"/></g><path fill="#febf00" d="M 3.867188 54.660156 C 3.984375 54.261719 3.632812 53.835938 3.773438 53.390625 C 3.9375 52.355469 2.972656 50.472656 1.820312 51.507812 C 0.808594 52.472656 1.46875 54.023438 1.304688 55.273438 C 1.09375 56.214844 1.398438 57.109375 1.304688 58.074219 C 1.398438 58.261719 1.328125 58.472656 1.328125 58.683594 C 1.375 59.484375 2.550781 59.4375 3.164062 59.460938 C 4.105469 59.53125 4.082031 56.402344 3.867188 55.71875 C 3.773438 55.390625 3.703125 55.011719 3.867188 54.660156 Z M 3.867188 54.660156 " fill-opacity="1" fill-rule="nonzero"/><path fill="#febf00" d="M 33.09375 60.871094 C 32.175781 60.167969 31.632812 61.484375 31.070312 62.003906 C 30.082031 63.039062 29.257812 64.097656 28.386719 65.273438 C 28.152344 65.085938 28.128906 64.824219 28.011719 64.636719 C 27.726562 63.976562 26.316406 63.742188 26.527344 64.753906 C 26.574219 66.121094 27.117188 67.15625 28.550781 67.4375 C 29.632812 67.296875 30.105469 65.8125 30.761719 65.0625 C 31.515625 64.378906 32.175781 63.578125 32.691406 62.707031 C 33.351562 62.332031 33.773438 61.507812 33.09375 60.917969 Z M 33.09375 60.871094 " fill-opacity="1" fill-rule="nonzero"/><g clip-path="url(#5d7af98ba6)"><path fill="#febf00" d="M 0.902344 81.015625 C 1.019531 82.707031 0.269531 85.910156 2.503906 86.378906 C 3.539062 85.484375 3.1875 77.4375 2.007812 76.472656 C 1.304688 77.296875 1.1875 78.074219 1.070312 79.0625 C 1.019531 79.226562 0.949219 79.390625 1.019531 79.53125 C 1.164062 80.027344 0.925781 80.519531 0.902344 81.015625 Z M 0.902344 81.015625 " fill-opacity="1" fill-rule="nonzero"/></g><g clip-path="url(#dda7b35434)"><path fill="#febf00" d="M 0.855469 31.152344 C 0.996094 31.859375 1.070312 32.613281 1.445312 33.273438 C 1.914062 34.332031 3.304688 33.789062 3.46875 32.800781 C 3.5625 30.871094 3.703125 28.800781 3.164062 26.941406 C 2.878906 26.425781 2.105469 26.660156 1.632812 26.683594 C 0.386719 26.472656 0.972656 30.261719 0.855469 31.152344 Z M 0.855469 31.152344 " fill-opacity="1" fill-rule="nonzero"/></g><path fill="#febf00" d="M 27.234375 44.847656 C 28.953125 45.765625 30.597656 42.214844 31.351562 40.964844 C 31.824219 39.671875 33.023438 38.542969 33.023438 37.152344 C 31.375 36.308594 29.726562 41.789062 28.433594 42.707031 C 28.199219 42.023438 27.773438 41.105469 26.90625 41.507812 C 25.917969 42.023438 27 44 27.234375 44.847656 Z M 27.234375 44.847656 " fill-opacity="1" fill-rule="nonzero"/><g clip-path="url(#f6f285eae6)"><path fill="#febf00" d="M 3.28125 41.273438 C 3.492188 40.402344 1.773438 38.164062 1.117188 38.917969 C 0.902344 41.058594 0.574219 44.472656 1.890625 46.332031 C 3.046875 47.132812 3.1875 45.390625 3.1875 44.636719 C 3.046875 43.507812 3.328125 42.425781 3.28125 41.296875 Z M 3.28125 41.273438 " fill-opacity="1" fill-rule="nonzero"/></g><g clip-path="url(#ae28838ae5)"><path fill="#3c3e5e" d="M 107.425781 109.578125 C 107.140625 106.992188 106.058594 104.167969 103.355469 103.320312 C 103.09375 103.226562 102.976562 103.109375 102.953125 102.851562 C 102.53125 100.472656 101.402344 97.886719 99.234375 96.636719 C 98.625 96.355469 98.601562 95.886719 98.648438 95.320312 C 98.742188 91.886719 97.285156 88.804688 95.519531 85.957031 C 95.730469 85.886719 95.871094 85.957031 96.011719 86.027344 C 96.578125 86.402344 97.234375 86.472656 97.894531 86.613281 C 98.53125 86.730469 99 85.578125 98.742188 85.085938 C 97.753906 83.625 95.730469 83.625 94.320312 82.800781 C 93.378906 82.121094 92.199219 82.308594 91.1875 82.707031 C 90.246094 83.179688 91.046875 84.496094 91.1875 85.25 C 91.800781 86.449219 91.332031 88.898438 92.695312 89.4375 C 93.023438 88.050781 92.695312 86.613281 92.976562 85.25 C 94.269531 85.132812 95.164062 89.695312 95.871094 90.753906 C 96.269531 92.214844 96.625 93.648438 96.742188 95.132812 C 97.09375 96.285156 94.695312 95.863281 94.367188 97.34375 C 92.882812 99.15625 92.882812 101.746094 95.355469 102.660156 C 97.917969 103.0625 98.175781 99.039062 98.578125 97.25 C 100.695312 98.003906 100.90625 100.875 101.285156 102.78125 C 101.332031 103.699219 99.964844 103.554688 99.519531 104.238281 C 98.128906 105.460938 96.835938 106.96875 96.53125 108.851562 C 95.566406 110.710938 96.035156 113.15625 98.011719 114.144531 C 100.273438 114.96875 101.449219 111.15625 102.152344 109.578125 C 102.554688 108.121094 102.976562 106.640625 103.09375 105.132812 C 103.285156 104.636719 104.058594 105.085938 104.273438 105.484375 C 105.589844 107.886719 105.402344 110.6875 105.1875 113.320312 C 104.90625 114.425781 105.214844 116.308594 104.082031 116.921875 C 103.988281 116.921875 103.894531 116.921875 103.847656 117.0625 C 106.648438 120.78125 107.847656 111.273438 107.449219 109.578125 Z M 96.296875 98.683594 C 95.917969 99.648438 95.753906 100.898438 94.765625 101.4375 C 94.035156 100.828125 94.8125 99.367188 95.1875 98.683594 C 95.308594 97.933594 96.011719 97.769531 96.4375 97.320312 C 96.4375 97.320312 96.507812 97.320312 96.53125 97.34375 C 96.53125 97.746094 96.34375 98.238281 96.296875 98.660156 Z M 101.308594 106.003906 C 100.835938 108.542969 99.894531 111.320312 97.660156 112.828125 C 97.378906 112.542969 97.402344 112.285156 97.472656 112.050781 C 97.824219 109.578125 99.140625 107.34375 101.023438 105.722656 C 101.1875 105.554688 101.378906 105.816406 101.308594 105.980469 Z M 101.308594 106.003906 " fill-opacity="1" fill-rule="nonzero"/></g></svg>