<svg xmlns="http://www.w3.org/2000/svg" xmlns:xlink="http://www.w3.org/1999/xlink" width="215" zoomAndPan="magnify" viewBox="0 0 161.25 261.749992" height="349" preserveAspectRatio="xMidYMid meet" version="1.0"><defs><clipPath id="66cddef315"><path d="M 8 1 L 160.503906 1 L 160.503906 253 L 8 253 Z M 8 1 " clip-rule="nonzero"/></clipPath><clipPath id="8ea459cfa8"><path d="M 82 245 L 111 245 L 111 260.273438 L 82 260.273438 Z M 82 245 " clip-rule="nonzero"/></clipPath><clipPath id="55861bc687"><path d="M 8 1 L 160.503906 1 L 160.503906 253 L 8 253 Z M 8 1 " clip-rule="nonzero"/></clipPath><clipPath id="cbc876a2cf"><path d="M 82 245 L 111 245 L 111 260.273438 L 82 260.273438 Z M 82 245 " clip-rule="nonzero"/></clipPath></defs><g clip-path="url(#66cddef315)"><path fill="#efe3d4" d="M 160.054688 44.121094 C 159.539062 40.648438 159.484375 36.761719 157.515625 33.753906 C 157.152344 33.03125 157.207031 32.199219 156.789062 31.476562 C 156.53125 30.695312 155.753906 30.230469 155.546875 29.402344 C 155.289062 28.46875 154.820312 27.640625 154.148438 26.964844 C 153.785156 26.601562 153.835938 25.929688 153.421875 25.617188 C 152.695312 25.046875 152.539062 23.960938 151.554688 23.648438 C 151.402344 23.648438 151.296875 23.335938 151.246094 23.128906 C 151.089844 22.042969 150.15625 21.472656 149.535156 20.796875 C 148.136719 19.917969 147.359375 18.101562 145.957031 17.429688 C 145.492188 17.429688 145.179688 17.167969 145.078125 16.753906 C 144.507812 15.457031 142.847656 15.148438 141.863281 14.214844 C 141.34375 13.800781 140.828125 13.4375 140.152344 13.488281 C 138.960938 13.023438 138.441406 11.519531 136.992188 11.261719 C 135.332031 10.535156 133.882812 9.238281 132.273438 8.359375 C 131.808594 7.890625 131.082031 8.359375 130.5625 8.148438 C 129.527344 7.0625 127.972656 6.957031 126.78125 6.078125 C 126.261719 5.558594 125.535156 5.972656 124.964844 5.609375 C 124.1875 5.09375 123.308594 5.039062 122.476562 4.78125 C 118.074219 2.914062 113.304688 1.929688 108.691406 1.308594 C 104.128906 0.632812 99.570312 1.308594 95.058594 1.308594 C 90.082031 2.085938 84.746094 2.8125 80.546875 6.078125 C 78.007812 6.75 75.933594 8.410156 73.757812 9.707031 C 70.59375 11.832031 67.175781 14.007812 64.582031 16.910156 C 52.089844 30.28125 51.105469 54.28125 68.882812 63.351562 C 69.507812 64.335938 70.648438 64.648438 71.632812 65.371094 C 69.765625 70.96875 68.210938 76.722656 65.980469 82.21875 C 63.234375 87.402344 60.953125 92.84375 59.398438 98.441406 C 58.828125 99.375 58.878906 99.476562 57.742188 99.375 C 56.394531 99.011719 55.304688 99.890625 54.007812 99.632812 C 53.644531 99.476562 53.179688 99.632812 52.921875 99.945312 C 51.003906 101.550781 48.101562 100.617188 46.128906 102.328125 C 46.027344 102.378906 45.921875 102.484375 45.820312 102.484375 C 44.316406 102.277344 43.433594 103.988281 41.933594 103.78125 C 40.167969 104.558594 38.097656 105.179688 36.59375 106.578125 C 32.1875 109.792969 27.417969 113.109375 23.84375 117.257812 C 23.117188 117.980469 21.71875 118.136719 21.09375 119.121094 C 18.296875 122.4375 14.617188 124.71875 12.128906 128.347656 C 10.730469 130.109375 8.65625 131.511719 8.449219 133.945312 C 7.773438 135.96875 9.070312 138.09375 8.96875 140.0625 C 8.605469 144.261719 10.367188 148.25 11.195312 152.347656 C 14.148438 161.625 19.695312 169.96875 25.292969 177.691406 C 31.875 183.964844 39.597656 188.992188 47.167969 193.8125 C 44.316406 206.875 44.523438 220.296875 43.332031 233.515625 C 42.761719 238.75 42.242188 245.902344 48.410156 247.976562 C 49.136719 248.234375 50.019531 248.132812 50.433594 249.011719 C 53.75 249.894531 57.84375 252.796875 61.265625 251.5 C 63.910156 253.054688 66.65625 253.160156 69.195312 251.449219 C 72.824219 250.773438 74.378906 247.820312 75.726562 244.710938 C 79.09375 236.675781 83.8125 229.265625 86.457031 220.816406 C 88.839844 215.582031 89.929688 209.984375 92.207031 204.695312 C 92.882812 203.191406 96.875 204.074219 98.480469 203.039062 C 104.441406 202.363281 110.453125 200.707031 116.101562 198.683594 C 124.035156 195.625 132.742188 194.382812 139.632812 189.09375 C 144.402344 184.949219 154.355469 179.816406 154.5625 173.183594 C 156.011719 167.324219 153.679688 161.3125 153.421875 155.402344 C 152.386719 152.347656 153.007812 148.71875 150.984375 146.023438 C 150.675781 145.710938 150.675781 145.296875 150.675781 144.882812 C 150.933594 143.171875 149.171875 142.289062 148.859375 140.839844 C 146.0625 134.359375 141.449219 128.554688 137.25 122.90625 C 136.214844 121.609375 135.074219 120.46875 134.089844 119.121094 C 133.105469 117.722656 131.132812 117.671875 130.253906 116.21875 C 129.527344 115.546875 127.816406 115.078125 127.972656 113.886719 C 128.75 106.421875 129.734375 98.960938 130.511719 91.445312 C 130.980469 89.628906 130.511719 83.511719 132.171875 83.152344 C 139.375 81.542969 146.582031 77.449219 150.832031 71.4375 C 150.984375 70.867188 151.191406 70.398438 151.816406 70.191406 C 152.230469 70.089844 152.4375 69.675781 152.539062 69.3125 C 153.527344 67.652344 154.613281 65.996094 155.753906 64.441406 C 159.125 59.671875 159.695312 49.980469 160.210938 44.121094 Z M 160.054688 44.121094 " fill-opacity="1" fill-rule="nonzero"/></g><path fill="#b4b4b4" d="M 81.425781 194.539062 C 79.042969 194.226562 76.710938 193.914062 74.273438 194.433594 C 70.4375 194.328125 69.039062 191.480469 65.101562 194.796875 C 63.546875 196.351562 65.203125 198.941406 64.0625 200.757812 C 60.902344 208.84375 60.589844 217.808594 59.140625 226.308594 C 59.347656 229.210938 55.71875 241.445312 61.214844 239.527344 C 66.242188 237.089844 67.019531 230.507812 69.453125 225.945312 C 72.5625 218.429688 74.535156 210.5 77.332031 202.882812 C 77.800781 199.359375 81.273438 197.75 82.671875 194.898438 C 82.308594 194.484375 81.84375 194.539062 81.425781 194.539062 Z M 81.425781 194.539062 " fill-opacity="1" fill-rule="nonzero"/><path fill="#b4b4b4" d="M 52.816406 217.445312 C 50.898438 222.578125 50.691406 228.382812 49.550781 233.773438 C 49.03125 235.847656 49.808594 238.492188 52.402344 238.179688 C 51.625 234.550781 53.542969 230.921875 53.90625 227.242188 C 54.113281 223.976562 56.496094 219.570312 52.816406 217.445312 Z M 52.816406 217.445312 " fill-opacity="1" fill-rule="nonzero"/><path fill="#4a71f6" d="M 151.816406 48.578125 C 151.453125 47.59375 150.363281 46.816406 149.222656 46.816406 C 149.429688 50.546875 148.496094 54.4375 146.320312 57.546875 C 146.425781 56.507812 146.164062 55.679688 145.441406 55.007812 C 149.171875 49.511719 143.675781 35.464844 139.167969 31.890625 C 137.355469 29.140625 133.519531 28.417969 130.980469 26.808594 C 130.046875 27.015625 129.632812 26.5 129.320312 25.773438 C 128.800781 24.320312 126.832031 24.890625 125.847656 23.960938 C 124.136719 22.507812 121.855469 23.441406 120.09375 22.300781 C 114.859375 19.035156 108.328125 18.515625 102.472656 17.222656 C 93.195312 18.671875 82.308594 21.730469 77.175781 30.230469 C 75.46875 32.199219 74.742188 34.792969 74.949219 37.332031 C 74.742188 42.152344 73.703125 47.4375 76.246094 51.742188 C 77.644531 54.953125 86.558594 57.910156 86.246094 61.796875 C 84.226562 68.429688 83.5 75.429688 81.6875 82.21875 C 80.027344 87.660156 79.09375 93.464844 77.746094 99.011719 C 77.746094 100.671875 75.15625 108.03125 73.445312 108.03125 C 63.339844 109.273438 53.800781 113.007812 45.507812 118.964844 C 41.414062 122.492188 38.042969 126.742188 34.417969 130.730469 C 31.875 133.582031 29.285156 136.382812 27.574219 139.855469 C 25.761719 142.601562 24.308594 145.503906 24.050781 148.875 C 23.945312 149.546875 24.050781 150.324219 23.167969 150.6875 C 22.289062 152.242188 22.289062 154.472656 20.941406 155.871094 C 20.835938 155.972656 20.835938 156.183594 20.835938 156.335938 C 20.785156 158.929688 22.546875 160.847656 23.53125 163.023438 C 25.34375 166.703125 27.417969 170.28125 30.632812 172.871094 C 40.945312 180.386719 52.089844 187.382812 64.6875 190.339844 C 70.90625 191.6875 77.28125 192.722656 83.65625 193.136719 C 88.0625 194.589844 92.832031 194.589844 97.445312 194.019531 C 106.046875 192.308594 114.132812 188.730469 122.21875 185.777344 C 125.484375 183.757812 127.867188 180.800781 130.824219 178.46875 C 133.414062 176.085938 136.523438 173.699219 137.871094 170.433594 C 140.671875 170.019531 138.496094 168.984375 138.804688 167.222656 C 137.976562 154.109375 132.273438 141.511719 125.796875 130.164062 C 123.515625 127.15625 120.144531 124.71875 116.878906 122.90625 C 115.171875 121.558594 117.347656 119.019531 116.933594 117.152344 C 116.878906 116.375 116.777344 115.648438 117.191406 114.921875 C 117.398438 113.214844 116.464844 111.398438 117.242188 109.636719 C 117.449219 108.703125 116.726562 107.71875 117.035156 106.785156 C 117.296875 106.058594 117.242188 105.335938 117.191406 104.660156 C 117.085938 103.574219 116.621094 102.535156 117.191406 101.394531 C 117.140625 99.21875 117.761719 96.886719 117.96875 94.710938 C 119.421875 90.71875 119.109375 86.3125 120.199219 82.167969 C 121.078125 79.109375 120.921875 75.738281 122.0625 72.886719 C 122.996094 73.769531 123.410156 75.167969 125.019531 75.21875 C 128.335938 76.359375 132.066406 74.390625 135.4375 73.769531 C 145.285156 71.746094 153.265625 58.167969 151.609375 48.476562 Z M 40.117188 172.199219 C 38.769531 171.835938 37.320312 171.421875 36.023438 170.953125 C 34.988281 169.761719 33.585938 168.933594 32.292969 168.050781 C 30.0625 166.652344 29.234375 164.113281 28.09375 161.933594 C 29.179688 161.625 29.855469 163.230469 31.046875 163.335938 C 32.03125 164.421875 33.222656 165.097656 34.46875 165.769531 C 35.660156 167.222656 37.058594 168.621094 38.667969 169.605469 C 39.652344 170.019531 39.652344 171.472656 40.6875 171.835938 C 40.6875 172.351562 40.375 172.300781 40.117188 172.25 Z M 140.566406 61.847656 C 136.992188 65.527344 133 69.207031 127.972656 70.710938 C 126.882812 71.074219 120.976562 72.679688 122.789062 70.089844 C 123.515625 69.882812 123.464844 69.15625 123.722656 68.636719 C 125.226562 68.585938 126.730469 68.691406 128.023438 67.914062 C 129.0625 68.273438 129.839844 67.445312 130.769531 67.445312 C 131.859375 67.445312 132.84375 66.773438 133.675781 66.148438 C 136.578125 64.230469 139.273438 61.796875 141.5 59.101562 C 142.847656 58.632812 142.539062 57.132812 143.9375 56.664062 C 143.003906 58.6875 141.914062 60.292969 140.515625 61.847656 Z M 140.566406 61.847656 " fill-opacity="1" fill-rule="nonzero"/><path fill="#1cbc7c" d="M 30.375 223.097656 C 27.886719 220.039062 24.984375 217.445312 22.183594 214.75 C 19.539062 212.472656 14.875 207.027344 11.714844 211.332031 C 9.382812 210.96875 7.308594 211.902344 5.234375 213.042969 C 3.578125 213.871094 3.523438 214.128906 4.5625 215.683594 C 0.777344 220.039062 11.765625 221.28125 14.203125 222.992188 C 17.3125 223.976562 29.335938 231.90625 31.203125 228.640625 C 33.222656 227.347656 32.1875 224.132812 30.375 223.097656 Z M 30.375 223.097656 " fill-opacity="1" fill-rule="nonzero"/><g clip-path="url(#8ea459cfa8)"><path fill="#1cbc7c" d="M 109.988281 248.183594 C 109.210938 246.992188 107.238281 247.664062 105.996094 247.355469 C 102.417969 246.628906 98.636719 247.144531 95.164062 245.851562 C 90.859375 245.175781 82.257812 243.15625 82.414062 249.945312 C 81.84375 252.796875 85.054688 251.34375 86.507812 252.640625 C 88.0625 253.988281 90.238281 254.246094 91.949219 255.285156 C 93.140625 256.476562 94.957031 256.425781 96.199219 257.566406 C 97.703125 257.925781 98.480469 259.636719 100.191406 259.691406 C 101.226562 259.691406 102.210938 260.261719 103.195312 260.261719 C 105.375 259.585938 106.878906 258.289062 107.34375 255.957031 C 107.5 255.230469 108.070312 254.714844 108.691406 254.765625 C 111.28125 255.386719 110.558594 249.582031 109.988281 248.183594 Z M 109.988281 248.183594 " fill-opacity="1" fill-rule="nonzero"/></g><path fill="#1cbc7c" d="M 28.714844 238.90625 C 26.019531 234.34375 18.816406 239.164062 14.566406 238.492188 C 11.246094 238.75 7.980469 238.492188 4.820312 239.785156 C 3.785156 239.941406 2.800781 240.199219 2.382812 241.394531 C 1.453125 242.585938 0.671875 243.671875 2.539062 244.605469 C 1.296875 245.851562 0 247.25 1.867188 248.492188 C 4.507812 253.210938 21.769531 247.40625 25.191406 244.605469 C 27.886719 241.757812 31.359375 244.8125 28.714844 238.90625 Z M 28.714844 238.90625 " fill-opacity="1" fill-rule="nonzero"/><path fill="#000001" d="M 152.230469 40.648438 C 151.453125 38.003906 152.023438 34.429688 149.742188 32.511719 C 149.066406 32.097656 148.550781 31.527344 148.496094 30.695312 C 148.136719 29.503906 146.839844 28.570312 145.75 28 C 145.542969 27.898438 145.234375 27.792969 145.234375 27.585938 C 145.179688 25.875 143.105469 25.824219 142.589844 24.375 C 142.019531 23.179688 140.671875 23.078125 139.632812 22.457031 C 138.132812 21.417969 136.886719 19.917969 134.96875 19.5 C 132.066406 18.308594 129.785156 15.820312 126.625 15.199219 C 122.894531 13.957031 119.265625 12.453125 115.378906 11.570312 C 104.648438 8.148438 92.726562 7.941406 82.152344 12.089844 C 80.183594 12.296875 79.25 14.164062 77.539062 14.886719 C 73.445312 17.011719 69.660156 20.746094 68.105469 25.046875 C 67.328125 27.171875 65.101562 28.570312 65.359375 31.214844 C 64.996094 32.667969 64.894531 34.167969 63.960938 35.464844 C 63.855469 36.140625 64.21875 36.761719 63.804688 37.433594 C 63.492188 38.472656 64.789062 39.351562 63.855469 40.390625 C 63.027344 41.738281 64.945312 42.203125 64.269531 44.070312 C 63.492188 47.75 70.285156 57.804688 73.808594 57.753906 C 72.511719 56.09375 70.230469 54.851562 70.335938 52.464844 C 73.859375 55.214844 77.175781 58.6875 81.425781 60.5 C 74.015625 73.820312 69.714844 88.542969 64.375 102.742188 C 60.695312 103.574219 56.964844 103.261719 53.542969 104.710938 C 46.078125 108.03125 38.71875 111.449219 33.222656 117.671875 C 30.167969 120.730469 27.003906 123.734375 23.945312 126.792969 C 21.25 130.316406 18.917969 134.050781 16.273438 137.625 C 15.550781 138.714844 16.585938 140.011719 16.378906 141.253906 C 16.273438 142.859375 17.261719 144.105469 17.46875 145.660156 C 17.570312 146.488281 17.570312 147.371094 18.039062 148.097656 C 19.074219 149.496094 18.398438 151.414062 19.695312 152.605469 C 20.421875 153.847656 20.628906 155.558594 21.5625 156.699219 C 22.859375 157.683594 22.496094 159.707031 23.84375 160.792969 C 26.382812 163.90625 28.609375 167.171875 31.460938 169.96875 C 33.792969 172.351562 36.902344 174.011719 39.238281 176.5 C 39.859375 177.277344 41 177.019531 41.621094 177.742188 C 43.488281 179.816406 46.542969 179.972656 48.359375 182.046875 C 48.878906 182.769531 49.550781 183.394531 50.535156 183.238281 C 50.847656 183.238281 51.105469 183.339844 51.261719 183.550781 C 51.882812 184.378906 52.921875 184.273438 53.75 184.585938 C 54.476562 185.3125 55.40625 185.519531 56.289062 185.882812 C 59.035156 187.023438 54.683594 194.539062 54.992188 197.285156 C 53.851562 204.539062 52.503906 211.796875 51.417969 219.054688 C 51.3125 219.675781 51.210938 220.246094 51.988281 220.503906 C 51.105469 225.167969 51.15625 229.9375 50.640625 234.707031 C 50.070312 237.246094 51.574219 239.0625 52.195312 241.339844 C 56.394531 243.363281 60.851562 245.230469 65.617188 244.296875 C 66.449219 243.621094 67.433594 243.777344 68.210938 243.882812 C 69.558594 243 69.921875 241.445312 70.957031 240.511719 C 70.699219 239.628906 71.941406 239.320312 72.046875 238.492188 C 72.253906 237.039062 72.980469 235.898438 73.34375 234.449219 C 73.859375 233.617188 74.429688 232.839844 74.328125 231.804688 C 74.328125 231.699219 74.429688 231.546875 74.535156 231.390625 C 75.984375 229.210938 75.675781 226.363281 77.4375 224.289062 C 78.421875 219.988281 80.339844 215.738281 81.425781 211.433594 C 81.945312 208.636719 83.96875 206.40625 84.539062 203.609375 C 85.417969 200.238281 86.609375 197.023438 87.078125 193.550781 C 87.804688 193.550781 88.425781 193.035156 88.996094 193.292969 C 90.5 193.96875 92.207031 193.136719 93.660156 193.914062 C 94.75 193.65625 95.890625 194.070312 96.976562 193.65625 C 98.53125 192.828125 100.242188 193.8125 101.796875 193.34375 C 104.285156 192.515625 107.085938 193.34375 109.570312 192.203125 C 112.683594 190.960938 116.257812 191.53125 119.109375 189.5625 C 120.199219 188.835938 121.648438 189.5625 122.6875 188.730469 C 123.671875 187.953125 124.964844 188.058594 126.003906 187.644531 C 126.367188 187.230469 126.832031 187.074219 127.402344 187.074219 C 128.59375 186.660156 129.734375 185.828125 130.769531 185.105469 C 131.601562 184.84375 132.535156 184.742188 133.257812 184.171875 C 135.488281 182.875 137.199219 180.90625 139.375 179.453125 C 141.65625 178.730469 142.953125 176.550781 144.714844 175.152344 C 144.765625 174.6875 144.402344 174.269531 144.714844 173.910156 C 146.011719 169.347656 144.453125 164.371094 145.179688 159.707031 C 145.75 161.78125 146.011719 163.90625 146.632812 165.925781 C 148.652344 164.785156 147.203125 160.949219 147.359375 158.980469 C 146.996094 153.539062 144.921875 148.40625 142.484375 143.585938 C 140.671875 139.441406 138.753906 135.292969 136.007812 131.664062 C 135.28125 130.578125 134.089844 129.851562 133.984375 128.347656 C 133.363281 126.949219 131.964844 125.808594 131.03125 124.617188 C 127.714844 121.089844 123.617188 118.449219 119.78125 115.492188 C 119.421875 115.234375 119.109375 114.921875 119.265625 114.507812 C 120.40625 110.050781 119.574219 105.230469 120.921875 100.824219 C 121.699219 101.1875 120.042969 116.117188 122.324219 110.621094 C 124.5 98.335938 122.996094 85.429688 126.160156 73.40625 C 129.890625 74.753906 133.777344 72.628906 137.300781 71.332031 C 138.855469 70.761719 139.632812 69.15625 141.136719 68.636719 C 141.449219 68.585938 141.8125 68.636719 142.019531 68.273438 C 144.300781 65.269531 147.359375 62.882812 149.066406 59.464844 C 151.917969 53.867188 153.371094 47.128906 152.4375 40.855469 Z M 81.167969 195.003906 C 76.867188 203.761719 73.757812 213.144531 70.492188 222.265625 C 68.882812 227.65625 66.757812 232.894531 64.375 237.972656 C 62.300781 240.410156 58.464844 239.734375 56.238281 237.714844 C 58.828125 221.386719 62.042969 205.109375 63.597656 188.730469 C 65.203125 188.523438 66.449219 189.769531 68.003906 189.871094 C 70.078125 190.390625 72.148438 190.960938 74.222656 191.53125 C 76.605469 192.464844 79.511719 191.945312 81.738281 193.191406 C 81.738281 193.863281 81.425781 194.433594 81.117188 194.953125 Z M 144.453125 40.441406 C 143.9375 42.046875 144.039062 43.757812 144.039062 45.3125 C 143.574219 45.726562 143.675781 46.296875 143.675781 46.765625 C 141.65625 46.921875 139.632812 46.660156 137.925781 48.113281 C 136.421875 49.097656 134.503906 49.148438 132.898438 49.925781 C 131.550781 50.757812 129.992188 50.601562 128.492188 50.859375 C 127.453125 51.378906 126.3125 51.324219 125.226562 51.535156 C 121.546875 52.3125 117.917969 52.050781 114.289062 51.117188 C 118.175781 50.652344 122.894531 51.480469 126.210938 49.410156 C 118.382812 49.824219 110.039062 49.617188 102.472656 46.972656 C 99.464844 45.46875 96.097656 44.640625 93.246094 42.722656 C 91.328125 41.894531 89.875 40.183594 87.699219 39.820312 C 86.09375 39.25 85.417969 37.28125 83.605469 36.8125 C 83.398438 36.761719 83.191406 36.554688 83.085938 36.347656 C 81.945312 34.949219 79.925781 34.585938 79.09375 32.769531 C 78.371094 30.90625 75.257812 30.75 75.257812 33.082031 C 74.949219 37.125 79.871094 41.476562 82.984375 43.601562 C 84.898438 45.9375 87.542969 47.335938 90.238281 48.683594 C 105.996094 57.390625 126.003906 59.671875 142.382812 52.621094 C 141.035156 58.011719 136.109375 61.484375 132.222656 65.007812 C 130.667969 65.007812 129.421875 65.996094 127.921875 66.203125 C 124.757812 66.925781 121.128906 65.734375 118.28125 67.34375 C 117.449219 67.914062 117.398438 68.429688 117.867188 69.261719 C 119.886719 72.421875 116.671875 78.847656 116.984375 82.839844 C 113.824219 99.167969 113.304688 116.117188 110.140625 132.496094 C 109.417969 133.011719 108.898438 132.183594 108.277344 132.910156 C 106.308594 134.464844 103.664062 134.722656 101.382812 135.914062 C 101.847656 137.054688 102.886719 138.558594 104.078125 138.300781 C 106.203125 137.832031 108.277344 136.953125 110.351562 136.433594 C 116 136.640625 115.6875 125.34375 117.605469 121.351562 C 119.886719 122.492188 121.339844 124.460938 123.046875 126.015625 C 124.394531 126.585938 124.8125 128.246094 126.105469 128.96875 C 127.765625 130.214844 128.75 132.078125 130.253906 133.375 C 135.953125 144.570312 142.640625 156.648438 140.566406 169.65625 C 140.671875 170.851562 139.996094 171.523438 139.011719 171.886719 C 138.441406 172.09375 138.183594 172.40625 137.976562 172.921875 C 136.992188 174.53125 134.761719 174.996094 133.363281 176.1875 C 131.03125 177.949219 128.800781 179.972656 125.847656 180.644531 C 123.722656 181.578125 121.648438 182.875 119.265625 182.769531 C 119.160156 182.769531 118.953125 182.875 118.851562 182.980469 C 118.226562 183.757812 117.347656 183.757812 116.464844 183.703125 C 114.808594 183.703125 113.253906 184.585938 111.59375 184.894531 C 109.625 185.363281 107.445312 184.6875 105.476562 185.464844 C 104.128906 185.777344 102.835938 186.554688 101.433594 186.140625 C 100.917969 185.984375 100.292969 186.089844 99.777344 186.296875 C 96.40625 186.96875 92.832031 186.140625 89.410156 186.605469 C 87.699219 185.621094 85.367188 186.761719 83.914062 185.675781 C 94.800781 186.242188 105.945312 185.207031 116.519531 182.148438 C 122.011719 180.4375 127.765625 179.402344 132.535156 175.929688 C 114.910156 182.5625 95.628906 186.089844 76.867188 182.511719 C 60.125 179.660156 44.679688 174.632812 33.171875 161.625 C 30.582031 158.097656 27.574219 154.625 26.226562 150.429688 C 24.722656 149.546875 25.242188 147.527344 23.945312 146.488281 C 23.582031 146.179688 23.480469 145.710938 23.582031 145.296875 C 23.84375 142.964844 22.652344 140.476562 24.515625 138.507812 C 25.707031 135.96875 27.730469 134.050781 29.234375 131.664062 C 29.699219 130.578125 30.425781 129.59375 31.410156 128.867188 C 32.550781 128.089844 32.964844 126.585938 33.898438 125.652344 C 35.347656 124.980469 35.816406 123.425781 37.265625 122.75 C 42.605469 118.5 48.308594 114.769531 54.734375 112.4375 C 57.171875 111.554688 58.984375 109.84375 61.886719 110.101562 C 61.265625 113.367188 60.175781 116.269531 59.554688 119.277344 C 59.296875 119.589844 58.828125 119.433594 58.570312 119.847656 C 58.777344 121.507812 59.660156 123.214844 59.917969 124.925781 C 61.160156 127.675781 63.132812 130.214844 65.046875 132.648438 C 65.722656 133.738281 66.035156 135.136719 67.535156 135.398438 C 67.953125 135.5 68.210938 135.761719 68.417969 136.121094 C 69.089844 137.523438 70.648438 137.730469 71.839844 138.351562 C 72.5625 139.128906 73.550781 139.179688 74.535156 139.128906 C 76.453125 139.234375 77.800781 141.203125 79.925781 140.527344 C 83.605469 139.957031 88.632812 141.097656 91.484375 138.507812 C 86.871094 133.996094 78.992188 135.035156 73.859375 131.042969 C 72.617188 129.695312 64.839844 123.683594 66.292969 121.972656 C 71.527344 112.695312 74.015625 102.277344 77.074219 92.117188 C 78.523438 87.140625 80.960938 82.582031 82.203125 77.5 C 84.070312 72.734375 85.988281 67.859375 86.300781 62.675781 C 90.445312 63.816406 101.277344 70.140625 95.992188 60.449219 C 95.007812 59.410156 93.089844 60.035156 91.949219 58.945312 C 87.386719 56.613281 81.84375 55.9375 78.421875 51.792969 C 74.84375 47.542969 70.542969 41.738281 72.511719 35.828125 C 73.652344 30.074219 77.539062 24.996094 81.425781 20.746094 C 81.738281 20.382812 82.566406 20.539062 82.773438 20.019531 C 83.5 17.84375 86.039062 19.242188 87.335938 17.792969 C 89.773438 16.132812 93.089844 16.597656 95.835938 15.820312 C 98.792969 16.390625 101.902344 15.820312 104.90625 16.289062 C 107.707031 16.859375 110.609375 17.222656 113.40625 18 C 120.921875 20.746094 129.578125 22.613281 135.800781 27.847656 C 138.132812 29.710938 140.621094 31.578125 142.277344 34.167969 C 142.484375 36.398438 144.507812 38.003906 144.558594 40.285156 Z M 144.453125 40.441406 " fill-opacity="1" fill-rule="nonzero"/><g clip-path="url(#55861bc687)"><path fill="#efe3d4" d="M 160.054688 44.121094 C 159.539062 40.648438 159.484375 36.761719 157.515625 33.753906 C 157.152344 33.03125 157.207031 32.199219 156.789062 31.476562 C 156.53125 30.695312 155.753906 30.230469 155.546875 29.402344 C 155.289062 28.46875 154.820312 27.640625 154.148438 26.964844 C 153.785156 26.601562 153.835938 25.929688 153.421875 25.617188 C 152.695312 25.046875 152.539062 23.960938 151.554688 23.648438 C 151.402344 23.648438 151.296875 23.335938 151.246094 23.128906 C 151.089844 22.042969 150.15625 21.472656 149.535156 20.796875 C 148.136719 19.917969 147.359375 18.101562 145.957031 17.429688 C 145.492188 17.429688 145.179688 17.167969 145.078125 16.753906 C 144.507812 15.457031 142.847656 15.148438 141.863281 14.214844 C 141.34375 13.800781 140.828125 13.4375 140.152344 13.488281 C 138.960938 13.023438 138.441406 11.519531 136.992188 11.261719 C 135.332031 10.535156 133.882812 9.238281 132.273438 8.359375 C 131.808594 7.890625 131.082031 8.359375 130.5625 8.148438 C 129.527344 7.0625 127.972656 6.957031 126.78125 6.078125 C 126.261719 5.558594 125.535156 5.972656 124.964844 5.609375 C 124.1875 5.09375 123.308594 5.039062 122.476562 4.78125 C 118.074219 2.914062 113.304688 1.929688 108.691406 1.308594 C 104.128906 0.632812 99.570312 1.308594 95.058594 1.308594 C 90.082031 2.085938 84.746094 2.8125 80.546875 6.078125 C 78.007812 6.75 75.933594 8.410156 73.757812 9.707031 C 70.59375 11.832031 67.175781 14.007812 64.582031 16.910156 C 52.089844 30.28125 51.105469 54.28125 68.882812 63.351562 C 69.507812 64.335938 70.648438 64.648438 71.632812 65.371094 C 69.765625 70.96875 68.210938 76.722656 65.980469 82.21875 C 63.234375 87.402344 60.953125 92.84375 59.398438 98.441406 C 58.828125 99.375 58.878906 99.476562 57.742188 99.375 C 56.394531 99.011719 55.304688 99.890625 54.007812 99.632812 C 53.644531 99.476562 53.179688 99.632812 52.921875 99.945312 C 51.003906 101.550781 48.101562 100.617188 46.128906 102.328125 C 46.027344 102.378906 45.921875 102.484375 45.820312 102.484375 C 44.316406 102.277344 43.433594 103.988281 41.933594 103.78125 C 40.167969 104.558594 38.097656 105.179688 36.59375 106.578125 C 32.1875 109.792969 27.417969 113.109375 23.84375 117.257812 C 23.117188 117.980469 21.71875 118.136719 21.09375 119.121094 C 18.296875 122.4375 14.617188 124.71875 12.128906 128.347656 C 10.730469 130.109375 8.65625 131.511719 8.449219 133.945312 C 7.773438 135.96875 9.070312 138.09375 8.96875 140.0625 C 8.605469 144.261719 10.367188 148.25 11.195312 152.347656 C 14.148438 161.625 19.695312 169.96875 25.292969 177.691406 C 31.875 183.964844 39.597656 188.992188 47.167969 193.8125 C 44.316406 206.875 44.523438 220.296875 43.332031 233.515625 C 42.761719 238.75 42.242188 245.902344 48.410156 247.976562 C 49.136719 248.234375 50.019531 248.132812 50.433594 249.011719 C 53.75 249.894531 57.84375 252.796875 61.265625 251.5 C 63.910156 253.054688 66.65625 253.160156 69.195312 251.449219 C 72.824219 250.773438 74.378906 247.820312 75.726562 244.710938 C 79.09375 236.675781 83.8125 229.265625 86.457031 220.816406 C 88.839844 215.582031 89.929688 209.984375 92.207031 204.695312 C 92.882812 203.191406 96.875 204.074219 98.480469 203.039062 C 104.441406 202.363281 110.453125 200.707031 116.101562 198.683594 C 124.035156 195.625 132.742188 194.382812 139.632812 189.09375 C 144.402344 184.949219 154.355469 179.816406 154.5625 173.183594 C 156.011719 167.324219 153.679688 161.3125 153.421875 155.402344 C 152.386719 152.347656 153.007812 148.71875 150.984375 146.023438 C 150.675781 145.710938 150.675781 145.296875 150.675781 144.882812 C 150.933594 143.171875 149.171875 142.289062 148.859375 140.839844 C 146.0625 134.359375 141.449219 128.554688 137.25 122.90625 C 136.214844 121.609375 135.074219 120.46875 134.089844 119.121094 C 133.105469 117.722656 131.132812 117.671875 130.253906 116.21875 C 129.527344 115.546875 127.816406 115.078125 127.972656 113.886719 C 128.75 106.421875 129.734375 98.960938 130.511719 91.445312 C 130.980469 89.628906 130.511719 83.511719 132.171875 83.152344 C 139.375 81.542969 146.582031 77.449219 150.832031 71.4375 C 150.984375 70.867188 151.191406 70.398438 151.816406 70.191406 C 152.230469 70.089844 152.4375 69.675781 152.539062 69.3125 C 153.527344 67.652344 154.613281 65.996094 155.753906 64.441406 C 159.125 59.671875 159.695312 49.980469 160.210938 44.121094 Z M 160.054688 44.121094 " fill-opacity="1" fill-rule="nonzero"/></g><path fill="#b4b4b4" d="M 81.425781 194.539062 C 79.042969 194.226562 76.710938 193.914062 74.273438 194.433594 C 70.4375 194.328125 69.039062 191.480469 65.101562 194.796875 C 63.546875 196.351562 65.203125 198.941406 64.0625 200.757812 C 60.902344 208.84375 60.589844 217.808594 59.140625 226.308594 C 59.347656 229.210938 55.71875 241.445312 61.214844 239.527344 C 66.242188 237.089844 67.019531 230.507812 69.453125 225.945312 C 72.5625 218.429688 74.535156 210.5 77.332031 202.882812 C 77.800781 199.359375 81.273438 197.75 82.671875 194.898438 C 82.308594 194.484375 81.84375 194.539062 81.425781 194.539062 Z M 81.425781 194.539062 " fill-opacity="1" fill-rule="nonzero"/><path fill="#b4b4b4" d="M 52.816406 217.445312 C 50.898438 222.578125 50.691406 228.382812 49.550781 233.773438 C 49.03125 235.847656 49.808594 238.492188 52.402344 238.179688 C 51.625 234.550781 53.542969 230.921875 53.90625 227.242188 C 54.113281 223.976562 56.496094 219.570312 52.816406 217.445312 Z M 52.816406 217.445312 " fill-opacity="1" fill-rule="nonzero"/><path fill="#4a71f6" d="M 151.816406 48.578125 C 151.453125 47.59375 150.363281 46.816406 149.222656 46.816406 C 149.429688 50.546875 148.496094 54.4375 146.320312 57.546875 C 146.425781 56.507812 146.164062 55.679688 145.441406 55.007812 C 149.171875 49.511719 143.675781 35.464844 139.167969 31.890625 C 137.355469 29.140625 133.519531 28.417969 130.980469 26.808594 C 130.046875 27.015625 129.632812 26.5 129.320312 25.773438 C 128.800781 24.320312 126.832031 24.890625 125.847656 23.960938 C 124.136719 22.507812 121.855469 23.441406 120.09375 22.300781 C 114.859375 19.035156 108.328125 18.515625 102.472656 17.222656 C 93.195312 18.671875 82.308594 21.730469 77.175781 30.230469 C 75.46875 32.199219 74.742188 34.792969 74.949219 37.332031 C 74.742188 42.152344 73.703125 47.4375 76.246094 51.742188 C 77.644531 54.953125 86.558594 57.910156 86.246094 61.796875 C 84.226562 68.429688 83.5 75.429688 81.6875 82.21875 C 80.027344 87.660156 79.09375 93.464844 77.746094 99.011719 C 77.746094 100.671875 75.15625 108.03125 73.445312 108.03125 C 63.339844 109.273438 53.800781 113.007812 45.507812 118.964844 C 41.414062 122.492188 38.042969 126.742188 34.417969 130.730469 C 31.875 133.582031 29.285156 136.382812 27.574219 139.855469 C 25.761719 142.601562 24.308594 145.503906 24.050781 148.875 C 23.945312 149.546875 24.050781 150.324219 23.167969 150.6875 C 22.289062 152.242188 22.289062 154.472656 20.941406 155.871094 C 20.835938 155.972656 20.835938 156.183594 20.835938 156.335938 C 20.785156 158.929688 22.546875 160.847656 23.53125 163.023438 C 25.34375 166.703125 27.417969 170.28125 30.632812 172.871094 C 40.945312 180.386719 52.089844 187.382812 64.6875 190.339844 C 70.90625 191.6875 77.28125 192.722656 83.65625 193.136719 C 88.0625 194.589844 92.832031 194.589844 97.445312 194.019531 C 106.046875 192.308594 114.132812 188.730469 122.21875 185.777344 C 125.484375 183.757812 127.867188 180.800781 130.824219 178.46875 C 133.414062 176.085938 136.523438 173.699219 137.871094 170.433594 C 140.671875 170.019531 138.496094 168.984375 138.804688 167.222656 C 137.976562 154.109375 132.273438 141.511719 125.796875 130.164062 C 123.515625 127.15625 120.144531 124.71875 116.878906 122.90625 C 115.171875 121.558594 117.347656 119.019531 116.933594 117.152344 C 116.878906 116.375 116.777344 115.648438 117.191406 114.921875 C 117.398438 113.214844 116.464844 111.398438 117.242188 109.636719 C 117.449219 108.703125 116.726562 107.71875 117.035156 106.785156 C 117.296875 106.058594 117.242188 105.335938 117.191406 104.660156 C 117.085938 103.574219 116.621094 102.535156 117.191406 101.394531 C 117.140625 99.21875 117.761719 96.886719 117.96875 94.710938 C 119.421875 90.71875 119.109375 86.3125 120.199219 82.167969 C 121.078125 79.109375 120.921875 75.738281 122.0625 72.886719 C 122.996094 73.769531 123.410156 75.167969 125.019531 75.21875 C 128.335938 76.359375 132.066406 74.390625 135.4375 73.769531 C 145.285156 71.746094 153.265625 58.167969 151.609375 48.476562 Z M 40.117188 172.199219 C 38.769531 171.835938 37.320312 171.421875 36.023438 170.953125 C 34.988281 169.761719 33.585938 168.933594 32.292969 168.050781 C 30.0625 166.652344 29.234375 164.113281 28.09375 161.933594 C 29.179688 161.625 29.855469 163.230469 31.046875 163.335938 C 32.03125 164.421875 33.222656 165.097656 34.46875 165.769531 C 35.660156 167.222656 37.058594 168.621094 38.667969 169.605469 C 39.652344 170.019531 39.652344 171.472656 40.6875 171.835938 C 40.6875 172.351562 40.375 172.300781 40.117188 172.25 Z M 140.566406 61.847656 C 136.992188 65.527344 133 69.207031 127.972656 70.710938 C 126.882812 71.074219 120.976562 72.679688 122.789062 70.089844 C 123.515625 69.882812 123.464844 69.15625 123.722656 68.636719 C 125.226562 68.585938 126.730469 68.691406 128.023438 67.914062 C 129.0625 68.273438 129.839844 67.445312 130.769531 67.445312 C 131.859375 67.445312 132.84375 66.773438 133.675781 66.148438 C 136.578125 64.230469 139.273438 61.796875 141.5 59.101562 C 142.847656 58.632812 142.539062 57.132812 143.9375 56.664062 C 143.003906 58.6875 141.914062 60.292969 140.515625 61.847656 Z M 140.566406 61.847656 " fill-opacity="1" fill-rule="nonzero"/><path fill="#1cbc7c" d="M 30.375 223.097656 C 27.886719 220.039062 24.984375 217.445312 22.183594 214.75 C 19.539062 212.472656 14.875 207.027344 11.714844 211.332031 C 9.382812 210.96875 7.308594 211.902344 5.234375 213.042969 C 3.578125 213.871094 3.523438 214.128906 4.5625 215.683594 C 0.777344 220.039062 11.765625 221.28125 14.203125 222.992188 C 17.3125 223.976562 29.335938 231.90625 31.203125 228.640625 C 33.222656 227.347656 32.1875 224.132812 30.375 223.097656 Z M 30.375 223.097656 " fill-opacity="1" fill-rule="nonzero"/><g clip-path="url(#cbc876a2cf)"><path fill="#1cbc7c" d="M 109.988281 248.183594 C 109.210938 246.992188 107.238281 247.664062 105.996094 247.355469 C 102.417969 246.628906 98.636719 247.144531 95.164062 245.851562 C 90.859375 245.175781 82.257812 243.15625 82.414062 249.945312 C 81.84375 252.796875 85.054688 251.34375 86.507812 252.640625 C 88.0625 253.988281 90.238281 254.246094 91.949219 255.285156 C 93.140625 256.476562 94.957031 256.425781 96.199219 257.566406 C 97.703125 257.925781 98.480469 259.636719 100.191406 259.691406 C 101.226562 259.691406 102.210938 260.261719 103.195312 260.261719 C 105.375 259.585938 106.878906 258.289062 107.34375 255.957031 C 107.5 255.230469 108.070312 254.714844 108.691406 254.765625 C 111.28125 255.386719 110.558594 249.582031 109.988281 248.183594 Z M 109.988281 248.183594 " fill-opacity="1" fill-rule="nonzero"/></g><path fill="#1cbc7c" d="M 28.714844 238.90625 C 26.019531 234.34375 18.816406 239.164062 14.566406 238.492188 C 11.246094 238.75 7.980469 238.492188 4.820312 239.785156 C 3.785156 239.941406 2.800781 240.199219 2.382812 241.394531 C 1.453125 242.585938 0.671875 243.671875 2.539062 244.605469 C 1.296875 245.851562 0 247.25 1.867188 248.492188 C 4.507812 253.210938 21.769531 247.40625 25.191406 244.605469 C 27.886719 241.757812 31.359375 244.8125 28.714844 238.90625 Z M 28.714844 238.90625 " fill-opacity="1" fill-rule="nonzero"/><path fill="#000001" d="M 152.230469 40.648438 C 151.453125 38.003906 152.023438 34.429688 149.742188 32.511719 C 149.066406 32.097656 148.550781 31.527344 148.496094 30.695312 C 148.136719 29.503906 146.839844 28.570312 145.75 28 C 145.542969 27.898438 145.234375 27.792969 145.234375 27.585938 C 145.179688 25.875 143.105469 25.824219 142.589844 24.375 C 142.019531 23.179688 140.671875 23.078125 139.632812 22.457031 C 138.132812 21.417969 136.886719 19.917969 134.96875 19.5 C 132.066406 18.308594 129.785156 15.820312 126.625 15.199219 C 122.894531 13.957031 119.265625 12.453125 115.378906 11.570312 C 104.648438 8.148438 92.726562 7.941406 82.152344 12.089844 C 80.183594 12.296875 79.25 14.164062 77.539062 14.886719 C 73.445312 17.011719 69.660156 20.746094 68.105469 25.046875 C 67.328125 27.171875 65.101562 28.570312 65.359375 31.214844 C 64.996094 32.667969 64.894531 34.167969 63.960938 35.464844 C 63.855469 36.140625 64.21875 36.761719 63.804688 37.433594 C 63.492188 38.472656 64.789062 39.351562 63.855469 40.390625 C 63.027344 41.738281 64.945312 42.203125 64.269531 44.070312 C 63.492188 47.75 70.285156 57.804688 73.808594 57.753906 C 72.511719 56.09375 70.230469 54.851562 70.335938 52.464844 C 73.859375 55.214844 77.175781 58.6875 81.425781 60.5 C 74.015625 73.820312 69.714844 88.542969 64.375 102.742188 C 60.695312 103.574219 56.964844 103.261719 53.542969 104.710938 C 46.078125 108.03125 38.71875 111.449219 33.222656 117.671875 C 30.167969 120.730469 27.003906 123.734375 23.945312 126.792969 C 21.25 130.316406 18.917969 134.050781 16.273438 137.625 C 15.550781 138.714844 16.585938 140.011719 16.378906 141.253906 C 16.273438 142.859375 17.261719 144.105469 17.46875 145.660156 C 17.570312 146.488281 17.570312 147.371094 18.039062 148.097656 C 19.074219 149.496094 18.398438 151.414062 19.695312 152.605469 C 20.421875 153.847656 20.628906 155.558594 21.5625 156.699219 C 22.859375 157.683594 22.496094 159.707031 23.84375 160.792969 C 26.382812 163.90625 28.609375 167.171875 31.460938 169.96875 C 33.792969 172.351562 36.902344 174.011719 39.238281 176.5 C 39.859375 177.277344 41 177.019531 41.621094 177.742188 C 43.488281 179.816406 46.542969 179.972656 48.359375 182.046875 C 48.878906 182.769531 49.550781 183.394531 50.535156 183.238281 C 50.847656 183.238281 51.105469 183.339844 51.261719 183.550781 C 51.882812 184.378906 52.921875 184.273438 53.75 184.585938 C 54.476562 185.3125 55.40625 185.519531 56.289062 185.882812 C 59.035156 187.023438 54.683594 194.539062 54.992188 197.285156 C 53.851562 204.539062 52.503906 211.796875 51.417969 219.054688 C 51.3125 219.675781 51.210938 220.246094 51.988281 220.503906 C 51.105469 225.167969 51.15625 229.9375 50.640625 234.707031 C 50.070312 237.246094 51.574219 239.0625 52.195312 241.339844 C 56.394531 243.363281 60.851562 245.230469 65.617188 244.296875 C 66.449219 243.621094 67.433594 243.777344 68.210938 243.882812 C 69.558594 243 69.921875 241.445312 70.957031 240.511719 C 70.699219 239.628906 71.941406 239.320312 72.046875 238.492188 C 72.253906 237.039062 72.980469 235.898438 73.34375 234.449219 C 73.859375 233.617188 74.429688 232.839844 74.328125 231.804688 C 74.328125 231.699219 74.429688 231.546875 74.535156 231.390625 C 75.984375 229.210938 75.675781 226.363281 77.4375 224.289062 C 78.421875 219.988281 80.339844 215.738281 81.425781 211.433594 C 81.945312 208.636719 83.96875 206.40625 84.539062 203.609375 C 85.417969 200.238281 86.609375 197.023438 87.078125 193.550781 C 87.804688 193.550781 88.425781 193.035156 88.996094 193.292969 C 90.5 193.96875 92.207031 193.136719 93.660156 193.914062 C 94.75 193.65625 95.890625 194.070312 96.976562 193.65625 C 98.53125 192.828125 100.242188 193.8125 101.796875 193.34375 C 104.285156 192.515625 107.085938 193.34375 109.570312 192.203125 C 112.683594 190.960938 116.257812 191.53125 119.109375 189.5625 C 120.199219 188.835938 121.648438 189.5625 122.6875 188.730469 C 123.671875 187.953125 124.964844 188.058594 126.003906 187.644531 C 126.367188 187.230469 126.832031 187.074219 127.402344 187.074219 C 128.59375 186.660156 129.734375 185.828125 130.769531 185.105469 C 131.601562 184.84375 132.535156 184.742188 133.257812 184.171875 C 135.488281 182.875 137.199219 180.90625 139.375 179.453125 C 141.65625 178.730469 142.953125 176.550781 144.714844 175.152344 C 144.765625 174.6875 144.402344 174.269531 144.714844 173.910156 C 146.011719 169.347656 144.453125 164.371094 145.179688 159.707031 C 145.75 161.78125 146.011719 163.90625 146.632812 165.925781 C 148.652344 164.785156 147.203125 160.949219 147.359375 158.980469 C 146.996094 153.539062 144.921875 148.40625 142.484375 143.585938 C 140.671875 139.441406 138.753906 135.292969 136.007812 131.664062 C 135.28125 130.578125 134.089844 129.851562 133.984375 128.347656 C 133.363281 126.949219 131.964844 125.808594 131.03125 124.617188 C 127.714844 121.089844 123.617188 118.449219 119.78125 115.492188 C 119.421875 115.234375 119.109375 114.921875 119.265625 114.507812 C 120.40625 110.050781 119.574219 105.230469 120.921875 100.824219 C 121.699219 101.1875 120.042969 116.117188 122.324219 110.621094 C 124.5 98.335938 122.996094 85.429688 126.160156 73.40625 C 129.890625 74.753906 133.777344 72.628906 137.300781 71.332031 C 138.855469 70.761719 139.632812 69.15625 141.136719 68.636719 C 141.449219 68.585938 141.8125 68.636719 142.019531 68.273438 C 144.300781 65.269531 147.359375 62.882812 149.066406 59.464844 C 151.917969 53.867188 153.371094 47.128906 152.4375 40.855469 Z M 81.167969 195.003906 C 76.867188 203.761719 73.757812 213.144531 70.492188 222.265625 C 68.882812 227.65625 66.757812 232.894531 64.375 237.972656 C 62.300781 240.410156 58.464844 239.734375 56.238281 237.714844 C 58.828125 221.386719 62.042969 205.109375 63.597656 188.730469 C 65.203125 188.523438 66.449219 189.769531 68.003906 189.871094 C 70.078125 190.390625 72.148438 190.960938 74.222656 191.53125 C 76.605469 192.464844 79.511719 191.945312 81.738281 193.191406 C 81.738281 193.863281 81.425781 194.433594 81.117188 194.953125 Z M 144.453125 40.441406 C 143.9375 42.046875 144.039062 43.757812 144.039062 45.3125 C 143.574219 45.726562 143.675781 46.296875 143.675781 46.765625 C 141.65625 46.921875 139.632812 46.660156 137.925781 48.113281 C 136.421875 49.097656 134.503906 49.148438 132.898438 49.925781 C 131.550781 50.757812 129.992188 50.601562 128.492188 50.859375 C 127.453125 51.378906 126.3125 51.324219 125.226562 51.535156 C 121.546875 52.3125 117.917969 52.050781 114.289062 51.117188 C 118.175781 50.652344 122.894531 51.480469 126.210938 49.410156 C 118.382812 49.824219 110.039062 49.617188 102.472656 46.972656 C 99.464844 45.46875 96.097656 44.640625 93.246094 42.722656 C 91.328125 41.894531 89.875 40.183594 87.699219 39.820312 C 86.09375 39.25 85.417969 37.28125 83.605469 36.8125 C 83.398438 36.761719 83.191406 36.554688 83.085938 36.347656 C 81.945312 34.949219 79.925781 34.585938 79.09375 32.769531 C 78.371094 30.90625 75.257812 30.75 75.257812 33.082031 C 74.949219 37.125 79.871094 41.476562 82.984375 43.601562 C 84.898438 45.9375 87.542969 47.335938 90.238281 48.683594 C 105.996094 57.390625 126.003906 59.671875 142.382812 52.621094 C 141.035156 58.011719 136.109375 61.484375 132.222656 65.007812 C 130.667969 65.007812 129.421875 65.996094 127.921875 66.203125 C 124.757812 66.925781 121.128906 65.734375 118.28125 67.34375 C 117.449219 67.914062 117.398438 68.429688 117.867188 69.261719 C 119.886719 72.421875 116.671875 78.847656 116.984375 82.839844 C 113.824219 99.167969 113.304688 116.117188 110.140625 132.496094 C 109.417969 133.011719 108.898438 132.183594 108.277344 132.910156 C 106.308594 134.464844 103.664062 134.722656 101.382812 135.914062 C 101.847656 137.054688 102.886719 138.558594 104.078125 138.300781 C 106.203125 137.832031 108.277344 136.953125 110.351562 136.433594 C 116 136.640625 115.6875 125.34375 117.605469 121.351562 C 119.886719 122.492188 121.339844 124.460938 123.046875 126.015625 C 124.394531 126.585938 124.8125 128.246094 126.105469 128.96875 C 127.765625 130.214844 128.75 132.078125 130.253906 133.375 C 135.953125 144.570312 142.640625 156.648438 140.566406 169.65625 C 140.671875 170.851562 139.996094 171.523438 139.011719 171.886719 C 138.441406 172.09375 138.183594 172.40625 137.976562 172.921875 C 136.992188 174.53125 134.761719 174.996094 133.363281 176.1875 C 131.03125 177.949219 128.800781 179.972656 125.847656 180.644531 C 123.722656 181.578125 121.648438 182.875 119.265625 182.769531 C 119.160156 182.769531 118.953125 182.875 118.851562 182.980469 C 118.226562 183.757812 117.347656 183.757812 116.464844 183.703125 C 114.808594 183.703125 113.253906 184.585938 111.59375 184.894531 C 109.625 185.363281 107.445312 184.6875 105.476562 185.464844 C 104.128906 185.777344 102.835938 186.554688 101.433594 186.140625 C 100.917969 185.984375 100.292969 186.089844 99.777344 186.296875 C 96.40625 186.96875 92.832031 186.140625 89.410156 186.605469 C 87.699219 185.621094 85.367188 186.761719 83.914062 185.675781 C 94.800781 186.242188 105.945312 185.207031 116.519531 182.148438 C 122.011719 180.4375 127.765625 179.402344 132.535156 175.929688 C 114.910156 182.5625 95.628906 186.089844 76.867188 182.511719 C 60.125 179.660156 44.679688 174.632812 33.171875 161.625 C 30.582031 158.097656 27.574219 154.625 26.226562 150.429688 C 24.722656 149.546875 25.242188 147.527344 23.945312 146.488281 C 23.582031 146.179688 23.480469 145.710938 23.582031 145.296875 C 23.84375 142.964844 22.652344 140.476562 24.515625 138.507812 C 25.707031 135.96875 27.730469 134.050781 29.234375 131.664062 C 29.699219 130.578125 30.425781 129.59375 31.410156 128.867188 C 32.550781 128.089844 32.964844 126.585938 33.898438 125.652344 C 35.347656 124.980469 35.816406 123.425781 37.265625 122.75 C 42.605469 118.5 48.308594 114.769531 54.734375 112.4375 C 57.171875 111.554688 58.984375 109.84375 61.886719 110.101562 C 61.265625 113.367188 60.175781 116.269531 59.554688 119.277344 C 59.296875 119.589844 58.828125 119.433594 58.570312 119.847656 C 58.777344 121.507812 59.660156 123.214844 59.917969 124.925781 C 61.160156 127.675781 63.132812 130.214844 65.046875 132.648438 C 65.722656 133.738281 66.035156 135.136719 67.535156 135.398438 C 67.953125 135.5 68.210938 135.761719 68.417969 136.121094 C 69.089844 137.523438 70.648438 137.730469 71.839844 138.351562 C 72.5625 139.128906 73.550781 139.179688 74.535156 139.128906 C 76.453125 139.234375 77.800781 141.203125 79.925781 140.527344 C 83.605469 139.957031 88.632812 141.097656 91.484375 138.507812 C 86.871094 133.996094 78.992188 135.035156 73.859375 131.042969 C 72.617188 129.695312 64.839844 123.683594 66.292969 121.972656 C 71.527344 112.695312 74.015625 102.277344 77.074219 92.117188 C 78.523438 87.140625 80.960938 82.582031 82.203125 77.5 C 84.070312 72.734375 85.988281 67.859375 86.300781 62.675781 C 90.445312 63.816406 101.277344 70.140625 95.992188 60.449219 C 95.007812 59.410156 93.089844 60.035156 91.949219 58.945312 C 87.386719 56.613281 81.84375 55.9375 78.421875 51.792969 C 74.84375 47.542969 70.542969 41.738281 72.511719 35.828125 C 73.652344 30.074219 77.539062 24.996094 81.425781 20.746094 C 81.738281 20.382812 82.566406 20.539062 82.773438 20.019531 C 83.5 17.84375 86.039062 19.242188 87.335938 17.792969 C 89.773438 16.132812 93.089844 16.597656 95.835938 15.820312 C 98.792969 16.390625 101.902344 15.820312 104.90625 16.289062 C 107.707031 16.859375 110.609375 17.222656 113.40625 18 C 120.921875 20.746094 129.578125 22.613281 135.800781 27.847656 C 138.132812 29.710938 140.621094 31.578125 142.277344 34.167969 C 142.484375 36.398438 144.507812 38.003906 144.558594 40.285156 Z M 144.453125 40.441406 " fill-opacity="1" fill-rule="nonzero"/></svg>