<svg xmlns="http://www.w3.org/2000/svg" xmlns:xlink="http://www.w3.org/1999/xlink" width="42" zoomAndPan="magnify" viewBox="0 0 31.5 28.499999" height="38" preserveAspectRatio="xMidYMid meet" version="1.0"><defs><clipPath id="7976a4a7bc"><path d="M 2 0 L 29 0 L 29 26 L 2 26 Z M 2 0 " clip-rule="nonzero"/></clipPath><clipPath id="7d7549e247"><path d="M 0.0273438 8.394531 L 23.652344 0.0351562 L 30.535156 19.492188 L 6.910156 27.851562 Z M 0.0273438 8.394531 " clip-rule="nonzero"/></clipPath><clipPath id="3d469763ac"><path d="M 0.0273438 8.394531 L 23.652344 0.0351562 L 30.535156 19.492188 L 6.910156 27.851562 Z M 0.0273438 8.394531 " clip-rule="nonzero"/></clipPath><clipPath id="7c1a91c479"><path d="M 0.0273438 8.394531 L 23.652344 0.0351562 L 30.535156 19.492188 L 6.910156 27.851562 Z M 0.0273438 8.394531 " clip-rule="nonzero"/></clipPath><clipPath id="f1dd902d01"><path d="M 6 4 L 26 4 L 26 23 L 6 23 Z M 6 4 " clip-rule="nonzero"/></clipPath><clipPath id="a069d391a2"><path d="M 0.0273438 8.394531 L 23.652344 0.0351562 L 30.535156 19.492188 L 6.910156 27.851562 Z M 0.0273438 8.394531 " clip-rule="nonzero"/></clipPath><clipPath id="a5f467d65c"><path d="M 0.0273438 8.394531 L 23.652344 0.0351562 L 30.535156 19.492188 L 6.910156 27.851562 Z M 0.0273438 8.394531 " clip-rule="nonzero"/></clipPath><clipPath id="c0ec5275c7"><path d="M 0.0273438 8.394531 L 23.652344 0.0351562 L 30.535156 19.492188 L 6.910156 27.851562 Z M 0.0273438 8.394531 " clip-rule="nonzero"/></clipPath><clipPath id="5474cea3df"><path d="M 4 2 L 27 2 L 27 25 L 4 25 Z M 4 2 " clip-rule="nonzero"/></clipPath><clipPath id="f2e342d6b5"><path d="M 0.0273438 8.394531 L 23.652344 0.0351562 L 30.535156 19.492188 L 6.910156 27.851562 Z M 0.0273438 8.394531 " clip-rule="nonzero"/></clipPath><clipPath id="3f47f5ff0f"><path d="M 0.0273438 8.394531 L 23.652344 0.0351562 L 30.535156 19.492188 L 6.910156 27.851562 Z M 0.0273438 8.394531 " clip-rule="nonzero"/></clipPath><clipPath id="f1cf716c0c"><path d="M 0.0273438 8.394531 L 23.652344 0.0351562 L 30.535156 19.492188 L 6.910156 27.851562 Z M 0.0273438 8.394531 " clip-rule="nonzero"/></clipPath><clipPath id="ca55981a39"><path d="M 2 0 L 29 0 L 29 26 L 2 26 Z M 2 0 " clip-rule="nonzero"/></clipPath><clipPath id="6956f76040"><path d="M 0.0273438 8.394531 L 23.652344 0.0351562 L 30.535156 19.492188 L 6.910156 27.851562 Z M 0.0273438 8.394531 " clip-rule="nonzero"/></clipPath><clipPath id="4f400b75ca"><path d="M 0.0273438 8.394531 L 23.652344 0.0351562 L 30.535156 19.492188 L 6.910156 27.851562 Z M 0.0273438 8.394531 " clip-rule="nonzero"/></clipPath><clipPath id="7763997dfa"><path d="M 0.0273438 8.394531 L 23.652344 0.0351562 L 30.535156 19.492188 L 6.910156 27.851562 Z M 0.0273438 8.394531 " clip-rule="nonzero"/></clipPath><clipPath id="f86db72cc9"><path d="M 6 4 L 26 4 L 26 23 L 6 23 Z M 6 4 " clip-rule="nonzero"/></clipPath><clipPath id="7d37d3223d"><path d="M 0.0273438 8.394531 L 23.652344 0.0351562 L 30.535156 19.492188 L 6.910156 27.851562 Z M 0.0273438 8.394531 " clip-rule="nonzero"/></clipPath><clipPath id="15da2dca58"><path d="M 0.0273438 8.394531 L 23.652344 0.0351562 L 30.535156 19.492188 L 6.910156 27.851562 Z M 0.0273438 8.394531 " clip-rule="nonzero"/></clipPath><clipPath id="94cc909b5c"><path d="M 0.0273438 8.394531 L 23.652344 0.0351562 L 30.535156 19.492188 L 6.910156 27.851562 Z M 0.0273438 8.394531 " clip-rule="nonzero"/></clipPath><clipPath id="d9819883d8"><path d="M 4 2 L 27 2 L 27 25 L 4 25 Z M 4 2 " clip-rule="nonzero"/></clipPath><clipPath id="6ccf537e13"><path d="M 0.0273438 8.394531 L 23.652344 0.0351562 L 30.535156 19.492188 L 6.910156 27.851562 Z M 0.0273438 8.394531 " clip-rule="nonzero"/></clipPath><clipPath id="0c2e89a3e9"><path d="M 0.0273438 8.394531 L 23.652344 0.0351562 L 30.535156 19.492188 L 6.910156 27.851562 Z M 0.0273438 8.394531 " clip-rule="nonzero"/></clipPath><clipPath id="7d83488e14"><path d="M 0.0273438 8.394531 L 23.652344 0.0351562 L 30.535156 19.492188 L 6.910156 27.851562 Z M 0.0273438 8.394531 " clip-rule="nonzero"/></clipPath></defs><g clip-path="url(#7976a4a7bc)"><g clip-path="url(#7d7549e247)"><g clip-path="url(#3d469763ac)"><g clip-path="url(#7c1a91c479)"><path fill="#ffffff" d="M 18.8125 8.996094 L 13.433594 5.105469 C 13.433594 5.105469 13.433594 5.105469 13.429688 5.105469 C 12.792969 4.644531 11.941406 4.605469 11.265625 5.007812 C 10.589844 5.410156 10.21875 6.175781 10.3125 6.957031 L 11.15625 14.050781 L 5.101562 13.46875 C 5.101562 13.46875 5.097656 13.464844 5.097656 13.464844 C 4.242188 13.386719 3.433594 13.847656 3.058594 14.621094 C 2.6875 15.394531 2.832031 16.320312 3.421875 16.945312 C 3.425781 16.945312 3.425781 16.949219 3.429688 16.953125 L 11.214844 25.042969 C 11.78125 25.636719 12.65625 25.816406 13.40625 25.492188 C 13.410156 25.492188 13.410156 25.492188 13.414062 25.488281 C 16.011719 24.347656 18.4375 23.101562 20.679688 21.753906 C 23.132812 20.285156 25.375 18.695312 27.390625 16.964844 C 27.949219 16.488281 28.183594 15.722656 27.976562 15.007812 C 27.980469 15.011719 24.339844 2.148438 24.339844 2.148438 C 24.339844 2.148438 24.339844 2.144531 24.339844 2.144531 C 24.105469 1.316406 23.34375 0.742188 22.484375 0.75 C 21.625 0.753906 20.878906 1.335938 20.65625 2.164062 Z M 18.8125 8.996094 " fill-opacity="1" fill-rule="evenodd"/></g></g></g></g><g clip-path="url(#f1dd902d01)"><g clip-path="url(#a069d391a2)"><g clip-path="url(#a5f467d65c)"><g clip-path="url(#c0ec5275c7)"><path fill="#ffd768" d="M 6.695312 16.398438 L 13.402344 16.984375 C 13.605469 17.003906 13.804688 16.929688 13.945312 16.785156 C 14.085938 16.636719 14.15625 16.433594 14.128906 16.230469 L 13.09375 8.078125 C 13.09375 8.078125 19.609375 12.722656 19.609375 12.722656 C 19.769531 12.835938 19.976562 12.863281 20.160156 12.796875 C 20.347656 12.730469 20.488281 12.578125 20.539062 12.390625 L 22.527344 4.800781 C 22.527344 4.800781 25.546875 15.332031 25.546875 15.332031 C 23.695312 16.878906 21.648438 18.308594 19.414062 19.625 C 17.359375 20.832031 15.144531 21.9375 12.78125 22.953125 C 12.78125 22.953125 6.695312 16.398438 6.695312 16.398438 Z M 6.695312 16.398438 " fill-opacity="1" fill-rule="evenodd"/></g></g></g></g><g clip-path="url(#5474cea3df)"><g clip-path="url(#f2e342d6b5)"><g clip-path="url(#3f47f5ff0f)"><g clip-path="url(#f1cf716c0c)"><path fill="#000000" d="M 4.976562 14.8125 C 4.683594 14.785156 4.402344 14.945312 4.273438 15.210938 C 4.144531 15.480469 4.195312 15.800781 4.398438 16.015625 L 12.1875 24.109375 C 12.363281 24.292969 12.636719 24.351562 12.871094 24.25 C 15.417969 23.132812 17.789062 21.910156 19.988281 20.59375 C 22.371094 19.164062 24.554688 17.617188 26.511719 15.9375 C 26.675781 15.800781 26.738281 15.582031 26.683594 15.375 L 23.042969 2.515625 C 22.976562 2.269531 22.75 2.101562 22.496094 2.101562 C 22.242188 2.105469 22.023438 2.273438 21.957031 2.519531 L 19.605469 11.238281 C 19.605469 11.238281 12.648438 6.203125 12.648438 6.203125 C 12.445312 6.054688 12.171875 6.042969 11.957031 6.171875 C 11.738281 6.300781 11.621094 6.546875 11.652344 6.796875 L 12.691406 15.558594 C 12.691406 15.558594 4.976562 14.8125 4.976562 14.8125 Z M 6.695312 16.398438 L 13.402344 16.984375 C 13.605469 17.003906 13.804688 16.929688 13.945312 16.785156 C 14.085938 16.636719 14.15625 16.433594 14.128906 16.230469 L 13.09375 8.078125 C 13.09375 8.078125 19.609375 12.722656 19.609375 12.722656 C 19.769531 12.835938 19.976562 12.863281 20.160156 12.796875 C 20.347656 12.730469 20.488281 12.578125 20.539062 12.390625 L 22.527344 4.800781 C 22.527344 4.800781 25.546875 15.332031 25.546875 15.332031 C 23.695312 16.878906 21.648438 18.308594 19.414062 19.625 C 17.359375 20.832031 15.144531 21.9375 12.78125 22.953125 C 12.78125 22.953125 6.695312 16.398438 6.695312 16.398438 Z M 6.695312 16.398438 " fill-opacity="1" fill-rule="evenodd"/></g></g></g></g><g clip-path="url(#ca55981a39)"><g clip-path="url(#6956f76040)"><g clip-path="url(#4f400b75ca)"><g clip-path="url(#7763997dfa)"><path fill="#ffffff" d="M 18.8125 8.996094 L 13.433594 5.105469 C 13.433594 5.105469 13.433594 5.105469 13.429688 5.105469 C 12.792969 4.644531 11.941406 4.605469 11.265625 5.007812 C 10.589844 5.410156 10.21875 6.175781 10.3125 6.957031 L 11.15625 14.050781 L 5.101562 13.46875 C 5.101562 13.46875 5.097656 13.464844 5.097656 13.464844 C 4.242188 13.386719 3.433594 13.847656 3.058594 14.621094 C 2.6875 15.394531 2.832031 16.320312 3.421875 16.945312 C 3.425781 16.945312 3.425781 16.949219 3.429688 16.953125 L 11.214844 25.042969 C 11.78125 25.636719 12.65625 25.816406 13.40625 25.492188 C 13.410156 25.492188 13.410156 25.492188 13.414062 25.488281 C 16.011719 24.347656 18.4375 23.101562 20.679688 21.753906 C 23.132812 20.285156 25.375 18.695312 27.390625 16.964844 C 27.949219 16.488281 28.183594 15.722656 27.976562 15.007812 C 27.980469 15.011719 24.339844 2.148438 24.339844 2.148438 C 24.339844 2.148438 24.339844 2.144531 24.339844 2.144531 C 24.105469 1.316406 23.34375 0.742188 22.484375 0.75 C 21.625 0.753906 20.878906 1.335938 20.65625 2.164062 Z M 18.8125 8.996094 " fill-opacity="1" fill-rule="evenodd"/></g></g></g></g><g clip-path="url(#f86db72cc9)"><g clip-path="url(#7d37d3223d)"><g clip-path="url(#15da2dca58)"><g clip-path="url(#94cc909b5c)"><path fill="#ffd768" d="M 6.695312 16.398438 L 13.402344 16.984375 C 13.605469 17.003906 13.804688 16.929688 13.945312 16.785156 C 14.085938 16.636719 14.15625 16.433594 14.128906 16.230469 L 13.09375 8.078125 C 13.09375 8.078125 19.609375 12.722656 19.609375 12.722656 C 19.769531 12.835938 19.976562 12.863281 20.160156 12.796875 C 20.347656 12.730469 20.488281 12.578125 20.539062 12.390625 L 22.527344 4.800781 C 22.527344 4.800781 25.546875 15.332031 25.546875 15.332031 C 23.695312 16.878906 21.648438 18.308594 19.414062 19.625 C 17.359375 20.832031 15.144531 21.9375 12.78125 22.953125 C 12.78125 22.953125 6.695312 16.398438 6.695312 16.398438 Z M 6.695312 16.398438 " fill-opacity="1" fill-rule="evenodd"/></g></g></g></g><g clip-path="url(#d9819883d8)"><g clip-path="url(#6ccf537e13)"><g clip-path="url(#0c2e89a3e9)"><g clip-path="url(#7d83488e14)"><path fill="#000000" d="M 4.976562 14.8125 C 4.683594 14.785156 4.402344 14.945312 4.273438 15.210938 C 4.144531 15.480469 4.195312 15.800781 4.398438 16.015625 L 12.1875 24.109375 C 12.363281 24.292969 12.636719 24.351562 12.871094 24.25 C 15.417969 23.132812 17.789062 21.910156 19.988281 20.59375 C 22.371094 19.164062 24.554688 17.617188 26.511719 15.9375 C 26.675781 15.800781 26.738281 15.582031 26.683594 15.375 L 23.042969 2.515625 C 22.976562 2.269531 22.75 2.101562 22.496094 2.101562 C 22.242188 2.105469 22.023438 2.273438 21.957031 2.519531 L 19.605469 11.238281 C 19.605469 11.238281 12.648438 6.203125 12.648438 6.203125 C 12.445312 6.054688 12.171875 6.042969 11.957031 6.171875 C 11.738281 6.300781 11.621094 6.546875 11.652344 6.796875 L 12.691406 15.558594 C 12.691406 15.558594 4.976562 14.8125 4.976562 14.8125 Z M 6.695312 16.398438 L 13.402344 16.984375 C 13.605469 17.003906 13.804688 16.929688 13.945312 16.785156 C 14.085938 16.636719 14.15625 16.433594 14.128906 16.230469 L 13.09375 8.078125 C 13.09375 8.078125 19.609375 12.722656 19.609375 12.722656 C 19.769531 12.835938 19.976562 12.863281 20.160156 12.796875 C 20.347656 12.730469 20.488281 12.578125 20.539062 12.390625 L 22.527344 4.800781 C 22.527344 4.800781 25.546875 15.332031 25.546875 15.332031 C 23.695312 16.878906 21.648438 18.308594 19.414062 19.625 C 17.359375 20.832031 15.144531 21.9375 12.78125 22.953125 C 12.78125 22.953125 6.695312 16.398438 6.695312 16.398438 Z M 6.695312 16.398438 " fill-opacity="1" fill-rule="evenodd"/></g></g></g></g></svg>