<svg xmlns="http://www.w3.org/2000/svg" xmlns:xlink="http://www.w3.org/1999/xlink" width="111" zoomAndPan="magnify" viewBox="0 0 83.25 83.249999" height="111" preserveAspectRatio="xMidYMid meet" version="1.0"><defs><clipPath id="9aa161c8da"><path d="M 6.300781 8.148438 L 76.171875 8.148438 L 76.171875 75.789062 L 6.300781 75.789062 Z M 6.300781 8.148438 " clip-rule="nonzero"/></clipPath></defs><g clip-path="url(#9aa161c8da)"><path fill="#000000" d="M 75.957031 38.535156 C 75.828125 37.917969 76.101562 37.386719 75.980469 36.789062 C 75.890625 36.335938 75.710938 35.878906 75.691406 35.449219 C 75.65625 34.761719 75.617188 34.015625 75.429688 33.425781 C 75.195312 32.707031 75.160156 31.941406 74.855469 31.238281 C 74.351562 30.082031 74.070312 28.816406 73.382812 27.757812 C 72.855469 26.945312 72.367188 26.078125 71.917969 25.257812 C 71.074219 23.707031 69.878906 22.492188 68.816406 21.144531 C 68.46875 20.707031 67.960938 20.511719 67.617188 20.085938 C 66.917969 19.222656 66.074219 18.453125 65.117188 17.925781 C 64.351562 17.5 63.769531 17.019531 63.296875 16.300781 C 62.675781 15.347656 61.980469 14.457031 61.140625 13.65625 C 57.617188 10.289062 53.257812 8.921875 48.558594 8.414062 C 46.203125 8.160156 43.832031 8.210938 41.453125 8.480469 C 39.550781 8.691406 37.683594 8.980469 35.828125 9.441406 C 33.039062 10.132812 30.363281 11.121094 27.769531 12.316406 C 26.402344 12.945312 25.046875 13.613281 23.746094 14.390625 C 22.960938 14.859375 22.296875 15.46875 21.523438 15.949219 C 20.757812 16.429688 19.984375 16.949219 19.246094 17.492188 C 18.710938 17.882812 18.285156 18.355469 17.808594 18.773438 C 17.121094 19.375 16.351562 19.886719 15.738281 20.59375 C 15.1875 21.234375 14.625 21.878906 14.027344 22.457031 C 12.59375 23.84375 11.566406 25.519531 10.496094 27.144531 C 10.113281 27.730469 9.824219 28.53125 9.472656 29.152344 C 8.878906 30.1875 8.5625 31.273438 8.144531 32.355469 C 7.472656 34.113281 7.082031 35.914062 6.757812 37.761719 C 6.464844 39.441406 6.378906 41.113281 6.332031 42.320312 C 6.414062 44.613281 6.453125 46.429688 6.90625 48.210938 C 7.273438 49.652344 7.683594 51.070312 8.175781 52.476562 C 8.707031 53.996094 9.417969 55.421875 10.167969 56.820312 C 11.21875 58.789062 12.46875 60.652344 13.9375 62.355469 C 14.628906 63.160156 15.273438 64.03125 16.078125 64.707031 C 16.960938 65.453125 17.914062 66.203125 18.691406 66.980469 C 19.914062 68.199219 21.53125 68.710938 22.785156 69.84375 C 23.828125 70.777344 25.359375 71.167969 26.667969 71.808594 C 27.886719 72.40625 29.296875 72.234375 30.535156 72.988281 C 31.605469 73.644531 32.984375 73.839844 34.253906 74.125 C 35.316406 74.359375 36.359375 74.691406 37.425781 74.878906 C 38.699219 75.105469 40.046875 74.972656 41.292969 75.277344 C 43.445312 75.804688 45.574219 75.304688 47.703125 75.308594 C 49.027344 75.308594 50.371094 74.835938 51.675781 74.515625 C 53.308594 74.113281 54.859375 73.359375 56.417969 72.695312 C 58.679688 71.734375 60.671875 70.335938 62.53125 68.769531 C 63.824219 67.683594 65.03125 66.476562 66.089844 65.160156 C 67.222656 63.761719 68.308594 62.320312 69.261719 60.785156 C 70.714844 58.449219 71.957031 56.019531 72.976562 53.457031 C 73.667969 51.722656 74.148438 49.921875 74.84375 48.191406 C 75.089844 47.582031 75.363281 46.847656 75.308594 46.234375 C 75.226562 45.351562 75.558594 44.566406 75.65625 43.75 C 75.757812 42.878906 75.921875 42 75.972656 41.113281 C 76.019531 40.253906 76.136719 39.359375 75.957031 38.535156 Z M 9.066406 48.914062 C 8.238281 47.640625 8.476562 46.15625 8.207031 44.800781 C 7.835938 42.914062 7.976562 40.925781 8.164062 38.984375 C 8.207031 38.542969 8.523438 38.164062 8.476562 37.667969 C 8.539062 37.746094 8.667969 37.839844 8.652344 37.898438 C 8.394531 38.96875 8.734375 40.050781 8.550781 41.136719 C 8.3125 42.5625 8.464844 43.984375 9.039062 45.355469 C 9.203125 45.746094 9.167969 46.230469 9.15625 46.671875 C 9.128906 47.671875 9.605469 48.570312 9.6875 49.546875 C 9.3125 49.492188 9.253906 49.203125 9.066406 48.914062 Z M 12.390625 55.632812 C 12.363281 55.679688 12.25 55.71875 12.191406 55.703125 C 11.9375 55.632812 11.863281 55.449219 11.886719 55.199219 C 11.898438 55.101562 11.890625 54.929688 11.832031 54.902344 C 11.070312 54.519531 10.953125 53.824219 10.902344 53.085938 C 10.894531 52.960938 10.828125 52.789062 10.730469 52.730469 C 10.203125 52.417969 10.140625 51.832031 9.851562 51.394531 C 9.414062 50.734375 9.765625 50.164062 9.710938 49.5625 C 10.070312 49.496094 10.203125 49.75 10.234375 50.019531 C 10.445312 51.675781 11.277344 53.085938 12.007812 54.542969 C 12.089844 54.710938 12.222656 54.855469 12.316406 55.019531 C 12.421875 55.210938 12.511719 55.417969 12.390625 55.632812 Z M 44.445312 72.53125 C 45.34375 72.425781 46.242188 72.316406 47.140625 72.210938 C 46.277344 72.621094 45.394531 72.875 44.445312 72.53125 Z M 66.785156 59.914062 C 66.621094 59.949219 66.398438 59.878906 66.414062 59.707031 C 66.449219 59.269531 66.652344 58.914062 67.183594 58.8125 C 66.8125 59.105469 67.496094 59.765625 66.785156 59.914062 Z M 69.71875 54.878906 C 69.683594 54.988281 69.558594 55.039062 69.453125 54.964844 C 69.320312 54.871094 69.355469 54.726562 69.394531 54.59375 C 69.535156 54.128906 70.046875 53.890625 70.152344 53.386719 C 70.390625 54.011719 69.878906 54.386719 69.71875 54.878906 Z M 70.292969 43.585938 C 70.378906 44.097656 70.085938 44.644531 69.945312 45.117188 C 69.472656 46.707031 69.269531 48.359375 68.683594 49.933594 C 68.324219 50.886719 67.945312 51.875 67.660156 52.878906 C 67.445312 53.628906 66.953125 54.355469 66.582031 55.097656 C 65.941406 56.386719 65.136719 57.59375 64.5 58.882812 C 64.21875 59.441406 63.371094 59.734375 63.652344 60.5625 C 63.039062 60.714844 62.800781 61.21875 62.453125 61.679688 C 61.6875 62.695312 60.8125 63.628906 59.964844 64.582031 C 58.738281 65.960938 57.109375 66.828125 55.621094 67.875 C 54.480469 68.671875 53.238281 69.339844 51.960938 69.84375 C 50.351562 70.476562 48.648438 70.925781 46.910156 71.171875 C 45.574219 71.363281 44.230469 71.402344 43.429688 71.476562 C 40.222656 71.492188 37.617188 71.015625 35.027344 70.4375 C 33.832031 70.171875 32.519531 70.007812 31.519531 69.390625 C 30.398438 68.699219 29.179688 68.265625 28.027344 67.691406 C 26.691406 67.023438 25.382812 66.273438 24.214844 65.417969 C 22.773438 64.359375 21.421875 63.132812 20.179688 61.796875 C 18.902344 60.421875 17.804688 58.925781 16.703125 57.421875 C 16.339844 56.925781 16.269531 56.210938 15.523438 55.984375 C 15.382812 55.941406 15.546875 55.535156 15.449219 55.230469 C 15.210938 54.511719 14.316406 54.15625 14.371094 53.417969 C 14.4375 52.582031 13.59375 52.132812 13.683594 51.332031 C 13.703125 51.144531 13.441406 51.058594 13.277344 50.960938 C 13.125 50.875 12.992188 50.765625 13.015625 50.582031 C 13.21875 49.015625 12.535156 47.628906 12.117188 46.1875 C 12.015625 45.832031 12.273438 45.535156 12.125 45.167969 C 11.597656 43.875 12.058594 42.503906 11.925781 41.160156 C 11.84375 40.332031 12.039062 39.296875 12.191406 38.359375 C 12.523438 36.285156 13.160156 34.304688 13.789062 32.300781 C 15.050781 28.296875 17.289062 24.9375 20.097656 21.875 C 22.019531 19.777344 24.246094 18.070312 26.605469 16.492188 C 27.617188 15.816406 28.644531 15.210938 29.699219 14.609375 C 31.449219 13.613281 33.304688 12.894531 35.152344 12.128906 C 38.507812 10.746094 42.007812 10.125 45.621094 9.898438 C 48.171875 9.734375 50.675781 9.882812 53.128906 10.480469 C 54.554688 10.828125 55.878906 11.523438 57.21875 12.144531 C 58.402344 12.695312 59.179688 13.773438 60.371094 14.320312 C 60.6875 14.464844 60.960938 15 61.375 15.246094 C 61.570312 15.363281 61.585938 15.773438 61.523438 15.808594 C 61.210938 16 60.671875 16.050781 60.535156 15.816406 C 60.019531 14.929688 59.027344 15.089844 58.296875 14.820312 C 56.679688 14.222656 54.984375 13.769531 53.253906 13.53125 C 50.742188 13.183594 48.242188 12.960938 45.6875 13.109375 C 43.320312 13.25 40.996094 13.539062 38.699219 14.078125 C 38.015625 14.238281 37.339844 14.445312 36.671875 14.660156 C 36.539062 14.703125 36.195312 14.621094 36.316406 14.949219 C 36.382812 15.125 36.578125 15.074219 36.75 15.035156 C 37.386719 14.882812 38.027344 14.761719 38.660156 14.605469 C 39.867188 14.308594 41.109375 14.425781 42.308594 14.261719 C 42.976562 14.167969 43.535156 14.390625 44.148438 14.355469 C 44.949219 14.308594 45.765625 14.257812 46.5625 14.351562 C 48.667969 14.601562 50.707031 15.15625 52.742188 15.753906 C 54.199219 16.183594 55.414062 17.023438 56.703125 17.757812 C 57.171875 18.027344 57.707031 18.121094 58.179688 18.484375 C 59.332031 19.363281 60.636719 20.078125 61.648438 21.105469 C 62.628906 22.097656 63.792969 22.914062 64.621094 24.03125 C 65.933594 25.800781 67.355469 27.492188 68.214844 29.582031 C 68.785156 30.976562 69.34375 32.363281 69.710938 33.816406 C 70.164062 35.601562 70.308594 37.421875 70.441406 39.253906 C 70.546875 40.710938 70.046875 42.128906 70.292969 43.585938 Z M 72.101562 38.292969 C 71.933594 37.285156 72.148438 36.253906 71.863281 35.257812 C 71.707031 34.710938 71.996094 34.0625 71.65625 33.582031 C 71.046875 32.726562 71.453125 31.570312 70.90625 30.851562 C 70.535156 30.363281 71.105469 29.449219 70.117188 29.359375 C 70.386719 29.167969 70.816406 28.953125 70.304688 28.664062 C 69.855469 28.414062 69.527344 28.167969 69.5 27.621094 C 69.484375 27.3125 69.0625 27.441406 68.941406 27.191406 C 69.144531 26.933594 69.535156 27.054688 69.566406 27.15625 C 69.808594 27.996094 70.910156 28.207031 70.929688 29.332031 C 70.941406 30.152344 71.691406 30.949219 71.796875 31.875 C 71.953125 33.21875 72.757812 34.441406 72.578125 35.851562 C 72.363281 37.5625 72.570312 39.28125 72.503906 40.996094 C 72.492188 41.300781 72.433594 41.519531 72.125 41.609375 C 71.75 40.496094 72.28125 39.390625 72.101562 38.289062 Z M 72.511719 47.863281 C 72.480469 48.015625 72.578125 48.214844 72.300781 48.171875 C 72.082031 48.140625 71.914062 48 72.046875 47.78125 C 72.246094 47.453125 72.261719 46.972656 72.828125 46.832031 C 72.707031 47.21875 72.585938 47.535156 72.511719 47.863281 Z M 72.511719 47.863281 " fill-opacity="1" fill-rule="nonzero"/></g><path fill="#000000" d="M 60.410156 31.097656 C 59.796875 31.179688 59.152344 31.257812 58.605469 31.519531 C 56.726562 32.417969 54.738281 33.113281 53.109375 34.492188 C 51.980469 35.449219 50.675781 36.207031 49.679688 37.320312 C 48.976562 38.105469 47.960938 38.515625 47.257812 39.253906 C 46.035156 40.539062 44.574219 41.554688 43.28125 42.753906 C 42.242188 43.710938 41.226562 44.710938 40.164062 45.652344 C 39.199219 46.5 38.351562 47.492188 37.488281 48.445312 C 37.117188 48.851562 36.550781 49.058594 36.320312 49.574219 C 36.046875 50.183594 35.546875 50.710938 35.101562 51.074219 C 34.328125 51.710938 33.894531 52.652344 33.007812 53.160156 C 32.847656 53.253906 32.636719 53.398438 32.6875 53.789062 C 32.753906 54.273438 31.617188 54.644531 31.226562 54.300781 C 30.632812 53.773438 30.207031 53.09375 29.6875 52.503906 C 28.289062 50.910156 27.210938 49.097656 25.953125 47.40625 C 24.820312 45.886719 24.324219 44.046875 23.394531 42.421875 C 23.109375 41.925781 22.683594 41.5625 22.136719 41.609375 C 21.445312 41.667969 21.359375 42.253906 21.339844 42.839844 C 21.566406 44.15625 21.65625 45.515625 22.058594 46.78125 C 22.882812 49.394531 24.054688 51.875 25.523438 54.195312 C 26.410156 55.589844 27.117188 57.074219 27.914062 58.511719 C 28.523438 59.613281 28.941406 59.742188 30.042969 59.097656 C 30.253906 58.972656 30.484375 58.859375 30.539062 58.589844 C 30.585938 58.382812 30.84375 58.304688 30.851562 58.425781 C 30.882812 58.96875 31.339844 59.039062 31.632812 59.324219 C 32.722656 60.382812 33.566406 60.375 34.414062 59.132812 C 34.824219 58.539062 35.320312 57.996094 35.804688 57.492188 C 38.015625 55.1875 40.054688 52.730469 42.304688 50.464844 C 43.75 49.003906 45.1875 47.523438 46.6875 46.136719 C 49.207031 43.800781 51.894531 41.632812 54.609375 39.523438 C 57.3125 37.425781 59.269531 34.765625 60.960938 31.871094 C 61.304688 31.289062 61.101562 31.003906 60.410156 31.097656 Z M 22.46875 44.148438 C 23.171875 44.601562 23.03125 45.425781 23.347656 46.050781 C 22.691406 45.578125 22.726562 44.800781 22.46875 44.148438 Z M 36.1875 53.21875 C 36.136719 53.386719 36.050781 53.515625 35.847656 53.34375 C 35.730469 53.246094 35.628906 53.152344 35.765625 53.023438 C 36.132812 52.675781 36.328125 52.089844 37.007812 52.15625 C 36.664062 52.472656 36.328125 52.765625 36.1875 53.21875 Z M 36.1875 53.21875 " fill-opacity="1" fill-rule="nonzero"/></svg>