<svg xmlns="http://www.w3.org/2000/svg" xmlns:xlink="http://www.w3.org/1999/xlink" width="321" zoomAndPan="magnify" viewBox="0 0 240.75 240.749995" height="321" preserveAspectRatio="xMidYMid meet" version="1.0"><path fill="#000000" d="M 211.289062 85.570312 C 211.140625 85.121094 210.988281 84.710938 210.839844 84.261719 C 210.089844 82.132812 209.15625 80.148438 208.183594 78.167969 C 207.324219 76.449219 204.222656 77.195312 204.445312 79.175781 C 204.558594 80.375 204.707031 81.570312 204.820312 82.765625 L 204.59375 82.578125 C 203.0625 81.421875 201.378906 83.589844 202.164062 85.011719 C 202.800781 86.246094 203.4375 87.515625 204.144531 88.75 C 204.035156 88.898438 203.921875 89.050781 203.808594 89.160156 C 205.007812 91.742188 206.089844 94.472656 206.988281 97.425781 C 208.445312 102.210938 209.867188 107.335938 211.0625 112.605469 C 210.390625 112.457031 209.644531 112.71875 209.53125 113.578125 C 209.042969 116.757812 208.671875 119.898438 208.257812 123.078125 C 206.316406 115.375 206.5 106.101562 204.070312 98.808594 C 203.847656 98.097656 203.511719 97.425781 203.25 96.714844 C 203.398438 94.132812 201.15625 91.105469 199.472656 89.609375 C 199.058594 89.234375 198.5 89.609375 198.574219 90.132812 C 198.761719 91.515625 199.058594 92.863281 199.398438 94.171875 C 199.320312 94.171875 199.285156 94.246094 199.210938 94.285156 C 201.042969 98.695312 202.539062 103.222656 203.585938 107.859375 C 204.109375 110.101562 204.40625 112.34375 204.746094 114.589844 C 203.511719 109.617188 201.902344 104.71875 200.144531 99.855469 C 200.144531 98.171875 199.433594 96.640625 198.761719 95.070312 C 198.011719 93.238281 197.265625 91.332031 195.996094 89.796875 C 194.984375 88.601562 193.453125 89.910156 193.714844 91.144531 C 194.011719 93.050781 194.984375 94.84375 195.621094 96.675781 C 196.179688 98.171875 196.519531 99.742188 197.527344 100.941406 C 201.117188 110.851562 203.621094 121.058594 203.359375 131.753906 C 202.949219 149.105469 195.394531 165.371094 183.992188 178.234375 C 169.707031 194.351562 149.699219 205.269531 128.5 208.113281 C 122.066406 208.820312 115.597656 208.898438 109.128906 208.375 C 108.007812 208.261719 106.882812 208.148438 105.761719 208 C 75.359375 203.398438 48.363281 182.046875 39.050781 152.394531 C 29.664062 122.515625 38.339844 91.144531 60.402344 69.304688 C 75.175781 54.683594 93.984375 43.128906 114.140625 37.707031 C 128.238281 37.96875 142.257812 43.128906 155.460938 49.226562 C 156.058594 49.671875 156.691406 50.085938 157.367188 50.535156 C 159.199219 51.691406 161.253906 53.1875 163.386719 53.601562 C 164.769531 53.863281 166.453125 52.328125 165.441406 50.945312 C 164.097656 49.074219 162.003906 47.914062 160.058594 46.683594 C 158.078125 45.410156 156.28125 44.289062 153.886719 44.363281 C 148.28125 41.96875 142.707031 39.726562 137.023438 37.929688 C 145.625 39.503906 153.964844 42.230469 161.816406 45.972656 C 163.425781 46.980469 165.21875 47.914062 167.089844 47.542969 C 167.539062 47.46875 167.800781 46.90625 167.6875 46.496094 C 167.3125 45.335938 166.492188 44.4375 165.519531 43.691406 C 165.179688 43.277344 164.734375 43.054688 164.285156 42.792969 C 163.871094 42.53125 163.460938 42.230469 163.050781 41.96875 C 160.992188 40.585938 158.789062 38.980469 156.394531 38.230469 C 156.09375 38.15625 155.796875 38.230469 155.535156 38.304688 C 152.355469 36.882812 149.066406 35.652344 145.738281 34.566406 C 148.019531 34.753906 150.261719 35.050781 152.542969 35.425781 C 153.664062 35.800781 154.75 36.285156 155.871094 36.734375 C 158.375 38.230469 161.179688 39.054688 163.835938 40.324219 C 164.023438 40.4375 164.246094 40.511719 164.433594 40.625 C 167.125 42.046875 169.554688 44.0625 172.4375 45.109375 C 173.707031 45.558594 174.640625 43.988281 174.117188 42.941406 C 173.035156 40.886719 171.050781 39.277344 168.921875 37.929688 C 168.996094 37.820312 169.03125 37.707031 169.109375 37.632812 C 166.675781 36.210938 164.171875 34.941406 161.589844 33.78125 C 137.585938 23.125 109.839844 23.535156 85.90625 33.332031 C 81.605469 34.417969 77.304688 35.6875 73.082031 37.296875 C 52.960938 45.035156 33.59375 57.078125 24.84375 77.53125 C 15.980469 98.171875 15.941406 125.769531 20.765625 147.382812 C 21.550781 150.9375 22.636719 154.339844 23.945312 157.628906 C 24.953125 163.050781 26.335938 168.4375 28.171875 173.632812 C 34.378906 191.132812 45.96875 208.035156 63.394531 215.777344 C 82.800781 224.414062 106.097656 221.085938 126.664062 215.664062 C 151.195312 217.609375 174.230469 214.507812 191.09375 193.453125 C 195.394531 188.105469 198.910156 182.160156 201.789062 175.839844 C 201.941406 175.691406 202.125 175.542969 202.277344 175.390625 C 210.691406 166.828125 217.234375 156.769531 218.28125 144.542969 C 218.65625 139.980469 218.46875 135.269531 217.980469 130.554688 C 220.710938 115.113281 218.582031 100.082031 211.289062 85.609375 Z M 24.765625 107.933594 C 26.414062 84 36.171875 65.453125 55.917969 53 C 54.757812 54.125 53.597656 55.246094 52.511719 56.441406 C 38.339844 71.886719 28.730469 91.742188 24.503906 112.644531 C 24.582031 111.074219 24.65625 109.542969 24.765625 107.96875 Z M 25.476562 137.625 C 25.441406 117.132812 30.9375 96.453125 40.921875 79.175781 C 50.046875 63.398438 63.171875 50.871094 78.503906 42.457031 C 81.90625 41.296875 85.421875 40.324219 88.933594 39.464844 C 88.636719 39.613281 88.300781 39.726562 88 39.914062 C 87.179688 40.324219 87.027344 41.074219 87.253906 41.746094 C 78.988281 46.160156 71.285156 51.28125 64.59375 56.589844 C 37.855469 77.867188 23.535156 109.726562 29.664062 143.832031 C 31.796875 155.722656 36.507812 166.714844 43.089844 176.402344 C 32.730469 164.882812 27.570312 151.757812 25.476562 137.625 Z M 94.019531 216.152344 C 70.574219 217.308594 50.570312 207.589844 38.453125 187.28125 C 35.386719 182.121094 32.917969 176.625 30.976562 171.015625 C 41.96875 187.433594 59.429688 199.699219 78.578125 206.878906 C 83.140625 209.082031 87.851562 210.953125 92.75 212.410156 C 96.9375 213.644531 101.238281 214.507812 105.5 215.105469 C 101.648438 215.589844 97.835938 216 94.019531 216.1875 Z M 190.125 187.132812 C 177.371094 205.382812 159.273438 211.441406 139.492188 213.160156 C 151.457031 210.207031 162.863281 204.933594 172.882812 197.605469 C 179.464844 193.902344 185.671875 189.640625 191.542969 184.964844 C 191.058594 185.675781 190.648438 186.421875 190.125 187.132812 Z M 206.539062 163.238281 C 206.949219 161.855469 207.363281 160.472656 207.734375 159.089844 C 209.644531 155.535156 211.363281 151.871094 212.859375 148.09375 C 211.738281 153.480469 209.71875 158.601562 206.5 163.238281 Z M 211.738281 136.578125 C 212.296875 130.894531 212.523438 125.210938 212.449219 119.675781 C 212.933594 122.441406 213.34375 125.246094 213.605469 128.050781 C 213.15625 130.929688 212.484375 133.773438 211.699219 136.613281 Z M 212.820312 104.269531 C 211.664062 99.480469 210.203125 94.734375 208.371094 90.132812 C 208.558594 90.394531 208.746094 90.65625 208.96875 90.917969 C 211.847656 97.539062 213.867188 104.417969 214.46875 111.335938 C 213.90625 108.941406 213.34375 106.585938 212.785156 104.269531 Z M 212.820312 104.269531 " fill-opacity="1" fill-rule="nonzero"/><path fill="#000000" d="M 220.335938 44.214844 C 220.414062 42.121094 219.964844 40.101562 218.84375 38.195312 C 205.605469 15.871094 156.953125 77.082031 133.695312 109.429688 C 128.835938 115.933594 124.160156 122.554688 120.121094 129.433594 C 119.410156 130.667969 118.777344 131.976562 118.289062 133.285156 C 112.195312 125.996094 105.386719 119.339844 97.722656 113.578125 C 90.46875 108.15625 74.949219 95.59375 64.890625 101.574219 C 64.367188 101.914062 63.917969 102.25 63.507812 102.585938 C 50.71875 106.773438 60.066406 122.144531 66.722656 128.3125 C 71.359375 132.613281 76.59375 136.242188 81.679688 140.015625 C 90.355469 147.496094 99.03125 154.714844 104.601562 165.59375 C 106.660156 169.632812 111.296875 183.132812 117.691406 179.765625 C 118.253906 179.953125 118.8125 180.101562 119.484375 180.140625 C 126.480469 180.550781 129.394531 170.121094 131.789062 165.40625 C 142.96875 143.53125 157.628906 124.648438 170.753906 104.117188 C 181.484375 92.339844 192.964844 81.269531 205.042969 70.839844 C 211.511719 65.265625 224.113281 53.636719 220.261719 44.214844 Z M 72.070312 126.179688 C 70.800781 125.058594 69.527344 123.976562 68.367188 122.742188 C 67.285156 121.46875 66.238281 120.199219 65.152344 118.925781 C 62.945312 116.796875 63.097656 115.113281 65.5625 113.839844 C 66.609375 115.039062 67.769531 116.195312 68.890625 117.28125 C 71.023438 122.515625 75.324219 126.78125 79.8125 130.816406 C 77.378906 129.136719 74.914062 127.566406 72.371094 126.257812 C 72.257812 126.21875 72.183594 126.179688 72.070312 126.179688 Z M 112.828125 163.726562 C 109.539062 159.574219 105.988281 155.648438 102.359375 151.832031 C 101.386719 150.335938 100.339844 148.917969 99.292969 147.535156 C 103.78125 152.058594 108.230469 156.621094 112.71875 161.105469 C 112.71875 161.742188 112.980469 162.417969 113.429688 162.941406 C 113.242188 163.203125 113.054688 163.464844 112.828125 163.726562 Z M 77.792969 114.925781 C 80.371094 116.195312 82.953125 117.730469 85.421875 119.414062 C 92.710938 125.058594 99.554688 131.191406 105.988281 137.8125 C 110.625 143.53125 114.664062 149.8125 115 154.527344 C 104.527344 139.53125 92.039062 126.292969 77.828125 114.925781 Z M 103.292969 127.078125 C 96.976562 120.234375 89.796875 114.101562 82.390625 108.457031 C 81.90625 108.082031 81.417969 107.707031 80.933594 107.335938 C 82.878906 108.382812 84.746094 109.542969 86.578125 110.699219 C 91.367188 113.765625 95.890625 117.167969 100.191406 120.871094 C 106.585938 126.40625 112.230469 132.574219 117.316406 139.269531 C 117.316406 140.242188 117.503906 141.175781 117.765625 142.074219 C 113.355469 136.6875 108.53125 131.679688 103.332031 127.042969 Z M 117.167969 170.269531 C 116.644531 169.519531 116.121094 168.773438 115.597656 168.0625 C 115.933594 167.578125 116.269531 167.089844 116.644531 166.640625 L 118.175781 168.398438 C 117.839844 169.035156 117.542969 169.671875 117.167969 170.304688 Z M 204.558594 39.839844 C 201.828125 41.445312 199.097656 43.09375 196.441406 44.8125 C 199.246094 42.269531 202.277344 39.949219 204.558594 39.839844 Z M 159.648438 88.265625 C 165.742188 81.421875 172.324219 74.988281 179.277344 69.007812 C 176.175781 72.296875 173.183594 75.699219 170.304688 79.214844 C 164.882812 84.9375 159.609375 90.808594 154.597656 96.902344 C 146.261719 107.074219 138.480469 117.730469 131.414062 128.835938 C 130.59375 130.144531 129.621094 131.566406 128.648438 133.023438 C 136.5 116.457031 148.578125 100.714844 159.648438 88.265625 Z M 124.421875 157.890625 C 123.9375 157.890625 123.488281 158.003906 123.074219 158.265625 C 124.160156 156.582031 125.207031 154.863281 126.292969 153.179688 C 131.640625 145.738281 137.0625 138.371094 142.59375 131.042969 C 136.464844 139.941406 130.441406 148.917969 124.421875 157.890625 Z M 211.476562 50.683594 C 203.511719 57.191406 195.957031 64.070312 188.664062 71.210938 C 172.4375 86.804688 157.441406 103.59375 143.753906 121.433594 C 149.925781 112.082031 156.246094 102.808594 163.011719 93.949219 C 178.007812 76.558594 194.871094 61.003906 213.121094 47.09375 C 213.269531 47.207031 213.417969 47.355469 213.570312 47.46875 C 212.972656 48.589844 212.222656 49.597656 211.511719 50.644531 Z M 211.476562 50.683594 " fill-opacity="1" fill-rule="nonzero"/></svg>