<svg xmlns="http://www.w3.org/2000/svg" xmlns:xlink="http://www.w3.org/1999/xlink" width="421" zoomAndPan="magnify" viewBox="0 0 315.75 332.999992" height="444" preserveAspectRatio="xMidYMid meet" version="1.0"><defs><clipPath id="00138552ae"><path d="M 75 288 L 314.75 288 L 314.75 330 L 75 330 Z M 75 288 " clip-rule="nonzero"/></clipPath><clipPath id="8eb1f256b0"><path d="M 75 288 L 314.75 288 L 314.75 330 L 75 330 Z M 75 288 " clip-rule="nonzero"/></clipPath><clipPath id="680cdcf731"><path d="M 75 288 L 314.75 288 L 314.75 330 L 75 330 Z M 75 288 " clip-rule="nonzero"/></clipPath></defs><path fill="#efe3d4" d="M 304.230469 47.117188 C 303.445312 44.953125 302.589844 42.726562 301.675781 40.5625 C 300.296875 38.925781 300.234375 36.566406 298.398438 35.253906 C 295.1875 33.027344 292.695312 29.882812 289.617188 27.785156 C 287.0625 23.917969 282.933594 20.96875 279.460938 17.890625 C 278.804688 17.300781 277.820312 17.429688 277.296875 16.777344 C 276.445312 15.726562 274.871094 15.726562 274.152344 14.484375 C 273.167969 14.285156 272.515625 13.628906 271.859375 12.976562 C 270.546875 11.074219 268.449219 10.746094 266.878906 9.304688 C 266.355469 8.914062 265.828125 8.453125 265.109375 8.453125 C 263.339844 7.535156 261.4375 6.355469 259.734375 5.242188 C 256.722656 4.980469 254.558594 1.703125 251.414062 2.753906 C 250.757812 2.882812 250.234375 2.753906 249.644531 2.425781 C 244.074219 0.132812 238.175781 4.980469 233.128906 7.078125 C 224.808594 10.878906 219.894531 18.546875 213.929688 25.03125 C 199.972656 37.613281 191.324219 55.242188 177.628906 67.953125 C 173.761719 71.101562 170.679688 75.164062 167.339844 78.898438 C 165.570312 80.996094 164.847656 83.945312 162.226562 85.386719 C 159.804688 89.316406 156.003906 92.398438 153.90625 96.589844 C 142.765625 110.15625 132.414062 124.441406 120.945312 137.613281 C 110.917969 151.242188 100.171875 164.609375 89.097656 177.386719 C 83.59375 186.496094 77.695312 195.671875 72.125 204.714844 C 71.929688 206.285156 70.355469 207.269531 70.550781 209.039062 C 70.550781 210.21875 69.4375 211.003906 69.242188 212.117188 C 67.40625 219.066406 64.394531 225.683594 62.296875 232.367188 C 61.773438 236.363281 59.085938 240.101562 59.28125 244.03125 C 57.578125 249.996094 55.808594 256.351562 53.84375 262.378906 C 51.941406 269.324219 48.535156 275.8125 47.945312 283.152344 C 48.078125 286.757812 46.175781 290.230469 46.765625 293.769531 C 46.765625 297.175781 44.277344 301.304688 47.617188 303.859375 C 48.863281 304.972656 49.519531 306.742188 51.222656 307.332031 C 51.613281 307.464844 51.941406 307.921875 52.203125 308.316406 C 52.335938 308.511719 52.464844 308.773438 52.730469 308.839844 C 53.910156 308.972656 54.824219 309.824219 55.675781 310.476562 C 58.824219 312.773438 63.148438 310.609375 66.425781 309.429688 C 70.617188 307.070312 75.992188 305.824219 79.070312 302.023438 C 79.726562 300.78125 80.773438 300.714844 81.953125 300.253906 C 84.3125 299.074219 86.34375 297.308594 88.964844 296.71875 C 91.261719 295.011719 94.078125 294.292969 96.238281 292.523438 C 102.988281 290.097656 108.429688 285.316406 114.785156 282.039062 C 116.816406 280.988281 118.847656 280.074219 120.355469 278.238281 C 122.582031 276.863281 125.335938 275.683594 127.234375 273.78125 C 127.367188 273.125 127.824219 272.800781 128.414062 272.734375 C 130.707031 272.078125 132.214844 269.914062 133.328125 267.882812 C 134.835938 267.554688 136.933594 268.410156 137.128906 266.179688 C 137.128906 266.050781 137.328125 265.917969 137.457031 265.851562 C 138.246094 265.589844 138.441406 264.871094 138.769531 264.214844 C 139.359375 262.707031 141.652344 263.035156 141.652344 261.070312 C 141.914062 260.675781 142.699219 260.480469 142.765625 259.890625 C 142.960938 258.777344 144.207031 258.90625 144.796875 258.1875 C 146.109375 256.941406 147.089844 255.433594 148.597656 254.386719 C 149.121094 252.8125 151.152344 252.550781 151.613281 250.976562 C 151.742188 249.078125 154.5625 250.324219 154.824219 248.421875 C 155.28125 247.375 156.65625 247.570312 156.527344 245.933594 C 158.492188 245.933594 159.015625 243.964844 160.261719 243.046875 C 163.539062 239.96875 166.75 236.824219 170.027344 233.742188 C 178.871094 225.160156 185.03125 214.414062 192.632812 204.976562 C 199.121094 197.570312 205.542969 190.167969 211.898438 182.433594 C 217.601562 176.011719 221.597656 168.082031 227.824219 162.1875 C 228.609375 161.332031 228.28125 159.761719 229.59375 159.238281 C 231.886719 156.289062 234.046875 153.140625 236.800781 150.585938 C 238.570312 150.0625 238.242188 147.898438 239.550781 147.113281 C 242.828125 144.363281 245.121094 140.363281 248.332031 137.414062 C 255.871094 128.109375 264.324219 119.265625 269.894531 108.714844 C 272.382812 106.945312 273.628906 104.191406 275.332031 101.769531 C 276.578125 100.390625 277.886719 99.082031 278.609375 97.3125 C 278.738281 97.050781 278.804688 96.722656 279.199219 96.65625 C 280.3125 96.523438 280.507812 95.671875 280.703125 94.757812 C 281.164062 91.480469 285.292969 90.367188 285.816406 86.957031 C 285.949219 86.367188 286.144531 85.84375 286.734375 85.582031 C 288.503906 84.535156 287.714844 81.648438 290.074219 81.058594 C 290.402344 80.996094 290.664062 80.734375 290.730469 80.40625 C 291.058594 78.703125 293.15625 78.308594 293.484375 76.605469 C 293.941406 75.492188 295.316406 74.835938 295.449219 73.523438 C 295.84375 71.691406 297.285156 70.378906 297.808594 68.675781 C 297.875 68.347656 298.136719 68.152344 298.464844 68.085938 C 300.625 67.496094 300.429688 65.203125 301.542969 63.761719 C 306.066406 59.566406 304.492188 52.6875 304.230469 47.183594 Z M 304.230469 47.117188 " fill-opacity="1" fill-rule="nonzero"/><path fill="#7ed957" d="M 248.921875 101.441406 C 245.515625 98.621094 242.699219 95.019531 238.832031 92.855469 C 238.503906 93.25 238.570312 93.707031 238.503906 94.101562 C 237.785156 98.164062 232.277344 94.625 230.507812 92.988281 C 227.625 90.234375 224.21875 87.808594 220.746094 85.714844 C 217.796875 84.796875 205.28125 72.542969 203.511719 76.667969 C 199.90625 80.601562 195.1875 83.417969 191.847656 87.480469 C 189.355469 88.792969 188.308594 91.742188 185.882812 93.25 C 184.574219 95.871094 181.886719 97.246094 180.183594 99.472656 C 176.578125 101.570312 175.203125 105.699219 172.449219 108.582031 C 167.011719 113.039062 162.164062 118.609375 156.132812 122.210938 C 156.003906 120.835938 156.394531 119.394531 155.152344 118.410156 C 156.984375 116.511719 158.164062 114.480469 157.835938 111.664062 C 146.828125 122.867188 141.914062 137.875 133.917969 151.046875 C 131.824219 155.566406 138.769531 151.175781 131.167969 162.316406 C 125.402344 169.589844 120.945312 178.304688 113.738281 184.269531 C 110 187.871094 106.070312 191.28125 102.726562 195.277344 C 102.203125 196.785156 101.023438 195.472656 100.105469 196 C 98.207031 196.589844 97.683594 198.816406 96.109375 199.667969 C 93.027344 201.175781 91.71875 204.84375 88.835938 206.8125 C 90.015625 202.484375 95.78125 197.503906 98.863281 193.902344 C 100.105469 192.394531 101.285156 190.820312 102.53125 189.378906 C 105.347656 188.003906 106.988281 184.988281 109.214844 182.828125 C 109.738281 178.632812 112.820312 175.816406 114.328125 171.753906 C 112.820312 172.539062 112.164062 174.113281 110.527344 174.046875 C 116.421875 153.140625 90.082031 190.820312 88.441406 194.164062 C 86.933594 198.160156 85.296875 202.222656 83.398438 205.960938 C 82.347656 210.414062 77.300781 216.707031 82.480469 220.375 C 83.332031 220.375 84.050781 219.785156 84.902344 219.65625 C 87 226.796875 89.492188 220.835938 92.441406 222.078125 C 95.585938 223.652344 100.304688 224.570312 103.382812 222.539062 C 103.710938 222.277344 103.972656 222.078125 104.367188 222.277344 C 105.480469 222.539062 106.660156 221.75 107.839844 222.277344 C 108.230469 226.140625 109.609375 229.613281 111.3125 233.152344 C 111.835938 234.464844 112.492188 234.660156 113.738281 233.875 C 116.09375 232.628906 118.847656 232.5 121.402344 231.777344 C 123.433594 231.121094 124.484375 232.824219 126.1875 233.351562 C 128.675781 233.941406 127.496094 237.675781 128.675781 239.511719 C 131.757812 247.046875 151.023438 221.03125 156.394531 224.4375 C 160.066406 226.46875 151.679688 230.203125 151.21875 232.367188 C 149.121094 237.742188 141.914062 239.445312 140.277344 245.277344 C 142.308594 243.964844 144.339844 243.179688 145.519531 241.214844 C 146.171875 239.445312 148.074219 238.984375 149.382812 237.804688 C 149.972656 237.347656 150.367188 236.824219 150.171875 235.972656 C 150.367188 233.480469 153.972656 230.792969 155.9375 229.15625 C 160.917969 225.355469 166.355469 222.339844 170.945312 217.886719 C 177.101562 210.742188 182.28125 202.878906 188.898438 196.128906 C 194.535156 190.363281 198.792969 183.613281 203.25 176.996094 C 206.132812 173.0625 213.539062 170.574219 206.65625 166.050781 C 213.277344 157.597656 221.792969 150.585938 228.609375 142.332031 C 232.738281 138.332031 237.457031 135.121094 240.730469 130.339844 C 241.257812 129.8125 242.371094 129.75 242.632812 128.898438 C 243.15625 127.128906 245.320312 126.929688 245.777344 125.097656 C 248.203125 121.097656 252.59375 118.148438 254.035156 113.367188 C 254.363281 112.515625 254.492188 111.664062 254.164062 110.8125 C 253.183594 108.582031 255.214844 106.683594 255.410156 104.519531 C 253.050781 103.800781 250.628906 103.472656 248.792969 101.570312 Z M 84.574219 214.414062 C 85.101562 213.234375 85.363281 211.988281 86.410156 211.003906 C 86.933594 212.054688 87 213.101562 87.261719 214.347656 C 86.28125 214.085938 85.492188 214.347656 84.640625 214.347656 Z M 223.957031 136.367188 C 214.390625 146.261719 207.3125 158.1875 198.859375 168.933594 C 197.875 169.785156 196.761719 169.851562 195.84375 169.261719 C 193.484375 167.753906 200.433594 161.726562 201.019531 159.367188 C 199.449219 157.925781 200.367188 156.746094 201.480469 155.4375 C 202.59375 154.257812 203.316406 152.75 204.691406 151.765625 C 207.640625 146.261719 212.359375 142.132812 216.421875 137.675781 C 220.417969 135.121094 223.367188 127.980469 228.742188 129.160156 C 228.085938 132.238281 225.988281 134.335938 223.957031 136.367188 Z M 223.957031 136.367188 " fill-opacity="1" fill-rule="nonzero"/><path fill="#7ed957" d="M 227.5625 78.832031 C 231.296875 80.46875 234.179688 83.417969 237.71875 85.253906 C 234.964844 81.386719 230.050781 79.683594 225.988281 77.0625 C 226.445312 77.914062 226.839844 78.4375 227.496094 78.765625 Z M 227.5625 78.832031 " fill-opacity="1" fill-rule="nonzero"/><path fill="#7ed957" d="M 255.804688 97.3125 C 256 98.097656 256.132812 98.882812 256.851562 99.472656 C 257.179688 97.835938 257.113281 97.703125 255.804688 97.3125 Z M 255.804688 97.3125 " fill-opacity="1" fill-rule="nonzero"/><path fill="#d755b3" d="M 291.386719 50.523438 C 289.75 42.988281 282.605469 42.921875 278.476562 38.203125 C 278.347656 35.582031 276.378906 34.011719 274.742188 32.242188 C 271.203125 26.148438 265.304688 20.707031 258.292969 19.070312 C 257.703125 19.398438 258.03125 19.855469 257.640625 20.183594 C 254.230469 19.921875 257.050781 24.640625 258.492188 25.820312 C 263.601562 29.882812 269.105469 33.617188 273.496094 38.464844 C 274.609375 39.710938 275.921875 40.433594 277.625 39.972656 C 279.589844 39.710938 283.457031 46.199219 284.179688 47.835938 C 283.324219 47.835938 282.800781 46.917969 281.949219 46.984375 C 280.835938 46.984375 280.507812 46.199219 280.179688 45.347656 C 278.738281 44.296875 277.230469 42.988281 275.527344 42.464844 C 274.9375 42.332031 274.742188 41.875 274.480469 41.414062 C 264.78125 32.371094 251.21875 26.539062 237.652344 27.785156 C 231.820312 28.113281 230.835938 35.453125 226.183594 37.875 C 224.941406 39.054688 219.761719 40.695312 220.550781 42.464844 C 221.203125 44.296875 222.382812 45.609375 224.351562 46.003906 C 228.414062 47.445312 231.492188 50.851562 234.964844 53.339844 C 234.769531 54.191406 234.835938 54.847656 235.621094 55.371094 C 236.339844 56.550781 236.339844 57.992188 237.914062 58.648438 C 237.585938 59.699219 237.71875 60.613281 238.570312 61.335938 C 238.832031 61.53125 238.765625 61.925781 238.570312 62.1875 C 237.847656 63.695312 238.375 65.003906 239.09375 66.316406 C 239.945312 67.429688 239.355469 69.460938 240.929688 69.855469 C 243.617188 71.625 245.84375 74.636719 249.121094 75.359375 C 250.691406 75.359375 252.460938 75.621094 253.839844 74.835938 C 254.753906 74.113281 255.804688 74.179688 256.785156 74.375 C 261.765625 75.359375 266.8125 76.933594 271.792969 77.71875 C 275.527344 80.011719 277.363281 75.6875 279.328125 73.328125 C 280.769531 72.542969 281.164062 70.640625 282.210938 69.394531 C 285.292969 63.300781 292.042969 57.863281 291.386719 50.523438 Z M 291.386719 50.523438 " fill-opacity="1" fill-rule="nonzero"/><g clip-path="url(#00138552ae)"><path fill="#545454" d="M 314.714844 308.121094 C 306 313.097656 296.300781 315.851562 286.800781 318.605469 C 284.703125 320.175781 282.082031 318.605469 279.789062 319.785156 C 278.347656 319.980469 276.839844 319.652344 275.398438 320.242188 C 273.039062 320.046875 271.007812 321.550781 268.777344 320.375 C 266.222656 319.847656 262.292969 321.160156 260.457031 318.867188 C 261.308594 317.6875 263.40625 318.144531 264.0625 316.507812 C 264.453125 316.113281 265.371094 316.246094 265.632812 315.65625 C 265.894531 315.195312 266.289062 315.128906 266.8125 315.128906 C 269.5 315.066406 270.15625 312.183594 272.1875 311.132812 C 273.691406 310.675781 274.152344 309.167969 275.136719 308.054688 C 276.511719 307.203125 276.25 305.5625 276.96875 304.449219 C 278.476562 299.074219 274.480469 292.71875 270.480469 289.246094 C 267.007812 287.148438 262.75 288.789062 259.34375 289.902344 C 251.480469 290.558594 242.632812 296.914062 240.929688 304.972656 C 239.421875 311.132812 240.011719 309.035156 241.714844 314.804688 C 241.125 315.65625 240.207031 315.328125 239.550781 315.523438 C 238.699219 315.785156 237.847656 316.441406 236.867188 316.246094 C 234.898438 315.785156 233.066406 317.03125 231.097656 316.703125 C 230.96875 316.703125 230.773438 316.703125 230.640625 316.835938 C 229.917969 317.621094 229.132812 317.425781 228.214844 317.226562 C 224.351562 317.621094 220.417969 317.753906 216.550781 317.164062 C 215.632812 317.164062 214.71875 317.816406 213.929688 317.097656 C 213.011719 316.246094 211.898438 316.898438 210.851562 316.574219 C 205.542969 315.589844 200.234375 313.820312 195.386719 311.789062 C 192.699219 309.167969 188.898438 307.792969 185.492188 306.742188 C 180.117188 306.21875 174.746094 305.433594 169.371094 306.414062 C 168.78125 306.414062 168.125 306.414062 167.667969 307.003906 C 167.46875 307.203125 167.207031 307.265625 166.945312 307.203125 C 165.570312 306.875 164.390625 307.53125 163.078125 307.792969 C 159.476562 308.972656 155.804688 309.886719 152.136719 310.609375 C 149.058594 313.097656 145.125 312.707031 141.71875 313.820312 C 141.128906 314.542969 140.40625 314.542969 139.621094 314.542969 C 137.457031 314.542969 135.359375 315.328125 133.527344 316.507812 C 131.496094 316.898438 129.265625 316.507812 127.234375 317.621094 C 126.1875 318.144531 125.074219 318.800781 123.761719 318.800781 C 120.484375 319.0625 116.683594 318.40625 113.800781 319.980469 C 111.507812 319.71875 109.476562 320.375 107.316406 320.4375 C 105.28125 319.457031 103.515625 321.160156 101.613281 321.027344 C 99.714844 320.242188 98.140625 321.550781 96.371094 321.75 C 93.09375 320.765625 89.492188 321.683594 86.28125 320.242188 C 86.019531 320.046875 85.558594 320.109375 85.230469 320.242188 C 83.332031 320.570312 82.742188 318.210938 81.167969 317.488281 C 79.660156 316.507812 79.53125 314.738281 77.957031 313.625 C 76.1875 315.71875 74.617188 318.472656 75.597656 321.226562 C 76.253906 322.078125 76.84375 322.996094 76.710938 324.175781 C 85.625 332.691406 106.332031 328.628906 117.863281 327.777344 C 121.664062 327.972656 125.007812 326.140625 128.742188 325.8125 C 132.804688 326.007812 136.277344 323.648438 140.210938 323.585938 C 142.175781 323.585938 143.550781 322.46875 145.320312 322.011719 C 147.222656 322.011719 148.859375 320.964844 150.5625 320.308594 C 153.054688 319.0625 155.804688 319.585938 158.296875 318.339844 C 167.011719 315.195312 176.839844 313.625 186.082031 315.457031 C 188.175781 316.179688 189.421875 318.40625 191.847656 318.539062 C 192.503906 318.667969 193.289062 318.800781 193.746094 319.457031 C 198.464844 323.257812 205.476562 323.648438 211.179688 325.222656 C 222.972656 327.1875 235.097656 326.007812 246.628906 323.847656 C 250.757812 322.273438 253.839844 326.597656 257.902344 327.058594 C 261.832031 327.777344 265.894531 329.417969 269.894531 329.417969 C 272.25 328.628906 274.675781 329.285156 277.101562 329.089844 C 279.328125 328.761719 281.558594 328.171875 283.71875 327.648438 C 285.160156 327.058594 286.535156 326.140625 288.242188 326.46875 C 289.683594 326.46875 290.730469 324.960938 292.238281 324.960938 C 299.839844 321.027344 312.289062 317.292969 314.976562 308.316406 C 314.78125 308.316406 314.648438 308.382812 314.582031 308.445312 Z M 256.132812 310.542969 C 254.753906 310.804688 253.96875 312.707031 252.460938 312.246094 C 251.742188 311.984375 251.347656 312.640625 250.496094 312.835938 C 249.710938 310.871094 247.679688 308.90625 248.398438 306.675781 C 250.039062 303.792969 252.070312 301.433594 254.492188 299.273438 C 254.820312 298.8125 255.34375 298.550781 255.871094 298.617188 C 259.933594 298.09375 261.703125 295.667969 266.417969 296.652344 C 269.957031 297.632812 267.664062 302.484375 266.09375 304.449219 C 263.144531 307.136719 259.867188 309.363281 256.066406 310.542969 Z M 256.132812 310.542969 " fill-opacity="1" fill-rule="nonzero"/></g><path fill="#545454" d="M 22.453125 285.644531 C 20.09375 284.789062 18.71875 282.300781 16.359375 281.515625 C 12.886719 280.136719 10.398438 275.421875 6.398438 276.402344 C 5.546875 277.84375 5.351562 279.679688 3.714844 280.597656 C 2.992188 281.449219 2.796875 282.5625 2.796875 283.546875 C 1.878906 284.332031 0.0429688 284.527344 0.4375 286.101562 C 1.027344 288.328125 2.335938 291.933594 5.285156 291.476562 C 7.316406 290.492188 9.414062 292.390625 11.578125 292.328125 C 13.476562 292.328125 15.3125 292.785156 17.144531 293.113281 C 18.457031 292.71875 19.832031 292.980469 21.144531 293.113281 C 26.910156 293.441406 27.957031 287.675781 22.519531 285.707031 Z M 22.453125 285.644531 " fill-opacity="1" fill-rule="nonzero"/><path fill="#545454" d="M 29.664062 265.460938 C 29.074219 263.625 28.746094 257.007812 27.433594 256.417969 C 26.253906 256.285156 25.140625 255.890625 23.960938 256.480469 C 21.078125 258.25 14.789062 257.269531 14.984375 261.988281 C 16.230469 266.769531 20.226562 269.980469 22.914062 273.847656 C 23.632812 275.746094 25.925781 275.878906 26.714844 277.453125 C 26.910156 278.238281 27.5 278.5 28.15625 278.695312 C 36.019531 280.792969 29.726562 269.195312 29.664062 265.460938 Z M 29.664062 265.460938 " fill-opacity="1" fill-rule="nonzero"/><path fill="#000001" d="M 289.289062 51.441406 C 286.210938 37.351562 270.875 32.109375 261.636719 22.9375 C 264.386719 24.246094 266.417969 26.800781 269.5 27.589844 C 264.976562 20.96875 254.492188 14.484375 246.171875 14.089844 C 240.140625 13.238281 235.359375 17.367188 231.230469 21.296875 C 224.480469 27.457031 219.304688 35.125 214.0625 42.527344 C 213.011719 44.5625 210.390625 43.511719 209.210938 45.414062 C 209.476562 47.050781 211.832031 47.640625 211.308594 49.277344 C 209.210938 47.050781 207.574219 49.605469 205.347656 49.539062 C 202.332031 49.148438 202.265625 52.816406 200.167969 54.191406 C 197.546875 56.09375 198.925781 60.417969 196.5 62.320312 C 194.207031 64.285156 194.597656 67.890625 192.175781 69.722656 C 185.554688 77.128906 180.25 85.582031 173.039062 92.460938 C 171.074219 94.429688 169.175781 96.523438 167.929688 99.015625 C 165.046875 102.816406 161.113281 105.699219 158.296875 109.632812 C 156.59375 112.1875 154.496094 114.347656 152.59375 116.644531 C 148.859375 122.476562 144.535156 127.914062 140.40625 133.417969 C 138.113281 134.464844 138.835938 137.613281 137.128906 138.921875 C 133.984375 139.90625 134.246094 143.507812 132.019531 145.214844 C 118.652344 161.660156 106.726562 179.222656 93.355469 195.738281 C 100.828125 181.1875 112.292969 168.871094 122.320312 155.960938 C 123.304688 154.125 127.5625 150.519531 126.84375 148.6875 C 114.914062 160.875 105.085938 175.027344 95.652344 189.25 C 90.40625 198.226562 84.378906 206.746094 81.039062 216.640625 C 74.941406 230.203125 67.800781 243.769531 64.851562 258.316406 C 65.574219 258.1875 65.441406 257.203125 66.226562 256.941406 C 62.097656 266.507812 59.214844 276.535156 56.921875 286.625 C 55.546875 291.148438 53.054688 298.222656 58.886719 300.519531 C 65.246094 300.84375 70.160156 295.40625 75.730469 292.980469 C 84.574219 287.675781 92.765625 281.578125 102.007812 276.796875 C 110.394531 272.078125 117.863281 265.851562 125.992188 260.742188 C 127.171875 260.742188 127.496094 259.5625 128.347656 259.167969 C 131.035156 258.644531 132.148438 255.628906 134.445312 254.320312 C 140.015625 249.46875 145.191406 244.03125 149.515625 238.070312 C 152.464844 236.234375 153.578125 232.5625 156.199219 230.53125 C 159.738281 227.847656 161.113281 223.191406 164.390625 220.113281 C 174.417969 209.300781 183.722656 197.832031 193.878906 187.152344 C 198.464844 182.628906 202.265625 177.453125 205.871094 172.144531 C 206.132812 171.753906 206.460938 171.359375 205.871094 170.902344 C 201.414062 173.785156 199.121094 178.503906 194.730469 181.582031 C 194.535156 178.632812 197.746094 178.894531 198.398438 176.472656 C 203.773438 170.640625 208.359375 163.953125 213.863281 158.253906 C 223.367188 147.441406 232.476562 135.972656 241.453125 124.769531 C 244.140625 120.707031 248.136719 117.558594 250.234375 113.039062 C 251.9375 109.042969 256.066406 105.765625 255.476562 101.046875 C 256.984375 94.757812 251.347656 88.925781 247.480469 84.46875 C 247.285156 84.269531 246.890625 84.207031 247.152344 83.746094 C 250.5625 86.039062 253.640625 88.792969 257.179688 90.824219 C 257.640625 91.085938 257.769531 91.414062 257.769531 92.003906 C 257.769531 93.902344 258.359375 95.542969 259.40625 97.113281 C 259.671875 97.769531 260.585938 99.082031 261.242188 97.96875 C 261.964844 96.132812 263.667969 94.886719 264.386719 93.050781 C 265.175781 91.152344 268.253906 91.742188 268.449219 89.25 C 268.777344 87.746094 269.367188 86.300781 268.910156 84.730469 C 268.777344 84.335938 268.648438 83.878906 269.105469 83.550781 C 270.484375 82.828125 269.433594 81.386719 270.351562 80.46875 C 276.578125 70.574219 287.585938 63.695312 289.484375 51.441406 Z M 259.734375 21.496094 C 259.734375 21.496094 259.800781 21.691406 259.867188 21.757812 C 259.210938 22.148438 259.144531 20.96875 259.734375 21.496094 Z M 206.984375 57.46875 C 213.011719 61.335938 218.453125 67.101562 223.300781 72.410156 C 224.675781 74.375 227.035156 73.457031 227.101562 76.867188 C 218.84375 72.605469 213.144531 65.203125 205.476562 60.089844 C 205.738281 59.109375 206.265625 58.257812 206.984375 57.535156 Z M 118.847656 257.921875 C 114.71875 259.957031 111.574219 263.429688 107.183594 265.066406 C 106.988281 265.132812 106.726562 265.066406 106.59375 265.261719 C 105.609375 266.640625 103.777344 266.835938 102.660156 268.082031 C 99.1875 270.308594 95.714844 272.667969 92.375 275.15625 C 90.734375 275.945312 89.164062 276.925781 87.984375 278.304688 C 87.066406 278.894531 85.953125 278.957031 85.296875 279.941406 C 81.890625 283.546875 82.152344 273.976562 67.929688 270.703125 C 73.632812 254.976562 79.136719 238.921875 86.605469 224.046875 C 86.34375 222.339844 87.785156 221.359375 88.179688 219.980469 C 88.375 219.261719 88.835938 219.128906 89.492188 219.261719 C 94.207031 220.964844 99.648438 219 104.039062 221.097656 C 102.925781 227.714844 101.808594 235.972656 105.546875 241.804688 C 108.167969 243.046875 111.507812 241.277344 114.128906 240.492188 C 116.621094 239.773438 118.324219 237.28125 121.011719 237.414062 C 121.339844 243.3125 123.632812 248.816406 123.5 254.84375 C 121.925781 255.890625 120.484375 257.070312 118.714844 257.859375 Z M 178.546875 200.652344 C 178.21875 200.128906 178.609375 199.996094 178.9375 199.539062 C 179.132812 200.324219 178.871094 200.453125 178.546875 200.652344 Z M 184.640625 192.917969 C 184.640625 192.351562 184.945312 191.957031 185.554688 191.738281 C 185.554688 192.328125 185.097656 192.589844 184.640625 192.917969 Z M 240.078125 123.457031 C 237.980469 125.816406 236.800781 128.765625 233.984375 130.402344 C 235.753906 127.128906 237.980469 124.898438 239.878906 121.753906 C 240.535156 122.476562 240.46875 123 240.078125 123.457031 Z M 246.890625 103.339844 C 244.992188 105.765625 244.269531 108.976562 242.238281 111.269531 C 239.816406 113.957031 237.519531 116.839844 235.164062 119.589844 C 230.507812 124.769531 226.445312 130.46875 221.925781 135.515625 C 215.832031 143.507812 208.820312 150.914062 203.117188 159.171875 C 202.136719 160.941406 200.890625 162.839844 199.121094 163.953125 C 198.925781 164.019531 198.792969 164.347656 198.726562 164.609375 C 198.464844 166.117188 196.566406 166.050781 196.171875 167.363281 C 195.125 171.621094 190.601562 173.785156 189.03125 177.652344 C 188.765625 178.960938 187.390625 179.289062 186.800781 180.335938 C 185.164062 181.976562 183.589844 183.808594 182.28125 185.710938 C 181.101562 187.742188 179.070312 188.988281 178.152344 191.148438 C 177.691406 191.9375 177.234375 192.65625 176.316406 192.851562 C 175.921875 192.917969 175.792969 193.3125 175.660156 193.640625 C 171.597656 199.210938 167.273438 204.453125 162.492188 209.367188 C 157.445312 216.3125 152.726562 223.457031 147.351562 230.203125 C 141.652344 236.300781 134.835938 241.015625 129.988281 248.027344 C 128.546875 244.097656 128.347656 239.902344 127.300781 235.839844 C 126.777344 233.679688 127.171875 230.140625 124.023438 230.402344 C 119.304688 230.53125 115.769531 234.792969 111.3125 235.90625 C 107.96875 235.90625 109.542969 230.992188 109.214844 228.828125 C 109.476562 221.882812 113.539062 210.675781 101.808594 213.429688 C 99.714844 212.382812 97.355469 213.558594 95.324219 212.644531 C 93.945312 212.183594 92.964844 213.886719 91.652344 212.183594 C 94.273438 208.972656 96.4375 205.695312 98.664062 202.289062 C 100.105469 200.519531 102.203125 199.472656 102.792969 197.046875 C 103.515625 194.882812 105.546875 193.640625 106.59375 191.671875 C 107.25 190.691406 107.773438 189.707031 108.953125 189.050781 C 110 188.460938 110.328125 187.152344 110.917969 186.105469 C 122.058594 170.375 134.378906 155.238281 145.386719 139.644531 C 154.429688 126.601562 165.765625 115.332031 175.007812 102.355469 C 177.890625 98.359375 181.296875 94.820312 184.640625 91.21875 C 190.800781 84.402344 195.777344 76.40625 202.789062 70.378906 C 206.132812 71.558594 208.359375 74.964844 210.980469 77.195312 C 215.175781 80.796875 219.171875 84.859375 223.496094 88.464844 C 226.773438 90.957031 229.132812 95.609375 233.65625 95.804688 C 233.65625 93.445312 232.34375 92.003906 230.707031 90.628906 C 231.886719 89.644531 236.929688 95.542969 239.160156 96.199219 C 241.519531 97.703125 243.617188 99.800781 246.171875 101.046875 C 247.417969 101.570312 247.546875 102.160156 246.761719 103.210938 Z M 227.234375 76.867188 C 228.675781 76.800781 229.65625 78.175781 230.507812 79.160156 C 229.003906 78.964844 228.414062 77.523438 227.234375 76.867188 Z M 259.144531 83.222656 C 256.261719 80.40625 252.332031 79.160156 249.382812 76.539062 C 246.039062 73.851562 242.5 71.492188 239.550781 68.347656 C 236.078125 65.59375 232.542969 62.972656 228.804688 60.679688 C 225.726562 59.960938 224.152344 56.550781 220.941406 56.355469 C 220.351562 53.867188 217.46875 54.390625 216.160156 52.488281 C 215.570312 51.703125 214.847656 50.984375 213.863281 50.71875 C 212.949219 50.261719 212.488281 49.015625 211.242188 49.34375 C 213.144531 47.707031 215.175781 50.785156 216.8125 51.441406 C 218.453125 52.160156 220.023438 53.144531 221.402344 54.257812 C 235.292969 62.320312 247.679688 72.476562 259.605469 83.222656 C 259.34375 83.550781 259.144531 83.289062 259.082031 83.222656 Z M 280.3125 61.859375 C 276.445312 67.890625 271.269531 72.871094 267.140625 78.703125 C 262.292969 74.902344 257.441406 71.492188 252.921875 67.167969 C 250.628906 64.480469 247.613281 62.777344 245.058594 60.550781 C 236.144531 54.585938 227.296875 47.96875 217.535156 43.707031 C 224.21875 36.105469 231.230469 22.9375 241.910156 21.625 C 243.289062 20.90625 244.007812 22.410156 245.320312 22.542969 C 250.824219 23.65625 254.625 28.507812 258.882812 31.78125 C 263.535156 35.191406 268.910156 38.074219 272.839844 42.464844 C 274.414062 44.035156 276.90625 44.625 277.953125 46.789062 C 278.28125 47.707031 279.65625 47.773438 280.117188 48.425781 C 281.621094 52.6875 282.539062 57.601562 280.246094 61.730469 Z M 280.3125 61.859375 " fill-opacity="1" fill-rule="nonzero"/><path fill="#efe3d4" d="M 304.230469 47.117188 C 303.445312 44.953125 302.589844 42.726562 301.675781 40.5625 C 300.296875 38.925781 300.234375 36.566406 298.398438 35.253906 C 295.1875 33.027344 292.695312 29.882812 289.617188 27.785156 C 287.0625 23.917969 282.933594 20.96875 279.460938 17.890625 C 278.804688 17.300781 277.820312 17.429688 277.296875 16.777344 C 276.445312 15.726562 274.871094 15.726562 274.152344 14.484375 C 273.167969 14.285156 272.515625 13.628906 271.859375 12.976562 C 270.546875 11.074219 268.449219 10.746094 266.878906 9.304688 C 266.355469 8.914062 265.828125 8.453125 265.109375 8.453125 C 263.339844 7.535156 261.4375 6.355469 259.734375 5.242188 C 256.722656 4.980469 254.558594 1.703125 251.414062 2.753906 C 250.757812 2.882812 250.234375 2.753906 249.644531 2.425781 C 244.074219 0.132812 238.175781 4.980469 233.128906 7.078125 C 224.808594 10.878906 219.894531 18.546875 213.929688 25.03125 C 199.972656 37.613281 191.324219 55.242188 177.628906 67.953125 C 173.761719 71.101562 170.679688 75.164062 167.339844 78.898438 C 165.570312 80.996094 164.847656 83.945312 162.226562 85.386719 C 159.804688 89.316406 156.003906 92.398438 153.90625 96.589844 C 142.765625 110.15625 132.414062 124.441406 120.945312 137.613281 C 110.917969 151.242188 100.171875 164.609375 89.097656 177.386719 C 83.59375 186.496094 77.695312 195.671875 72.125 204.714844 C 71.929688 206.285156 70.355469 207.269531 70.550781 209.039062 C 70.550781 210.21875 69.4375 211.003906 69.242188 212.117188 C 67.40625 219.066406 64.394531 225.683594 62.296875 232.367188 C 61.773438 236.363281 59.085938 240.101562 59.28125 244.03125 C 57.578125 249.996094 55.808594 256.351562 53.84375 262.378906 C 51.941406 269.324219 48.535156 275.8125 47.945312 283.152344 C 48.078125 286.757812 46.175781 290.230469 46.765625 293.769531 C 46.765625 297.175781 44.277344 301.304688 47.617188 303.859375 C 48.863281 304.972656 49.519531 306.742188 51.222656 307.332031 C 51.613281 307.464844 51.941406 307.921875 52.203125 308.316406 C 52.335938 308.511719 52.464844 308.773438 52.730469 308.839844 C 53.910156 308.972656 54.824219 309.824219 55.675781 310.476562 C 58.824219 312.773438 63.148438 310.609375 66.425781 309.429688 C 70.617188 307.070312 75.992188 305.824219 79.070312 302.023438 C 79.726562 300.78125 80.773438 300.714844 81.953125 300.253906 C 84.3125 299.074219 86.34375 297.308594 88.964844 296.71875 C 91.261719 295.011719 94.078125 294.292969 96.238281 292.523438 C 102.988281 290.097656 108.429688 285.316406 114.785156 282.039062 C 116.816406 280.988281 118.847656 280.074219 120.355469 278.238281 C 122.582031 276.863281 125.335938 275.683594 127.234375 273.78125 C 127.367188 273.125 127.824219 272.800781 128.414062 272.734375 C 130.707031 272.078125 132.214844 269.914062 133.328125 267.882812 C 134.835938 267.554688 136.933594 268.410156 137.128906 266.179688 C 137.128906 266.050781 137.328125 265.917969 137.457031 265.851562 C 138.246094 265.589844 138.441406 264.871094 138.769531 264.214844 C 139.359375 262.707031 141.652344 263.035156 141.652344 261.070312 C 141.914062 260.675781 142.699219 260.480469 142.765625 259.890625 C 142.960938 258.777344 144.207031 258.90625 144.796875 258.1875 C 146.109375 256.941406 147.089844 255.433594 148.597656 254.386719 C 149.121094 252.8125 151.152344 252.550781 151.613281 250.976562 C 151.742188 249.078125 154.5625 250.324219 154.824219 248.421875 C 155.28125 247.375 156.65625 247.570312 156.527344 245.933594 C 158.492188 245.933594 159.015625 243.964844 160.261719 243.046875 C 163.539062 239.96875 166.75 236.824219 170.027344 233.742188 C 178.871094 225.160156 185.03125 214.414062 192.632812 204.976562 C 199.121094 197.570312 205.542969 190.167969 211.898438 182.433594 C 217.601562 176.011719 221.597656 168.082031 227.824219 162.1875 C 228.609375 161.332031 228.28125 159.761719 229.59375 159.238281 C 231.886719 156.289062 234.046875 153.140625 236.800781 150.585938 C 238.570312 150.0625 238.242188 147.898438 239.550781 147.113281 C 242.828125 144.363281 245.121094 140.363281 248.332031 137.414062 C 255.871094 128.109375 264.324219 119.265625 269.894531 108.714844 C 272.382812 106.945312 273.628906 104.191406 275.332031 101.769531 C 276.578125 100.390625 277.886719 99.082031 278.609375 97.3125 C 278.738281 97.050781 278.804688 96.722656 279.199219 96.65625 C 280.3125 96.523438 280.507812 95.671875 280.703125 94.757812 C 281.164062 91.480469 285.292969 90.367188 285.816406 86.957031 C 285.949219 86.367188 286.144531 85.84375 286.734375 85.582031 C 288.503906 84.535156 287.714844 81.648438 290.074219 81.058594 C 290.402344 80.996094 290.664062 80.734375 290.730469 80.40625 C 291.058594 78.703125 293.15625 78.308594 293.484375 76.605469 C 293.941406 75.492188 295.316406 74.835938 295.449219 73.523438 C 295.84375 71.691406 297.285156 70.378906 297.808594 68.675781 C 297.875 68.347656 298.136719 68.152344 298.464844 68.085938 C 300.625 67.496094 300.429688 65.203125 301.542969 63.761719 C 306.066406 59.566406 304.492188 52.6875 304.230469 47.183594 Z M 304.230469 47.117188 " fill-opacity="1" fill-rule="nonzero"/><path fill="#7ed957" d="M 248.921875 101.441406 C 245.515625 98.621094 242.699219 95.019531 238.832031 92.855469 C 238.503906 93.25 238.570312 93.707031 238.503906 94.101562 C 237.785156 98.164062 232.277344 94.625 230.507812 92.988281 C 227.625 90.234375 224.21875 87.808594 220.746094 85.714844 C 217.796875 84.796875 205.28125 72.542969 203.511719 76.667969 C 199.90625 80.601562 195.1875 83.417969 191.847656 87.480469 C 189.355469 88.792969 188.308594 91.742188 185.882812 93.25 C 184.574219 95.871094 181.886719 97.246094 180.183594 99.472656 C 176.578125 101.570312 175.203125 105.699219 172.449219 108.582031 C 167.011719 113.039062 162.164062 118.609375 156.132812 122.210938 C 156.003906 120.835938 156.394531 119.394531 155.152344 118.410156 C 156.984375 116.511719 158.164062 114.480469 157.835938 111.664062 C 146.828125 122.867188 141.914062 137.875 133.917969 151.046875 C 131.824219 155.566406 138.769531 151.175781 131.167969 162.316406 C 125.402344 169.589844 120.945312 178.304688 113.738281 184.269531 C 110 187.871094 106.070312 191.28125 102.726562 195.277344 C 102.203125 196.785156 101.023438 195.472656 100.105469 196 C 98.207031 196.589844 97.683594 198.816406 96.109375 199.667969 C 93.027344 201.175781 91.71875 204.84375 88.835938 206.8125 C 90.015625 202.484375 95.78125 197.503906 98.863281 193.902344 C 100.105469 192.394531 101.285156 190.820312 102.53125 189.378906 C 105.347656 188.003906 106.988281 184.988281 109.214844 182.828125 C 109.738281 178.632812 112.820312 175.816406 114.328125 171.753906 C 112.820312 172.539062 112.164062 174.113281 110.527344 174.046875 C 116.421875 153.140625 90.082031 190.820312 88.441406 194.164062 C 86.933594 198.160156 85.296875 202.222656 83.398438 205.960938 C 82.347656 210.414062 77.300781 216.707031 82.480469 220.375 C 83.332031 220.375 84.050781 219.785156 84.902344 219.65625 C 87 226.796875 89.492188 220.835938 92.441406 222.078125 C 95.585938 223.652344 100.304688 224.570312 103.382812 222.539062 C 103.710938 222.277344 103.972656 222.078125 104.367188 222.277344 C 105.480469 222.539062 106.660156 221.75 107.839844 222.277344 C 108.230469 226.140625 109.609375 229.613281 111.3125 233.152344 C 111.835938 234.464844 112.492188 234.660156 113.738281 233.875 C 116.09375 232.628906 118.847656 232.5 121.402344 231.777344 C 123.433594 231.121094 124.484375 232.824219 126.1875 233.351562 C 128.675781 233.941406 127.496094 237.675781 128.675781 239.511719 C 131.757812 247.046875 151.023438 221.03125 156.394531 224.4375 C 160.066406 226.46875 151.679688 230.203125 151.21875 232.367188 C 149.121094 237.742188 141.914062 239.445312 140.277344 245.277344 C 142.308594 243.964844 144.339844 243.179688 145.519531 241.214844 C 146.171875 239.445312 148.074219 238.984375 149.382812 237.804688 C 149.972656 237.347656 150.367188 236.824219 150.171875 235.972656 C 150.367188 233.480469 153.972656 230.792969 155.9375 229.15625 C 160.917969 225.355469 166.355469 222.339844 170.945312 217.886719 C 177.101562 210.742188 182.28125 202.878906 188.898438 196.128906 C 194.535156 190.363281 198.792969 183.613281 203.25 176.996094 C 206.132812 173.0625 213.539062 170.574219 206.65625 166.050781 C 213.277344 157.597656 221.792969 150.585938 228.609375 142.332031 C 232.738281 138.332031 237.457031 135.121094 240.730469 130.339844 C 241.257812 129.8125 242.371094 129.75 242.632812 128.898438 C 243.15625 127.128906 245.320312 126.929688 245.777344 125.097656 C 248.203125 121.097656 252.59375 118.148438 254.035156 113.367188 C 254.363281 112.515625 254.492188 111.664062 254.164062 110.8125 C 253.183594 108.582031 255.214844 106.683594 255.410156 104.519531 C 253.050781 103.800781 250.628906 103.472656 248.792969 101.570312 Z M 84.574219 214.414062 C 85.101562 213.234375 85.363281 211.988281 86.410156 211.003906 C 86.933594 212.054688 87 213.101562 87.261719 214.347656 C 86.28125 214.085938 85.492188 214.347656 84.640625 214.347656 Z M 223.957031 136.367188 C 214.390625 146.261719 207.3125 158.1875 198.859375 168.933594 C 197.875 169.785156 196.761719 169.851562 195.84375 169.261719 C 193.484375 167.753906 200.433594 161.726562 201.019531 159.367188 C 199.449219 157.925781 200.367188 156.746094 201.480469 155.4375 C 202.59375 154.257812 203.316406 152.75 204.691406 151.765625 C 207.640625 146.261719 212.359375 142.132812 216.421875 137.675781 C 220.417969 135.121094 223.367188 127.980469 228.742188 129.160156 C 228.085938 132.238281 225.988281 134.335938 223.957031 136.367188 Z M 223.957031 136.367188 " fill-opacity="1" fill-rule="nonzero"/><path fill="#7ed957" d="M 227.5625 78.832031 C 231.296875 80.46875 234.179688 83.417969 237.71875 85.253906 C 234.964844 81.386719 230.050781 79.683594 225.988281 77.0625 C 226.445312 77.914062 226.839844 78.4375 227.496094 78.765625 Z M 227.5625 78.832031 " fill-opacity="1" fill-rule="nonzero"/><path fill="#7ed957" d="M 255.804688 97.3125 C 256 98.097656 256.132812 98.882812 256.851562 99.472656 C 257.179688 97.835938 257.113281 97.703125 255.804688 97.3125 Z M 255.804688 97.3125 " fill-opacity="1" fill-rule="nonzero"/><path fill="#d755b3" d="M 291.386719 50.523438 C 289.75 42.988281 282.605469 42.921875 278.476562 38.203125 C 278.347656 35.582031 276.378906 34.011719 274.742188 32.242188 C 271.203125 26.148438 265.304688 20.707031 258.292969 19.070312 C 257.703125 19.398438 258.03125 19.855469 257.640625 20.183594 C 254.230469 19.921875 257.050781 24.640625 258.492188 25.820312 C 263.601562 29.882812 269.105469 33.617188 273.496094 38.464844 C 274.609375 39.710938 275.921875 40.433594 277.625 39.972656 C 279.589844 39.710938 283.457031 46.199219 284.179688 47.835938 C 283.324219 47.835938 282.800781 46.917969 281.949219 46.984375 C 280.835938 46.984375 280.507812 46.199219 280.179688 45.347656 C 278.738281 44.296875 277.230469 42.988281 275.527344 42.464844 C 274.9375 42.332031 274.742188 41.875 274.480469 41.414062 C 264.78125 32.371094 251.21875 26.539062 237.652344 27.785156 C 231.820312 28.113281 230.835938 35.453125 226.183594 37.875 C 224.941406 39.054688 219.761719 40.695312 220.550781 42.464844 C 221.203125 44.296875 222.382812 45.609375 224.351562 46.003906 C 228.414062 47.445312 231.492188 50.851562 234.964844 53.339844 C 234.769531 54.191406 234.835938 54.847656 235.621094 55.371094 C 236.339844 56.550781 236.339844 57.992188 237.914062 58.648438 C 237.585938 59.699219 237.71875 60.613281 238.570312 61.335938 C 238.832031 61.53125 238.765625 61.925781 238.570312 62.1875 C 237.847656 63.695312 238.375 65.003906 239.09375 66.316406 C 239.945312 67.429688 239.355469 69.460938 240.929688 69.855469 C 243.617188 71.625 245.84375 74.636719 249.121094 75.359375 C 250.691406 75.359375 252.460938 75.621094 253.839844 74.835938 C 254.753906 74.113281 255.804688 74.179688 256.785156 74.375 C 261.765625 75.359375 266.8125 76.933594 271.792969 77.71875 C 275.527344 80.011719 277.363281 75.6875 279.328125 73.328125 C 280.769531 72.542969 281.164062 70.640625 282.210938 69.394531 C 285.292969 63.300781 292.042969 57.863281 291.386719 50.523438 Z M 291.386719 50.523438 " fill-opacity="1" fill-rule="nonzero"/><g clip-path="url(#8eb1f256b0)"><path fill="#545454" d="M 314.714844 308.121094 C 306 313.097656 296.300781 315.851562 286.800781 318.605469 C 284.703125 320.175781 282.082031 318.605469 279.789062 319.785156 C 278.347656 319.980469 276.839844 319.652344 275.398438 320.242188 C 273.039062 320.046875 271.007812 321.550781 268.777344 320.375 C 266.222656 319.847656 262.292969 321.160156 260.457031 318.867188 C 261.308594 317.6875 263.40625 318.144531 264.0625 316.507812 C 264.453125 316.113281 265.371094 316.246094 265.632812 315.65625 C 265.894531 315.195312 266.289062 315.128906 266.8125 315.128906 C 269.5 315.066406 270.15625 312.183594 272.1875 311.132812 C 273.691406 310.675781 274.152344 309.167969 275.136719 308.054688 C 276.511719 307.203125 276.25 305.5625 276.96875 304.449219 C 278.476562 299.074219 274.480469 292.71875 270.480469 289.246094 C 267.007812 287.148438 262.75 288.789062 259.34375 289.902344 C 251.480469 290.558594 242.632812 296.914062 240.929688 304.972656 C 239.421875 311.132812 240.011719 309.035156 241.714844 314.804688 C 241.125 315.65625 240.207031 315.328125 239.550781 315.523438 C 238.699219 315.785156 237.847656 316.441406 236.867188 316.246094 C 234.898438 315.785156 233.066406 317.03125 231.097656 316.703125 C 230.96875 316.703125 230.773438 316.703125 230.640625 316.835938 C 229.917969 317.621094 229.132812 317.425781 228.214844 317.226562 C 224.351562 317.621094 220.417969 317.753906 216.550781 317.164062 C 215.632812 317.164062 214.71875 317.816406 213.929688 317.097656 C 213.011719 316.246094 211.898438 316.898438 210.851562 316.574219 C 205.542969 315.589844 200.234375 313.820312 195.386719 311.789062 C 192.699219 309.167969 188.898438 307.792969 185.492188 306.742188 C 180.117188 306.21875 174.746094 305.433594 169.371094 306.414062 C 168.78125 306.414062 168.125 306.414062 167.667969 307.003906 C 167.46875 307.203125 167.207031 307.265625 166.945312 307.203125 C 165.570312 306.875 164.390625 307.53125 163.078125 307.792969 C 159.476562 308.972656 155.804688 309.886719 152.136719 310.609375 C 149.058594 313.097656 145.125 312.707031 141.71875 313.820312 C 141.128906 314.542969 140.40625 314.542969 139.621094 314.542969 C 137.457031 314.542969 135.359375 315.328125 133.527344 316.507812 C 131.496094 316.898438 129.265625 316.507812 127.234375 317.621094 C 126.1875 318.144531 125.074219 318.800781 123.761719 318.800781 C 120.484375 319.0625 116.683594 318.40625 113.800781 319.980469 C 111.507812 319.71875 109.476562 320.375 107.316406 320.4375 C 105.28125 319.457031 103.515625 321.160156 101.613281 321.027344 C 99.714844 320.242188 98.140625 321.550781 96.371094 321.75 C 93.09375 320.765625 89.492188 321.683594 86.28125 320.242188 C 86.019531 320.046875 85.558594 320.109375 85.230469 320.242188 C 83.332031 320.570312 82.742188 318.210938 81.167969 317.488281 C 79.660156 316.507812 79.53125 314.738281 77.957031 313.625 C 76.1875 315.71875 74.617188 318.472656 75.597656 321.226562 C 76.253906 322.078125 76.84375 322.996094 76.710938 324.175781 C 85.625 332.691406 106.332031 328.628906 117.863281 327.777344 C 121.664062 327.972656 125.007812 326.140625 128.742188 325.8125 C 132.804688 326.007812 136.277344 323.648438 140.210938 323.585938 C 142.175781 323.585938 143.550781 322.46875 145.320312 322.011719 C 147.222656 322.011719 148.859375 320.964844 150.5625 320.308594 C 153.054688 319.0625 155.804688 319.585938 158.296875 318.339844 C 167.011719 315.195312 176.839844 313.625 186.082031 315.457031 C 188.175781 316.179688 189.421875 318.40625 191.847656 318.539062 C 192.503906 318.667969 193.289062 318.800781 193.746094 319.457031 C 198.464844 323.257812 205.476562 323.648438 211.179688 325.222656 C 222.972656 327.1875 235.097656 326.007812 246.628906 323.847656 C 250.757812 322.273438 253.839844 326.597656 257.902344 327.058594 C 261.832031 327.777344 265.894531 329.417969 269.894531 329.417969 C 272.25 328.628906 274.675781 329.285156 277.101562 329.089844 C 279.328125 328.761719 281.558594 328.171875 283.71875 327.648438 C 285.160156 327.058594 286.535156 326.140625 288.242188 326.46875 C 289.683594 326.46875 290.730469 324.960938 292.238281 324.960938 C 299.839844 321.027344 312.289062 317.292969 314.976562 308.316406 C 314.78125 308.316406 314.648438 308.382812 314.582031 308.445312 Z M 256.132812 310.542969 C 254.753906 310.804688 253.96875 312.707031 252.460938 312.246094 C 251.742188 311.984375 251.347656 312.640625 250.496094 312.835938 C 249.710938 310.871094 247.679688 308.90625 248.398438 306.675781 C 250.039062 303.792969 252.070312 301.433594 254.492188 299.273438 C 254.820312 298.8125 255.34375 298.550781 255.871094 298.617188 C 259.933594 298.09375 261.703125 295.667969 266.417969 296.652344 C 269.957031 297.632812 267.664062 302.484375 266.09375 304.449219 C 263.144531 307.136719 259.867188 309.363281 256.066406 310.542969 Z M 256.132812 310.542969 " fill-opacity="1" fill-rule="nonzero"/></g><path fill="#545454" d="M 22.453125 285.644531 C 20.09375 284.789062 18.71875 282.300781 16.359375 281.515625 C 12.886719 280.136719 10.398438 275.421875 6.398438 276.402344 C 5.546875 277.84375 5.351562 279.679688 3.714844 280.597656 C 2.992188 281.449219 2.796875 282.5625 2.796875 283.546875 C 1.878906 284.332031 0.0429688 284.527344 0.4375 286.101562 C 1.027344 288.328125 2.335938 291.933594 5.285156 291.476562 C 7.316406 290.492188 9.414062 292.390625 11.578125 292.328125 C 13.476562 292.328125 15.3125 292.785156 17.144531 293.113281 C 18.457031 292.71875 19.832031 292.980469 21.144531 293.113281 C 26.910156 293.441406 27.957031 287.675781 22.519531 285.707031 Z M 22.453125 285.644531 " fill-opacity="1" fill-rule="nonzero"/><path fill="#545454" d="M 29.664062 265.460938 C 29.074219 263.625 28.746094 257.007812 27.433594 256.417969 C 26.253906 256.285156 25.140625 255.890625 23.960938 256.480469 C 21.078125 258.25 14.789062 257.269531 14.984375 261.988281 C 16.230469 266.769531 20.226562 269.980469 22.914062 273.847656 C 23.632812 275.746094 25.925781 275.878906 26.714844 277.453125 C 26.910156 278.238281 27.5 278.5 28.15625 278.695312 C 36.019531 280.792969 29.726562 269.195312 29.664062 265.460938 Z M 29.664062 265.460938 " fill-opacity="1" fill-rule="nonzero"/><path fill="#000001" d="M 289.289062 51.441406 C 286.210938 37.351562 270.875 32.109375 261.636719 22.9375 C 264.386719 24.246094 266.417969 26.800781 269.5 27.589844 C 264.976562 20.96875 254.492188 14.484375 246.171875 14.089844 C 240.140625 13.238281 235.359375 17.367188 231.230469 21.296875 C 224.480469 27.457031 219.304688 35.125 214.0625 42.527344 C 213.011719 44.5625 210.390625 43.511719 209.210938 45.414062 C 209.476562 47.050781 211.832031 47.640625 211.308594 49.277344 C 209.210938 47.050781 207.574219 49.605469 205.347656 49.539062 C 202.332031 49.148438 202.265625 52.816406 200.167969 54.191406 C 197.546875 56.09375 198.925781 60.417969 196.5 62.320312 C 194.207031 64.285156 194.597656 67.890625 192.175781 69.722656 C 185.554688 77.128906 180.25 85.582031 173.039062 92.460938 C 171.074219 94.429688 169.175781 96.523438 167.929688 99.015625 C 165.046875 102.816406 161.113281 105.699219 158.296875 109.632812 C 156.59375 112.1875 154.496094 114.347656 152.59375 116.644531 C 148.859375 122.476562 144.535156 127.914062 140.40625 133.417969 C 138.113281 134.464844 138.835938 137.613281 137.128906 138.921875 C 133.984375 139.90625 134.246094 143.507812 132.019531 145.214844 C 118.652344 161.660156 106.726562 179.222656 93.355469 195.738281 C 100.828125 181.1875 112.292969 168.871094 122.320312 155.960938 C 123.304688 154.125 127.5625 150.519531 126.84375 148.6875 C 114.914062 160.875 105.085938 175.027344 95.652344 189.25 C 90.40625 198.226562 84.378906 206.746094 81.039062 216.640625 C 74.941406 230.203125 67.800781 243.769531 64.851562 258.316406 C 65.574219 258.1875 65.441406 257.203125 66.226562 256.941406 C 62.097656 266.507812 59.214844 276.535156 56.921875 286.625 C 55.546875 291.148438 53.054688 298.222656 58.886719 300.519531 C 65.246094 300.84375 70.160156 295.40625 75.730469 292.980469 C 84.574219 287.675781 92.765625 281.578125 102.007812 276.796875 C 110.394531 272.078125 117.863281 265.851562 125.992188 260.742188 C 127.171875 260.742188 127.496094 259.5625 128.347656 259.167969 C 131.035156 258.644531 132.148438 255.628906 134.445312 254.320312 C 140.015625 249.46875 145.191406 244.03125 149.515625 238.070312 C 152.464844 236.234375 153.578125 232.5625 156.199219 230.53125 C 159.738281 227.847656 161.113281 223.191406 164.390625 220.113281 C 174.417969 209.300781 183.722656 197.832031 193.878906 187.152344 C 198.464844 182.628906 202.265625 177.453125 205.871094 172.144531 C 206.132812 171.753906 206.460938 171.359375 205.871094 170.902344 C 201.414062 173.785156 199.121094 178.503906 194.730469 181.582031 C 194.535156 178.632812 197.746094 178.894531 198.398438 176.472656 C 203.773438 170.640625 208.359375 163.953125 213.863281 158.253906 C 223.367188 147.441406 232.476562 135.972656 241.453125 124.769531 C 244.140625 120.707031 248.136719 117.558594 250.234375 113.039062 C 251.9375 109.042969 256.066406 105.765625 255.476562 101.046875 C 256.984375 94.757812 251.347656 88.925781 247.480469 84.46875 C 247.285156 84.269531 246.890625 84.207031 247.152344 83.746094 C 250.5625 86.039062 253.640625 88.792969 257.179688 90.824219 C 257.640625 91.085938 257.769531 91.414062 257.769531 92.003906 C 257.769531 93.902344 258.359375 95.542969 259.40625 97.113281 C 259.671875 97.769531 260.585938 99.082031 261.242188 97.96875 C 261.964844 96.132812 263.667969 94.886719 264.386719 93.050781 C 265.175781 91.152344 268.253906 91.742188 268.449219 89.25 C 268.777344 87.746094 269.367188 86.300781 268.910156 84.730469 C 268.777344 84.335938 268.648438 83.878906 269.105469 83.550781 C 270.484375 82.828125 269.433594 81.386719 270.351562 80.46875 C 276.578125 70.574219 287.585938 63.695312 289.484375 51.441406 Z M 259.734375 21.496094 C 259.734375 21.496094 259.800781 21.691406 259.867188 21.757812 C 259.210938 22.148438 259.144531 20.96875 259.734375 21.496094 Z M 206.984375 57.46875 C 213.011719 61.335938 218.453125 67.101562 223.300781 72.410156 C 224.675781 74.375 227.035156 73.457031 227.101562 76.867188 C 218.84375 72.605469 213.144531 65.203125 205.476562 60.089844 C 205.738281 59.109375 206.265625 58.257812 206.984375 57.535156 Z M 118.847656 257.921875 C 114.71875 259.957031 111.574219 263.429688 107.183594 265.066406 C 106.988281 265.132812 106.726562 265.066406 106.59375 265.261719 C 105.609375 266.640625 103.777344 266.835938 102.660156 268.082031 C 99.1875 270.308594 95.714844 272.667969 92.375 275.15625 C 90.734375 275.945312 89.164062 276.925781 87.984375 278.304688 C 87.066406 278.894531 85.953125 278.957031 85.296875 279.941406 C 81.890625 283.546875 82.152344 273.976562 67.929688 270.703125 C 73.632812 254.976562 79.136719 238.921875 86.605469 224.046875 C 86.34375 222.339844 87.785156 221.359375 88.179688 219.980469 C 88.375 219.261719 88.835938 219.128906 89.492188 219.261719 C 94.207031 220.964844 99.648438 219 104.039062 221.097656 C 102.925781 227.714844 101.808594 235.972656 105.546875 241.804688 C 108.167969 243.046875 111.507812 241.277344 114.128906 240.492188 C 116.621094 239.773438 118.324219 237.28125 121.011719 237.414062 C 121.339844 243.3125 123.632812 248.816406 123.5 254.84375 C 121.925781 255.890625 120.484375 257.070312 118.714844 257.859375 Z M 178.546875 200.652344 C 178.21875 200.128906 178.609375 199.996094 178.9375 199.539062 C 179.132812 200.324219 178.871094 200.453125 178.546875 200.652344 Z M 184.640625 192.917969 C 184.640625 192.351562 184.945312 191.957031 185.554688 191.738281 C 185.554688 192.328125 185.097656 192.589844 184.640625 192.917969 Z M 240.078125 123.457031 C 237.980469 125.816406 236.800781 128.765625 233.984375 130.402344 C 235.753906 127.128906 237.980469 124.898438 239.878906 121.753906 C 240.535156 122.476562 240.46875 123 240.078125 123.457031 Z M 246.890625 103.339844 C 244.992188 105.765625 244.269531 108.976562 242.238281 111.269531 C 239.816406 113.957031 237.519531 116.839844 235.164062 119.589844 C 230.507812 124.769531 226.445312 130.46875 221.925781 135.515625 C 215.832031 143.507812 208.820312 150.914062 203.117188 159.171875 C 202.136719 160.941406 200.890625 162.839844 199.121094 163.953125 C 198.925781 164.019531 198.792969 164.347656 198.726562 164.609375 C 198.464844 166.117188 196.566406 166.050781 196.171875 167.363281 C 195.125 171.621094 190.601562 173.785156 189.03125 177.652344 C 188.765625 178.960938 187.390625 179.289062 186.800781 180.335938 C 185.164062 181.976562 183.589844 183.808594 182.28125 185.710938 C 181.101562 187.742188 179.070312 188.988281 178.152344 191.148438 C 177.691406 191.9375 177.234375 192.65625 176.316406 192.851562 C 175.921875 192.917969 175.792969 193.3125 175.660156 193.640625 C 171.597656 199.210938 167.273438 204.453125 162.492188 209.367188 C 157.445312 216.3125 152.726562 223.457031 147.351562 230.203125 C 141.652344 236.300781 134.835938 241.015625 129.988281 248.027344 C 128.546875 244.097656 128.347656 239.902344 127.300781 235.839844 C 126.777344 233.679688 127.171875 230.140625 124.023438 230.402344 C 119.304688 230.53125 115.769531 234.792969 111.3125 235.90625 C 107.96875 235.90625 109.542969 230.992188 109.214844 228.828125 C 109.476562 221.882812 113.539062 210.675781 101.808594 213.429688 C 99.714844 212.382812 97.355469 213.558594 95.324219 212.644531 C 93.945312 212.183594 92.964844 213.886719 91.652344 212.183594 C 94.273438 208.972656 96.4375 205.695312 98.664062 202.289062 C 100.105469 200.519531 102.203125 199.472656 102.792969 197.046875 C 103.515625 194.882812 105.546875 193.640625 106.59375 191.671875 C 107.25 190.691406 107.773438 189.707031 108.953125 189.050781 C 110 188.460938 110.328125 187.152344 110.917969 186.105469 C 122.058594 170.375 134.378906 155.238281 145.386719 139.644531 C 154.429688 126.601562 165.765625 115.332031 175.007812 102.355469 C 177.890625 98.359375 181.296875 94.820312 184.640625 91.21875 C 190.800781 84.402344 195.777344 76.40625 202.789062 70.378906 C 206.132812 71.558594 208.359375 74.964844 210.980469 77.195312 C 215.175781 80.796875 219.171875 84.859375 223.496094 88.464844 C 226.773438 90.957031 229.132812 95.609375 233.65625 95.804688 C 233.65625 93.445312 232.34375 92.003906 230.707031 90.628906 C 231.886719 89.644531 236.929688 95.542969 239.160156 96.199219 C 241.519531 97.703125 243.617188 99.800781 246.171875 101.046875 C 247.417969 101.570312 247.546875 102.160156 246.761719 103.210938 Z M 227.234375 76.867188 C 228.675781 76.800781 229.65625 78.175781 230.507812 79.160156 C 229.003906 78.964844 228.414062 77.523438 227.234375 76.867188 Z M 259.144531 83.222656 C 256.261719 80.40625 252.332031 79.160156 249.382812 76.539062 C 246.039062 73.851562 242.5 71.492188 239.550781 68.347656 C 236.078125 65.59375 232.542969 62.972656 228.804688 60.679688 C 225.726562 59.960938 224.152344 56.550781 220.941406 56.355469 C 220.351562 53.867188 217.46875 54.390625 216.160156 52.488281 C 215.570312 51.703125 214.847656 50.984375 213.863281 50.71875 C 212.949219 50.261719 212.488281 49.015625 211.242188 49.34375 C 213.144531 47.707031 215.175781 50.785156 216.8125 51.441406 C 218.453125 52.160156 220.023438 53.144531 221.402344 54.257812 C 235.292969 62.320312 247.679688 72.476562 259.605469 83.222656 C 259.34375 83.550781 259.144531 83.289062 259.082031 83.222656 Z M 280.3125 61.859375 C 276.445312 67.890625 271.269531 72.871094 267.140625 78.703125 C 262.292969 74.902344 257.441406 71.492188 252.921875 67.167969 C 250.628906 64.480469 247.613281 62.777344 245.058594 60.550781 C 236.144531 54.585938 227.296875 47.96875 217.535156 43.707031 C 224.21875 36.105469 231.230469 22.9375 241.910156 21.625 C 243.289062 20.90625 244.007812 22.410156 245.320312 22.542969 C 250.824219 23.65625 254.625 28.507812 258.882812 31.78125 C 263.535156 35.191406 268.910156 38.074219 272.839844 42.464844 C 274.414062 44.035156 276.90625 44.625 277.953125 46.789062 C 278.28125 47.707031 279.65625 47.773438 280.117188 48.425781 C 281.621094 52.6875 282.539062 57.601562 280.246094 61.730469 Z M 280.3125 61.859375 " fill-opacity="1" fill-rule="nonzero"/><path fill="#efe3d4" d="M 304.230469 47.117188 C 303.445312 44.953125 302.589844 42.726562 301.675781 40.5625 C 300.296875 38.925781 300.234375 36.566406 298.398438 35.253906 C 295.1875 33.027344 292.695312 29.882812 289.617188 27.785156 C 287.0625 23.917969 282.933594 20.96875 279.460938 17.890625 C 278.804688 17.300781 277.820312 17.429688 277.296875 16.777344 C 276.445312 15.726562 274.871094 15.726562 274.152344 14.484375 C 273.167969 14.285156 272.515625 13.628906 271.859375 12.976562 C 270.546875 11.074219 268.449219 10.746094 266.878906 9.304688 C 266.355469 8.914062 265.828125 8.453125 265.109375 8.453125 C 263.339844 7.535156 261.4375 6.355469 259.734375 5.242188 C 256.722656 4.980469 254.558594 1.703125 251.414062 2.753906 C 250.757812 2.882812 250.234375 2.753906 249.644531 2.425781 C 244.074219 0.132812 238.175781 4.980469 233.128906 7.078125 C 224.808594 10.878906 219.894531 18.546875 213.929688 25.03125 C 199.972656 37.613281 191.324219 55.242188 177.628906 67.953125 C 173.761719 71.101562 170.679688 75.164062 167.339844 78.898438 C 165.570312 80.996094 164.847656 83.945312 162.226562 85.386719 C 159.804688 89.316406 156.003906 92.398438 153.90625 96.589844 C 142.765625 110.15625 132.414062 124.441406 120.945312 137.613281 C 110.917969 151.242188 100.171875 164.609375 89.097656 177.386719 C 83.59375 186.496094 77.695312 195.671875 72.125 204.714844 C 71.929688 206.285156 70.355469 207.269531 70.550781 209.039062 C 70.550781 210.21875 69.4375 211.003906 69.242188 212.117188 C 67.40625 219.066406 64.394531 225.683594 62.296875 232.367188 C 61.773438 236.363281 59.085938 240.101562 59.28125 244.03125 C 57.578125 249.996094 55.808594 256.351562 53.84375 262.378906 C 51.941406 269.324219 48.535156 275.8125 47.945312 283.152344 C 48.078125 286.757812 46.175781 290.230469 46.765625 293.769531 C 46.765625 297.175781 44.277344 301.304688 47.617188 303.859375 C 48.863281 304.972656 49.519531 306.742188 51.222656 307.332031 C 51.613281 307.464844 51.941406 307.921875 52.203125 308.316406 C 52.335938 308.511719 52.464844 308.773438 52.730469 308.839844 C 53.910156 308.972656 54.824219 309.824219 55.675781 310.476562 C 58.824219 312.773438 63.148438 310.609375 66.425781 309.429688 C 70.617188 307.070312 75.992188 305.824219 79.070312 302.023438 C 79.726562 300.78125 80.773438 300.714844 81.953125 300.253906 C 84.3125 299.074219 86.34375 297.308594 88.964844 296.71875 C 91.261719 295.011719 94.078125 294.292969 96.238281 292.523438 C 102.988281 290.097656 108.429688 285.316406 114.785156 282.039062 C 116.816406 280.988281 118.847656 280.074219 120.355469 278.238281 C 122.582031 276.863281 125.335938 275.683594 127.234375 273.78125 C 127.367188 273.125 127.824219 272.800781 128.414062 272.734375 C 130.707031 272.078125 132.214844 269.914062 133.328125 267.882812 C 134.835938 267.554688 136.933594 268.410156 137.128906 266.179688 C 137.128906 266.050781 137.328125 265.917969 137.457031 265.851562 C 138.246094 265.589844 138.441406 264.871094 138.769531 264.214844 C 139.359375 262.707031 141.652344 263.035156 141.652344 261.070312 C 141.914062 260.675781 142.699219 260.480469 142.765625 259.890625 C 142.960938 258.777344 144.207031 258.90625 144.796875 258.1875 C 146.109375 256.941406 147.089844 255.433594 148.597656 254.386719 C 149.121094 252.8125 151.152344 252.550781 151.613281 250.976562 C 151.742188 249.078125 154.5625 250.324219 154.824219 248.421875 C 155.28125 247.375 156.65625 247.570312 156.527344 245.933594 C 158.492188 245.933594 159.015625 243.964844 160.261719 243.046875 C 163.539062 239.96875 166.75 236.824219 170.027344 233.742188 C 178.871094 225.160156 185.03125 214.414062 192.632812 204.976562 C 199.121094 197.570312 205.542969 190.167969 211.898438 182.433594 C 217.601562 176.011719 221.597656 168.082031 227.824219 162.1875 C 228.609375 161.332031 228.28125 159.761719 229.59375 159.238281 C 231.886719 156.289062 234.046875 153.140625 236.800781 150.585938 C 238.570312 150.0625 238.242188 147.898438 239.550781 147.113281 C 242.828125 144.363281 245.121094 140.363281 248.332031 137.414062 C 255.871094 128.109375 264.324219 119.265625 269.894531 108.714844 C 272.382812 106.945312 273.628906 104.191406 275.332031 101.769531 C 276.578125 100.390625 277.886719 99.082031 278.609375 97.3125 C 278.738281 97.050781 278.804688 96.722656 279.199219 96.65625 C 280.3125 96.523438 280.507812 95.671875 280.703125 94.757812 C 281.164062 91.480469 285.292969 90.367188 285.816406 86.957031 C 285.949219 86.367188 286.144531 85.84375 286.734375 85.582031 C 288.503906 84.535156 287.714844 81.648438 290.074219 81.058594 C 290.402344 80.996094 290.664062 80.734375 290.730469 80.40625 C 291.058594 78.703125 293.15625 78.308594 293.484375 76.605469 C 293.941406 75.492188 295.316406 74.835938 295.449219 73.523438 C 295.84375 71.691406 297.285156 70.378906 297.808594 68.675781 C 297.875 68.347656 298.136719 68.152344 298.464844 68.085938 C 300.625 67.496094 300.429688 65.203125 301.542969 63.761719 C 306.066406 59.566406 304.492188 52.6875 304.230469 47.183594 Z M 304.230469 47.117188 " fill-opacity="1" fill-rule="nonzero"/><path fill="#7ed957" d="M 248.921875 101.441406 C 245.515625 98.621094 242.699219 95.019531 238.832031 92.855469 C 238.503906 93.25 238.570312 93.707031 238.503906 94.101562 C 237.785156 98.164062 232.277344 94.625 230.507812 92.988281 C 227.625 90.234375 224.21875 87.808594 220.746094 85.714844 C 217.796875 84.796875 205.28125 72.542969 203.511719 76.667969 C 199.90625 80.601562 195.1875 83.417969 191.847656 87.480469 C 189.355469 88.792969 188.308594 91.742188 185.882812 93.25 C 184.574219 95.871094 181.886719 97.246094 180.183594 99.472656 C 176.578125 101.570312 175.203125 105.699219 172.449219 108.582031 C 167.011719 113.039062 162.164062 118.609375 156.132812 122.210938 C 156.003906 120.835938 156.394531 119.394531 155.152344 118.410156 C 156.984375 116.511719 158.164062 114.480469 157.835938 111.664062 C 146.828125 122.867188 141.914062 137.875 133.917969 151.046875 C 131.824219 155.566406 138.769531 151.175781 131.167969 162.316406 C 125.402344 169.589844 120.945312 178.304688 113.738281 184.269531 C 110 187.871094 106.070312 191.28125 102.726562 195.277344 C 102.203125 196.785156 101.023438 195.472656 100.105469 196 C 98.207031 196.589844 97.683594 198.816406 96.109375 199.667969 C 93.027344 201.175781 91.71875 204.84375 88.835938 206.8125 C 90.015625 202.484375 95.78125 197.503906 98.863281 193.902344 C 100.105469 192.394531 101.285156 190.820312 102.53125 189.378906 C 105.347656 188.003906 106.988281 184.988281 109.214844 182.828125 C 109.738281 178.632812 112.820312 175.816406 114.328125 171.753906 C 112.820312 172.539062 112.164062 174.113281 110.527344 174.046875 C 116.421875 153.140625 90.082031 190.820312 88.441406 194.164062 C 86.933594 198.160156 85.296875 202.222656 83.398438 205.960938 C 82.347656 210.414062 77.300781 216.707031 82.480469 220.375 C 83.332031 220.375 84.050781 219.785156 84.902344 219.65625 C 87 226.796875 89.492188 220.835938 92.441406 222.078125 C 95.585938 223.652344 100.304688 224.570312 103.382812 222.539062 C 103.710938 222.277344 103.972656 222.078125 104.367188 222.277344 C 105.480469 222.539062 106.660156 221.75 107.839844 222.277344 C 108.230469 226.140625 109.609375 229.613281 111.3125 233.152344 C 111.835938 234.464844 112.492188 234.660156 113.738281 233.875 C 116.09375 232.628906 118.847656 232.5 121.402344 231.777344 C 123.433594 231.121094 124.484375 232.824219 126.1875 233.351562 C 128.675781 233.941406 127.496094 237.675781 128.675781 239.511719 C 131.757812 247.046875 151.023438 221.03125 156.394531 224.4375 C 160.066406 226.46875 151.679688 230.203125 151.21875 232.367188 C 149.121094 237.742188 141.914062 239.445312 140.277344 245.277344 C 142.308594 243.964844 144.339844 243.179688 145.519531 241.214844 C 146.171875 239.445312 148.074219 238.984375 149.382812 237.804688 C 149.972656 237.347656 150.367188 236.824219 150.171875 235.972656 C 150.367188 233.480469 153.972656 230.792969 155.9375 229.15625 C 160.917969 225.355469 166.355469 222.339844 170.945312 217.886719 C 177.101562 210.742188 182.28125 202.878906 188.898438 196.128906 C 194.535156 190.363281 198.792969 183.613281 203.25 176.996094 C 206.132812 173.0625 213.539062 170.574219 206.65625 166.050781 C 213.277344 157.597656 221.792969 150.585938 228.609375 142.332031 C 232.738281 138.332031 237.457031 135.121094 240.730469 130.339844 C 241.257812 129.8125 242.371094 129.75 242.632812 128.898438 C 243.15625 127.128906 245.320312 126.929688 245.777344 125.097656 C 248.203125 121.097656 252.59375 118.148438 254.035156 113.367188 C 254.363281 112.515625 254.492188 111.664062 254.164062 110.8125 C 253.183594 108.582031 255.214844 106.683594 255.410156 104.519531 C 253.050781 103.800781 250.628906 103.472656 248.792969 101.570312 Z M 84.574219 214.414062 C 85.101562 213.234375 85.363281 211.988281 86.410156 211.003906 C 86.933594 212.054688 87 213.101562 87.261719 214.347656 C 86.28125 214.085938 85.492188 214.347656 84.640625 214.347656 Z M 223.957031 136.367188 C 214.390625 146.261719 207.3125 158.1875 198.859375 168.933594 C 197.875 169.785156 196.761719 169.851562 195.84375 169.261719 C 193.484375 167.753906 200.433594 161.726562 201.019531 159.367188 C 199.449219 157.925781 200.367188 156.746094 201.480469 155.4375 C 202.59375 154.257812 203.316406 152.75 204.691406 151.765625 C 207.640625 146.261719 212.359375 142.132812 216.421875 137.675781 C 220.417969 135.121094 223.367188 127.980469 228.742188 129.160156 C 228.085938 132.238281 225.988281 134.335938 223.957031 136.367188 Z M 223.957031 136.367188 " fill-opacity="1" fill-rule="nonzero"/><path fill="#7ed957" d="M 227.5625 78.832031 C 231.296875 80.46875 234.179688 83.417969 237.71875 85.253906 C 234.964844 81.386719 230.050781 79.683594 225.988281 77.0625 C 226.445312 77.914062 226.839844 78.4375 227.496094 78.765625 Z M 227.5625 78.832031 " fill-opacity="1" fill-rule="nonzero"/><path fill="#7ed957" d="M 255.804688 97.3125 C 256 98.097656 256.132812 98.882812 256.851562 99.472656 C 257.179688 97.835938 257.113281 97.703125 255.804688 97.3125 Z M 255.804688 97.3125 " fill-opacity="1" fill-rule="nonzero"/><path fill="#d755b3" d="M 291.386719 50.523438 C 289.75 42.988281 282.605469 42.921875 278.476562 38.203125 C 278.347656 35.582031 276.378906 34.011719 274.742188 32.242188 C 271.203125 26.148438 265.304688 20.707031 258.292969 19.070312 C 257.703125 19.398438 258.03125 19.855469 257.640625 20.183594 C 254.230469 19.921875 257.050781 24.640625 258.492188 25.820312 C 263.601562 29.882812 269.105469 33.617188 273.496094 38.464844 C 274.609375 39.710938 275.921875 40.433594 277.625 39.972656 C 279.589844 39.710938 283.457031 46.199219 284.179688 47.835938 C 283.324219 47.835938 282.800781 46.917969 281.949219 46.984375 C 280.835938 46.984375 280.507812 46.199219 280.179688 45.347656 C 278.738281 44.296875 277.230469 42.988281 275.527344 42.464844 C 274.9375 42.332031 274.742188 41.875 274.480469 41.414062 C 264.78125 32.371094 251.21875 26.539062 237.652344 27.785156 C 231.820312 28.113281 230.835938 35.453125 226.183594 37.875 C 224.941406 39.054688 219.761719 40.695312 220.550781 42.464844 C 221.203125 44.296875 222.382812 45.609375 224.351562 46.003906 C 228.414062 47.445312 231.492188 50.851562 234.964844 53.339844 C 234.769531 54.191406 234.835938 54.847656 235.621094 55.371094 C 236.339844 56.550781 236.339844 57.992188 237.914062 58.648438 C 237.585938 59.699219 237.71875 60.613281 238.570312 61.335938 C 238.832031 61.53125 238.765625 61.925781 238.570312 62.1875 C 237.847656 63.695312 238.375 65.003906 239.09375 66.316406 C 239.945312 67.429688 239.355469 69.460938 240.929688 69.855469 C 243.617188 71.625 245.84375 74.636719 249.121094 75.359375 C 250.691406 75.359375 252.460938 75.621094 253.839844 74.835938 C 254.753906 74.113281 255.804688 74.179688 256.785156 74.375 C 261.765625 75.359375 266.8125 76.933594 271.792969 77.71875 C 275.527344 80.011719 277.363281 75.6875 279.328125 73.328125 C 280.769531 72.542969 281.164062 70.640625 282.210938 69.394531 C 285.292969 63.300781 292.042969 57.863281 291.386719 50.523438 Z M 291.386719 50.523438 " fill-opacity="1" fill-rule="nonzero"/><g clip-path="url(#680cdcf731)"><path fill="#545454" d="M 314.714844 308.121094 C 306 313.097656 296.300781 315.851562 286.800781 318.605469 C 284.703125 320.175781 282.082031 318.605469 279.789062 319.785156 C 278.347656 319.980469 276.839844 319.652344 275.398438 320.242188 C 273.039062 320.046875 271.007812 321.550781 268.777344 320.375 C 266.222656 319.847656 262.292969 321.160156 260.457031 318.867188 C 261.308594 317.6875 263.40625 318.144531 264.0625 316.507812 C 264.453125 316.113281 265.371094 316.246094 265.632812 315.65625 C 265.894531 315.195312 266.289062 315.128906 266.8125 315.128906 C 269.5 315.066406 270.15625 312.183594 272.1875 311.132812 C 273.691406 310.675781 274.152344 309.167969 275.136719 308.054688 C 276.511719 307.203125 276.25 305.5625 276.96875 304.449219 C 278.476562 299.074219 274.480469 292.71875 270.480469 289.246094 C 267.007812 287.148438 262.75 288.789062 259.34375 289.902344 C 251.480469 290.558594 242.632812 296.914062 240.929688 304.972656 C 239.421875 311.132812 240.011719 309.035156 241.714844 314.804688 C 241.125 315.65625 240.207031 315.328125 239.550781 315.523438 C 238.699219 315.785156 237.847656 316.441406 236.867188 316.246094 C 234.898438 315.785156 233.066406 317.03125 231.097656 316.703125 C 230.96875 316.703125 230.773438 316.703125 230.640625 316.835938 C 229.917969 317.621094 229.132812 317.425781 228.214844 317.226562 C 224.351562 317.621094 220.417969 317.753906 216.550781 317.164062 C 215.632812 317.164062 214.71875 317.816406 213.929688 317.097656 C 213.011719 316.246094 211.898438 316.898438 210.851562 316.574219 C 205.542969 315.589844 200.234375 313.820312 195.386719 311.789062 C 192.699219 309.167969 188.898438 307.792969 185.492188 306.742188 C 180.117188 306.21875 174.746094 305.433594 169.371094 306.414062 C 168.78125 306.414062 168.125 306.414062 167.667969 307.003906 C 167.46875 307.203125 167.207031 307.265625 166.945312 307.203125 C 165.570312 306.875 164.390625 307.53125 163.078125 307.792969 C 159.476562 308.972656 155.804688 309.886719 152.136719 310.609375 C 149.058594 313.097656 145.125 312.707031 141.71875 313.820312 C 141.128906 314.542969 140.40625 314.542969 139.621094 314.542969 C 137.457031 314.542969 135.359375 315.328125 133.527344 316.507812 C 131.496094 316.898438 129.265625 316.507812 127.234375 317.621094 C 126.1875 318.144531 125.074219 318.800781 123.761719 318.800781 C 120.484375 319.0625 116.683594 318.40625 113.800781 319.980469 C 111.507812 319.71875 109.476562 320.375 107.316406 320.4375 C 105.28125 319.457031 103.515625 321.160156 101.613281 321.027344 C 99.714844 320.242188 98.140625 321.550781 96.371094 321.75 C 93.09375 320.765625 89.492188 321.683594 86.28125 320.242188 C 86.019531 320.046875 85.558594 320.109375 85.230469 320.242188 C 83.332031 320.570312 82.742188 318.210938 81.167969 317.488281 C 79.660156 316.507812 79.53125 314.738281 77.957031 313.625 C 76.1875 315.71875 74.617188 318.472656 75.597656 321.226562 C 76.253906 322.078125 76.84375 322.996094 76.710938 324.175781 C 85.625 332.691406 106.332031 328.628906 117.863281 327.777344 C 121.664062 327.972656 125.007812 326.140625 128.742188 325.8125 C 132.804688 326.007812 136.277344 323.648438 140.210938 323.585938 C 142.175781 323.585938 143.550781 322.46875 145.320312 322.011719 C 147.222656 322.011719 148.859375 320.964844 150.5625 320.308594 C 153.054688 319.0625 155.804688 319.585938 158.296875 318.339844 C 167.011719 315.195312 176.839844 313.625 186.082031 315.457031 C 188.175781 316.179688 189.421875 318.40625 191.847656 318.539062 C 192.503906 318.667969 193.289062 318.800781 193.746094 319.457031 C 198.464844 323.257812 205.476562 323.648438 211.179688 325.222656 C 222.972656 327.1875 235.097656 326.007812 246.628906 323.847656 C 250.757812 322.273438 253.839844 326.597656 257.902344 327.058594 C 261.832031 327.777344 265.894531 329.417969 269.894531 329.417969 C 272.25 328.628906 274.675781 329.285156 277.101562 329.089844 C 279.328125 328.761719 281.558594 328.171875 283.71875 327.648438 C 285.160156 327.058594 286.535156 326.140625 288.242188 326.46875 C 289.683594 326.46875 290.730469 324.960938 292.238281 324.960938 C 299.839844 321.027344 312.289062 317.292969 314.976562 308.316406 C 314.78125 308.316406 314.648438 308.382812 314.582031 308.445312 Z M 256.132812 310.542969 C 254.753906 310.804688 253.96875 312.707031 252.460938 312.246094 C 251.742188 311.984375 251.347656 312.640625 250.496094 312.835938 C 249.710938 310.871094 247.679688 308.90625 248.398438 306.675781 C 250.039062 303.792969 252.070312 301.433594 254.492188 299.273438 C 254.820312 298.8125 255.34375 298.550781 255.871094 298.617188 C 259.933594 298.09375 261.703125 295.667969 266.417969 296.652344 C 269.957031 297.632812 267.664062 302.484375 266.09375 304.449219 C 263.144531 307.136719 259.867188 309.363281 256.066406 310.542969 Z M 256.132812 310.542969 " fill-opacity="1" fill-rule="nonzero"/></g><path fill="#545454" d="M 22.453125 285.644531 C 20.09375 284.789062 18.71875 282.300781 16.359375 281.515625 C 12.886719 280.136719 10.398438 275.421875 6.398438 276.402344 C 5.546875 277.84375 5.351562 279.679688 3.714844 280.597656 C 2.992188 281.449219 2.796875 282.5625 2.796875 283.546875 C 1.878906 284.332031 0.0429688 284.527344 0.4375 286.101562 C 1.027344 288.328125 2.335938 291.933594 5.285156 291.476562 C 7.316406 290.492188 9.414062 292.390625 11.578125 292.328125 C 13.476562 292.328125 15.3125 292.785156 17.144531 293.113281 C 18.457031 292.71875 19.832031 292.980469 21.144531 293.113281 C 26.910156 293.441406 27.957031 287.675781 22.519531 285.707031 Z M 22.453125 285.644531 " fill-opacity="1" fill-rule="nonzero"/><path fill="#545454" d="M 29.664062 265.460938 C 29.074219 263.625 28.746094 257.007812 27.433594 256.417969 C 26.253906 256.285156 25.140625 255.890625 23.960938 256.480469 C 21.078125 258.25 14.789062 257.269531 14.984375 261.988281 C 16.230469 266.769531 20.226562 269.980469 22.914062 273.847656 C 23.632812 275.746094 25.925781 275.878906 26.714844 277.453125 C 26.910156 278.238281 27.5 278.5 28.15625 278.695312 C 36.019531 280.792969 29.726562 269.195312 29.664062 265.460938 Z M 29.664062 265.460938 " fill-opacity="1" fill-rule="nonzero"/><path fill="#000001" d="M 289.289062 51.441406 C 286.210938 37.351562 270.875 32.109375 261.636719 22.9375 C 264.386719 24.246094 266.417969 26.800781 269.5 27.589844 C 264.976562 20.96875 254.492188 14.484375 246.171875 14.089844 C 240.140625 13.238281 235.359375 17.367188 231.230469 21.296875 C 224.480469 27.457031 219.304688 35.125 214.0625 42.527344 C 213.011719 44.5625 210.390625 43.511719 209.210938 45.414062 C 209.476562 47.050781 211.832031 47.640625 211.308594 49.277344 C 209.210938 47.050781 207.574219 49.605469 205.347656 49.539062 C 202.332031 49.148438 202.265625 52.816406 200.167969 54.191406 C 197.546875 56.09375 198.925781 60.417969 196.5 62.320312 C 194.207031 64.285156 194.597656 67.890625 192.175781 69.722656 C 185.554688 77.128906 180.25 85.582031 173.039062 92.460938 C 171.074219 94.429688 169.175781 96.523438 167.929688 99.015625 C 165.046875 102.816406 161.113281 105.699219 158.296875 109.632812 C 156.59375 112.1875 154.496094 114.347656 152.59375 116.644531 C 148.859375 122.476562 144.535156 127.914062 140.40625 133.417969 C 138.113281 134.464844 138.835938 137.613281 137.128906 138.921875 C 133.984375 139.90625 134.246094 143.507812 132.019531 145.214844 C 118.652344 161.660156 106.726562 179.222656 93.355469 195.738281 C 100.828125 181.1875 112.292969 168.871094 122.320312 155.960938 C 123.304688 154.125 127.5625 150.519531 126.84375 148.6875 C 114.914062 160.875 105.085938 175.027344 95.652344 189.25 C 90.40625 198.226562 84.378906 206.746094 81.039062 216.640625 C 74.941406 230.203125 67.800781 243.769531 64.851562 258.316406 C 65.574219 258.1875 65.441406 257.203125 66.226562 256.941406 C 62.097656 266.507812 59.214844 276.535156 56.921875 286.625 C 55.546875 291.148438 53.054688 298.222656 58.886719 300.519531 C 65.246094 300.84375 70.160156 295.40625 75.730469 292.980469 C 84.574219 287.675781 92.765625 281.578125 102.007812 276.796875 C 110.394531 272.078125 117.863281 265.851562 125.992188 260.742188 C 127.171875 260.742188 127.496094 259.5625 128.347656 259.167969 C 131.035156 258.644531 132.148438 255.628906 134.445312 254.320312 C 140.015625 249.46875 145.191406 244.03125 149.515625 238.070312 C 152.464844 236.234375 153.578125 232.5625 156.199219 230.53125 C 159.738281 227.847656 161.113281 223.191406 164.390625 220.113281 C 174.417969 209.300781 183.722656 197.832031 193.878906 187.152344 C 198.464844 182.628906 202.265625 177.453125 205.871094 172.144531 C 206.132812 171.753906 206.460938 171.359375 205.871094 170.902344 C 201.414062 173.785156 199.121094 178.503906 194.730469 181.582031 C 194.535156 178.632812 197.746094 178.894531 198.398438 176.472656 C 203.773438 170.640625 208.359375 163.953125 213.863281 158.253906 C 223.367188 147.441406 232.476562 135.972656 241.453125 124.769531 C 244.140625 120.707031 248.136719 117.558594 250.234375 113.039062 C 251.9375 109.042969 256.066406 105.765625 255.476562 101.046875 C 256.984375 94.757812 251.347656 88.925781 247.480469 84.46875 C 247.285156 84.269531 246.890625 84.207031 247.152344 83.746094 C 250.5625 86.039062 253.640625 88.792969 257.179688 90.824219 C 257.640625 91.085938 257.769531 91.414062 257.769531 92.003906 C 257.769531 93.902344 258.359375 95.542969 259.40625 97.113281 C 259.671875 97.769531 260.585938 99.082031 261.242188 97.96875 C 261.964844 96.132812 263.667969 94.886719 264.386719 93.050781 C 265.175781 91.152344 268.253906 91.742188 268.449219 89.25 C 268.777344 87.746094 269.367188 86.300781 268.910156 84.730469 C 268.777344 84.335938 268.648438 83.878906 269.105469 83.550781 C 270.484375 82.828125 269.433594 81.386719 270.351562 80.46875 C 276.578125 70.574219 287.585938 63.695312 289.484375 51.441406 Z M 259.734375 21.496094 C 259.734375 21.496094 259.800781 21.691406 259.867188 21.757812 C 259.210938 22.148438 259.144531 20.96875 259.734375 21.496094 Z M 206.984375 57.46875 C 213.011719 61.335938 218.453125 67.101562 223.300781 72.410156 C 224.675781 74.375 227.035156 73.457031 227.101562 76.867188 C 218.84375 72.605469 213.144531 65.203125 205.476562 60.089844 C 205.738281 59.109375 206.265625 58.257812 206.984375 57.535156 Z M 118.847656 257.921875 C 114.71875 259.957031 111.574219 263.429688 107.183594 265.066406 C 106.988281 265.132812 106.726562 265.066406 106.59375 265.261719 C 105.609375 266.640625 103.777344 266.835938 102.660156 268.082031 C 99.1875 270.308594 95.714844 272.667969 92.375 275.15625 C 90.734375 275.945312 89.164062 276.925781 87.984375 278.304688 C 87.066406 278.894531 85.953125 278.957031 85.296875 279.941406 C 81.890625 283.546875 82.152344 273.976562 67.929688 270.703125 C 73.632812 254.976562 79.136719 238.921875 86.605469 224.046875 C 86.34375 222.339844 87.785156 221.359375 88.179688 219.980469 C 88.375 219.261719 88.835938 219.128906 89.492188 219.261719 C 94.207031 220.964844 99.648438 219 104.039062 221.097656 C 102.925781 227.714844 101.808594 235.972656 105.546875 241.804688 C 108.167969 243.046875 111.507812 241.277344 114.128906 240.492188 C 116.621094 239.773438 118.324219 237.28125 121.011719 237.414062 C 121.339844 243.3125 123.632812 248.816406 123.5 254.84375 C 121.925781 255.890625 120.484375 257.070312 118.714844 257.859375 Z M 178.546875 200.652344 C 178.21875 200.128906 178.609375 199.996094 178.9375 199.539062 C 179.132812 200.324219 178.871094 200.453125 178.546875 200.652344 Z M 184.640625 192.917969 C 184.640625 192.351562 184.945312 191.957031 185.554688 191.738281 C 185.554688 192.328125 185.097656 192.589844 184.640625 192.917969 Z M 240.078125 123.457031 C 237.980469 125.816406 236.800781 128.765625 233.984375 130.402344 C 235.753906 127.128906 237.980469 124.898438 239.878906 121.753906 C 240.535156 122.476562 240.46875 123 240.078125 123.457031 Z M 246.890625 103.339844 C 244.992188 105.765625 244.269531 108.976562 242.238281 111.269531 C 239.816406 113.957031 237.519531 116.839844 235.164062 119.589844 C 230.507812 124.769531 226.445312 130.46875 221.925781 135.515625 C 215.832031 143.507812 208.820312 150.914062 203.117188 159.171875 C 202.136719 160.941406 200.890625 162.839844 199.121094 163.953125 C 198.925781 164.019531 198.792969 164.347656 198.726562 164.609375 C 198.464844 166.117188 196.566406 166.050781 196.171875 167.363281 C 195.125 171.621094 190.601562 173.785156 189.03125 177.652344 C 188.765625 178.960938 187.390625 179.289062 186.800781 180.335938 C 185.164062 181.976562 183.589844 183.808594 182.28125 185.710938 C 181.101562 187.742188 179.070312 188.988281 178.152344 191.148438 C 177.691406 191.9375 177.234375 192.65625 176.316406 192.851562 C 175.921875 192.917969 175.792969 193.3125 175.660156 193.640625 C 171.597656 199.210938 167.273438 204.453125 162.492188 209.367188 C 157.445312 216.3125 152.726562 223.457031 147.351562 230.203125 C 141.652344 236.300781 134.835938 241.015625 129.988281 248.027344 C 128.546875 244.097656 128.347656 239.902344 127.300781 235.839844 C 126.777344 233.679688 127.171875 230.140625 124.023438 230.402344 C 119.304688 230.53125 115.769531 234.792969 111.3125 235.90625 C 107.96875 235.90625 109.542969 230.992188 109.214844 228.828125 C 109.476562 221.882812 113.539062 210.675781 101.808594 213.429688 C 99.714844 212.382812 97.355469 213.558594 95.324219 212.644531 C 93.945312 212.183594 92.964844 213.886719 91.652344 212.183594 C 94.273438 208.972656 96.4375 205.695312 98.664062 202.289062 C 100.105469 200.519531 102.203125 199.472656 102.792969 197.046875 C 103.515625 194.882812 105.546875 193.640625 106.59375 191.671875 C 107.25 190.691406 107.773438 189.707031 108.953125 189.050781 C 110 188.460938 110.328125 187.152344 110.917969 186.105469 C 122.058594 170.375 134.378906 155.238281 145.386719 139.644531 C 154.429688 126.601562 165.765625 115.332031 175.007812 102.355469 C 177.890625 98.359375 181.296875 94.820312 184.640625 91.21875 C 190.800781 84.402344 195.777344 76.40625 202.789062 70.378906 C 206.132812 71.558594 208.359375 74.964844 210.980469 77.195312 C 215.175781 80.796875 219.171875 84.859375 223.496094 88.464844 C 226.773438 90.957031 229.132812 95.609375 233.65625 95.804688 C 233.65625 93.445312 232.34375 92.003906 230.707031 90.628906 C 231.886719 89.644531 236.929688 95.542969 239.160156 96.199219 C 241.519531 97.703125 243.617188 99.800781 246.171875 101.046875 C 247.417969 101.570312 247.546875 102.160156 246.761719 103.210938 Z M 227.234375 76.867188 C 228.675781 76.800781 229.65625 78.175781 230.507812 79.160156 C 229.003906 78.964844 228.414062 77.523438 227.234375 76.867188 Z M 259.144531 83.222656 C 256.261719 80.40625 252.332031 79.160156 249.382812 76.539062 C 246.039062 73.851562 242.5 71.492188 239.550781 68.347656 C 236.078125 65.59375 232.542969 62.972656 228.804688 60.679688 C 225.726562 59.960938 224.152344 56.550781 220.941406 56.355469 C 220.351562 53.867188 217.46875 54.390625 216.160156 52.488281 C 215.570312 51.703125 214.847656 50.984375 213.863281 50.71875 C 212.949219 50.261719 212.488281 49.015625 211.242188 49.34375 C 213.144531 47.707031 215.175781 50.785156 216.8125 51.441406 C 218.453125 52.160156 220.023438 53.144531 221.402344 54.257812 C 235.292969 62.320312 247.679688 72.476562 259.605469 83.222656 C 259.34375 83.550781 259.144531 83.289062 259.082031 83.222656 Z M 280.3125 61.859375 C 276.445312 67.890625 271.269531 72.871094 267.140625 78.703125 C 262.292969 74.902344 257.441406 71.492188 252.921875 67.167969 C 250.628906 64.480469 247.613281 62.777344 245.058594 60.550781 C 236.144531 54.585938 227.296875 47.96875 217.535156 43.707031 C 224.21875 36.105469 231.230469 22.9375 241.910156 21.625 C 243.289062 20.90625 244.007812 22.410156 245.320312 22.542969 C 250.824219 23.65625 254.625 28.507812 258.882812 31.78125 C 263.535156 35.191406 268.910156 38.074219 272.839844 42.464844 C 274.414062 44.035156 276.90625 44.625 277.953125 46.789062 C 278.28125 47.707031 279.65625 47.773438 280.117188 48.425781 C 281.621094 52.6875 282.539062 57.601562 280.246094 61.730469 Z M 280.3125 61.859375 " fill-opacity="1" fill-rule="nonzero"/></svg>