<svg xmlns="http://www.w3.org/2000/svg" xmlns:xlink="http://www.w3.org/1999/xlink" width="493" zoomAndPan="magnify" viewBox="0 0 369.75 369.749991" height="493" preserveAspectRatio="xMidYMid meet" version="1.0"><defs><clipPath id="93550cb8ff"><path d="M 19 19 L 349 19 L 349 336.242188 L 19 336.242188 Z M 19 19 " clip-rule="nonzero"/></clipPath></defs><g clip-path="url(#93550cb8ff)"><path fill="#000000" d="M 346.644531 128.972656 C 348.382812 125.441406 348.527344 122.136719 344.972656 119.660156 C 335.773438 116.953125 325.871094 121.804688 316.566406 122.589844 C 303.855469 124.863281 291.101562 126.617188 278.367188 128.5 C 270.863281 128.972656 262.695312 129.511719 253.871094 130.089844 C 242.398438 96.628906 227.925781 64.324219 211.078125 33.15625 C 200.351562 7.316406 191.503906 24.027344 185.652344 41.066406 C 179.410156 58.355469 173.890625 75.910156 168.351562 93.449219 C 162.4375 108.855469 156.589844 124.304688 150.65625 139.609375 C 121.054688 142.9375 92.09375 146.882812 62.71875 151.734375 C 58.398438 151.734375 54.058594 151.527344 49.675781 151.175781 C 40.972656 150.476562 32.289062 149.773438 23.980469 151.984375 C -4.421875 174.082031 104.804688 211.21875 118.738281 221.546875 C 107.121094 246.953125 99.371094 273.742188 92.753906 300.839844 C 91.472656 310.796875 81.507812 325.441406 91.535156 333.535156 C 94.222656 335.601562 97.46875 336.429688 100.753906 336.429688 C 103.503906 336.429688 106.316406 335.851562 108.878906 334.921875 C 109.230469 335.085938 109.644531 335.210938 110.078125 335.269531 C 112.558594 335.746094 115.039062 334.175781 115.679688 331.738281 C 129.425781 323.230469 142.738281 313.875 155.742188 304.226562 C 158.222656 302.429688 158.636719 298.609375 156.15625 296.566406 C 170.417969 285.949219 184.683594 275.351562 199.007812 264.796875 C 212.363281 270.726562 225.757812 276.613281 238.800781 283.078125 C 247.132812 288.921875 255.460938 294.808594 263.835938 300.59375 C 269.332031 304.207031 273.527344 305.40625 276.773438 305.136719 C 282.230469 308.710938 287.542969 312.449219 292.773438 316.351562 C 294.40625 317.570312 296.496094 318.375 298.519531 317.652344 C 314.480469 312.714844 279.8125 217.355469 276.980469 200.148438 C 289.941406 188.253906 302.429688 176.046875 314.707031 163.507812 C 341.207031 143.492188 353.46875 133.25 346.5625 128.933594 Z M 263.894531 190.132812 C 261.25 192.195312 258.542969 194.199219 255.894531 196.285156 C 254.550781 192.074219 253.1875 187.878906 251.84375 183.6875 C 248.433594 173.007812 245.0625 162.289062 241.652344 151.609375 C 240.847656 149.070312 240.101562 146.53125 239.359375 143.988281 C 242.273438 143.617188 245.207031 143.289062 248.125 142.894531 C 253.808594 158.507812 259.140625 174.226562 263.875 190.152344 Z M 243.761719 130.769531 C 240.949219 130.957031 238.53125 131.121094 235.597656 131.308594 C 230.078125 113.296875 226.046875 94.851562 221.765625 76.449219 C 229.953125 94.171875 237.394531 112.242188 243.761719 130.75 Z M 177.261719 97.621094 C 182.304688 84.421875 187.429688 71.265625 192.722656 58.148438 C 195.574219 51.4375 198.261719 44.433594 201.324219 37.742188 C 211.679688 68.601562 216.101562 100.988281 225.734375 132.15625 C 205.105469 133.972656 184.515625 135.832031 163.949219 138.125 C 168.621094 124.699219 172.941406 111.148438 177.261719 97.621094 Z M 47.605469 170.425781 C 44.402344 168.898438 41.15625 167.371094 37.972656 165.757812 C 47.730469 163.921875 57.589844 162.496094 67.390625 160.90625 C 93.1875 160.472656 118.988281 158.550781 144.640625 155.347656 C 141.394531 163.796875 138.171875 172.246094 134.964844 180.691406 C 131.84375 188.933594 128.765625 197.214844 125.746094 205.5 C 99.722656 193.789062 73.28125 182.902344 47.585938 170.425781 Z M 128.476562 305.734375 C 123.019531 310.300781 117.5 314.761719 112.496094 319.800781 C 109.210938 323.476562 105.921875 326.988281 100.527344 326.699219 C 99.121094 326.636719 96.496094 326.121094 96.828125 324.199219 C 97.570312 320.503906 98.5 316.949219 99.492188 313.335938 C 99.636719 313.335938 99.761719 313.460938 99.90625 313.460938 C 103.007812 313.460938 106.109375 310.464844 104.597656 306.539062 C 108.816406 279.214844 119.605469 253.109375 128.539062 226.898438 C 144 235.46875 159.441406 244.308594 175.132812 252.671875 C 154.667969 266.90625 136.476562 283.449219 114.667969 296.542969 C 111.546875 297.96875 107.535156 300.738281 109.601562 304.722656 C 113.882812 313.003906 129.570312 297.472656 135.109375 294.746094 C 151.855469 282.765625 167.628906 269.34375 184.722656 257.796875 C 186.210938 258.539062 187.660156 259.429688 189.148438 260.152344 C 168.847656 275.269531 148.175781 289.914062 128.476562 305.777344 Z M 192.496094 240.960938 C 178.066406 232.144531 163.246094 223.964844 148.21875 216.21875 C 143.792969 213.90625 139.226562 211.839844 134.699219 209.648438 C 143.027344 191.164062 151.171875 173.007812 158.386719 153.757812 C 176.414062 151.609375 194.4375 149.503906 212.464844 147.355469 C 218.191406 146.675781 223.9375 145.910156 229.683594 145.1875 C 235.429688 164.335938 241.589844 183.355469 247.691406 202.402344 C 229.664062 215.742188 211.492188 228.960938 192.515625 240.960938 Z M 201.734375 246.539062 C 215.277344 237.863281 228.382812 228.550781 241.34375 219.046875 C 229.476562 229.25 217.28125 239.082031 204.671875 248.417969 C 203.679688 247.820312 202.726562 247.136719 201.734375 246.558594 Z M 245.601562 276.054688 C 234.976562 268.558594 224.351562 261.058594 213.457031 253.996094 C 227.328125 243.730469 240.703125 232.699219 253.683594 221.195312 C 261.207031 244.742188 269.539062 268.183594 274.273438 292.476562 C 264.949219 286.566406 255.421875 281.09375 245.601562 276.074219 Z M 293.105469 304.539062 C 290.171875 302.429688 286.964844 300.714844 283.96875 298.671875 C 285.085938 294.25 284.402344 288.097656 282.066406 281.550781 C 276.257812 258.789062 268.878906 236.460938 261.664062 214.089844 C 264.082031 211.882812 266.625 209.816406 269.003906 207.585938 C 277.023438 239.722656 288.992188 271.449219 293.105469 304.515625 Z M 309.953125 154.667969 C 297.324219 164.335938 284.753906 174.042969 272.164062 183.75 C 267.886719 169.558594 263.027344 155.453125 258.003906 141.511719 C 264.785156 140.5625 271.503906 139.257812 278.285156 138.246094 C 294.71875 137.378906 311.171875 136.574219 327.628906 136.203125 C 321.777344 142.398438 315.886719 148.554688 309.953125 154.648438 Z M 309.953125 154.667969 " fill-opacity="1" fill-rule="nonzero"/></g></svg>