<svg xmlns="http://www.w3.org/2000/svg" xmlns:xlink="http://www.w3.org/1999/xlink" width="321" zoomAndPan="magnify" viewBox="0 0 240.75 240.749995" height="321" preserveAspectRatio="xMidYMid meet" version="1.0"><path fill="#000000" d="M 213.402344 100.535156 C 205.785156 94.6875 196.570312 91.371094 187.277344 89.265625 C 186.847656 89.148438 186.417969 89.070312 185.949219 88.953125 C 188.136719 82.167969 190.285156 75.378906 192.394531 68.59375 C 194.304688 62.507812 196.179688 56.386719 198.054688 50.261719 C 199.148438 48.117188 200.28125 45.972656 201.375 43.863281 C 202.117188 42.460938 202.820312 41.054688 203.5625 39.691406 C 204.222656 38.441406 203.367188 37.078125 202.078125 37 C 202.351562 36.101562 202.625 35.246094 202.859375 34.347656 C 203.445312 32.4375 200.4375 31.070312 199.578125 32.945312 C 198.757812 34.699219 197.9375 36.453125 197.117188 38.210938 C 197.078125 38.132812 197 38.054688 196.960938 38.015625 C 196.453125 37.507812 195.398438 37.234375 194.773438 37.742188 C 190.675781 40.902344 187.980469 45.191406 185.949219 49.910156 C 183.683594 55.214844 181.925781 60.753906 180.015625 66.175781 C 178.414062 70.660156 176.851562 75.144531 175.25 79.628906 C 174.3125 81.894531 173.414062 84.195312 172.515625 86.496094 C 167.050781 85.675781 161.503906 85.011719 156.039062 84.351562 C 144.871094 83.023438 133.664062 82.050781 122.417969 81.386719 C 116.402344 81.035156 110.390625 80.800781 104.339844 80.644531 C 104.769531 79.707031 105.195312 78.734375 105.585938 77.796875 C 110.351562 67.1875 115.390625 56.734375 120.660156 46.359375 C 121.128906 45.464844 120.855469 44.644531 120.269531 44.136719 C 121.597656 41.445312 122.925781 38.792969 124.253906 36.101562 C 126.011719 32.554688 127.765625 29.003906 129.484375 25.453125 C 130.5 23.386719 127.570312 21.632812 126.363281 23.621094 C 120.230469 33.957031 114.140625 44.332031 108.203125 54.824219 C 107.96875 55.214844 107.773438 55.566406 107.578125 55.957031 C 106.484375 57.4375 105.390625 58.921875 104.300781 60.402344 C 104.378906 60.246094 104.457031 60.089844 104.574219 59.933594 C 105.039062 59.074219 104.769531 57.984375 103.910156 57.476562 C 103.753906 57.359375 103.558594 57.320312 103.402344 57.28125 C 106.679688 51.859375 110.078125 46.554688 113.632812 41.289062 C 114.335938 40.277344 115.039062 39.222656 115.703125 38.210938 C 116.246094 37.390625 115.859375 36.21875 115.039062 35.753906 C 114.140625 35.246094 113.125 35.597656 112.578125 36.414062 C 106.914062 44.683594 101.566406 53.109375 96.527344 61.726562 C 92.9375 67.890625 89.5 74.09375 86.21875 80.410156 C 75.714844 80.488281 65.210938 80.917969 54.746094 81.582031 C 53.378906 81.660156 51.972656 81.777344 50.605469 81.894531 C 48.265625 82.050781 48.304688 85.285156 50.605469 85.480469 C 61.113281 86.417969 71.617188 87.46875 82.121094 88.5625 C 81.847656 89.109375 81.574219 89.65625 81.339844 90.199219 C 81.300781 90.199219 81.300781 90.199219 81.261719 90.199219 C 80.636719 90.199219 80.050781 90.199219 79.425781 90.199219 C 67.398438 90.238281 55.410156 90.628906 43.421875 91.332031 C 42.445312 91.371094 41.625 92.113281 41.625 93.125 C 41.625 94.0625 42.445312 95 43.421875 94.921875 C 50.140625 94.53125 56.894531 94.257812 63.609375 94.0625 C 63.921875 94.6875 64.507812 95.113281 65.210938 95.113281 C 69.820312 95 74.464844 94.960938 79.074219 94.921875 C 75.871094 101.746094 72.824219 108.6875 69.976562 115.671875 C 66.578125 124.015625 63.453125 132.441406 60.566406 140.984375 C 52.519531 140.75 44.515625 140.710938 36.472656 140.867188 C 35.300781 140.90625 34.714844 141.800781 34.714844 142.660156 C 32.410156 142.621094 30.144531 142.582031 27.84375 142.582031 C 25.5 142.542969 25.539062 146.054688 27.84375 146.171875 C 37.761719 146.792969 47.679688 147.496094 57.558594 148.277344 C 55.722656 152.605469 53.925781 156.976562 52.167969 161.34375 C 48.617188 170.15625 45.21875 179.050781 41.9375 188.019531 C 41.546875 189.113281 41.117188 190.207031 40.726562 191.335938 C 40.375 192.234375 41.117188 193.324219 41.976562 193.558594 C 42.992188 193.832031 43.851562 193.207031 44.203125 192.3125 C 46.351562 186.382812 48.539062 180.53125 50.800781 174.644531 C 50.683594 175.1875 50.527344 175.695312 50.410156 176.242188 C 50.253906 176.945312 50.488281 177.648438 50.996094 178.074219 C 50.175781 181.703125 49.398438 185.371094 48.695312 189.035156 C 48.5 189.972656 48.96875 190.984375 49.945312 191.257812 C 50.839844 191.492188 51.972656 190.945312 52.167969 190.011719 C 54.863281 176.046875 58.496094 162.277344 62.984375 148.824219 C 63.921875 148.902344 64.859375 148.980469 65.835938 149.058594 C 65.445312 150.421875 65.054688 151.828125 64.664062 153.191406 C 63.023438 159.082031 61.617188 165.046875 60.449219 171.054688 C 58.417969 178.816406 56.582031 186.65625 55.019531 194.496094 C 54.746094 195.820312 54.511719 197.109375 54.238281 198.433594 C 53.808594 200.699219 57.089844 201.671875 57.714844 199.410156 C 58.183594 197.734375 58.652344 196.054688 59.121094 194.378906 C 59.863281 194.300781 60.410156 193.832031 60.683594 193.09375 C 65.835938 178.699219 71.03125 164.347656 76.339844 149.992188 C 81.457031 150.460938 86.53125 150.96875 91.609375 151.476562 C 109.179688 153.308594 126.753906 155.414062 144.246094 157.832031 C 142.175781 163.449219 140.183594 169.105469 138.308594 174.800781 C 134.40625 186.695312 130.96875 198.746094 128.15625 210.957031 C 127.804688 212.476562 127.453125 214.035156 127.140625 215.558594 C 126.636719 217.820312 129.835938 218.679688 130.617188 216.53125 C 134.835938 204.558594 139.050781 192.625 143.269531 180.648438 C 145.222656 175.148438 147.136719 169.652344 149.085938 164.152344 C 148.542969 166.726562 147.996094 169.300781 147.488281 171.875 C 147.449219 172.109375 147.449219 172.382812 147.488281 172.613281 C 145.066406 181.3125 142.761719 190.089844 140.652344 198.863281 C 140.300781 200.308594 139.949219 201.75 139.597656 203.195312 C 139.050781 205.457031 142.449219 206.390625 143.074219 204.167969 C 146.355469 192.546875 149.75 180.921875 153.226562 169.378906 C 154.203125 166.101562 155.21875 162.824219 156.195312 159.550781 C 156.898438 159.664062 157.5625 159.742188 158.265625 159.859375 C 154.90625 169.457031 151.46875 179.050781 147.996094 188.644531 C 147.644531 189.542969 148.386719 190.632812 149.242188 190.867188 C 150.257812 191.140625 151.117188 190.519531 151.46875 189.621094 C 154.984375 179.910156 158.460938 170.195312 161.855469 160.445312 C 171.34375 161.890625 180.796875 163.371094 190.285156 164.96875 C 191.261719 165.125 192.238281 164.699219 192.511719 163.722656 C 192.550781 163.605469 192.550781 163.488281 192.550781 163.332031 C 193.835938 163.605469 195.164062 163.839844 196.453125 164.113281 C 197 164.230469 197.546875 164.113281 197.9375 163.839844 C 198.367188 163.917969 198.757812 163.996094 199.1875 164.074219 C 201.179688 164.464844 202.117188 162.085938 200.828125 160.992188 C 203.523438 161.226562 206.253906 161.5 208.949219 161.734375 C 210.980469 161.929688 211.371094 158.691406 209.417969 158.183594 C 195.007812 154.441406 180.367188 151.632812 165.605469 149.445312 C 167.949219 142.660156 170.292969 135.914062 172.554688 129.085938 C 175.679688 119.84375 178.726562 110.597656 181.734375 101.355469 C 189.738281 102.566406 197.78125 103.8125 205.746094 105.101562 C 206.722656 105.257812 207.699219 104.867188 207.972656 103.851562 C 208.050781 103.65625 208.050781 103.421875 208.011719 103.1875 C 209.261719 103.34375 210.550781 103.539062 211.800781 103.695312 C 214.066406 104.085938 215.039062 101.785156 213.402344 100.535156 Z M 204.691406 99.25 C 197.625 98.3125 190.558594 97.496094 183.449219 96.714844 C 183.917969 95.269531 184.386719 93.867188 184.816406 92.425781 C 191.730469 93.90625 198.484375 95.933594 204.691406 99.25 Z M 180.367188 94.609375 C 180.171875 95.191406 179.976562 95.738281 179.820312 96.324219 C 178.804688 96.207031 177.828125 96.128906 176.8125 96.011719 C 177.320312 94.53125 177.789062 93.085938 178.296875 91.605469 C 178.375 91.449219 178.414062 91.292969 178.492188 91.136719 C 179.429688 91.292969 180.367188 91.488281 181.304688 91.683594 C 180.992188 92.65625 180.679688 93.632812 180.367188 94.609375 Z M 163.925781 98.820312 C 165.214844 99.015625 166.464844 99.171875 167.753906 99.367188 C 166.152344 103.851562 164.589844 108.335938 163.105469 112.863281 C 159.046875 121.792969 155.101562 130.765625 151.390625 139.851562 C 150.375 142.308594 149.398438 144.804688 148.425781 147.261719 C 131.164062 145.273438 113.789062 144.066406 96.410156 143.207031 C 93.210938 143.011719 90.046875 142.816406 86.84375 142.660156 C 84.382812 142.464844 81.886719 142.269531 79.425781 142.074219 C 80.324219 139.65625 81.261719 137.238281 82.160156 134.820312 C 87.234375 121.480469 92.507812 108.257812 98.089844 95.113281 C 106.289062 95.230469 114.492188 95.425781 122.730469 95.777344 C 131.867188 96.167969 141.003906 96.675781 150.140625 97.300781 C 154.75 97.765625 159.320312 98.273438 163.925781 98.820312 Z M 87.15625 95.078125 C 83.289062 103.148438 79.660156 111.300781 76.300781 119.609375 C 73.371094 126.824219 70.71875 134.117188 68.335938 141.492188 C 67.476562 141.453125 66.617188 141.414062 65.757812 141.375 C 66.617188 138.992188 67.515625 136.574219 68.453125 134.234375 C 73.683594 120.820312 79.816406 107.714844 86.804688 95.113281 C 86.882812 95.039062 87.039062 95.039062 87.15625 95.078125 Z M 182.394531 88.210938 C 181.539062 88.054688 180.679688 87.859375 179.820312 87.703125 C 180.835938 85.089844 181.886719 82.476562 182.941406 79.863281 C 183.371094 79.007812 183.800781 78.148438 184.230469 77.289062 C 185.675781 74.40625 187.160156 71.519531 188.605469 68.632812 C 186.574219 75.222656 184.503906 81.738281 182.394531 88.210938 Z M 117.808594 84.777344 C 128.9375 85.324219 140.027344 86.183594 151.117188 87.390625 C 157.835938 88.132812 164.550781 88.914062 171.226562 89.929688 C 170.605469 91.527344 170.019531 93.164062 169.433594 94.765625 C 156.898438 92.734375 144.285156 91.292969 131.632812 90.472656 C 129.757812 90.355469 127.921875 90.238281 126.050781 90.160156 C 117.886719 89.148438 109.6875 88.171875 101.527344 87.238281 C 101.957031 86.261719 102.386719 85.246094 102.816406 84.273438 C 107.8125 84.390625 112.8125 84.546875 117.808594 84.777344 Z M 84.226562 84.195312 C 84.304688 84.195312 84.382812 84.195312 84.460938 84.195312 C 84.265625 84.585938 84.070312 84.933594 83.875 85.324219 C 80.910156 85.011719 77.941406 84.703125 74.972656 84.390625 C 78.058594 84.3125 81.144531 84.234375 84.226562 84.195312 Z M 162.167969 149.019531 C 161.347656 148.902344 160.527344 148.785156 159.710938 148.667969 C 161.113281 144.105469 162.558594 139.539062 164.003906 135.015625 C 167.675781 123.507812 171.421875 112.003906 175.289062 100.574219 C 175.289062 100.535156 175.289062 100.535156 175.328125 100.496094 C 176.34375 100.652344 177.320312 100.808594 178.335938 100.925781 C 173.0625 116.996094 167.675781 133.066406 162.167969 149.019531 Z M 162.167969 149.019531 " fill-opacity="1" fill-rule="nonzero"/></svg>