<svg xmlns="http://www.w3.org/2000/svg" xmlns:xlink="http://www.w3.org/1999/xlink" width="126" zoomAndPan="magnify" viewBox="0 0 94.5 94.499998" height="126" preserveAspectRatio="xMidYMid meet" version="1.0"><defs><clipPath id="9bc6fdc0fc"><path d="M 5 0 L 93.257812 0 L 93.257812 93.257812 L 5 93.257812 Z M 5 0 " clip-rule="nonzero"/></clipPath><clipPath id="f72897bcf7"><path d="M 6 1 L 91 1 L 91 93.257812 L 6 93.257812 Z M 6 1 " clip-rule="nonzero"/></clipPath><clipPath id="7e762d7617"><path d="M 5 0 L 93.257812 0 L 93.257812 93.257812 L 5 93.257812 Z M 5 0 " clip-rule="nonzero"/></clipPath><clipPath id="78be105e79"><path d="M 6 1 L 91 1 L 91 93.257812 L 6 93.257812 Z M 6 1 " clip-rule="nonzero"/></clipPath></defs><g clip-path="url(#9bc6fdc0fc)"><path fill="#000000" d="M 28.964844 93.265625 C 28.964844 93.265625 29.359375 92.8125 29.851562 92.007812 C 29.714844 92.457031 29.429688 92.875 28.964844 93.265625 Z M 93.546875 55.359375 C 90.464844 58.804688 85.203125 56.085938 85.203125 51.371094 C 85.203125 48.804688 86.761719 43.015625 87.1875 36.957031 C 87.402344 33.945312 87.335938 30.871094 86.660156 28.089844 C 86.777344 28.0625 86.859375 27.949219 86.851562 27.824219 C 86.683594 25.605469 84.363281 20.101562 78.554688 18.199219 C 76.082031 17.386719 74.144531 17.117188 72.742188 17.070312 C 73.871094 15.695312 75.742188 14.074219 77.953125 14.734375 C 79.078125 15.074219 80.449219 15.375 81.820312 15.53125 C 81.8125 15.546875 81.808594 15.5625 81.804688 15.582031 C 81.78125 15.71875 81.871094 15.855469 82.007812 15.878906 C 82.496094 15.972656 82.972656 16.007812 83.417969 16.007812 C 84.914062 16.007812 86.058594 15.609375 86.117188 15.585938 C 86.25 15.539062 86.320312 15.398438 86.277344 15.265625 C 87.21875 14.9375 87.921875 14.378906 88.195312 13.492188 C 88.394531 13.378906 88.472656 13.289062 88.492188 13.257812 C 88.574219 13.148438 88.554688 13 88.445312 12.914062 C 88.34375 12.828125 88.183594 12.84375 88.089844 12.945312 C 88.085938 12.953125 87.390625 13.671875 83.761719 13.566406 C 81.015625 13.488281 80.203125 12.8125 79.34375 12.101562 C 79.011719 11.824219 78.667969 11.542969 78.214844 11.296875 C 75.964844 10.082031 73.808594 9.742188 71.617188 10.246094 C 70.335938 10.542969 69.664062 11.65625 69.308594 12.792969 C 68.953125 10.871094 67.742188 5.644531 64.773438 3.726562 C 64.667969 3.660156 64.53125 3.683594 64.449219 3.769531 C 63.699219 3.070312 62.832031 2.457031 61.832031 1.976562 C 61.835938 1.96875 61.839844 1.960938 61.84375 1.953125 C 61.890625 1.820312 61.820312 1.675781 61.6875 1.628906 C 61.503906 1.558594 57.109375 0.0078125 53.585938 0.886719 C 53.449219 0.921875 53.363281 1.0625 53.398438 1.199219 C 53.429688 1.335938 53.570312 1.417969 53.707031 1.386719 C 53.835938 1.351562 53.96875 1.324219 54.101562 1.300781 C 55.046875 1.660156 57.3125 2.648438 59.445312 4.503906 C 59.445312 4.503906 59.445312 4.503906 59.441406 4.503906 C 59.351562 4.613281 59.359375 4.773438 59.46875 4.867188 C 59.5 4.894531 62.589844 7.621094 63.15625 10.332031 C 63.183594 10.453125 63.289062 10.535156 63.40625 10.535156 C 63.425781 10.535156 63.441406 10.53125 63.460938 10.527344 C 63.46875 10.527344 63.476562 10.523438 63.484375 10.519531 C 63.78125 11.476562 63.976562 12.519531 64.039062 13.652344 C 63.210938 12.632812 62.074219 11.507812 60.53125 10.445312 C 55.367188 6.902344 50.410156 6.875 47.160156 7.476562 C 43.023438 8.242188 37.75 11.136719 37.695312 11.167969 C 37.574219 11.234375 37.527344 11.390625 37.597656 11.515625 C 37.597656 11.519531 37.601562 11.519531 37.601562 11.523438 C 35.789062 12.644531 34.253906 13.863281 32.871094 15.0625 C 29.019531 18.382812 26.316406 21.539062 21.945312 21.933594 C 21.757812 21.949219 21.578125 21.964844 21.398438 21.976562 C 21.398438 21.96875 21.398438 21.960938 21.398438 21.953125 C 21.371094 21.816406 21.238281 21.722656 21.101562 21.75 C 21.0625 21.753906 18.632812 22.1875 16.246094 21.953125 C 13.714844 21.609375 12.136719 20.621094 11.566406 18.722656 C 11.132812 16.746094 11.851562 14.480469 11.863281 14.449219 C 11.910156 14.3125 11.835938 14.171875 11.699219 14.125 C 11.566406 14.082031 11.421875 14.152344 11.378906 14.289062 C 11.363281 14.328125 11.289062 14.566406 11.203125 14.929688 C 9.242188 16.507812 0.0703125 24.582031 13.292969 27.449219 C 11.21875 28.734375 8.511719 30.773438 7.191406 33.296875 C 5.019531 37.449219 5.730469 39.621094 7.023438 43.570312 L 7.191406 44.082031 C 7.226562 44.191406 7.324219 44.261719 7.433594 44.261719 C 7.460938 44.261719 7.484375 44.257812 7.511719 44.246094 C 7.519531 44.246094 7.523438 44.242188 7.527344 44.238281 C 7.648438 44.539062 7.777344 44.839844 7.921875 45.148438 C 9.351562 48.25 10.476562 51.074219 11.292969 53.585938 C 13.789062 61.25 13.433594 66.003906 10.335938 66.910156 C 6.230469 68.121094 5.746094 75.132812 9.617188 77.070312 C 9.613281 77.054688 9.605469 77.042969 9.605469 77.03125 C 9.464844 76.492188 8.039062 70.359375 14.640625 67.746094 C 13.8125 69.128906 12.988281 71.179688 13.128906 73.785156 C 13.136719 73.921875 13.246094 74.027344 13.382812 74.027344 C 13.386719 74.027344 13.394531 74.027344 13.398438 74.027344 C 13.421875 74.023438 13.445312 74.019531 13.464844 74.011719 C 13.753906 75.984375 14.847656 78.121094 17.59375 79.96875 C 20.53125 81.945312 31.101562 88 29.847656 92.011719 C 30.589844 90.800781 31.546875 88.796875 31.699219 86.355469 C 31.757812 85.417969 31.699219 84.414062 31.460938 83.367188 C 31.585938 83.335938 31.671875 83.21875 31.65625 83.089844 C 31.363281 80.617188 28.714844 77.644531 26.15625 74.769531 C 25.871094 74.453125 25.585938 74.136719 25.3125 73.820312 C 25.214844 73.714844 25.125 73.601562 25.039062 73.492188 C 25.355469 73.171875 26.011719 72.449219 26.75 71.363281 C 26.792969 71.394531 26.839844 71.410156 26.890625 71.410156 C 26.960938 71.410156 27.03125 71.382812 27.082031 71.324219 C 29.648438 68.441406 30.136719 63.339844 30.167969 60.203125 C 30.289062 60.554688 30.4375 60.949219 30.617188 61.375 C 31.164062 62.921875 31.855469 64.359375 32.734375 65.484375 C 35.058594 68.464844 38.621094 69.988281 38.769531 70.050781 C 38.800781 70.0625 38.835938 70.070312 38.867188 70.070312 C 38.96875 70.070312 39.0625 70.015625 39.105469 69.914062 C 39.160156 69.785156 39.097656 69.636719 38.96875 69.582031 C 38.960938 69.578125 38.820312 69.515625 38.582031 69.402344 C 37.382812 67.613281 32.847656 60.289062 33.4375 52.6875 C 33.445312 52.6875 33.449219 52.6875 33.457031 52.6875 C 33.589844 52.6875 33.703125 52.585938 33.710938 52.449219 C 34.167969 45.414062 38.667969 40.195312 40.210938 38.597656 C 40.058594 41.566406 40.652344 45.316406 43.703125 48.308594 C 46.828125 51.375 52.328125 54.566406 57.175781 57.378906 C 61.515625 59.898438 65.609375 62.273438 67.066406 64.03125 C 69.722656 67.230469 70.074219 68.722656 68.855469 71.652344 C 68.800781 71.78125 68.863281 71.929688 68.992188 71.984375 C 69.027344 71.996094 69.058594 72.003906 69.09375 72.003906 C 69.195312 72.003906 69.289062 71.945312 69.328125 71.847656 C 69.382812 71.710938 69.4375 71.578125 69.488281 71.445312 C 70.308594 70.789062 72.1875 69.121094 73.078125 67.003906 C 73.28125 68.066406 73.269531 69.382812 72.695312 70.871094 C 71.136719 74.894531 66.570312 80.023438 66.523438 80.074219 C 66.417969 80.195312 63.863281 83.0625 64.347656 85.246094 C 64.371094 85.363281 64.480469 85.445312 64.597656 85.445312 C 64.695312 88.226562 67.308594 89.890625 68.851562 90.632812 C 69.125 90.902344 69.445312 91.136719 69.820312 91.3125 C 69.855469 91.332031 69.890625 91.339844 69.925781 91.339844 C 70.023438 91.339844 70.113281 91.285156 70.160156 91.191406 C 70.21875 91.066406 70.164062 90.914062 70.039062 90.851562 C 68.511719 90.128906 67.972656 88.308594 67.785156 86.90625 C 67.625 85.667969 68.8125 83.839844 69.902344 83.207031 C 71.0625 82.527344 72.0625 81.570312 72.105469 81.53125 C 72.207031 81.433594 72.210938 81.269531 72.113281 81.167969 C 72.109375 81.164062 72.105469 81.164062 72.101562 81.160156 C 74.066406 79 74.847656 76.136719 75.007812 75.464844 C 75.089844 75.5625 75.167969 75.664062 75.238281 75.777344 C 75.628906 76.40625 75.710938 77.191406 75.484375 78.121094 C 75.226562 79.1875 74.921875 80.222656 74.621094 81.222656 C 74.011719 83.265625 73.4375 85.195312 73.316406 87.253906 C 73.148438 90.066406 73.910156 91.59375 75.785156 92.195312 C 75.8125 92.203125 75.839844 92.210938 75.863281 92.210938 C 75.972656 92.210938 76.074219 92.140625 76.105469 92.03125 C 76.117188 92.003906 76.121094 91.972656 76.117188 91.941406 C 77.46875 92.039062 78.847656 91.464844 78.847656 91.464844 C 74.132812 89.109375 78.304688 82.574219 83.382812 77.316406 C 87.597656 72.953125 84.816406 68.339844 83.75 66.894531 C 83.53125 66.597656 83.382812 66.433594 83.382812 66.433594 C 88.820312 66.433594 88.460938 74.230469 88.460938 74.230469 C 90.226562 71.925781 90.742188 69.792969 90.558594 67.910156 C 90.070312 62.824219 84.472656 59.539062 84.472656 59.539062 C 90.828125 60.984375 93.546875 55.359375 93.546875 55.359375 Z M 93.546875 55.359375 " fill-opacity="1" fill-rule="nonzero"/></g><g clip-path="url(#f72897bcf7)"><path fill="#000000" d="M 11.570312 18.71875 C 12.140625 20.621094 13.71875 21.605469 16.25 21.949219 C 15.003906 21.828125 13.761719 21.523438 12.886719 20.882812 C 12.144531 20.339844 11.753906 19.554688 11.570312 18.71875 Z M 30.171875 60.199219 C 30.292969 60.550781 30.441406 60.945312 30.621094 61.371094 C 30.457031 60.914062 30.3125 60.449219 30.171875 59.976562 C 30.175781 60.046875 30.175781 60.125 30.171875 60.199219 Z M 33.210938 52.414062 C 33.730469 44.375 39.394531 38.664062 40.28125 37.8125 C 40.34375 37.152344 40.441406 36.539062 40.550781 36 C 31.757812 33.203125 24.25 28.078125 19.207031 22.484375 C 18.761719 22.515625 18.273438 22.539062 17.757812 22.539062 C 15.992188 22.539062 13.933594 22.285156 12.582031 21.296875 C 10.363281 19.671875 10.871094 16.335938 11.207031 14.929688 C 9.246094 16.507812 0.0742188 24.582031 13.296875 27.449219 C 14.78125 26.535156 15.941406 26 16.054688 25.949219 C 16.183594 25.890625 16.335938 25.949219 16.394531 26.078125 C 16.449219 26.207031 16.394531 26.355469 16.265625 26.414062 C 16.203125 26.445312 9.828125 29.367188 7.648438 33.53125 C 5.578125 37.488281 6.222656 39.46875 7.515625 43.410156 L 7.683594 43.921875 C 7.722656 44.050781 7.65625 44.1875 7.535156 44.238281 C 7.65625 44.535156 7.785156 44.839844 7.925781 45.148438 C 9.359375 48.25 10.480469 51.074219 11.296875 53.585938 C 11.296875 53.585938 15.714844 56.421875 14.914062 61.226562 C 14.113281 66.019531 7.328125 70.347656 9.609375 77.03125 C 9.46875 76.492188 8.042969 70.355469 14.644531 67.746094 C 15.394531 66.5 16.152344 65.804688 16.21875 65.746094 C 16.324219 65.648438 16.484375 65.660156 16.578125 65.765625 C 16.675781 65.867188 16.664062 66.03125 16.5625 66.125 C 16.535156 66.148438 14.601562 67.933594 13.886719 70.976562 C 14.53125 72.785156 16.40625 76.308594 21.550781 78.050781 C 25.859375 79.511719 29.53125 82.945312 31.707031 86.355469 C 31.765625 85.417969 31.707031 84.414062 31.46875 83.367188 C 31.460938 83.367188 31.449219 83.371094 31.4375 83.371094 C 31.429688 83.375 31.417969 83.375 31.410156 83.375 C 31.28125 83.375 31.167969 83.277344 31.15625 83.148438 C 30.878906 80.835938 28.289062 77.925781 25.777344 75.109375 C 25.492188 74.792969 25.210938 74.472656 24.933594 74.160156 C 22.179688 71.039062 22.769531 66.671875 22.792969 66.488281 C 22.816406 66.347656 22.945312 66.253906 23.085938 66.269531 C 23.222656 66.292969 23.320312 66.421875 23.300781 66.5625 C 23.296875 66.601562 22.765625 70.574219 25.046875 73.496094 C 25.359375 73.171875 26.019531 72.453125 26.753906 71.367188 C 26.746094 71.359375 26.734375 71.359375 26.726562 71.347656 C 26.621094 71.253906 26.609375 71.09375 26.703125 70.988281 C 30.191406 67.074219 29.65625 58.535156 29.585938 57.621094 C 28.738281 53.648438 28.609375 49.96875 28.601562 49.710938 C 28.597656 49.566406 28.710938 49.449219 28.851562 49.445312 C 28.992188 49.433594 29.109375 49.554688 29.113281 49.695312 C 29.117188 49.804688 29.488281 60.492188 33.144531 65.175781 C 34.953125 67.488281 37.609375 68.921875 38.59375 69.402344 C 37.394531 67.617188 32.859375 60.292969 33.445312 52.691406 C 33.308594 52.671875 33.199219 52.550781 33.210938 52.414062 Z M 90.570312 67.902344 C 90.753906 69.785156 90.238281 71.917969 88.472656 74.222656 C 88.472656 74.222656 88.832031 66.421875 83.394531 66.421875 C 83.394531 66.421875 83.542969 66.585938 83.761719 66.882812 C 82.222656 65.503906 80.710938 64.886719 80.710938 64.886719 C 84.03125 71.984375 76.9375 81.25 75.5625 86.511719 C 74.191406 91.777344 78.859375 91.453125 78.859375 91.453125 C 78.859375 91.453125 77.480469 92.023438 76.128906 91.933594 C 76.125 91.828125 76.058594 91.734375 75.953125 91.699219 C 74.796875 91.324219 73.640625 90.507812 73.832031 87.269531 C 73.953125 85.273438 74.519531 83.371094 75.121094 81.359375 C 75.421875 80.351562 75.730469 79.3125 75.992188 78.230469 C 76.25 77.164062 76.144531 76.246094 75.679688 75.5 C 74.972656 74.355469 73.6875 74.054688 73.632812 74.042969 C 73.496094 74.007812 73.359375 74.09375 73.328125 74.234375 C 73.296875 74.371094 73.382812 74.507812 73.519531 74.539062 C 73.53125 74.542969 74.402344 74.75 75.015625 75.457031 C 74.855469 76.128906 74.074219 78.992188 72.109375 81.152344 C 72.011719 81.0625 71.855469 81.058594 71.761719 81.15625 C 71.75 81.164062 70.761719 82.109375 69.652344 82.757812 C 68.425781 83.472656 67.097656 85.507812 67.289062 86.964844 C 67.445312 88.164062 67.855469 89.644531 68.859375 90.628906 C 67.316406 89.882812 64.703125 88.21875 64.609375 85.4375 C 64.625 85.4375 64.644531 85.4375 64.660156 85.433594 C 64.800781 85.402344 64.886719 85.265625 64.855469 85.128906 C 64.429688 83.207031 66.890625 80.441406 66.917969 80.410156 C 67.105469 80.199219 71.59375 75.164062 73.183594 71.050781 C 74.808594 66.839844 72.222656 63.871094 72.195312 63.839844 C 72.105469 63.738281 71.941406 63.726562 71.835938 63.820312 C 71.730469 63.914062 71.722656 64.078125 71.816406 64.179688 C 71.832031 64.199219 72.753906 65.257812 73.089844 67 C 72.195312 69.117188 70.320312 70.785156 69.5 71.445312 C 70.601562 68.578125 70.132812 66.902344 67.472656 63.703125 C 66.40625 62.417969 64.136719 60.902344 61.292969 59.195312 C 59.554688 58.089844 57.660156 57.007812 55.734375 55.9375 C 51.375 53.394531 46.792969 50.605469 44.074219 47.941406 C 40.953125 44.882812 40.515625 40.980469 40.769531 38.042969 C 40.832031 37.964844 40.839844 37.867188 40.796875 37.78125 C 40.855469 37.191406 40.941406 36.644531 41.039062 36.152344 C 45.898438 37.644531 51.140625 38.417969 56.566406 38.167969 C 60.390625 37.992188 63.324219 36.984375 65.519531 35.769531 C 65.578125 35.875 65.699219 35.925781 65.816406 35.890625 C 65.839844 35.882812 68.148438 35.203125 69.824219 36.257812 C 70.71875 36.820312 71.28125 37.792969 71.492188 39.140625 C 71.578125 39.695312 71.660156 40.265625 71.738281 40.832031 C 72.238281 44.316406 72.753906 47.917969 74.488281 48.78125 C 74.886719 48.980469 75.335938 49.027344 75.824219 48.925781 C 74.980469 49.710938 73.386719 50.667969 71.351562 49.476562 C 69.992188 48.679688 69.640625 47.632812 69.304688 46.621094 C 68.867188 45.308594 68.414062 43.953125 65.789062 43.488281 C 65.648438 43.460938 65.515625 43.554688 65.492188 43.695312 C 65.464844 43.832031 65.558594 43.96875 65.699219 43.992188 C 68.023438 44.402344 68.394531 45.503906 68.820312 46.78125 C 69.167969 47.828125 69.566406 49.019531 71.085938 49.910156 C 71.144531 49.949219 77.113281 53.839844 76.449219 58.410156 C 76.429688 58.550781 76.527344 58.679688 76.667969 58.699219 C 76.679688 58.699219 76.691406 58.699219 76.703125 58.699219 C 76.828125 58.699219 76.9375 58.609375 76.957031 58.484375 C 77.460938 55.007812 74.558594 52.011719 72.742188 50.507812 C 72.910156 50.53125 73.078125 50.542969 73.242188 50.542969 C 75.472656 50.542969 76.898438 48.472656 76.914062 48.449219 C 76.980469 48.351562 76.972656 48.21875 76.890625 48.132812 C 76.8125 48.046875 76.683594 48.023438 76.578125 48.082031 C 75.832031 48.496094 75.222656 48.570312 74.714844 48.320312 C 73.222656 47.574219 72.726562 44.109375 72.246094 40.757812 C 72.164062 40.183594 72.082031 39.613281 71.996094 39.058594 C 71.761719 37.558594 71.121094 36.46875 70.09375 35.820312 C 68.828125 35.027344 67.300781 35.097656 66.410156 35.238281 C 67.132812 34.78125 67.761719 34.304688 68.300781 33.84375 C 70.175781 32.230469 70.96875 30.78125 70.96875 30.78125 C 70.015625 31.003906 69.074219 31.175781 68.148438 31.304688 C 50.945312 33.695312 37.875 20.914062 32.875 15.058594 C 34.257812 13.859375 35.792969 12.640625 37.605469 11.519531 C 37.675781 11.632812 37.824219 11.675781 37.945312 11.609375 C 38 11.582031 43.199219 8.722656 47.257812 7.972656 C 50.414062 7.390625 55.226562 7.417969 60.242188 10.863281 C 64.464844 13.761719 65.570312 17.242188 65.582031 17.277344 C 65.617188 17.386719 65.714844 17.457031 65.828125 17.457031 C 65.851562 17.457031 65.878906 17.453125 65.902344 17.445312 C 66.035156 17.40625 66.113281 17.261719 66.070312 17.125 C 66.042969 17.03125 65.5625 15.515625 64.042969 13.644531 C 63.984375 12.511719 63.785156 11.472656 63.488281 10.515625 C 63.609375 10.476562 63.6875 10.351562 63.660156 10.222656 C 63.058594 7.34375 59.941406 4.589844 59.808594 4.476562 C 59.699219 4.382812 59.539062 4.394531 59.445312 4.5 C 57.3125 2.640625 55.046875 1.652344 54.101562 1.292969 C 57.414062 0.65625 61.472656 2.089844 61.515625 2.101562 C 61.542969 2.113281 61.574219 2.117188 61.601562 2.117188 C 61.699219 2.117188 61.789062 2.0625 61.832031 1.96875 C 62.835938 2.449219 63.699219 3.066406 64.449219 3.765625 C 64.441406 3.777344 64.425781 3.785156 64.417969 3.796875 C 64.34375 3.914062 64.375 4.074219 64.496094 4.148438 C 67.890625 6.34375 68.910156 13.5 68.921875 13.570312 C 68.933594 13.660156 68.992188 13.730469 69.074219 13.765625 C 68.898438 14.742188 68.917969 15.550781 68.917969 15.628906 C 68.921875 15.769531 69.035156 15.878906 69.175781 15.878906 C 69.175781 15.878906 69.179688 15.878906 69.183594 15.878906 C 69.324219 15.875 69.433594 15.757812 69.429688 15.613281 C 69.429688 15.570312 69.335938 11.289062 71.734375 10.734375 C 73.796875 10.257812 75.839844 10.585938 77.972656 11.738281 C 78.382812 11.960938 78.691406 12.214844 79.019531 12.488281 C 79.910156 13.222656 80.828125 13.984375 83.75 14.070312 C 86.535156 14.148438 87.714844 13.753906 88.195312 13.484375 C 87.921875 14.371094 87.21875 14.933594 86.277344 15.257812 C 86.277344 15.257812 86.277344 15.253906 86.273438 15.25 C 86.226562 15.117188 86.078125 15.050781 85.949219 15.097656 C 85.929688 15.101562 84.101562 15.742188 82.101562 15.371094 C 81.980469 15.351562 81.863281 15.414062 81.820312 15.527344 C 80.445312 15.371094 79.078125 15.066406 77.949219 14.730469 C 75.738281 14.066406 73.871094 15.691406 72.742188 17.0625 C 70.949219 17.003906 70.023438 17.316406 69.957031 17.335938 C 69.828125 17.382812 69.753906 17.53125 69.800781 17.664062 C 69.847656 17.796875 69.996094 17.867188 70.128906 17.820312 C 70.15625 17.8125 72.914062 16.882812 78.394531 18.679688 C 84.070312 20.535156 86.203125 26.054688 86.339844 27.855469 C 86.347656 27.988281 86.460938 28.09375 86.59375 28.09375 C 86.597656 28.09375 86.605469 28.09375 86.613281 28.09375 C 86.625 28.089844 86.640625 28.089844 86.65625 28.085938 C 87.332031 30.867188 87.398438 33.941406 87.183594 36.949219 C 86.054688 38.917969 84.390625 41.714844 82.195312 45.085938 C 77.730469 51.949219 78.878906 59.160156 83.339844 62.476562 C 86.453125 64.792969 89.167969 65.996094 90.570312 67.902344 Z M 76.4375 64.875 C 76.21875 60.488281 71.832031 58.828125 65.195312 56.320312 C 63.65625 55.738281 61.910156 55.078125 60.089844 54.335938 C 50.9375 50.597656 52.425781 44.328125 52.496094 44.0625 C 52.53125 43.925781 52.449219 43.789062 52.3125 43.753906 C 52.175781 43.714844 52.035156 43.800781 52 43.933594 C 51.980469 44.003906 50.3125 50.894531 59.898438 54.808594 C 61.722656 55.554688 63.472656 56.214844 65.015625 56.800781 C 71.691406 59.324219 75.722656 60.84375 75.925781 64.898438 C 75.933594 65.035156 76.046875 65.140625 76.183594 65.140625 C 76.1875 65.140625 76.191406 65.140625 76.195312 65.140625 C 76.335938 65.132812 76.445312 65.015625 76.4375 64.875 Z M 29.851562 92.007812 C 29.359375 92.8125 28.964844 93.265625 28.964844 93.265625 C 29.429688 92.875 29.714844 92.457031 29.851562 92.007812 Z M 29.851562 92.007812 " fill-opacity="1" fill-rule="nonzero"/></g><path fill="#000000" d="M 21.402344 21.976562 C 21.582031 21.960938 21.761719 21.949219 21.949219 21.929688 C 26.320312 21.535156 29.019531 18.382812 32.875 15.0625 C 37.875 20.917969 50.945312 33.699219 68.148438 31.308594 C 69.074219 31.179688 70.015625 31.007812 70.96875 30.785156 C 70.96875 30.785156 70.175781 32.230469 68.300781 33.847656 C 67.761719 34.308594 67.132812 34.785156 66.410156 35.242188 C 65.984375 35.308594 65.703125 35.390625 65.667969 35.402344 C 65.535156 35.441406 65.457031 35.585938 65.496094 35.722656 C 65.5 35.738281 65.507812 35.757812 65.519531 35.769531 C 63.324219 36.984375 60.386719 37.992188 56.5625 38.167969 C 51.140625 38.417969 45.898438 37.644531 41.039062 36.152344 C 41.320312 34.730469 41.679688 33.8125 41.691406 33.785156 C 41.742188 33.652344 41.679688 33.503906 41.550781 33.449219 C 41.417969 33.398438 41.269531 33.460938 41.21875 33.59375 C 41.207031 33.621094 40.839844 34.554688 40.546875 36 C 31.757812 33.203125 24.246094 28.078125 19.203125 22.484375 C 20.308594 22.40625 21.105469 22.265625 21.191406 22.25 C 21.324219 22.222656 21.414062 22.105469 21.402344 21.976562 Z M 21.402344 21.976562 " fill-opacity="1" fill-rule="nonzero"/><g clip-path="url(#7e762d7617)"><path fill="#000000" d="M 28.964844 93.265625 C 28.964844 93.265625 29.359375 92.8125 29.851562 92.007812 C 29.714844 92.457031 29.429688 92.875 28.964844 93.265625 Z M 93.546875 55.359375 C 90.464844 58.804688 85.203125 56.085938 85.203125 51.371094 C 85.203125 48.804688 86.761719 43.015625 87.1875 36.957031 C 87.402344 33.945312 87.335938 30.871094 86.660156 28.089844 C 86.777344 28.0625 86.859375 27.949219 86.851562 27.824219 C 86.683594 25.605469 84.363281 20.101562 78.554688 18.199219 C 76.082031 17.386719 74.144531 17.117188 72.742188 17.070312 C 73.871094 15.695312 75.742188 14.074219 77.953125 14.734375 C 79.078125 15.074219 80.449219 15.375 81.820312 15.53125 C 81.8125 15.546875 81.808594 15.5625 81.804688 15.582031 C 81.78125 15.71875 81.871094 15.855469 82.007812 15.878906 C 82.496094 15.972656 82.972656 16.007812 83.417969 16.007812 C 84.914062 16.007812 86.058594 15.609375 86.117188 15.585938 C 86.25 15.539062 86.320312 15.398438 86.277344 15.265625 C 87.21875 14.9375 87.921875 14.378906 88.195312 13.492188 C 88.394531 13.378906 88.472656 13.289062 88.492188 13.257812 C 88.574219 13.148438 88.554688 13 88.445312 12.914062 C 88.34375 12.828125 88.183594 12.84375 88.089844 12.945312 C 88.085938 12.953125 87.390625 13.671875 83.761719 13.566406 C 81.015625 13.488281 80.203125 12.8125 79.34375 12.101562 C 79.011719 11.824219 78.667969 11.542969 78.214844 11.296875 C 75.964844 10.082031 73.808594 9.742188 71.617188 10.246094 C 70.335938 10.542969 69.664062 11.65625 69.308594 12.792969 C 68.953125 10.871094 67.742188 5.644531 64.773438 3.726562 C 64.667969 3.660156 64.53125 3.683594 64.449219 3.769531 C 63.699219 3.070312 62.832031 2.457031 61.832031 1.976562 C 61.835938 1.96875 61.839844 1.960938 61.84375 1.953125 C 61.890625 1.820312 61.820312 1.675781 61.6875 1.628906 C 61.503906 1.558594 57.109375 0.0078125 53.585938 0.886719 C 53.449219 0.921875 53.363281 1.0625 53.398438 1.199219 C 53.429688 1.335938 53.570312 1.417969 53.707031 1.386719 C 53.835938 1.351562 53.96875 1.324219 54.101562 1.300781 C 55.046875 1.660156 57.3125 2.648438 59.445312 4.503906 C 59.445312 4.503906 59.445312 4.503906 59.441406 4.503906 C 59.351562 4.613281 59.359375 4.773438 59.46875 4.867188 C 59.5 4.894531 62.589844 7.621094 63.15625 10.332031 C 63.183594 10.453125 63.289062 10.535156 63.40625 10.535156 C 63.425781 10.535156 63.441406 10.53125 63.460938 10.527344 C 63.46875 10.527344 63.476562 10.523438 63.484375 10.519531 C 63.78125 11.476562 63.976562 12.519531 64.039062 13.652344 C 63.210938 12.632812 62.074219 11.507812 60.53125 10.445312 C 55.367188 6.902344 50.410156 6.875 47.160156 7.476562 C 43.023438 8.242188 37.75 11.136719 37.695312 11.167969 C 37.574219 11.234375 37.527344 11.390625 37.597656 11.515625 C 37.597656 11.519531 37.601562 11.519531 37.601562 11.523438 C 35.789062 12.644531 34.253906 13.863281 32.871094 15.0625 C 29.019531 18.382812 26.316406 21.539062 21.945312 21.933594 C 21.757812 21.949219 21.578125 21.964844 21.398438 21.976562 C 21.398438 21.96875 21.398438 21.960938 21.398438 21.953125 C 21.371094 21.816406 21.238281 21.722656 21.101562 21.75 C 21.0625 21.753906 18.632812 22.1875 16.246094 21.953125 C 13.714844 21.609375 12.136719 20.621094 11.566406 18.722656 C 11.132812 16.746094 11.851562 14.480469 11.863281 14.449219 C 11.910156 14.3125 11.835938 14.171875 11.699219 14.125 C 11.566406 14.082031 11.421875 14.152344 11.378906 14.289062 C 11.363281 14.328125 11.289062 14.566406 11.203125 14.929688 C 9.242188 16.507812 0.0703125 24.582031 13.292969 27.449219 C 11.21875 28.734375 8.511719 30.773438 7.191406 33.296875 C 5.019531 37.449219 5.730469 39.621094 7.023438 43.570312 L 7.191406 44.082031 C 7.226562 44.191406 7.324219 44.261719 7.433594 44.261719 C 7.460938 44.261719 7.484375 44.257812 7.511719 44.246094 C 7.519531 44.246094 7.523438 44.242188 7.527344 44.238281 C 7.648438 44.539062 7.777344 44.839844 7.921875 45.148438 C 9.351562 48.25 10.476562 51.074219 11.292969 53.585938 C 13.789062 61.25 13.433594 66.003906 10.335938 66.910156 C 6.230469 68.121094 5.746094 75.132812 9.617188 77.070312 C 9.613281 77.054688 9.605469 77.042969 9.605469 77.03125 C 9.464844 76.492188 8.039062 70.359375 14.640625 67.746094 C 13.8125 69.128906 12.988281 71.179688 13.128906 73.785156 C 13.136719 73.921875 13.246094 74.027344 13.382812 74.027344 C 13.386719 74.027344 13.394531 74.027344 13.398438 74.027344 C 13.421875 74.023438 13.445312 74.019531 13.464844 74.011719 C 13.753906 75.984375 14.847656 78.121094 17.59375 79.96875 C 20.53125 81.945312 31.101562 88 29.847656 92.011719 C 30.589844 90.800781 31.546875 88.796875 31.699219 86.355469 C 31.757812 85.417969 31.699219 84.414062 31.460938 83.367188 C 31.585938 83.335938 31.671875 83.21875 31.65625 83.089844 C 31.363281 80.617188 28.714844 77.644531 26.15625 74.769531 C 25.871094 74.453125 25.585938 74.136719 25.3125 73.820312 C 25.214844 73.714844 25.125 73.601562 25.039062 73.492188 C 25.355469 73.171875 26.011719 72.449219 26.75 71.363281 C 26.792969 71.394531 26.839844 71.410156 26.890625 71.410156 C 26.960938 71.410156 27.03125 71.382812 27.082031 71.324219 C 29.648438 68.441406 30.136719 63.339844 30.167969 60.203125 C 30.289062 60.554688 30.4375 60.949219 30.617188 61.375 C 31.164062 62.921875 31.855469 64.359375 32.734375 65.484375 C 35.058594 68.464844 38.621094 69.988281 38.769531 70.050781 C 38.800781 70.0625 38.835938 70.070312 38.867188 70.070312 C 38.96875 70.070312 39.0625 70.015625 39.105469 69.914062 C 39.160156 69.785156 39.097656 69.636719 38.96875 69.582031 C 38.960938 69.578125 38.820312 69.515625 38.582031 69.402344 C 37.382812 67.613281 32.847656 60.289062 33.4375 52.6875 C 33.445312 52.6875 33.449219 52.6875 33.457031 52.6875 C 33.589844 52.6875 33.703125 52.585938 33.710938 52.449219 C 34.167969 45.414062 38.667969 40.195312 40.210938 38.597656 C 40.058594 41.566406 40.652344 45.316406 43.703125 48.308594 C 46.828125 51.375 52.328125 54.566406 57.175781 57.378906 C 61.515625 59.898438 65.609375 62.273438 67.066406 64.03125 C 69.722656 67.230469 70.074219 68.722656 68.855469 71.652344 C 68.800781 71.78125 68.863281 71.929688 68.992188 71.984375 C 69.027344 71.996094 69.058594 72.003906 69.09375 72.003906 C 69.195312 72.003906 69.289062 71.945312 69.328125 71.847656 C 69.382812 71.710938 69.4375 71.578125 69.488281 71.445312 C 70.308594 70.789062 72.1875 69.121094 73.078125 67.003906 C 73.28125 68.066406 73.269531 69.382812 72.695312 70.871094 C 71.136719 74.894531 66.570312 80.023438 66.523438 80.074219 C 66.417969 80.195312 63.863281 83.0625 64.347656 85.246094 C 64.371094 85.363281 64.480469 85.445312 64.597656 85.445312 C 64.695312 88.226562 67.308594 89.890625 68.851562 90.632812 C 69.125 90.902344 69.445312 91.136719 69.820312 91.3125 C 69.855469 91.332031 69.890625 91.339844 69.925781 91.339844 C 70.023438 91.339844 70.113281 91.285156 70.160156 91.191406 C 70.21875 91.066406 70.164062 90.914062 70.039062 90.851562 C 68.511719 90.128906 67.972656 88.308594 67.785156 86.90625 C 67.625 85.667969 68.8125 83.839844 69.902344 83.207031 C 71.0625 82.527344 72.0625 81.570312 72.105469 81.53125 C 72.207031 81.433594 72.210938 81.269531 72.113281 81.167969 C 72.109375 81.164062 72.105469 81.164062 72.101562 81.160156 C 74.066406 79 74.847656 76.136719 75.007812 75.464844 C 75.089844 75.5625 75.167969 75.664062 75.238281 75.777344 C 75.628906 76.40625 75.710938 77.191406 75.484375 78.121094 C 75.226562 79.1875 74.921875 80.222656 74.621094 81.222656 C 74.011719 83.265625 73.4375 85.195312 73.316406 87.253906 C 73.148438 90.066406 73.910156 91.59375 75.785156 92.195312 C 75.8125 92.203125 75.839844 92.210938 75.863281 92.210938 C 75.972656 92.210938 76.074219 92.140625 76.105469 92.03125 C 76.117188 92.003906 76.121094 91.972656 76.117188 91.941406 C 77.46875 92.039062 78.847656 91.464844 78.847656 91.464844 C 74.132812 89.109375 78.304688 82.574219 83.382812 77.316406 C 87.597656 72.953125 84.816406 68.339844 83.75 66.894531 C 83.53125 66.597656 83.382812 66.433594 83.382812 66.433594 C 88.820312 66.433594 88.460938 74.230469 88.460938 74.230469 C 90.226562 71.925781 90.742188 69.792969 90.558594 67.910156 C 90.070312 62.824219 84.472656 59.539062 84.472656 59.539062 C 90.828125 60.984375 93.546875 55.359375 93.546875 55.359375 Z M 93.546875 55.359375 " fill-opacity="1" fill-rule="nonzero"/></g><g clip-path="url(#78be105e79)"><path fill="#000000" d="M 11.570312 18.71875 C 12.140625 20.621094 13.71875 21.605469 16.25 21.949219 C 15.003906 21.828125 13.761719 21.523438 12.886719 20.882812 C 12.144531 20.339844 11.753906 19.554688 11.570312 18.71875 Z M 30.171875 60.199219 C 30.292969 60.550781 30.441406 60.945312 30.621094 61.371094 C 30.457031 60.914062 30.3125 60.449219 30.171875 59.976562 C 30.175781 60.046875 30.175781 60.125 30.171875 60.199219 Z M 33.210938 52.414062 C 33.730469 44.375 39.394531 38.664062 40.28125 37.8125 C 40.34375 37.152344 40.441406 36.539062 40.550781 36 C 31.757812 33.203125 24.25 28.078125 19.207031 22.484375 C 18.761719 22.515625 18.273438 22.539062 17.757812 22.539062 C 15.992188 22.539062 13.933594 22.285156 12.582031 21.296875 C 10.363281 19.671875 10.871094 16.335938 11.207031 14.929688 C 9.246094 16.507812 0.0742188 24.582031 13.296875 27.449219 C 14.78125 26.535156 15.941406 26 16.054688 25.949219 C 16.183594 25.890625 16.335938 25.949219 16.394531 26.078125 C 16.449219 26.207031 16.394531 26.355469 16.265625 26.414062 C 16.203125 26.445312 9.828125 29.367188 7.648438 33.53125 C 5.578125 37.488281 6.222656 39.46875 7.515625 43.410156 L 7.683594 43.921875 C 7.722656 44.050781 7.65625 44.1875 7.535156 44.238281 C 7.65625 44.535156 7.785156 44.839844 7.925781 45.148438 C 9.359375 48.25 10.480469 51.074219 11.296875 53.585938 C 11.296875 53.585938 15.714844 56.421875 14.914062 61.226562 C 14.113281 66.019531 7.328125 70.347656 9.609375 77.03125 C 9.46875 76.492188 8.042969 70.355469 14.644531 67.746094 C 15.394531 66.5 16.152344 65.804688 16.21875 65.746094 C 16.324219 65.648438 16.484375 65.660156 16.578125 65.765625 C 16.675781 65.867188 16.664062 66.03125 16.5625 66.125 C 16.535156 66.148438 14.601562 67.933594 13.886719 70.976562 C 14.53125 72.785156 16.40625 76.308594 21.550781 78.050781 C 25.859375 79.511719 29.53125 82.945312 31.707031 86.355469 C 31.765625 85.417969 31.707031 84.414062 31.46875 83.367188 C 31.460938 83.367188 31.449219 83.371094 31.4375 83.371094 C 31.429688 83.375 31.417969 83.375 31.410156 83.375 C 31.28125 83.375 31.167969 83.277344 31.15625 83.148438 C 30.878906 80.835938 28.289062 77.925781 25.777344 75.109375 C 25.492188 74.792969 25.210938 74.472656 24.933594 74.160156 C 22.179688 71.039062 22.769531 66.671875 22.792969 66.488281 C 22.816406 66.347656 22.945312 66.253906 23.085938 66.269531 C 23.222656 66.292969 23.320312 66.421875 23.300781 66.5625 C 23.296875 66.601562 22.765625 70.574219 25.046875 73.496094 C 25.359375 73.171875 26.019531 72.453125 26.753906 71.367188 C 26.746094 71.359375 26.734375 71.359375 26.726562 71.347656 C 26.621094 71.253906 26.609375 71.09375 26.703125 70.988281 C 30.191406 67.074219 29.65625 58.535156 29.585938 57.621094 C 28.738281 53.648438 28.609375 49.96875 28.601562 49.710938 C 28.597656 49.566406 28.710938 49.449219 28.851562 49.445312 C 28.992188 49.433594 29.109375 49.554688 29.113281 49.695312 C 29.117188 49.804688 29.488281 60.492188 33.144531 65.175781 C 34.953125 67.488281 37.609375 68.921875 38.59375 69.402344 C 37.394531 67.617188 32.859375 60.292969 33.445312 52.691406 C 33.308594 52.671875 33.199219 52.550781 33.210938 52.414062 Z M 90.570312 67.902344 C 90.753906 69.785156 90.238281 71.917969 88.472656 74.222656 C 88.472656 74.222656 88.832031 66.421875 83.394531 66.421875 C 83.394531 66.421875 83.542969 66.585938 83.761719 66.882812 C 82.222656 65.503906 80.710938 64.886719 80.710938 64.886719 C 84.03125 71.984375 76.9375 81.25 75.5625 86.511719 C 74.191406 91.777344 78.859375 91.453125 78.859375 91.453125 C 78.859375 91.453125 77.480469 92.023438 76.128906 91.933594 C 76.125 91.828125 76.058594 91.734375 75.953125 91.699219 C 74.796875 91.324219 73.640625 90.507812 73.832031 87.269531 C 73.953125 85.273438 74.519531 83.371094 75.121094 81.359375 C 75.421875 80.351562 75.730469 79.3125 75.992188 78.230469 C 76.25 77.164062 76.144531 76.246094 75.679688 75.5 C 74.972656 74.355469 73.6875 74.054688 73.632812 74.042969 C 73.496094 74.007812 73.359375 74.09375 73.328125 74.234375 C 73.296875 74.371094 73.382812 74.507812 73.519531 74.539062 C 73.53125 74.542969 74.402344 74.75 75.015625 75.457031 C 74.855469 76.128906 74.074219 78.992188 72.109375 81.152344 C 72.011719 81.0625 71.855469 81.058594 71.761719 81.15625 C 71.75 81.164062 70.761719 82.109375 69.652344 82.757812 C 68.425781 83.472656 67.097656 85.507812 67.289062 86.964844 C 67.445312 88.164062 67.855469 89.644531 68.859375 90.628906 C 67.316406 89.882812 64.703125 88.21875 64.609375 85.4375 C 64.625 85.4375 64.644531 85.4375 64.660156 85.433594 C 64.800781 85.402344 64.886719 85.265625 64.855469 85.128906 C 64.429688 83.207031 66.890625 80.441406 66.917969 80.410156 C 67.105469 80.199219 71.59375 75.164062 73.183594 71.050781 C 74.808594 66.839844 72.222656 63.871094 72.195312 63.839844 C 72.105469 63.738281 71.941406 63.726562 71.835938 63.820312 C 71.730469 63.914062 71.722656 64.078125 71.816406 64.179688 C 71.832031 64.199219 72.753906 65.257812 73.089844 67 C 72.195312 69.117188 70.320312 70.785156 69.5 71.445312 C 70.601562 68.578125 70.132812 66.902344 67.472656 63.703125 C 66.40625 62.417969 64.136719 60.902344 61.292969 59.195312 C 59.554688 58.089844 57.660156 57.007812 55.734375 55.9375 C 51.375 53.394531 46.792969 50.605469 44.074219 47.941406 C 40.953125 44.882812 40.515625 40.980469 40.769531 38.042969 C 40.832031 37.964844 40.839844 37.867188 40.796875 37.78125 C 40.855469 37.191406 40.941406 36.644531 41.039062 36.152344 C 45.898438 37.644531 51.140625 38.417969 56.566406 38.167969 C 60.390625 37.992188 63.324219 36.984375 65.519531 35.769531 C 65.578125 35.875 65.699219 35.925781 65.816406 35.890625 C 65.839844 35.882812 68.148438 35.203125 69.824219 36.257812 C 70.71875 36.820312 71.28125 37.792969 71.492188 39.140625 C 71.578125 39.695312 71.660156 40.265625 71.738281 40.832031 C 72.238281 44.316406 72.753906 47.917969 74.488281 48.78125 C 74.886719 48.980469 75.335938 49.027344 75.824219 48.925781 C 74.980469 49.710938 73.386719 50.667969 71.351562 49.476562 C 69.992188 48.679688 69.640625 47.632812 69.304688 46.621094 C 68.867188 45.308594 68.414062 43.953125 65.789062 43.488281 C 65.648438 43.460938 65.515625 43.554688 65.492188 43.695312 C 65.464844 43.832031 65.558594 43.96875 65.699219 43.992188 C 68.023438 44.402344 68.394531 45.503906 68.820312 46.78125 C 69.167969 47.828125 69.566406 49.019531 71.085938 49.910156 C 71.144531 49.949219 77.113281 53.839844 76.449219 58.410156 C 76.429688 58.550781 76.527344 58.679688 76.667969 58.699219 C 76.679688 58.699219 76.691406 58.699219 76.703125 58.699219 C 76.828125 58.699219 76.9375 58.609375 76.957031 58.484375 C 77.460938 55.007812 74.558594 52.011719 72.742188 50.507812 C 72.910156 50.53125 73.078125 50.542969 73.242188 50.542969 C 75.472656 50.542969 76.898438 48.472656 76.914062 48.449219 C 76.980469 48.351562 76.972656 48.21875 76.890625 48.132812 C 76.8125 48.046875 76.683594 48.023438 76.578125 48.082031 C 75.832031 48.496094 75.222656 48.570312 74.714844 48.320312 C 73.222656 47.574219 72.726562 44.109375 72.246094 40.757812 C 72.164062 40.183594 72.082031 39.613281 71.996094 39.058594 C 71.761719 37.558594 71.121094 36.46875 70.09375 35.820312 C 68.828125 35.027344 67.300781 35.097656 66.410156 35.238281 C 67.132812 34.78125 67.761719 34.304688 68.300781 33.84375 C 70.175781 32.230469 70.96875 30.78125 70.96875 30.78125 C 70.015625 31.003906 69.074219 31.175781 68.148438 31.304688 C 50.945312 33.695312 37.875 20.914062 32.875 15.058594 C 34.257812 13.859375 35.792969 12.640625 37.605469 11.519531 C 37.675781 11.632812 37.824219 11.675781 37.945312 11.609375 C 38 11.582031 43.199219 8.722656 47.257812 7.972656 C 50.414062 7.390625 55.226562 7.417969 60.242188 10.863281 C 64.464844 13.761719 65.570312 17.242188 65.582031 17.277344 C 65.617188 17.386719 65.714844 17.457031 65.828125 17.457031 C 65.851562 17.457031 65.878906 17.453125 65.902344 17.445312 C 66.035156 17.40625 66.113281 17.261719 66.070312 17.125 C 66.042969 17.03125 65.5625 15.515625 64.042969 13.644531 C 63.984375 12.511719 63.785156 11.472656 63.488281 10.515625 C 63.609375 10.476562 63.6875 10.351562 63.660156 10.222656 C 63.058594 7.34375 59.941406 4.589844 59.808594 4.476562 C 59.699219 4.382812 59.539062 4.394531 59.445312 4.5 C 57.3125 2.640625 55.046875 1.652344 54.101562 1.292969 C 57.414062 0.65625 61.472656 2.089844 61.515625 2.101562 C 61.542969 2.113281 61.574219 2.117188 61.601562 2.117188 C 61.699219 2.117188 61.789062 2.0625 61.832031 1.96875 C 62.835938 2.449219 63.699219 3.066406 64.449219 3.765625 C 64.441406 3.777344 64.425781 3.785156 64.417969 3.796875 C 64.34375 3.914062 64.375 4.074219 64.496094 4.148438 C 67.890625 6.34375 68.910156 13.5 68.921875 13.570312 C 68.933594 13.660156 68.992188 13.730469 69.074219 13.765625 C 68.898438 14.742188 68.917969 15.550781 68.917969 15.628906 C 68.921875 15.769531 69.035156 15.878906 69.175781 15.878906 C 69.175781 15.878906 69.179688 15.878906 69.183594 15.878906 C 69.324219 15.875 69.433594 15.757812 69.429688 15.613281 C 69.429688 15.570312 69.335938 11.289062 71.734375 10.734375 C 73.796875 10.257812 75.839844 10.585938 77.972656 11.738281 C 78.382812 11.960938 78.691406 12.214844 79.019531 12.488281 C 79.910156 13.222656 80.828125 13.984375 83.75 14.070312 C 86.535156 14.148438 87.714844 13.753906 88.195312 13.484375 C 87.921875 14.371094 87.21875 14.933594 86.277344 15.257812 C 86.277344 15.257812 86.277344 15.253906 86.273438 15.25 C 86.226562 15.117188 86.078125 15.050781 85.949219 15.097656 C 85.929688 15.101562 84.101562 15.742188 82.101562 15.371094 C 81.980469 15.351562 81.863281 15.414062 81.820312 15.527344 C 80.445312 15.371094 79.078125 15.066406 77.949219 14.730469 C 75.738281 14.066406 73.871094 15.691406 72.742188 17.0625 C 70.949219 17.003906 70.023438 17.316406 69.957031 17.335938 C 69.828125 17.382812 69.753906 17.53125 69.800781 17.664062 C 69.847656 17.796875 69.996094 17.867188 70.128906 17.820312 C 70.15625 17.8125 72.914062 16.882812 78.394531 18.679688 C 84.070312 20.535156 86.203125 26.054688 86.339844 27.855469 C 86.347656 27.988281 86.460938 28.09375 86.59375 28.09375 C 86.597656 28.09375 86.605469 28.09375 86.613281 28.09375 C 86.625 28.089844 86.640625 28.089844 86.65625 28.085938 C 87.332031 30.867188 87.398438 33.941406 87.183594 36.949219 C 86.054688 38.917969 84.390625 41.714844 82.195312 45.085938 C 77.730469 51.949219 78.878906 59.160156 83.339844 62.476562 C 86.453125 64.792969 89.167969 65.996094 90.570312 67.902344 Z M 76.4375 64.875 C 76.21875 60.488281 71.832031 58.828125 65.195312 56.320312 C 63.65625 55.738281 61.910156 55.078125 60.089844 54.335938 C 50.9375 50.597656 52.425781 44.328125 52.496094 44.0625 C 52.53125 43.925781 52.449219 43.789062 52.3125 43.753906 C 52.175781 43.714844 52.035156 43.800781 52 43.933594 C 51.980469 44.003906 50.3125 50.894531 59.898438 54.808594 C 61.722656 55.554688 63.472656 56.214844 65.015625 56.800781 C 71.691406 59.324219 75.722656 60.84375 75.925781 64.898438 C 75.933594 65.035156 76.046875 65.140625 76.183594 65.140625 C 76.1875 65.140625 76.191406 65.140625 76.195312 65.140625 C 76.335938 65.132812 76.445312 65.015625 76.4375 64.875 Z M 29.851562 92.007812 C 29.359375 92.8125 28.964844 93.265625 28.964844 93.265625 C 29.429688 92.875 29.714844 92.457031 29.851562 92.007812 Z M 29.851562 92.007812 " fill-opacity="1" fill-rule="nonzero"/></g><path fill="#000000" d="M 21.402344 21.976562 C 21.582031 21.960938 21.761719 21.949219 21.949219 21.929688 C 26.320312 21.535156 29.019531 18.382812 32.875 15.0625 C 37.875 20.917969 50.945312 33.699219 68.148438 31.308594 C 69.074219 31.179688 70.015625 31.007812 70.96875 30.785156 C 70.96875 30.785156 70.175781 32.230469 68.300781 33.847656 C 67.761719 34.308594 67.132812 34.785156 66.410156 35.242188 C 65.984375 35.308594 65.703125 35.390625 65.667969 35.402344 C 65.535156 35.441406 65.457031 35.585938 65.496094 35.722656 C 65.5 35.738281 65.507812 35.757812 65.519531 35.769531 C 63.324219 36.984375 60.386719 37.992188 56.5625 38.167969 C 51.140625 38.417969 45.898438 37.644531 41.039062 36.152344 C 41.320312 34.730469 41.679688 33.8125 41.691406 33.785156 C 41.742188 33.652344 41.679688 33.503906 41.550781 33.449219 C 41.417969 33.398438 41.269531 33.460938 41.21875 33.59375 C 41.207031 33.621094 40.839844 34.554688 40.546875 36 C 31.757812 33.203125 24.246094 28.078125 19.203125 22.484375 C 20.308594 22.40625 21.105469 22.265625 21.191406 22.25 C 21.324219 22.222656 21.414062 22.105469 21.402344 21.976562 Z M 21.402344 21.976562 " fill-opacity="1" fill-rule="nonzero"/></svg>