<svg xmlns="http://www.w3.org/2000/svg" xmlns:xlink="http://www.w3.org/1999/xlink" width="101" zoomAndPan="magnify" viewBox="0 0 75.75 52.499999" height="70" preserveAspectRatio="xMidYMid meet" version="1.0"><defs><clipPath id="0c2479e1e1"><path d="M 1 0 L 73 0 L 73 51.261719 L 1 51.261719 Z M 1 0 " clip-rule="nonzero"/></clipPath><clipPath id="62311ee36a"><path d="M 2 0 L 74 0 L 74 51.261719 L 2 51.261719 Z M 2 0 " clip-rule="nonzero"/></clipPath></defs><g clip-path="url(#0c2479e1e1)"><path fill="#000000" d="M 6.925781 50.3125 C 2.9375 49.621094 0.203125 36.886719 3.359375 26.09375 C 6.820312 14.214844 17.285156 5.179688 19.640625 6.566406 C 20.757812 7.222656 20.164062 10.339844 19.535156 12.703125 C 26.09375 8.046875 32.167969 5.4375 36.464844 3.925781 C 43.730469 1.386719 49.683594 0.726562 53.90625 0.59375 C 60.476562 0.390625 65.121094 0.246094 67.226562 3.289062 C 70.363281 7.808594 65.355469 15.695312 65.121094 16.054688 C 66.816406 15.160156 70.289062 13.585938 71.988281 14.941406 C 74.359375 16.84375 71.976562 23.421875 70.363281 26.597656 C 69.191406 28.890625 67.84375 30.554688 66.898438 31.59375 C 68.171875 35.539062 69.632812 42.128906 67.761719 48.863281 C 67.238281 50.730469 66.847656 51.09375 66.527344 51.121094 C 64.011719 51.316406 64.351562 30.371094 55.335938 26.773438 C 52.167969 25.507812 51.132812 27.699219 40.988281 29.507812 C 29.621094 31.53125 28.191406 29.261719 23.152344 31.304688 C 11.726562 35.953125 10.964844 51.019531 6.925781 50.3125 Z M 6.925781 50.3125 " fill-opacity="1" fill-rule="nonzero"/></g><g clip-path="url(#62311ee36a)"><path fill="#000000" d="M 7.453125 50.3125 C 3.464844 49.621094 0.730469 36.886719 3.886719 26.09375 C 7.347656 14.214844 17.8125 5.179688 20.164062 6.566406 C 21.285156 7.222656 20.691406 10.339844 20.0625 12.703125 C 26.621094 8.046875 32.695312 5.4375 36.992188 3.925781 C 44.257812 1.386719 50.210938 0.726562 54.433594 0.59375 C 61 0.390625 65.648438 0.246094 67.753906 3.289062 C 70.890625 7.808594 65.882812 15.695312 65.648438 16.054688 C 67.34375 15.160156 70.816406 13.585938 72.511719 14.941406 C 74.886719 16.84375 72.503906 23.421875 70.890625 26.597656 C 69.71875 28.890625 68.371094 30.554688 67.425781 31.59375 C 68.699219 35.539062 70.160156 42.128906 68.289062 48.863281 C 67.765625 50.730469 67.375 51.09375 67.054688 51.121094 C 64.539062 51.316406 64.875 30.371094 55.863281 26.773438 C 52.695312 25.507812 51.660156 27.699219 41.515625 29.507812 C 30.144531 31.53125 28.71875 29.261719 23.679688 31.304688 C 12.25 35.953125 11.492188 51.019531 7.453125 50.3125 Z M 7.453125 50.3125 " fill-opacity="1" fill-rule="nonzero"/></g></svg>