<svg xmlns="http://www.w3.org/2000/svg" xmlns:xlink="http://www.w3.org/1999/xlink" width="136" zoomAndPan="magnify" viewBox="0 0 102 79.499998" height="106" preserveAspectRatio="xMidYMid meet" version="1.0"><defs><clipPath id="15910193d3"><path d="M 0.320312 0 L 100.9375 0 L 100.9375 79 L 0.320312 79 Z M 0.320312 0 " clip-rule="nonzero"/></clipPath><clipPath id="9f52b855e4"><path d="M 0.320312 1 L 100.9375 1 L 100.9375 78 L 0.320312 78 Z M 0.320312 1 " clip-rule="nonzero"/></clipPath><clipPath id="808066530f"><path d="M 0.320312 0 L 100.9375 0 L 100.9375 79 L 0.320312 79 Z M 0.320312 0 " clip-rule="nonzero"/></clipPath><clipPath id="69ec38184d"><path d="M 0.320312 1 L 100.9375 1 L 100.9375 78 L 0.320312 78 Z M 0.320312 1 " clip-rule="nonzero"/></clipPath></defs><g clip-path="url(#15910193d3)"><path fill="#000000" d="M 101.191406 48.234375 C 101.191406 48.234375 101.128906 48.464844 101 48.871094 C 100.253906 51.167969 97.183594 58.96875 89.664062 59.976562 C 89.664062 59.976562 89.636719 60.269531 89.621094 60.761719 C 89.566406 62.367188 89.625 66.101562 91.078125 68.90625 C 91.226562 69 91.378906 69.089844 91.535156 69.171875 C 91.6875 69.25 91.75 69.445312 91.671875 69.601562 C 91.613281 69.710938 91.503906 69.773438 91.386719 69.773438 C 91.335938 69.773438 91.289062 69.761719 91.242188 69.738281 C 90.246094 69.21875 89.429688 68.457031 88.78125 67.6875 C 88.71875 68.277344 88.609375 70.292969 89.800781 71.851562 C 89.988281 71.925781 90.179688 72 90.378906 72.070312 C 90.542969 72.128906 90.628906 72.308594 90.570312 72.476562 C 90.558594 72.515625 90.535156 72.546875 90.507812 72.578125 C 90.515625 72.582031 90.515625 72.585938 90.519531 72.585938 C 90.519531 72.585938 90.511719 72.582031 90.507812 72.582031 C 90.449219 72.648438 90.363281 72.6875 90.273438 72.6875 C 90.238281 72.6875 90.203125 72.683594 90.167969 72.667969 C 86.019531 71.203125 83.816406 68.253906 82.644531 65.566406 C 81.496094 68.203125 79.953125 70.472656 78.371094 72.34375 C 78.371094 72.34375 78.371094 72.34375 78.375 72.34375 C 78.507812 72.460938 78.523438 72.660156 78.410156 72.792969 C 78.253906 72.972656 74.589844 77.21875 71.507812 78.890625 C 71.460938 78.914062 71.410156 78.929688 71.359375 78.929688 C 71.25 78.929688 71.148438 78.875 71.085938 78.777344 C 71 78.636719 71.035156 78.445312 71.171875 78.351562 C 71.183594 78.339844 72.875 76.992188 74.355469 70.164062 C 75.125 66.625 75.429688 62.289062 75.507812 58.207031 C 75.480469 58.203125 75.449219 58.195312 75.421875 58.183594 C 66.59375 54.144531 58.628906 42.5 58.550781 42.382812 C 58.453125 42.238281 58.488281 42.042969 58.632812 41.945312 C 57.066406 39.742188 55.671875 37.570312 54.472656 35.597656 C 54.082031 36.886719 53.46875 38.195312 52.507812 39.09375 C 52.445312 39.152344 52.367188 39.179688 52.289062 39.179688 C 52.207031 39.179688 52.121094 39.148438 52.058594 39.078125 C 51.941406 38.953125 51.945312 38.75 52.074219 38.628906 C 52.148438 38.558594 52.21875 38.488281 52.289062 38.410156 C 52.207031 35.195312 50.511719 31.609375 49.527344 29.574219 C 49.101562 31.8125 47.820312 36.285156 44.121094 40.746094 C 42.5 42.695312 40.660156 44.523438 38.828125 46.160156 C 37.15625 47.714844 35.5 49.023438 34.019531 50.085938 C 33.730469 50.304688 33.449219 50.511719 33.175781 50.714844 C 33.167969 50.71875 33.160156 50.726562 33.152344 50.734375 C 33.144531 50.742188 33.132812 50.746094 33.121094 50.753906 C 30.539062 52.636719 28.691406 53.761719 28.648438 53.78125 C 28.597656 53.8125 28.542969 53.828125 28.484375 53.828125 C 28.445312 53.828125 28.40625 53.816406 28.371094 53.804688 C 28.339844 53.875 28.3125 53.949219 28.285156 54.019531 C 27.65625 56.425781 27.097656 60.28125 28.359375 64.292969 C 28.410156 64.460938 28.316406 64.640625 28.148438 64.691406 C 28.117188 64.703125 28.085938 64.707031 28.054688 64.707031 C 27.917969 64.707031 27.792969 64.621094 27.75 64.484375 C 27.695312 64.308594 27.648438 64.136719 27.597656 63.964844 C 26.074219 62.449219 25.34375 60.574219 25 58.996094 C 25.0625 61.078125 25.410156 63.757812 26.46875 66.652344 C 26.527344 66.816406 26.441406 66.996094 26.277344 67.058594 C 26.277344 67.058594 26.273438 67.058594 26.269531 67.058594 C 26.988281 69.117188 27.828125 71.082031 28.621094 72.769531 C 28.640625 72.753906 28.664062 72.734375 28.6875 72.722656 C 28.84375 72.644531 29.035156 72.707031 29.117188 72.863281 L 31.574219 77.75 C 31.636719 77.875 31.609375 78.027344 31.507812 78.121094 C 31.449219 78.179688 31.367188 78.210938 31.289062 78.210938 C 31.234375 78.210938 31.179688 78.195312 31.128906 78.167969 C 30.96875 78.074219 27.167969 75.851562 25.515625 73.171875 C 25.433594 73.039062 25.464844 72.867188 25.582031 72.765625 C 24.382812 71.359375 23.097656 69.644531 21.835938 67.585938 C 21.515625 68.757812 20.9375 70.097656 19.886719 71.148438 C 18.730469 72.304688 17.203125 72.890625 15.355469 72.890625 C 15.175781 72.898438 15.023438 72.753906 15.023438 72.574219 C 15.023438 72.398438 15.164062 72.253906 15.339844 72.253906 C 15.34375 72.253906 15.351562 72.253906 15.355469 72.253906 C 15.429688 72.253906 15.5 72.253906 15.574219 72.25 C 16.664062 70.675781 16.875 68.957031 16.886719 67.949219 C 16.34375 69.027344 15.332031 70.21875 13.457031 70.515625 C 13.441406 70.515625 13.425781 70.519531 13.410156 70.519531 C 13.257812 70.519531 13.121094 70.40625 13.09375 70.25 C 13.070312 70.078125 13.1875 69.914062 13.359375 69.886719 C 13.523438 69.859375 13.675781 69.824219 13.828125 69.785156 C 16.683594 66.714844 15.015625 62.882812 15.015625 62.882812 C 7.761719 63.839844 3.554688 57.988281 2.230469 55.753906 C 1.921875 55.234375 1.769531 54.910156 1.769531 54.910156 C 3.816406 55.082031 8.019531 52.484375 9.679688 51.398438 C 10.121094 51.113281 10.382812 50.929688 10.382812 50.929688 C 6.558594 50.871094 3.753906 47.632812 2.203125 45.238281 C 1.59375 44.308594 1.175781 43.507812 0.964844 43.070312 C 0.828125 43.046875 0.742188 43.027344 0.722656 43.023438 C 0.550781 42.980469 0.449219 42.808594 0.488281 42.640625 C 0.527344 42.46875 0.699219 42.363281 0.871094 42.402344 C 0.902344 42.410156 4.304688 43.175781 7.875 40.542969 C 8.015625 40.441406 8.214844 40.46875 8.316406 40.613281 C 8.320312 40.613281 8.320312 40.617188 8.320312 40.621094 C 9.46875 39.8125 10.523438 38.796875 11.332031 37.597656 C 11.191406 37.5 11.148438 37.3125 11.238281 37.167969 C 12.023438 35.886719 12.363281 34.644531 12.921875 32.582031 C 13.203125 31.550781 13.523438 30.382812 13.976562 28.914062 C 14.523438 27.148438 15.253906 25.910156 15.933594 25.03125 C 13.191406 24.445312 10.921875 22.8125 10.921875 22.8125 C 11.613281 22.835938 12.316406 22.765625 13.023438 22.613281 C 12.988281 22.453125 13.074219 22.292969 13.230469 22.242188 C 13.269531 22.230469 17.070312 20.960938 22.042969 17.507812 C 22.1875 17.410156 22.382812 17.445312 22.484375 17.589844 C 25.4375 15.53125 28.667969 13.183594 32.292969 11.121094 C 32.210938 10.976562 32.253906 10.789062 32.398438 10.699219 C 32.460938 10.65625 38.261719 6.996094 45.882812 7.421875 C 44.144531 4.386719 39.171875 2.050781 37.585938 1.367188 C 37.335938 1.414062 37.214844 1.457031 37.210938 1.457031 C 37.050781 1.519531 36.867188 1.441406 36.800781 1.277344 C 36.738281 1.117188 36.8125 0.933594 36.976562 0.867188 C 37.035156 0.84375 38.457031 0.292969 42.269531 0.910156 C 45.371094 1.410156 48.128906 4.375 49.15625 5.609375 C 49.199219 5.546875 49.246094 5.488281 49.292969 5.429688 C 49.175781 5.332031 49.136719 5.15625 49.21875 5.019531 C 49.339844 4.8125 52.292969 -0.0078125 61.355469 2.359375 C 61.527344 2.402344 61.628906 2.578125 61.582031 2.746094 C 61.539062 2.917969 61.367188 3.019531 61.195312 2.972656 C 60.898438 2.894531 60.609375 2.828125 60.324219 2.765625 C 58.050781 3.203125 56.226562 5.046875 54.988281 6.753906 C 56.496094 6.457031 58.742188 6.292969 61.609375 6.859375 C 66.765625 7.871094 71.394531 10.378906 74 12.390625 C 74.136719 12.492188 74.164062 12.683594 74.066406 12.820312 C 75.453125 13.777344 77.726562 15.277344 80.300781 16.703125 C 80.304688 16.699219 80.304688 16.695312 80.304688 16.695312 C 80.394531 16.542969 80.589844 16.492188 80.742188 16.582031 C 80.808594 16.621094 87.566406 20.570312 92.539062 20.019531 C 92.710938 20 92.871094 20.125 92.890625 20.300781 C 92.90625 20.476562 92.78125 20.632812 92.609375 20.652344 C 92.449219 20.667969 92.289062 20.679688 92.128906 20.691406 C 90.878906 21.644531 87.132812 24.183594 83.003906 24.019531 C 84.855469 25.023438 87.351562 26.769531 88.769531 29.390625 C 90.03125 31.730469 90.683594 33.847656 91.210938 35.550781 C 91.667969 37.03125 92.0625 38.3125 92.703125 39.238281 C 92.804688 39.382812 92.765625 39.578125 92.625 39.679688 C 92.613281 39.683594 92.605469 39.6875 92.59375 39.695312 C 94.347656 42.789062 96.855469 44.027344 100.328125 42.714844 C 100.316406 42.746094 100.195312 42.992188 99.980469 43.363281 C 99.230469 44.644531 97.308594 47.429688 94.429688 48.15625 C 94.316406 48.183594 94.199219 48.210938 94.085938 48.230469 C 94.082031 48.234375 98.171875 49.3125 101.191406 48.234375 Z M 101.191406 48.234375 " fill-opacity="1" fill-rule="nonzero"/></g><g clip-path="url(#9f52b855e4)"><path fill="#000000" d="M 34.015625 50.089844 C 35.5 48.976562 37.160156 47.648438 38.824219 46.160156 C 37.152344 47.714844 35.496094 49.027344 34.015625 50.089844 Z M 28.28125 54.023438 C 28.308594 53.953125 28.339844 53.878906 28.367188 53.808594 C 28.359375 53.804688 28.347656 53.800781 28.339844 53.796875 C 28.324219 53.871094 28.300781 53.945312 28.28125 54.023438 Z M 90.519531 72.585938 C 90.515625 72.585938 90.511719 72.582031 90.507812 72.578125 C 90.507812 72.578125 90.503906 72.582031 90.503906 72.582031 C 90.507812 72.582031 90.515625 72.585938 90.519531 72.585938 Z M 94.082031 48.234375 C 94.195312 48.210938 94.3125 48.1875 94.421875 48.15625 C 91.273438 47.609375 91.414062 44.910156 91.414062 44.910156 C 94.566406 45.65625 98.148438 44.25 99.976562 43.363281 C 100.191406 42.996094 100.3125 42.75 100.324219 42.71875 C 96.851562 44.027344 94.34375 42.792969 92.589844 39.695312 C 92.542969 39.722656 92.492188 39.738281 92.4375 39.738281 C 92.335938 39.738281 92.238281 39.6875 92.175781 39.601562 C 91.476562 38.597656 91.070312 37.269531 90.597656 35.734375 C 90.054688 33.972656 89.441406 31.972656 88.207031 29.691406 C 85.941406 25.496094 80.527344 23.582031 80.472656 23.5625 C 80.308594 23.503906 80.21875 23.320312 80.277344 23.15625 C 80.335938 22.992188 80.515625 22.902344 80.683594 22.960938 C 80.777344 22.992188 81.734375 23.332031 83 24.019531 C 87.128906 24.1875 90.875 21.644531 92.125 20.691406 C 91.929688 20.699219 91.730469 20.710938 91.53125 20.710938 C 86.542969 20.710938 80.679688 17.285156 80.414062 17.132812 C 80.265625 17.042969 80.21875 16.855469 80.300781 16.703125 C 77.726562 15.28125 75.453125 13.777344 74.066406 12.824219 C 74.0625 12.828125 74.0625 12.832031 74.058594 12.835938 C 73.996094 12.917969 73.902344 12.960938 73.804688 12.960938 C 73.738281 12.960938 73.667969 12.941406 73.613281 12.894531 C 71.058594 10.929688 66.535156 8.476562 61.488281 7.484375 C 56.261719 6.457031 53.125 7.972656 53.09375 7.988281 C 52.933594 8.066406 52.742188 8.003906 52.667969 7.847656 C 52.589844 7.691406 52.652344 7.5 52.808594 7.421875 C 52.875 7.390625 53.628906 7.019531 54.992188 6.757812 C 56.230469 5.050781 58.054688 3.207031 60.324219 2.769531 C 52.40625 1.042969 49.796875 5.300781 49.769531 5.34375 C 49.707031 5.445312 49.605469 5.503906 49.496094 5.503906 C 49.4375 5.503906 49.382812 5.488281 49.332031 5.460938 C 49.320312 5.449219 49.308594 5.441406 49.296875 5.433594 C 49.25 5.492188 49.203125 5.550781 49.15625 5.613281 C 49.40625 5.90625 49.550781 6.105469 49.578125 6.140625 C 49.683594 6.28125 49.652344 6.480469 49.511719 6.585938 C 49.453125 6.628906 49.390625 6.648438 49.324219 6.648438 C 49.226562 6.648438 49.128906 6.605469 49.066406 6.519531 C 49.035156 6.476562 45.757812 2.125 42.167969 1.539062 C 39.621094 1.128906 38.203125 1.257812 37.589844 1.371094 C 39.171875 2.054688 44.148438 4.390625 45.882812 7.425781 C 46.402344 7.453125 46.929688 7.503906 47.464844 7.570312 C 47.640625 7.59375 47.761719 7.753906 47.742188 7.925781 C 47.71875 8.101562 47.558594 8.222656 47.382812 8.203125 C 44.300781 7.800781 41.46875 8.132812 39.132812 8.699219 C 44.59375 11.703125 56.511719 16.777344 68.015625 11.824219 C 68.015625 11.824219 69.53125 18.105469 63.359375 21.355469 C 57.1875 24.605469 48.640625 27.503906 37.09375 25.792969 C 30.710938 24.851562 25.84375 21.429688 22.445312 17.996094 C 22.433594 18.007812 22.417969 18.023438 22.40625 18.03125 C 17.351562 21.542969 13.46875 22.835938 13.433594 22.847656 C 13.398438 22.855469 13.367188 22.863281 13.332031 22.863281 C 13.199219 22.863281 13.074219 22.777344 13.03125 22.644531 C 13.027344 22.632812 13.027344 22.625 13.023438 22.617188 C 12.316406 22.765625 11.613281 22.839844 10.921875 22.8125 C 10.921875 22.8125 13.195312 24.449219 15.9375 25.035156 C 16.53125 24.269531 17.089844 23.777344 17.460938 23.449219 C 17.585938 23.339844 17.730469 23.210938 17.785156 23.144531 C 17.800781 23.023438 17.886719 22.914062 18.011719 22.875 C 18.179688 22.828125 18.355469 22.921875 18.40625 23.089844 C 18.492188 23.386719 18.261719 23.589844 17.878906 23.925781 C 17.121094 24.589844 15.550781 25.972656 14.582031 29.105469 C 14.132812 30.5625 13.8125 31.726562 13.535156 32.753906 C 12.980469 34.796875 12.613281 36.144531 11.78125 37.5 C 11.71875 37.597656 11.613281 37.65625 11.507812 37.65625 C 11.453125 37.65625 11.394531 37.640625 11.34375 37.605469 C 11.339844 37.605469 11.335938 37.601562 11.332031 37.597656 C 10.523438 38.796875 9.46875 39.8125 8.320312 40.621094 C 8.417969 40.761719 8.386719 40.957031 8.25 41.058594 C 5.867188 42.820312 3.578125 43.160156 2.164062 43.160156 C 1.621094 43.160156 1.207031 43.113281 0.964844 43.074219 C 1.179688 43.511719 1.597656 44.3125 2.203125 45.242188 C 5.6875 46.78125 11.035156 48.546875 14.195312 46.695312 C 14.195312 46.695312 13.578125 50.1875 9.683594 51.402344 C 8.019531 52.488281 3.816406 55.082031 1.773438 54.914062 C 1.773438 54.914062 1.925781 55.238281 2.234375 55.753906 C 4.738281 57.027344 10.046875 58.917969 14.199219 54.929688 C 14.199219 54.929688 16.492188 58.386719 15.019531 62.886719 C 15.019531 62.886719 16.6875 66.71875 13.828125 69.789062 C 16.507812 69.054688 16.855469 66.027344 16.855469 65.992188 C 16.875 65.820312 17.03125 65.695312 17.207031 65.710938 C 17.382812 65.730469 17.507812 65.882812 17.488281 66.058594 C 17.488281 66.078125 17.382812 66.96875 16.886719 67.953125 C 16.875 68.960938 16.664062 70.683594 15.574219 72.253906 C 17.148438 72.210938 18.445312 71.691406 19.433594 70.707031 C 21.5625 68.578125 21.589844 64.96875 21.589844 64.929688 C 21.589844 64.753906 21.734375 64.613281 21.910156 64.613281 C 22.085938 64.613281 22.226562 64.753906 22.226562 64.929688 C 22.226562 65.015625 22.21875 66.179688 21.832031 67.59375 C 23.09375 69.652344 24.378906 71.367188 25.578125 72.773438 C 25.589844 72.761719 25.605469 72.753906 25.617188 72.742188 C 25.769531 72.648438 25.964844 72.695312 26.054688 72.84375 C 27.128906 74.585938 29.246094 76.175781 30.480469 77.007812 L 28.542969 73.15625 C 28.476562 73.023438 28.511719 72.867188 28.617188 72.773438 C 27.828125 71.085938 26.984375 69.125 26.265625 67.0625 C 26.230469 67.078125 26.199219 67.082031 26.164062 67.082031 C 26.035156 67.082031 25.910156 67 25.863281 66.875 C 23.441406 60.25 24.605469 54.851562 24.65625 54.628906 C 24.695312 54.457031 24.863281 54.347656 25.035156 54.386719 C 25.207031 54.421875 25.316406 54.59375 25.277344 54.765625 C 25.273438 54.792969 24.917969 56.449219 24.996094 59.003906 C 25.339844 60.578125 26.070312 62.453125 27.59375 63.96875 C 25.757812 57.386719 28.421875 51.519531 28.539062 51.265625 C 28.613281 51.109375 28.800781 51.039062 28.960938 51.113281 C 29.121094 51.1875 29.191406 51.375 29.117188 51.535156 C 29.105469 51.554688 28.847656 52.128906 28.542969 53.101562 C 29.113281 52.746094 30.703125 51.730469 32.761719 50.226562 C 43.757812 40.324219 42.484375 31.441406 42.46875 31.351562 C 42.441406 31.175781 42.558594 31.015625 42.734375 30.988281 C 42.910156 30.960938 43.070312 31.078125 43.097656 31.25 C 43.152344 31.585938 44.15625 38.589844 36.652344 47.195312 C 39.011719 45.230469 41.507812 42.890625 43.625 40.34375 C 48.613281 34.328125 49.09375 28.136719 49.101562 28.074219 C 49.113281 27.898438 49.261719 27.769531 49.4375 27.78125 C 49.613281 27.792969 49.746094 27.941406 49.734375 28.117188 C 49.730469 28.191406 49.6875 28.71875 49.523438 29.578125 C 50.503906 31.613281 52.203125 35.195312 52.285156 38.414062 C 54.410156 36.125 54.519531 31.347656 54.523438 31.296875 C 54.523438 31.121094 54.675781 30.992188 54.847656 30.984375 C 55.023438 30.988281 55.160156 31.132812 55.15625 31.308594 C 55.15625 31.445312 55.109375 33.496094 54.46875 35.601562 C 55.664062 37.574219 57.0625 39.746094 58.628906 41.949219 C 58.628906 41.945312 58.632812 41.945312 58.632812 41.945312 C 58.777344 41.847656 58.976562 41.886719 59.074219 42.03125 C 59.152344 42.144531 66.917969 53.496094 75.515625 57.53125 C 75.605469 50.761719 75.097656 44.875 75.089844 44.777344 C 75.074219 44.601562 75.203125 44.449219 75.378906 44.433594 C 75.558594 44.414062 75.710938 44.546875 75.722656 44.722656 C 75.738281 44.878906 77.085938 60.558594 74.972656 70.300781 C 74.160156 74.058594 73.273438 76.214844 72.605469 77.425781 C 75.226562 75.503906 77.890625 72.417969 77.921875 72.382812 C 78.035156 72.25 78.234375 72.234375 78.367188 72.347656 C 79.945312 70.472656 81.492188 68.207031 82.640625 65.570312 C 81.367188 62.640625 81.316406 60.019531 81.316406 59.972656 C 81.316406 59.796875 81.457031 59.652344 81.632812 59.652344 C 81.632812 59.652344 81.636719 59.652344 81.636719 59.652344 C 81.808594 59.652344 81.953125 59.792969 81.953125 59.964844 C 81.953125 60.054688 82.125 68.730469 89.800781 71.855469 C 88.605469 70.296875 88.714844 68.28125 88.78125 67.691406 C 87.636719 66.332031 87.042969 64.945312 87.003906 64.855469 C 86.933594 64.695312 87.007812 64.507812 87.171875 64.4375 C 87.332031 64.371094 87.519531 64.445312 87.589844 64.609375 C 87.601562 64.640625 88.824219 67.46875 91.074219 68.910156 C 89.621094 66.109375 89.566406 62.371094 89.621094 60.765625 C 88.519531 57.699219 88.488281 53.445312 88.488281 53.445312 C 94.273438 56.035156 99.351562 50.839844 101 48.875 C 101.128906 48.46875 101.191406 48.238281 101.191406 48.238281 C 98.171875 49.3125 94.082031 48.234375 94.082031 48.234375 Z M 94.082031 48.234375 " fill-opacity="1" fill-rule="nonzero"/></g><path fill="#000000" d="M 22.488281 17.589844 C 25.441406 15.53125 28.671875 13.183594 32.296875 11.125 C 32.300781 11.128906 32.300781 11.132812 32.304688 11.136719 C 32.363281 11.230469 32.46875 11.285156 32.574219 11.285156 C 32.632812 11.285156 32.691406 11.265625 32.746094 11.234375 C 32.785156 11.210938 35.285156 9.628906 39.136719 8.695312 C 44.59375 11.699219 56.511719 16.777344 68.019531 11.820312 C 68.019531 11.820312 69.53125 18.105469 63.359375 21.351562 C 57.1875 24.601562 48.644531 27.5 37.09375 25.792969 C 30.710938 24.847656 25.847656 21.425781 22.449219 17.996094 C 22.558594 17.890625 22.578125 17.71875 22.488281 17.589844 Z M 22.488281 17.589844 " fill-opacity="1" fill-rule="nonzero"/><g clip-path="url(#808066530f)"><path fill="#000000" d="M 101.191406 48.234375 C 101.191406 48.234375 101.128906 48.464844 101 48.871094 C 100.253906 51.167969 97.183594 58.96875 89.664062 59.976562 C 89.664062 59.976562 89.636719 60.269531 89.621094 60.761719 C 89.566406 62.367188 89.625 66.101562 91.078125 68.90625 C 91.226562 69 91.378906 69.089844 91.535156 69.171875 C 91.6875 69.25 91.75 69.445312 91.671875 69.601562 C 91.613281 69.710938 91.503906 69.773438 91.386719 69.773438 C 91.335938 69.773438 91.289062 69.761719 91.242188 69.738281 C 90.246094 69.21875 89.429688 68.457031 88.78125 67.6875 C 88.71875 68.277344 88.609375 70.292969 89.800781 71.851562 C 89.988281 71.925781 90.179688 72 90.378906 72.070312 C 90.542969 72.128906 90.628906 72.308594 90.570312 72.476562 C 90.558594 72.515625 90.535156 72.546875 90.507812 72.578125 C 90.515625 72.582031 90.515625 72.585938 90.519531 72.585938 C 90.519531 72.585938 90.511719 72.582031 90.507812 72.582031 C 90.449219 72.648438 90.363281 72.6875 90.273438 72.6875 C 90.238281 72.6875 90.203125 72.683594 90.167969 72.667969 C 86.019531 71.203125 83.816406 68.253906 82.644531 65.566406 C 81.496094 68.203125 79.953125 70.472656 78.371094 72.34375 C 78.371094 72.34375 78.371094 72.34375 78.375 72.34375 C 78.507812 72.460938 78.523438 72.660156 78.410156 72.792969 C 78.253906 72.972656 74.589844 77.21875 71.507812 78.890625 C 71.460938 78.914062 71.410156 78.929688 71.359375 78.929688 C 71.25 78.929688 71.148438 78.875 71.085938 78.777344 C 71 78.636719 71.035156 78.445312 71.171875 78.351562 C 71.183594 78.339844 72.875 76.992188 74.355469 70.164062 C 75.125 66.625 75.429688 62.289062 75.507812 58.207031 C 75.480469 58.203125 75.449219 58.195312 75.421875 58.183594 C 66.59375 54.144531 58.628906 42.5 58.550781 42.382812 C 58.453125 42.238281 58.488281 42.042969 58.632812 41.945312 C 57.066406 39.742188 55.671875 37.570312 54.472656 35.597656 C 54.082031 36.886719 53.46875 38.195312 52.507812 39.09375 C 52.445312 39.152344 52.367188 39.179688 52.289062 39.179688 C 52.207031 39.179688 52.121094 39.148438 52.058594 39.078125 C 51.941406 38.953125 51.945312 38.75 52.074219 38.628906 C 52.148438 38.558594 52.21875 38.488281 52.289062 38.410156 C 52.207031 35.195312 50.511719 31.609375 49.527344 29.574219 C 49.101562 31.8125 47.820312 36.285156 44.121094 40.746094 C 42.5 42.695312 40.660156 44.523438 38.828125 46.160156 C 37.15625 47.714844 35.5 49.023438 34.019531 50.085938 C 33.730469 50.304688 33.449219 50.511719 33.175781 50.714844 C 33.167969 50.71875 33.160156 50.726562 33.152344 50.734375 C 33.144531 50.742188 33.132812 50.746094 33.121094 50.753906 C 30.539062 52.636719 28.691406 53.761719 28.648438 53.78125 C 28.597656 53.8125 28.542969 53.828125 28.484375 53.828125 C 28.445312 53.828125 28.40625 53.816406 28.371094 53.804688 C 28.339844 53.875 28.3125 53.949219 28.285156 54.019531 C 27.65625 56.425781 27.097656 60.28125 28.359375 64.292969 C 28.410156 64.460938 28.316406 64.640625 28.148438 64.691406 C 28.117188 64.703125 28.085938 64.707031 28.054688 64.707031 C 27.917969 64.707031 27.792969 64.621094 27.75 64.484375 C 27.695312 64.308594 27.648438 64.136719 27.597656 63.964844 C 26.074219 62.449219 25.34375 60.574219 25 58.996094 C 25.0625 61.078125 25.410156 63.757812 26.46875 66.652344 C 26.527344 66.816406 26.441406 66.996094 26.277344 67.058594 C 26.277344 67.058594 26.273438 67.058594 26.269531 67.058594 C 26.988281 69.117188 27.828125 71.082031 28.621094 72.769531 C 28.640625 72.753906 28.664062 72.734375 28.6875 72.722656 C 28.84375 72.644531 29.035156 72.707031 29.117188 72.863281 L 31.574219 77.75 C 31.636719 77.875 31.609375 78.027344 31.507812 78.121094 C 31.449219 78.179688 31.367188 78.210938 31.289062 78.210938 C 31.234375 78.210938 31.179688 78.195312 31.128906 78.167969 C 30.96875 78.074219 27.167969 75.851562 25.515625 73.171875 C 25.433594 73.039062 25.464844 72.867188 25.582031 72.765625 C 24.382812 71.359375 23.097656 69.644531 21.835938 67.585938 C 21.515625 68.757812 20.9375 70.097656 19.886719 71.148438 C 18.730469 72.304688 17.203125 72.890625 15.355469 72.890625 C 15.175781 72.898438 15.023438 72.753906 15.023438 72.574219 C 15.023438 72.398438 15.164062 72.253906 15.339844 72.253906 C 15.34375 72.253906 15.351562 72.253906 15.355469 72.253906 C 15.429688 72.253906 15.5 72.253906 15.574219 72.25 C 16.664062 70.675781 16.875 68.957031 16.886719 67.949219 C 16.34375 69.027344 15.332031 70.21875 13.457031 70.515625 C 13.441406 70.515625 13.425781 70.519531 13.410156 70.519531 C 13.257812 70.519531 13.121094 70.40625 13.09375 70.25 C 13.070312 70.078125 13.1875 69.914062 13.359375 69.886719 C 13.523438 69.859375 13.675781 69.824219 13.828125 69.785156 C 16.683594 66.714844 15.015625 62.882812 15.015625 62.882812 C 7.761719 63.839844 3.554688 57.988281 2.230469 55.753906 C 1.921875 55.234375 1.769531 54.910156 1.769531 54.910156 C 3.816406 55.082031 8.019531 52.484375 9.679688 51.398438 C 10.121094 51.113281 10.382812 50.929688 10.382812 50.929688 C 6.558594 50.871094 3.753906 47.632812 2.203125 45.238281 C 1.59375 44.308594 1.175781 43.507812 0.964844 43.070312 C 0.828125 43.046875 0.742188 43.027344 0.722656 43.023438 C 0.550781 42.980469 0.449219 42.808594 0.488281 42.640625 C 0.527344 42.46875 0.699219 42.363281 0.871094 42.402344 C 0.902344 42.410156 4.304688 43.175781 7.875 40.542969 C 8.015625 40.441406 8.214844 40.46875 8.316406 40.613281 C 8.320312 40.613281 8.320312 40.617188 8.320312 40.621094 C 9.46875 39.8125 10.523438 38.796875 11.332031 37.597656 C 11.191406 37.5 11.148438 37.3125 11.238281 37.167969 C 12.023438 35.886719 12.363281 34.644531 12.921875 32.582031 C 13.203125 31.550781 13.523438 30.382812 13.976562 28.914062 C 14.523438 27.148438 15.253906 25.910156 15.933594 25.03125 C 13.191406 24.445312 10.921875 22.8125 10.921875 22.8125 C 11.613281 22.835938 12.316406 22.765625 13.023438 22.613281 C 12.988281 22.453125 13.074219 22.292969 13.230469 22.242188 C 13.269531 22.230469 17.070312 20.960938 22.042969 17.507812 C 22.1875 17.410156 22.382812 17.445312 22.484375 17.589844 C 25.4375 15.53125 28.667969 13.183594 32.292969 11.121094 C 32.210938 10.976562 32.253906 10.789062 32.398438 10.699219 C 32.460938 10.65625 38.261719 6.996094 45.882812 7.421875 C 44.144531 4.386719 39.171875 2.050781 37.585938 1.367188 C 37.335938 1.414062 37.214844 1.457031 37.210938 1.457031 C 37.050781 1.519531 36.867188 1.441406 36.800781 1.277344 C 36.738281 1.117188 36.8125 0.933594 36.976562 0.867188 C 37.035156 0.84375 38.457031 0.292969 42.269531 0.910156 C 45.371094 1.410156 48.128906 4.375 49.15625 5.609375 C 49.199219 5.546875 49.246094 5.488281 49.292969 5.429688 C 49.175781 5.332031 49.136719 5.15625 49.21875 5.019531 C 49.339844 4.8125 52.292969 -0.0078125 61.355469 2.359375 C 61.527344 2.402344 61.628906 2.578125 61.582031 2.746094 C 61.539062 2.917969 61.367188 3.019531 61.195312 2.972656 C 60.898438 2.894531 60.609375 2.828125 60.324219 2.765625 C 58.050781 3.203125 56.226562 5.046875 54.988281 6.753906 C 56.496094 6.457031 58.742188 6.292969 61.609375 6.859375 C 66.765625 7.871094 71.394531 10.378906 74 12.390625 C 74.136719 12.492188 74.164062 12.683594 74.066406 12.820312 C 75.453125 13.777344 77.726562 15.277344 80.300781 16.703125 C 80.304688 16.699219 80.304688 16.695312 80.304688 16.695312 C 80.394531 16.542969 80.589844 16.492188 80.742188 16.582031 C 80.808594 16.621094 87.566406 20.570312 92.539062 20.019531 C 92.710938 20 92.871094 20.125 92.890625 20.300781 C 92.90625 20.476562 92.78125 20.632812 92.609375 20.652344 C 92.449219 20.667969 92.289062 20.679688 92.128906 20.691406 C 90.878906 21.644531 87.132812 24.183594 83.003906 24.019531 C 84.855469 25.023438 87.351562 26.769531 88.769531 29.390625 C 90.03125 31.730469 90.683594 33.847656 91.210938 35.550781 C 91.667969 37.03125 92.0625 38.3125 92.703125 39.238281 C 92.804688 39.382812 92.765625 39.578125 92.625 39.679688 C 92.613281 39.683594 92.605469 39.6875 92.59375 39.695312 C 94.347656 42.789062 96.855469 44.027344 100.328125 42.714844 C 100.316406 42.746094 100.195312 42.992188 99.980469 43.363281 C 99.230469 44.644531 97.308594 47.429688 94.429688 48.15625 C 94.316406 48.183594 94.199219 48.210938 94.085938 48.230469 C 94.082031 48.234375 98.171875 49.3125 101.191406 48.234375 Z M 101.191406 48.234375 " fill-opacity="1" fill-rule="nonzero"/></g><g clip-path="url(#69ec38184d)"><path fill="#000000" d="M 34.015625 50.089844 C 35.5 48.976562 37.160156 47.648438 38.824219 46.160156 C 37.152344 47.714844 35.496094 49.027344 34.015625 50.089844 Z M 28.28125 54.023438 C 28.308594 53.953125 28.339844 53.878906 28.367188 53.808594 C 28.359375 53.804688 28.347656 53.800781 28.339844 53.796875 C 28.324219 53.871094 28.300781 53.945312 28.28125 54.023438 Z M 90.519531 72.585938 C 90.515625 72.585938 90.511719 72.582031 90.507812 72.578125 C 90.507812 72.578125 90.503906 72.582031 90.503906 72.582031 C 90.507812 72.582031 90.515625 72.585938 90.519531 72.585938 Z M 94.082031 48.234375 C 94.195312 48.210938 94.3125 48.1875 94.421875 48.15625 C 91.273438 47.609375 91.414062 44.910156 91.414062 44.910156 C 94.566406 45.65625 98.148438 44.25 99.976562 43.363281 C 100.191406 42.996094 100.3125 42.75 100.324219 42.71875 C 96.851562 44.027344 94.34375 42.792969 92.589844 39.695312 C 92.542969 39.722656 92.492188 39.738281 92.4375 39.738281 C 92.335938 39.738281 92.238281 39.6875 92.175781 39.601562 C 91.476562 38.597656 91.070312 37.269531 90.597656 35.734375 C 90.054688 33.972656 89.441406 31.972656 88.207031 29.691406 C 85.941406 25.496094 80.527344 23.582031 80.472656 23.5625 C 80.308594 23.503906 80.21875 23.320312 80.277344 23.15625 C 80.335938 22.992188 80.515625 22.902344 80.683594 22.960938 C 80.777344 22.992188 81.734375 23.332031 83 24.019531 C 87.128906 24.1875 90.875 21.644531 92.125 20.691406 C 91.929688 20.699219 91.730469 20.710938 91.53125 20.710938 C 86.542969 20.710938 80.679688 17.285156 80.414062 17.132812 C 80.265625 17.042969 80.21875 16.855469 80.300781 16.703125 C 77.726562 15.28125 75.453125 13.777344 74.066406 12.824219 C 74.0625 12.828125 74.0625 12.832031 74.058594 12.835938 C 73.996094 12.917969 73.902344 12.960938 73.804688 12.960938 C 73.738281 12.960938 73.667969 12.941406 73.613281 12.894531 C 71.058594 10.929688 66.535156 8.476562 61.488281 7.484375 C 56.261719 6.457031 53.125 7.972656 53.09375 7.988281 C 52.933594 8.066406 52.742188 8.003906 52.667969 7.847656 C 52.589844 7.691406 52.652344 7.5 52.808594 7.421875 C 52.875 7.390625 53.628906 7.019531 54.992188 6.757812 C 56.230469 5.050781 58.054688 3.207031 60.324219 2.769531 C 52.40625 1.042969 49.796875 5.300781 49.769531 5.34375 C 49.707031 5.445312 49.605469 5.503906 49.496094 5.503906 C 49.4375 5.503906 49.382812 5.488281 49.332031 5.460938 C 49.320312 5.449219 49.308594 5.441406 49.296875 5.433594 C 49.25 5.492188 49.203125 5.550781 49.15625 5.613281 C 49.40625 5.90625 49.550781 6.105469 49.578125 6.140625 C 49.683594 6.28125 49.652344 6.480469 49.511719 6.585938 C 49.453125 6.628906 49.390625 6.648438 49.324219 6.648438 C 49.226562 6.648438 49.128906 6.605469 49.066406 6.519531 C 49.035156 6.476562 45.757812 2.125 42.167969 1.539062 C 39.621094 1.128906 38.203125 1.257812 37.589844 1.371094 C 39.171875 2.054688 44.148438 4.390625 45.882812 7.425781 C 46.402344 7.453125 46.929688 7.503906 47.464844 7.570312 C 47.640625 7.59375 47.761719 7.753906 47.742188 7.925781 C 47.71875 8.101562 47.558594 8.222656 47.382812 8.203125 C 44.300781 7.800781 41.46875 8.132812 39.132812 8.699219 C 44.59375 11.703125 56.511719 16.777344 68.015625 11.824219 C 68.015625 11.824219 69.53125 18.105469 63.359375 21.355469 C 57.1875 24.605469 48.640625 27.503906 37.09375 25.792969 C 30.710938 24.851562 25.84375 21.429688 22.445312 17.996094 C 22.433594 18.007812 22.417969 18.023438 22.40625 18.03125 C 17.351562 21.542969 13.46875 22.835938 13.433594 22.847656 C 13.398438 22.855469 13.367188 22.863281 13.332031 22.863281 C 13.199219 22.863281 13.074219 22.777344 13.03125 22.644531 C 13.027344 22.632812 13.027344 22.625 13.023438 22.617188 C 12.316406 22.765625 11.613281 22.839844 10.921875 22.8125 C 10.921875 22.8125 13.195312 24.449219 15.9375 25.035156 C 16.53125 24.269531 17.089844 23.777344 17.460938 23.449219 C 17.585938 23.339844 17.730469 23.210938 17.785156 23.144531 C 17.800781 23.023438 17.886719 22.914062 18.011719 22.875 C 18.179688 22.828125 18.355469 22.921875 18.40625 23.089844 C 18.492188 23.386719 18.261719 23.589844 17.878906 23.925781 C 17.121094 24.589844 15.550781 25.972656 14.582031 29.105469 C 14.132812 30.5625 13.8125 31.726562 13.535156 32.753906 C 12.980469 34.796875 12.613281 36.144531 11.78125 37.5 C 11.71875 37.597656 11.613281 37.65625 11.507812 37.65625 C 11.453125 37.65625 11.394531 37.640625 11.34375 37.605469 C 11.339844 37.605469 11.335938 37.601562 11.332031 37.597656 C 10.523438 38.796875 9.46875 39.8125 8.320312 40.621094 C 8.417969 40.761719 8.386719 40.957031 8.25 41.058594 C 5.867188 42.820312 3.578125 43.160156 2.164062 43.160156 C 1.621094 43.160156 1.207031 43.113281 0.964844 43.074219 C 1.179688 43.511719 1.597656 44.3125 2.203125 45.242188 C 5.6875 46.78125 11.035156 48.546875 14.195312 46.695312 C 14.195312 46.695312 13.578125 50.1875 9.683594 51.402344 C 8.019531 52.488281 3.816406 55.082031 1.773438 54.914062 C 1.773438 54.914062 1.925781 55.238281 2.234375 55.753906 C 4.738281 57.027344 10.046875 58.917969 14.199219 54.929688 C 14.199219 54.929688 16.492188 58.386719 15.019531 62.886719 C 15.019531 62.886719 16.6875 66.71875 13.828125 69.789062 C 16.507812 69.054688 16.855469 66.027344 16.855469 65.992188 C 16.875 65.820312 17.03125 65.695312 17.207031 65.710938 C 17.382812 65.730469 17.507812 65.882812 17.488281 66.058594 C 17.488281 66.078125 17.382812 66.96875 16.886719 67.953125 C 16.875 68.960938 16.664062 70.683594 15.574219 72.253906 C 17.148438 72.210938 18.445312 71.691406 19.433594 70.707031 C 21.5625 68.578125 21.589844 64.96875 21.589844 64.929688 C 21.589844 64.753906 21.734375 64.613281 21.910156 64.613281 C 22.085938 64.613281 22.226562 64.753906 22.226562 64.929688 C 22.226562 65.015625 22.21875 66.179688 21.832031 67.59375 C 23.09375 69.652344 24.378906 71.367188 25.578125 72.773438 C 25.589844 72.761719 25.605469 72.753906 25.617188 72.742188 C 25.769531 72.648438 25.964844 72.695312 26.054688 72.84375 C 27.128906 74.585938 29.246094 76.175781 30.480469 77.007812 L 28.542969 73.15625 C 28.476562 73.023438 28.511719 72.867188 28.617188 72.773438 C 27.828125 71.085938 26.984375 69.125 26.265625 67.0625 C 26.230469 67.078125 26.199219 67.082031 26.164062 67.082031 C 26.035156 67.082031 25.910156 67 25.863281 66.875 C 23.441406 60.25 24.605469 54.851562 24.65625 54.628906 C 24.695312 54.457031 24.863281 54.347656 25.035156 54.386719 C 25.207031 54.421875 25.316406 54.59375 25.277344 54.765625 C 25.273438 54.792969 24.917969 56.449219 24.996094 59.003906 C 25.339844 60.578125 26.070312 62.453125 27.59375 63.96875 C 25.757812 57.386719 28.421875 51.519531 28.539062 51.265625 C 28.613281 51.109375 28.800781 51.039062 28.960938 51.113281 C 29.121094 51.1875 29.191406 51.375 29.117188 51.535156 C 29.105469 51.554688 28.847656 52.128906 28.542969 53.101562 C 29.113281 52.746094 30.703125 51.730469 32.761719 50.226562 C 43.757812 40.324219 42.484375 31.441406 42.46875 31.351562 C 42.441406 31.175781 42.558594 31.015625 42.734375 30.988281 C 42.910156 30.960938 43.070312 31.078125 43.097656 31.25 C 43.152344 31.585938 44.15625 38.589844 36.652344 47.195312 C 39.011719 45.230469 41.507812 42.890625 43.625 40.34375 C 48.613281 34.328125 49.09375 28.136719 49.101562 28.074219 C 49.113281 27.898438 49.261719 27.769531 49.4375 27.78125 C 49.613281 27.792969 49.746094 27.941406 49.734375 28.117188 C 49.730469 28.191406 49.6875 28.71875 49.523438 29.578125 C 50.503906 31.613281 52.203125 35.195312 52.285156 38.414062 C 54.410156 36.125 54.519531 31.347656 54.523438 31.296875 C 54.523438 31.121094 54.675781 30.992188 54.847656 30.984375 C 55.023438 30.988281 55.160156 31.132812 55.15625 31.308594 C 55.15625 31.445312 55.109375 33.496094 54.46875 35.601562 C 55.664062 37.574219 57.0625 39.746094 58.628906 41.949219 C 58.628906 41.945312 58.632812 41.945312 58.632812 41.945312 C 58.777344 41.847656 58.976562 41.886719 59.074219 42.03125 C 59.152344 42.144531 66.917969 53.496094 75.515625 57.53125 C 75.605469 50.761719 75.097656 44.875 75.089844 44.777344 C 75.074219 44.601562 75.203125 44.449219 75.378906 44.433594 C 75.558594 44.414062 75.710938 44.546875 75.722656 44.722656 C 75.738281 44.878906 77.085938 60.558594 74.972656 70.300781 C 74.160156 74.058594 73.273438 76.214844 72.605469 77.425781 C 75.226562 75.503906 77.890625 72.417969 77.921875 72.382812 C 78.035156 72.25 78.234375 72.234375 78.367188 72.347656 C 79.945312 70.472656 81.492188 68.207031 82.640625 65.570312 C 81.367188 62.640625 81.316406 60.019531 81.316406 59.972656 C 81.316406 59.796875 81.457031 59.652344 81.632812 59.652344 C 81.632812 59.652344 81.636719 59.652344 81.636719 59.652344 C 81.808594 59.652344 81.953125 59.792969 81.953125 59.964844 C 81.953125 60.054688 82.125 68.730469 89.800781 71.855469 C 88.605469 70.296875 88.714844 68.28125 88.78125 67.691406 C 87.636719 66.332031 87.042969 64.945312 87.003906 64.855469 C 86.933594 64.695312 87.007812 64.507812 87.171875 64.4375 C 87.332031 64.371094 87.519531 64.445312 87.589844 64.609375 C 87.601562 64.640625 88.824219 67.46875 91.074219 68.910156 C 89.621094 66.109375 89.566406 62.371094 89.621094 60.765625 C 88.519531 57.699219 88.488281 53.445312 88.488281 53.445312 C 94.273438 56.035156 99.351562 50.839844 101 48.875 C 101.128906 48.46875 101.191406 48.238281 101.191406 48.238281 C 98.171875 49.3125 94.082031 48.234375 94.082031 48.234375 Z M 94.082031 48.234375 " fill-opacity="1" fill-rule="nonzero"/></g><path fill="#000000" d="M 22.488281 17.589844 C 25.441406 15.53125 28.671875 13.183594 32.296875 11.125 C 32.300781 11.128906 32.300781 11.132812 32.304688 11.136719 C 32.363281 11.230469 32.46875 11.285156 32.574219 11.285156 C 32.632812 11.285156 32.691406 11.265625 32.746094 11.234375 C 32.785156 11.210938 35.285156 9.628906 39.136719 8.695312 C 44.59375 11.699219 56.511719 16.777344 68.019531 11.820312 C 68.019531 11.820312 69.53125 18.105469 63.359375 21.351562 C 57.1875 24.601562 48.644531 27.5 37.09375 25.792969 C 30.710938 24.847656 25.847656 21.425781 22.449219 17.996094 C 22.558594 17.890625 22.578125 17.71875 22.488281 17.589844 Z M 22.488281 17.589844 " fill-opacity="1" fill-rule="nonzero"/></svg>