<svg xmlns="http://www.w3.org/2000/svg" xmlns:xlink="http://www.w3.org/1999/xlink" width="93" zoomAndPan="magnify" viewBox="0 0 69.75 110.249996" height="147" preserveAspectRatio="xMidYMid meet" version="1.0"><defs><clipPath id="ea19715a65"><path d="M 0.113281 2 L 69 2 L 69 108.761719 L 0.113281 108.761719 Z M 0.113281 2 " clip-rule="nonzero"/></clipPath><clipPath id="1febd4ff6c"><path d="M 0.113281 2 L 69 2 L 69 108.761719 L 0.113281 108.761719 Z M 0.113281 2 " clip-rule="nonzero"/></clipPath></defs><g clip-path="url(#ea19715a65)"><path fill="#121119" d="M 68.355469 47.023438 C 68.347656 47.167969 68.230469 47.277344 68.089844 47.277344 C 68.085938 47.277344 68.078125 47.277344 68.074219 47.277344 C 67.773438 52.617188 67.210938 58.105469 66.566406 63.191406 C 66.710938 63.210938 66.816406 63.34375 66.796875 63.492188 C 66.785156 63.574219 65.738281 71.785156 64.550781 78.382812 C 63.375 84.925781 61.992188 94.015625 63.574219 97.464844 C 63.636719 97.601562 63.574219 97.761719 63.441406 97.820312 C 63.40625 97.839844 63.367188 97.84375 63.328125 97.84375 C 63.226562 97.84375 63.128906 97.785156 63.085938 97.6875 C 63.015625 97.535156 62.953125 97.371094 62.894531 97.199219 C 61.019531 95.242188 61.082031 90.480469 61.101562 89.851562 C 61.0625 90.460938 60.941406 91.105469 60.757812 91.777344 C 58.914062 98.542969 50.460938 108.03125 49.882812 108.664062 C 52.828125 104.695312 54.414062 94.765625 55.144531 87.371094 C 55.699219 81.742188 55.761719 77.574219 55.546875 78.621094 C 55.511719 78.78125 55.46875 79.082031 55.417969 79.527344 C 55.390625 79.765625 55.351562 80.003906 55.308594 80.246094 C 53.976562 87.210938 44.164062 97.820312 44.164062 97.820312 C 45.238281 95.835938 47.039062 91.480469 48.789062 86.125 C 51.144531 78.914062 53.410156 69.878906 53.664062 62.347656 C 53.519531 62.34375 53.402344 62.226562 53.402344 62.082031 C 53.382812 55.695312 52.941406 47.753906 52.675781 43.507812 C 52.265625 45.996094 51.414062 47.617188 51.339844 47.746094 C 53.714844 39.574219 48.824219 32.183594 47.164062 29.992188 C 48.152344 32.296875 49.378906 36.171875 49.273438 41.035156 C 49.273438 41.144531 49.203125 41.238281 49.105469 41.277344 C 49.113281 41.695312 49.113281 41.9375 49.113281 41.9375 C 49.09375 41.722656 49.070312 41.507812 49.042969 41.289062 C 49.03125 41.292969 49.023438 41.296875 49.015625 41.296875 C 49.011719 41.296875 49.007812 41.296875 49.007812 41.296875 C 48.871094 41.296875 48.753906 41.191406 48.738281 41.054688 C 48.738281 41.019531 48.421875 37.832031 46.632812 34.535156 C 46.5625 34.402344 46.609375 34.242188 46.738281 34.171875 C 46.742188 34.167969 46.746094 34.167969 46.75 34.167969 C 46.070312 32.777344 45.285156 31.402344 44.433594 30.0625 C 43.695312 28.90625 42.910156 27.785156 42.105469 26.703125 C 42.105469 26.703125 42.105469 26.703125 42.101562 26.703125 C 41.804688 26.304688 41.503906 25.914062 41.207031 25.527344 C 40.253906 24.3125 39.292969 23.164062 38.355469 22.101562 C 36.578125 20.082031 34.90625 18.378906 33.636719 17.148438 C 33.417969 19.925781 34.613281 22.414062 34.683594 22.554688 C 33.308594 21.777344 32.769531 20.785156 32.570312 20.003906 C 32.546875 21.21875 32.707031 22.921875 33.433594 24.832031 C 33.484375 24.96875 33.414062 25.125 33.277344 25.179688 C 33.269531 25.183594 33.261719 25.183594 33.253906 25.183594 C 33.261719 25.207031 33.265625 25.21875 33.265625 25.21875 C 33.25 25.210938 33.238281 25.199219 33.222656 25.191406 C 33.210938 25.191406 33.195312 25.199219 33.183594 25.199219 C 33.074219 25.199219 32.972656 25.132812 32.933594 25.027344 C 32.925781 25.003906 32.917969 24.984375 32.910156 24.960938 C 30.589844 23.164062 29.960938 19.738281 29.847656 17.167969 C 29.847656 17.167969 29.847656 17.167969 29.84375 17.167969 C 29.609375 17.523438 29.351562 17.921875 29.074219 18.347656 C 29.070312 18.390625 29.0625 18.433594 29.035156 18.472656 C 28.933594 18.628906 18.996094 34.257812 18.929688 40.484375 C 18.925781 40.59375 18.859375 40.691406 18.753906 40.730469 C 18.730469 40.742188 18.703125 40.746094 18.679688 40.746094 C 18.683594 40.820312 18.691406 40.886719 18.703125 40.957031 C 18.703125 40.957031 18.652344 40.882812 18.578125 40.738281 C 18.535156 40.722656 18.496094 40.703125 18.460938 40.667969 C 18.375 40.574219 16.878906 38.890625 17.542969 34.746094 C 17.128906 35.640625 16.65625 36.75 16.226562 37.96875 C 16.238281 37.972656 16.253906 37.972656 16.265625 37.980469 C 16.394531 38.054688 16.445312 38.214844 16.375 38.347656 C 14.589844 41.632812 15.378906 46.246094 15.382812 46.292969 C 15.402344 46.40625 15.347656 46.523438 15.242188 46.574219 C 15.207031 46.59375 15.160156 46.605469 15.121094 46.605469 C 15.050781 46.605469 14.984375 46.578125 14.929688 46.527344 C 13.738281 45.324219 13.078125 43.757812 12.753906 42.097656 C 12.589844 44.085938 12.089844 51.011719 12.25 59.855469 C 12.691406 61.550781 13.09375 63.109375 13.378906 64.230469 C 14.175781 67.421875 17.007812 78.207031 19.980469 83.054688 C 22.902344 87.816406 24.878906 90.070312 26.8125 92.148438 C 26.914062 92.253906 26.90625 92.425781 26.796875 92.527344 C 26.746094 92.574219 26.679688 92.597656 26.613281 92.597656 C 26.542969 92.597656 26.46875 92.570312 26.417969 92.511719 C 26.410156 92.503906 26.40625 92.496094 26.398438 92.492188 C 25.089844 92.722656 20.082031 93.332031 16.039062 90.144531 C 16.035156 90.140625 16.035156 90.140625 16.03125 90.140625 C 16.789062 92.898438 17.6875 95.554688 18.75 98.039062 C 20.375 101.835938 22.390625 105.226562 24.875 107.957031 C 24.445312 107.625 11.21875 97.183594 9.121094 87.914062 C 9.085938 90.480469 8.914062 93.613281 8.402344 96.335938 C 8.378906 96.464844 8.265625 96.554688 8.140625 96.554688 C 8.125 96.554688 8.109375 96.554688 8.09375 96.550781 C 7.738281 98.554688 7.230469 100.605469 6.511719 102.421875 C 6.511719 102.421875 6.519531 102.421875 6.519531 102.421875 C 6.65625 102.484375 6.714844 102.644531 6.652344 102.78125 C 6.605469 102.890625 5.421875 105.476562 3.609375 106.996094 C 3.558594 107.039062 3.496094 107.058594 3.433594 107.058594 C 3.429688 107.058594 3.429688 107.058594 3.425781 107.058594 C 3.410156 107.070312 3.394531 107.085938 3.378906 107.097656 C 3.378906 107.097656 3.382812 107.082031 3.386719 107.050781 C 3.355469 107.046875 3.324219 107.035156 3.296875 107.019531 C 3.199219 106.960938 3.148438 106.847656 3.171875 106.734375 C 3.195312 106.632812 5.320312 96.367188 5.363281 86.53125 C 5.367188 84.886719 5.296875 83.371094 5.167969 81.914062 C 4.949219 80.234375 4.671875 78.253906 4.363281 76.0625 C 4.21875 75.210938 4.0625 74.351562 3.902344 73.464844 C 3.074219 68.902344 2.132812 63.730469 1.695312 55.898438 C 1.6875 55.75 1.800781 55.625 1.945312 55.613281 C 1.75 53.234375 1.597656 50.863281 1.511719 48.542969 C 1.492188 48.550781 1.472656 48.558594 1.453125 48.5625 C 1.445312 48.5625 1.433594 48.5625 1.425781 48.5625 C 1.289062 48.5625 1.171875 48.460938 1.15625 48.324219 C 0.113281 38.683594 3.230469 28.960938 3.261719 28.867188 C 3.308594 28.726562 3.460938 28.648438 3.597656 28.691406 C 4.523438 25.878906 5.730469 23.175781 7.152344 20.671875 C 7.585938 19.910156 8.042969 19.164062 8.515625 18.441406 C 8.515625 18.441406 8.515625 18.4375 8.515625 18.4375 C 8.5625 18.371094 8.609375 18.304688 8.652344 18.234375 C 9.085938 17.582031 9.53125 16.945312 9.992188 16.332031 C 11.011719 14.96875 12.101562 13.707031 13.246094 12.554688 C 13.449219 12.351562 13.652344 12.15625 13.859375 11.960938 C 13.96875 11.855469 14.085938 11.746094 14.195312 11.640625 C 14.425781 11.429688 14.65625 11.21875 14.886719 11.015625 C 15.460938 10.515625 16.042969 10.046875 16.636719 9.601562 C 16.558594 9.492188 16.566406 9.339844 16.667969 9.246094 C 21.324219 4.984375 27.441406 5.160156 28.171875 5.195312 C 29.109375 4.777344 40.042969 0.101562 49.394531 5.230469 C 49.519531 5.296875 49.5625 5.449219 49.503906 5.578125 C 51.53125 6.5 53.46875 7.648438 55.269531 8.992188 C 55.3125 9.019531 55.347656 9.050781 55.390625 9.078125 C 58.398438 11.339844 61.027344 14.117188 63.089844 17.21875 C 64.167969 18.847656 65.089844 20.554688 65.824219 22.328125 C 66.007812 22.761719 66.175781 23.199219 66.332031 23.636719 C 66.335938 23.636719 66.339844 23.632812 66.34375 23.632812 C 66.484375 23.585938 66.636719 23.667969 66.679688 23.804688 C 66.695312 23.886719 69.136719 31.785156 68.355469 47.023438 Z M 68.355469 47.023438 " fill-opacity="1" fill-rule="nonzero"/></g><path fill="#121119" d="M 4.355469 76.058594 C 4.691406 78.007812 4.976562 79.902344 5.15625 81.914062 C 4.9375 80.230469 4.660156 78.253906 4.355469 76.058594 Z M 8.5 18.441406 C 8.5 18.441406 8.503906 18.4375 8.503906 18.4375 C 8.503906 18.4375 8.5 18.441406 8.5 18.441406 Z M 3.363281 107.097656 C 3.382812 107.085938 3.398438 107.070312 3.414062 107.054688 C 3.402344 107.054688 3.386719 107.054688 3.371094 107.050781 C 3.367188 107.078125 3.363281 107.097656 3.363281 107.097656 Z M 8.640625 18.234375 C 9.074219 17.582031 9.519531 16.945312 9.980469 16.332031 C 9.519531 16.945312 9.074219 17.582031 8.640625 18.234375 Z M 13.847656 11.960938 C 13.960938 11.855469 14.074219 11.746094 14.183594 11.640625 C 14.070312 11.746094 13.960938 11.855469 13.847656 11.960938 Z M 18.570312 40.730469 C 18.644531 40.875 18.691406 40.949219 18.691406 40.949219 C 18.683594 40.882812 18.675781 40.8125 18.667969 40.742188 C 18.664062 40.742188 18.65625 40.746094 18.648438 40.746094 C 18.621094 40.746094 18.597656 40.738281 18.570312 40.730469 Z M 20 28.296875 C 20.132812 28.363281 20.191406 28.523438 20.125 28.65625 C 19.402344 30.175781 18.898438 31.515625 18.554688 32.703125 C 18.589844 32.636719 18.621094 32.585938 18.632812 32.5625 C 18.578125 32.714844 18.523438 32.859375 18.472656 33.007812 C 17.507812 36.539062 18.007812 38.621094 18.441406 39.601562 C 18.902344 35.824219 21.855469 29.828125 24.453125 25.136719 C 21.445312 25.351562 15.984375 25.261719 10.675781 22.757812 C 9.664062 25.375 8.855469 28.484375 8.394531 32.1875 C 8.378906 32.324219 8.261719 32.421875 8.128906 32.421875 C 8.121094 32.421875 8.109375 32.421875 8.097656 32.421875 C 7.949219 32.402344 7.84375 32.265625 7.863281 32.121094 C 8.332031 28.355469 9.15625 25.1875 10.191406 22.523438 C 9.164062 22.003906 8.140625 21.394531 7.144531 20.671875 C 5.71875 23.175781 4.515625 25.878906 3.589844 28.691406 C 3.589844 28.691406 3.589844 28.691406 3.59375 28.691406 C 3.734375 28.738281 3.808594 28.890625 3.765625 29.03125 C 3.734375 29.128906 0.652344 38.742188 1.683594 48.265625 C 1.695312 48.394531 1.617188 48.503906 1.5 48.542969 C 1.589844 50.863281 1.742188 53.234375 1.9375 55.613281 C 1.9375 55.613281 1.9375 55.613281 1.941406 55.613281 C 2.089844 55.609375 2.21875 55.71875 2.222656 55.867188 C 2.660156 63.664062 3.59375 68.820312 4.421875 73.367188 C 5.21875 77.773438 5.914062 81.578125 5.890625 86.535156 C 5.855469 94.804688 4.355469 103.371094 3.851562 106.019531 C 5.238281 104.558594 6.144531 102.578125 6.152344 102.558594 C 6.214844 102.425781 6.367188 102.367188 6.5 102.421875 C 7.21875 100.605469 7.726562 98.554688 8.082031 96.550781 C 8.078125 96.550781 8.078125 96.550781 8.078125 96.550781 C 7.929688 96.523438 7.835938 96.382812 7.859375 96.238281 C 8.9375 90.507812 8.488281 82.914062 8.484375 82.835938 C 8.476562 82.6875 8.585938 82.5625 8.734375 82.554688 C 8.886719 82.550781 9.011719 82.65625 9.019531 82.804688 C 9.023438 82.828125 9.066406 83.570312 9.09375 84.753906 C 9.925781 87.015625 12.941406 94.246094 18.738281 98.039062 C 17.671875 95.554688 16.773438 92.898438 16.019531 90.140625 C 16.023438 90.140625 16.023438 90.140625 16.023438 90.144531 L 11.792969 72.882812 C 11.988281 73.535156 15.910156 86.441406 24.695312 90.613281 C 23.230469 88.902344 21.613281 86.761719 19.507812 83.332031 C 16.492188 78.421875 13.640625 67.570312 12.839844 64.359375 C 11.769531 60.058594 8.90625 49.386719 8.878906 49.277344 C 8.839844 49.136719 8.925781 48.984375 9.066406 48.949219 C 9.210938 48.910156 9.359375 48.996094 9.398438 49.136719 C 9.417969 49.214844 10.988281 55.066406 12.242188 59.847656 C 12.078125 51.003906 12.578125 44.078125 12.742188 42.089844 C 11.863281 37.566406 13.476562 32.367188 13.570312 32.070312 C 13.613281 31.929688 13.765625 31.847656 13.90625 31.894531 C 14.046875 31.941406 14.125 32.089844 14.078125 32.234375 C 14.050781 32.324219 11.363281 40.984375 14.730469 45.480469 C 14.582031 43.929688 14.488281 40.667969 15.890625 38.082031 C 15.957031 37.960938 16.09375 37.917969 16.214844 37.960938 C 16.644531 36.742188 17.117188 35.632812 17.53125 34.738281 C 17.800781 33.054688 18.421875 30.972656 19.640625 28.421875 C 19.703125 28.289062 19.867188 28.234375 20 28.296875 Z M 49.109375 41.9375 C 49.109375 41.9375 49.109375 41.695312 49.097656 41.277344 C 49.078125 41.285156 49.058594 41.285156 49.035156 41.289062 C 49.0625 41.507812 49.089844 41.722656 49.109375 41.9375 Z M 38.347656 22.097656 C 39.28125 23.164062 40.246094 24.3125 41.199219 25.527344 C 40.246094 24.3125 39.28125 23.164062 38.347656 22.097656 C 36.570312 20.078125 34.894531 18.378906 33.625 17.148438 C 33.410156 19.925781 34.605469 22.414062 34.675781 22.554688 C 33.300781 21.777344 32.761719 20.785156 32.5625 20.003906 C 32.582031 18.8125 32.78125 18.082031 32.785156 18.066406 C 32.824219 17.925781 32.742188 17.777344 32.597656 17.734375 C 32.453125 17.699219 32.304688 17.78125 32.265625 17.921875 C 32.230469 18.046875 31.425781 21.027344 32.894531 24.957031 C 30.578125 23.15625 29.949219 19.730469 29.832031 17.164062 C 29.832031 17.164062 29.832031 17.164062 29.832031 17.160156 C 29.832031 17.160156 29.832031 17.164062 29.832031 17.164062 C 29.597656 17.519531 29.335938 17.914062 29.0625 18.339844 C 29.066406 18.246094 29.027344 18.148438 28.941406 18.09375 C 28.816406 18.015625 28.648438 18.050781 28.570312 18.175781 C 28.445312 18.371094 27.460938 19.921875 26.148438 22.160156 C 21.804688 20.15625 18.585938 16.539062 16.542969 13.632812 C 17.378906 12.832031 18.207031 12.167969 18.996094 11.628906 C 23.339844 8.628906 27.390625 8.453125 27.433594 8.453125 C 27.582031 8.449219 27.695312 8.324219 27.691406 8.175781 C 27.6875 8.023438 27.566406 7.902344 27.414062 7.914062 C 27.242188 7.921875 23.1875 8.09375 18.714844 11.167969 C 17.917969 11.714844 17.078125 12.382812 16.234375 13.1875 C 15.683594 12.378906 15.230469 11.632812 14.875 11.015625 C 15.445312 10.511719 16.027344 10.042969 16.625 9.601562 C 16.628906 9.609375 16.632812 9.617188 16.636719 9.625 C 16.691406 9.683594 16.761719 9.710938 16.835938 9.710938 C 16.902344 9.710938 16.964844 9.6875 17.019531 9.640625 C 21.773438 5.285156 28.125 5.726562 28.191406 5.734375 C 28.238281 5.738281 28.285156 5.730469 28.328125 5.707031 C 28.4375 5.652344 39.628906 0.488281 49.121094 5.695312 C 49.25 5.769531 49.414062 5.722656 49.484375 5.589844 C 49.488281 5.585938 49.488281 5.582031 49.492188 5.574219 C 51.519531 6.496094 53.457031 7.648438 55.257812 8.992188 C 53.417969 12.160156 47.984375 19.96875 38.347656 22.097656 Z M 25.992188 11.171875 C 25.859375 11.132812 22.75 10.308594 19.929688 14.675781 C 19.851562 14.800781 19.886719 14.96875 20.011719 15.046875 C 20.054688 15.078125 20.105469 15.089844 20.15625 15.089844 C 20.242188 15.089844 20.328125 15.046875 20.378906 14.96875 C 22.972656 10.953125 25.726562 11.65625 25.84375 11.6875 C 25.984375 11.726562 26.132812 11.644531 26.175781 11.503906 C 26.21875 11.359375 26.132812 11.210938 25.992188 11.171875 Z M 30.199219 7.605469 C 30.261719 7.742188 30.421875 7.796875 30.558594 7.730469 C 30.640625 7.691406 38.777344 3.839844 46.121094 8.414062 C 46.167969 8.441406 46.214844 8.453125 46.265625 8.453125 C 46.355469 8.453125 46.441406 8.410156 46.492188 8.328125 C 46.570312 8.203125 46.535156 8.035156 46.40625 7.957031 C 38.804688 3.226562 30.40625 7.207031 30.324219 7.246094 C 30.1875 7.3125 30.132812 7.472656 30.199219 7.605469 Z M 42.519531 12 C 42.574219 12.054688 42.644531 12.078125 42.710938 12.078125 C 42.78125 12.078125 42.847656 12.054688 42.898438 12.003906 C 43.007812 11.898438 43.007812 11.726562 42.90625 11.621094 C 38.449219 7.089844 31.3125 8.710938 31.242188 8.730469 C 31.097656 8.765625 31.011719 8.910156 31.042969 9.054688 C 31.078125 9.199219 31.222656 9.285156 31.367188 9.253906 C 31.433594 9.238281 38.28125 7.6875 42.519531 12 Z M 68.074219 47.277344 C 67.773438 52.617188 67.210938 58.105469 66.566406 63.191406 C 66.417969 63.175781 66.28125 63.277344 66.265625 63.425781 C 66.253906 63.507812 65.203125 71.703125 64.019531 78.292969 C 62.882812 84.621094 61.5625 93.328125 62.894531 97.203125 C 61.015625 95.246094 61.078125 90.484375 61.097656 89.855469 C 61.0625 90.464844 60.941406 91.109375 60.757812 91.785156 C 60.839844 90.683594 60.945312 89.585938 61.078125 88.535156 C 61.984375 81.3125 60.5625 76.097656 60.5625 76.097656 C 61.324219 84.878906 55.757812 98.503906 55.757812 98.503906 C 56.136719 95.285156 55.605469 90.539062 55.140625 87.375 C 55.699219 81.746094 55.761719 77.582031 55.542969 78.625 L 55.632812 76.648438 C 55.632812 76.648438 53.472656 82.492188 48.789062 86.128906 C 51.144531 78.917969 53.40625 69.882812 53.660156 62.351562 C 53.664062 62.351562 53.664062 62.355469 53.667969 62.355469 C 53.820312 62.355469 53.9375 62.234375 53.9375 62.085938 C 53.90625 52.925781 53.015625 40.585938 53.007812 40.460938 C 52.996094 40.3125 52.867188 40.203125 52.722656 40.214844 C 52.574219 40.226562 52.460938 40.355469 52.472656 40.5 C 52.476562 40.539062 52.558594 41.683594 52.675781 43.511719 C 52.265625 46 51.414062 47.621094 51.339844 47.75 C 53.714844 39.578125 48.824219 32.191406 47.164062 29.996094 C 46.523438 28.5 45.984375 27.664062 45.96875 27.640625 C 45.886719 27.515625 45.722656 27.480469 45.597656 27.5625 C 45.472656 27.644531 45.441406 27.8125 45.519531 27.9375 C 45.550781 27.980469 48.050781 31.859375 48.625 37.964844 C 48.296875 36.878906 47.8125 35.597656 47.097656 34.28125 C 47.027344 34.15625 46.875 34.109375 46.742188 34.171875 C 46.066406 32.777344 45.28125 31.402344 44.425781 30.066406 C 43.6875 28.910156 42.90625 27.785156 42.097656 26.707031 C 46.929688 27.398438 57.035156 27.917969 65.820312 22.335938 C 66.003906 22.765625 66.171875 23.203125 66.328125 23.640625 C 66.195312 23.691406 66.121094 23.835938 66.164062 23.972656 C 66.1875 24.050781 68.597656 31.871094 67.824219 47 C 67.8125 47.144531 67.925781 47.269531 68.074219 47.277344 Z M 62.867188 36.878906 C 61.015625 31.058594 58.511719 28.984375 58.40625 28.902344 C 58.289062 28.808594 58.121094 28.828125 58.027344 28.941406 C 57.9375 29.058594 57.953125 29.226562 58.066406 29.320312 C 58.09375 29.339844 60.570312 31.410156 62.371094 37.105469 C 64.035156 42.378906 65.441406 51.914062 62.675781 67.414062 C 62.648438 67.5625 62.746094 67.699219 62.894531 67.726562 C 62.910156 67.730469 62.925781 67.730469 62.941406 67.730469 C 63.066406 67.730469 63.183594 67.640625 63.207031 67.507812 C 65.996094 51.855469 64.5625 42.214844 62.867188 36.878906 Z M 33.253906 25.21875 C 33.253906 25.21875 33.25 25.207031 33.242188 25.183594 C 33.234375 25.1875 33.222656 25.1875 33.214844 25.191406 C 33.226562 25.199219 33.242188 25.210938 33.253906 25.21875 Z M 33.253906 25.21875 " fill-opacity="1" fill-rule="nonzero"/><path fill="#121119" d="M 10.1875 22.523438 C 9.160156 22.003906 8.132812 21.394531 7.140625 20.671875 C 7.574219 19.910156 8.027344 19.164062 8.5 18.441406 C 8.5 18.441406 8.503906 18.4375 8.503906 18.4375 C 8.546875 18.371094 8.597656 18.304688 8.640625 18.234375 C 9.074219 17.582031 9.519531 16.945312 9.980469 16.332031 C 11 14.96875 12.089844 13.707031 13.234375 12.554688 C 13.433594 12.351562 13.640625 12.15625 13.84375 11.960938 C 13.957031 11.855469 14.070312 11.746094 14.183594 11.640625 C 14.410156 11.429688 14.640625 11.21875 14.875 11.015625 C 15.230469 11.636719 15.6875 12.378906 16.234375 13.1875 C 14.070312 15.25 11.855469 18.230469 10.1875 22.523438 Z M 10.675781 22.757812 C 15.984375 25.261719 21.445312 25.351562 24.457031 25.136719 C 25.050781 24.0625 25.628906 23.058594 26.152344 22.164062 C 21.8125 20.160156 18.59375 16.542969 16.550781 13.636719 C 14.441406 15.652344 12.296875 18.566406 10.675781 22.757812 Z M 65.816406 22.332031 C 65.082031 20.558594 64.164062 18.847656 63.082031 17.222656 C 61.019531 14.117188 58.390625 11.339844 55.382812 9.082031 C 55.34375 9.054688 55.304688 9.023438 55.265625 8.996094 C 53.417969 12.160156 47.984375 19.96875 38.351562 22.101562 C 39.285156 23.167969 40.25 24.316406 41.199219 25.53125 C 41.5 25.917969 41.800781 26.308594 42.097656 26.707031 C 46.925781 27.398438 57.03125 27.914062 65.816406 22.332031 Z M 65.816406 22.332031 " fill-opacity="1" fill-rule="nonzero"/><g clip-path="url(#1febd4ff6c)"><path fill="#121119" d="M 68.355469 47.023438 C 68.347656 47.167969 68.230469 47.277344 68.089844 47.277344 C 68.085938 47.277344 68.078125 47.277344 68.074219 47.277344 C 67.773438 52.617188 67.210938 58.105469 66.566406 63.191406 C 66.710938 63.210938 66.816406 63.34375 66.796875 63.492188 C 66.785156 63.574219 65.738281 71.785156 64.550781 78.382812 C 63.375 84.925781 61.992188 94.015625 63.574219 97.464844 C 63.636719 97.601562 63.574219 97.761719 63.441406 97.820312 C 63.40625 97.839844 63.367188 97.84375 63.328125 97.84375 C 63.226562 97.84375 63.128906 97.785156 63.085938 97.6875 C 63.015625 97.535156 62.953125 97.371094 62.894531 97.199219 C 61.019531 95.242188 61.082031 90.480469 61.101562 89.851562 C 61.0625 90.460938 60.941406 91.105469 60.757812 91.777344 C 58.914062 98.542969 50.460938 108.03125 49.882812 108.664062 C 52.828125 104.695312 54.414062 94.765625 55.144531 87.371094 C 55.699219 81.742188 55.761719 77.574219 55.546875 78.621094 C 55.511719 78.78125 55.46875 79.082031 55.417969 79.527344 C 55.390625 79.765625 55.351562 80.003906 55.308594 80.246094 C 53.976562 87.210938 44.164062 97.820312 44.164062 97.820312 C 45.238281 95.835938 47.039062 91.480469 48.789062 86.125 C 51.144531 78.914062 53.410156 69.878906 53.664062 62.347656 C 53.519531 62.34375 53.402344 62.226562 53.402344 62.082031 C 53.382812 55.695312 52.941406 47.753906 52.675781 43.507812 C 52.265625 45.996094 51.414062 47.617188 51.339844 47.746094 C 53.714844 39.574219 48.824219 32.183594 47.164062 29.992188 C 48.152344 32.296875 49.378906 36.171875 49.273438 41.035156 C 49.273438 41.144531 49.203125 41.238281 49.105469 41.277344 C 49.113281 41.695312 49.113281 41.9375 49.113281 41.9375 C 49.09375 41.722656 49.070312 41.507812 49.042969 41.289062 C 49.03125 41.292969 49.023438 41.296875 49.015625 41.296875 C 49.011719 41.296875 49.007812 41.296875 49.007812 41.296875 C 48.871094 41.296875 48.753906 41.191406 48.738281 41.054688 C 48.738281 41.019531 48.421875 37.832031 46.632812 34.535156 C 46.5625 34.402344 46.609375 34.242188 46.738281 34.171875 C 46.742188 34.167969 46.746094 34.167969 46.75 34.167969 C 46.070312 32.777344 45.285156 31.402344 44.433594 30.0625 C 43.695312 28.90625 42.910156 27.785156 42.105469 26.703125 C 42.105469 26.703125 42.105469 26.703125 42.101562 26.703125 C 41.804688 26.304688 41.503906 25.914062 41.207031 25.527344 C 40.253906 24.3125 39.292969 23.164062 38.355469 22.101562 C 36.578125 20.082031 34.90625 18.378906 33.636719 17.148438 C 33.417969 19.925781 34.613281 22.414062 34.683594 22.554688 C 33.308594 21.777344 32.769531 20.785156 32.570312 20.003906 C 32.546875 21.21875 32.707031 22.921875 33.433594 24.832031 C 33.484375 24.96875 33.414062 25.125 33.277344 25.179688 C 33.269531 25.183594 33.261719 25.183594 33.253906 25.183594 C 33.261719 25.207031 33.265625 25.21875 33.265625 25.21875 C 33.25 25.210938 33.238281 25.199219 33.222656 25.191406 C 33.210938 25.191406 33.195312 25.199219 33.183594 25.199219 C 33.074219 25.199219 32.972656 25.132812 32.933594 25.027344 C 32.925781 25.003906 32.917969 24.984375 32.910156 24.960938 C 30.589844 23.164062 29.960938 19.738281 29.847656 17.167969 C 29.847656 17.167969 29.847656 17.167969 29.84375 17.167969 C 29.609375 17.523438 29.351562 17.921875 29.074219 18.347656 C 29.070312 18.390625 29.0625 18.433594 29.035156 18.472656 C 28.933594 18.628906 18.996094 34.257812 18.929688 40.484375 C 18.925781 40.59375 18.859375 40.691406 18.753906 40.730469 C 18.730469 40.742188 18.703125 40.746094 18.679688 40.746094 C 18.683594 40.820312 18.691406 40.886719 18.703125 40.957031 C 18.703125 40.957031 18.652344 40.882812 18.578125 40.738281 C 18.535156 40.722656 18.496094 40.703125 18.460938 40.667969 C 18.375 40.574219 16.878906 38.890625 17.542969 34.746094 C 17.128906 35.640625 16.65625 36.75 16.226562 37.96875 C 16.238281 37.972656 16.253906 37.972656 16.265625 37.980469 C 16.394531 38.054688 16.445312 38.214844 16.375 38.347656 C 14.589844 41.632812 15.378906 46.246094 15.382812 46.292969 C 15.402344 46.40625 15.347656 46.523438 15.242188 46.574219 C 15.207031 46.59375 15.160156 46.605469 15.121094 46.605469 C 15.050781 46.605469 14.984375 46.578125 14.929688 46.527344 C 13.738281 45.324219 13.078125 43.757812 12.753906 42.097656 C 12.589844 44.085938 12.089844 51.011719 12.25 59.855469 C 12.691406 61.550781 13.09375 63.109375 13.378906 64.230469 C 14.175781 67.421875 17.007812 78.207031 19.980469 83.054688 C 22.902344 87.816406 24.878906 90.070312 26.8125 92.148438 C 26.914062 92.253906 26.90625 92.425781 26.796875 92.527344 C 26.746094 92.574219 26.679688 92.597656 26.613281 92.597656 C 26.542969 92.597656 26.46875 92.570312 26.417969 92.511719 C 26.410156 92.503906 26.40625 92.496094 26.398438 92.492188 C 25.089844 92.722656 20.082031 93.332031 16.039062 90.144531 C 16.035156 90.140625 16.035156 90.140625 16.03125 90.140625 C 16.789062 92.898438 17.6875 95.554688 18.75 98.039062 C 20.375 101.835938 22.390625 105.226562 24.875 107.957031 C 24.445312 107.625 11.21875 97.183594 9.121094 87.914062 C 9.085938 90.480469 8.914062 93.613281 8.402344 96.335938 C 8.378906 96.464844 8.265625 96.554688 8.140625 96.554688 C 8.125 96.554688 8.109375 96.554688 8.09375 96.550781 C 7.738281 98.554688 7.230469 100.605469 6.511719 102.421875 C 6.511719 102.421875 6.519531 102.421875 6.519531 102.421875 C 6.65625 102.484375 6.714844 102.644531 6.652344 102.78125 C 6.605469 102.890625 5.421875 105.476562 3.609375 106.996094 C 3.558594 107.039062 3.496094 107.058594 3.433594 107.058594 C 3.429688 107.058594 3.429688 107.058594 3.425781 107.058594 C 3.410156 107.070312 3.394531 107.085938 3.378906 107.097656 C 3.378906 107.097656 3.382812 107.082031 3.386719 107.050781 C 3.355469 107.046875 3.324219 107.035156 3.296875 107.019531 C 3.199219 106.960938 3.148438 106.847656 3.171875 106.734375 C 3.195312 106.632812 5.320312 96.367188 5.363281 86.53125 C 5.367188 84.886719 5.296875 83.371094 5.167969 81.914062 C 4.949219 80.234375 4.671875 78.253906 4.363281 76.0625 C 4.21875 75.210938 4.0625 74.351562 3.902344 73.464844 C 3.074219 68.902344 2.132812 63.730469 1.695312 55.898438 C 1.6875 55.75 1.800781 55.625 1.945312 55.613281 C 1.75 53.234375 1.597656 50.863281 1.511719 48.542969 C 1.492188 48.550781 1.472656 48.558594 1.453125 48.5625 C 1.445312 48.5625 1.433594 48.5625 1.425781 48.5625 C 1.289062 48.5625 1.171875 48.460938 1.15625 48.324219 C 0.113281 38.683594 3.230469 28.960938 3.261719 28.867188 C 3.308594 28.726562 3.460938 28.648438 3.597656 28.691406 C 4.523438 25.878906 5.730469 23.175781 7.152344 20.671875 C 7.585938 19.910156 8.042969 19.164062 8.515625 18.441406 C 8.515625 18.441406 8.515625 18.4375 8.515625 18.4375 C 8.5625 18.371094 8.609375 18.304688 8.652344 18.234375 C 9.085938 17.582031 9.53125 16.945312 9.992188 16.332031 C 11.011719 14.96875 12.101562 13.707031 13.246094 12.554688 C 13.449219 12.351562 13.652344 12.15625 13.859375 11.960938 C 13.96875 11.855469 14.085938 11.746094 14.195312 11.640625 C 14.425781 11.429688 14.65625 11.21875 14.886719 11.015625 C 15.460938 10.515625 16.042969 10.046875 16.636719 9.601562 C 16.558594 9.492188 16.566406 9.339844 16.667969 9.246094 C 21.324219 4.984375 27.441406 5.160156 28.171875 5.195312 C 29.109375 4.777344 40.042969 0.101562 49.394531 5.230469 C 49.519531 5.296875 49.5625 5.449219 49.503906 5.578125 C 51.53125 6.5 53.46875 7.648438 55.269531 8.992188 C 55.3125 9.019531 55.347656 9.050781 55.390625 9.078125 C 58.398438 11.339844 61.027344 14.117188 63.089844 17.21875 C 64.167969 18.847656 65.089844 20.554688 65.824219 22.328125 C 66.007812 22.761719 66.175781 23.199219 66.332031 23.636719 C 66.335938 23.636719 66.339844 23.632812 66.34375 23.632812 C 66.484375 23.585938 66.636719 23.667969 66.679688 23.804688 C 66.695312 23.886719 69.136719 31.785156 68.355469 47.023438 Z M 68.355469 47.023438 " fill-opacity="1" fill-rule="nonzero"/></g><path fill="#121119" d="M 4.355469 76.058594 C 4.691406 78.007812 4.976562 79.902344 5.15625 81.914062 C 4.9375 80.230469 4.660156 78.253906 4.355469 76.058594 Z M 8.5 18.441406 C 8.5 18.441406 8.503906 18.4375 8.503906 18.4375 C 8.503906 18.4375 8.5 18.441406 8.5 18.441406 Z M 3.363281 107.097656 C 3.382812 107.085938 3.398438 107.070312 3.414062 107.054688 C 3.402344 107.054688 3.386719 107.054688 3.371094 107.050781 C 3.367188 107.078125 3.363281 107.097656 3.363281 107.097656 Z M 8.640625 18.234375 C 9.074219 17.582031 9.519531 16.945312 9.980469 16.332031 C 9.519531 16.945312 9.074219 17.582031 8.640625 18.234375 Z M 13.847656 11.960938 C 13.960938 11.855469 14.074219 11.746094 14.183594 11.640625 C 14.070312 11.746094 13.960938 11.855469 13.847656 11.960938 Z M 18.570312 40.730469 C 18.644531 40.875 18.691406 40.949219 18.691406 40.949219 C 18.683594 40.882812 18.675781 40.8125 18.667969 40.742188 C 18.664062 40.742188 18.65625 40.746094 18.648438 40.746094 C 18.621094 40.746094 18.597656 40.738281 18.570312 40.730469 Z M 20 28.296875 C 20.132812 28.363281 20.191406 28.523438 20.125 28.65625 C 19.402344 30.175781 18.898438 31.515625 18.554688 32.703125 C 18.589844 32.636719 18.621094 32.585938 18.632812 32.5625 C 18.578125 32.714844 18.523438 32.859375 18.472656 33.007812 C 17.507812 36.539062 18.007812 38.621094 18.441406 39.601562 C 18.902344 35.824219 21.855469 29.828125 24.453125 25.136719 C 21.445312 25.351562 15.984375 25.261719 10.675781 22.757812 C 9.664062 25.375 8.855469 28.484375 8.394531 32.1875 C 8.378906 32.324219 8.261719 32.421875 8.128906 32.421875 C 8.121094 32.421875 8.109375 32.421875 8.097656 32.421875 C 7.949219 32.402344 7.84375 32.265625 7.863281 32.121094 C 8.332031 28.355469 9.15625 25.1875 10.191406 22.523438 C 9.164062 22.003906 8.140625 21.394531 7.144531 20.671875 C 5.71875 23.175781 4.515625 25.878906 3.589844 28.691406 C 3.589844 28.691406 3.589844 28.691406 3.59375 28.691406 C 3.734375 28.738281 3.808594 28.890625 3.765625 29.03125 C 3.734375 29.128906 0.652344 38.742188 1.683594 48.265625 C 1.695312 48.394531 1.617188 48.503906 1.5 48.542969 C 1.589844 50.863281 1.742188 53.234375 1.9375 55.613281 C 1.9375 55.613281 1.9375 55.613281 1.941406 55.613281 C 2.089844 55.609375 2.21875 55.71875 2.222656 55.867188 C 2.660156 63.664062 3.59375 68.820312 4.421875 73.367188 C 5.21875 77.773438 5.914062 81.578125 5.890625 86.535156 C 5.855469 94.804688 4.355469 103.371094 3.851562 106.019531 C 5.238281 104.558594 6.144531 102.578125 6.152344 102.558594 C 6.214844 102.425781 6.367188 102.367188 6.5 102.421875 C 7.21875 100.605469 7.726562 98.554688 8.082031 96.550781 C 8.078125 96.550781 8.078125 96.550781 8.078125 96.550781 C 7.929688 96.523438 7.835938 96.382812 7.859375 96.238281 C 8.9375 90.507812 8.488281 82.914062 8.484375 82.835938 C 8.476562 82.6875 8.585938 82.5625 8.734375 82.554688 C 8.886719 82.550781 9.011719 82.65625 9.019531 82.804688 C 9.023438 82.828125 9.066406 83.570312 9.09375 84.753906 C 9.925781 87.015625 12.941406 94.246094 18.738281 98.039062 C 17.671875 95.554688 16.773438 92.898438 16.019531 90.140625 C 16.023438 90.140625 16.023438 90.140625 16.023438 90.144531 L 11.792969 72.882812 C 11.988281 73.535156 15.910156 86.441406 24.695312 90.613281 C 23.230469 88.902344 21.613281 86.761719 19.507812 83.332031 C 16.492188 78.421875 13.640625 67.570312 12.839844 64.359375 C 11.769531 60.058594 8.90625 49.386719 8.878906 49.277344 C 8.839844 49.136719 8.925781 48.984375 9.066406 48.949219 C 9.210938 48.910156 9.359375 48.996094 9.398438 49.136719 C 9.417969 49.214844 10.988281 55.066406 12.242188 59.847656 C 12.078125 51.003906 12.578125 44.078125 12.742188 42.089844 C 11.863281 37.566406 13.476562 32.367188 13.570312 32.070312 C 13.613281 31.929688 13.765625 31.847656 13.90625 31.894531 C 14.046875 31.941406 14.125 32.089844 14.078125 32.234375 C 14.050781 32.324219 11.363281 40.984375 14.730469 45.480469 C 14.582031 43.929688 14.488281 40.667969 15.890625 38.082031 C 15.957031 37.960938 16.09375 37.917969 16.214844 37.960938 C 16.644531 36.742188 17.117188 35.632812 17.53125 34.738281 C 17.800781 33.054688 18.421875 30.972656 19.640625 28.421875 C 19.703125 28.289062 19.867188 28.234375 20 28.296875 Z M 49.109375 41.9375 C 49.109375 41.9375 49.109375 41.695312 49.097656 41.277344 C 49.078125 41.285156 49.058594 41.285156 49.035156 41.289062 C 49.0625 41.507812 49.089844 41.722656 49.109375 41.9375 Z M 38.347656 22.097656 C 39.28125 23.164062 40.246094 24.3125 41.199219 25.527344 C 40.246094 24.3125 39.28125 23.164062 38.347656 22.097656 C 36.570312 20.078125 34.894531 18.378906 33.625 17.148438 C 33.410156 19.925781 34.605469 22.414062 34.675781 22.554688 C 33.300781 21.777344 32.761719 20.785156 32.5625 20.003906 C 32.582031 18.8125 32.78125 18.082031 32.785156 18.066406 C 32.824219 17.925781 32.742188 17.777344 32.597656 17.734375 C 32.453125 17.699219 32.304688 17.78125 32.265625 17.921875 C 32.230469 18.046875 31.425781 21.027344 32.894531 24.957031 C 30.578125 23.15625 29.949219 19.730469 29.832031 17.164062 C 29.832031 17.164062 29.832031 17.164062 29.832031 17.160156 C 29.832031 17.160156 29.832031 17.164062 29.832031 17.164062 C 29.597656 17.519531 29.335938 17.914062 29.0625 18.339844 C 29.066406 18.246094 29.027344 18.148438 28.941406 18.09375 C 28.816406 18.015625 28.648438 18.050781 28.570312 18.175781 C 28.445312 18.371094 27.460938 19.921875 26.148438 22.160156 C 21.804688 20.15625 18.585938 16.539062 16.542969 13.632812 C 17.378906 12.832031 18.207031 12.167969 18.996094 11.628906 C 23.339844 8.628906 27.390625 8.453125 27.433594 8.453125 C 27.582031 8.449219 27.695312 8.324219 27.691406 8.175781 C 27.6875 8.023438 27.566406 7.902344 27.414062 7.914062 C 27.242188 7.921875 23.1875 8.09375 18.714844 11.167969 C 17.917969 11.714844 17.078125 12.382812 16.234375 13.1875 C 15.683594 12.378906 15.230469 11.632812 14.875 11.015625 C 15.445312 10.511719 16.027344 10.042969 16.625 9.601562 C 16.628906 9.609375 16.632812 9.617188 16.636719 9.625 C 16.691406 9.683594 16.761719 9.710938 16.835938 9.710938 C 16.902344 9.710938 16.964844 9.6875 17.019531 9.640625 C 21.773438 5.285156 28.125 5.726562 28.191406 5.734375 C 28.238281 5.738281 28.285156 5.730469 28.328125 5.707031 C 28.4375 5.652344 39.628906 0.488281 49.121094 5.695312 C 49.25 5.769531 49.414062 5.722656 49.484375 5.589844 C 49.488281 5.585938 49.488281 5.582031 49.492188 5.574219 C 51.519531 6.496094 53.457031 7.648438 55.257812 8.992188 C 53.417969 12.160156 47.984375 19.96875 38.347656 22.097656 Z M 25.992188 11.171875 C 25.859375 11.132812 22.75 10.308594 19.929688 14.675781 C 19.851562 14.800781 19.886719 14.96875 20.011719 15.046875 C 20.054688 15.078125 20.105469 15.089844 20.15625 15.089844 C 20.242188 15.089844 20.328125 15.046875 20.378906 14.96875 C 22.972656 10.953125 25.726562 11.65625 25.84375 11.6875 C 25.984375 11.726562 26.132812 11.644531 26.175781 11.503906 C 26.21875 11.359375 26.132812 11.210938 25.992188 11.171875 Z M 30.199219 7.605469 C 30.261719 7.742188 30.421875 7.796875 30.558594 7.730469 C 30.640625 7.691406 38.777344 3.839844 46.121094 8.414062 C 46.167969 8.441406 46.214844 8.453125 46.265625 8.453125 C 46.355469 8.453125 46.441406 8.410156 46.492188 8.328125 C 46.570312 8.203125 46.535156 8.035156 46.40625 7.957031 C 38.804688 3.226562 30.40625 7.207031 30.324219 7.246094 C 30.1875 7.3125 30.132812 7.472656 30.199219 7.605469 Z M 42.519531 12 C 42.574219 12.054688 42.644531 12.078125 42.710938 12.078125 C 42.78125 12.078125 42.847656 12.054688 42.898438 12.003906 C 43.007812 11.898438 43.007812 11.726562 42.90625 11.621094 C 38.449219 7.089844 31.3125 8.710938 31.242188 8.730469 C 31.097656 8.765625 31.011719 8.910156 31.042969 9.054688 C 31.078125 9.199219 31.222656 9.285156 31.367188 9.253906 C 31.433594 9.238281 38.28125 7.6875 42.519531 12 Z M 68.074219 47.277344 C 67.773438 52.617188 67.210938 58.105469 66.566406 63.191406 C 66.417969 63.175781 66.28125 63.277344 66.265625 63.425781 C 66.253906 63.507812 65.203125 71.703125 64.019531 78.292969 C 62.882812 84.621094 61.5625 93.328125 62.894531 97.203125 C 61.015625 95.246094 61.078125 90.484375 61.097656 89.855469 C 61.0625 90.464844 60.941406 91.109375 60.757812 91.785156 C 60.839844 90.683594 60.945312 89.585938 61.078125 88.535156 C 61.984375 81.3125 60.5625 76.097656 60.5625 76.097656 C 61.324219 84.878906 55.757812 98.503906 55.757812 98.503906 C 56.136719 95.285156 55.605469 90.539062 55.140625 87.375 C 55.699219 81.746094 55.761719 77.582031 55.542969 78.625 L 55.632812 76.648438 C 55.632812 76.648438 53.472656 82.492188 48.789062 86.128906 C 51.144531 78.917969 53.40625 69.882812 53.660156 62.351562 C 53.664062 62.351562 53.664062 62.355469 53.667969 62.355469 C 53.820312 62.355469 53.9375 62.234375 53.9375 62.085938 C 53.90625 52.925781 53.015625 40.585938 53.007812 40.460938 C 52.996094 40.3125 52.867188 40.203125 52.722656 40.214844 C 52.574219 40.226562 52.460938 40.355469 52.472656 40.5 C 52.476562 40.539062 52.558594 41.683594 52.675781 43.511719 C 52.265625 46 51.414062 47.621094 51.339844 47.75 C 53.714844 39.578125 48.824219 32.191406 47.164062 29.996094 C 46.523438 28.5 45.984375 27.664062 45.96875 27.640625 C 45.886719 27.515625 45.722656 27.480469 45.597656 27.5625 C 45.472656 27.644531 45.441406 27.8125 45.519531 27.9375 C 45.550781 27.980469 48.050781 31.859375 48.625 37.964844 C 48.296875 36.878906 47.8125 35.597656 47.097656 34.28125 C 47.027344 34.15625 46.875 34.109375 46.742188 34.171875 C 46.066406 32.777344 45.28125 31.402344 44.425781 30.066406 C 43.6875 28.910156 42.90625 27.785156 42.097656 26.707031 C 46.929688 27.398438 57.035156 27.917969 65.820312 22.335938 C 66.003906 22.765625 66.171875 23.203125 66.328125 23.640625 C 66.195312 23.691406 66.121094 23.835938 66.164062 23.972656 C 66.1875 24.050781 68.597656 31.871094 67.824219 47 C 67.8125 47.144531 67.925781 47.269531 68.074219 47.277344 Z M 62.867188 36.878906 C 61.015625 31.058594 58.511719 28.984375 58.40625 28.902344 C 58.289062 28.808594 58.121094 28.828125 58.027344 28.941406 C 57.9375 29.058594 57.953125 29.226562 58.066406 29.320312 C 58.09375 29.339844 60.570312 31.410156 62.371094 37.105469 C 64.035156 42.378906 65.441406 51.914062 62.675781 67.414062 C 62.648438 67.5625 62.746094 67.699219 62.894531 67.726562 C 62.910156 67.730469 62.925781 67.730469 62.941406 67.730469 C 63.066406 67.730469 63.183594 67.640625 63.207031 67.507812 C 65.996094 51.855469 64.5625 42.214844 62.867188 36.878906 Z M 33.253906 25.21875 C 33.253906 25.21875 33.25 25.207031 33.242188 25.183594 C 33.234375 25.1875 33.222656 25.1875 33.214844 25.191406 C 33.226562 25.199219 33.242188 25.210938 33.253906 25.21875 Z M 33.253906 25.21875 " fill-opacity="1" fill-rule="nonzero"/><path fill="#121119" d="M 10.1875 22.523438 C 9.160156 22.003906 8.132812 21.394531 7.140625 20.671875 C 7.574219 19.910156 8.027344 19.164062 8.5 18.441406 C 8.5 18.441406 8.503906 18.4375 8.503906 18.4375 C 8.546875 18.371094 8.597656 18.304688 8.640625 18.234375 C 9.074219 17.582031 9.519531 16.945312 9.980469 16.332031 C 11 14.96875 12.089844 13.707031 13.234375 12.554688 C 13.433594 12.351562 13.640625 12.15625 13.84375 11.960938 C 13.957031 11.855469 14.070312 11.746094 14.183594 11.640625 C 14.410156 11.429688 14.640625 11.21875 14.875 11.015625 C 15.230469 11.636719 15.6875 12.378906 16.234375 13.1875 C 14.070312 15.25 11.855469 18.230469 10.1875 22.523438 Z M 10.675781 22.757812 C 15.984375 25.261719 21.445312 25.351562 24.457031 25.136719 C 25.050781 24.0625 25.628906 23.058594 26.152344 22.164062 C 21.8125 20.160156 18.59375 16.542969 16.550781 13.636719 C 14.441406 15.652344 12.296875 18.566406 10.675781 22.757812 Z M 65.816406 22.332031 C 65.082031 20.558594 64.164062 18.847656 63.082031 17.222656 C 61.019531 14.117188 58.390625 11.339844 55.382812 9.082031 C 55.34375 9.054688 55.304688 9.023438 55.265625 8.996094 C 53.417969 12.160156 47.984375 19.96875 38.351562 22.101562 C 39.285156 23.167969 40.25 24.316406 41.199219 25.53125 C 41.5 25.917969 41.800781 26.308594 42.097656 26.707031 C 46.925781 27.398438 57.03125 27.914062 65.816406 22.332031 Z M 65.816406 22.332031 " fill-opacity="1" fill-rule="nonzero"/></svg>