<svg xmlns="http://www.w3.org/2000/svg" xmlns:xlink="http://www.w3.org/1999/xlink" width="159" zoomAndPan="magnify" viewBox="0 0 119.25 127.499994" height="170" preserveAspectRatio="xMidYMid meet" version="1.0"><defs><clipPath id="d0933e641a"><path d="M 2 0.148438 L 118 0.148438 L 118 126.109375 L 2 126.109375 Z M 2 0.148438 " clip-rule="nonzero"/></clipPath><clipPath id="103106529c"><path d="M 2 0.148438 L 118 0.148438 L 118 126.109375 L 2 126.109375 Z M 2 0.148438 " clip-rule="nonzero"/></clipPath></defs><g clip-path="url(#d0933e641a)"><path fill="#000000" d="M 115.023438 89.945312 C 115.023438 89.945312 113.5625 98.816406 104.429688 99.285156 C 103.199219 99.347656 102.070312 99.265625 101.03125 99.085938 C 102.503906 100.835938 103.976562 102.949219 105.234375 105.175781 C 105.394531 105.085938 105.59375 105.140625 105.683594 105.296875 C 105.878906 105.632812 110.402344 113.570312 108.851562 117.894531 C 108.800781 118.03125 108.675781 118.113281 108.539062 118.113281 C 108.507812 118.113281 108.472656 118.105469 108.4375 118.097656 C 108.28125 118.546875 108.066406 118.957031 107.789062 119.328125 C 106.6875 120.800781 105.25 121.675781 103.683594 122.160156 C 103.683594 122.171875 103.695312 122.183594 103.699219 122.195312 C 103.726562 122.378906 103.609375 122.546875 103.425781 122.578125 C 101.980469 122.832031 100.644531 122.929688 99.445312 122.929688 C 95.585938 122.929688 93.15625 121.921875 93.027344 121.867188 C 92.871094 121.804688 92.792969 121.636719 92.835938 121.472656 C 92.878906 121.3125 93.035156 121.210938 93.203125 121.234375 C 93.226562 121.238281 95.695312 121.546875 99.386719 120.011719 C 102.914062 118.546875 102.15625 114.515625 102.125 114.34375 C 102.089844 114.164062 102.203125 113.996094 102.378906 113.957031 C 102.351562 113.851562 102.332031 113.746094 102.300781 113.636719 C 101.992188 112.496094 101.5 111.582031 100.875 110.832031 C 100.863281 110.839844 100.855469 110.855469 100.839844 110.863281 C 100.785156 110.898438 100.726562 110.914062 100.664062 110.914062 C 100.554688 110.914062 100.445312 110.859375 100.382812 110.757812 C 99.140625 108.773438 95.054688 107.632812 95.011719 107.621094 C 94.828125 107.570312 90.554688 106.339844 88.785156 102.898438 C 88.023438 104.140625 87.390625 105.316406 87.003906 106.449219 C 87.175781 106.503906 87.269531 106.691406 87.21875 106.863281 C 87.171875 107 86.183594 110.222656 88.679688 112.449219 C 89.386719 113.082031 90.324219 113.339844 91.476562 113.222656 C 93.976562 112.964844 96.617188 111.058594 97.566406 109.78125 C 97.675781 109.632812 97.882812 109.605469 98.027344 109.714844 C 98.175781 109.824219 98.207031 110.03125 98.097656 110.175781 C 97.964844 110.359375 97.804688 110.542969 97.628906 110.726562 C 97.308594 111.707031 96.554688 113.445312 94.964844 114.691406 C 95.058594 114.816406 95.058594 114.992188 94.949219 115.113281 C 93.777344 116.382812 92.105469 116.671875 90.824219 116.671875 C 89.804688 116.671875 89.035156 116.488281 88.964844 116.472656 C 88.789062 116.429688 88.679688 116.246094 88.722656 116.070312 C 88.730469 116.046875 88.742188 116.023438 88.753906 116.003906 C 88.527344 115.964844 88.296875 115.921875 88.054688 115.871094 C 85.21875 115.246094 83.300781 113.730469 82.214844 111.71875 C 80.109375 114.207031 76.765625 113.949219 76.765625 113.949219 C 79.878906 112.761719 80.496094 109.390625 79.570312 106.058594 C 79.160156 104.585938 78.445312 103.125 77.507812 101.859375 C 76.710938 100.777344 75.75 99.84375 74.675781 99.183594 C 69.523438 96.015625 65.207031 88.695312 70.714844 81.390625 C 73.816406 77.277344 75.011719 72.871094 75.464844 69.804688 C 75.824219 67.425781 75.730469 65.851562 75.730469 65.851562 L 75.730469 65.847656 C 75.0625 63.984375 74.726562 62.007812 74.625 59.953125 C 74.621094 59.953125 74.613281 59.953125 74.609375 59.953125 C 74.449219 59.953125 74.304688 59.835938 74.28125 59.667969 C 73.691406 55.667969 74.921875 50.136719 76.339844 43.730469 C 76.71875 42.03125 77.105469 40.277344 77.472656 38.503906 C 78.074219 35.554688 78.257812 33.25 78.246094 31.507812 C 73.621094 28.933594 71.136719 25.59375 69.972656 23.601562 C 69.78125 24.410156 69.496094 25.941406 69.832031 27.03125 C 70.015625 27.207031 70.214844 27.371094 70.429688 27.515625 C 70.582031 27.613281 70.625 27.820312 70.527344 27.972656 C 70.464844 28.066406 70.359375 28.121094 70.25 28.121094 C 70.1875 28.121094 70.125 28.101562 70.066406 28.066406 C 67.789062 26.582031 67.175781 23.296875 67.015625 21.511719 C 65.882812 23.425781 63.53125 26.464844 59.527344 27.765625 C 59.496094 27.773438 59.460938 27.78125 59.425781 27.78125 C 59.285156 27.78125 59.15625 27.691406 59.113281 27.550781 C 59.058594 27.375 59.152344 27.191406 59.324219 27.132812 C 59.640625 27.03125 59.941406 26.914062 60.238281 26.792969 C 61.027344 26.089844 62.203125 24.855469 62.949219 23.226562 C 62.933594 23.21875 62.914062 23.214844 62.898438 23.203125 C 62.746094 23.101562 62.707031 22.894531 62.804688 22.746094 C 62.808594 22.734375 63.035156 22.382812 63.253906 21.664062 C 63.011719 21.632812 62.582031 21.578125 61.992188 21.546875 C 61.980469 21.730469 61.828125 21.875 61.644531 21.859375 C 61.585938 21.855469 55.902344 21.609375 51.414062 23.796875 C 51.367188 23.820312 51.316406 23.832031 51.269531 23.832031 C 51.144531 23.832031 51.027344 23.761719 50.96875 23.644531 C 50.96875 23.640625 50.96875 23.636719 50.96875 23.632812 C 50.914062 23.65625 50.863281 23.679688 50.808594 23.703125 L 48.539062 25.125 C 48.535156 25.222656 48.496094 25.320312 48.410156 25.382812 L 46.527344 26.773438 C 46.46875 26.816406 46.398438 26.835938 46.328125 26.835938 C 46.226562 26.835938 46.128906 26.789062 46.0625 26.699219 C 46.058594 26.691406 46.058594 26.683594 46.054688 26.675781 L 45.542969 26.996094 C 45.316406 27.179688 45.09375 27.375 44.867188 27.574219 C 44.980469 27.699219 44.980469 27.894531 44.859375 28.019531 C 44.804688 28.074219 39.578125 33.527344 37.980469 37.371094 C 38.054688 37.96875 38.101562 38.394531 38.113281 38.539062 C 38.121094 38.601562 38.132812 38.722656 38.152344 38.902344 C 39.078125 47.269531 38.976562 54.652344 37.871094 59.691406 C 37.839844 59.847656 37.699219 59.953125 37.546875 59.953125 C 37.375 60.898438 37.171875 61.816406 36.929688 62.691406 C 36.523438 65.28125 36.40625 69.464844 38.816406 72.957031 C 42.609375 78.449219 50.734375 78.632812 48.902344 86.460938 C 47.070312 94.292969 46.308594 104.589844 53.234375 105.9375 C 53.234375 105.9375 52.265625 106.5625 50.832031 106.71875 C 51.589844 108.535156 52.050781 110.113281 52.089844 111.222656 C 52.335938 117.855469 49.753906 122.953125 44.421875 126.367188 C 44.367188 126.402344 44.304688 126.421875 44.242188 126.421875 C 44.148438 126.421875 44.054688 126.378906 43.988281 126.304688 C 43.878906 126.175781 43.886719 125.988281 43.996094 125.867188 C 44.039062 125.820312 48.238281 121.054688 44.347656 110.789062 C 44.285156 110.617188 44.371094 110.425781 44.539062 110.363281 C 44.542969 110.363281 44.546875 110.363281 44.546875 110.363281 C 43.585938 107.664062 42.605469 105.777344 42.605469 105.777344 C 42.410156 110.152344 40.609375 112.679688 38.382812 114.121094 C 38.476562 114.273438 38.433594 114.472656 38.28125 114.570312 C 36.078125 116.007812 33.429688 116.324219 31.523438 116.324219 C 30.097656 116.324219 29.085938 116.144531 28.992188 116.128906 C 28.859375 116.105469 28.757812 116.007812 28.726562 115.878906 C 28.699219 115.746094 28.75 115.613281 28.859375 115.535156 C 28.90625 115.503906 33.378906 112.21875 33.371094 106.417969 C 33.363281 101.148438 27.515625 94.207031 26.292969 92.8125 C 26.023438 93.253906 25.6875 93.667969 25.265625 94.027344 C 24.632812 94.5625 23.695312 95.28125 22.605469 96.109375 C 19.5625 98.433594 14.964844 101.941406 14.609375 103.617188 C 14.578125 103.773438 14.4375 103.878906 14.285156 103.878906 C 14.261719 103.878906 14.242188 103.875 14.21875 103.871094 C 14.195312 103.867188 14.175781 103.851562 14.15625 103.84375 C 13.519531 105.40625 13.617188 107.105469 14.9375 109.007812 C 15.078125 108.902344 15.277344 108.925781 15.390625 109.0625 C 15.410156 109.089844 17.519531 111.683594 19.226562 111.898438 C 19.402344 111.921875 19.527344 112.082031 19.511719 112.261719 C 22.992188 112.453125 25.050781 107.132812 25.050781 107.132812 C 25.050781 107.132812 25.773438 110.832031 23.097656 113.71875 C 23.226562 113.84375 23.234375 114.046875 23.113281 114.179688 C 20.367188 117.179688 16.058594 117.273438 15.535156 117.273438 C 15.511719 117.273438 15.496094 117.273438 15.488281 117.273438 C 15.3125 117.269531 15.175781 117.132812 15.167969 116.957031 C 13.042969 117.054688 11.277344 116.410156 9.894531 115.269531 C 9.828125 115.34375 9.738281 115.382812 9.644531 115.382812 C 9.574219 115.382812 9.503906 115.363281 9.445312 115.316406 C 5.179688 112.132812 5.292969 104.792969 7.027344 100.726562 C 7.824219 98.851562 9.871094 96.546875 12.101562 94.277344 C 6.769531 94.003906 2.886719 88.765625 2.886719 88.765625 C 10.128906 89.371094 14.105469 84.132812 15.574219 81.640625 C 13.449219 79.34375 10.652344 76.183594 7.453125 72.222656 C 0.0820312 63.101562 8.480469 55.875 8.570312 55.804688 C 8.703125 55.695312 8.894531 55.707031 9.011719 55.828125 C 9.542969 55.300781 10.105469 54.792969 10.695312 54.300781 C 10.691406 54.292969 10.683594 54.289062 10.679688 54.28125 C 10.574219 54.128906 10.609375 53.925781 10.761719 53.820312 L 16.390625 49.878906 C 16.542969 49.777344 16.75 49.8125 16.851562 49.960938 C 16.855469 49.96875 16.855469 49.972656 16.859375 49.976562 C 17.878906 49.335938 18.878906 48.722656 19.8125 48.125 C 19.800781 48.105469 19.785156 48.085938 19.777344 48.066406 C 19.714844 47.894531 19.800781 47.703125 19.96875 47.640625 C 20.019531 47.621094 24.976562 45.675781 25.304688 40.546875 C 25.417969 38.757812 25.464844 37.023438 25.507812 35.339844 C 25.597656 31.925781 25.691406 28.398438 26.359375 24.324219 C 26.390625 24.140625 26.558594 24.015625 26.738281 24.050781 C 27.242188 21.074219 28.117188 18.0625 29.683594 15.195312 C 30.457031 13.777344 31.402344 12.394531 32.550781 11.066406 C 32.40625 10.960938 32.371094 10.753906 32.480469 10.605469 C 35.222656 6.789062 42.847656 3.214844 43.171875 3.0625 C 43.339844 2.988281 43.535156 3.058594 43.613281 3.222656 C 43.617188 3.234375 43.613281 3.246094 43.621094 3.253906 C 43.746094 3.203125 43.871094 3.140625 43.996094 3.089844 C 46.761719 1.929688 49.464844 1.355469 52.035156 1.191406 C 52.035156 1.179688 52.027344 1.171875 52.027344 1.15625 C 52.015625 0.976562 52.152344 0.820312 52.335938 0.804688 C 62.964844 0.148438 71.449219 6.734375 72.523438 7.605469 C 73.683594 7.476562 81.070312 6.859375 85.363281 11.351562 C 89.925781 16.117188 89.625 22.679688 89.609375 22.957031 C 89.601562 23.117188 89.476562 23.242188 89.324219 23.261719 C 89.503906 24.554688 89.679688 25.820312 89.878906 27.046875 C 89.902344 27.191406 89.929688 27.332031 89.953125 27.476562 C 89.960938 27.472656 89.96875 27.46875 89.976562 27.46875 C 90.160156 27.453125 90.320312 27.589844 90.335938 27.769531 C 90.34375 27.867188 91.234375 37.429688 95.632812 41.28125 C 95.769531 41.402344 95.78125 41.613281 95.660156 41.75 C 95.652344 41.761719 95.636719 41.765625 95.625 41.777344 C 97.351562 43.773438 99.617188 45.535156 102.625 47.03125 C 102.699219 46.878906 102.882812 46.804688 103.042969 46.871094 C 103.484375 47.058594 113.832031 51.492188 116.355469 58.417969 C 118.414062 64.066406 117.046875 69.621094 112.296875 74.929688 C 108.972656 78.640625 107.066406 80.511719 107.046875 80.53125 C 106.984375 80.59375 106.898438 80.625 106.816406 80.625 C 106.730469 80.625 106.644531 80.589844 106.582031 80.527344 C 104.417969 82.695312 103.492188 84.128906 105.558594 86.402344 C 105.558594 86.402344 103.359375 86.695312 101.628906 85.878906 C 101.402344 87.359375 101.457031 88.992188 102.179688 90.484375 C 104.207031 94.683594 111.871094 95.019531 115.023438 89.945312 Z M 115.023438 89.945312 " fill-opacity="1" fill-rule="nonzero"/></g><path fill="#000000" d="M 14.175781 103.847656 C 13.542969 105.410156 13.636719 107.109375 14.960938 109.007812 C 14.953125 109.011719 14.949219 109.011719 14.945312 109.015625 C 14.804688 109.132812 14.78125 109.339844 14.894531 109.480469 C 14.988281 109.597656 17.191406 112.308594 19.160156 112.558594 C 19.175781 112.5625 19.191406 112.5625 19.203125 112.5625 C 19.367188 112.5625 19.511719 112.441406 19.535156 112.273438 C 19.535156 112.273438 19.535156 112.269531 19.535156 112.265625 C 23.015625 112.457031 25.074219 107.136719 25.074219 107.136719 C 25.074219 107.136719 25.792969 110.835938 23.121094 113.722656 C 23.117188 113.722656 23.117188 113.71875 23.117188 113.714844 C 22.980469 113.59375 22.769531 113.601562 22.648438 113.738281 C 20.058594 116.570312 15.792969 116.613281 15.535156 116.613281 C 15.515625 116.613281 15.519531 116.613281 15.515625 116.613281 C 15.335938 116.613281 15.1875 116.761719 15.183594 116.941406 C 15.183594 116.949219 15.1875 116.957031 15.1875 116.964844 C 13.066406 117.0625 11.296875 116.414062 9.914062 115.273438 C 9.921875 115.265625 9.929688 115.265625 9.933594 115.257812 C 10.042969 115.109375 10.011719 114.902344 9.863281 114.792969 C 5.902344 111.839844 6.03125 104.757812 7.636719 100.984375 C 8.550781 98.832031 11.285156 96 13.960938 93.351562 C 15.292969 92.203125 16.359375 91.121094 17.214844 90.128906 C 18.128906 89.199219 18.925781 88.34375 19.480469 87.621094 C 19.792969 87.210938 20.027344 86.804688 20.207031 86.410156 L 25.839844 92.300781 C 25.589844 92.753906 25.273438 93.171875 24.851562 93.527344 C 24.234375 94.050781 23.304688 94.761719 22.222656 95.585938 C 17.9375 98.855469 14.359375 101.707031 13.984375 103.480469 C 13.949219 103.640625 14.035156 103.785156 14.175781 103.847656 Z M 44.980469 110.5625 C 47.820312 118.046875 46.535156 122.683594 45.445312 124.855469 C 49.636719 121.613281 51.652344 117.042969 51.4375 111.257812 C 51.398438 110.207031 50.917969 108.558594 50.0625 106.578125 C 49.855469 106.222656 49.636719 105.867188 49.394531 105.507812 C 46.355469 101.011719 42.515625 95.867188 39.316406 90.667969 C 41.707031 95.371094 43.863281 100.167969 43.347656 104.660156 C 43.328125 104.828125 43.183594 104.953125 43.019531 104.953125 C 43.003906 104.953125 42.992188 104.953125 42.980469 104.949219 C 42.796875 104.929688 42.667969 104.765625 42.6875 104.582031 C 43.246094 99.71875 40.484375 94.367188 37.8125 89.191406 C 36.519531 86.691406 35.199219 84.128906 34.257812 81.625 C 32.972656 82.496094 31.320312 83.335938 29.25 83.875 C 31.824219 85.644531 33.605469 87.601562 33.460938 90.503906 C 33.453125 90.679688 33.304688 90.816406 33.132812 90.816406 C 33.125 90.816406 33.121094 90.816406 33.117188 90.816406 C 32.933594 90.804688 32.792969 90.652344 32.800781 90.46875 C 32.941406 87.683594 31.105469 85.855469 28.371094 84.078125 C 25.726562 84.621094 22.464844 84.679688 18.507812 83.769531 C 19.644531 84.9375 20.292969 85.546875 20.308594 85.5625 L 26.5625 92.109375 C 26.871094 92.445312 34.039062 100.308594 34.046875 106.417969 C 34.050781 111.289062 31.164062 114.414062 29.867188 115.574219 C 31.425781 115.726562 35.125 115.847656 37.933594 114.015625 C 38.085938 113.917969 38.292969 113.960938 38.390625 114.113281 C 38.394531 114.117188 38.390625 114.121094 38.394531 114.121094 C 40.621094 112.679688 42.421875 110.15625 42.617188 105.78125 C 42.617188 105.78125 43.597656 107.667969 44.5625 110.363281 C 44.730469 110.308594 44.917969 110.394531 44.980469 110.5625 Z M 80.355469 67.984375 C 78.132812 65.488281 77.539062 63.617188 77.488281 62.382812 C 77.429688 60.835938 78.179688 60.058594 78.210938 60.027344 C 78.339844 59.898438 78.550781 59.898438 78.679688 60.027344 C 78.808594 60.152344 78.808594 60.363281 78.683594 60.492188 C 78.65625 60.519531 78.089844 61.132812 78.152344 62.390625 C 78.207031 63.554688 78.816406 65.359375 81.097656 67.824219 C 81.953125 67.621094 82.820312 67.367188 83.679688 67.042969 C 84.894531 66.585938 86.078125 65.992188 87.128906 65.21875 C 88.109375 64.507812 88.96875 63.636719 89.625 62.582031 C 88.320312 61.683594 87.105469 60.777344 86.097656 59.640625 C 82.898438 56.035156 86.65625 49.296875 86.816406 49.011719 C 86.90625 48.855469 87.105469 48.796875 87.269531 48.886719 C 87.425781 48.976562 87.480469 49.179688 87.394531 49.339844 C 87.355469 49.40625 83.703125 55.949219 86.59375 59.199219 C 87.785156 60.542969 89.308594 61.570312 90.925781 62.660156 C 93.457031 64.367188 96.078125 66.132812 97.859375 69.347656 C 100.316406 73.765625 100.914062 77.515625 99.703125 81.242188 C 99.210938 83.914062 100.277344 85.238281 101.628906 85.878906 C 103.359375 86.695312 105.558594 86.402344 105.558594 86.402344 C 103.488281 84.128906 104.417969 82.695312 106.582031 80.527344 C 106.582031 80.527344 106.578125 80.527344 106.578125 80.523438 C 106.449219 80.394531 106.453125 80.1875 106.582031 80.054688 C 106.601562 80.039062 108.492188 78.175781 111.804688 74.484375 C 113.921875 72.117188 115.339844 69.707031 116.0625 67.261719 C 113.121094 69.648438 109.234375 70.15625 108.066406 70.253906 C 108.054688 70.289062 108.046875 70.328125 108.039062 70.363281 C 106.730469 75.175781 105.554688 77.113281 104.777344 78.398438 C 104.0625 79.578125 103.667969 80.226562 103.707031 82.15625 C 103.710938 82.339844 103.566406 82.492188 103.382812 82.496094 C 103.382812 82.496094 103.378906 82.496094 103.375 82.496094 C 103.195312 82.496094 103.050781 82.351562 103.042969 82.171875 C 103.003906 80.046875 103.457031 79.296875 104.207031 78.054688 C 104.96875 76.804688 106.113281 74.910156 107.398438 70.191406 C 109.792969 61.367188 100.609375 56.394531 100.515625 56.34375 C 100.503906 56.339844 100.492188 56.335938 100.484375 56.328125 C 100.417969 56.28125 93.546875 51.660156 89.597656 44.796875 C 86.679688 39.730469 86.144531 32.949219 86.066406 29.683594 C 85.71875 29.863281 85.371094 30.03125 85.019531 30.1875 C 82.828125 31.160156 80.648438 31.667969 78.917969 31.933594 C 78.898438 33.664062 78.691406 35.871094 78.125 38.632812 C 77.761719 40.414062 77.371094 42.175781 76.992188 43.875 C 75.585938 50.214844 74.371094 55.6875 74.941406 59.574219 C 74.964844 59.757812 74.839844 59.925781 74.664062 59.949219 C 74.652344 59.953125 74.640625 59.953125 74.628906 59.953125 C 74.730469 62.003906 75.066406 63.984375 75.738281 65.847656 C 76.0625 66.75 76.457031 67.625 76.949219 68.464844 C 77.933594 68.390625 79.113281 68.242188 80.355469 67.984375 Z M 106.691406 61.339844 C 107.339844 62.382812 107.875 63.566406 108.179688 64.882812 C 107.910156 63.585938 107.375 62.402344 106.691406 61.339844 Z M 98.84375 96.769531 C 98.496094 96.445312 98.195312 96.101562 97.941406 95.730469 C 97.941406 95.730469 97.9375 95.734375 97.9375 95.734375 C 97.882812 95.769531 97.820312 95.785156 97.757812 95.785156 C 97.648438 95.785156 97.542969 95.734375 97.476562 95.636719 C 94.820312 91.542969 96.886719 85.839844 98.355469 82.804688 C 98.691406 82.113281 98.953125 81.425781 99.15625 80.738281 C 98.453125 80.953125 97.265625 81.292969 95.730469 81.648438 C 94.882812 81.847656 93.925781 82.046875 92.886719 82.230469 C 92.476562 82.304688 92.050781 82.378906 91.617188 82.449219 C 91.847656 84.105469 91.722656 85.761719 91.246094 87.421875 C 91.203125 87.566406 91.070312 87.660156 90.925781 87.660156 C 90.894531 87.660156 90.867188 87.65625 90.835938 87.648438 C 90.660156 87.597656 90.554688 87.414062 90.609375 87.238281 C 91.054688 85.675781 91.175781 84.113281 90.957031 82.546875 C 89.800781 82.714844 88.570312 82.855469 87.296875 82.945312 C 88.976562 88.210938 87.777344 93.121094 84.617188 97.375 C 81.132812 102.070312 80.113281 107.824219 82.214844 111.722656 C 83.296875 113.730469 85.214844 115.25 88.054688 115.871094 C 88.292969 115.925781 88.527344 115.964844 88.753906 116.003906 C 88.820312 115.871094 88.96875 115.796875 89.121094 115.832031 C 89.15625 115.839844 92.617188 116.660156 94.460938 114.664062 C 94.585938 114.53125 94.792969 114.523438 94.925781 114.648438 C 94.941406 114.664062 94.949219 114.679688 94.960938 114.695312 C 96.550781 113.449219 97.308594 111.710938 97.625 110.730469 C 96.257812 112.171875 93.726562 113.660156 91.539062 113.882812 C 91.335938 113.90625 91.136719 113.914062 90.941406 113.914062 C 89.863281 113.914062 88.957031 113.589844 88.238281 112.949219 C 85.414062 110.425781 86.535156 106.816406 86.585938 106.664062 C 86.640625 106.492188 86.828125 106.398438 87 106.449219 C 87.386719 105.316406 88.019531 104.140625 88.78125 102.902344 C 88.746094 102.839844 88.71875 102.777344 88.6875 102.714844 C 86.984375 99.144531 89.035156 92.703125 89.121094 92.429688 C 89.179688 92.257812 89.363281 92.160156 89.539062 92.21875 C 89.710938 92.273438 89.804688 92.460938 89.75 92.632812 C 89.730469 92.695312 87.695312 99.09375 89.28125 102.429688 C 90.859375 105.742188 95.140625 106.972656 95.183594 106.984375 C 95.359375 107.035156 99.5625 108.207031 100.941406 110.410156 C 101.027344 110.550781 100.992188 110.726562 100.871094 110.832031 C 101.492188 111.585938 101.988281 112.496094 102.292969 113.640625 C 102.324219 113.746094 102.347656 113.851562 102.375 113.957031 C 102.375 113.957031 102.375 113.957031 102.378906 113.957031 C 102.558594 113.917969 102.730469 114.035156 102.769531 114.214844 C 102.777344 114.261719 103.671875 118.949219 99.636719 120.628906 C 97.875 121.359375 96.386719 121.691406 95.277344 121.832031 C 97.042969 122.207031 99.867188 122.527344 103.308594 121.929688 C 103.476562 121.902344 103.632812 122.003906 103.679688 122.160156 C 105.246094 121.675781 106.683594 120.800781 107.789062 119.328125 C 108.0625 118.960938 108.277344 118.546875 108.433594 118.097656 C 108.433594 118.097656 108.425781 118.097656 108.425781 118.09375 C 108.253906 118.03125 108.164062 117.84375 108.226562 117.671875 C 109.671875 113.636719 105.15625 105.707031 105.109375 105.628906 C 105.015625 105.472656 105.074219 105.269531 105.230469 105.175781 C 105.230469 105.175781 105.234375 105.175781 105.234375 105.175781 C 103.972656 102.953125 102.5 100.835938 101.027344 99.089844 C 100.292969 98.210938 99.558594 97.429688 98.84375 96.769531 Z M 86.71875 29.339844 C 86.765625 32.378906 87.214844 39.34375 90.167969 44.476562 C 92.9375 49.285156 97.171875 52.976562 99.386719 54.703125 C 102.886719 53.652344 104.613281 51.046875 105.46875 48.820312 C 103.917969 47.972656 102.820312 47.503906 102.785156 47.488281 C 102.617188 47.414062 102.539062 47.222656 102.609375 47.054688 C 102.613281 47.046875 102.621094 47.039062 102.625 47.035156 C 99.617188 45.539062 97.351562 43.78125 95.625 41.78125 C 95.5625 41.832031 95.492188 41.867188 95.414062 41.867188 C 95.335938 41.867188 95.257812 41.839844 95.195312 41.785156 C 90.59375 37.753906 89.710938 28.234375 89.675781 27.832031 C 89.660156 27.65625 89.785156 27.507812 89.953125 27.476562 C 89.929688 27.335938 89.902344 27.191406 89.878906 27.050781 C 89.054688 27.8125 88.167969 28.472656 87.261719 29.023438 C 87.082031 29.132812 86.902344 29.238281 86.71875 29.339844 Z M 69.320312 21.480469 C 69.492188 21.417969 69.683594 21.503906 69.746094 21.675781 C 69.765625 21.71875 71.144531 25.269531 75.132812 28.589844 C 76.097656 27.816406 76.945312 26.957031 77.675781 26.027344 C 77.882812 25.765625 78.082031 25.5 78.277344 25.226562 C 79.511719 23.484375 80.394531 21.574219 81.035156 19.671875 C 81.660156 17.800781 82.050781 15.9375 82.277344 14.269531 L 82.277344 14.265625 C 82.511719 12.617188 82.589844 11.160156 82.605469 10.054688 C 78.222656 7.570312 72.535156 8.277344 72.46875 8.289062 C 72.375 8.300781 72.28125 8.273438 72.207031 8.210938 C 72.121094 8.136719 63.441406 0.78125 52.378906 1.472656 C 52.214844 1.480469 52.066406 1.363281 52.039062 1.195312 C 49.46875 1.355469 46.765625 1.929688 44.003906 3.089844 C 43.90625 4.304688 43.855469 5.953125 43.972656 7.832031 C 45.714844 6.621094 47.8125 5.578125 50.335938 4.898438 C 61.949219 1.753906 70.480469 9.484375 70.566406 9.5625 C 70.699219 9.6875 70.707031 9.898438 70.582031 10.03125 C 70.457031 10.164062 70.25 10.171875 70.117188 10.046875 C 70.035156 9.972656 61.765625 2.496094 50.507812 5.535156 C 47.910156 6.238281 45.777344 7.332031 44.03125 8.597656 C 44.175781 10.230469 44.453125 12.003906 44.953125 13.8125 C 45.121094 14.417969 45.3125 15.019531 45.527344 15.613281 C 46.5625 18.484375 48.21875 21.335938 50.816406 23.714844 C 50.871094 23.691406 50.921875 23.667969 50.976562 23.644531 C 50.902344 23.484375 50.96875 23.292969 51.128906 23.214844 C 55.773438 20.953125 61.441406 21.199219 61.683594 21.210938 C 61.867188 21.222656 62.007812 21.375 61.996094 21.558594 C 62.585938 21.59375 63.015625 21.644531 63.257812 21.675781 C 63.539062 20.742188 63.800781 19.199219 63.527344 17.015625 C 63.507812 16.835938 63.636719 16.667969 63.816406 16.644531 C 64 16.621094 64.164062 16.753906 64.1875 16.933594 C 64.707031 21.066406 63.417969 23.042969 63.363281 23.125 C 63.300781 23.21875 63.195312 23.269531 63.085938 23.269531 C 63.042969 23.269531 63 23.257812 62.957031 23.242188 C 62.210938 24.867188 61.03125 26.101562 60.246094 26.804688 C 65.207031 24.707031 67.226562 19.675781 67.246094 19.625 C 67.3125 19.453125 67.503906 19.367188 67.675781 19.433594 C 67.847656 19.5 67.929688 19.691406 67.863281 19.863281 C 67.847656 19.902344 67.769531 20.097656 67.625 20.398438 C 67.632812 21 67.765625 25.042969 69.839844 27.042969 C 69.503906 25.957031 69.789062 24.425781 69.980469 23.617188 C 69.414062 22.640625 69.160156 21.988281 69.128906 21.910156 C 69.0625 21.734375 69.148438 21.542969 69.320312 21.480469 Z M 37.699219 22.90625 C 34.574219 20.882812 31.519531 18.304688 29.683594 15.195312 C 28.121094 18.0625 27.242188 21.074219 26.742188 24.050781 C 26.917969 24.082031 27.042969 24.25 27.015625 24.429688 C 26.351562 28.457031 26.261719 31.964844 26.171875 35.355469 C 26.128906 37.046875 26.082031 38.789062 25.96875 40.585938 C 25.613281 46.152344 20.261719 48.238281 20.207031 48.261719 C 20.167969 48.277344 20.128906 48.28125 20.089844 48.28125 C 19.976562 48.28125 19.875 48.222656 19.816406 48.125 C 18.878906 48.71875 17.878906 49.335938 16.863281 49.976562 C 16.953125 50.125 16.917969 50.320312 16.777344 50.421875 L 11.144531 54.363281 C 11.085938 54.402344 11.019531 54.421875 10.953125 54.421875 C 10.855469 54.421875 10.761719 54.378906 10.699219 54.300781 C 10.109375 54.792969 9.542969 55.300781 9.015625 55.828125 C 9.023438 55.835938 9.03125 55.835938 9.039062 55.84375 C 9.15625 55.984375 9.136719 56.195312 8.996094 56.3125 C 8.703125 56.558594 2.609375 61.816406 6.175781 69.042969 C 7.84375 69.730469 10.070312 70.550781 12.671875 71.242188 C 11.746094 69.519531 11.40625 68 11.617188 66.578125 C 12.085938 63.417969 15.277344 61.074219 19.324219 58.09375 C 20.621094 57.140625 21.960938 56.15625 23.375 55.035156 C 31.824219 48.332031 29.398438 40.109375 29.371094 40.027344 C 29.316406 39.855469 29.414062 39.667969 29.589844 39.613281 C 29.765625 39.5625 29.949219 39.65625 30.003906 39.832031 C 30.03125 39.921875 32.589844 48.570312 23.785156 55.558594 C 22.363281 56.683594 21.015625 57.675781 19.714844 58.632812 C 15.640625 61.628906 12.695312 63.792969 12.269531 66.675781 C 12.058594 68.097656 12.472656 69.652344 13.558594 71.472656 C 16.648438 72.238281 20.191406 72.792969 23.867188 72.742188 C 23.191406 71.640625 22.59375 70.425781 22.199219 69.066406 C 19.738281 60.652344 29.746094 52.289062 30.175781 51.9375 C 30.316406 51.820312 30.523438 51.839844 30.640625 51.984375 C 30.757812 52.121094 30.738281 52.332031 30.597656 52.449219 C 30.492188 52.535156 20.496094 60.890625 22.835938 68.882812 C 23.25 70.308594 23.902344 71.582031 24.644531 72.726562 C 27.480469 72.621094 30.382812 72.144531 33.207031 71.113281 C 33.984375 67.539062 35.773438 65.5625 35.890625 65.433594 C 35.9375 65.390625 35.992188 65.359375 36.050781 65.34375 C 36.390625 64.515625 36.6875 63.632812 36.941406 62.699219 C 37.179688 61.824219 37.382812 60.90625 37.554688 59.960938 C 37.53125 59.960938 37.507812 59.957031 37.488281 59.953125 C 37.3125 59.914062 37.199219 59.738281 37.238281 59.558594 C 38.328125 54.585938 38.421875 47.28125 37.507812 38.988281 C 37.488281 38.800781 37.472656 38.671875 37.464844 38.605469 C 37.390625 37.773438 36.066406 27.15625 36.054688 27.050781 C 36.03125 26.867188 36.164062 26.703125 36.34375 26.679688 C 36.527344 26.65625 36.691406 26.785156 36.714844 26.96875 C 36.753906 27.285156 37.441406 32.824219 37.847656 36.140625 C 39.824219 32.332031 44.195312 27.78125 44.394531 27.570312 C 44.523438 27.441406 44.730469 27.433594 44.863281 27.5625 C 44.871094 27.570312 44.871094 27.578125 44.878906 27.585938 C 45.101562 27.390625 45.328125 27.195312 45.554688 27.007812 C 44 26.351562 41.992188 25.421875 39.890625 24.234375 C 39.164062 23.824219 38.429688 23.382812 37.699219 22.90625 Z M 37.699219 22.90625 " fill-opacity="1" fill-rule="nonzero"/><path fill="#000000" d="M 50.816406 23.714844 L 48.546875 25.136719 C 48.546875 25.066406 48.535156 24.992188 48.488281 24.933594 C 48.378906 24.785156 48.171875 24.757812 48.027344 24.867188 L 46.144531 26.253906 C 46.003906 26.355469 45.972656 26.546875 46.0625 26.691406 L 45.550781 27.011719 C 43.996094 26.351562 41.988281 25.425781 39.890625 24.234375 C 39.164062 23.824219 38.429688 23.382812 37.699219 22.910156 C 34.574219 20.886719 31.523438 18.308594 29.6875 15.195312 C 30.464844 13.777344 31.40625 12.394531 32.554688 11.070312 C 32.558594 11.070312 32.558594 11.070312 32.558594 11.070312 C 32.617188 11.113281 32.683594 11.132812 32.75 11.132812 C 32.855469 11.132812 32.957031 11.085938 33.019531 10.996094 C 35.664062 7.320312 43.378906 3.699219 43.457031 3.664062 C 43.613281 3.589844 43.679688 3.414062 43.625 3.253906 C 43.75 3.203125 43.878906 3.140625 44.003906 3.089844 C 43.90625 4.304688 43.855469 5.953125 43.972656 7.832031 C 37.691406 12.203125 36.082031 18.8125 36.0625 18.894531 C 36.019531 19.074219 36.128906 19.253906 36.308594 19.292969 C 36.332031 19.300781 36.359375 19.300781 36.382812 19.300781 C 36.53125 19.300781 36.667969 19.199219 36.703125 19.046875 C 36.722656 18.96875 38.222656 12.820312 44.03125 8.601562 C 44.171875 10.230469 44.453125 12.007812 44.953125 13.816406 C 45.121094 14.417969 45.308594 15.019531 45.527344 15.617188 C 46.5625 18.484375 48.21875 21.335938 50.816406 23.714844 Z M 89.261719 23.269531 C 89.078125 23.257812 88.9375 23.101562 88.945312 22.917969 C 88.949219 22.855469 89.242188 16.359375 84.890625 11.808594 C 84.207031 11.09375 83.429688 10.515625 82.609375 10.050781 C 82.589844 11.160156 82.511719 12.613281 82.28125 14.261719 L 82.28125 14.265625 C 82.050781 15.933594 81.660156 17.792969 81.039062 19.667969 C 80.398438 21.566406 79.511719 23.476562 78.28125 25.222656 C 78.085938 25.496094 77.886719 25.765625 77.679688 26.023438 C 76.945312 26.949219 76.097656 27.808594 75.136719 28.582031 C 76.03125 29.328125 77.058594 30.058594 78.230469 30.734375 C 78.121094 28.265625 77.617188 27.167969 77.609375 27.148438 C 77.53125 26.984375 77.597656 26.785156 77.761719 26.707031 C 77.925781 26.628906 78.125 26.695312 78.203125 26.859375 C 78.25 26.949219 78.960938 28.464844 78.921875 31.941406 C 80.652344 31.671875 82.832031 31.164062 85.019531 30.191406 C 85.371094 30.039062 85.722656 29.867188 86.070312 29.691406 C 86.039062 28.523438 86.070312 27.808594 86.074219 27.78125 C 86.085938 27.59375 86.238281 27.460938 86.421875 27.464844 C 86.601562 27.476562 86.746094 27.628906 86.734375 27.8125 C 86.734375 27.835938 86.710938 28.402344 86.726562 29.339844 C 86.90625 29.234375 87.085938 29.128906 87.269531 29.019531 C 88.175781 28.46875 89.0625 27.808594 89.886719 27.046875 C 89.6875 25.816406 89.511719 24.550781 89.332031 23.261719 C 89.316406 23.265625 89.304688 23.269531 89.285156 23.269531 C 89.273438 23.269531 89.265625 23.269531 89.261719 23.269531 Z M 18.511719 83.773438 C 22.46875 84.679688 25.730469 84.625 28.375 84.078125 C 27.359375 83.417969 26.21875 82.761719 25.007812 82.070312 C 21.339844 79.964844 17.183594 77.582031 14.207031 73.613281 C 13.582031 72.78125 13.070312 71.992188 12.667969 71.242188 C 10.070312 70.550781 7.839844 69.730469 6.171875 69.042969 C 6.613281 69.933594 7.203125 70.859375 7.96875 71.804688 C 12.617188 77.5625 16.410156 81.621094 18.511719 83.773438 Z M 25.335938 81.492188 C 26.738281 82.296875 28.082031 83.066406 29.257812 83.875 C 31.324219 83.335938 32.980469 82.496094 34.265625 81.625 C 33.914062 80.679688 33.613281 79.746094 33.390625 78.824219 C 32.648438 75.75 32.757812 73.167969 33.207031 71.109375 C 30.382812 72.140625 27.480469 72.621094 24.644531 72.726562 C 25.519531 74.082031 26.519531 75.261719 27.402344 76.304688 C 28.949219 78.128906 30.175781 79.570312 30.042969 81.035156 C 30.027344 81.207031 29.882812 81.335938 29.714844 81.335938 C 29.703125 81.335938 29.691406 81.335938 29.683594 81.335938 C 29.5 81.320312 29.367188 81.15625 29.382812 80.976562 C 29.492188 79.789062 28.347656 78.441406 26.898438 76.734375 C 25.925781 75.589844 24.820312 74.28125 23.875 72.746094 C 20.199219 72.796875 16.652344 72.242188 13.5625 71.476562 C 13.894531 72.03125 14.285156 72.613281 14.742188 73.21875 C 17.632812 77.074219 21.726562 79.421875 25.335938 81.492188 Z M 82.980469 70.539062 C 81.921875 69.625 81.058594 68.777344 80.355469 67.988281 C 79.113281 68.242188 77.933594 68.390625 76.945312 68.476562 C 77.671875 69.71875 78.589844 70.894531 79.742188 71.976562 C 83.742188 75.730469 86.167969 79.421875 87.292969 82.949219 L 87.296875 82.949219 C 88.570312 82.859375 89.800781 82.722656 90.957031 82.554688 C 90.417969 78.621094 87.777344 74.65625 82.980469 70.539062 Z M 87.128906 65.21875 C 86.078125 65.996094 84.894531 66.585938 83.679688 67.042969 C 82.820312 67.367188 81.949219 67.621094 81.097656 67.824219 C 81.734375 68.507812 82.496094 69.242188 83.414062 70.03125 C 88.34375 74.265625 91.054688 78.363281 91.621094 82.445312 C 92.058594 82.378906 92.480469 82.304688 92.890625 82.230469 C 93.925781 82.046875 94.886719 81.84375 95.734375 81.644531 C 97.269531 81.289062 98.457031 80.949219 99.160156 80.734375 C 100.175781 77.289062 99.574219 73.789062 97.28125 69.667969 C 95.574219 66.597656 93.023438 64.875 90.554688 63.210938 C 90.242188 63 89.933594 62.789062 89.628906 62.578125 C 88.96875 63.632812 88.109375 64.503906 87.128906 65.21875 Z M 115.730469 58.652344 C 114.082031 54.128906 108.75 50.621094 105.464844 48.820312 C 104.609375 51.046875 102.882812 53.652344 99.382812 54.703125 C 100.207031 55.34375 100.75 55.71875 100.835938 55.777344 C 101.109375 55.925781 104.527344 57.855469 106.691406 61.339844 C 107.371094 62.402344 107.90625 63.585938 108.175781 64.882812 C 108.546875 66.484375 108.578125 68.28125 108.058594 70.261719 C 109.226562 70.164062 113.117188 69.65625 116.054688 67.269531 C 116.894531 64.433594 116.789062 61.550781 115.730469 58.652344 Z M 115.730469 58.652344 " fill-opacity="1" fill-rule="nonzero"/><g clip-path="url(#103106529c)"><path fill="#000000" d="M 115.023438 89.945312 C 115.023438 89.945312 113.5625 98.816406 104.429688 99.285156 C 103.199219 99.347656 102.070312 99.265625 101.03125 99.085938 C 102.503906 100.835938 103.976562 102.949219 105.234375 105.175781 C 105.394531 105.085938 105.59375 105.140625 105.683594 105.296875 C 105.878906 105.632812 110.402344 113.570312 108.851562 117.894531 C 108.800781 118.03125 108.675781 118.113281 108.539062 118.113281 C 108.507812 118.113281 108.472656 118.105469 108.4375 118.097656 C 108.28125 118.546875 108.066406 118.957031 107.789062 119.328125 C 106.6875 120.800781 105.25 121.675781 103.683594 122.160156 C 103.683594 122.171875 103.695312 122.183594 103.699219 122.195312 C 103.726562 122.378906 103.609375 122.546875 103.425781 122.578125 C 101.980469 122.832031 100.644531 122.929688 99.445312 122.929688 C 95.585938 122.929688 93.15625 121.921875 93.027344 121.867188 C 92.871094 121.804688 92.792969 121.636719 92.835938 121.472656 C 92.878906 121.3125 93.035156 121.210938 93.203125 121.234375 C 93.226562 121.238281 95.695312 121.546875 99.386719 120.011719 C 102.914062 118.546875 102.15625 114.515625 102.125 114.34375 C 102.089844 114.164062 102.203125 113.996094 102.378906 113.957031 C 102.351562 113.851562 102.332031 113.746094 102.300781 113.636719 C 101.992188 112.496094 101.5 111.582031 100.875 110.832031 C 100.863281 110.839844 100.855469 110.855469 100.839844 110.863281 C 100.785156 110.898438 100.726562 110.914062 100.664062 110.914062 C 100.554688 110.914062 100.445312 110.859375 100.382812 110.757812 C 99.140625 108.773438 95.054688 107.632812 95.011719 107.621094 C 94.828125 107.570312 90.554688 106.339844 88.785156 102.898438 C 88.023438 104.140625 87.390625 105.316406 87.003906 106.449219 C 87.175781 106.503906 87.269531 106.691406 87.21875 106.863281 C 87.171875 107 86.183594 110.222656 88.679688 112.449219 C 89.386719 113.082031 90.324219 113.339844 91.476562 113.222656 C 93.976562 112.964844 96.617188 111.058594 97.566406 109.78125 C 97.675781 109.632812 97.882812 109.605469 98.027344 109.714844 C 98.175781 109.824219 98.207031 110.03125 98.097656 110.175781 C 97.964844 110.359375 97.804688 110.542969 97.628906 110.726562 C 97.308594 111.707031 96.554688 113.445312 94.964844 114.691406 C 95.058594 114.816406 95.058594 114.992188 94.949219 115.113281 C 93.777344 116.382812 92.105469 116.671875 90.824219 116.671875 C 89.804688 116.671875 89.035156 116.488281 88.964844 116.472656 C 88.789062 116.429688 88.679688 116.246094 88.722656 116.070312 C 88.730469 116.046875 88.742188 116.023438 88.753906 116.003906 C 88.527344 115.964844 88.296875 115.921875 88.054688 115.871094 C 85.21875 115.246094 83.300781 113.730469 82.214844 111.71875 C 80.109375 114.207031 76.765625 113.949219 76.765625 113.949219 C 79.878906 112.761719 80.496094 109.390625 79.570312 106.058594 C 79.160156 104.585938 78.445312 103.125 77.507812 101.859375 C 76.710938 100.777344 75.75 99.84375 74.675781 99.183594 C 69.523438 96.015625 65.207031 88.695312 70.714844 81.390625 C 73.816406 77.277344 75.011719 72.871094 75.464844 69.804688 C 75.824219 67.425781 75.730469 65.851562 75.730469 65.851562 L 75.730469 65.847656 C 75.0625 63.984375 74.726562 62.007812 74.625 59.953125 C 74.621094 59.953125 74.613281 59.953125 74.609375 59.953125 C 74.449219 59.953125 74.304688 59.835938 74.28125 59.667969 C 73.691406 55.667969 74.921875 50.136719 76.339844 43.730469 C 76.71875 42.03125 77.105469 40.277344 77.472656 38.503906 C 78.074219 35.554688 78.257812 33.25 78.246094 31.507812 C 73.621094 28.933594 71.136719 25.59375 69.972656 23.601562 C 69.78125 24.410156 69.496094 25.941406 69.832031 27.03125 C 70.015625 27.207031 70.214844 27.371094 70.429688 27.515625 C 70.582031 27.613281 70.625 27.820312 70.527344 27.972656 C 70.464844 28.066406 70.359375 28.121094 70.25 28.121094 C 70.1875 28.121094 70.125 28.101562 70.066406 28.066406 C 67.789062 26.582031 67.175781 23.296875 67.015625 21.511719 C 65.882812 23.425781 63.53125 26.464844 59.527344 27.765625 C 59.496094 27.773438 59.460938 27.78125 59.425781 27.78125 C 59.285156 27.78125 59.15625 27.691406 59.113281 27.550781 C 59.058594 27.375 59.152344 27.191406 59.324219 27.132812 C 59.640625 27.03125 59.941406 26.914062 60.238281 26.792969 C 61.027344 26.089844 62.203125 24.855469 62.949219 23.226562 C 62.933594 23.21875 62.914062 23.214844 62.898438 23.203125 C 62.746094 23.101562 62.707031 22.894531 62.804688 22.746094 C 62.808594 22.734375 63.035156 22.382812 63.253906 21.664062 C 63.011719 21.632812 62.582031 21.578125 61.992188 21.546875 C 61.980469 21.730469 61.828125 21.875 61.644531 21.859375 C 61.585938 21.855469 55.902344 21.609375 51.414062 23.796875 C 51.367188 23.820312 51.316406 23.832031 51.269531 23.832031 C 51.144531 23.832031 51.027344 23.761719 50.96875 23.644531 C 50.96875 23.640625 50.96875 23.636719 50.96875 23.632812 C 50.914062 23.65625 50.863281 23.679688 50.808594 23.703125 L 48.539062 25.125 C 48.535156 25.222656 48.496094 25.320312 48.410156 25.382812 L 46.527344 26.773438 C 46.46875 26.816406 46.398438 26.835938 46.328125 26.835938 C 46.226562 26.835938 46.128906 26.789062 46.0625 26.699219 C 46.058594 26.691406 46.058594 26.683594 46.054688 26.675781 L 45.542969 26.996094 C 45.316406 27.179688 45.09375 27.375 44.867188 27.574219 C 44.980469 27.699219 44.980469 27.894531 44.859375 28.019531 C 44.804688 28.074219 39.578125 33.527344 37.980469 37.371094 C 38.054688 37.96875 38.101562 38.394531 38.113281 38.539062 C 38.121094 38.601562 38.132812 38.722656 38.152344 38.902344 C 39.078125 47.269531 38.976562 54.652344 37.871094 59.691406 C 37.839844 59.847656 37.699219 59.953125 37.546875 59.953125 C 37.375 60.898438 37.171875 61.816406 36.929688 62.691406 C 36.523438 65.28125 36.40625 69.464844 38.816406 72.957031 C 42.609375 78.449219 50.734375 78.632812 48.902344 86.460938 C 47.070312 94.292969 46.308594 104.589844 53.234375 105.9375 C 53.234375 105.9375 52.265625 106.5625 50.832031 106.71875 C 51.589844 108.535156 52.050781 110.113281 52.089844 111.222656 C 52.335938 117.855469 49.753906 122.953125 44.421875 126.367188 C 44.367188 126.402344 44.304688 126.421875 44.242188 126.421875 C 44.148438 126.421875 44.054688 126.378906 43.988281 126.304688 C 43.878906 126.175781 43.886719 125.988281 43.996094 125.867188 C 44.039062 125.820312 48.238281 121.054688 44.347656 110.789062 C 44.285156 110.617188 44.371094 110.425781 44.539062 110.363281 C 44.542969 110.363281 44.546875 110.363281 44.546875 110.363281 C 43.585938 107.664062 42.605469 105.777344 42.605469 105.777344 C 42.410156 110.152344 40.609375 112.679688 38.382812 114.121094 C 38.476562 114.273438 38.433594 114.472656 38.28125 114.570312 C 36.078125 116.007812 33.429688 116.324219 31.523438 116.324219 C 30.097656 116.324219 29.085938 116.144531 28.992188 116.128906 C 28.859375 116.105469 28.757812 116.007812 28.726562 115.878906 C 28.699219 115.746094 28.75 115.613281 28.859375 115.535156 C 28.90625 115.503906 33.378906 112.21875 33.371094 106.417969 C 33.363281 101.148438 27.515625 94.207031 26.292969 92.8125 C 26.023438 93.253906 25.6875 93.667969 25.265625 94.027344 C 24.632812 94.5625 23.695312 95.28125 22.605469 96.109375 C 19.5625 98.433594 14.964844 101.941406 14.609375 103.617188 C 14.578125 103.773438 14.4375 103.878906 14.285156 103.878906 C 14.261719 103.878906 14.242188 103.875 14.21875 103.871094 C 14.195312 103.867188 14.175781 103.851562 14.15625 103.84375 C 13.519531 105.40625 13.617188 107.105469 14.9375 109.007812 C 15.078125 108.902344 15.277344 108.925781 15.390625 109.0625 C 15.410156 109.089844 17.519531 111.683594 19.226562 111.898438 C 19.402344 111.921875 19.527344 112.082031 19.511719 112.261719 C 22.992188 112.453125 25.050781 107.132812 25.050781 107.132812 C 25.050781 107.132812 25.773438 110.832031 23.097656 113.71875 C 23.226562 113.84375 23.234375 114.046875 23.113281 114.179688 C 20.367188 117.179688 16.058594 117.273438 15.535156 117.273438 C 15.511719 117.273438 15.496094 117.273438 15.488281 117.273438 C 15.3125 117.269531 15.175781 117.132812 15.167969 116.957031 C 13.042969 117.054688 11.277344 116.410156 9.894531 115.269531 C 9.828125 115.34375 9.738281 115.382812 9.644531 115.382812 C 9.574219 115.382812 9.503906 115.363281 9.445312 115.316406 C 5.179688 112.132812 5.292969 104.792969 7.027344 100.726562 C 7.824219 98.851562 9.871094 96.546875 12.101562 94.277344 C 6.769531 94.003906 2.886719 88.765625 2.886719 88.765625 C 10.128906 89.371094 14.105469 84.132812 15.574219 81.640625 C 13.449219 79.34375 10.652344 76.183594 7.453125 72.222656 C 0.0820312 63.101562 8.480469 55.875 8.570312 55.804688 C 8.703125 55.695312 8.894531 55.707031 9.011719 55.828125 C 9.542969 55.300781 10.105469 54.792969 10.695312 54.300781 C 10.691406 54.292969 10.683594 54.289062 10.679688 54.28125 C 10.574219 54.128906 10.609375 53.925781 10.761719 53.820312 L 16.390625 49.878906 C 16.542969 49.777344 16.75 49.8125 16.851562 49.960938 C 16.855469 49.96875 16.855469 49.972656 16.859375 49.976562 C 17.878906 49.335938 18.878906 48.722656 19.8125 48.125 C 19.800781 48.105469 19.785156 48.085938 19.777344 48.066406 C 19.714844 47.894531 19.800781 47.703125 19.96875 47.640625 C 20.019531 47.621094 24.976562 45.675781 25.304688 40.546875 C 25.417969 38.757812 25.464844 37.023438 25.507812 35.339844 C 25.597656 31.925781 25.691406 28.398438 26.359375 24.324219 C 26.390625 24.140625 26.558594 24.015625 26.738281 24.050781 C 27.242188 21.074219 28.117188 18.0625 29.683594 15.195312 C 30.457031 13.777344 31.402344 12.394531 32.550781 11.066406 C 32.40625 10.960938 32.371094 10.753906 32.480469 10.605469 C 35.222656 6.789062 42.847656 3.214844 43.171875 3.0625 C 43.339844 2.988281 43.535156 3.058594 43.613281 3.222656 C 43.617188 3.234375 43.613281 3.246094 43.621094 3.253906 C 43.746094 3.203125 43.871094 3.140625 43.996094 3.089844 C 46.761719 1.929688 49.464844 1.355469 52.035156 1.191406 C 52.035156 1.179688 52.027344 1.171875 52.027344 1.15625 C 52.015625 0.976562 52.152344 0.820312 52.335938 0.804688 C 62.964844 0.148438 71.449219 6.734375 72.523438 7.605469 C 73.683594 7.476562 81.070312 6.859375 85.363281 11.351562 C 89.925781 16.117188 89.625 22.679688 89.609375 22.957031 C 89.601562 23.117188 89.476562 23.242188 89.324219 23.261719 C 89.503906 24.554688 89.679688 25.820312 89.878906 27.046875 C 89.902344 27.191406 89.929688 27.332031 89.953125 27.476562 C 89.960938 27.472656 89.96875 27.46875 89.976562 27.46875 C 90.160156 27.453125 90.320312 27.589844 90.335938 27.769531 C 90.34375 27.867188 91.234375 37.429688 95.632812 41.28125 C 95.769531 41.402344 95.78125 41.613281 95.660156 41.75 C 95.652344 41.761719 95.636719 41.765625 95.625 41.777344 C 97.351562 43.773438 99.617188 45.535156 102.625 47.03125 C 102.699219 46.878906 102.882812 46.804688 103.042969 46.871094 C 103.484375 47.058594 113.832031 51.492188 116.355469 58.417969 C 118.414062 64.066406 117.046875 69.621094 112.296875 74.929688 C 108.972656 78.640625 107.066406 80.511719 107.046875 80.53125 C 106.984375 80.59375 106.898438 80.625 106.816406 80.625 C 106.730469 80.625 106.644531 80.589844 106.582031 80.527344 C 104.417969 82.695312 103.492188 84.128906 105.558594 86.402344 C 105.558594 86.402344 103.359375 86.695312 101.628906 85.878906 C 101.402344 87.359375 101.457031 88.992188 102.179688 90.484375 C 104.207031 94.683594 111.871094 95.019531 115.023438 89.945312 Z M 115.023438 89.945312 " fill-opacity="1" fill-rule="nonzero"/></g><path fill="#000000" d="M 14.175781 103.847656 C 13.542969 105.410156 13.636719 107.109375 14.960938 109.007812 C 14.953125 109.011719 14.949219 109.011719 14.945312 109.015625 C 14.804688 109.132812 14.78125 109.339844 14.894531 109.480469 C 14.988281 109.597656 17.191406 112.308594 19.160156 112.558594 C 19.175781 112.5625 19.191406 112.5625 19.203125 112.5625 C 19.367188 112.5625 19.511719 112.441406 19.535156 112.273438 C 19.535156 112.273438 19.535156 112.269531 19.535156 112.265625 C 23.015625 112.457031 25.074219 107.136719 25.074219 107.136719 C 25.074219 107.136719 25.792969 110.835938 23.121094 113.722656 C 23.117188 113.722656 23.117188 113.71875 23.117188 113.714844 C 22.980469 113.59375 22.769531 113.601562 22.648438 113.738281 C 20.058594 116.570312 15.792969 116.613281 15.535156 116.613281 C 15.515625 116.613281 15.519531 116.613281 15.515625 116.613281 C 15.335938 116.613281 15.1875 116.761719 15.183594 116.941406 C 15.183594 116.949219 15.1875 116.957031 15.1875 116.964844 C 13.066406 117.0625 11.296875 116.414062 9.914062 115.273438 C 9.921875 115.265625 9.929688 115.265625 9.933594 115.257812 C 10.042969 115.109375 10.011719 114.902344 9.863281 114.792969 C 5.902344 111.839844 6.03125 104.757812 7.636719 100.984375 C 8.550781 98.832031 11.285156 96 13.960938 93.351562 C 15.292969 92.203125 16.359375 91.121094 17.214844 90.128906 C 18.128906 89.199219 18.925781 88.34375 19.480469 87.621094 C 19.792969 87.210938 20.027344 86.804688 20.207031 86.410156 L 25.839844 92.300781 C 25.589844 92.753906 25.273438 93.171875 24.851562 93.527344 C 24.234375 94.050781 23.304688 94.761719 22.222656 95.585938 C 17.9375 98.855469 14.359375 101.707031 13.984375 103.480469 C 13.949219 103.640625 14.035156 103.785156 14.175781 103.847656 Z M 44.980469 110.5625 C 47.820312 118.046875 46.535156 122.683594 45.445312 124.855469 C 49.636719 121.613281 51.652344 117.042969 51.4375 111.257812 C 51.398438 110.207031 50.917969 108.558594 50.0625 106.578125 C 49.855469 106.222656 49.636719 105.867188 49.394531 105.507812 C 46.355469 101.011719 42.515625 95.867188 39.316406 90.667969 C 41.707031 95.371094 43.863281 100.167969 43.347656 104.660156 C 43.328125 104.828125 43.183594 104.953125 43.019531 104.953125 C 43.003906 104.953125 42.992188 104.953125 42.980469 104.949219 C 42.796875 104.929688 42.667969 104.765625 42.6875 104.582031 C 43.246094 99.71875 40.484375 94.367188 37.8125 89.191406 C 36.519531 86.691406 35.199219 84.128906 34.257812 81.625 C 32.972656 82.496094 31.320312 83.335938 29.25 83.875 C 31.824219 85.644531 33.605469 87.601562 33.460938 90.503906 C 33.453125 90.679688 33.304688 90.816406 33.132812 90.816406 C 33.125 90.816406 33.121094 90.816406 33.117188 90.816406 C 32.933594 90.804688 32.792969 90.652344 32.800781 90.46875 C 32.941406 87.683594 31.105469 85.855469 28.371094 84.078125 C 25.726562 84.621094 22.464844 84.679688 18.507812 83.769531 C 19.644531 84.9375 20.292969 85.546875 20.308594 85.5625 L 26.5625 92.109375 C 26.871094 92.445312 34.039062 100.308594 34.046875 106.417969 C 34.050781 111.289062 31.164062 114.414062 29.867188 115.574219 C 31.425781 115.726562 35.125 115.847656 37.933594 114.015625 C 38.085938 113.917969 38.292969 113.960938 38.390625 114.113281 C 38.394531 114.117188 38.390625 114.121094 38.394531 114.121094 C 40.621094 112.679688 42.421875 110.15625 42.617188 105.78125 C 42.617188 105.78125 43.597656 107.667969 44.5625 110.363281 C 44.730469 110.308594 44.917969 110.394531 44.980469 110.5625 Z M 80.355469 67.984375 C 78.132812 65.488281 77.539062 63.617188 77.488281 62.382812 C 77.429688 60.835938 78.179688 60.058594 78.210938 60.027344 C 78.339844 59.898438 78.550781 59.898438 78.679688 60.027344 C 78.808594 60.152344 78.808594 60.363281 78.683594 60.492188 C 78.65625 60.519531 78.089844 61.132812 78.152344 62.390625 C 78.207031 63.554688 78.816406 65.359375 81.097656 67.824219 C 81.953125 67.621094 82.820312 67.367188 83.679688 67.042969 C 84.894531 66.585938 86.078125 65.992188 87.128906 65.21875 C 88.109375 64.507812 88.96875 63.636719 89.625 62.582031 C 88.320312 61.683594 87.105469 60.777344 86.097656 59.640625 C 82.898438 56.035156 86.65625 49.296875 86.816406 49.011719 C 86.90625 48.855469 87.105469 48.796875 87.269531 48.886719 C 87.425781 48.976562 87.480469 49.179688 87.394531 49.339844 C 87.355469 49.40625 83.703125 55.949219 86.59375 59.199219 C 87.785156 60.542969 89.308594 61.570312 90.925781 62.660156 C 93.457031 64.367188 96.078125 66.132812 97.859375 69.347656 C 100.316406 73.765625 100.914062 77.515625 99.703125 81.242188 C 99.210938 83.914062 100.277344 85.238281 101.628906 85.878906 C 103.359375 86.695312 105.558594 86.402344 105.558594 86.402344 C 103.488281 84.128906 104.417969 82.695312 106.582031 80.527344 C 106.582031 80.527344 106.578125 80.527344 106.578125 80.523438 C 106.449219 80.394531 106.453125 80.1875 106.582031 80.054688 C 106.601562 80.039062 108.492188 78.175781 111.804688 74.484375 C 113.921875 72.117188 115.339844 69.707031 116.0625 67.261719 C 113.121094 69.648438 109.234375 70.15625 108.066406 70.253906 C 108.054688 70.289062 108.046875 70.328125 108.039062 70.363281 C 106.730469 75.175781 105.554688 77.113281 104.777344 78.398438 C 104.0625 79.578125 103.667969 80.226562 103.707031 82.15625 C 103.710938 82.339844 103.566406 82.492188 103.382812 82.496094 C 103.382812 82.496094 103.378906 82.496094 103.375 82.496094 C 103.195312 82.496094 103.050781 82.351562 103.042969 82.171875 C 103.003906 80.046875 103.457031 79.296875 104.207031 78.054688 C 104.96875 76.804688 106.113281 74.910156 107.398438 70.191406 C 109.792969 61.367188 100.609375 56.394531 100.515625 56.34375 C 100.503906 56.339844 100.492188 56.335938 100.484375 56.328125 C 100.417969 56.28125 93.546875 51.660156 89.597656 44.796875 C 86.679688 39.730469 86.144531 32.949219 86.066406 29.683594 C 85.71875 29.863281 85.371094 30.03125 85.019531 30.1875 C 82.828125 31.160156 80.648438 31.667969 78.917969 31.933594 C 78.898438 33.664062 78.691406 35.871094 78.125 38.632812 C 77.761719 40.414062 77.371094 42.175781 76.992188 43.875 C 75.585938 50.214844 74.371094 55.6875 74.941406 59.574219 C 74.964844 59.757812 74.839844 59.925781 74.664062 59.949219 C 74.652344 59.953125 74.640625 59.953125 74.628906 59.953125 C 74.730469 62.003906 75.066406 63.984375 75.738281 65.847656 C 76.0625 66.75 76.457031 67.625 76.949219 68.464844 C 77.933594 68.390625 79.113281 68.242188 80.355469 67.984375 Z M 106.691406 61.339844 C 107.339844 62.382812 107.875 63.566406 108.179688 64.882812 C 107.910156 63.585938 107.375 62.402344 106.691406 61.339844 Z M 98.84375 96.769531 C 98.496094 96.445312 98.195312 96.101562 97.941406 95.730469 C 97.941406 95.730469 97.9375 95.734375 97.9375 95.734375 C 97.882812 95.769531 97.820312 95.785156 97.757812 95.785156 C 97.648438 95.785156 97.542969 95.734375 97.476562 95.636719 C 94.820312 91.542969 96.886719 85.839844 98.355469 82.804688 C 98.691406 82.113281 98.953125 81.425781 99.15625 80.738281 C 98.453125 80.953125 97.265625 81.292969 95.730469 81.648438 C 94.882812 81.847656 93.925781 82.046875 92.886719 82.230469 C 92.476562 82.304688 92.050781 82.378906 91.617188 82.449219 C 91.847656 84.105469 91.722656 85.761719 91.246094 87.421875 C 91.203125 87.566406 91.070312 87.660156 90.925781 87.660156 C 90.894531 87.660156 90.867188 87.65625 90.835938 87.648438 C 90.660156 87.597656 90.554688 87.414062 90.609375 87.238281 C 91.054688 85.675781 91.175781 84.113281 90.957031 82.546875 C 89.800781 82.714844 88.570312 82.855469 87.296875 82.945312 C 88.976562 88.210938 87.777344 93.121094 84.617188 97.375 C 81.132812 102.070312 80.113281 107.824219 82.214844 111.722656 C 83.296875 113.730469 85.214844 115.25 88.054688 115.871094 C 88.292969 115.925781 88.527344 115.964844 88.753906 116.003906 C 88.820312 115.871094 88.96875 115.796875 89.121094 115.832031 C 89.15625 115.839844 92.617188 116.660156 94.460938 114.664062 C 94.585938 114.53125 94.792969 114.523438 94.925781 114.648438 C 94.941406 114.664062 94.949219 114.679688 94.960938 114.695312 C 96.550781 113.449219 97.308594 111.710938 97.625 110.730469 C 96.257812 112.171875 93.726562 113.660156 91.539062 113.882812 C 91.335938 113.90625 91.136719 113.914062 90.941406 113.914062 C 89.863281 113.914062 88.957031 113.589844 88.238281 112.949219 C 85.414062 110.425781 86.535156 106.816406 86.585938 106.664062 C 86.640625 106.492188 86.828125 106.398438 87 106.449219 C 87.386719 105.316406 88.019531 104.140625 88.78125 102.902344 C 88.746094 102.839844 88.71875 102.777344 88.6875 102.714844 C 86.984375 99.144531 89.035156 92.703125 89.121094 92.429688 C 89.179688 92.257812 89.363281 92.160156 89.539062 92.21875 C 89.710938 92.273438 89.804688 92.460938 89.75 92.632812 C 89.730469 92.695312 87.695312 99.09375 89.28125 102.429688 C 90.859375 105.742188 95.140625 106.972656 95.183594 106.984375 C 95.359375 107.035156 99.5625 108.207031 100.941406 110.410156 C 101.027344 110.550781 100.992188 110.726562 100.871094 110.832031 C 101.492188 111.585938 101.988281 112.496094 102.292969 113.640625 C 102.324219 113.746094 102.347656 113.851562 102.375 113.957031 C 102.375 113.957031 102.375 113.957031 102.378906 113.957031 C 102.558594 113.917969 102.730469 114.035156 102.769531 114.214844 C 102.777344 114.261719 103.671875 118.949219 99.636719 120.628906 C 97.875 121.359375 96.386719 121.691406 95.277344 121.832031 C 97.042969 122.207031 99.867188 122.527344 103.308594 121.929688 C 103.476562 121.902344 103.632812 122.003906 103.679688 122.160156 C 105.246094 121.675781 106.683594 120.800781 107.789062 119.328125 C 108.0625 118.960938 108.277344 118.546875 108.433594 118.097656 C 108.433594 118.097656 108.425781 118.097656 108.425781 118.09375 C 108.253906 118.03125 108.164062 117.84375 108.226562 117.671875 C 109.671875 113.636719 105.15625 105.707031 105.109375 105.628906 C 105.015625 105.472656 105.074219 105.269531 105.230469 105.175781 C 105.230469 105.175781 105.234375 105.175781 105.234375 105.175781 C 103.972656 102.953125 102.5 100.835938 101.027344 99.089844 C 100.292969 98.210938 99.558594 97.429688 98.84375 96.769531 Z M 86.71875 29.339844 C 86.765625 32.378906 87.214844 39.34375 90.167969 44.476562 C 92.9375 49.285156 97.171875 52.976562 99.386719 54.703125 C 102.886719 53.652344 104.613281 51.046875 105.46875 48.820312 C 103.917969 47.972656 102.820312 47.503906 102.785156 47.488281 C 102.617188 47.414062 102.539062 47.222656 102.609375 47.054688 C 102.613281 47.046875 102.621094 47.039062 102.625 47.035156 C 99.617188 45.539062 97.351562 43.78125 95.625 41.78125 C 95.5625 41.832031 95.492188 41.867188 95.414062 41.867188 C 95.335938 41.867188 95.257812 41.839844 95.195312 41.785156 C 90.59375 37.753906 89.710938 28.234375 89.675781 27.832031 C 89.660156 27.65625 89.785156 27.507812 89.953125 27.476562 C 89.929688 27.335938 89.902344 27.191406 89.878906 27.050781 C 89.054688 27.8125 88.167969 28.472656 87.261719 29.023438 C 87.082031 29.132812 86.902344 29.238281 86.71875 29.339844 Z M 69.320312 21.480469 C 69.492188 21.417969 69.683594 21.503906 69.746094 21.675781 C 69.765625 21.71875 71.144531 25.269531 75.132812 28.589844 C 76.097656 27.816406 76.945312 26.957031 77.675781 26.027344 C 77.882812 25.765625 78.082031 25.5 78.277344 25.226562 C 79.511719 23.484375 80.394531 21.574219 81.035156 19.671875 C 81.660156 17.800781 82.050781 15.9375 82.277344 14.269531 L 82.277344 14.265625 C 82.511719 12.617188 82.589844 11.160156 82.605469 10.054688 C 78.222656 7.570312 72.535156 8.277344 72.46875 8.289062 C 72.375 8.300781 72.28125 8.273438 72.207031 8.210938 C 72.121094 8.136719 63.441406 0.78125 52.378906 1.472656 C 52.214844 1.480469 52.066406 1.363281 52.039062 1.195312 C 49.46875 1.355469 46.765625 1.929688 44.003906 3.089844 C 43.90625 4.304688 43.855469 5.953125 43.972656 7.832031 C 45.714844 6.621094 47.8125 5.578125 50.335938 4.898438 C 61.949219 1.753906 70.480469 9.484375 70.566406 9.5625 C 70.699219 9.6875 70.707031 9.898438 70.582031 10.03125 C 70.457031 10.164062 70.25 10.171875 70.117188 10.046875 C 70.035156 9.972656 61.765625 2.496094 50.507812 5.535156 C 47.910156 6.238281 45.777344 7.332031 44.03125 8.597656 C 44.175781 10.230469 44.453125 12.003906 44.953125 13.8125 C 45.121094 14.417969 45.3125 15.019531 45.527344 15.613281 C 46.5625 18.484375 48.21875 21.335938 50.816406 23.714844 C 50.871094 23.691406 50.921875 23.667969 50.976562 23.644531 C 50.902344 23.484375 50.96875 23.292969 51.128906 23.214844 C 55.773438 20.953125 61.441406 21.199219 61.683594 21.210938 C 61.867188 21.222656 62.007812 21.375 61.996094 21.558594 C 62.585938 21.59375 63.015625 21.644531 63.257812 21.675781 C 63.539062 20.742188 63.800781 19.199219 63.527344 17.015625 C 63.507812 16.835938 63.636719 16.667969 63.816406 16.644531 C 64 16.621094 64.164062 16.753906 64.1875 16.933594 C 64.707031 21.066406 63.417969 23.042969 63.363281 23.125 C 63.300781 23.21875 63.195312 23.269531 63.085938 23.269531 C 63.042969 23.269531 63 23.257812 62.957031 23.242188 C 62.210938 24.867188 61.03125 26.101562 60.246094 26.804688 C 65.207031 24.707031 67.226562 19.675781 67.246094 19.625 C 67.3125 19.453125 67.503906 19.367188 67.675781 19.433594 C 67.847656 19.5 67.929688 19.691406 67.863281 19.863281 C 67.847656 19.902344 67.769531 20.097656 67.625 20.398438 C 67.632812 21 67.765625 25.042969 69.839844 27.042969 C 69.503906 25.957031 69.789062 24.425781 69.980469 23.617188 C 69.414062 22.640625 69.160156 21.988281 69.128906 21.910156 C 69.0625 21.734375 69.148438 21.542969 69.320312 21.480469 Z M 37.699219 22.90625 C 34.574219 20.882812 31.519531 18.304688 29.683594 15.195312 C 28.121094 18.0625 27.242188 21.074219 26.742188 24.050781 C 26.917969 24.082031 27.042969 24.25 27.015625 24.429688 C 26.351562 28.457031 26.261719 31.964844 26.171875 35.355469 C 26.128906 37.046875 26.082031 38.789062 25.96875 40.585938 C 25.613281 46.152344 20.261719 48.238281 20.207031 48.261719 C 20.167969 48.277344 20.128906 48.28125 20.089844 48.28125 C 19.976562 48.28125 19.875 48.222656 19.816406 48.125 C 18.878906 48.71875 17.878906 49.335938 16.863281 49.976562 C 16.953125 50.125 16.917969 50.320312 16.777344 50.421875 L 11.144531 54.363281 C 11.085938 54.402344 11.019531 54.421875 10.953125 54.421875 C 10.855469 54.421875 10.761719 54.378906 10.699219 54.300781 C 10.109375 54.792969 9.542969 55.300781 9.015625 55.828125 C 9.023438 55.835938 9.03125 55.835938 9.039062 55.84375 C 9.15625 55.984375 9.136719 56.195312 8.996094 56.3125 C 8.703125 56.558594 2.609375 61.816406 6.175781 69.042969 C 7.84375 69.730469 10.070312 70.550781 12.671875 71.242188 C 11.746094 69.519531 11.40625 68 11.617188 66.578125 C 12.085938 63.417969 15.277344 61.074219 19.324219 58.09375 C 20.621094 57.140625 21.960938 56.15625 23.375 55.035156 C 31.824219 48.332031 29.398438 40.109375 29.371094 40.027344 C 29.316406 39.855469 29.414062 39.667969 29.589844 39.613281 C 29.765625 39.5625 29.949219 39.65625 30.003906 39.832031 C 30.03125 39.921875 32.589844 48.570312 23.785156 55.558594 C 22.363281 56.683594 21.015625 57.675781 19.714844 58.632812 C 15.640625 61.628906 12.695312 63.792969 12.269531 66.675781 C 12.058594 68.097656 12.472656 69.652344 13.558594 71.472656 C 16.648438 72.238281 20.191406 72.792969 23.867188 72.742188 C 23.191406 71.640625 22.59375 70.425781 22.199219 69.066406 C 19.738281 60.652344 29.746094 52.289062 30.175781 51.9375 C 30.316406 51.820312 30.523438 51.839844 30.640625 51.984375 C 30.757812 52.121094 30.738281 52.332031 30.597656 52.449219 C 30.492188 52.535156 20.496094 60.890625 22.835938 68.882812 C 23.25 70.308594 23.902344 71.582031 24.644531 72.726562 C 27.480469 72.621094 30.382812 72.144531 33.207031 71.113281 C 33.984375 67.539062 35.773438 65.5625 35.890625 65.433594 C 35.9375 65.390625 35.992188 65.359375 36.050781 65.34375 C 36.390625 64.515625 36.6875 63.632812 36.941406 62.699219 C 37.179688 61.824219 37.382812 60.90625 37.554688 59.960938 C 37.53125 59.960938 37.507812 59.957031 37.488281 59.953125 C 37.3125 59.914062 37.199219 59.738281 37.238281 59.558594 C 38.328125 54.585938 38.421875 47.28125 37.507812 38.988281 C 37.488281 38.800781 37.472656 38.671875 37.464844 38.605469 C 37.390625 37.773438 36.066406 27.15625 36.054688 27.050781 C 36.03125 26.867188 36.164062 26.703125 36.34375 26.679688 C 36.527344 26.65625 36.691406 26.785156 36.714844 26.96875 C 36.753906 27.285156 37.441406 32.824219 37.847656 36.140625 C 39.824219 32.332031 44.195312 27.78125 44.394531 27.570312 C 44.523438 27.441406 44.730469 27.433594 44.863281 27.5625 C 44.871094 27.570312 44.871094 27.578125 44.878906 27.585938 C 45.101562 27.390625 45.328125 27.195312 45.554688 27.007812 C 44 26.351562 41.992188 25.421875 39.890625 24.234375 C 39.164062 23.824219 38.429688 23.382812 37.699219 22.90625 Z M 37.699219 22.90625 " fill-opacity="1" fill-rule="nonzero"/><path fill="#000000" d="M 50.816406 23.714844 L 48.546875 25.136719 C 48.546875 25.066406 48.535156 24.992188 48.488281 24.933594 C 48.378906 24.785156 48.171875 24.757812 48.027344 24.867188 L 46.144531 26.253906 C 46.003906 26.355469 45.972656 26.546875 46.0625 26.691406 L 45.550781 27.011719 C 43.996094 26.351562 41.988281 25.425781 39.890625 24.234375 C 39.164062 23.824219 38.429688 23.382812 37.699219 22.910156 C 34.574219 20.886719 31.523438 18.308594 29.6875 15.195312 C 30.464844 13.777344 31.40625 12.394531 32.554688 11.070312 C 32.558594 11.070312 32.558594 11.070312 32.558594 11.070312 C 32.617188 11.113281 32.683594 11.132812 32.75 11.132812 C 32.855469 11.132812 32.957031 11.085938 33.019531 10.996094 C 35.664062 7.320312 43.378906 3.699219 43.457031 3.664062 C 43.613281 3.589844 43.679688 3.414062 43.625 3.253906 C 43.75 3.203125 43.878906 3.140625 44.003906 3.089844 C 43.90625 4.304688 43.855469 5.953125 43.972656 7.832031 C 37.691406 12.203125 36.082031 18.8125 36.0625 18.894531 C 36.019531 19.074219 36.128906 19.253906 36.308594 19.292969 C 36.332031 19.300781 36.359375 19.300781 36.382812 19.300781 C 36.53125 19.300781 36.667969 19.199219 36.703125 19.046875 C 36.722656 18.96875 38.222656 12.820312 44.03125 8.601562 C 44.171875 10.230469 44.453125 12.007812 44.953125 13.816406 C 45.121094 14.417969 45.308594 15.019531 45.527344 15.617188 C 46.5625 18.484375 48.21875 21.335938 50.816406 23.714844 Z M 89.261719 23.269531 C 89.078125 23.257812 88.9375 23.101562 88.945312 22.917969 C 88.949219 22.855469 89.242188 16.359375 84.890625 11.808594 C 84.207031 11.09375 83.429688 10.515625 82.609375 10.050781 C 82.589844 11.160156 82.511719 12.613281 82.28125 14.261719 L 82.28125 14.265625 C 82.050781 15.933594 81.660156 17.792969 81.039062 19.667969 C 80.398438 21.566406 79.511719 23.476562 78.28125 25.222656 C 78.085938 25.496094 77.886719 25.765625 77.679688 26.023438 C 76.945312 26.949219 76.097656 27.808594 75.136719 28.582031 C 76.03125 29.328125 77.058594 30.058594 78.230469 30.734375 C 78.121094 28.265625 77.617188 27.167969 77.609375 27.148438 C 77.53125 26.984375 77.597656 26.785156 77.761719 26.707031 C 77.925781 26.628906 78.125 26.695312 78.203125 26.859375 C 78.25 26.949219 78.960938 28.464844 78.921875 31.941406 C 80.652344 31.671875 82.832031 31.164062 85.019531 30.191406 C 85.371094 30.039062 85.722656 29.867188 86.070312 29.691406 C 86.039062 28.523438 86.070312 27.808594 86.074219 27.78125 C 86.085938 27.59375 86.238281 27.460938 86.421875 27.464844 C 86.601562 27.476562 86.746094 27.628906 86.734375 27.8125 C 86.734375 27.835938 86.710938 28.402344 86.726562 29.339844 C 86.90625 29.234375 87.085938 29.128906 87.269531 29.019531 C 88.175781 28.46875 89.0625 27.808594 89.886719 27.046875 C 89.6875 25.816406 89.511719 24.550781 89.332031 23.261719 C 89.316406 23.265625 89.304688 23.269531 89.285156 23.269531 C 89.273438 23.269531 89.265625 23.269531 89.261719 23.269531 Z M 18.511719 83.773438 C 22.46875 84.679688 25.730469 84.625 28.375 84.078125 C 27.359375 83.417969 26.21875 82.761719 25.007812 82.070312 C 21.339844 79.964844 17.183594 77.582031 14.207031 73.613281 C 13.582031 72.78125 13.070312 71.992188 12.667969 71.242188 C 10.070312 70.550781 7.839844 69.730469 6.171875 69.042969 C 6.613281 69.933594 7.203125 70.859375 7.96875 71.804688 C 12.617188 77.5625 16.410156 81.621094 18.511719 83.773438 Z M 25.335938 81.492188 C 26.738281 82.296875 28.082031 83.066406 29.257812 83.875 C 31.324219 83.335938 32.980469 82.496094 34.265625 81.625 C 33.914062 80.679688 33.613281 79.746094 33.390625 78.824219 C 32.648438 75.75 32.757812 73.167969 33.207031 71.109375 C 30.382812 72.140625 27.480469 72.621094 24.644531 72.726562 C 25.519531 74.082031 26.519531 75.261719 27.402344 76.304688 C 28.949219 78.128906 30.175781 79.570312 30.042969 81.035156 C 30.027344 81.207031 29.882812 81.335938 29.714844 81.335938 C 29.703125 81.335938 29.691406 81.335938 29.683594 81.335938 C 29.5 81.320312 29.367188 81.15625 29.382812 80.976562 C 29.492188 79.789062 28.347656 78.441406 26.898438 76.734375 C 25.925781 75.589844 24.820312 74.28125 23.875 72.746094 C 20.199219 72.796875 16.652344 72.242188 13.5625 71.476562 C 13.894531 72.03125 14.285156 72.613281 14.742188 73.21875 C 17.632812 77.074219 21.726562 79.421875 25.335938 81.492188 Z M 82.980469 70.539062 C 81.921875 69.625 81.058594 68.777344 80.355469 67.988281 C 79.113281 68.242188 77.933594 68.390625 76.945312 68.476562 C 77.671875 69.71875 78.589844 70.894531 79.742188 71.976562 C 83.742188 75.730469 86.167969 79.421875 87.292969 82.949219 L 87.296875 82.949219 C 88.570312 82.859375 89.800781 82.722656 90.957031 82.554688 C 90.417969 78.621094 87.777344 74.65625 82.980469 70.539062 Z M 87.128906 65.21875 C 86.078125 65.996094 84.894531 66.585938 83.679688 67.042969 C 82.820312 67.367188 81.949219 67.621094 81.097656 67.824219 C 81.734375 68.507812 82.496094 69.242188 83.414062 70.03125 C 88.34375 74.265625 91.054688 78.363281 91.621094 82.445312 C 92.058594 82.378906 92.480469 82.304688 92.890625 82.230469 C 93.925781 82.046875 94.886719 81.84375 95.734375 81.644531 C 97.269531 81.289062 98.457031 80.949219 99.160156 80.734375 C 100.175781 77.289062 99.574219 73.789062 97.28125 69.667969 C 95.574219 66.597656 93.023438 64.875 90.554688 63.210938 C 90.242188 63 89.933594 62.789062 89.628906 62.578125 C 88.96875 63.632812 88.109375 64.503906 87.128906 65.21875 Z M 115.730469 58.652344 C 114.082031 54.128906 108.75 50.621094 105.464844 48.820312 C 104.609375 51.046875 102.882812 53.652344 99.382812 54.703125 C 100.207031 55.34375 100.75 55.71875 100.835938 55.777344 C 101.109375 55.925781 104.527344 57.855469 106.691406 61.339844 C 107.371094 62.402344 107.90625 63.585938 108.175781 64.882812 C 108.546875 66.484375 108.578125 68.28125 108.058594 70.261719 C 109.226562 70.164062 113.117188 69.65625 116.054688 67.269531 C 116.894531 64.433594 116.789062 61.550781 115.730469 58.652344 Z M 115.730469 58.652344 " fill-opacity="1" fill-rule="nonzero"/></svg>