<svg xmlns="http://www.w3.org/2000/svg" xmlns:xlink="http://www.w3.org/1999/xlink" width="105" zoomAndPan="magnify" viewBox="0 0 78.75 56.999997" height="76" preserveAspectRatio="xMidYMid meet" version="1.0"><defs><clipPath id="c90ffb8305"><path d="M 0 0.0898438 L 78.5 0.0898438 L 78.5 56 L 0 56 Z M 0 0.0898438 " clip-rule="nonzero"/></clipPath><clipPath id="0cbd91f415"><path d="M 0 0.0898438 L 78.5 0.0898438 L 78.5 56 L 0 56 Z M 0 0.0898438 " clip-rule="nonzero"/></clipPath></defs><g clip-path="url(#c90ffb8305)"><path fill="#000001" d="M 59.09375 26.253906 C 52.542969 20.703125 41.90625 25.851562 36.253906 30.691406 C 35.207031 31.589844 34.503906 32.5 34.070312 33.796875 C 33.980469 34.0625 33.707031 35.984375 33.496094 35.984375 C 32.804688 35.984375 33.296875 34.601562 33.378906 33.914062 C 33.714844 31.070312 34.902344 28.421875 34.875 28.394531 C 34.503906 28.019531 33.042969 29.164062 32.804688 29.3125 C 30.582031 30.683594 28.515625 31.996094 26.9375 34.144531 C 26.859375 34.253906 25.234375 36.695312 25.097656 36.558594 C 24.324219 35.785156 25.550781 32.371094 25.671875 31.382812 C 25.683594 31.300781 25.75 30.972656 25.558594 30.921875 C 22.078125 30.050781 17.636719 36.160156 16.472656 38.742188 C 16.214844 39.316406 15.195312 42.882812 14.285156 42.882812 C 13.460938 42.882812 14.175781 38.175781 13.941406 37.132812 C 13.890625 36.90625 13.648438 36.613281 13.367188 36.789062 C 10.511719 38.574219 7.203125 42.699219 6.234375 45.875 C 5.773438 47.398438 5.847656 49.132812 5.660156 50.707031 C 5.582031 51.363281 5.316406 52.660156 5.316406 52.660156 C 5.316406 52.660156 5.027344 52.257812 4.855469 52.085938 C 4.0625 51.292969 3.765625 50.417969 3.246094 49.441406 C 1.703125 46.53125 0.355469 44.746094 0.253906 41.273438 C 0 32.386719 2.164062 22.523438 7.730469 15.394531 C 10.050781 12.425781 16.613281 5.390625 20.726562 5.390625 C 21 5.390625 20.191406 5.457031 19.921875 5.503906 C 19.070312 5.660156 19.136719 5.683594 18.3125 5.847656 C 16.769531 6.15625 14.679688 5.96875 13.25 6.539062 C 13.25 6.539062 12.90625 6.683594 12.90625 6.769531 C 12.90625 6.824219 15.582031 5.324219 15.667969 5.273438 C 18 3.875 20.613281 2.621094 23.257812 1.9375 C 30.40625 0.09375 41.464844 1.109375 48.792969 2.054688 C 53.679688 2.683594 59.976562 5.398438 62.59375 9.761719 C 63.695312 11.597656 63.945312 13.875 64.664062 15.855469 C 64.929688 16.582031 65.132812 17.300781 65.238281 18.042969 C 65.289062 18.390625 65.46875 19.429688 65.46875 19.078125 C 65.46875 16.957031 67.496094 15.820312 68.6875 14.359375 C 68.746094 14.292969 70.757812 11.167969 70.757812 12.519531 C 70.757812 14.722656 68.460938 17.226562 68.460938 19.304688 C 68.460938 19.699219 69.230469 19.179688 69.609375 19.078125 C 70.425781 18.855469 70.722656 18.777344 71.679688 18.730469 C 73.191406 18.65625 74.894531 18.773438 76.28125 19.421875 C 77.011719 19.761719 78.464844 20.457031 78.464844 20.457031 C 78.464844 20.457031 76.625 20.570312 75.707031 20.570312 C 74.125 20.570312 71.363281 19.789062 70.183594 21.261719 C 69.175781 22.519531 72.40625 25.515625 72.945312 27.128906 C 74.320312 31.25 74.441406 36.265625 74.441406 40.585938 C 74.441406 44.292969 71.8125 47.855469 70.070312 51.050781 C 69.886719 51.386719 68.703125 54.269531 68.460938 54.269531 C 68.421875 54.269531 68.496094 50.128906 68 50.128906 C 67.171875 50.128906 67.636719 51.746094 67.425781 52.546875 C 67.332031 52.890625 66.078125 56.394531 65.125 54.960938 C 63.863281 53.066406 65.007812 48.910156 65.007812 46.910156 C 65.007812 42.941406 65.542969 38.914062 65.125 34.949219 C 64.9375 33.191406 63.664062 31.273438 63.167969 29.542969 " fill-opacity="1" fill-rule="evenodd"/></g><path fill="#000001" d="M 62.003906 18.828125 C 62.542969 16.792969 60.71875 15.355469 59.722656 13.761719 C 58.832031 12.339844 57.96875 10.632812 56.628906 9.566406 C 52.863281 6.566406 46.140625 4.519531 41.394531 3.824219 C 39.140625 3.496094 36.75 3.347656 34.472656 3.457031 C 33.242188 3.515625 32.988281 3.621094 31.824219 3.898438 C 31.597656 3.953125 30.96875 3.992188 31.160156 4.121094 C 31.769531 4.527344 41.136719 6.304688 42.863281 6.769531 C 43.945312 7.058594 45.214844 7.300781 46.234375 7.773438 C 46.453125 7.875 47.695312 9.199219 47.578125 9.199219 C 46.074219 9.199219 42.992188 8.121094 41.246094 7.949219 C 36.339844 7.457031 31.09375 7.359375 26.230469 8.242188 C 23.769531 8.6875 21.359375 9.289062 19.015625 10.15625 C 17.972656 10.542969 16.953125 10.988281 15.921875 11.40625 C 15.648438 11.519531 14.824219 11.71875 15.113281 11.777344 C 17.5 12.253906 20.519531 11.222656 22.917969 11.113281 C 25.441406 10.996094 27.914062 11.347656 30.425781 11.554688 C 31.800781 11.667969 33.105469 11.648438 34.472656 11.703125 C 36.074219 11.765625 36.847656 11.863281 36.535156 11.996094 C 34.988281 12.660156 32.863281 12.6875 31.234375 12.953125 C 25.910156 13.828125 20.046875 14.957031 15.265625 17.609375 C 13.265625 18.722656 10.007812 20.402344 10.179688 23.1875 C 10.195312 23.402344 10.335938 23.519531 10.539062 23.550781 C 10.558594 23.554688 19.609375 19.878906 20.632812 19.578125 C 21.5 19.324219 22.363281 19.070312 23.210938 18.769531 C 24.429688 18.339844 25.210938 18.03125 24.976562 18.03125 C 24.398438 18.03125 21.875 19.652344 21.589844 19.800781 C 17.519531 21.910156 13.003906 24.066406 9.738281 27.382812 C 8.449219 28.691406 7.265625 30.136719 6.132812 31.578125 C 5.511719 32.367188 4.386719 34.441406 4.585938 34.375 C 5.800781 33.96875 6.921875 32.554688 8.121094 31.945312 C 12.765625 29.578125 17.734375 27.394531 22.546875 25.394531 C 24.589844 24.546875 26.707031 23.738281 28.804688 23.039062 C 30.820312 22.367188 33.648438 21.582031 32.925781 22.300781 C 32.0625 23.164062 30.207031 23.765625 29.171875 24.363281 C 27.335938 25.429688 19.238281 30.164062 18.792969 31.945312 C 18.75 32.113281 19.148438 31.933594 19.308594 31.871094 C 19.585938 31.765625 21.378906 30.800781 21.445312 30.769531 C 23.953125 29.453125 26.5 28.21875 29.027344 26.941406 C 33.816406 24.511719 38.652344 22.429688 43.675781 20.535156 C 44.851562 20.09375 48.554688 18.226562 50.078125 18.988281 C 50.84375 19.371094 47.191406 19.863281 47.0625 19.875 C 44.980469 20.046875 44.273438 18.167969 42.351562 18.105469 C 39.726562 18.019531 36.675781 19.46875 34.105469 20.09375 C 33.75 20.179688 31.273438 21.164062 30.941406 20.832031 C 30.382812 20.269531 32.339844 20.09375 33.074219 19.800781 C 33.964844 19.445312 34.878906 19.15625 35.78125 18.832031 C 39.519531 17.496094 43.574219 16.820312 47.503906 16.339844 C 48.28125 16.246094 51.082031 16.441406 51.773438 15.75 C 52.164062 15.359375 50.699219 15.472656 50.152344 15.382812 C 48.636719 15.136719 47.113281 14.886719 45.589844 14.71875 C 43.429688 14.484375 41.261719 14.484375 39.109375 14.792969 C 37.851562 14.976562 36.199219 15.53125 34.914062 15.53125 C 34.546875 15.53125 35.65625 15.515625 36.019531 15.457031 C 37.074219 15.28125 38.128906 15.105469 39.183594 14.941406 C 42.023438 14.496094 44.863281 14.277344 47.722656 14.058594 C 48.851562 13.972656 50.054688 13.957031 51.183594 13.835938 C 52.113281 13.738281 53.171875 13.605469 53.171875 13.542969 C 53.171875 12.71875 50.898438 12.390625 50.375 12.21875 C 50.25 12.175781 50.003906 12.070312 50.003906 12.070312 C 50.003906 12.070312 52.921875 13.367188 54.273438 14.203125 C 57.054688 15.921875 60.679688 18.429688 60.679688 21.933594 " fill-opacity="1" fill-rule="evenodd"/><path fill="#000001" d="M 64.042969 24.15625 C 64.304688 22.539062 69.804688 26.035156 70.671875 27.011719 C 74.113281 30.882812 73.957031 35.140625 72.824219 39.675781 C 72.777344 39.867188 72.558594 39.621094 72.53125 39.601562 C 72.046875 39.246094 72.058594 38.597656 71.941406 38.054688 C 71.730469 37.089844 71.410156 33.691406 69.898438 33.691406 C 69.867188 33.691406 69.824219 33.6875 69.808594 33.710938 C 69.484375 34.167969 70.308594 35.945312 70.394531 36.4375 C 70.753906 38.460938 71.042969 40.769531 70.75 42.824219 C 70.601562 43.851562 70.101562 44.902344 70.101562 45.933594 C 70.101562 46.886719 69.574219 45.144531 69.4375 44.460938 C 69.234375 43.441406 69.421875 42.378906 69.21875 41.367188 C 69.21875 41.367188 69.128906 41.148438 69.070312 41.148438 C 68.949219 41.148438 69.085938 41.394531 69.070312 41.515625 C 68.742188 43.988281 68.332031 46.527344 67.746094 48.949219 C 67.597656 49.558594 67.539062 50.1875 67.082031 50.644531 C 66.972656 50.753906 66.828125 51.046875 66.714844 50.9375 C 66.144531 50.367188 67.558594 38.660156 67.597656 37.246094 C 67.609375 36.855469 68.117188 34.304688 67.820312 34.007812 C 67.730469 33.917969 67.746094 34.25 67.746094 34.375 L 67.746094 36.582031 C 67.773438 37.515625 67.535156 39.179688 67.964844 40.042969 C 67.980469 40.070312 68.011719 39.558594 68.039062 38.644531 C 68.050781 38.324219 68.042969 36.722656 68.023438 36.261719 C 67.945312 34.113281 67.625 31.746094 66.886719 29.714844 C 66.542969 28.773438 66.507812 28.851562 66.050781 27.898438 C 65.90625 27.589844 65.34375 26.941406 65.683594 26.941406 C 66.585938 26.941406 67.789062 28.523438 68.261719 29.148438 C 68.941406 30.046875 68.902344 30.003906 69.4375 30.988281 C 69.457031 31.019531 69.535156 31.085938 69.511719 31.0625 C 67.84375 29.394531 67.597656 25.808594 65.097656 25.027344 " fill-opacity="1" fill-rule="evenodd"/><g clip-path="url(#0cbd91f415)"><path fill="#000001" d="M 59.09375 26.253906 C 52.542969 20.703125 41.90625 25.851562 36.253906 30.691406 C 35.207031 31.589844 34.503906 32.5 34.070312 33.796875 C 33.980469 34.0625 33.707031 35.984375 33.496094 35.984375 C 32.804688 35.984375 33.296875 34.601562 33.378906 33.914062 C 33.714844 31.070312 34.902344 28.421875 34.875 28.394531 C 34.503906 28.019531 33.042969 29.164062 32.804688 29.3125 C 30.582031 30.683594 28.515625 31.996094 26.9375 34.144531 C 26.859375 34.253906 25.234375 36.695312 25.097656 36.558594 C 24.324219 35.785156 25.550781 32.371094 25.671875 31.382812 C 25.683594 31.300781 25.75 30.972656 25.558594 30.921875 C 22.078125 30.050781 17.636719 36.160156 16.472656 38.742188 C 16.214844 39.316406 15.195312 42.882812 14.285156 42.882812 C 13.460938 42.882812 14.175781 38.175781 13.941406 37.132812 C 13.890625 36.90625 13.648438 36.613281 13.367188 36.789062 C 10.511719 38.574219 7.203125 42.699219 6.234375 45.875 C 5.773438 47.398438 5.847656 49.132812 5.660156 50.707031 C 5.582031 51.363281 5.316406 52.660156 5.316406 52.660156 C 5.316406 52.660156 5.027344 52.257812 4.855469 52.085938 C 4.0625 51.292969 3.765625 50.417969 3.246094 49.441406 C 1.703125 46.53125 0.355469 44.746094 0.253906 41.273438 C 0 32.386719 2.164062 22.523438 7.730469 15.394531 C 10.050781 12.425781 16.613281 5.390625 20.726562 5.390625 C 21 5.390625 20.191406 5.457031 19.921875 5.503906 C 19.070312 5.660156 19.136719 5.683594 18.3125 5.847656 C 16.769531 6.15625 14.679688 5.96875 13.25 6.539062 C 13.25 6.539062 12.90625 6.683594 12.90625 6.769531 C 12.90625 6.824219 15.582031 5.324219 15.667969 5.273438 C 18 3.875 20.613281 2.621094 23.257812 1.9375 C 30.40625 0.09375 41.464844 1.109375 48.792969 2.054688 C 53.679688 2.683594 59.976562 5.398438 62.59375 9.761719 C 63.695312 11.597656 63.945312 13.875 64.664062 15.855469 C 64.929688 16.582031 65.132812 17.300781 65.238281 18.042969 C 65.289062 18.390625 65.46875 19.429688 65.46875 19.078125 C 65.46875 16.957031 67.496094 15.820312 68.6875 14.359375 C 68.746094 14.292969 70.757812 11.167969 70.757812 12.519531 C 70.757812 14.722656 68.460938 17.226562 68.460938 19.304688 C 68.460938 19.699219 69.230469 19.179688 69.609375 19.078125 C 70.425781 18.855469 70.722656 18.777344 71.679688 18.730469 C 73.191406 18.65625 74.894531 18.773438 76.28125 19.421875 C 77.011719 19.761719 78.464844 20.457031 78.464844 20.457031 C 78.464844 20.457031 76.625 20.570312 75.707031 20.570312 C 74.125 20.570312 71.363281 19.789062 70.183594 21.261719 C 69.175781 22.519531 72.40625 25.515625 72.945312 27.128906 C 74.320312 31.25 74.441406 36.265625 74.441406 40.585938 C 74.441406 44.292969 71.8125 47.855469 70.070312 51.050781 C 69.886719 51.386719 68.703125 54.269531 68.460938 54.269531 C 68.421875 54.269531 68.496094 50.128906 68 50.128906 C 67.171875 50.128906 67.636719 51.746094 67.425781 52.546875 C 67.332031 52.890625 66.078125 56.394531 65.125 54.960938 C 63.863281 53.066406 65.007812 48.910156 65.007812 46.910156 C 65.007812 42.941406 65.542969 38.914062 65.125 34.949219 C 64.9375 33.191406 63.664062 31.273438 63.167969 29.542969 " fill-opacity="1" fill-rule="evenodd"/></g><path fill="#000001" d="M 62.003906 18.828125 C 62.542969 16.792969 60.71875 15.355469 59.722656 13.761719 C 58.832031 12.339844 57.96875 10.632812 56.628906 9.566406 C 52.863281 6.566406 46.140625 4.519531 41.394531 3.824219 C 39.140625 3.496094 36.75 3.347656 34.472656 3.457031 C 33.242188 3.515625 32.988281 3.621094 31.824219 3.898438 C 31.597656 3.953125 30.96875 3.992188 31.160156 4.121094 C 31.769531 4.527344 41.136719 6.304688 42.863281 6.769531 C 43.945312 7.058594 45.214844 7.300781 46.234375 7.773438 C 46.453125 7.875 47.695312 9.199219 47.578125 9.199219 C 46.074219 9.199219 42.992188 8.121094 41.246094 7.949219 C 36.339844 7.457031 31.09375 7.359375 26.230469 8.242188 C 23.769531 8.6875 21.359375 9.289062 19.015625 10.15625 C 17.972656 10.542969 16.953125 10.988281 15.921875 11.40625 C 15.648438 11.519531 14.824219 11.71875 15.113281 11.777344 C 17.5 12.253906 20.519531 11.222656 22.917969 11.113281 C 25.441406 10.996094 27.914062 11.347656 30.425781 11.554688 C 31.800781 11.667969 33.105469 11.648438 34.472656 11.703125 C 36.074219 11.765625 36.847656 11.863281 36.535156 11.996094 C 34.988281 12.660156 32.863281 12.6875 31.234375 12.953125 C 25.910156 13.828125 20.046875 14.957031 15.265625 17.609375 C 13.265625 18.722656 10.007812 20.402344 10.179688 23.1875 C 10.195312 23.402344 10.335938 23.519531 10.539062 23.550781 C 10.558594 23.554688 19.609375 19.878906 20.632812 19.578125 C 21.5 19.324219 22.363281 19.070312 23.210938 18.769531 C 24.429688 18.339844 25.210938 18.03125 24.976562 18.03125 C 24.398438 18.03125 21.875 19.652344 21.589844 19.800781 C 17.519531 21.910156 13.003906 24.066406 9.738281 27.382812 C 8.449219 28.691406 7.265625 30.136719 6.132812 31.578125 C 5.511719 32.367188 4.386719 34.441406 4.585938 34.375 C 5.800781 33.96875 6.921875 32.554688 8.121094 31.945312 C 12.765625 29.578125 17.734375 27.394531 22.546875 25.394531 C 24.589844 24.546875 26.707031 23.738281 28.804688 23.039062 C 30.820312 22.367188 33.648438 21.582031 32.925781 22.300781 C 32.0625 23.164062 30.207031 23.765625 29.171875 24.363281 C 27.335938 25.429688 19.238281 30.164062 18.792969 31.945312 C 18.75 32.113281 19.148438 31.933594 19.308594 31.871094 C 19.585938 31.765625 21.378906 30.800781 21.445312 30.769531 C 23.953125 29.453125 26.5 28.21875 29.027344 26.941406 C 33.816406 24.511719 38.652344 22.429688 43.675781 20.535156 C 44.851562 20.09375 48.554688 18.226562 50.078125 18.988281 C 50.84375 19.371094 47.191406 19.863281 47.0625 19.875 C 44.980469 20.046875 44.273438 18.167969 42.351562 18.105469 C 39.726562 18.019531 36.675781 19.46875 34.105469 20.09375 C 33.75 20.179688 31.273438 21.164062 30.941406 20.832031 C 30.382812 20.269531 32.339844 20.09375 33.074219 19.800781 C 33.964844 19.445312 34.878906 19.15625 35.78125 18.832031 C 39.519531 17.496094 43.574219 16.820312 47.503906 16.339844 C 48.28125 16.246094 51.082031 16.441406 51.773438 15.75 C 52.164062 15.359375 50.699219 15.472656 50.152344 15.382812 C 48.636719 15.136719 47.113281 14.886719 45.589844 14.71875 C 43.429688 14.484375 41.261719 14.484375 39.109375 14.792969 C 37.851562 14.976562 36.199219 15.53125 34.914062 15.53125 C 34.546875 15.53125 35.65625 15.515625 36.019531 15.457031 C 37.074219 15.28125 38.128906 15.105469 39.183594 14.941406 C 42.023438 14.496094 44.863281 14.277344 47.722656 14.058594 C 48.851562 13.972656 50.054688 13.957031 51.183594 13.835938 C 52.113281 13.738281 53.171875 13.605469 53.171875 13.542969 C 53.171875 12.71875 50.898438 12.390625 50.375 12.21875 C 50.25 12.175781 50.003906 12.070312 50.003906 12.070312 C 50.003906 12.070312 52.921875 13.367188 54.273438 14.203125 C 57.054688 15.921875 60.679688 18.429688 60.679688 21.933594 " fill-opacity="1" fill-rule="evenodd"/><path fill="#000001" d="M 64.042969 24.15625 C 64.304688 22.539062 69.804688 26.035156 70.671875 27.011719 C 74.113281 30.882812 73.957031 35.140625 72.824219 39.675781 C 72.777344 39.867188 72.558594 39.621094 72.53125 39.601562 C 72.046875 39.246094 72.058594 38.597656 71.941406 38.054688 C 71.730469 37.089844 71.410156 33.691406 69.898438 33.691406 C 69.867188 33.691406 69.824219 33.6875 69.808594 33.710938 C 69.484375 34.167969 70.308594 35.945312 70.394531 36.4375 C 70.753906 38.460938 71.042969 40.769531 70.75 42.824219 C 70.601562 43.851562 70.101562 44.902344 70.101562 45.933594 C 70.101562 46.886719 69.574219 45.144531 69.4375 44.460938 C 69.234375 43.441406 69.421875 42.378906 69.21875 41.367188 C 69.21875 41.367188 69.128906 41.148438 69.070312 41.148438 C 68.949219 41.148438 69.085938 41.394531 69.070312 41.515625 C 68.742188 43.988281 68.332031 46.527344 67.746094 48.949219 C 67.597656 49.558594 67.539062 50.1875 67.082031 50.644531 C 66.972656 50.753906 66.828125 51.046875 66.714844 50.9375 C 66.144531 50.367188 67.558594 38.660156 67.597656 37.246094 C 67.609375 36.855469 68.117188 34.304688 67.820312 34.007812 C 67.730469 33.917969 67.746094 34.25 67.746094 34.375 L 67.746094 36.582031 C 67.773438 37.515625 67.535156 39.179688 67.964844 40.042969 C 67.980469 40.070312 68.011719 39.558594 68.039062 38.644531 C 68.050781 38.324219 68.042969 36.722656 68.023438 36.261719 C 67.945312 34.113281 67.625 31.746094 66.886719 29.714844 C 66.542969 28.773438 66.507812 28.851562 66.050781 27.898438 C 65.90625 27.589844 65.34375 26.941406 65.683594 26.941406 C 66.585938 26.941406 67.789062 28.523438 68.261719 29.148438 C 68.941406 30.046875 68.902344 30.003906 69.4375 30.988281 C 69.457031 31.019531 69.535156 31.085938 69.511719 31.0625 C 67.84375 29.394531 67.597656 25.808594 65.097656 25.027344 " fill-opacity="1" fill-rule="evenodd"/></svg>