<svg xmlns="http://www.w3.org/2000/svg" xmlns:xlink="http://www.w3.org/1999/xlink" width="84" zoomAndPan="magnify" viewBox="0 0 63 62.999997" height="84" preserveAspectRatio="xMidYMid meet" version="1.0"><defs><clipPath id="5b8ad7eec1"><path d="M 12 27.699219 L 50.925781 27.699219 L 50.925781 47.949219 L 12 47.949219 Z M 12 27.699219 " clip-rule="nonzero"/></clipPath></defs><g clip-path="url(#5b8ad7eec1)"><path fill="#000000" d="M 22.101562 33.097656 C 23.796875 35.773438 21.859375 40.320312 18.660156 40.320312 C 17.84375 40.320312 16.949219 40.035156 16.023438 39.351562 C 13.574219 37.707031 13.367188 33.75 15.796875 32.007812 L 15.652344 31.976562 C 14.375 31.847656 11.925781 32.132812 12.007812 30.28125 C 12.277344 27.714844 20.582031 30.21875 21.8125 31.375 C 21.949219 31.464844 22.066406 31.582031 22.15625 31.722656 C 22.246094 31.859375 22.304688 32.011719 22.332031 32.175781 C 22.359375 32.339844 22.351562 32.5 22.3125 32.660156 C 22.273438 32.820312 22.203125 32.96875 22.101562 33.097656 Z M 48.957031 27.9375 C 47.230469 28.097656 45.550781 28.539062 43.886719 28.96875 C 42.753906 29.285156 41.632812 29.710938 40.527344 30.140625 C 40.082031 30.328125 39.570312 30.457031 39.214844 30.820312 C 39.011719 31.019531 38.890625 31.261719 38.855469 31.542969 C 38.816406 31.828125 38.867188 32.089844 39.007812 32.339844 C 39.160156 32.601562 39.378906 32.789062 39.664062 32.894531 C 38.65625 35.03125 39.105469 38.101562 41.664062 39.320312 C 42.050781 39.472656 42.449219 39.546875 42.863281 39.542969 C 46.765625 39.542969 49.628906 32.941406 45.617188 31.261719 L 46.429688 31.042969 C 47.070312 30.882812 47.710938 30.773438 48.335938 30.660156 C 48.957031 30.550781 49.773438 30.644531 50.191406 30.058594 C 50.925781 29.140625 50.109375 27.78125 48.957031 27.9375 Z M 34.785156 43.753906 C 33.265625 44.6875 31.507812 44.972656 29.792969 45.355469 C 28.644531 45.734375 28.851562 47.507812 29.859375 47.917969 L 30.484375 47.917969 C 32.460938 47.925781 34.320312 47.46875 36.066406 46.542969 C 37.503906 45.65625 39.167969 44.453125 39.488281 42.710938 C 38.816406 39.875 36.144531 43.214844 34.785156 43.753906 Z M 34.785156 43.753906 " fill-opacity="1" fill-rule="nonzero"/></g></svg>