<svg xmlns="http://www.w3.org/2000/svg" xmlns:xlink="http://www.w3.org/1999/xlink" width="84" zoomAndPan="magnify" viewBox="0 0 63 62.999997" height="84" preserveAspectRatio="xMidYMid meet" version="1.0"><defs><clipPath id="b6a36699b3"><path d="M 15 26 L 49 26 L 49 54.164062 L 15 54.164062 Z M 15 26 " clip-rule="nonzero"/></clipPath></defs><g clip-path="url(#b6a36699b3)"><path fill="#000000" d="M 21.035156 37.382812 C 20.523438 37.378906 20.015625 37.332031 19.511719 37.234375 C 17.335938 36.734375 14.335938 34.421875 16.089844 32.085938 C 17.019531 30.835938 18.328125 29.753906 20 30.167969 C 26.082031 30.855469 26.546875 37.382812 21.035156 37.382812 Z M 46.914062 31.878906 C 46.113281 30.253906 43.046875 30.835938 41.632812 31.355469 C 38.019531 32.859375 38.675781 36.796875 42.457031 37.359375 C 42.746094 37.445312 43.042969 37.488281 43.34375 37.484375 C 46.324219 37.484375 50.335938 34.109375 46.914062 31.878906 Z M 25.386719 28.273438 C 24.078125 27.667969 21.941406 25 20.867188 27.167969 C 20.507812 28.898438 22.957031 29.441406 24.035156 30.316406 C 24.238281 30.453125 24.464844 30.523438 24.710938 30.523438 C 25.746094 30.523438 26.507812 28.980469 25.386719 28.273438 Z M 40.238281 30.542969 C 40.871094 30.210938 41.464844 29.816406 42.078125 29.417969 C 42.6875 29.023438 42.878906 28.980469 43.027344 28.542969 C 43.109375 28.308594 43.109375 28.074219 43.027344 27.839844 C 42.945312 27.605469 42.796875 27.425781 42.582031 27.292969 C 42.445312 27.148438 42.277344 27.054688 42.082031 27.007812 C 41.886719 26.964844 41.695312 26.976562 41.507812 27.042969 C 40.988281 27.253906 40.488281 27.496094 40.007812 27.773438 C 39.476562 28.085938 38.84375 28.230469 38.484375 28.75 C 38.339844 28.976562 38.28125 29.21875 38.304688 29.480469 C 38.328125 29.746094 38.429688 29.972656 38.613281 30.167969 C 38.875 30.515625 39.230469 30.6875 39.667969 30.691406 C 39.871094 30.695312 40.0625 30.648438 40.238281 30.542969 Z M 35.273438 40.445312 C 35.378906 43.34375 34.789062 54.078125 30.859375 54.078125 L 30.773438 54.078125 C 29.484375 53.972656 27.6875 53.765625 27.289062 52.347656 C 26.757812 50.410156 26.78125 48.367188 26.695312 46.363281 C 26.824219 43.863281 26.378906 41.089844 27.582031 38.796875 C 27.847656 38.335938 28.238281 38.015625 28.746094 37.839844 L 28.746094 37.671875 C 28.808594 37.320312 29.167969 37.214844 29.484375 37.234375 C 30.109375 37.191406 30.738281 37.175781 31.367188 37.191406 C 32.019531 37.257812 33.246094 37.296875 33.667969 37.839844 C 33.710938 37.925781 33.730469 38.015625 33.730469 38.109375 C 34.175781 38.339844 34.535156 38.664062 34.8125 39.078125 C 35.085938 39.496094 35.238281 39.949219 35.273438 40.445312 Z M 32.90625 39.695312 C 32.90625 39.507812 32.929688 39.296875 32.929688 39.109375 L 32.929688 38.777344 C 32.9375 38.691406 32.921875 38.605469 32.886719 38.527344 L 32.757812 38.527344 C 31.96875 38.394531 31.171875 38.328125 30.371094 38.320312 C 30.21875 38.296875 30.0625 38.296875 29.90625 38.320312 L 29.632812 38.320312 C 29.480469 38.417969 29.421875 38.558594 29.464844 38.734375 C 29.460938 38.792969 29.46875 38.847656 29.484375 38.902344 C 29.457031 38.949219 29.449219 38.996094 29.464844 39.046875 C 29.464844 39.089844 29.441406 39.152344 29.441406 39.195312 C 29.441406 39.234375 29.421875 39.421875 29.421875 39.546875 C 29.425781 39.683594 29.441406 39.8125 29.464844 39.945312 L 29.464844 40.152344 C 29.484375 40.226562 29.511719 40.296875 29.546875 40.363281 C 29.601562 40.433594 29.671875 40.484375 29.757812 40.507812 C 29.9375 40.5625 30.121094 40.597656 30.308594 40.613281 L 30.648438 40.652344 L 31.238281 40.714844 L 31.789062 40.714844 C 31.992188 40.707031 32.199219 40.6875 32.402344 40.652344 C 32.472656 40.621094 32.527344 40.574219 32.570312 40.507812 C 32.644531 40.484375 32.710938 40.445312 32.757812 40.382812 C 32.851562 40.25 32.894531 40.105469 32.886719 39.945312 C 32.882812 39.859375 32.890625 39.777344 32.90625 39.695312 Z M 32.90625 39.695312 " fill-opacity="1" fill-rule="nonzero"/></g></svg>