<svg xmlns="http://www.w3.org/2000/svg" xmlns:xlink="http://www.w3.org/1999/xlink" width="84" zoomAndPan="magnify" viewBox="0 0 63 62.999997" height="84" preserveAspectRatio="xMidYMid meet" version="1.0"><defs><clipPath id="19bc778bdf"><path d="M 12 28.308594 L 52.875 28.308594 L 52.875 50.808594 L 12 50.808594 Z M 12 28.308594 " clip-rule="nonzero"/></clipPath></defs><g clip-path="url(#19bc778bdf)"><path fill="#000000" d="M 16.238281 35.582031 L 15.871094 35.582031 C 13.636719 35.628906 10.875 34.023438 12.625 31.578125 C 14.789062 29.738281 19.414062 28.320312 22.152344 29.226562 C 22.542969 29.375 22.863281 29.617188 23.117188 29.953125 C 23.371094 30.285156 23.515625 30.664062 23.550781 31.082031 C 23.589844 31.503906 23.511719 31.902344 23.320312 32.277344 C 23.132812 32.652344 22.855469 32.945312 22.5 33.160156 C 21.230469 35.207031 18.492188 35.582031 16.238281 35.582031 Z M 51.863281 31.601562 C 50.4375 30.042969 47.492188 29.089844 45.417969 29.109375 C 44.863281 29.054688 44.316406 29.117188 43.785156 29.296875 C 43.503906 29.394531 43.246094 29.539062 43.011719 29.722656 C 42.777344 29.90625 42.578125 30.121094 42.414062 30.371094 C 42.25 30.621094 42.128906 30.890625 42.054688 31.183594 C 41.976562 31.472656 41.949219 31.765625 41.96875 32.066406 C 41.890625 32.460938 41.90625 32.855469 42.011719 33.242188 C 42.117188 33.632812 42.300781 33.976562 42.566406 34.277344 C 42.8125 34.5625 43.097656 34.804688 43.417969 35 C 44.84375 35.90625 46.546875 36.210938 48.203125 36.324219 L 48.386719 36.324219 C 49.5625 36.324219 50.851562 36.210938 51.816406 35.441406 C 52.785156 34.671875 52.875 32.671875 51.863281 31.601562 Z M 40.125 42.261719 C 41.621094 46.191406 32.003906 45.9375 29.722656 46.078125 C 29.21875 46.023438 28.714844 46.007812 28.207031 46.03125 C 27.480469 46.070312 26.761719 46.039062 26.042969 45.9375 C 26.035156 46.140625 26.003906 46.34375 25.949219 46.542969 C 26.066406 47.566406 25.511719 49.265625 24.824219 49.40625 C 24.660156 50.148438 24.339844 50.800781 23.535156 50.800781 L 23.304688 50.800781 C 20.839844 50.171875 24.476562 45.585938 21.4375 41.703125 C 21.207031 41.460938 20.953125 41.242188 20.679688 41.050781 C 20.351562 41.015625 20.144531 40.839844 20.058594 40.515625 C 19.046875 39.375 21.09375 37.464844 22.542969 39.234375 C 23.261719 39.878906 23.882812 40.609375 24.40625 41.421875 C 25.882812 40.628906 28.136719 40.46875 29.449219 40.09375 C 32.671875 39.535156 37.964844 39.421875 40.125 42.261719 Z M 35.777344 43.003906 C 34.5625 42.667969 33.328125 42.503906 32.070312 42.515625 C 30.148438 42.542969 28.261719 42.8125 26.410156 43.332031 L 28.019531 43.492188 C 30.621094 43.632812 33.246094 43.585938 35.777344 43.003906 Z M 35.777344 43.003906 " fill-opacity="1" fill-rule="nonzero"/></g></svg>