<svg xmlns="http://www.w3.org/2000/svg" xmlns:xlink="http://www.w3.org/1999/xlink" width="64" zoomAndPan="magnify" viewBox="0 0 48 14.25" height="19" preserveAspectRatio="xMidYMid meet" version="1.0"><defs><clipPath id="595c4b3ff9"><path d="M 17 7 L 32 7 L 32 13.539062 L 17 13.539062 Z M 17 7 " clip-rule="nonzero"/></clipPath><clipPath id="b8d2e24b19"><path d="M 1.199219 0.238281 L 9 0.238281 L 9 9 L 1.199219 9 Z M 1.199219 0.238281 " clip-rule="nonzero"/></clipPath><clipPath id="8e8212ada3"><path d="M 39 0.238281 L 46.800781 0.238281 L 46.800781 9 L 39 9 Z M 39 0.238281 " clip-rule="nonzero"/></clipPath><clipPath id="e7c6055163"><path d="M 17 7 L 32 7 L 32 13.539062 L 17 13.539062 Z M 17 7 " clip-rule="nonzero"/></clipPath><clipPath id="442d0d5760"><path d="M 1.199219 0 L 9 0 L 9 8 L 1.199219 8 Z M 1.199219 0 " clip-rule="nonzero"/></clipPath><clipPath id="0b13b136c5"><path d="M 39 0 L 46.800781 0 L 46.800781 8 L 39 8 Z M 39 0 " clip-rule="nonzero"/></clipPath></defs><g clip-path="url(#595c4b3ff9)"><path fill="#000000" d="M 24.039062 13.777344 C 23.257812 13.746094 22.519531 13.589844 21.785156 13.359375 C 20.691406 13.023438 19.726562 12.441406 18.882812 11.640625 C 18.378906 11.167969 17.945312 10.640625 17.652344 9.980469 C 17.445312 9.527344 17.417969 9.054688 17.660156 8.597656 C 18.054688 7.882812 18.910156 7.789062 19.472656 8.375 C 19.644531 8.5625 19.773438 8.773438 19.910156 8.996094 C 20.484375 9.925781 21.3125 10.472656 22.277344 10.796875 C 22.75 10.953125 23.238281 11.101562 23.730469 11.113281 C 25.042969 11.132812 26.316406 10.925781 27.488281 10.210938 C 28.109375 9.832031 28.5625 9.238281 29.046875 8.683594 C 29.210938 8.496094 29.335938 8.28125 29.519531 8.125 C 29.902344 7.773438 30.328125 7.566406 30.828125 7.773438 C 31.476562 8.03125 31.738281 8.886719 31.429688 9.609375 C 31.238281 10.046875 30.949219 10.398438 30.648438 10.75 C 29.984375 11.519531 29.292969 12.253906 28.417969 12.738281 C 27.726562 13.117188 26.988281 13.347656 26.234375 13.515625 C 25.496094 13.683594 24.761719 13.746094 24.039062 13.777344 Z M 24.039062 13.777344 " fill-opacity="1" fill-rule="nonzero"/></g><g clip-path="url(#b8d2e24b19)"><path fill="#000000" d="M 1.21875 4.339844 C 1.199219 3.921875 1.355469 3.402344 1.546875 2.902344 C 1.78125 2.261719 2.15625 1.703125 2.648438 1.242188 C 3.039062 0.867188 3.492188 0.628906 3.992188 0.441406 C 4.277344 0.339844 4.566406 0.292969 4.867188 0.273438 C 5.257812 0.238281 5.640625 0.3125 6.015625 0.421875 C 6.304688 0.507812 6.578125 0.636719 6.851562 0.785156 C 7.207031 0.988281 7.523438 1.25 7.796875 1.554688 C 8.0625 1.851562 8.28125 2.175781 8.433594 2.539062 C 8.734375 3.226562 8.871094 3.941406 8.742188 4.691406 C 8.664062 5.148438 8.542969 5.59375 8.351562 6.007812 C 8.089844 6.59375 7.707031 7.085938 7.195312 7.464844 C 6.789062 7.773438 6.339844 8.003906 5.851562 8.117188 C 5.53125 8.191406 5.195312 8.21875 4.867188 8.199219 C 4.449219 8.171875 4.03125 8.097656 3.628906 7.949219 C 3.058594 7.734375 2.554688 7.402344 2.148438 6.9375 C 1.519531 6.25 1.21875 5.414062 1.21875 4.339844 Z M 1.21875 4.339844 " fill-opacity="1" fill-rule="nonzero"/></g><g clip-path="url(#8e8212ada3)"><path fill="#000000" d="M 39.148438 4.339844 C 39.128906 3.921875 39.28125 3.402344 39.472656 2.902344 C 39.710938 2.261719 40.082031 1.703125 40.574219 1.242188 C 40.964844 0.867188 41.421875 0.628906 41.921875 0.441406 C 42.203125 0.339844 42.496094 0.292969 42.796875 0.273438 C 43.1875 0.238281 43.570312 0.3125 43.941406 0.421875 C 44.234375 0.507812 44.507812 0.636719 44.78125 0.785156 C 45.132812 0.988281 45.453125 1.25 45.726562 1.554688 C 45.988281 1.851562 46.207031 2.175781 46.363281 2.539062 C 46.664062 3.226562 46.800781 3.941406 46.671875 4.691406 C 46.589844 5.148438 46.472656 5.59375 46.28125 6.007812 C 46.015625 6.59375 45.636719 7.085938 45.125 7.464844 C 44.714844 7.773438 44.269531 8.003906 43.777344 8.117188 C 43.460938 8.191406 43.125 8.21875 42.796875 8.199219 C 42.378906 8.171875 41.957031 8.097656 41.558594 7.949219 C 40.984375 7.734375 40.484375 7.402344 40.074219 6.9375 C 39.445312 6.25 39.15625 5.414062 39.148438 4.339844 Z M 39.148438 4.339844 " fill-opacity="1" fill-rule="nonzero"/></g><g clip-path="url(#e7c6055163)"><path fill="#000000" d="M 24.039062 13.539062 C 23.257812 13.507812 22.519531 13.351562 21.785156 13.121094 C 20.691406 12.785156 19.726562 12.203125 18.882812 11.402344 C 18.378906 10.929688 17.945312 10.402344 17.652344 9.742188 C 17.445312 9.289062 17.417969 8.816406 17.660156 8.359375 C 18.054688 7.644531 18.910156 7.554688 19.472656 8.136719 C 19.644531 8.324219 19.773438 8.535156 19.910156 8.757812 C 20.484375 9.6875 21.3125 10.234375 22.277344 10.558594 C 22.75 10.71875 23.238281 10.867188 23.730469 10.875 C 25.042969 10.894531 26.316406 10.6875 27.488281 9.972656 C 28.109375 9.59375 28.5625 9 29.046875 8.445312 C 29.210938 8.257812 29.335938 8.042969 29.519531 7.886719 C 29.902344 7.535156 30.328125 7.332031 30.828125 7.535156 C 31.476562 7.792969 31.738281 8.648438 31.429688 9.371094 C 31.238281 9.808594 30.949219 10.160156 30.648438 10.511719 C 29.984375 11.28125 29.292969 12.015625 28.417969 12.5 C 27.726562 12.878906 26.988281 13.109375 26.234375 13.277344 C 25.496094 13.445312 24.761719 13.507812 24.039062 13.539062 Z M 24.039062 13.539062 " fill-opacity="1" fill-rule="nonzero"/></g><g clip-path="url(#442d0d5760)"><path fill="#000000" d="M 1.21875 4.101562 C 1.199219 3.683594 1.355469 3.164062 1.546875 2.664062 C 1.78125 2.023438 2.15625 1.464844 2.648438 1.003906 C 3.039062 0.632812 3.492188 0.390625 3.992188 0.203125 C 4.277344 0.101562 4.566406 0.0546875 4.867188 0.0390625 C 5.257812 0 5.640625 0.0742188 6.015625 0.1875 C 6.304688 0.269531 6.578125 0.398438 6.851562 0.546875 C 7.207031 0.75 7.523438 1.011719 7.796875 1.316406 C 8.0625 1.613281 8.28125 1.9375 8.433594 2.300781 C 8.734375 2.988281 8.871094 3.703125 8.742188 4.453125 C 8.664062 4.910156 8.542969 5.355469 8.351562 5.769531 C 8.089844 6.355469 7.707031 6.847656 7.195312 7.226562 C 6.789062 7.535156 6.339844 7.765625 5.851562 7.878906 C 5.53125 7.953125 5.195312 7.980469 4.867188 7.960938 C 4.449219 7.933594 4.03125 7.859375 3.628906 7.710938 C 3.058594 7.496094 2.554688 7.164062 2.148438 6.699219 C 1.519531 6.011719 1.21875 5.175781 1.21875 4.101562 Z M 1.21875 4.101562 " fill-opacity="1" fill-rule="nonzero"/></g><g clip-path="url(#0b13b136c5)"><path fill="#000000" d="M 39.148438 4.101562 C 39.128906 3.683594 39.28125 3.164062 39.472656 2.664062 C 39.710938 2.023438 40.082031 1.464844 40.574219 1.003906 C 40.964844 0.632812 41.421875 0.390625 41.921875 0.203125 C 42.203125 0.101562 42.496094 0.0546875 42.796875 0.0390625 C 43.1875 0 43.570312 0.0742188 43.941406 0.1875 C 44.234375 0.269531 44.507812 0.398438 44.78125 0.546875 C 45.132812 0.75 45.453125 1.011719 45.726562 1.316406 C 45.988281 1.613281 46.207031 1.9375 46.363281 2.300781 C 46.664062 2.988281 46.800781 3.703125 46.671875 4.453125 C 46.589844 4.910156 46.472656 5.355469 46.28125 5.769531 C 46.015625 6.355469 45.636719 6.847656 45.125 7.226562 C 44.714844 7.535156 44.269531 7.765625 43.777344 7.878906 C 43.460938 7.953125 43.125 7.980469 42.796875 7.960938 C 42.378906 7.933594 41.957031 7.859375 41.558594 7.710938 C 40.984375 7.496094 40.484375 7.164062 40.074219 6.699219 C 39.445312 6.011719 39.15625 5.175781 39.148438 4.101562 Z M 39.148438 4.101562 " fill-opacity="1" fill-rule="nonzero"/></g></svg>