<svg xmlns="http://www.w3.org/2000/svg" xmlns:xlink="http://www.w3.org/1999/xlink" width="84" zoomAndPan="magnify" viewBox="0 0 63 62.999997" height="84" preserveAspectRatio="xMidYMid meet" version="1.0"><defs><clipPath id="6a1551e907"><path d="M 7 25.851562 L 23 25.851562 L 23 43 L 7 43 Z M 7 25.851562 " clip-rule="nonzero"/></clipPath><clipPath id="27849eb9b8"><path d="M 37 26 L 52.703125 26 L 52.703125 44 L 37 44 Z M 37 26 " clip-rule="nonzero"/></clipPath><clipPath id="d4d88352bd"><path d="M 22 44 L 32 44 L 32 53.601562 L 22 53.601562 Z M 22 44 " clip-rule="nonzero"/></clipPath></defs><g clip-path="url(#6a1551e907)"><path fill="#000000" d="M 14.160156 25.882812 C 16.480469 25.855469 18.402344 26.71875 19.921875 28.476562 C 21.050781 29.898438 21.753906 31.515625 22.03125 33.332031 C 22.398438 35.605469 22.21875 37.839844 21.492188 40.027344 C 21.140625 41.027344 20.539062 41.84375 19.695312 42.476562 C 18.984375 42.917969 18.253906 42.945312 17.507812 42.558594 C 16.851562 42.175781 16.335938 41.652344 15.957031 40.988281 C 15.441406 40.015625 15.097656 38.984375 14.925781 37.890625 C 14.539062 35.902344 14.582031 33.921875 15.046875 31.949219 C 15.253906 31.132812 15.570312 30.367188 16 29.648438 C 16.167969 29.394531 16.367188 29.164062 16.597656 28.957031 C 15.449219 28.339844 14.265625 28.269531 13.046875 28.75 C 11.632812 29.398438 10.609375 30.4375 9.96875 31.867188 C 9.761719 32.425781 9.554688 32.980469 9.347656 33.539062 C 9.117188 33.914062 8.808594 34.199219 8.417969 34.398438 C 7.984375 34.488281 7.632812 34.355469 7.367188 34 C 7.082031 33.554688 6.972656 33.066406 7.035156 32.535156 C 7.640625 29.992188 9.050781 28.058594 11.269531 26.738281 C 12.175781 26.246094 13.140625 25.957031 14.160156 25.882812 Z M 14.160156 25.882812 " fill-opacity="0.982" fill-rule="evenodd"/></g><g clip-path="url(#27849eb9b8)"><path fill="#000000" d="M 44.480469 26.257812 C 47.238281 26.203125 49.433594 27.289062 51.070312 29.523438 C 51.765625 30.484375 52.261719 31.542969 52.558594 32.703125 C 52.683594 33.300781 52.585938 33.859375 52.269531 34.378906 C 51.847656 34.859375 51.371094 34.921875 50.84375 34.566406 C 50.625 34.375 50.441406 34.15625 50.285156 33.917969 C 50.078125 33.359375 49.871094 32.800781 49.664062 32.242188 C 49.023438 30.8125 48 29.773438 46.585938 29.125 C 45.367188 28.648438 44.183594 28.71875 43.035156 29.335938 C 43.53125 29.832031 43.910156 30.410156 44.171875 31.070312 C 44.859375 32.90625 45.105469 34.804688 44.914062 36.761719 C 44.808594 38.089844 44.519531 39.371094 44.046875 40.613281 C 43.726562 41.355469 43.28125 42.003906 42.703125 42.558594 C 42.136719 43.019531 41.492188 43.230469 40.761719 43.1875 C 40.421875 43.105469 40.105469 42.964844 39.8125 42.769531 C 38.847656 41.976562 38.222656 40.964844 37.933594 39.734375 C 37.183594 37.003906 37.253906 34.300781 38.140625 31.613281 C 38.878906 29.539062 40.207031 27.984375 42.125 26.949219 C 42.882812 26.601562 43.667969 26.371094 44.480469 26.257812 Z M 44.480469 26.257812 " fill-opacity="0.982" fill-rule="evenodd"/></g><g clip-path="url(#d4d88352bd)"><path fill="#000000" d="M 24.074219 44.421875 C 25.050781 44.347656 25.960938 44.5625 26.800781 45.070312 C 27.851562 45.726562 28.765625 46.542969 29.546875 47.519531 C 30.351562 48.5 30.984375 49.589844 31.449219 50.78125 C 31.636719 51.398438 31.636719 52.011719 31.449219 52.625 C 31.382812 52.761719 31.292969 52.878906 31.179688 52.980469 C 30.875 53.132812 30.574219 53.285156 30.269531 53.4375 C 29.464844 53.601562 28.664062 53.5625 27.875 53.3125 C 25.691406 52.582031 23.964844 51.25 22.691406 49.316406 C 22.171875 48.4375 21.949219 47.492188 22.03125 46.472656 C 22.242188 45.300781 22.921875 44.617188 24.074219 44.421875 Z M 24.40625 46.347656 C 24.78125 46.335938 25.140625 46.414062 25.480469 46.578125 C 26.03125 46.8125 26.527344 47.136719 26.964844 47.539062 C 28.136719 48.652344 29.101562 49.921875 29.859375 51.347656 C 29.113281 51.429688 28.398438 51.320312 27.710938 51.011719 C 26.535156 50.507812 25.539062 49.761719 24.714844 48.773438 C 24.359375 48.328125 24.109375 47.828125 23.972656 47.265625 C 23.945312 47.058594 23.945312 46.847656 23.972656 46.640625 C 24.050781 46.441406 24.195312 46.34375 24.40625 46.347656 Z M 24.40625 46.347656 " fill-opacity="0.967" fill-rule="evenodd"/></g><path fill="#000000" d="M 30.519531 45.550781 C 30.574219 45.578125 30.574219 45.578125 30.519531 45.550781 Z M 30.519531 45.550781 " fill-opacity="0.008" fill-rule="evenodd"/></svg>