<svg xmlns="http://www.w3.org/2000/svg" xmlns:xlink="http://www.w3.org/1999/xlink" width="84" zoomAndPan="magnify" viewBox="0 0 63 62.999997" height="84" preserveAspectRatio="xMidYMid meet" version="1.0"><defs><clipPath id="2184c85c02"><path d="M 14 23 L 50 23 L 50 54 L 14 54 Z M 14 23 " clip-rule="nonzero"/></clipPath><clipPath id="8881297514"><path d="M 13.703125 25.03125 L 50.234375 21.011719 L 53.515625 50.832031 L 16.984375 54.851562 Z M 13.703125 25.03125 " clip-rule="nonzero"/></clipPath><clipPath id="0262e3e139"><path d="M 13.703125 25.03125 L 50.234375 21.011719 L 53.515625 50.832031 L 16.984375 54.851562 Z M 13.703125 25.03125 " clip-rule="nonzero"/></clipPath><clipPath id="1a0bddfe79"><path d="M 13.703125 25.03125 L 50.234375 21.011719 L 53.515625 50.832031 L 16.984375 54.851562 Z M 13.703125 25.03125 " clip-rule="nonzero"/></clipPath></defs><g clip-path="url(#2184c85c02)"><g clip-path="url(#8881297514)"><g clip-path="url(#0262e3e139)"><g clip-path="url(#1a0bddfe79)"><path fill="#000000" d="M 23.476562 27.367188 C 25.421875 30.117188 23.335938 32.734375 20.742188 33.375 C 19.773438 33.800781 18.800781 33.816406 17.816406 33.429688 C 16.804688 33.035156 16.070312 32.34375 15.613281 31.355469 C 14.273438 29.496094 15.144531 26.703125 17.144531 25.722656 C 18.609375 24.894531 20.613281 25.140625 22.003906 26.101562 C 22.613281 26.386719 23.105469 26.808594 23.476562 27.367188 Z M 41.636719 24.300781 C 41.082031 24.773438 40.679688 25.351562 40.425781 26.035156 C 40.019531 27.375 40.167969 28.941406 41.253906 29.914062 C 43.308594 31.828125 47.378906 31.289062 48.71875 28.757812 C 50.554688 24.65625 44.628906 21.628906 41.636719 24.300781 Z M 32.402344 30.777344 C 28.179688 30.75 29.375 33.941406 31.3125 34.796875 C 31.277344 35.292969 31.246094 35.808594 31.230469 36.300781 C 31.28125 38.769531 31.15625 41.257812 31.226562 43.722656 C 31.226562 44.703125 31.175781 45.691406 31.171875 46.648438 C 31.199219 46.757812 31.203125 46.871094 31.1875 46.980469 C 30.507812 47.480469 29.980469 48.71875 29.554688 49.300781 C 29.175781 50.300781 27.386719 52.191406 28.925781 52.871094 L 28.949219 52.867188 C 29.351562 53.492188 30.382812 53.199219 30.390625 52.464844 L 30.414062 52.460938 L 31.03125 51.636719 C 31.417969 51.101562 31.757812 50.574219 32.195312 50.082031 C 33.140625 50.222656 33.640625 51.527344 34.183594 52.222656 C 34.324219 52.414062 34.507812 52.539062 34.734375 52.597656 C 34.960938 52.65625 35.183594 52.636719 35.394531 52.535156 C 35.59375 52.394531 35.785156 52.238281 35.964844 52.074219 C 36.394531 51.535156 36.070312 50.8125 35.894531 50.230469 C 35.515625 49 34.667969 47.757812 33.503906 47.460938 C 33.503906 47.285156 33.492188 47.109375 33.46875 46.929688 C 33.488281 46.304688 33.511719 45.699219 33.554688 45.09375 C 33.546875 44.988281 33.550781 44.882812 33.5625 44.78125 C 33.578125 44.289062 33.589844 43.796875 33.582031 43.328125 C 33.574219 42.863281 33.570312 42.617188 33.554688 41.863281 L 33.566406 39.542969 C 33.6875 38.136719 33.730469 36.726562 33.699219 35.316406 C 33.679688 35.136719 33.6875 34.804688 33.652344 34.472656 C 35.472656 33.269531 35.570312 30.71875 32.402344 30.777344 Z M 32.402344 30.777344 " fill-opacity="1" fill-rule="nonzero"/></g></g></g></g></svg>