<svg xmlns="http://www.w3.org/2000/svg" xmlns:xlink="http://www.w3.org/1999/xlink" width="84" zoomAndPan="magnify" viewBox="0 0 63 62.999997" height="84" preserveAspectRatio="xMidYMid meet" version="1.0"><defs><clipPath id="72d506f7b0"><path d="M 7.929688 27.515625 L 56.679688 27.515625 L 56.679688 47.015625 L 7.929688 47.015625 Z M 7.929688 27.515625 " clip-rule="nonzero"/></clipPath></defs><g clip-path="url(#72d506f7b0)"><path fill="#000000" d="M 17.828125 29.558594 C 17.804688 29.558594 17.816406 29.558594 17.828125 29.558594 Z M 25.183594 29.175781 C 25.195312 29.175781 25.207031 29.175781 25.21875 29.175781 C 25.207031 29.175781 25.195312 29.175781 25.183594 29.175781 Z M 14.40625 30.011719 C 14.40625 30.011719 14.40625 30.011719 14.394531 30.011719 Z M 14.441406 30 C 14.441406 30 14.453125 30 14.453125 30 C 14.453125 30 14.441406 30 14.441406 30 Z M 14.453125 30 C 14.464844 30 14.429688 30.011719 14.40625 30.011719 C 14.453125 30.011719 14.5 30 14.546875 30 C 14.546875 29.988281 14.488281 30 14.453125 30 Z M 9.722656 31.902344 L 9.710938 31.890625 C 9.722656 31.902344 9.722656 31.902344 9.722656 31.902344 Z M 10.488281 30.730469 C 10.496094 30.730469 10.496094 30.71875 10.507812 30.71875 C 10.488281 30.71875 10.488281 30.730469 10.488281 30.730469 Z M 8.003906 34.246094 L 7.992188 34.234375 C 8.003906 34.246094 8.003906 34.246094 8.003906 34.246094 Z M 23.640625 35.777344 C 23.640625 35.777344 23.628906 35.777344 23.628906 35.777344 C 23.617188 35.789062 23.617188 35.789062 23.605469 35.789062 Z M 8.640625 36.171875 L 8.628906 36.160156 C 8.628906 36.171875 8.628906 36.171875 8.640625 36.171875 Z M 17.515625 36.402344 C 17.550781 36.402344 17.65625 36.390625 17.796875 36.378906 L 17.804688 36.367188 Z M 16.195312 36.542969 L 16.183594 36.542969 L 16.242188 36.554688 Z M 46.125 27.65625 C 46.113281 27.65625 46.113281 27.65625 46.125 27.65625 Z M 53.234375 27.539062 C 53.246094 27.539062 53.257812 27.539062 53.269531 27.539062 C 53.257812 27.539062 53.246094 27.539062 53.234375 27.539062 Z M 42.785156 27.785156 C 42.785156 27.785156 42.792969 27.785156 42.785156 27.785156 C 42.785156 27.785156 42.785156 27.785156 42.773438 27.785156 Z M 42.839844 27.773438 C 42.839844 27.773438 42.839844 27.773438 42.828125 27.773438 C 42.828125 27.773438 42.828125 27.773438 42.839844 27.773438 Z M 42.792969 27.785156 C 42.839844 27.785156 42.886719 27.785156 42.933594 27.785156 C 42.933594 27.773438 42.875 27.785156 42.839844 27.773438 C 42.839844 27.785156 42.804688 27.785156 42.792969 27.785156 Z M 38.257812 29.246094 L 38.246094 29.234375 C 38.246094 29.246094 38.246094 29.246094 38.257812 29.246094 Z M 54.894531 29.640625 C 54.90625 29.640625 54.917969 29.640625 54.929688 29.640625 C 54.90625 29.640625 54.90625 29.640625 54.894531 29.640625 Z M 42.726562 30.242188 C 42.726562 30.242188 42.738281 30.242188 42.726562 30.242188 C 42.726562 30.242188 42.726562 30.242188 42.714844 30.242188 Z M 37.109375 31.566406 L 37.097656 31.554688 C 37.109375 31.566406 37.109375 31.566406 37.109375 31.566406 Z M 55.9375 30.035156 C 55.914062 30.011719 55.878906 29.988281 55.855469 29.964844 C 55.878906 29.988281 55.914062 30.011719 55.9375 30.035156 Z M 38.28125 30.546875 C 38.292969 30.546875 38.292969 30.546875 38.304688 30.546875 C 38.292969 30.546875 38.28125 30.546875 38.28125 30.546875 Z M 56.285156 30.789062 C 56.261719 30.753906 56.238281 30.660156 56.238281 30.90625 C 56.238281 30.972656 56.230469 31.054688 56.21875 31.125 C 56.230469 31.113281 56.238281 31.089844 56.25 31.078125 C 56.21875 31.195312 56.183594 31.242188 56.148438 31.402344 L 56.125 31.402344 C 56.078125 31.484375 56.078125 31.507812 56.078125 31.53125 C 56.078125 31.542969 56.078125 31.566406 56.03125 31.625 C 56.042969 31.601562 56.042969 31.589844 56.054688 31.566406 C 55.925781 31.761719 55.777344 31.914062 55.613281 32.019531 C 55.453125 32.121094 55.253906 32.179688 55.058594 32.179688 L 55.058594 32.167969 C 54.917969 32.167969 54.707031 32.179688 54.640625 32.179688 L 54.675781 32.179688 L 54.628906 32.179688 C 54.640625 32.191406 54.640625 32.214844 54.652344 32.226562 L 54.640625 32.261719 C 54.664062 32.308594 54.6875 32.367188 54.699219 32.414062 C 54.675781 32.378906 54.640625 32.296875 54.664062 32.527344 C 54.664062 32.597656 54.664062 32.667969 54.652344 32.738281 C 54.664062 32.726562 54.675781 32.703125 54.6875 32.691406 C 54.664062 32.808594 54.628906 32.84375 54.605469 33.015625 L 54.582031 33.015625 C 54.546875 33.097656 54.546875 33.121094 54.546875 33.132812 C 54.546875 33.144531 54.546875 33.167969 54.5 33.226562 C 54.5 33.203125 54.511719 33.191406 54.511719 33.167969 C 54.40625 33.375 54.28125 33.527344 54.140625 33.644531 C 53.988281 33.757812 53.828125 33.839844 53.628906 33.863281 L 53.628906 33.851562 C 53.59375 33.851562 53.558594 33.863281 53.515625 33.863281 C 53.480469 33.863281 53.433594 33.875 53.398438 33.875 C 53.328125 33.886719 53.257812 33.898438 53.222656 33.898438 L 53.257812 33.898438 L 52.992188 33.933594 L 52.980469 33.921875 L 52.792969 33.945312 L 52.792969 33.933594 C 52.609375 33.945312 52.445312 33.96875 52.296875 33.992188 L 52.355469 33.992188 C 52.308594 34.003906 52.261719 34.039062 52.226562 34.070312 C 52.109375 34.082031 52.132812 34.09375 52.039062 34.105469 C 52.039062 34.140625 52.050781 34.175781 52.050781 34.210938 L 52.0625 34.292969 C 52.097656 34.316406 52.0625 34.375 52.0625 34.410156 L 52.085938 34.429688 C 52.0625 34.546875 52.0625 34.746094 52.0625 34.917969 C 52.050781 34.929688 52.050781 35 52.0625 35.058594 L 52.050781 35.058594 C 52.039062 35.359375 52.039062 35.359375 52.039062 35.648438 L 52.0625 35.707031 C 52.050781 35.660156 52.027344 35.730469 52.027344 35.753906 C 52.027344 35.8125 52.039062 35.917969 52.039062 35.996094 L 52.027344 35.996094 C 52.027344 35.847656 52.015625 35.636719 52.015625 35.523438 L 51.996094 35.523438 L 51.984375 35.636719 L 52.007812 35.671875 C 51.984375 35.824219 52.007812 35.90625 51.996094 35.996094 C 51.996094 36.066406 52.007812 36.113281 52.015625 36.125 L 52.015625 36.136719 C 52.015625 36.136719 52.015625 36.136719 52.015625 36.125 C 52.007812 36.207031 51.996094 36.242188 51.984375 36.335938 L 51.984375 36.242188 L 51.960938 36.335938 C 51.949219 36.414062 52.007812 36.355469 51.960938 36.542969 L 51.9375 36.601562 C 51.960938 36.625 51.925781 36.796875 51.914062 36.890625 L 51.984375 36.773438 C 51.984375 36.890625 51.960938 37.019531 51.972656 37.121094 C 51.972656 37.121094 51.960938 37.101562 51.949219 37.144531 L 51.960938 37.203125 L 51.949219 37.238281 C 51.960938 37.296875 51.984375 37.261719 52.007812 37.285156 L 51.996094 37.285156 C 52.027344 37.308594 51.949219 37.644531 51.960938 37.738281 C 51.960938 37.714844 51.984375 37.691406 51.972656 37.738281 C 51.984375 37.738281 51.984375 37.703125 51.996094 37.679688 C 51.996094 37.738281 51.984375 37.738281 51.960938 37.878906 C 51.996094 37.910156 51.960938 38.0625 51.949219 38.167969 C 51.9375 38.179688 51.9375 38.214844 51.9375 38.144531 C 51.925781 38.179688 51.914062 38.226562 51.914062 38.261719 C 51.914062 38.304688 51.949219 38.179688 51.925781 38.28125 C 51.902344 38.363281 51.902344 38.28125 51.855469 38.433594 C 51.820312 38.527344 51.796875 38.632812 51.75 38.6875 C 51.726562 38.722656 51.65625 38.804688 51.578125 38.875 C 51.554688 38.886719 51.542969 38.910156 51.519531 38.921875 C 51.320312 39.117188 51.042969 39.234375 50.742188 39.234375 C 50.742188 39.234375 50.730469 39.234375 50.730469 39.234375 C 50.730469 39.246094 50.742188 39.246094 50.742188 39.257812 C 50.613281 39.292969 50.484375 39.316406 50.335938 39.304688 C 50.347656 39.304688 50.347656 39.304688 50.347656 39.304688 C 50.171875 39.222656 50 39.164062 49.882812 39.015625 C 49.894531 39.003906 49.824219 38.945312 49.765625 38.875 C 49.707031 38.804688 49.652344 38.722656 49.652344 38.6875 C 49.605469 38.5625 49.546875 38.480469 49.523438 38.375 C 49.523438 38.375 49.535156 38.363281 49.535156 38.339844 C 49.535156 38.304688 49.535156 38.261719 49.523438 38.214844 C 49.523438 38.179688 49.476562 38.0625 49.5 37.992188 C 49.523438 37.910156 49.511719 37.785156 49.511719 37.679688 L 49.5 37.703125 C 49.523438 37.285156 49.5 36.820312 49.535156 36.472656 C 49.570312 36.542969 49.5 36.367188 49.535156 36.449219 L 49.535156 36.3125 C 49.535156 36.3125 49.535156 36.3125 49.523438 36.3125 C 49.511719 36.230469 49.464844 36.148438 49.5 36.054688 C 49.535156 36.054688 49.488281 35.929688 49.511719 35.972656 C 49.453125 35.589844 49.535156 35.417969 49.464844 35.011719 L 49.464844 35.035156 L 49.464844 34.941406 L 49.441406 34.976562 C 49.464844 34.917969 49.417969 34.769531 49.441406 34.769531 L 49.441406 34.78125 C 49.464844 34.792969 49.453125 34.6875 49.464844 34.640625 C 49.453125 34.640625 49.453125 34.652344 49.453125 34.664062 C 49.453125 34.652344 49.453125 34.628906 49.441406 34.59375 C 49.453125 34.5 49.453125 34.398438 49.441406 34.316406 C 49.429688 34.316406 49.40625 34.316406 49.394531 34.316406 L 49.335938 34.339844 C 49.082031 34.339844 48.675781 34.363281 48.28125 34.386719 C 48.246094 34.375 48.121094 34.386719 47.992188 34.410156 L 48.050781 34.410156 C 47.410156 34.476562 47.410156 34.476562 46.785156 34.523438 L 46.667969 34.546875 C 46.785156 34.523438 46.625 34.511719 46.566406 34.511719 C 46.4375 34.523438 46.230469 34.546875 46.042969 34.558594 L 46.042969 34.546875 C 46.355469 34.523438 46.820312 34.476562 47.074219 34.464844 L 47.074219 34.441406 L 46.820312 34.441406 L 46.738281 34.476562 C 46.402344 34.476562 46.242188 34.511719 46.03125 34.523438 C 45.878906 34.535156 45.777344 34.546875 45.753906 34.558594 L 45.71875 34.558594 C 45.71875 34.558594 45.730469 34.558594 45.742188 34.558594 C 45.566406 34.558594 45.484375 34.546875 45.277344 34.558594 L 45.484375 34.546875 L 45.277344 34.535156 C 45.113281 34.535156 45.230469 34.582031 44.882812 34.570312 C 44.882812 34.59375 44.894531 34.558594 44.894531 34.640625 C 44.894531 34.640625 44.894531 34.652344 44.894531 34.652344 C 44.882812 34.710938 44.90625 34.746094 44.90625 34.792969 L 44.917969 34.871094 C 44.953125 34.882812 44.917969 34.941406 44.917969 34.976562 L 44.941406 35 C 44.917969 35.117188 44.917969 35.300781 44.929688 35.476562 C 44.917969 35.488281 44.929688 35.546875 44.929688 35.601562 L 44.941406 35.582031 C 44.941406 35.871094 44.941406 35.871094 44.964844 36.148438 L 44.988281 36.195312 C 44.976562 36.148438 44.953125 36.21875 44.953125 36.242188 C 44.953125 36.300781 44.964844 36.390625 44.976562 36.472656 L 44.964844 36.472656 C 44.953125 36.335938 44.929688 36.125 44.929688 36.019531 L 44.90625 36.019531 L 44.894531 36.136719 L 44.917969 36.171875 C 44.90625 36.324219 44.929688 36.390625 44.929688 36.484375 C 44.929688 36.554688 44.941406 36.601562 44.953125 36.613281 L 44.953125 36.625 C 44.953125 36.625 44.953125 36.625 44.953125 36.613281 C 44.941406 36.683594 44.941406 36.730469 44.929688 36.820312 L 44.917969 36.730469 L 44.894531 36.820312 C 44.882812 36.890625 44.941406 36.832031 44.917969 37.03125 L 44.894531 37.089844 C 44.917969 37.101562 44.894531 37.273438 44.882812 37.367188 L 44.941406 37.25 C 44.941406 37.355469 44.941406 37.484375 44.953125 37.574219 C 44.953125 37.574219 44.941406 37.550781 44.941406 37.597656 L 44.953125 37.65625 L 44.941406 37.691406 C 44.964844 37.75 44.976562 37.714844 45.011719 37.726562 L 45 37.726562 C 45.035156 37.738281 44.988281 38.074219 45.011719 38.15625 C 45.011719 38.132812 45.023438 38.109375 45.023438 38.15625 C 45.035156 38.15625 45.035156 38.121094 45.035156 38.097656 C 45.035156 38.15625 45.023438 38.15625 45.023438 38.28125 C 45.035156 38.292969 45.046875 38.339844 45.046875 38.398438 C 45.046875 38.457031 45.035156 38.527344 45.035156 38.585938 C 45.023438 38.597656 45.011719 38.632812 45.023438 38.5625 C 45.011719 38.597656 45 38.644531 44.988281 38.675781 C 44.976562 38.710938 45.035156 38.609375 45 38.699219 C 44.964844 38.78125 44.976562 38.699219 44.929688 38.839844 C 44.894531 38.933594 44.871094 39.027344 44.8125 39.082031 C 44.789062 39.117188 44.71875 39.1875 44.640625 39.246094 C 44.617188 39.257812 44.605469 39.28125 44.582031 39.292969 C 44.40625 39.453125 44.175781 39.558594 43.910156 39.582031 C 43.886719 39.582031 43.863281 39.582031 43.828125 39.582031 C 43.828125 39.582031 43.816406 39.582031 43.816406 39.582031 C 43.816406 39.59375 43.828125 39.59375 43.828125 39.605469 C 43.710938 39.640625 43.582031 39.664062 43.445312 39.664062 C 43.457031 39.664062 43.457031 39.664062 43.457031 39.664062 C 43.28125 39.582031 43.121094 39.535156 43.003906 39.398438 C 43.015625 39.386719 42.945312 39.328125 42.886719 39.269531 C 42.828125 39.210938 42.773438 39.128906 42.773438 39.09375 C 42.726562 38.96875 42.65625 38.898438 42.632812 38.804688 C 42.644531 38.804688 42.644531 38.734375 42.621094 38.65625 C 42.621094 38.644531 42.597656 38.609375 42.585938 38.574219 C 42.574219 38.539062 42.5625 38.492188 42.574219 38.457031 C 42.585938 38.375 42.5625 38.261719 42.5625 38.15625 L 42.550781 38.179688 C 42.539062 37.785156 42.46875 37.332031 42.480469 36.996094 C 42.515625 37.066406 42.433594 36.902344 42.480469 36.972656 L 42.480469 36.84375 C 42.480469 36.84375 42.480469 36.84375 42.46875 36.84375 C 42.457031 36.773438 42.398438 36.695312 42.433594 36.601562 C 42.46875 36.589844 42.410156 36.472656 42.445312 36.519531 C 42.367188 36.160156 42.433594 35.972656 42.355469 35.589844 L 42.367188 35.613281 L 42.367188 35.523438 L 42.34375 35.558594 C 42.367188 35.5 42.308594 35.359375 42.34375 35.359375 L 42.34375 35.371094 C 42.367188 35.371094 42.355469 35.277344 42.355469 35.230469 C 42.34375 35.230469 42.34375 35.242188 42.34375 35.253906 C 42.34375 35.242188 42.34375 35.21875 42.332031 35.1875 C 42.34375 35.046875 42.320312 34.90625 42.320312 34.792969 C 42.238281 34.792969 42.191406 34.78125 41.949219 34.78125 C 41.878906 34.8125 41.542969 34.804688 41.320312 34.8125 C 41.296875 34.8125 41.21875 34.804688 41.355469 34.792969 L 41.101562 34.78125 C 41.019531 34.78125 41.273438 34.804688 41.054688 34.804688 C 40.878906 34.804688 41.054688 34.769531 40.71875 34.78125 C 40.507812 34.78125 40.300781 34.8125 40.125 34.804688 C 40.023438 34.804688 39.699219 34.792969 39.429688 34.792969 C 39.324219 34.792969 39.222656 34.804688 39.117188 34.804688 C 38.617188 34.824219 38.121094 34.835938 37.621094 34.847656 C 37.609375 34.847656 37.597656 34.847656 37.585938 34.847656 C 37.574219 34.847656 37.5625 34.847656 37.550781 34.847656 C 37.5625 34.859375 37.574219 34.859375 37.585938 34.871094 C 37.320312 34.90625 37.019531 34.847656 36.773438 34.6875 C 36.785156 34.699219 36.796875 34.699219 36.796875 34.699219 C 36.632812 34.546875 36.519531 34.386719 36.4375 34.199219 C 36.355469 34.015625 36.332031 33.816406 36.367188 33.621094 C 36.390625 33.621094 36.402344 33.433594 36.484375 33.238281 C 36.554688 33.050781 36.703125 32.878906 36.761719 32.867188 C 36.972656 32.691406 37.144531 32.585938 37.34375 32.539062 C 37.261719 32.4375 37.191406 32.320312 37.15625 32.191406 C 37.085938 31.996094 37.0625 31.785156 37.121094 31.578125 C 37.144531 31.578125 37.167969 31.378906 37.273438 31.195312 C 37.367188 31.007812 37.539062 30.847656 37.597656 30.835938 C 37.738281 30.742188 37.851562 30.683594 37.96875 30.636719 C 38.027344 30.613281 38.085938 30.601562 38.144531 30.582031 C 38.1875 30.570312 38.246094 30.558594 38.292969 30.558594 C 38.269531 30.570312 38.433594 30.582031 38.605469 30.546875 C 38.675781 30.535156 38.886719 30.476562 39.070312 30.488281 C 39.257812 30.488281 39.546875 30.464844 39.777344 30.441406 L 39.730469 30.429688 C 40.671875 30.382812 41.714844 30.277344 42.527344 30.265625 C 42.367188 30.3125 42.761719 30.207031 42.585938 30.265625 L 42.714844 30.253906 C 42.738281 30.253906 42.785156 30.242188 42.816406 30.242188 L 42.851562 30.242188 C 42.839844 30.242188 42.828125 30.242188 42.816406 30.242188 C 42.816406 30.242188 42.804688 30.242188 42.804688 30.242188 C 42.785156 30.242188 42.773438 30.242188 42.75 30.242188 C 42.761719 30.242188 42.773438 30.242188 42.785156 30.242188 C 42.785156 30.242188 42.785156 30.242188 42.792969 30.242188 C 42.792969 30.242188 42.785156 30.242188 42.785156 30.242188 C 42.785156 30.242188 42.792969 30.242188 42.792969 30.242188 C 42.804688 30.242188 42.828125 30.242188 42.863281 30.242188 L 42.632812 30.230469 C 42.550781 30.230469 42.785156 30.253906 42.597656 30.253906 C 42.445312 30.242188 42.597656 30.21875 42.296875 30.230469 C 42.109375 30.230469 41.925781 30.253906 41.773438 30.242188 C 41.679688 30.242188 41.390625 30.230469 41.160156 30.21875 C 40.625 30.242188 40.082031 30.265625 39.546875 30.289062 C 39.535156 30.289062 39.511719 30.289062 39.5 30.289062 C 39.488281 30.289062 39.476562 30.289062 39.476562 30.289062 C 39.488281 30.300781 39.5 30.300781 39.5 30.3125 C 39.257812 30.347656 38.988281 30.3125 38.757812 30.1875 C 38.769531 30.1875 38.78125 30.199219 38.78125 30.199219 C 38.628906 30.070312 38.515625 29.941406 38.421875 29.78125 C 38.328125 29.628906 38.28125 29.453125 38.28125 29.269531 C 38.304688 29.269531 38.28125 29.09375 38.316406 28.921875 C 38.339844 28.746094 38.433594 28.5625 38.480469 28.539062 C 38.640625 28.316406 38.78125 28.179688 38.964844 28.074219 C 38.898438 28.109375 39.058594 28.050781 39.234375 27.992188 C 39.269531 27.980469 39.324219 27.957031 39.40625 27.945312 C 39.488281 27.933594 39.570312 27.921875 39.652344 27.921875 C 39.800781 27.933594 40.058594 27.910156 40.265625 27.898438 L 40.195312 27.867188 C 40.996094 27.84375 41.902344 27.785156 42.597656 27.796875 C 42.457031 27.832031 42.804688 27.75 42.644531 27.796875 L 42.910156 27.796875 C 42.921875 27.796875 42.921875 27.796875 42.921875 27.785156 C 43.074219 27.773438 43.234375 27.714844 43.421875 27.75 C 43.433594 27.785156 43.675781 27.726562 43.570312 27.761719 C 44.304688 27.679688 44.664062 27.761719 45.453125 27.679688 L 45.40625 27.691406 L 45.589844 27.691406 L 45.53125 27.667969 C 45.636719 27.691406 45.9375 27.644531 45.925781 27.667969 L 45.902344 27.667969 C 45.890625 27.691406 46.078125 27.679688 46.183594 27.679688 C 46.171875 27.667969 46.148438 27.667969 46.136719 27.667969 C 46.160156 27.667969 46.195312 27.667969 46.273438 27.65625 C 46.613281 27.679688 46.972656 27.632812 47.214844 27.65625 L 47.308594 27.632812 C 47.667969 27.65625 48.164062 27.574219 48.492188 27.621094 C 49.046875 27.597656 49.394531 27.574219 49.929688 27.550781 C 50.207031 27.550781 50.625 27.527344 50.777344 27.5625 C 51.207031 27.574219 51.402344 27.527344 51.75 27.527344 C 51.691406 27.574219 51.996094 27.527344 52.085938 27.550781 C 52.0625 27.515625 52.308594 27.550781 52.367188 27.515625 L 52.378906 27.539062 L 52.921875 27.539062 L 52.886719 27.550781 C 52.875 27.574219 52.980469 27.550781 53.050781 27.550781 L 53.15625 27.527344 L 53.121094 27.550781 C 53.175781 27.550781 53.1875 27.550781 53.222656 27.550781 C 53.210938 27.550781 53.210938 27.550781 53.210938 27.5625 C 53.269531 27.5625 53.351562 27.574219 53.410156 27.5625 C 53.46875 27.5625 53.515625 27.5625 53.527344 27.550781 C 53.582031 27.5625 53.546875 27.574219 53.617188 27.585938 C 53.710938 27.609375 53.652344 27.574219 53.617188 27.5625 C 53.675781 27.585938 53.710938 27.597656 53.757812 27.621094 C 53.804688 27.644531 53.851562 27.667969 53.953125 27.714844 C 53.929688 27.703125 53.898438 27.691406 53.863281 27.679688 C 53.988281 27.738281 54.023438 27.796875 54.1875 27.898438 C 54.199219 27.898438 54.210938 27.890625 54.234375 27.890625 C 54.1875 27.855469 54.140625 27.808594 54.082031 27.773438 C 54.175781 27.820312 54.257812 27.890625 54.335938 27.957031 C 54.371094 28.015625 54.335938 27.980469 54.335938 27.992188 C 54.40625 28.0625 54.417969 28.109375 54.441406 28.144531 C 54.464844 28.179688 54.464844 28.203125 54.511719 28.25 L 54.488281 28.292969 C 54.511719 28.339844 54.535156 28.375 54.558594 28.421875 C 54.546875 28.410156 54.523438 28.386719 54.523438 28.386719 C 54.511719 28.386719 54.523438 28.421875 54.535156 28.527344 C 54.546875 28.585938 54.558594 28.65625 54.558594 28.710938 L 54.582031 28.664062 C 54.582031 28.769531 54.546875 28.816406 54.558594 28.957031 L 54.535156 28.957031 C 54.523438 29.039062 54.523438 29.046875 54.523438 29.070312 C 54.523438 29.082031 54.535156 29.09375 54.511719 29.164062 L 54.511719 29.105469 C 54.464844 29.304688 54.382812 29.464844 54.28125 29.605469 C 54.269531 29.617188 54.257812 29.628906 54.246094 29.640625 L 54.523438 29.628906 L 54.476562 29.640625 C 54.464844 29.664062 54.59375 29.640625 54.675781 29.640625 L 54.800781 29.605469 L 54.765625 29.628906 C 54.835938 29.628906 54.847656 29.628906 54.882812 29.617188 C 54.871094 29.617188 54.871094 29.628906 54.871094 29.628906 C 55.023438 29.628906 55.21875 29.652344 55.230469 29.628906 C 55.300781 29.652344 55.265625 29.652344 55.335938 29.675781 C 55.441406 29.699219 55.371094 29.675781 55.335938 29.652344 C 55.40625 29.675781 55.441406 29.699219 55.484375 29.722656 C 55.507812 29.734375 55.53125 29.746094 55.566406 29.769531 C 55.601562 29.792969 55.648438 29.816406 55.695312 29.847656 C 55.660156 29.835938 55.636719 29.816406 55.601562 29.804688 C 55.671875 29.835938 55.71875 29.871094 55.765625 29.917969 C 55.8125 29.964844 55.867188 30.011719 55.949219 30.09375 L 55.996094 30.09375 C 55.972656 30.070312 55.949219 30.035156 55.914062 30.011719 C 55.972656 30.070312 56.042969 30.128906 56.089844 30.199219 C 56.125 30.265625 56.089844 30.21875 56.089844 30.242188 C 56.207031 30.429688 56.160156 30.453125 56.230469 30.558594 C 56.230469 30.570312 56.21875 30.582031 56.21875 30.589844 C 56.25 30.683594 56.273438 30.742188 56.285156 30.789062 Z M 42.320312 34.78125 C 42.320312 34.769531 42.320312 34.769531 42.320312 34.757812 C 42.296875 34.757812 42.273438 34.757812 42.25 34.757812 C 42.296875 34.757812 42.367188 34.769531 42.238281 34.769531 C 42.25 34.78125 42.285156 34.78125 42.320312 34.78125 Z M 52.226562 34.09375 C 52.226562 34.09375 52.214844 34.09375 52.214844 34.09375 C 52.203125 34.105469 52.203125 34.105469 52.191406 34.105469 Z M 36.378906 33.609375 L 36.367188 33.597656 C 36.378906 33.609375 36.378906 33.609375 36.378906 33.609375 Z M 48.316406 34.421875 C 48.304688 34.410156 48.304688 34.410156 48.304688 34.410156 Z M 45.742188 34.570312 C 45.742188 34.570312 45.730469 34.582031 45.742188 34.570312 C 45.777344 34.570312 45.890625 34.570312 46.042969 34.558594 L 46.054688 34.546875 Z M 41.320312 34.8125 C 41.273438 34.8125 41.230469 34.8125 41.195312 34.824219 C 41.332031 34.8125 41.34375 34.8125 41.320312 34.8125 Z M 15.277344 37.019531 C 15.277344 37.03125 15.277344 37.03125 15.277344 37.019531 C 15.289062 37.03125 15.289062 37.03125 15.277344 37.019531 Z M 13.003906 39.363281 Z M 13.003906 39.363281 C 13.003906 39.339844 13.003906 39.316406 13.003906 39.292969 C 12.992188 39.292969 13.003906 39.339844 12.992188 39.351562 C 12.992188 39.328125 12.992188 39.351562 13.003906 39.363281 Z M 15.394531 37.886719 C 15.394531 37.886719 15.382812 37.886719 15.394531 37.886719 C 15.382812 37.886719 15.382812 37.886719 15.394531 37.886719 Z M 15.476562 39.070312 C 15.488281 39.058594 15.476562 39.003906 15.476562 38.933594 L 15.464844 38.933594 Z M 13.167969 41.335938 C 13.167969 41.335938 13.167969 41.324219 13.167969 41.335938 Z M 15.496094 39.722656 L 15.507812 39.699219 Z M 15.589844 41.171875 C 15.601562 41.101562 15.589844 41.101562 15.589844 41.101562 C 15.589844 41.136719 15.589844 41.160156 15.589844 41.171875 Z M 20.195312 37.921875 C 20.195312 37.921875 20.195312 37.933594 20.195312 37.921875 Z M 20.195312 37.921875 C 20.195312 37.898438 20.195312 37.878906 20.195312 37.855469 C 20.183594 37.855469 20.195312 37.898438 20.183594 37.910156 C 20.183594 37.886719 20.195312 37.910156 20.195312 37.921875 Z M 22.574219 36.496094 Z M 22.667969 37.632812 C 22.667969 37.632812 22.667969 37.644531 22.667969 37.632812 C 22.679688 37.621094 22.667969 37.5625 22.65625 37.496094 L 22.644531 37.496094 Z M 21.261719 40.695312 C 21.273438 40.695312 21.273438 40.695312 21.261719 40.695312 C 21.101562 40.613281 20.925781 40.570312 20.824219 40.417969 C 20.835938 40.40625 20.765625 40.347656 20.707031 40.289062 C 20.648438 40.21875 20.589844 40.152344 20.589844 40.117188 C 20.542969 39.988281 20.476562 39.917969 20.453125 39.824219 C 20.464844 39.824219 20.464844 39.757812 20.441406 39.675781 C 20.441406 39.640625 20.382812 39.558594 20.394531 39.476562 C 20.40625 39.398438 20.371094 39.28125 20.359375 39.175781 L 20.347656 39.199219 C 20.3125 38.804688 20.230469 38.363281 20.21875 38.015625 C 20.265625 38.085938 20.171875 37.921875 20.21875 37.992188 L 20.207031 37.867188 C 20.207031 37.867188 20.207031 37.867188 20.195312 37.867188 C 20.171875 37.796875 20.113281 37.714844 20.148438 37.621094 C 20.183594 37.609375 20.125 37.496094 20.160156 37.539062 C 20.070312 37.179688 20.125 36.996094 20.023438 36.625 L 20.035156 36.648438 L 20.023438 36.554688 L 20 36.589844 C 20.011719 36.53125 19.964844 36.390625 19.988281 36.390625 L 19.988281 36.402344 C 20.011719 36.402344 19.988281 36.3125 20 36.265625 C 19.988281 36.265625 19.988281 36.277344 19.988281 36.289062 C 19.988281 36.277344 19.976562 36.253906 19.964844 36.21875 C 19.964844 36.195312 19.964844 36.171875 19.964844 36.160156 L 19.953125 36.160156 C 19.917969 36.148438 19.789062 36.171875 19.675781 36.183594 L 19.730469 36.183594 C 19.117188 36.230469 19.105469 36.242188 18.515625 36.3125 L 18.410156 36.347656 C 18.515625 36.324219 18.363281 36.3125 18.304688 36.324219 C 18.1875 36.335938 17.992188 36.367188 17.804688 36.390625 L 17.804688 36.378906 C 18.109375 36.347656 18.539062 36.289062 18.769531 36.253906 L 18.769531 36.230469 L 18.527344 36.242188 L 18.445312 36.277344 C 18.121094 36.289062 17.96875 36.324219 17.773438 36.347656 C 17.632812 36.355469 17.527344 36.378906 17.503906 36.402344 L 17.480469 36.402344 C 17.480469 36.402344 17.492188 36.402344 17.503906 36.402344 C 17.34375 36.402344 17.261719 36.414062 17.0625 36.425781 L 17.261719 36.402344 L 17.0625 36.402344 C 16.902344 36.414062 17.027344 36.460938 16.636719 36.460938 L 16.519531 36.449219 C 16.484375 36.472656 16.125 36.496094 15.925781 36.496094 L 16.183594 36.53125 C 15.949219 36.554688 15.671875 36.578125 15.488281 36.613281 C 15.488281 36.613281 15.519531 36.601562 15.441406 36.601562 L 15.324219 36.625 L 15.242188 36.625 C 15.242188 36.625 15.230469 36.625 15.230469 36.625 C 15.230469 36.648438 15.242188 36.671875 15.242188 36.707031 L 15.21875 36.773438 C 15.21875 36.84375 15.265625 36.832031 15.265625 36.878906 C 15.253906 37.03125 15.277344 36.914062 15.277344 37.03125 C 15.277344 37.03125 15.277344 37.042969 15.277344 37.042969 C 15.277344 37.101562 15.289062 37.132812 15.300781 37.179688 L 15.324219 37.261719 C 15.359375 37.273438 15.335938 37.34375 15.335938 37.378906 L 15.359375 37.402344 C 15.347656 37.515625 15.359375 37.714844 15.382812 37.886719 C 15.371094 37.910156 15.382812 37.96875 15.394531 38.027344 L 15.40625 38.003906 C 15.417969 38.304688 15.417969 38.304688 15.453125 38.597656 L 15.476562 38.644531 C 15.453125 38.597656 15.441406 38.664062 15.441406 38.6875 C 15.441406 38.746094 15.464844 38.839844 15.476562 38.933594 L 15.464844 38.933594 C 15.441406 38.792969 15.417969 38.574219 15.40625 38.457031 L 15.382812 38.457031 L 15.382812 38.574219 L 15.417969 38.609375 C 15.40625 38.769531 15.429688 38.839844 15.441406 38.933594 C 15.453125 39.003906 15.464844 39.046875 15.476562 39.058594 L 15.476562 39.070312 C 15.476562 39.070312 15.476562 39.070312 15.476562 39.058594 C 15.464844 39.140625 15.464844 39.175781 15.464844 39.28125 L 15.453125 39.1875 L 15.441406 39.292969 C 15.429688 39.375 15.488281 39.304688 15.464844 39.5 L 15.441406 39.558594 C 15.464844 39.570312 15.453125 39.757812 15.441406 39.847656 L 15.496094 39.722656 C 15.496094 39.835938 15.496094 39.964844 15.519531 40.058594 C 15.519531 40.058594 15.507812 40.035156 15.507812 40.082031 L 15.519531 40.140625 L 15.507812 40.175781 C 15.53125 40.230469 15.542969 40.195312 15.578125 40.21875 L 15.566406 40.21875 C 15.601562 40.230469 15.554688 40.589844 15.578125 40.671875 C 15.578125 40.648438 15.589844 40.625 15.589844 40.671875 C 15.601562 40.671875 15.601562 40.636719 15.601562 40.613281 C 15.601562 40.671875 15.589844 40.671875 15.589844 40.8125 C 15.601562 40.824219 15.613281 40.871094 15.613281 40.929688 C 15.613281 40.953125 15.613281 40.984375 15.613281 41.019531 C 15.613281 41.054688 15.613281 41.089844 15.613281 41.113281 C 15.601562 41.125 15.601562 41.171875 15.601562 41.089844 C 15.601562 41.136719 15.589844 41.171875 15.578125 41.21875 C 15.578125 41.265625 15.613281 41.136719 15.589844 41.242188 C 15.566406 41.324219 15.566406 41.242188 15.519531 41.390625 C 15.488281 41.484375 15.464844 41.589844 15.40625 41.648438 C 15.382812 41.683594 15.3125 41.761719 15.230469 41.820312 C 15.207031 41.832031 15.195312 41.855469 15.171875 41.867188 C 14.988281 42.054688 14.742188 42.167969 14.464844 42.179688 C 14.441406 42.179688 14.429688 42.179688 14.40625 42.179688 C 14.40625 42.179688 14.394531 42.179688 14.394531 42.179688 C 14.394531 42.191406 14.40625 42.191406 14.40625 42.203125 C 14.28125 42.238281 14.152344 42.261719 14.011719 42.25 C 14.023438 42.25 14.023438 42.25 14.023438 42.25 C 13.851562 42.167969 13.675781 42.113281 13.5625 41.960938 C 13.570312 41.949219 13.503906 41.890625 13.445312 41.820312 C 13.386719 41.75 13.328125 41.671875 13.328125 41.636719 C 13.28125 41.507812 13.222656 41.425781 13.1875 41.324219 C 13.199219 41.335938 13.199219 41.253906 13.179688 41.171875 C 13.167969 41.136719 13.132812 41.042969 13.144531 40.960938 C 13.15625 40.882812 13.132812 40.753906 13.132812 40.648438 L 13.121094 40.671875 C 13.109375 40.265625 13.039062 39.804688 13.039062 39.453125 C 13.085938 39.523438 12.992188 39.351562 13.039062 39.429688 L 13.027344 39.292969 C 13.027344 39.292969 13.027344 39.292969 13.015625 39.292969 C 12.992188 39.210938 12.945312 39.140625 12.96875 39.039062 C 13.003906 39.027344 12.945312 38.910156 12.980469 38.957031 C 12.886719 38.585938 12.945312 38.398438 12.839844 38.003906 L 12.851562 38.027344 L 12.839844 37.933594 L 12.816406 37.96875 C 12.828125 37.910156 12.773438 37.761719 12.796875 37.773438 L 12.796875 37.785156 C 12.816406 37.785156 12.796875 37.691406 12.796875 37.644531 C 12.785156 37.644531 12.785156 37.667969 12.785156 37.667969 C 12.785156 37.65625 12.773438 37.632812 12.761719 37.597656 C 12.761719 37.425781 12.703125 37.25 12.714844 37.121094 L 12.691406 37.078125 C 12.691406 37.042969 12.691406 36.996094 12.679688 36.960938 C 12.527344 36.984375 12.390625 37.019531 12.261719 37.019531 C 12.167969 37.03125 11.867188 37.042969 11.625 37.066406 C 11.089844 37.144531 10.566406 37.214844 10.046875 37.296875 C 9.988281 37.308594 9.941406 37.308594 9.882812 37.308594 C 9.871094 37.308594 9.859375 37.308594 9.847656 37.308594 C 9.859375 37.320312 9.871094 37.320312 9.882812 37.332031 C 9.628906 37.367188 9.347656 37.320312 9.105469 37.167969 C 9.117188 37.179688 9.128906 37.179688 9.128906 37.179688 C 8.976562 37.042969 8.851562 36.890625 8.769531 36.730469 C 8.6875 36.554688 8.640625 36.367188 8.664062 36.183594 C 8.675781 36.183594 8.675781 35.996094 8.734375 35.8125 C 8.757812 35.742188 8.78125 35.671875 8.816406 35.613281 C 8.664062 35.582031 8.515625 35.511719 8.375 35.417969 C 8.386719 35.429688 8.398438 35.429688 8.398438 35.429688 C 8.234375 35.265625 8.121094 35.082031 8.050781 34.882812 C 7.96875 34.675781 7.945312 34.453125 8.003906 34.246094 C 8.027344 34.246094 8.0625 34.046875 8.167969 33.863281 C 8.269531 33.675781 8.457031 33.527344 8.515625 33.503906 C 8.652344 33.421875 8.78125 33.363281 8.898438 33.316406 C 9.011719 33.28125 9.105469 33.261719 9.222656 33.226562 C 9.140625 33.238281 9.328125 33.238281 9.511719 33.179688 C 9.582031 33.167969 9.789062 33.074219 9.976562 33.050781 C 10.105469 33.039062 10.289062 32.992188 10.476562 32.957031 C 10.382812 32.933594 10.289062 32.890625 10.195312 32.84375 C 10.207031 32.855469 10.21875 32.855469 10.21875 32.855469 C 10.058594 32.738281 9.941406 32.597656 9.847656 32.4375 C 9.765625 32.273438 9.710938 32.089844 9.722656 31.902344 C 9.730469 31.902344 9.730469 31.730469 9.777344 31.542969 C 9.8125 31.355469 9.929688 31.183594 9.976562 31.160156 C 10.070312 31.054688 10.148438 30.964844 10.242188 30.894531 C 10.289062 30.859375 10.335938 30.824219 10.371094 30.800781 C 10.40625 30.777344 10.453125 30.753906 10.496094 30.730469 C 10.488281 30.742188 10.648438 30.707031 10.789062 30.660156 C 10.847656 30.648438 11.03125 30.570312 11.183594 30.558594 C 11.34375 30.546875 11.601562 30.476562 11.808594 30.453125 L 11.773438 30.453125 C 12.597656 30.3125 13.515625 30.140625 14.222656 30.058594 C 14.082031 30.117188 14.429688 29.988281 14.269531 30.046875 L 14.546875 30.011719 C 14.558594 30.011719 14.558594 30.011719 14.558594 30 C 14.710938 29.964844 14.871094 29.894531 15.070312 29.90625 C 15.082031 29.941406 15.324219 29.859375 15.230469 29.90625 C 15.972656 29.757812 16.355469 29.792969 17.15625 29.640625 L 17.109375 29.652344 L 17.296875 29.640625 L 17.203125 29.605469 C 17.320312 29.617188 17.621094 29.546875 17.609375 29.570312 L 17.585938 29.570312 C 17.574219 29.59375 17.773438 29.558594 17.875 29.558594 C 17.863281 29.546875 17.839844 29.546875 17.828125 29.546875 C 17.851562 29.546875 17.886719 29.535156 17.980469 29.523438 C 18.328125 29.523438 18.699219 29.441406 18.945312 29.453125 L 19.046875 29.429688 C 19.417969 29.421875 19.929688 29.316406 20.277344 29.339844 C 20.847656 29.292969 21.207031 29.246094 21.761719 29.210938 C 22.050781 29.199219 22.480469 29.164062 22.644531 29.199219 C 23.085938 29.199219 23.28125 29.152344 23.652344 29.140625 C 23.59375 29.1875 23.898438 29.140625 24 29.152344 C 23.976562 29.117188 24.234375 29.152344 24.292969 29.117188 L 24.304688 29.140625 L 24.859375 29.140625 L 24.8125 29.152344 C 24.800781 29.175781 24.90625 29.152344 24.988281 29.152344 C 25.023438 29.140625 25.070312 29.140625 25.113281 29.128906 L 25.082031 29.152344 C 25.136719 29.164062 25.160156 29.164062 25.195312 29.164062 C 25.183594 29.164062 25.183594 29.164062 25.183594 29.175781 C 25.324219 29.199219 25.476562 29.234375 25.496094 29.222656 C 25.554688 29.246094 25.519531 29.246094 25.589844 29.269531 C 25.671875 29.304688 25.625 29.269531 25.589844 29.246094 C 25.707031 29.304688 25.71875 29.316406 25.902344 29.441406 L 25.824219 29.398438 C 25.878906 29.429688 25.925781 29.464844 25.960938 29.5 C 26.007812 29.535156 26.054688 29.582031 26.125 29.652344 L 26.171875 29.640625 C 26.125 29.59375 26.078125 29.546875 26.03125 29.511719 C 26.113281 29.570312 26.195312 29.652344 26.261719 29.734375 C 26.296875 29.792969 26.261719 29.757812 26.261719 29.769531 C 26.320312 29.847656 26.34375 29.894531 26.355469 29.929688 C 26.367188 29.964844 26.378906 29.988281 26.414062 30.035156 L 26.402344 30.070312 C 26.425781 30.117188 26.449219 30.164062 26.472656 30.207031 C 26.460938 30.199219 26.449219 30.175781 26.4375 30.175781 C 26.425781 30.175781 26.425781 30.207031 26.449219 30.324219 C 26.460938 30.394531 26.460938 30.453125 26.460938 30.523438 C 26.472656 30.511719 26.484375 30.488281 26.484375 30.476562 C 26.472656 30.582031 26.449219 30.625 26.449219 30.777344 L 26.425781 30.777344 C 26.414062 30.835938 26.402344 30.859375 26.414062 30.871094 C 26.449219 30.882812 26.4375 30.894531 26.496094 30.90625 C 26.601562 30.941406 26.53125 30.90625 26.496094 30.882812 C 26.566406 30.90625 26.601562 30.929688 26.644531 30.953125 C 26.691406 30.972656 26.761719 31.007812 26.867188 31.078125 C 26.832031 31.054688 26.796875 31.042969 26.773438 31.019531 C 26.914062 31.101562 26.960938 31.171875 27.121094 31.324219 L 27.167969 31.324219 C 27.144531 31.289062 27.121094 31.265625 27.085938 31.242188 C 27.0625 31.21875 27.027344 31.195312 27.007812 31.171875 C 27.097656 31.253906 27.191406 31.335938 27.261719 31.4375 C 27.296875 31.507812 27.261719 31.460938 27.261719 31.484375 C 27.320312 31.578125 27.332031 31.636719 27.34375 31.683594 C 27.355469 31.730469 27.367188 31.75 27.390625 31.808594 L 27.378906 31.84375 C 27.402344 31.902344 27.410156 31.960938 27.421875 32.019531 C 27.410156 31.996094 27.402344 31.972656 27.390625 31.972656 C 27.378906 31.972656 27.378906 32.019531 27.378906 32.132812 C 27.367188 32.214844 27.367188 32.285156 27.34375 32.355469 L 27.378906 32.308594 C 27.367188 32.367188 27.34375 32.414062 27.320312 32.460938 C 27.296875 32.503906 27.285156 32.550781 27.261719 32.644531 L 27.238281 32.644531 C 27.191406 32.726562 27.191406 32.75 27.179688 32.773438 C 27.179688 32.785156 27.179688 32.808594 27.121094 32.867188 C 27.132812 32.84375 27.132812 32.820312 27.144531 32.808594 C 27.019531 33.003906 26.855469 33.144531 26.679688 33.25 C 26.589844 33.292969 26.496094 33.328125 26.402344 33.351562 C 26.308594 33.375 26.195312 33.386719 26.113281 33.386719 L 26.113281 33.375 C 25.984375 33.375 25.765625 33.398438 25.695312 33.410156 L 25.730469 33.410156 L 25.507812 33.433594 C 25.554688 33.46875 25.601562 33.515625 25.648438 33.5625 C 25.683594 33.621094 25.648438 33.585938 25.648438 33.597656 C 25.707031 33.675781 25.730469 33.722656 25.742188 33.757812 C 25.753906 33.792969 25.765625 33.816406 25.800781 33.875 L 25.789062 33.910156 C 25.8125 33.957031 25.835938 34.003906 25.859375 34.046875 C 25.847656 34.039062 25.824219 34.003906 25.824219 34.015625 C 25.8125 34.015625 25.824219 34.046875 25.835938 34.164062 C 25.847656 34.234375 25.847656 34.304688 25.847656 34.363281 C 25.859375 34.351562 25.867188 34.328125 25.867188 34.316406 C 25.859375 34.429688 25.824219 34.464844 25.824219 34.628906 L 25.800781 34.628906 C 25.777344 34.710938 25.777344 34.734375 25.777344 34.746094 C 25.777344 34.757812 25.789062 34.769531 25.753906 34.835938 L 25.753906 34.78125 C 25.683594 34.988281 25.578125 35.140625 25.453125 35.265625 C 25.324219 35.394531 25.171875 35.488281 25 35.546875 L 25 35.535156 C 24.964844 35.546875 24.929688 35.558594 24.894531 35.570312 C 24.859375 35.582031 24.8125 35.589844 24.777344 35.589844 C 24.699219 35.601562 24.640625 35.613281 24.605469 35.613281 L 24.640625 35.613281 L 24.382812 35.648438 L 24.371094 35.636719 L 24.1875 35.660156 L 24.1875 35.648438 C 24.011719 35.660156 23.863281 35.671875 23.710938 35.707031 L 23.769531 35.707031 C 23.722656 35.71875 23.6875 35.753906 23.640625 35.789062 C 23.503906 35.800781 23.570312 35.824219 23.386719 35.824219 C 23.433594 35.8125 23.457031 35.800781 23.421875 35.789062 C 23.210938 35.824219 23.304688 35.800781 23.144531 35.859375 C 23.246094 35.824219 23.167969 35.800781 22.992188 35.8125 C 22.726562 35.835938 22.644531 35.871094 22.515625 35.882812 L 22.515625 35.90625 C 22.550781 35.917969 22.527344 35.972656 22.527344 36.007812 L 22.550781 36.03125 C 22.539062 36.148438 22.550781 36.335938 22.5625 36.507812 C 22.550781 36.53125 22.5625 36.578125 22.574219 36.636719 L 22.585938 36.613281 C 22.597656 36.902344 22.597656 36.902344 22.632812 37.179688 L 22.65625 37.226562 C 22.632812 37.179688 22.621094 37.25 22.621094 37.273438 C 22.621094 37.332031 22.644531 37.425781 22.65625 37.503906 L 22.644531 37.503906 C 22.621094 37.367188 22.597656 37.15625 22.585938 37.054688 L 22.5625 37.054688 L 22.5625 37.167969 L 22.597656 37.203125 C 22.585938 37.355469 22.621094 37.425781 22.621094 37.515625 C 22.632812 37.585938 22.644531 37.632812 22.65625 37.644531 L 22.65625 37.65625 C 22.65625 37.65625 22.65625 37.65625 22.65625 37.644531 C 22.644531 37.726562 22.644531 37.761719 22.644531 37.855469 L 22.632812 37.761719 L 22.621094 37.855469 C 22.621094 37.933594 22.667969 37.867188 22.65625 38.050781 L 22.644531 38.109375 C 22.667969 38.121094 22.65625 38.292969 22.65625 38.386719 L 22.714844 38.261719 C 22.726562 38.363281 22.726562 38.503906 22.75 38.585938 C 22.75 38.585938 22.738281 38.574219 22.738281 38.609375 L 22.75 38.664062 L 22.738281 38.699219 C 22.761719 38.757812 22.773438 38.722656 22.804688 38.734375 L 22.792969 38.734375 C 22.828125 38.746094 22.804688 39.082031 22.828125 39.164062 C 22.828125 39.140625 22.839844 39.117188 22.839844 39.164062 C 22.851562 39.164062 22.851562 39.128906 22.851562 39.105469 C 22.851562 39.164062 22.839844 39.164062 22.851562 39.292969 C 22.886719 39.316406 22.875 39.488281 22.863281 39.59375 C 22.851562 39.605469 22.839844 39.640625 22.851562 39.570312 C 22.839844 39.605469 22.828125 39.652344 22.816406 39.6875 C 22.816406 39.722656 22.851562 39.617188 22.828125 39.710938 C 22.792969 39.78125 22.804688 39.710938 22.761719 39.847656 C 22.726562 39.941406 22.703125 40.035156 22.644531 40.09375 C 22.621094 40.128906 22.550781 40.195312 22.46875 40.253906 C 22.445312 40.265625 22.433594 40.289062 22.410156 40.300781 C 22.25 40.453125 22.039062 40.558594 21.796875 40.589844 C 21.75 40.589844 21.703125 40.601562 21.65625 40.601562 C 21.65625 40.601562 21.644531 40.601562 21.644531 40.601562 C 21.644531 40.613281 21.65625 40.613281 21.65625 40.625 C 21.542969 40.683594 21.402344 40.695312 21.261719 40.695312 Z M 25.496094 33.433594 L 25.453125 33.433594 C 25.464844 33.445312 25.484375 33.457031 25.496094 33.46875 L 25.542969 33.457031 C 25.519531 33.457031 25.507812 33.445312 25.496094 33.433594 Z M 20.441406 39.824219 C 20.441406 39.824219 20.441406 39.8125 20.441406 39.824219 Z M 22.714844 38.261719 L 22.726562 38.238281 Z M 22.851562 39.617188 C 22.851562 39.640625 22.851562 39.664062 22.851562 39.675781 C 22.863281 39.605469 22.863281 39.605469 22.851562 39.617188 Z M 44.882812 34.652344 C 44.894531 34.652344 44.894531 34.652344 44.882812 34.652344 Z M 42.492188 36.902344 C 42.480469 36.902344 42.480469 36.902344 42.492188 36.902344 Z M 42.492188 36.890625 C 42.492188 36.867188 42.492188 36.84375 42.492188 36.820312 C 42.480469 36.820312 42.492188 36.867188 42.480469 36.878906 C 42.480469 36.867188 42.480469 36.890625 42.492188 36.890625 Z M 44.941406 35.476562 C 44.929688 35.488281 44.929688 35.488281 44.941406 35.476562 C 44.929688 35.488281 44.929688 35.488281 44.941406 35.476562 Z M 44.964844 36.625 C 44.976562 36.613281 44.964844 36.554688 44.964844 36.496094 L 44.953125 36.496094 Z M 42.65625 38.804688 C 42.65625 38.804688 42.644531 38.804688 42.65625 38.804688 C 42.644531 38.804688 42.65625 38.804688 42.65625 38.804688 Z M 44.976562 37.25 L 44.988281 37.226562 Z M 45.058594 38.65625 C 45.070312 38.585938 45.070312 38.585938 45.058594 38.597656 C 45.058594 38.621094 45.058594 38.644531 45.058594 38.65625 Z M 49.535156 36.402344 C 49.535156 36.402344 49.523438 36.402344 49.535156 36.402344 Z M 49.535156 36.402344 C 49.546875 36.378906 49.546875 36.355469 49.535156 36.335938 C 49.523438 36.335938 49.523438 36.378906 49.523438 36.390625 C 49.523438 36.367188 49.535156 36.390625 49.535156 36.402344 Z M 52.050781 34.941406 C 52.039062 34.941406 52.039062 34.953125 52.050781 34.941406 Z M 52.015625 36.136719 C 52.027344 36.125 52.027344 36.066406 52.027344 35.996094 L 52.015625 35.996094 Z M 49.535156 38.410156 C 49.535156 38.398438 49.535156 38.398438 49.535156 38.410156 C 49.535156 38.398438 49.535156 38.398438 49.535156 38.410156 Z M 51.984375 36.785156 L 51.996094 36.761719 Z M 51.972656 38.25 C 51.984375 38.179688 51.972656 38.179688 51.972656 38.191406 C 51.960938 38.203125 51.960938 38.226562 51.972656 38.25 Z M 28.292969 44.628906 C 28.28125 44.628906 28.269531 44.628906 28.292969 44.628906 Z M 41.472656 40.417969 C 41.484375 40.417969 41.484375 40.417969 41.496094 40.417969 C 41.507812 40.417969 41.53125 40.417969 41.542969 40.40625 C 41.519531 40.417969 41.496094 40.417969 41.472656 40.417969 Z M 42.261719 42.878906 C 42.261719 42.886719 42.261719 42.886719 42.25 42.886719 C 42.261719 42.898438 42.261719 42.898438 42.261719 42.878906 Z M 36.75 43.710938 C 36.761719 43.710938 36.773438 43.710938 36.796875 43.710938 C 36.773438 43.722656 36.761719 43.710938 36.75 43.710938 Z M 23.863281 43.328125 C 23.863281 43.328125 23.875 43.339844 23.863281 43.328125 C 23.863281 43.328125 23.863281 43.316406 23.851562 43.316406 Z M 23.875 43.339844 C 23.910156 43.386719 23.945312 43.445312 23.976562 43.492188 C 23.976562 43.492188 23.933594 43.421875 23.910156 43.386719 C 23.921875 43.386719 23.886719 43.351562 23.875 43.339844 Z M 23.910156 43.386719 C 23.910156 43.386719 23.910156 43.375 23.898438 43.375 C 23.910156 43.375 23.910156 43.375 23.910156 43.386719 Z M 25.230469 46.878906 L 25.207031 46.890625 C 25.230469 46.890625 25.230469 46.878906 25.230469 46.878906 Z M 40.753906 44.953125 C 40.753906 44.953125 40.742188 44.953125 40.742188 44.953125 Z M 37.539062 46.265625 C 37.539062 46.265625 37.527344 46.265625 37.527344 46.265625 C 37.585938 46.265625 37.75 46.253906 37.945312 46.230469 L 37.957031 46.21875 C 37.816406 46.242188 37.679688 46.253906 37.539062 46.265625 Z M 42.34375 40.996094 C 42.261719 40.882812 42.191406 40.800781 42.167969 40.765625 C 42.144531 40.730469 42.15625 40.71875 42.238281 40.777344 C 42.132812 40.695312 42.097656 40.683594 42.0625 40.660156 C 42.027344 40.636719 41.996094 40.601562 41.832031 40.535156 C 41.785156 40.5 41.820312 40.511719 41.902344 40.535156 C 41.761719 40.464844 41.714844 40.453125 41.667969 40.441406 C 41.632812 40.429688 41.601562 40.429688 41.484375 40.40625 C 41.449219 40.417969 41.414062 40.429688 41.378906 40.429688 C 41.34375 40.441406 41.308594 40.453125 41.261719 40.453125 L 41.34375 40.464844 C 41.113281 40.464844 40.859375 40.523438 40.625 40.660156 L 40.625 40.648438 C 40.542969 40.695312 40.476562 40.765625 40.40625 40.835938 L 40.382812 40.835938 C 40.289062 40.941406 40.207031 41.054688 40.148438 41.183594 C 40.160156 41.171875 40.171875 41.148438 40.171875 41.136719 C 40.148438 41.183594 40.101562 41.277344 40.082031 41.390625 C 40.046875 41.484375 40.023438 41.589844 39.988281 41.660156 L 39.976562 41.648438 C 39.882812 41.84375 39.8125 42.03125 39.707031 42.203125 C 39.617188 42.390625 39.488281 42.5625 39.324219 42.761719 L 39.359375 42.703125 C 39.234375 42.820312 39.347656 42.761719 39.199219 42.898438 L 39.175781 42.886719 C 39.058594 43.027344 39 43.050781 38.898438 43.109375 L 38.953125 43.097656 C 38.898438 43.144531 38.839844 43.203125 38.769531 43.238281 C 38.550781 43.375 38.617188 43.292969 38.640625 43.261719 C 38.59375 43.304688 38.550781 43.328125 38.503906 43.363281 L 38.457031 43.363281 C 38.410156 43.410156 38.375 43.421875 38.339844 43.433594 C 38.292969 43.445312 38.246094 43.46875 38.15625 43.527344 C 38.132812 43.527344 38.175781 43.503906 38.109375 43.527344 C 38.003906 43.585938 37.886719 43.632812 37.773438 43.664062 L 37.980469 43.597656 L 37.96875 43.644531 C 37.863281 43.6875 37.785156 43.710938 37.714844 43.710938 C 37.644531 43.722656 37.585938 43.734375 37.503906 43.746094 C 37.539062 43.734375 37.574219 43.734375 37.609375 43.722656 C 37.34375 43.769531 37.332031 43.746094 37.179688 43.734375 C 37.226562 43.746094 37.296875 43.757812 37.191406 43.757812 C 37.109375 43.757812 37.144531 43.746094 37.074219 43.734375 C 37.050781 43.757812 36.855469 43.757812 36.679688 43.710938 C 36.679688 43.710938 36.691406 43.710938 36.703125 43.710938 C 36.65625 43.710938 36.632812 43.710938 36.554688 43.6875 L 36.601562 43.675781 L 36.449219 43.664062 C 36.355469 43.632812 36.207031 43.609375 36.21875 43.597656 L 36.273438 43.609375 C 36.019531 43.539062 35.777344 43.457031 35.542969 43.351562 L 35.542969 43.328125 C 35.464844 43.328125 35.171875 43.144531 35.183594 43.179688 C 35.125 43.132812 35 43.074219 34.90625 43.003906 C 34.8125 42.945312 34.753906 42.886719 34.800781 42.898438 C 34.617188 42.75 34.488281 42.621094 34.394531 42.460938 C 34.371094 42.425781 34.359375 42.378906 34.335938 42.332031 C 34.328125 42.320312 34.316406 42.273438 34.304688 42.238281 C 34.292969 42.203125 34.28125 42.167969 34.257812 42.144531 C 34.199219 42.019531 34.105469 41.878906 33.964844 41.75 C 33.886719 41.648438 33.664062 41.484375 33.386719 41.425781 C 33.109375 41.355469 32.785156 41.402344 32.5625 41.496094 C 32.34375 41.601562 32.167969 41.738281 32.050781 41.914062 C 31.996094 41.996094 31.9375 42.089844 31.902344 42.179688 C 31.867188 42.261719 31.84375 42.332031 31.808594 42.402344 C 31.667969 42.679688 31.507812 42.957031 31.242188 43.261719 C 31.066406 43.421875 30.859375 43.621094 30.613281 43.804688 C 30.382812 43.992188 30.113281 44.140625 29.871094 44.222656 C 29.835938 44.246094 29.789062 44.269531 29.753906 44.292969 C 29.429688 44.398438 28.933594 44.558594 28.445312 44.582031 C 28.328125 44.605469 28.269531 44.617188 28.234375 44.617188 C 28.257812 44.617188 28.292969 44.617188 28.304688 44.628906 C 28.167969 44.628906 27.886719 44.652344 27.910156 44.628906 L 27.945312 44.628906 C 27.96875 44.605469 27.527344 44.652344 27.378906 44.617188 L 27.457031 44.652344 C 27.367188 44.652344 27.285156 44.640625 27.191406 44.640625 L 27.261719 44.640625 C 26.691406 44.640625 26.273438 44.570312 25.878906 44.476562 C 25.683594 44.429688 25.496094 44.375 25.289062 44.304688 C 25.09375 44.234375 24.871094 44.152344 24.640625 44.046875 C 24.777344 44.09375 24.453125 43.957031 24.464844 43.921875 C 24.269531 43.746094 24.070312 43.644531 23.933594 43.492188 C 23.933594 43.492188 23.933594 43.492188 23.921875 43.480469 C 23.886719 43.433594 23.851562 43.386719 23.816406 43.328125 L 23.757812 43.25 C 23.734375 43.214844 23.710938 43.191406 23.6875 43.167969 C 23.792969 43.261719 23.734375 43.203125 23.664062 43.144531 C 23.59375 43.085938 23.527344 43.039062 23.628906 43.109375 C 23.421875 42.898438 23.121094 42.75 22.785156 42.738281 C 22.445312 42.726562 22.097656 42.867188 21.855469 43.121094 C 21.613281 43.375 21.472656 43.734375 21.496094 44.09375 C 21.507812 44.269531 21.554688 44.441406 21.636719 44.605469 L 21.703125 44.722656 L 21.773438 44.8125 C 21.820312 44.871094 21.867188 44.941406 21.914062 45 L 21.890625 44.953125 C 22.074219 45.207031 22.367188 45.476562 22.539062 45.636719 C 22.714844 45.8125 22.96875 45.941406 23.039062 45.984375 C 23.234375 46.101562 23.398438 46.21875 23.375 46.207031 C 23.433594 46.230469 23.480469 46.265625 23.539062 46.289062 C 23.59375 46.3125 23.664062 46.34375 23.734375 46.367188 C 23.804688 46.402344 23.875 46.425781 23.945312 46.460938 C 24.023438 46.496094 24.09375 46.53125 24.1875 46.566406 C 24.246094 46.601562 24.488281 46.695312 24.71875 46.75 C 24.953125 46.808594 25.183594 46.867188 25.183594 46.878906 C 25.648438 47.019531 26.113281 47.042969 26.625 47.121094 C 26.625 47.121094 26.613281 47.121094 26.601562 47.121094 C 26.960938 47.121094 27.308594 47.101562 27.65625 47.054688 C 27.644531 47.042969 27.632812 47.042969 27.609375 47.03125 C 27.621094 47.03125 27.644531 47.03125 27.65625 47.03125 C 28.527344 47.03125 29.328125 46.914062 30.070312 46.695312 C 30.136719 46.671875 30.21875 46.660156 30.300781 46.636719 C 30.578125 46.554688 30.859375 46.460938 30.960938 46.414062 C 31.171875 46.335938 31.414062 46.183594 31.65625 46.042969 C 32.039062 45.800781 31.855469 45.941406 32.050781 45.824219 C 32.285156 45.660156 31.996094 45.847656 32.085938 45.777344 C 32.179688 45.71875 32.273438 45.648438 32.367188 45.578125 C 32.214844 45.707031 32.296875 45.648438 32.332031 45.625 C 32.445312 45.535156 32.597656 45.417969 32.714844 45.300781 C 32.839844 45.1875 32.933594 45.09375 32.957031 45.046875 C 32.992188 45.011719 33.027344 44.976562 33.050781 44.953125 C 33.0625 44.941406 33.074219 44.929688 33.085938 44.917969 C 33.097656 44.917969 33.097656 44.90625 33.109375 44.90625 C 33.132812 44.882812 33.144531 44.871094 33.15625 44.859375 C 33.167969 44.859375 33.167969 44.847656 33.167969 44.847656 L 33.175781 44.859375 C 33.1875 44.871094 33.199219 44.882812 33.210938 44.894531 C 33.199219 44.882812 33.1875 44.871094 33.175781 44.847656 C 33.167969 44.835938 33.167969 44.835938 33.167969 44.824219 C 33.167969 44.824219 33.15625 44.824219 33.15625 44.824219 C 33.167969 44.8125 33.167969 44.835938 33.175781 44.835938 C 33.175781 44.835938 33.1875 44.847656 33.1875 44.847656 C 33.1875 44.847656 33.199219 44.847656 33.1875 44.847656 C 33.1875 44.847656 33.167969 44.824219 33.15625 44.8125 C 33.175781 44.824219 33.210938 44.859375 33.304688 44.929688 C 33.410156 45.011719 33.527344 45.105469 33.652344 45.1875 C 33.898438 45.347656 34.128906 45.476562 34.164062 45.476562 C 34.222656 45.476562 34.152344 45.417969 34.316406 45.476562 L 34.40625 45.535156 L 34.570312 45.589844 C 34.675781 45.636719 34.617188 45.625 34.617188 45.625 C 34.871094 45.71875 35.230469 45.859375 35.554688 45.953125 C 35.453125 45.894531 35.347656 45.847656 35.242188 45.789062 C 35.371094 45.835938 35.554688 45.90625 35.71875 45.953125 C 35.878906 45.996094 36.019531 46.03125 36.042969 46.03125 C 36.101562 46.054688 36.148438 46.066406 36.207031 46.089844 C 36.484375 46.160156 36.578125 46.160156 36.632812 46.160156 C 36.691406 46.160156 36.703125 46.148438 36.820312 46.160156 C 36.914062 46.171875 37.007812 46.183594 37.109375 46.195312 C 37.015625 46.195312 36.925781 46.183594 36.820312 46.183594 C 37.097656 46.21875 37.214844 46.230469 37.445312 46.230469 C 37.433594 46.230469 37.421875 46.230469 37.421875 46.230469 L 37.457031 46.230469 C 37.492188 46.21875 37.644531 46.195312 37.839844 46.171875 C 37.980469 46.148438 38.109375 46.125 38.257812 46.089844 C 38.328125 46.066406 38.410156 46.054688 38.492188 46.03125 C 38.582031 46.007812 38.675781 45.984375 38.78125 45.953125 L 38.875 45.894531 L 39.035156 45.847656 C 39.09375 45.824219 39.140625 45.800781 39.199219 45.777344 L 39.210938 45.800781 C 39.128906 45.835938 39.035156 45.882812 38.933594 45.917969 C 38.828125 45.953125 38.710938 46.007812 38.582031 46.03125 C 38.457031 46.066406 38.339844 46.101562 38.210938 46.136719 C 38.085938 46.160156 37.96875 46.183594 37.863281 46.207031 L 37.851562 46.21875 C 37.980469 46.195312 38.121094 46.171875 38.234375 46.148438 C 38.363281 46.113281 38.46875 46.078125 38.550781 46.054688 C 38.617188 46.042969 38.792969 45.996094 38.722656 46.03125 L 38.839844 45.972656 C 38.941406 45.941406 39.035156 45.90625 39.105469 45.871094 C 39.1875 45.835938 39.246094 45.800781 39.316406 45.777344 C 39.441406 45.71875 39.535156 45.671875 39.628906 45.613281 C 39.71875 45.558594 39.824219 45.511719 39.941406 45.429688 C 40.058594 45.359375 40.207031 45.265625 40.382812 45.128906 L 40.3125 45.164062 C 40.382812 45.105469 40.453125 45.046875 40.507812 45 C 40.566406 44.953125 40.601562 44.917969 40.636719 44.90625 C 41.042969 44.558594 41.414062 44.128906 41.632812 43.851562 L 41.65625 43.769531 C 41.726562 43.675781 41.84375 43.550781 41.84375 43.480469 C 41.878906 43.410156 41.925781 43.339844 41.960938 43.261719 C 42.027344 43.121094 42.0625 43.027344 42.15625 42.878906 C 42.15625 42.867188 42.167969 42.855469 42.167969 42.84375 C 42.308594 42.515625 42.144531 42.84375 42.308594 42.472656 C 42.367188 42.355469 42.320312 42.320312 42.390625 42.132812 C 42.421875 42.078125 42.445312 42.019531 42.480469 41.949219 C 42.527344 41.75 42.515625 41.625 42.492188 41.484375 C 42.550781 41.402344 42.503906 41.242188 42.34375 40.996094 Z M 23.421875 46.207031 C 23.410156 46.207031 23.410156 46.195312 23.398438 46.195312 C 23.410156 46.195312 23.421875 46.207031 23.421875 46.207031 Z M 38.828125 46.066406 L 38.792969 46.078125 C 38.804688 46.078125 38.816406 46.066406 38.828125 46.066406 Z M 35.648438 45.996094 C 35.636719 45.996094 35.636719 45.996094 35.625 45.996094 L 35.695312 46.03125 Z M 32.390625 45.636719 C 32.332031 45.683594 32.285156 45.71875 32.25 45.742188 C 32.410156 45.625 32.410156 45.625 32.390625 45.636719 Z M 32.390625 45.636719 " fill-opacity="1" fill-rule="nonzero"/></g></svg>