<svg xmlns="http://www.w3.org/2000/svg" xmlns:xlink="http://www.w3.org/1999/xlink" width="84" zoomAndPan="magnify" viewBox="0 0 63 62.999997" height="84" preserveAspectRatio="xMidYMid meet" version="1.0"><defs><clipPath id="4240ed5fbe"><path d="M 8 26 L 56 26 L 56 46.144531 L 8 46.144531 Z M 8 26 " clip-rule="nonzero"/></clipPath></defs><g clip-path="url(#4240ed5fbe)"><path fill="#000000" d="M 24.976562 38.160156 C 23.804688 38.550781 22.472656 38.308594 21.269531 38.617188 C 19.34375 38.960938 17.402344 39.367188 15.625 40.179688 C 14.570312 40.554688 13.582031 41.535156 12.429688 41.535156 L 12.019531 41.484375 C 10.964844 41.175781 10.636719 39.742188 11.457031 39.007812 C 13.449219 37.703125 15.835938 36.957031 18.140625 36.351562 C 16.167969 36.011719 14.175781 35.796875 12.199219 35.503906 C 10.980469 35.277344 9.632812 35.390625 8.511719 34.855469 C 5.464844 31.464844 19.804688 33.5 21.023438 33.972656 C 22.734375 34.480469 27.757812 35.878906 24.976562 38.160156 Z M 54.066406 32.574219 C 51.695312 32.246094 49.308594 32.832031 46.984375 33.242188 C 45.289062 33.746094 37.042969 35.082031 39.890625 37.882812 C 40.894531 38.4375 42.246094 38.355469 43.578125 38.292969 C 44.433594 38.242188 45.289062 38.195312 46.046875 38.308594 C 48.765625 38.339844 51.363281 39.1875 54 39.609375 L 54.097656 39.609375 C 55.414062 39.609375 55.976562 37.753906 54.804688 37.054688 C 52.664062 35.976562 50.113281 35.894531 47.757812 35.621094 C 50.195312 34.902344 52.648438 34.203125 55.199219 34.089844 C 56.371094 33.453125 54.839844 32.558594 54.066406 32.574219 Z M 22.160156 30.910156 L 22.539062 30.945312 C 23.804688 30.945312 24.808594 29.691406 23.574219 28.695312 C 23.097656 28.386719 22.503906 28.433594 21.996094 28.222656 C 20.761719 27.785156 19.492188 25.894531 18.140625 27.019531 C 16.429688 29.152344 20.449219 30.796875 22.160156 30.910156 Z M 42.277344 31.59375 L 42.574219 31.59375 C 44.136719 31.59375 46.015625 30.308594 47.035156 29.234375 C 47.292969 28.925781 47.519531 28.59375 47.710938 28.238281 C 48.089844 27.507812 47.28125 26.609375 46.507812 26.886719 C 45.40625 26.546875 44.730469 27.898438 43.808594 28.273438 C 43.199219 28.664062 42.507812 28.941406 41.933594 29.363281 C 41.074219 29.933594 41.289062 31.300781 42.277344 31.59375 Z M 38.046875 43.585938 C 36.253906 41.648438 32.136719 41.386719 29.765625 42.378906 C 28.5625 43.03125 25.667969 44.839844 27.722656 46.109375 L 27.972656 46.144531 C 28.644531 46.144531 29.15625 45.441406 29.734375 45.148438 C 30.917969 44.480469 32.417969 44.320312 33.765625 44.402344 C 35.117188 44.480469 36.316406 45.949219 37.734375 45.898438 C 38.851562 45.671875 39.035156 44.089844 38.046875 43.585938 Z M 38.046875 43.585938 " fill-opacity="1" fill-rule="nonzero"/></g></svg>